<svg width="368" height="268" viewBox="0 0 368 268" fill="none" xmlns="http://www.w3.org/2000/svg">
<path d="M332.173 31.0393H238.451V93.5477H332.173V31.0393Z" fill="url(#paint0_linear_6977_29852)"/>
<path d="M265.009 40.8077H325.202" stroke="white" stroke-width="2" stroke-miterlimit="10" stroke-linecap="round"/>
<path d="M246.009 37.4379C246.809 37.4379 247.457 36.7883 247.457 35.987C247.457 35.1857 246.809 34.5361 246.009 34.5361C245.21 34.5361 244.562 35.1857 244.562 35.987C244.562 36.7883 245.21 37.4379 246.009 37.4379Z" fill="white"/>
<path d="M249.718 37.4379C250.518 37.4379 251.166 36.7883 251.166 35.987C251.166 35.1857 250.518 34.5361 249.718 34.5361C248.919 34.5361 248.271 35.1857 248.271 35.987C248.271 36.7883 248.919 37.4379 249.718 37.4379Z" fill="white"/>
<path d="M253.434 37.4379C254.233 37.4379 254.882 36.7883 254.882 35.987C254.882 35.1857 254.233 34.5361 253.434 34.5361C252.634 34.5361 251.986 35.1857 251.986 35.987C251.986 36.7883 252.634 37.4379 253.434 37.4379Z" fill="white"/>
<path d="M244.715 52.9898H272.887" stroke="white" stroke-width="2" stroke-miterlimit="10" stroke-linecap="round"/>
<path d="M244.715 57.67H290.278" stroke="white" stroke-width="2" stroke-miterlimit="10" stroke-linecap="round"/>
<path d="M244.715 62.3436H285.308" stroke="white" stroke-width="2" stroke-miterlimit="10" stroke-linecap="round"/>
<path d="M244.715 67.0239H272.106" stroke="white" stroke-width="2" stroke-miterlimit="10" stroke-linecap="round"/>
<path d="M244.715 71.7042H289.198" stroke="white" stroke-width="2" stroke-miterlimit="10" stroke-linecap="round"/>
<path d="M244.715 76.3777H261.019" stroke="white" stroke-width="2" stroke-miterlimit="10" stroke-linecap="round"/>
<path d="M325.202 50.8837H297.657V78.4906H325.202V50.8837Z" stroke="white" stroke-width="2" stroke-miterlimit="10" stroke-linecap="round"/>
<path d="M297.657 69.0699C298.363 68.3971 299.305 68.0303 300.279 68.0491C301.254 68.0679 302.181 68.4707 302.861 69.1702C303.781 70.153 304.268 71.6774 305.529 72.092C307.003 72.5667 308.378 71.2629 309.792 70.6277C310.565 70.2895 311.408 70.1445 312.25 70.205C313.091 70.2656 313.905 70.53 314.622 70.9754C315.502 71.537 316.236 72.3728 317.23 72.687C317.683 72.791 318.154 72.7849 318.604 72.6693C319.055 72.5537 319.471 72.332 319.818 72.0225C320.165 71.7131 320.434 71.3249 320.601 70.8904C320.768 70.4558 320.829 69.9875 320.779 69.5245C320.666 68.9428 320.366 68.4013 320.292 67.8062C320.139 66.5826 320.959 65.4326 321.96 64.6905C322.961 63.9483 324.115 63.4669 325.082 62.6846" stroke="white" stroke-width="2" stroke-miterlimit="10" stroke-linecap="round"/>
<path d="M297.737 59.2012C298.061 60.0967 298.618 60.8892 299.35 61.4969C300.082 62.1046 300.962 62.5054 301.9 62.6579C302.357 62.7525 302.828 62.7551 303.287 62.6656C303.745 62.576 304.18 62.3962 304.568 62.1364C304.95 61.8582 305.218 61.4517 305.325 60.9912C305.432 60.5307 305.369 60.0471 305.149 59.6291C304.715 58.9605 303.708 58.4122 303.981 57.6233C304.054 57.4633 304.166 57.3246 304.308 57.2204C304.449 57.1162 304.615 57.0501 304.789 57.0282C305.532 57.0085 306.271 57.1287 306.97 57.3826C307.697 57.523 308.631 57.3491 308.858 56.6404C308.91 56.3625 308.939 56.0807 308.945 55.798C308.983 55.5282 309.09 55.2729 309.256 55.0572C309.422 54.8416 309.641 54.6729 309.892 54.5677C310.262 54.4558 310.642 54.3775 311.026 54.3337C311.758 54.1521 312.396 53.7015 312.812 53.0712C313.228 52.441 313.393 51.6769 313.274 50.9305" stroke="white" stroke-width="2" stroke-miterlimit="10" stroke-linecap="round"/>
<path d="M241.194 45.6952C253.193 45.6952 262.921 35.9455 262.921 23.9186C262.921 11.8917 253.193 2.14197 241.194 2.14197C229.194 2.14197 219.466 11.8917 219.466 23.9186C219.466 35.9455 229.194 45.6952 241.194 45.6952Z" fill="#D0CFEC"/>
<path d="M241.193 47.1328C253.985 47.1328 264.355 36.7394 264.355 23.9186C264.355 11.0978 253.985 0.704468 241.193 0.704468C228.401 0.704468 218.031 11.0978 218.031 23.9186C218.031 36.7394 228.401 47.1328 241.193 47.1328Z" stroke="#D0CFEC" stroke-miterlimit="10"/>
<path d="M241.193 42.9473C251.679 42.9473 260.179 34.4278 260.179 23.9186C260.179 13.4094 251.679 4.88995 241.193 4.88995C230.707 4.88995 222.207 13.4094 222.207 23.9186C222.207 34.4278 230.707 42.9473 241.193 42.9473Z" fill="#7BE0AD"/>
<path d="M233.621 25.3361L240.406 30.1567L251.219 16.0491" stroke="white" stroke-width="3" stroke-linecap="round" stroke-linejoin="round"/>
<path d="M181.413 257.658L190.559 139.02L159.245 126.851L90.7929 124.036L60.5195 132.167L69.6989 257.658H181.413Z" fill="#FEDAC9"/>
<path d="M71.5068 239.753L105.863 240.836L80.6862 228.299L77.3707 185.161L71.5068 239.753Z" fill="#332066"/>
<path d="M80.26 265.795L55.7971 255.264L52.0146 251.387L52.1481 243.27L58.659 238.957L61.5877 237.386L112.481 239.753L145.323 259.383L80.26 265.795Z" fill="#B25E4F"/>
<path d="M97.6113 239.057L112.474 239.726L145.323 259.356L138.138 260.065C128.779 258.407 103.615 245.255 97.6113 239.057Z" fill="#332066"/>
<path d="M46.8643 259.229L78.6653 267.821C95.6832 265.815 87.3377 245.362 93.7753 236.062C89.7727 232.946 83.6486 231.208 76.8841 229.857L78.6653 159.727L60.52 132.193C45.1365 155.595 44.0691 219.2 39.893 250.972C39.3727 254.883 43.0618 258.193 46.8643 259.229Z" fill="#FEDAC9"/>
<path d="M164.015 259.376L188.491 248.853L192.273 244.968L192.14 236.858L185.629 232.538L161.14 235.988L96.2099 219.48C86.9571 217.421 79.5322 220.102 77.0906 221.914L76.8838 229.857L84.4621 232.331C95.0758 233.461 118.912 256.267 145.322 259.383L164.015 259.376Z" fill="#B25E4F"/>
<path d="M178.757 221.232C166.516 224.756 148.864 224.281 147.577 232.538C152.634 237.386 141.213 252.523 150.058 259.383C160.065 269.493 200.092 259.116 200.092 259.116C217.023 232.719 209.765 196.166 204.401 155.568C200.092 144.342 195.502 140.511 190.332 139.14L180.325 190.958L178.757 221.232Z" fill="#FEDAC9"/>
<path d="M177.564 217.107C176.677 222.616 150.719 225.471 147.491 227.724C145.919 228.756 144.511 230.018 143.314 231.469L147.577 232.552C148.565 225.819 166.883 225.538 178.758 221.246C183.474 219.353 191.433 220.878 199.612 222.63C191.853 220.356 184.422 218.618 178.825 219.955L180.372 190.998L177.564 217.107Z" fill="#332066"/>
<path d="M172.594 107.829C173.221 105.416 175.602 103.985 177.657 102.587C179.712 101.19 181.84 99.1172 181.506 96.65C181.286 95.0521 180.025 93.6012 180.312 92.0099C180.572 90.5724 182.02 89.5962 182.367 88.1788C182.78 86.4872 181.5 84.7889 181.62 83.0505C181.74 81.3121 183.247 79.9548 184.375 78.5775C185.502 77.2002 186.269 75.0071 185.009 73.7435C184.295 73.028 183.161 72.8943 182.427 72.199C180.079 69.9792 184.035 65.3323 181.76 63.0189C181.326 62.571 180.706 62.3102 180.359 61.7887C179.565 60.632 180.526 59.1143 180.419 57.6901C180.232 55.3233 177.364 54.4139 175.416 53.07C174.979 52.8274 174.647 52.4324 174.482 51.9601C174.268 51.0709 175.089 50.3154 175.662 49.6066C176.472 48.5478 176.875 47.2327 176.797 45.9011C176.72 44.5695 176.168 43.31 175.242 42.3522C174.268 41.4095 172.881 40.7542 172.467 39.4638C172.22 38.6749 172.394 37.799 172.087 37.0301C171.066 34.4425 166.33 35.7931 165.002 33.346C164.335 32.1693 164.895 30.6716 164.582 29.3812C163.995 26.9274 160.913 26.1585 159.151 24.3465C158.091 23.2567 157.53 21.7791 156.703 20.4953C153.101 14.8924 145.276 13.9496 138.691 14.9058C136.69 15.1999 134.562 15.5744 132.687 14.8322C130.813 14.0901 129.452 12.1578 127.791 10.7804C126.13 9.4031 123.374 8.8214 122.08 10.513C121.693 11.0144 121.507 11.6429 121.126 12.1444C120.099 13.4816 118.124 13.4816 116.457 13.9296C114.789 14.3776 113.121 16.1895 114.108 17.5601C109.952 16.9918 106.877 22.0131 102.687 22.2404C101.106 22.3206 99.5721 21.6922 98.0177 21.6186C96.4634 21.5451 94.5621 22.334 94.362 23.9053C94.351 24.425 94.3665 24.945 94.4087 25.4631C94.3219 27.9503 91.3333 29.0602 88.945 29.7288C86.5568 30.3975 83.6882 32.196 84.3754 34.583C84.5888 35.3184 85.1359 35.9202 85.1892 36.7091C85.3293 38.715 82.2339 39.4237 81.5401 41.3359C80.8464 43.2481 82.8143 45.1537 82.5075 47.1261C81.9671 50.5494 75.6563 50.6296 75.4761 54.0863C75.4028 55.5105 76.5435 56.7608 76.4835 58.205C76.3967 60.3378 73.9284 61.3474 72.1406 62.5108C70.3758 63.7087 69.0369 65.438 68.3173 67.4488C67.5978 69.4596 67.535 71.6477 68.1379 73.6967C68.1772 73.8866 68.2572 74.0657 68.3724 74.2216C68.4876 74.3774 68.6352 74.5063 68.8051 74.5993C70.0726 75.0941 69.7657 72.3862 70.8064 71.537C71.6669 70.8684 72.8477 71.7777 73.5415 72.6269C75.0092 74.4121 76.5235 76.2842 77.0372 78.5374C77.5508 80.7906 76.7503 83.5252 74.6356 84.4546C73.755 84.8424 72.7477 84.8758 71.8738 85.2904C69.272 86.5273 69.8724 91.2477 72.6676 91.8227C71.9271 93.2869 71.1666 94.8114 71.1199 96.4495C71.0732 98.0876 71.9471 99.8794 73.5148 100.334C74.0218 100.481 74.5622 100.481 75.0559 100.668C76.817 101.337 77.0572 103.777 76.3901 105.536C75.723 107.294 74.4888 108.879 74.282 110.731C74.0752 112.583 75.7697 114.83 77.5041 114.114C78.745 113.599 79.0585 112.028 79.8123 110.911C80.5662 109.795 82.8076 109.574 82.8343 110.911C81.9663 112.175 81.5494 113.694 81.6511 115.225C81.7528 116.755 82.3672 118.206 83.3947 119.343C81.9204 121.783 80.7263 125.567 83.2346 126.958C85.1025 128.001 87.304 126.564 89.332 125.875C94.9223 123.969 100.973 128.041 106.817 127.159C111.06 126.524 114.742 123.321 119.038 123.361C122.247 123.401 125.196 125.273 128.378 125.454C131.313 125.621 134.135 124.357 137.05 124.016C140.386 123.622 143.721 124.424 147.01 124.852C152.801 125.594 160.853 125.781 166.323 123.214C168.503 122.102 170.362 120.446 171.72 118.407C174.248 114.642 171.606 111.66 172.594 107.829Z" fill="#F6AE2D"/>
<path d="M90.793 124.03C103.862 164.955 151.8 166.226 159.245 126.844L144.789 120.626C143.548 114.121 143.054 105.636 145.856 93.1733H110.199C111.76 104.085 111.607 114.569 110.199 120.626L90.793 124.03Z" fill="#B25E4F"/>
<path d="M144.462 100.963C144.789 98.5556 145.249 95.968 145.876 93.1799H110.199C110.646 96.3023 110.953 99.3913 111.126 102.353C115.169 125.407 138.685 125.748 144.462 100.963Z" fill="#332066"/>
<path d="M151.914 71.3498C152.461 69.9391 154.916 67.3382 156.851 70.2199C158.378 72.5132 156.077 83.0773 154.696 86.1261C154.029 87.6305 152.494 89.068 150.907 88.62C150.527 88.5046 150.185 88.2893 149.916 87.9965C149.647 87.7038 149.462 87.3442 149.379 86.9552" fill="#B25E4F"/>
<path d="M154.756 78.8182C154.822 79.3513 154.769 79.8924 154.602 80.4028C154.236 81.5831 153.71 82.7077 153.041 83.7459C152.914 83.9398 152.734 84.147 152.514 84.1069C152.416 84.0801 152.33 84.0183 152.274 83.9331C152.173 83.7359 152.137 83.5117 152.172 83.2929C152.207 83.0742 152.31 82.8722 152.467 82.7162C152.776 82.405 153.058 82.0672 153.308 81.7066C153.55 81.083 153.55 80.3912 153.308 79.7676C153.015 79.0202 152.905 78.213 152.988 77.4141C153.068 77.0531 154.469 76.565 154.756 78.8182Z" fill="#332066"/>
<path d="M155.456 70.6411C156.43 71.8245 155.683 72.9946 155.23 73.8905C155.456 72.2324 155.303 71.9917 154.803 71.1492C154.649 70.8952 154.316 70.6812 154.536 70.3736C154.843 69.939 155.223 70.3603 155.456 70.6411Z" fill="#332066"/>
<path d="M103.268 84.9962C103.101 85.4642 101.754 85.745 101.267 85.6648C100.784 85.5386 100.35 85.2708 100.019 84.8959C98.7827 83.6052 97.8903 82.0232 97.4243 80.2958C96.9631 78.5744 96.6902 76.8078 96.6104 75.0272C96.527 74.0372 96.527 73.0419 96.6104 72.0519C97.6244 59.6558 103.208 64.53 103.602 67.064" fill="#B25E4F"/>
<path d="M100.92 80.6636C101.047 80.8648 101.123 81.0945 101.14 81.3322C101.146 81.4478 101.114 81.5622 101.047 81.6568C100.981 81.7514 100.884 81.8208 100.773 81.8537C100.393 81.9273 100.173 81.4592 100.026 81.0982C99.7925 80.5611 99.4164 80.0986 98.9387 79.761C98.7474 79.6444 98.5744 79.5002 98.4251 79.333C98.2386 79.0411 98.1541 78.6954 98.1849 78.3502C98.1715 77.0441 98.3652 75.7442 98.7586 74.499C98.9187 73.9975 99.1789 73.4426 99.6926 73.3289C101.427 72.9545 100.953 75.8228 100.613 76.672C100.33 77.3106 100.21 78.0098 100.263 78.7066C100.317 79.4035 100.543 80.076 100.92 80.6636Z" fill="#332066"/>
<path d="M111.46 106.552L115.296 109.675C116.911 110.992 118.848 111.855 120.906 112.175L126.063 112.978C128.661 113.393 131.322 112.922 133.621 111.64L136.33 110.123C139.069 108.581 141.366 106.359 143.001 103.67L147.21 96.757C148.334 94.9046 149.123 92.8673 149.538 90.7395L152.84 73.7034L152.42 61.8422C152.42 61.8422 151.246 41.7839 130.639 39.7446C110.032 37.7054 104.942 53.966 104.942 53.966L102.674 64.51L101.867 72.6871C101.757 73.8568 101.757 75.0343 101.867 76.2039L103.201 90.6058C103.395 92.6455 103.928 94.6385 104.775 96.503L106.35 99.953C107.524 102.517 109.273 104.776 111.46 106.552Z" fill="#B25E4F"/>
<path d="M141.9 44.0906C139.685 46.872 135.282 44.4583 132.073 44.5319C129.605 44.5854 126.89 44.4583 124.949 45.9961C123.915 46.8252 123.221 48.0554 122.1 48.7642C120.472 49.8005 118.371 49.493 116.443 49.4328C114.515 49.3726 112.214 49.8607 111.46 51.6459C110.793 53.1503 111.506 55.1494 110.386 56.3262C109.719 57.0549 108.598 57.1552 107.664 57.5297C106.606 57.9977 105.756 58.8398 105.277 59.8953C104.799 60.9509 104.725 62.1461 105.069 63.253C105.402 64.2158 106.063 65.0916 106.09 66.1146C106.136 67.9733 104.008 69.3039 102.38 69.4978C100.839 65.2454 101.933 58.1314 103.174 53.8924C105.663 45.4612 112.467 39.8984 120.519 36.9833C125.996 34.9774 133.147 34.6832 138.531 37.1103C145.029 40.0321 150.846 42.8537 153.294 50.1214C155.122 55.5372 155.295 64.0152 152.961 69.3106C151.853 68.1606 152.774 65.9274 152.107 64.4765C151.893 64.0152 151.553 63.6274 151.319 63.1393C150.219 61.0064 151.773 58.098 150.412 56.1189C149.898 55.3767 148.184 55.5974 146.116 52.6889C141.573 46.3438 142.72 45.2005 141.9 44.0906Z" fill="#F6AE2D"/>
<path d="M127.784 100.936L121.627 100.16C118.365 98.0675 115.663 94.3969 113.135 90.218C119.592 88.6869 131.74 90.218 137.938 92.7387C134.456 96.3225 130.92 99.9998 127.784 100.936Z" fill="#332066"/>
<path d="M129.84 99.8259L120.807 99.5317L117.545 94.9919C122.668 96.9175 128.832 97.3654 133.275 96.1686L129.84 99.8259Z" fill="white"/>
<path d="M134.749 93.3471C128.832 97.1716 118.959 96.0751 115.269 90.6727L115.149 89.8102L135.576 91.9163L134.749 93.3471Z" fill="white"/>
<path d="M125.023 102.881C133.209 103.202 135.497 94.7445 137.932 92.7387C129.733 100.027 121.254 101.203 113.129 90.218C114.23 91.6221 117.685 102.594 125.023 102.881Z" fill="#FEA394"/>
<path d="M124.383 89.4424C125.122 89.7304 125.886 89.9541 126.664 90.111C127.405 90.096 128.144 90.0177 128.872 89.877C130.08 89.7634 134.909 90.6526 137.931 92.7587C132.194 90.9936 128.752 93.4274 123.482 91.7959C120.197 90.4553 116.642 89.9146 113.108 90.218C115.583 88.4796 123.615 89.2352 124.383 89.4424Z" fill="#E58A7F"/>
<path d="M128.284 87.1156C128.691 86.5941 128.985 86.1127 129.425 85.6313C129.908 85.0728 130.581 84.7132 131.313 84.6217C131.767 84.5678 132.225 84.6819 132.6 84.9426C132.73 85.0362 132.838 85.1559 132.919 85.2941C132.999 85.4323 133.05 85.5859 133.067 85.745C133.093 86.0199 133.02 86.2951 132.861 86.5206C132.722 86.7279 132.524 86.8886 132.294 86.9819C132.079 87.0576 131.848 87.0714 131.626 87.022C131.451 86.9796 131.286 86.902 131.142 86.794C130.997 86.686 130.876 86.5497 130.786 86.3935C131.064 86.4626 131.355 86.4626 131.633 86.3935C131.711 86.375 131.781 86.3319 131.833 86.2705C131.884 86.2091 131.915 86.1327 131.92 86.0525C131.92 85.9924 131.92 85.9389 131.887 85.9522C131.853 85.9656 131.887 86.0258 131.887 86.0124C131.824 86.009 131.762 86.009 131.7 86.0124C131.611 85.999 131.521 85.999 131.433 86.0124C130.96 86.0907 130.507 86.2611 130.099 86.5139C129.544 86.8417 128.925 87.0469 128.284 87.1156Z" fill="#332066"/>
<path d="M124.742 86.1929C124.318 86.0036 123.909 85.78 123.521 85.5243C123.224 85.3393 122.906 85.1912 122.574 85.0831C122.504 85.0611 122.433 85.0454 122.36 85.0363C122.316 85.0306 122.271 85.0306 122.227 85.0363C122.187 85.0363 122.16 85.0363 122.147 85.0363C122.134 85.0363 122.147 84.956 122.147 84.9092C122.147 84.8624 122.014 84.9427 122.1 85.0496C122.187 85.1566 122.414 85.277 122.647 85.4107C122.427 85.5889 122.149 85.6794 121.867 85.6647C121.684 85.6306 121.513 85.5474 121.373 85.424C121.282 85.3396 121.21 85.2357 121.164 85.12C121.118 85.0043 121.098 84.8798 121.106 84.7554C121.115 84.6274 121.149 84.5024 121.206 84.3876C121.263 84.2728 121.343 84.1706 121.44 84.0868C121.595 83.956 121.777 83.8623 121.973 83.8127C122.147 83.7619 122.328 83.7437 122.507 83.7592C122.656 83.7762 122.803 83.803 122.947 83.8394C123.477 84.0075 123.935 84.3489 124.248 84.8089C124.529 85.2199 124.699 85.6967 124.742 86.1929Z" fill="#332066"/>
<path d="M132.161 75.6022C132.044 76.3372 132.094 77.089 132.307 77.8019C132.515 78.512 132.771 79.2068 133.075 79.8813C133.379 80.5796 133.618 81.3048 133.788 82.0476C133.978 82.8163 133.934 83.6243 133.662 84.3677C133.672 83.6215 133.543 82.8799 133.281 82.1813C133.041 81.5127 132.734 80.8107 132.434 80.1086C132.116 79.3964 131.892 78.6457 131.767 77.8754C131.641 77.0949 131.78 76.2945 132.161 75.6022Z" fill="#332066"/>
<path d="M115.202 71.5838C116.591 71.5838 117.717 70.4553 117.717 69.0631C117.717 67.671 116.591 66.5425 115.202 66.5425C113.814 66.5425 112.688 67.671 112.688 69.0631C112.688 70.4553 113.814 71.5838 115.202 71.5838Z" fill="#332066"/>
<path d="M120.086 70.1664C119.178 69.6812 118.224 69.2892 117.237 68.9963C116.329 68.7017 115.376 68.5682 114.422 68.6018C113.684 68.6182 112.961 68.8059 112.307 69.1501C112.061 69.3244 111.837 69.5288 111.64 69.7585C111.175 70.1556 110.685 70.5219 110.173 70.855C109.858 70.623 109.614 70.3068 109.47 69.9426C109.327 69.5784 109.288 69.1809 109.359 68.7957C109.545 68.0289 109.982 67.3465 110.6 66.8568C111.193 66.3812 111.902 66.072 112.654 65.9608C113.318 65.8576 113.995 65.8689 114.656 65.9943C115.855 66.2357 117.003 66.6884 118.045 67.3315C119.072 67.9333 119.904 68.8203 120.439 69.8856L120.086 70.1664Z" fill="#332066"/>
<path d="M140.026 74.5591C141.415 74.5591 142.541 73.4306 142.541 72.0385C142.541 70.6464 141.415 69.5178 140.026 69.5178C138.637 69.5178 137.511 70.6464 137.511 72.0385C137.511 73.4306 138.637 74.5591 140.026 74.5591Z" fill="#332066"/>
<path d="M145.657 73.3156C144.778 72.7137 143.819 72.2387 142.808 71.9048C141.869 71.5558 140.874 71.3791 139.873 71.3833C139.049 71.3818 138.234 71.5502 137.478 71.878C137.173 72.0402 136.889 72.2377 136.631 72.4664C136.113 72.8171 135.576 73.1385 135.023 73.4292C134.736 73.1446 134.535 72.7847 134.443 72.3909C134.351 71.9972 134.372 71.5854 134.502 71.2027C134.801 70.4611 135.326 69.8336 136.003 69.4109C137.254 68.665 138.746 68.4417 140.16 68.7891C141.401 69.0588 142.583 69.5527 143.649 70.2466C144.718 70.9054 145.55 71.8892 146.023 73.0548L145.657 73.3156Z" fill="#332066"/>
<path d="M133.601 64.7373C134.218 64.0369 135.071 63.5893 135.996 63.4803C136.911 63.3755 137.833 63.3509 138.751 63.4067C140.706 63.4067 142.681 63.2329 144.595 63.6408C145.81 63.9097 146.959 64.4168 147.977 65.1329C148.994 65.8489 149.861 66.7598 150.526 67.8129C147.546 67.1637 144.526 66.717 141.487 66.4757C140.03 66.3074 138.563 66.2426 137.097 66.2818C136.243 66.3353 135.396 66.9504 134.562 66.8902C134.313 66.8908 134.069 66.819 133.86 66.6834C133.651 66.5479 133.485 66.3545 133.384 66.1266C133.282 65.8987 133.248 65.6462 133.287 65.3996C133.326 65.153 133.435 64.9229 133.601 64.7373Z" fill="#F6AE2D"/>
<path d="M121.206 64.8242C120.159 64.9111 112.754 62.5242 110.853 62.2969C108.812 62.1424 106.767 62.5444 104.936 63.4602C105.716 61.2939 109.018 59.6492 111.3 59.8364C113.434 60.0102 117.657 61.5814 120.639 62.3102C121.22 62.4506 122.087 62.7515 122.367 63.3867C122.747 64.2559 122.154 64.7507 121.206 64.8242Z" fill="#F6AE2D"/>
<path d="M143.141 84.5883C148.984 84.5883 153.721 79.8406 153.721 73.9841C153.721 68.1276 148.984 63.3799 143.141 63.3799C137.298 63.3799 132.561 68.1276 132.561 73.9841C132.561 79.8406 137.298 84.5883 143.141 84.5883Z" stroke="#332066" stroke-miterlimit="10"/>
<path d="M112.914 82.3752C118.758 82.3752 123.495 77.6275 123.495 71.771C123.495 65.9145 118.758 61.1669 112.914 61.1669C107.071 61.1669 102.334 65.9145 102.334 71.771C102.334 77.6275 107.071 82.3752 112.914 82.3752Z" stroke="#332066" stroke-miterlimit="10"/>
<path d="M123.455 72.7539C123.882 71.7844 124.429 71.1091 125.256 71.1225L131.3 71.3699C131.967 71.4835 132.388 72.1187 132.574 73.2219L132.861 70.5475L123.468 70.1664L123.455 72.7539Z" fill="#332066"/>
<path d="M238.284 183.375C239.419 183.375 240.339 182.453 240.339 181.316C240.339 180.179 239.419 179.257 238.284 179.257C237.149 179.257 236.229 180.179 236.229 181.316C236.229 182.453 237.149 183.375 238.284 183.375Z" fill="#7C3AED"/>
<path d="M226.657 180.728C228.373 180.728 229.765 179.333 229.765 177.612C229.765 175.891 228.373 174.496 226.657 174.496C224.94 174.496 223.548 175.891 223.548 177.612C223.548 179.333 224.94 180.728 226.657 180.728Z" fill="#7C3AED"/>
<path d="M276.743 249.274C277.878 249.274 278.798 248.352 278.798 247.214C278.798 246.077 277.878 245.155 276.743 245.155C275.608 245.155 274.688 246.077 274.688 247.214C274.688 248.352 275.608 249.274 276.743 249.274Z" fill="#7C3AED"/>
<path d="M277.69 231.609C278.519 231.609 279.191 230.935 279.191 230.105C279.191 229.274 278.519 228.6 277.69 228.6C276.861 228.6 276.189 229.274 276.189 230.105C276.189 230.935 276.861 231.609 277.69 231.609Z" fill="#7C3AED"/>
<path d="M263.028 252.282C264.745 252.282 266.136 250.888 266.136 249.167C266.136 247.446 264.745 246.051 263.028 246.051C261.311 246.051 259.919 247.446 259.919 249.167C259.919 250.888 261.311 252.282 263.028 252.282Z" fill="#7C3AED"/>
<path d="M266.49 244.4C268.206 244.4 269.598 243.005 269.598 241.284C269.598 239.563 268.206 238.168 266.49 238.168C264.773 238.168 263.381 239.563 263.381 241.284C263.381 243.005 264.773 244.4 266.49 244.4Z" fill="#7C3AED"/>
<path d="M16.5185 51.8197L7.38574 52.9831L13.1162 45.7621L22.2422 44.5988L16.5185 51.8197Z" fill="#D0CFEC"/>
<path opacity="0.6" d="M16.5185 51.8197L7.38574 52.9831L13.1162 45.7621L22.2422 44.5988L16.5185 51.8197Z" fill="#FFFEFD"/>
<path d="M22.2756 62.0696L13.1496 63.2396L7.38574 52.9831L16.5184 51.8198L22.2756 62.0696Z" fill="#D0CFEC"/>
<path d="M22.2757 62.0695L28.0062 54.8486L22.2423 44.5988L16.5186 51.8197L22.2757 62.0695Z" fill="#D0CFEC"/>
<path opacity="0.1" d="M22.2757 62.0695L28.0062 54.8486L22.2423 44.5988L16.5186 51.8197L22.2757 62.0695Z" fill="#332066"/>
<path d="M241.073 221.232L231.947 222.396L237.678 215.175L246.804 214.011L241.073 221.232Z" fill="#D0CFEC"/>
<path opacity="0.6" d="M241.073 221.232L231.947 222.396L237.678 215.175L246.804 214.011L241.073 221.232Z" fill="#FFFEFD"/>
<path d="M246.837 231.482L237.704 232.652L231.947 222.396L241.073 221.232L246.837 231.482Z" fill="#D0CFEC"/>
<path d="M246.837 231.482L252.567 224.268L246.804 214.011L241.073 221.232L246.837 231.482Z" fill="#D0CFEC"/>
<path opacity="0.1" d="M246.837 231.482L252.567 224.268L246.804 214.011L241.073 221.232L246.837 231.482Z" fill="#332066"/>
<path d="M340.052 130.622L330.919 131.792L336.649 124.571L345.775 123.408L340.052 130.622Z" fill="#D0CFEC"/>
<path opacity="0.6" d="M340.052 130.622L330.919 131.792L336.649 124.571L345.775 123.408L340.052 130.622Z" fill="#FFFEFD"/>
<path d="M345.809 140.879L336.683 142.042L330.919 131.792L340.052 130.622L345.809 140.879Z" fill="#D0CFEC"/>
<path d="M345.809 140.879L351.539 133.658L345.776 123.408L340.052 130.622L345.809 140.879Z" fill="#D0CFEC"/>
<path opacity="0.1" d="M345.809 140.879L351.539 133.658L345.776 123.408L340.052 130.622L345.809 140.879Z" fill="#332066"/>
<path d="M364.722 194.963C365.856 194.963 366.776 194.041 366.776 192.903C366.776 191.766 365.856 190.844 364.722 190.844C363.587 190.844 362.667 191.766 362.667 192.903C362.667 194.041 363.587 194.963 364.722 194.963Z" fill="#7C3AED"/>
<path d="M318.284 144.101C319.419 144.101 320.339 143.179 320.339 142.042C320.339 140.905 319.419 139.983 318.284 139.983C317.149 139.983 316.229 140.905 316.229 142.042C316.229 143.179 317.149 144.101 318.284 144.101Z" fill="#7C3AED"/>
<path d="M352.127 197.945C352.956 197.945 353.628 197.271 353.628 196.44C353.628 195.609 352.956 194.936 352.127 194.936C351.298 194.936 350.626 195.609 350.626 196.44C350.626 197.271 351.298 197.945 352.127 197.945Z" fill="#7C3AED"/>
<path d="M364.261 205.052C365.978 205.052 367.37 203.657 367.37 201.936C367.37 200.215 365.978 198.82 364.261 198.82C362.544 198.82 361.152 200.215 361.152 201.936C361.152 203.657 362.544 205.052 364.261 205.052Z" fill="#7C3AED"/>
<path d="M350.625 112.282C352.342 112.282 353.734 110.887 353.734 109.166C353.734 107.446 352.342 106.051 350.625 106.051C348.908 106.051 347.517 107.446 347.517 109.166C347.517 110.887 348.908 112.282 350.625 112.282Z" fill="#7C3AED"/>
<path d="M203.682 37.1236C204.816 37.1236 205.736 36.2017 205.736 35.0643C205.736 33.927 204.816 33.005 203.682 33.005C202.547 33.005 201.627 33.927 201.627 35.0643C201.627 36.2017 202.547 37.1236 203.682 37.1236Z" fill="#D0CFEC"/>
<path d="M192.021 42.5127C192.849 42.5127 193.522 41.8391 193.522 41.0083C193.522 40.1774 192.849 39.5039 192.021 39.5039C191.192 39.5039 190.52 40.1774 190.52 41.0083C190.52 41.8391 191.192 42.5127 192.021 42.5127Z" fill="#D0CFEC"/>
<path d="M205.002 47.126C206.719 47.126 208.111 45.7311 208.111 44.0103C208.111 42.2896 206.719 40.8946 205.002 40.8946C203.285 40.8946 201.894 42.2896 201.894 44.0103C201.894 45.7311 203.285 47.126 205.002 47.126Z" fill="#D0CFEC"/>
<path d="M56.4912 66.3152C57.626 66.3152 58.5459 65.3932 58.5459 64.2559C58.5459 63.1186 57.626 62.1966 56.4912 62.1966C55.3564 62.1966 54.4365 63.1186 54.4365 64.2559C54.4365 65.3932 55.3564 66.3152 56.4912 66.3152Z" fill="#D0CFEC"/>
<path d="M2.30861 100.976C3.13759 100.976 3.8096 100.302 3.8096 99.4716C3.8096 98.6408 3.13759 97.9672 2.30861 97.9672C1.47963 97.9672 0.807617 98.6408 0.807617 99.4716C0.807617 100.302 1.47963 100.976 2.30861 100.976Z" fill="#D0CFEC"/>
<path d="M7.73177 114.776C9.44867 114.776 10.8405 113.381 10.8405 111.66C10.8405 109.94 9.44867 108.545 7.73177 108.545C6.01487 108.545 4.62305 109.94 4.62305 111.66C4.62305 113.381 6.01487 114.776 7.73177 114.776Z" fill="#D0CFEC"/>
<path d="M31.1146 26.1986C32.8315 26.1986 34.2233 24.8037 34.2233 23.0829C34.2233 21.3621 32.8315 19.9672 31.1146 19.9672C29.3977 19.9672 28.0059 21.3621 28.0059 23.0829C28.0059 24.8037 29.3977 26.1986 31.1146 26.1986Z" fill="#D0CFEC"/>
<path d="M205.316 125.641C206.451 125.641 207.371 124.719 207.371 123.582C207.371 122.444 206.451 121.522 205.316 121.522C204.182 121.522 203.262 122.444 203.262 123.582C203.262 124.719 204.182 125.641 205.316 125.641Z" fill="#7C3AED"/>
<path d="M22.2754 241.819C23.4102 241.819 24.3301 240.897 24.3301 239.759C24.3301 238.622 23.4102 237.7 22.2754 237.7C21.1406 237.7 20.2207 238.622 20.2207 239.759C20.2207 240.897 21.1406 241.819 22.2754 241.819Z" fill="#7C3AED"/>
<path d="M217.824 128.917C218.653 128.917 219.325 128.244 219.325 127.413C219.325 126.582 218.653 125.908 217.824 125.908C216.995 125.908 216.323 126.582 216.323 127.413C216.323 128.244 216.995 128.917 217.824 128.917Z" fill="#7C3AED"/>
<path d="M210.566 119.343C212.283 119.343 213.674 117.948 213.674 116.227C213.674 114.506 212.283 113.111 210.566 113.111C208.849 113.111 207.457 114.506 207.457 116.227C207.457 117.948 208.849 119.343 210.566 119.343Z" fill="#7C3AED"/>
<path d="M4.62337 231.716C6.34027 231.716 7.73209 230.321 7.73209 228.6C7.73209 226.88 6.34027 225.485 4.62337 225.485C2.90647 225.485 1.51465 226.88 1.51465 228.6C1.51465 230.321 2.90647 231.716 4.62337 231.716Z" fill="#7C3AED"/>
<defs>
<linearGradient id="paint0_linear_6977_29852" x1="238.451" y1="62.2902" x2="332.166" y2="62.2902" gradientUnits="userSpaceOnUse">
<stop stop-color="#7C3AED"/>
<stop offset="0.18" stop-color="#8A4BE9" stop-opacity="0.97"/>
<stop offset="0.49" stop-color="#AF78DF" stop-opacity="0.88"/>
<stop offset="0.88" stop-color="#EAC2CE" stop-opacity="0.75"/>
<stop offset="1" stop-color="#FEDAC9" stop-opacity="0.7"/>
</linearGradient>
</defs>
</svg>
