<svg width="419" height="291" viewBox="0 0 419 291" fill="none" xmlns="http://www.w3.org/2000/svg">
<path d="M195.885 290.796L186.732 172.158L218.053 159.989L286.498 157.168L316.778 165.305L307.592 290.796H195.885Z" fill="#FEDAC9"/>
<path d="M302.848 290.796H283.516L296.871 258.041L299.926 218.292L302.848 290.796Z" fill="#332066"/>
<path d="M336.238 290.796H298.626L301.962 258.355L298.626 192.865L316.778 165.305C339.693 170.326 335.424 282.331 336.238 290.796Z" fill="#FEDAC9"/>
<path d="M194.263 242.629L163.95 277.718L160.181 235.188L175.624 188.545C177.519 177.687 181.768 173.642 186.965 172.271L196.972 224.095L194.263 242.629Z" fill="#FEDAC9"/>
<path d="M160.181 235.188L160.828 233.249L175.784 247.463L187.859 245.137L174.937 250.205L160.181 235.188Z" fill="#332066"/>
<path d="M189.227 265.87L163.683 290.796L144.19 288.436L126.212 259.639L130.074 245.992L132.223 239.159L160.181 235.188L174.937 250.205L194.264 242.629L189.227 265.87Z" fill="#FEDAC9"/>
<path d="M160.181 235.188L152.283 260.668L148.827 264.834L140.762 265.543L135.785 259.485L133.924 256.73L129.594 181.846C124.404 175.621 116.325 170.82 107.113 166.582L88.1802 153.878L84.0508 141.616V130.918C87.5931 130.844 89.2609 133.933 89.461 139.476L93.7572 148.496L100.115 133.305L109.701 132.088C111.035 134.187 110.048 135.906 105.572 137.082L103.137 144.484L111.249 136.213L118.654 137.357C118.313 139.476 116.906 140.853 113.81 141.061C111.069 145.42 111.596 148.897 115.945 151.331L116.092 142.344L122.923 139.068L127.9 142.919C128.187 145.226 126.339 145.594 123.63 145.199L128.9 154.901C134.731 159.461 142.85 163.111 147.059 170.981L160.181 235.188Z" fill="#B25E4F"/>
<path d="M296.485 140.539C297.112 138.132 299.487 136.695 301.548 135.297C303.61 133.9 305.731 131.834 305.391 129.36C305.171 127.762 303.917 126.311 304.203 124.72C304.464 123.282 305.911 122.313 306.251 120.895C306.665 119.197 305.391 117.499 305.511 115.76C305.631 114.022 307.139 112.671 308.266 111.287C309.394 109.903 310.161 107.724 308.933 106.46C308.219 105.745 307.085 105.604 306.352 104.909C304.003 102.689 307.959 98.0423 305.684 95.7289C305.251 95.2809 304.63 95.0202 304.277 94.5053C303.49 93.3487 304.45 91.7975 304.344 90.4001C304.157 88.0399 301.288 87.1239 299.334 85.78C298.898 85.5294 298.567 85.1309 298.4 84.6567C298.193 83.7608 299.013 83.0119 299.587 82.3032C300.396 81.2444 300.799 79.9293 300.722 78.5977C300.645 77.2661 300.093 76.0066 299.167 75.0488C298.193 74.106 296.805 73.4441 296.392 72.1537C296.145 71.3714 296.312 70.4889 296.011 69.7267C294.991 67.1324 290.254 68.4897 288.927 66.0359C288.26 64.8592 288.82 63.3615 288.506 62.0777C287.919 59.6173 284.837 58.8484 283.076 57.0431C282.015 55.9466 281.455 54.469 280.628 53.1852C277.025 47.589 269.2 46.6395 262.616 47.5956C260.615 47.8898 258.487 48.2643 256.612 47.5288C254.737 46.7933 253.37 44.8142 251.715 43.477C250.061 42.1398 247.299 41.5113 245.998 43.2029C245.618 43.7043 245.431 44.3328 245.051 44.8343C244.024 46.1715 242.042 46.1715 240.381 46.6262C238.72 47.0808 237.046 48.8794 238.04 50.25C233.884 49.6884 230.808 54.703 226.619 54.9303C225.038 55.0172 223.503 54.3887 221.949 54.3085C220.395 54.2283 218.493 55.0239 218.293 56.5951C218.282 57.1171 218.298 57.6393 218.34 58.1597C218.253 60.6469 215.265 61.7501 212.876 62.4187C210.488 63.0873 207.613 64.8859 208.307 67.2795C208.52 68.0083 209.061 68.6168 209.121 69.399C209.261 71.4049 206.165 72.1136 205.471 74.0258C204.778 75.938 206.746 77.8503 206.432 79.8227C205.898 83.2393 199.588 83.3262 199.407 86.7829C199.334 88.2004 200.468 89.4573 200.415 90.8949C200.328 93.0277 197.86 94.0373 196.072 95.2007C194.306 96.399 192.966 98.1294 192.246 100.142C191.527 102.154 191.465 104.343 192.069 106.393C192.109 106.582 192.19 106.76 192.305 106.914C192.42 107.069 192.567 107.197 192.736 107.289C194.004 107.791 193.69 105.076 194.738 104.234C195.605 103.565 196.786 104.474 197.48 105.317C198.947 107.102 200.455 108.974 200.975 111.227C201.496 113.481 200.688 116.222 198.574 117.144C197.693 117.532 196.679 117.566 195.812 117.98C193.21 119.217 193.777 123.938 196.599 124.519C195.858 125.977 195.105 127.501 195.058 129.139C195.011 130.777 195.885 132.569 197.453 133.024C197.96 133.171 198.5 133.178 198.994 133.358C200.755 134.027 200.995 136.467 200.328 138.226C199.661 139.984 198.427 141.569 198.22 143.428C198.013 145.286 199.708 147.519 201.442 146.771C202.676 146.256 202.997 144.685 203.75 143.575C204.504 142.465 206.746 142.237 206.772 143.575C205.905 144.837 205.488 146.355 205.59 147.885C205.692 149.414 206.306 150.864 207.333 151.999C205.858 154.44 204.664 158.224 207.173 159.615C209.041 160.658 211.242 159.22 213.263 158.531C218.86 156.626 224.911 160.698 230.755 159.822C234.998 159.153 238.68 155.977 242.976 156.024C246.185 156.058 249.134 157.93 252.316 158.11C255.258 158.277 258.08 157.014 260.988 156.673C264.324 156.285 267.659 157.087 270.955 157.509C276.745 158.251 284.797 158.438 290.261 155.87C292.442 154.763 294.301 153.109 295.658 151.07C298.139 147.359 295.498 144.37 296.485 140.539Z" fill="#F6AE2D"/>
<path d="M286.498 157.188C273.429 198.093 225.478 199.377 218.053 160.009L232.502 153.791C233.743 147.286 234.237 138.794 231.435 126.338H267.092C265.537 137.25 265.684 147.734 267.092 153.791L286.498 157.188Z" fill="#B25E4F"/>
<path d="M232.849 134.1C232.522 131.687 232.062 129.099 231.435 126.318H267.091C266.645 129.44 266.338 132.529 266.164 135.491C262.122 158.525 238.606 158.886 232.849 134.1Z" fill="#332066"/>
<path d="M225.298 103.03C224.457 101.606 223.297 100.088 221.636 100.008C221.407 99.9802 221.174 100.007 220.958 100.086C220.741 100.165 220.546 100.294 220.388 100.463C220.248 100.697 220.159 100.957 220.127 101.228C220.095 101.499 220.12 101.774 220.201 102.034C220.448 103.331 220.868 104.601 221.048 105.912C221.535 109.255 220.602 112.692 221.529 115.941C221.989 117.526 223.283 119.177 224.918 118.956C225.31 118.898 225.68 118.735 225.989 118.484C226.297 118.234 226.533 117.905 226.672 117.532" fill="#B25E4F"/>
<path d="M222.509 108.667C222.365 109.185 222.34 109.729 222.436 110.258C222.627 111.473 222.984 112.657 223.497 113.775C223.59 113.982 223.737 114.216 223.964 114.203C224.067 114.195 224.163 114.147 224.231 114.069C224.358 113.891 224.427 113.677 224.427 113.457C224.427 113.238 224.358 113.024 224.231 112.845C223.975 112.494 223.752 112.12 223.563 111.729C223.41 111.077 223.503 110.391 223.824 109.803C224.226 109.108 224.455 108.326 224.491 107.523C224.444 107.162 223.177 106.48 222.509 108.667Z" fill="#332066"/>
<path d="M221.702 101.452C220.568 102.482 221.142 103.739 221.455 104.695C221.455 103.023 221.662 102.809 222.276 102.021C222.463 101.793 222.83 101.626 222.656 101.285C222.416 100.844 221.976 101.198 221.702 101.452Z" fill="#332066"/>
<path d="M272.583 122.233C272.676 122.721 273.971 123.195 274.464 123.175C274.956 123.116 275.42 122.914 275.798 122.594C277.208 121.495 278.318 120.058 279.027 118.415C279.731 116.778 280.254 115.07 280.588 113.32C280.82 112.354 280.97 111.37 281.035 110.378C281.816 97.9687 275.592 101.98 274.831 104.428" fill="#B25E4F"/>
<path d="M275.525 118.288C275.376 118.463 275.271 118.672 275.218 118.896C275.194 119.009 275.209 119.126 275.26 119.229C275.311 119.332 275.395 119.415 275.498 119.465C275.865 119.592 276.165 119.157 276.352 118.796C276.656 118.288 277.095 117.873 277.619 117.599C277.828 117.515 278.022 117.397 278.193 117.251C278.418 116.989 278.551 116.661 278.573 116.315C278.777 115.024 278.777 113.709 278.573 112.417C278.487 111.903 278.306 111.314 277.819 111.127C276.152 110.505 276.212 113.414 276.425 114.29C276.628 114.978 276.651 115.706 276.494 116.406C276.336 117.106 276.003 117.754 275.525 118.288Z" fill="#332066"/>
<path d="M263.043 139.516L258.927 142.244C257.189 143.395 255.177 144.064 253.097 144.183L247.86 144.484C245.249 144.616 242.668 143.875 240.522 142.378L237.98 140.599C235.402 138.798 233.334 136.359 231.976 133.519L228.474 126.238C227.527 124.279 226.939 122.166 226.739 119.999L225.118 102.723L226.693 90.955C226.693 90.955 229.821 71.1107 250.528 71.104C271.235 71.0973 274.718 87.8192 274.718 87.8192L275.945 98.517V106.761C275.945 107.935 275.831 109.106 275.605 110.258L272.81 124.426C272.421 126.438 271.697 128.371 270.668 130.142L268.767 133.418C267.354 135.867 265.395 137.954 263.043 139.516Z" fill="#B25E4F"/>
<path d="M265.477 75.4232C263.263 78.2046 258.139 77.8101 254.957 77.8837C252.489 77.9372 249.774 77.8101 247.832 79.3479C246.798 80.177 246.105 81.4073 244.984 82.116C243.356 83.1523 241.255 82.8448 239.327 82.7846C237.399 82.7244 235.097 83.2125 234.344 84.9977C233.676 86.5021 234.39 88.5012 233.269 89.678C232.602 90.4068 231.482 90.5071 230.548 90.8815C229.489 91.3495 228.64 92.1916 228.161 93.2472C227.683 94.3027 227.608 95.4979 227.953 96.6048C228.286 97.5676 228.947 98.4435 228.973 99.4664C229.02 101.325 226.892 102.656 225.264 102.85C223.723 98.5972 224.817 91.4832 226.058 87.2442C228.546 78.8131 235.351 73.2502 243.403 70.3351C248.88 68.3292 256.031 68.0351 261.415 70.4621C267.912 73.3839 273.73 76.2055 276.178 83.4733C278.006 88.889 278.179 97.367 275.844 102.662C274.737 101.512 275.658 99.2792 274.99 97.8283C274.777 97.367 274.437 96.9792 274.203 96.4911C273.102 94.3582 274.657 91.4498 273.296 89.4707C272.782 88.7285 271.962 88.2538 271.488 87.4649C270.361 85.459 272.535 82.818 271.621 80.6918C271.048 79.3546 269.513 78.8064 268.206 78.1846C266.792 77.5628 266.298 76.5398 265.477 75.4232Z" fill="#F6AE2D"/>
<path d="M247.586 123.369C248.11 123.312 248.64 123.381 249.131 123.572C249.622 123.763 250.06 124.069 250.408 124.466C251.008 123.423 253.003 123.363 254.084 123.904C256.839 125.281 257.813 128.484 259.181 129.855C253.684 127.462 247.545 126.991 241.749 128.518C241.749 128.518 243.517 126.151 243.824 125.843C244.791 124.94 246.085 123.369 247.586 123.369Z" fill="#E58A7F"/>
<path d="M248.073 133.191C249.267 133.546 249.581 133.191 250.461 133.191C251.207 133.32 251.96 133.402 252.716 133.439C254.377 133.439 256.292 130.764 259.181 129.855C257.299 128.177 250.195 127.595 248.667 127.548C245.331 127.434 242.176 127.856 241.749 128.544C243.57 128.825 244.377 132.081 248.073 133.191Z" fill="#FEA394"/>
<path d="M249.98 118.676C249.373 118.474 248.815 118.143 248.346 117.706C247.984 117.379 247.56 117.129 247.099 116.971C246.949 116.929 246.793 116.913 246.638 116.924C246.638 116.924 246.638 116.87 246.638 116.857C246.638 116.844 246.592 116.857 246.592 116.951C246.582 117.029 246.599 117.109 246.638 117.178C246.678 117.247 246.739 117.3 246.812 117.332C247.067 117.463 247.352 117.525 247.639 117.512C247.524 117.651 247.382 117.764 247.221 117.845C247.06 117.925 246.885 117.972 246.705 117.98C246.484 117.989 246.264 117.935 246.071 117.826C245.861 117.695 245.694 117.504 245.591 117.278C245.479 117.026 245.458 116.742 245.531 116.476C245.575 116.322 245.651 116.179 245.754 116.056C245.858 115.934 245.987 115.835 246.131 115.767C246.55 115.575 247.025 115.544 247.466 115.68C248.171 115.904 248.769 116.38 249.147 117.017C249.473 117.559 249.68 118.087 249.98 118.676Z" fill="#332066"/>
<path d="M251.861 118.475C251.994 117.988 252.249 117.544 252.602 117.185C252.991 116.786 253.504 116.532 254.056 116.462C254.205 116.449 254.354 116.449 254.503 116.462C254.681 116.482 254.855 116.532 255.017 116.61C255.202 116.692 255.364 116.819 255.49 116.977C255.573 117.078 255.634 117.195 255.669 117.32C255.705 117.446 255.714 117.577 255.697 117.706C255.682 117.826 255.64 117.94 255.576 118.042C255.511 118.144 255.425 118.23 255.324 118.294C255.167 118.395 254.983 118.446 254.797 118.442C254.657 118.428 254.521 118.387 254.397 118.321C254.274 118.254 254.164 118.163 254.076 118.054C254.289 118.01 254.491 117.924 254.67 117.8C254.777 117.706 254.737 117.539 254.67 117.653C254.603 117.766 254.67 117.766 254.67 117.78C254.67 117.793 254.636 117.78 254.59 117.78C254.546 117.773 254.501 117.773 254.456 117.78H254.236C253.892 117.831 253.555 117.919 253.229 118.04C252.786 118.222 252.328 118.368 251.861 118.475Z" fill="#332066"/>
<path d="M255.517 108.305C255.451 109.064 255.558 109.828 255.831 110.539C256.099 111.247 256.413 111.937 256.771 112.605C257.148 113.306 257.447 114.045 257.665 114.811C257.768 115.202 257.822 115.604 257.825 116.008C257.822 116.212 257.802 116.415 257.765 116.616C257.749 116.713 257.727 116.81 257.698 116.904C257.698 116.977 257.558 117.178 257.505 117.051C257.505 117.111 257.578 117.051 257.592 117.017C257.605 116.984 257.592 116.951 257.592 116.89C257.592 116.83 257.592 116.703 257.592 116.603C257.573 116.414 257.544 116.227 257.505 116.041C257.427 115.675 257.316 115.317 257.171 114.971C256.891 114.269 256.538 113.601 256.184 112.905C255.808 112.203 255.523 111.455 255.337 110.679C255.128 109.89 255.191 109.053 255.517 108.305Z" fill="#332066"/>
<path d="M261.782 104.762C263.171 104.762 264.297 103.633 264.297 102.241C264.297 100.849 263.171 99.7205 261.782 99.7205C260.393 99.7205 259.267 100.849 259.267 102.241C259.267 103.633 260.393 104.762 261.782 104.762Z" fill="#332066"/>
<path d="M269.5 104.528C268.691 103.892 267.819 103.341 266.898 102.883C266.053 102.435 265.137 102.138 264.19 102.007C263.461 101.899 262.716 101.96 262.015 102.188C261.732 102.311 261.467 102.473 261.228 102.669C260.703 102.983 260.156 103.26 259.593 103.498C259.324 103.215 259.139 102.862 259.06 102.479C258.981 102.096 259.011 101.699 259.146 101.332C259.461 100.608 260.008 100.01 260.701 99.6336C261.369 99.2681 262.121 99.0838 262.882 99.0987C263.553 99.115 264.215 99.2439 264.843 99.4798C265.986 99.9143 267.041 100.551 267.959 101.359C268.866 102.13 269.533 103.146 269.88 104.287L269.5 104.528Z" fill="#332066"/>
<path d="M235.518 103.057C236.907 103.057 238.033 101.928 238.033 100.536C238.033 99.1441 236.907 98.0155 235.518 98.0155C234.129 98.0155 233.003 99.1441 233.003 100.536C233.003 101.928 234.129 103.057 235.518 103.057Z" fill="#332066"/>
<path d="M243.95 102.362C243.112 101.706 242.187 101.17 241.201 100.77C240.284 100.364 239.301 100.124 238.3 100.061C237.478 100.01 236.655 100.124 235.878 100.396C235.565 100.543 235.27 100.725 234.997 100.937C234.457 101.251 233.9 101.537 233.33 101.793C233.063 101.491 232.886 101.119 232.82 100.72C232.754 100.322 232.801 99.9128 232.956 99.54C233.299 98.8171 233.865 98.2241 234.57 97.8484C235.865 97.18 237.372 97.0526 238.76 97.494C239.982 97.8411 241.131 98.4099 242.149 99.1722C243.171 99.9015 243.937 100.936 244.337 102.127L243.95 102.362Z" fill="#332066"/>
<path d="M246.719 94.6992C246.239 93.9 245.481 93.307 244.59 93.0344C243.708 92.7698 242.804 92.5819 241.889 92.4728C239.961 92.1452 238.053 91.5969 236.098 91.6571C234.855 91.7052 233.634 91.9994 232.505 92.5226C231.376 93.0459 230.362 93.7879 229.521 94.7059C232.568 94.6 235.619 94.6982 238.653 95.0001C240.115 95.0975 241.568 95.2964 243.003 95.5952C243.837 95.7958 244.564 96.5513 245.398 96.6449C245.643 96.6911 245.896 96.6647 246.126 96.5689C246.356 96.4731 246.553 96.312 246.694 96.1055C246.834 95.8989 246.911 95.6559 246.915 95.4061C246.92 95.1563 246.851 94.9106 246.719 94.6992Z" fill="#F6AE2D"/>
<path d="M257.159 97.4071C258.18 97.6679 265.878 96.558 267.793 96.6583C269.83 96.8488 271.778 97.5881 273.43 98.7978C273.023 96.5379 270.047 94.3583 267.759 94.1577C265.631 93.9638 261.202 94.8263 258.146 95.0202C257.796 95.0098 257.447 95.0735 257.123 95.2071C256.799 95.3407 256.507 95.5413 256.265 95.7958C255.738 96.5847 256.245 97.1731 257.159 97.4071Z" fill="#F6AE2D"/>
<path d="M236.839 115.379C242.682 115.379 247.419 110.632 247.419 104.775C247.419 98.9187 242.682 94.171 236.839 94.171C230.996 94.171 226.259 98.9187 226.259 104.775C226.259 110.632 230.996 115.379 236.839 115.379Z" stroke="#332066" stroke-miterlimit="10"/>
<path d="M267.092 117.165C272.935 117.165 277.672 112.417 277.672 106.56C277.672 100.704 272.935 95.9562 267.092 95.9562C261.249 95.9562 256.512 100.704 256.512 106.56C256.512 112.417 261.249 117.165 267.092 117.165Z" stroke="#332066" stroke-miterlimit="10"/>
<path d="M256.533 106.146C256.239 105.13 255.785 104.387 254.965 104.294L248.961 103.739C248.294 103.739 247.787 104.341 247.46 105.41L247.527 102.736L256.866 103.598L256.533 106.146Z" fill="#332066"/>
<path d="M125.344 80.6451C132.685 71.283 136.391 59.5721 135.778 47.6812C135.165 35.7903 130.273 24.525 122.008 15.9715C113.744 7.41803 102.667 2.15586 90.8284 1.15953C78.9901 0.1632 67.1925 3.50021 57.6206 10.5526C48.0486 17.6049 41.3508 27.8949 38.7674 39.5167C36.1841 51.1386 37.8903 63.305 43.57 73.7628C49.2497 84.2207 58.5182 92.2614 69.659 96.396C80.7998 100.531 93.058 100.479 104.164 96.2504L142.856 111.074L125.344 80.6451Z" fill="url(#paint0_linear_6977_29760)"/>
<path d="M92.1425 74.4337C91.6275 75.5559 90.8872 76.5596 89.9677 77.3822C88.9235 78.3167 87.7095 79.0409 86.392 79.5151C84.8593 80.0715 83.2389 80.3456 81.6089 80.3241C79.4608 80.3241 77.8775 79.6555 76.8591 78.3183C75.8284 76.9676 75.2894 75.3045 75.3314 73.6046C75.3367 72.5451 75.5287 71.4948 75.8984 70.5022C76.2767 69.4417 76.8644 68.4685 77.6262 67.6406C78.4346 66.7755 79.4047 66.0781 80.4815 65.588C81.6908 65.035 83.0084 64.7609 84.3373 64.7856C87.286 64.7856 89.4452 65.4297 90.815 66.7179C91.4514 67.2686 91.9637 67.9486 92.318 68.7129C92.6722 69.4771 92.8603 70.3081 92.8696 71.1508C92.8626 72.2844 92.6147 73.4035 92.1425 74.4337ZM79.5942 59.4434C79.5489 56.8089 79.9713 54.1873 80.8417 51.7009C81.6064 49.568 82.6471 47.5449 83.9371 45.6834C85.1214 44.0006 86.4615 42.4335 87.9397 41.0032C89.3584 39.6303 90.6927 38.3933 91.9424 37.2924C93.0127 36.3531 94.0325 35.3577 94.9977 34.3104C95.7173 33.6218 96.1489 32.6849 96.2052 31.6894C96.1221 31.1866 95.8896 30.7205 95.5381 30.3522C95.296 30.0616 94.9879 29.8334 94.6397 29.6868C94.2915 29.5403 93.9132 29.4795 93.5368 29.5097C92.1856 29.6185 90.884 30.0695 89.7543 30.8202C88.2094 31.6962 86.7191 32.6652 85.2913 33.722C83.6719 34.9178 82.1134 36.1942 80.6215 37.5464L76.4121 27.5975C79.138 25.134 82.2654 23.1574 85.6582 21.7539C88.9696 20.3557 92.5252 19.6307 96.1185 19.621C97.7539 19.6124 99.3851 19.7873 100.982 20.1425C102.42 20.4616 103.78 21.0639 104.984 21.9143C106.148 22.7606 107.101 23.866 107.766 25.1437C108.501 26.6319 108.861 28.2779 108.814 29.9376C108.875 32.2489 108.436 34.546 107.526 36.6706C106.707 38.4364 105.63 40.0701 104.331 41.518C103.038 42.944 101.611 44.2405 100.068 45.3892C98.48 46.5704 96.9635 47.7806 95.5181 49.0198C94.0716 50.2544 92.7529 51.632 91.5821 53.1317C90.3665 54.7081 89.5144 56.5348 89.0871 58.4806L84.3373 58.9687L79.5942 59.4434Z" fill="#FEDAC9"/>
<path d="M31.1758 203.302C32.3106 203.302 33.2305 202.38 33.2305 201.242C33.2305 200.105 32.3106 199.183 31.1758 199.183C30.041 199.183 29.1211 200.105 29.1211 201.242C29.1211 202.38 30.041 203.302 31.1758 203.302Z" fill="#7C3AED"/>
<path d="M2.91016 122.848C4.04494 122.848 4.96486 121.926 4.96486 120.788C4.96486 119.651 4.04494 118.729 2.91016 118.729C1.77539 118.729 0.855469 119.651 0.855469 120.788C0.855469 121.926 1.77539 122.848 2.91016 122.848Z" fill="#7C3AED"/>
<path d="M63.6038 153.116C65.3207 153.116 66.7126 151.721 66.7126 150C66.7126 148.279 65.3207 146.884 63.6038 146.884C61.8869 146.884 60.4951 148.279 60.4951 150C60.4951 151.721 61.8869 153.116 63.6038 153.116Z" fill="#7C3AED"/>
<path d="M354.035 283C355.17 283 356.09 282.078 356.09 280.941C356.09 279.803 355.17 278.881 354.035 278.881C352.9 278.881 351.98 279.803 351.98 280.941C351.98 282.078 352.9 283 354.035 283Z" fill="#7C3AED"/>
<path d="M354.983 265.335C355.812 265.335 356.484 264.662 356.484 263.831C356.484 263 355.812 262.327 354.983 262.327C354.154 262.327 353.482 263 353.482 263.831C353.482 264.662 354.154 265.335 354.983 265.335Z" fill="#7C3AED"/>
<path d="M340.32 286.009C342.037 286.009 343.428 284.614 343.428 282.893C343.428 281.172 342.037 279.777 340.32 279.777C338.603 279.777 337.211 281.172 337.211 282.893C337.211 284.614 338.603 286.009 340.32 286.009Z" fill="#7C3AED"/>
<path d="M343.788 278.119C345.505 278.119 346.897 276.724 346.897 275.003C346.897 273.283 345.505 271.888 343.788 271.888C342.071 271.888 340.68 273.283 340.68 275.003C340.68 276.724 342.071 278.119 343.788 278.119Z" fill="#7C3AED"/>
<path d="M380.514 82.7111L371.381 83.8745L377.111 76.6535L386.244 75.4901L380.514 82.7111Z" fill="#D0CFEC"/>
<path opacity="0.6" d="M380.514 82.7111L371.381 83.8745L377.111 76.6535L386.244 75.4901L380.514 82.7111Z" fill="#FFFEFD"/>
<path d="M386.277 92.9609L377.145 94.1309L371.381 83.8745L380.514 82.7111L386.277 92.9609Z" fill="#D0CFEC"/>
<path d="M386.277 92.9609L392.001 85.7466L386.244 75.4901L380.514 82.7111L386.277 92.9609Z" fill="#D0CFEC"/>
<path opacity="0.1" d="M386.277 92.9609L392.001 85.7466L386.244 75.4901L380.514 82.7111L386.277 92.9609Z" fill="#332066"/>
<path d="M193.649 263.45L184.517 264.62L190.247 257.399L199.373 256.229L193.649 263.45Z" fill="#D0CFEC"/>
<path opacity="0.6" d="M193.649 263.45L184.517 264.62L190.247 257.399L199.373 256.229L193.649 263.45Z" fill="#FFFEFD"/>
<path d="M199.406 273.706L190.274 274.87L184.517 264.62L193.649 263.45L199.406 273.706Z" fill="#D0CFEC"/>
<path d="M199.407 273.706L205.137 266.485L199.373 256.229L193.649 263.45L199.407 273.706Z" fill="#D0CFEC"/>
<path opacity="0.1" d="M199.407 273.706L205.137 266.485L199.373 256.229L193.649 263.45L199.407 273.706Z" fill="#332066"/>
<path d="M29.1278 137.009L19.9951 138.172L25.7256 130.951L34.8516 129.788L29.1278 137.009Z" fill="#D0CFEC"/>
<path opacity="0.6" d="M29.1278 137.009L19.9951 138.172L25.7256 130.951L34.8516 129.788L29.1278 137.009Z" fill="#FFFEFD"/>
<path d="M34.885 147.265L25.7589 148.429L19.9951 138.172L29.1278 137.009L34.885 147.265Z" fill="#D0CFEC"/>
<path d="M34.8851 147.265L40.6155 140.044L34.8517 129.788L29.1279 137.009L34.8851 147.265Z" fill="#D0CFEC"/>
<path opacity="0.1" d="M34.8851 147.265L40.6155 140.044L34.8517 129.788L29.1279 137.009L34.8851 147.265Z" fill="#332066"/>
<path d="M335.703 95.7155C336.838 95.7155 337.758 94.7935 337.758 93.6562C337.758 92.5189 336.838 91.5969 335.703 91.5969C334.568 91.5969 333.648 92.5189 333.648 93.6562C333.648 94.7935 334.568 95.7155 335.703 95.7155Z" fill="#D0CFEC"/>
<path d="M416.184 105.116C417.318 105.116 418.238 104.194 418.238 103.057C418.238 101.92 417.318 100.998 416.184 100.998C415.049 100.998 414.129 101.92 414.129 103.057C414.129 104.194 415.049 105.116 416.184 105.116Z" fill="#D0CFEC"/>
<path d="M346.21 102.97C347.039 102.97 347.711 102.296 347.711 101.466C347.711 100.635 347.039 99.9612 346.21 99.9612C345.381 99.9612 344.709 100.635 344.709 101.466C344.709 102.296 345.381 102.97 346.21 102.97Z" fill="#D0CFEC"/>
<path d="M343.101 91.5969C344.818 91.5969 346.21 90.2019 346.21 88.4812C346.21 86.7604 344.818 85.3654 343.101 85.3654C341.384 85.3654 339.992 86.7604 339.992 88.4812C339.992 90.2019 341.384 91.5969 343.101 91.5969Z" fill="#D0CFEC"/>
<path d="M374.49 178.503C376.207 178.503 377.598 177.108 377.598 175.387C377.598 173.666 376.207 172.271 374.49 172.271C372.773 172.271 371.381 173.666 371.381 175.387C371.381 177.108 372.773 178.503 374.49 178.503Z" fill="#D0CFEC"/>
<path d="M165.758 74.447C166.893 74.447 167.813 73.5251 167.813 72.3877C167.813 71.2504 166.893 70.3284 165.758 70.3284C164.623 70.3284 163.703 71.2504 163.703 72.3877C163.703 73.5251 164.623 74.447 165.758 74.447Z" fill="#D0CFEC"/>
<path d="M176.265 81.7015C177.094 81.7015 177.766 81.0279 177.766 80.1971C177.766 79.3662 177.094 78.6927 176.265 78.6927C175.436 78.6927 174.764 79.3662 174.764 80.1971C174.764 81.0279 175.436 81.7015 176.265 81.7015Z" fill="#D0CFEC"/>
<path d="M173.162 70.3351C174.879 70.3351 176.271 68.9401 176.271 67.2194C176.271 65.4986 174.879 64.1036 173.162 64.1036C171.446 64.1036 170.054 65.4986 170.054 67.2194C170.054 68.9401 171.446 70.3351 173.162 70.3351Z" fill="#D0CFEC"/>
<path d="M170.054 163.105C171.771 163.105 173.163 161.71 173.163 159.989C173.163 158.268 171.771 156.873 170.054 156.873C168.337 156.873 166.945 158.268 166.945 159.989C166.945 161.71 168.337 163.105 170.054 163.105Z" fill="#D0CFEC"/>
<path d="M110.321 211.419C111.456 211.419 112.376 210.497 112.376 209.359C112.376 208.222 111.456 207.3 110.321 207.3C109.187 207.3 108.267 208.222 108.267 209.359C108.267 210.497 109.187 211.419 110.321 211.419Z" fill="#7C3AED"/>
<path d="M65.752 279.236C66.8867 279.236 67.8067 278.314 67.8067 277.176C67.8067 276.039 66.8867 275.117 65.752 275.117C64.6172 275.117 63.6973 276.039 63.6973 277.176C63.6973 278.314 64.6172 279.236 65.752 279.236Z" fill="#7C3AED"/>
<path d="M98.6397 216.761C99.4686 216.761 100.141 216.087 100.141 215.256C100.141 214.426 99.4686 213.752 98.6397 213.752C97.8107 213.752 97.1387 214.426 97.1387 215.256C97.1387 216.087 97.8107 216.761 98.6397 216.761Z" fill="#7C3AED"/>
<path d="M111.602 221.428C113.319 221.428 114.711 220.033 114.711 218.312C114.711 216.591 113.319 215.196 111.602 215.196C109.885 215.196 108.493 216.591 108.493 218.312C108.493 220.033 109.885 221.428 111.602 221.428Z" fill="#7C3AED"/>
<path d="M20.0413 210.449C21.7582 210.449 23.1501 209.054 23.1501 207.333C23.1501 205.613 21.7582 204.218 20.0413 204.218C18.3244 204.218 16.9326 205.613 16.9326 207.333C16.9326 209.054 18.3244 210.449 20.0413 210.449Z" fill="#7C3AED"/>
<defs>
<linearGradient id="paint0_linear_6977_29760" x1="37.4529" y1="55.9332" x2="142.836" y2="55.9332" gradientUnits="userSpaceOnUse">
<stop stop-color="#7C3AED"/>
<stop offset="0.18" stop-color="#8A4BE9" stop-opacity="0.97"/>
<stop offset="0.49" stop-color="#AF78DF" stop-opacity="0.88"/>
<stop offset="0.88" stop-color="#EAC2CE" stop-opacity="0.75"/>
<stop offset="1" stop-color="#FEDAC9" stop-opacity="0.7"/>
</linearGradient>
</defs>
</svg>
