<svg width="416" height="270" viewBox="0 0 416 270" fill="none" xmlns="http://www.w3.org/2000/svg">
<path d="M209.492 64.7356C234.548 63.5048 259.66 65.4013 284.247 70.3811C300.067 73.5953 315.948 78.2171 329.297 87.2952C342.646 96.3732 353.269 110.532 354.911 126.581C356.553 142.629 347.528 160.07 332.235 165.271C328.039 166.694 323.135 167.116 319.383 164.752C314.569 161.741 313.296 154.884 315.217 149.532C317.138 144.18 321.53 140.107 326.133 136.773C341.012 126.016 362.429 121.304 377.526 131.759C390.868 140.996 395.117 160.07 389.693 175.358C384.269 190.646 370.807 202.103 355.792 208.306C340.712 214.615 324.387 217.39 308.068 216.42C226.909 210.963 155.228 101.228 139.204 81.2958C123.565 61.8225 101.657 45.4203 76.6761 44.103C69.3987 43.7191 61.9707 44.66 55.3035 47.5957C48.2677 50.8077 42.222 55.8451 37.7957 62.1838C33.148 68.809 30.1442 76.4438 29.0321 84.4578C27.92 92.4718 28.7315 100.635 31.3997 108.274C34.3528 116.494 39.6866 124.082 47.2201 128.53C51.3183 130.954 56.3055 132.407 60.8783 131.082C64.3622 129.981 67.3042 127.611 69.12 124.443C74.4989 115.41 69.12 101.906 59.01 99.0153C52.2299 97.0883 44.7491 99.5497 39.5434 104.284C34.3378 109.019 31.2566 115.636 29.5992 122.456C23.7457 146.987 36.9142 173.424 57.2547 188.305C77.5952 203.187 103.962 208.004 129.215 207.372" stroke="#7C3AED" stroke-miterlimit="10" stroke-dasharray="12 12"/>
<path d="M285.475 35.2656H130.887V244.06H285.475V35.2656Z" fill="white"/>
<path d="M285.475 35.2656H130.887V244.06H285.475V35.2656Z" fill="url(#paint0_linear_8724_31278)"/>
<path d="M144.146 61.2793H244.131" stroke="#FEFDFF" stroke-width="6" stroke-miterlimit="10" stroke-linecap="round"/>
<path d="M144.146 72.2168H219.956" stroke="#FEFDFF" stroke-width="6" stroke-miterlimit="10" stroke-linecap="round"/>
<path d="M144.146 98.3066H240.477" stroke="#FEFDFF" stroke-width="3" stroke-miterlimit="10" stroke-linecap="round"/>
<path d="M146.798 115.74C147.838 115.74 148.681 114.898 148.681 113.858C148.681 112.819 147.838 111.977 146.798 111.977C145.758 111.977 144.915 112.819 144.915 113.858C144.915 114.898 145.758 115.74 146.798 115.74Z" fill="#FEFDFF"/>
<path d="M146.798 130.117C147.838 130.117 148.681 129.275 148.681 128.235C148.681 127.196 147.838 126.354 146.798 126.354C145.758 126.354 144.915 127.196 144.915 128.235C144.915 129.275 145.758 130.117 146.798 130.117Z" fill="#FEFDFF"/>
<path d="M146.798 144.494C147.838 144.494 148.681 143.652 148.681 142.612C148.681 141.573 147.838 140.73 146.798 140.73C145.758 140.73 144.915 141.573 144.915 142.612C144.915 143.652 145.758 144.494 146.798 144.494Z" fill="#FEFDFF"/>
<path d="M146.798 158.879C147.838 158.879 148.681 158.036 148.681 156.997C148.681 155.958 147.838 155.115 146.798 155.115C145.758 155.115 144.915 155.958 144.915 156.997C144.915 158.036 145.758 158.879 146.798 158.879Z" fill="#FEFDFF"/>
<path d="M146.798 173.258C147.838 173.258 148.681 172.415 148.681 171.376C148.681 170.337 147.838 169.494 146.798 169.494C145.758 169.494 144.915 170.337 144.915 171.376C144.915 172.415 145.758 173.258 146.798 173.258Z" fill="#FEFDFF"/>
<path d="M144.229 105.562H204.286" stroke="#FEFDFF" stroke-width="3" stroke-miterlimit="10" stroke-linecap="round"/>
<path d="M219.956 127.941H256.508" stroke="#FEFDFF" stroke-width="3" stroke-miterlimit="10" stroke-linecap="round"/>
<path d="M186.891 142.018H275.237" stroke="#FEFDFF" stroke-width="3" stroke-miterlimit="10" stroke-linecap="round"/>
<path d="M190.259 156.102H275.237" stroke="#FEFDFF" stroke-width="3" stroke-miterlimit="10" stroke-linecap="round"/>
<path d="M188.978 170.186H275.237" stroke="#FEFDFF" stroke-width="3" stroke-miterlimit="10" stroke-linecap="round"/>
<path d="M196.745 189.41H279.214" stroke="#FEFDFF" stroke-width="3" stroke-miterlimit="10" stroke-linecap="round"/>
<path d="M194.568 198.256H267.311" stroke="#FEFDFF" stroke-width="3" stroke-miterlimit="10" stroke-linecap="round"/>
<path d="M211.3 207.1H265.345" stroke="#FEFDFF" stroke-width="3" stroke-miterlimit="10" stroke-linecap="round"/>
<path d="M214.042 215.938H279.214" stroke="#FEFDFF" stroke-width="3" stroke-miterlimit="10" stroke-linecap="round"/>
<path d="M140.47 215.938H174.257" stroke="#FEFDFF" stroke-width="3" stroke-miterlimit="10" stroke-linecap="round"/>
<path d="M140.04 224.781H173.06" stroke="#FEFDFF" stroke-width="3" stroke-miterlimit="10" stroke-linecap="round"/>
<path d="M219.956 224.781H276.163" stroke="#FEFDFF" stroke-width="3" stroke-miterlimit="10" stroke-linecap="round"/>
<path d="M140.04 233.627H188.978" stroke="#FEFDFF" stroke-width="3" stroke-miterlimit="10" stroke-linecap="round"/>
<path d="M226.231 233.627H271.101" stroke="#FEFDFF" stroke-width="3" stroke-miterlimit="10" stroke-linecap="round"/>
<path d="M169.029 193.084L193.234 217.269" stroke="#7C3AED" stroke-width="9" stroke-miterlimit="10"/>
<path d="M225.583 248.794C224.888 249.489 224.063 250.04 223.155 250.416C222.247 250.792 221.274 250.986 220.291 250.986C219.308 250.986 218.335 250.792 217.426 250.416C216.518 250.04 215.693 249.489 214.999 248.794L175.824 210.465L186.409 199.889L225.583 238.218C226.279 238.912 226.83 239.737 227.207 240.644C227.583 241.551 227.777 242.524 227.777 243.506C227.777 244.488 227.583 245.461 227.207 246.368C226.83 247.276 226.279 248.1 225.583 248.794Z" fill="#7BE0AD"/>
<path d="M136.906 210.939C164.512 210.939 186.891 188.578 186.891 160.995C186.891 133.412 164.512 111.051 136.906 111.051C109.301 111.051 86.9216 133.412 86.9216 160.995C86.9216 188.578 109.301 210.939 136.906 210.939Z" fill="#F6AE2D"/>
<path d="M136.906 204.587C161.001 204.587 180.533 185.07 180.533 160.995C180.533 136.921 161.001 117.404 136.906 117.404C112.812 117.404 93.2798 136.921 93.2798 160.995C93.2798 185.07 112.812 204.587 136.906 204.587Z" fill="white"/>
<path opacity="0.4" d="M136.906 204.587C161.001 204.587 180.533 185.07 180.533 160.995C180.533 136.921 161.001 117.404 136.906 117.404C112.812 117.404 93.2798 136.921 93.2798 160.995C93.2798 185.07 112.812 204.587 136.906 204.587Z" fill="#D0CFEC"/>
<path d="M171.161 183.825C169.383 163.592 148.259 165.534 146.007 161.01L127.761 161.078C125.501 165.594 104.407 163.592 102.659 183.825H171.161Z" fill="#D0CFEC"/>
<path d="M140.967 183.825H131.128C126.774 177.804 125.177 172.745 126.375 168.078L147.838 168.364C148.41 173.543 145.834 179.49 140.967 183.825Z" fill="white"/>
<path d="M147.837 168.365C149.924 182.313 123.775 180.303 126.375 168.079C126.872 165.715 127.836 159.482 127.836 159.482H146.029C146.029 159.482 147.468 165.866 147.837 168.365Z" fill="#F8895D"/>
<path d="M136.62 172.031C129.313 172.031 127.58 161.078 127.58 161.078L146.331 160.875C146.331 160.875 143.928 172.031 136.62 172.031Z" fill="#332066"/>
<path d="M126.375 168.078C126.492 169.41 126.86 170.707 127.46 171.902C128.023 172.982 128.84 173.909 129.84 174.604C131.894 175.934 134.302 176.611 136.748 176.546C139.21 176.587 141.632 175.927 143.732 174.642C144.771 173.972 145.659 173.093 146.338 172.06C147.056 170.927 147.567 169.676 147.845 168.364C148.183 169.79 148.129 171.28 147.687 172.677C147.213 174.146 146.358 175.463 145.208 176.494C142.869 178.522 139.861 179.614 136.763 179.557C133.647 179.632 130.622 178.502 128.318 176.403C127.218 175.356 126.448 174.009 126.104 172.53C125.76 171.051 125.857 169.503 126.382 168.078H126.375Z" fill="#7C3AED"/>
<path d="M125.177 164.006C125.059 165.327 124.788 166.631 124.371 167.89C123.943 169.163 123.342 170.371 122.585 171.481C121.832 172.595 120.935 173.573 120.287 174.65C119.635 175.723 119.307 176.962 119.346 178.218L118.705 178.037C118.947 177.632 119.293 177.299 119.707 177.073C120.134 176.879 120.606 176.809 121.071 176.87L121.493 176.908L121.327 177.269C121.267 177.475 121.256 177.693 121.297 177.903C121.337 178.114 121.428 178.312 121.561 178.481C121.817 178.895 122.163 179.234 122.48 179.693C123.09 180.554 123.459 181.562 123.549 182.614C123.328 181.621 122.865 180.697 122.201 179.926C121.877 179.55 121.5 179.174 121.184 178.752C120.986 178.524 120.848 178.251 120.781 177.957C120.714 177.663 120.72 177.357 120.8 177.066L121.056 177.457C120.701 177.441 120.348 177.508 120.024 177.653C119.726 177.838 119.482 178.098 119.316 178.406L118.736 179.377L118.675 178.233C118.598 176.84 118.944 175.457 119.67 174.266C120.423 173.091 121.304 172.135 122.065 171.089C122.838 170.054 123.483 168.929 123.986 167.739C124.476 166.527 124.874 165.278 125.177 164.006Z" fill="#332066"/>
<path d="M148.516 163.412C148.764 164.865 149.63 166.069 150.293 167.364C151.016 168.648 151.616 169.996 152.086 171.391C152.544 172.811 152.798 174.289 152.84 175.78C152.864 177.267 152.703 178.751 152.358 180.198L152.019 181.704L151.665 180.198C151.548 179.542 151.254 178.93 150.813 178.429C150.583 178.207 150.303 178.043 149.996 177.95C149.69 177.857 149.366 177.838 149.05 177.895L149.126 177.39C149.216 177.434 149.295 177.498 149.357 177.576C149.42 177.654 149.464 177.745 149.487 177.842C149.537 178.007 149.537 178.182 149.487 178.346C149.413 178.659 149.218 178.929 148.945 179.099C148.463 179.393 147.981 179.498 147.717 179.852C147.465 180.271 147.304 180.737 147.242 181.222C147.221 181.48 147.142 181.73 147.012 181.954C146.881 182.178 146.703 182.37 146.489 182.517C146.673 182.347 146.818 182.141 146.915 181.911C147.013 181.682 147.06 181.434 147.054 181.184C147.071 180.661 147.199 180.148 147.431 179.679C147.747 179.159 148.342 179.016 148.689 178.745C148.852 178.635 148.966 178.465 149.005 178.271C149.043 178.068 149.005 177.94 148.892 177.91L147.92 177.594L148.968 177.406C149.365 177.327 149.775 177.327 150.173 177.406C150.583 177.5 150.96 177.703 151.265 177.993C151.819 178.568 152.197 179.288 152.358 180.07H151.665C151.965 178.675 152.109 177.251 152.094 175.825C152.065 174.399 151.858 172.983 151.476 171.609C151.088 170.227 150.584 168.88 149.969 167.582C149.661 166.92 149.352 166.257 149.081 165.572C148.762 164.893 148.57 164.161 148.516 163.412Z" fill="#332066"/>
<path d="M149.48 148.289C149.721 145.729 150.188 139.835 149.518 137.351C149.454 137.176 149.454 136.984 149.518 136.809C149.646 136.508 150.068 136.486 150.384 136.583C150.705 136.688 150.995 136.87 151.228 137.112C151.462 137.355 151.633 137.652 151.725 137.976C151.812 138.304 151.818 138.648 151.742 138.979C151.665 139.309 151.51 139.616 151.288 139.873C151.931 139.367 152.383 138.659 152.572 137.864C152.761 137.068 152.675 136.232 152.328 135.492C152.655 135.63 152.929 135.869 153.11 136.173C153.292 136.478 153.371 136.833 153.337 137.186C154.271 136.207 153.94 134.596 153.337 133.422C152.157 131.125 150.235 129.295 147.883 128.228C148.08 127.956 148.347 127.742 148.656 127.609C148.966 127.477 149.305 127.431 149.638 127.475C149.076 127.012 148.419 126.679 147.713 126.501C147.006 126.323 146.27 126.303 145.555 126.444C145.669 126.189 145.863 125.978 146.108 125.842C146.352 125.707 146.634 125.654 146.911 125.691C145.969 124.351 143.287 124.555 142.007 124.547C142.01 124.47 142.03 124.395 142.064 124.326C142.098 124.256 142.145 124.195 142.204 124.145C142.262 124.095 142.331 124.057 142.404 124.035C142.478 124.012 142.555 124.004 142.632 124.013C141.43 123.355 140.03 123.155 138.692 123.448C138.805 123.234 138.984 123.063 139.203 122.959C139.421 122.856 139.668 122.827 139.905 122.876C138.982 122.368 137.945 122.102 136.891 122.102C135.838 122.102 134.801 122.368 133.878 122.876C132.043 123.905 130.474 125.348 129.298 127.091C128.981 126.339 129.848 125.292 129.848 125.292C127.09 125.292 125.328 128.153 125.328 130.373C125.103 130.122 124.932 129.827 124.824 129.508C124.717 129.188 124.675 128.85 124.702 128.514C124.271 129.062 124.059 129.75 124.106 130.445C124.153 131.14 124.457 131.793 124.958 132.278C124.705 132.297 124.451 132.261 124.213 132.173C123.975 132.085 123.759 131.946 123.58 131.766C123.616 132.216 123.747 132.653 123.962 133.049C124.177 133.446 124.473 133.793 124.83 134.069L123.565 133.911C123.816 134.343 124.153 134.719 124.554 135.017C124.956 135.314 125.414 135.527 125.9 135.642C125.461 135.868 125.084 136.199 124.805 136.607C124.526 137.014 124.354 137.485 124.303 137.976C124.265 138.988 124.362 140 124.589 140.987C124.815 142.763 125.493 148.974 125.275 149.975" fill="#FEDAC9"/>
<path d="M147.657 158.564C147.386 160.935 139.483 167.439 138.195 167.439H134.488C132.605 167.476 125.727 159.911 125.742 157.352C125.742 157.352 125.629 143.517 126.081 138.978C126.638 133.302 132.823 132.609 137.2 132.609C142.233 132.609 148.711 135.101 148.681 139.693L147.657 158.564Z" fill="#F8895D"/>
<path d="M148.049 147.537L148.975 145.663C149.08 145.414 149.234 145.189 149.427 145C149.528 144.91 149.655 144.853 149.79 144.837C149.924 144.821 150.061 144.846 150.181 144.91C150.459 145.083 150.474 145.482 150.459 145.813L150.294 149.81C150.281 151.181 150.134 152.548 149.857 153.89C149.816 154.119 149.723 154.335 149.585 154.522C149.404 154.714 149.175 154.854 148.922 154.929C148.731 155.04 148.514 155.098 148.293 155.098C148.072 155.098 147.855 155.04 147.664 154.929" fill="#F8895D"/>
<path d="M148.621 151.632C148.621 151.714 148.621 151.812 148.674 151.842C148.699 151.847 148.726 151.845 148.751 151.837C148.776 151.829 148.798 151.815 148.817 151.797C149.031 151.635 149.203 151.424 149.319 151.182C149.434 150.939 149.489 150.673 149.48 150.405C149.48 150.073 148.922 148.485 148.636 149.215C148.523 149.509 148.704 150.021 148.719 150.337C148.732 150.771 148.699 151.205 148.621 151.632Z" fill="#332066"/>
<path d="M126.058 147.37C125.984 146.557 125.77 145.762 125.425 145.022C125.355 144.782 125.219 144.565 125.034 144.397C124.942 144.314 124.827 144.262 124.705 144.245C124.582 144.229 124.458 144.251 124.348 144.307C124.247 144.388 124.165 144.491 124.109 144.609C124.053 144.726 124.024 144.854 124.024 144.984C123.968 145.64 123.968 146.3 124.024 146.956L124.363 152.978C124.334 153.491 124.48 153.998 124.777 154.416C125.116 154.8 125.855 154.838 126.058 154.371" fill="#F8895D"/>
<path d="M124.86 149.402C124.833 149.571 124.82 149.743 124.823 149.914C124.82 150.684 124.863 151.453 124.951 152.217C124.951 152.308 125.034 152.443 125.116 152.39C125.14 152.37 125.158 152.344 125.169 152.315C125.256 151.85 125.256 151.373 125.169 150.908C125.169 150.328 125.546 149.274 125.222 148.777C124.981 148.845 124.898 149.191 124.86 149.402Z" fill="#332066"/>
<path d="M140.681 144.526C141.519 144.457 142.362 144.474 143.197 144.578C143.707 144.604 144.212 144.687 144.703 144.827C145.225 144.999 145.698 145.294 146.082 145.687C146.466 146.08 146.751 146.56 146.911 147.085C145.492 145.918 143.672 145.353 141.841 145.512C141.261 145.564 139.234 146.212 138.827 145.67C138.255 144.947 140.304 144.601 140.681 144.526Z" fill="#FEDAC9"/>
<path d="M132.816 143.931C132.285 143.809 131.746 143.721 131.204 143.667C130.525 143.569 129.833 143.644 129.192 143.885C128.341 144.388 127.665 145.139 127.256 146.038C128.127 145.43 129.123 145.027 130.172 144.856C130.632 144.826 131.095 144.849 131.55 144.924C132.145 145 132.74 145.105 133.328 145.233C133.652 145.308 134.323 145.534 134.631 145.286C135.362 144.698 133.215 144.021 132.816 143.931Z" fill="#FEDAC9"/>
<path d="M134.398 154.891C134.288 154.956 134.168 155.002 134.044 155.026C133.952 155.051 133.854 155.046 133.766 155.01C133.677 154.975 133.603 154.912 133.554 154.83C133.485 154.713 133.465 154.572 133.499 154.44C133.533 154.307 133.617 154.193 133.735 154.123C133.823 154.07 133.922 154.036 134.024 154.024C134.127 154.011 134.231 154.019 134.33 154.048C134.465 154.093 134.589 154.165 134.695 154.259C134.801 154.354 134.887 154.469 134.948 154.597C135.053 154.809 135.116 155.039 135.136 155.275C134.639 155.169 134.27 154.778 134.119 154.77C133.968 154.763 134.066 154.77 134.119 154.733C134.172 154.695 134.172 154.65 134.119 154.567C134.066 154.484 134.081 154.627 134.164 154.672C134.246 154.74 134.324 154.813 134.398 154.891Z" fill="#332066"/>
<path d="M137.343 155.531C137.345 155.389 137.376 155.249 137.435 155.119C137.493 154.99 137.577 154.874 137.682 154.778C137.882 154.59 138.122 154.449 138.383 154.364C138.549 154.305 138.727 154.285 138.903 154.304C138.992 154.32 139.076 154.359 139.146 154.417C139.216 154.475 139.27 154.55 139.302 154.635C139.331 154.717 139.334 154.806 139.313 154.89C139.292 154.975 139.246 155.051 139.181 155.109C139.116 155.171 139.036 155.215 138.95 155.24C138.864 155.265 138.773 155.269 138.684 155.252C138.549 155.236 138.416 155.208 138.285 155.17C138.373 155.067 138.472 154.974 138.579 154.891C138.692 154.823 138.797 154.733 138.729 154.741C138.662 154.748 138.662 154.778 138.684 154.876C138.707 154.974 138.805 155.012 138.797 155.012C138.79 155.012 138.729 155.012 138.616 155.079L138.006 155.268C137.778 155.335 137.556 155.423 137.343 155.531Z" fill="#332066"/>
<path d="M137.788 146.783C137.855 147.249 137.885 147.72 137.878 148.191C137.878 148.658 137.878 149.132 137.826 149.576C137.78 149.998 137.829 150.425 137.969 150.825C138.119 151.232 138.353 151.638 138.564 152.067C138.164 151.787 137.826 151.428 137.569 151.014C137.32 150.57 137.212 150.06 137.261 149.553C137.327 148.612 137.504 147.683 137.788 146.783Z" fill="#332066"/>
<path d="M141.931 148.26C142.289 148.26 142.579 147.97 142.579 147.612C142.579 147.255 142.289 146.965 141.931 146.965C141.574 146.965 141.283 147.255 141.283 147.612C141.283 147.97 141.574 148.26 141.931 148.26Z" fill="#332066"/>
<path d="M144.342 148.078C143.967 147.874 143.559 147.736 143.137 147.672C142.722 147.596 142.3 147.56 141.879 147.566C141.473 147.574 141.069 147.622 140.673 147.709L140.402 147.785C140.317 147.824 140.229 147.854 140.138 147.875C140.043 147.911 139.945 147.939 139.845 147.958C139.72 147.989 139.595 148.015 139.468 148.033C139.458 147.89 139.478 147.746 139.528 147.611C139.596 147.495 139.676 147.386 139.769 147.288C139.978 147.129 140.213 147.007 140.462 146.926C140.935 146.796 141.431 146.765 141.916 146.836C142.387 146.89 142.848 147.006 143.287 147.182C143.746 147.329 144.148 147.612 144.44 147.995L144.342 148.078Z" fill="#332066"/>
<path d="M131.482 147.611C131.84 147.611 132.13 147.321 132.13 146.964C132.13 146.606 131.84 146.316 131.482 146.316C131.125 146.316 130.834 146.606 130.834 146.964C130.834 147.321 131.125 147.611 131.482 147.611Z" fill="#332066"/>
<path d="M128.951 147.13C129.269 146.761 129.692 146.499 130.164 146.377C130.617 146.245 131.085 146.17 131.558 146.151C132.05 146.12 132.543 146.195 133.004 146.37C133.243 146.469 133.464 146.606 133.659 146.776C133.744 146.882 133.815 146.999 133.87 147.122C133.9 147.264 133.9 147.41 133.87 147.552C133.741 147.526 133.615 147.488 133.494 147.439C133.397 147.418 133.303 147.385 133.215 147.341C133.125 147.31 133.04 147.269 132.959 147.22L132.688 147.122C132.301 147.008 131.905 146.928 131.505 146.882C131.084 146.84 130.66 146.84 130.239 146.882C129.814 146.917 129.397 147.018 129.004 147.183L128.951 147.13Z" fill="#332066"/>
<path d="M138.564 160.588H134.044L131.656 157.735C133.24 157.221 134.944 157.206 136.537 157.69C138.139 157.299 139.81 157.283 141.419 157.645L138.564 160.588Z" fill="#332066"/>
<path d="M139.694 158.406C138.637 159.007 137.434 159.302 136.219 159.258C135.005 159.214 133.826 158.833 132.816 158.158C132.712 158.088 132.624 157.997 132.557 157.89C132.491 157.784 132.448 157.665 132.431 157.541V157.277H134.292L136.658 157.729L138.586 157.277H140.229V157.601C140.224 157.772 140.171 157.938 140.077 158.08C139.982 158.223 139.85 158.336 139.694 158.406Z" fill="#FEFDFF"/>
<path d="M137.486 160.74H135.603L134.029 159.385C135.748 159.652 137.499 159.652 139.219 159.385L137.486 160.74Z" fill="#FEFDFF"/>
<path d="M136.605 161.522C139.897 161.522 140.899 158.308 141.426 157.645C141.087 157.6 139.001 160.265 136.409 160.084C133.494 159.881 132.462 157.826 131.663 157.735C131.663 157.735 132.793 161.522 136.605 161.522Z" fill="#ED704F"/>
<path d="M136.665 157.466C137.298 157.428 138.925 156.306 141.426 157.646C139.076 157.172 137.336 157.94 136.635 157.932C135.935 157.925 134.375 157.059 131.663 157.737C133.433 156.231 136.183 157.488 136.665 157.466Z" fill="#DB663E"/>
<path d="M293.558 87.7754C311.956 87.7754 326.871 72.8727 326.871 54.4893C326.871 36.1058 311.956 21.2031 293.558 21.2031C275.16 21.2031 260.245 36.1058 260.245 54.4893C260.245 72.8727 275.16 87.7754 293.558 87.7754Z" fill="#D0CFEC"/>
<path d="M293.558 89.9741C313.171 89.9741 329.071 74.0873 329.071 54.49C329.071 34.8926 313.171 19.0059 293.558 19.0059C273.945 19.0059 258.045 34.8926 258.045 54.49C258.045 74.0873 273.945 89.9741 293.558 89.9741Z" stroke="#D0CFEC" stroke-miterlimit="10"/>
<path d="M293.558 83.576C309.635 83.576 322.668 70.5538 322.668 54.4901C322.668 38.4265 309.635 25.4043 293.558 25.4043C277.481 25.4043 264.449 38.4265 264.449 54.4901C264.449 70.5538 277.481 83.576 293.558 83.576Z" fill="#FEDAC9"/>
<path d="M281.957 56.6654L292.353 64.0272L308.926 42.4688" stroke="#7BE0AD" stroke-width="7" stroke-linecap="round" stroke-linejoin="round"/>
<defs>
<linearGradient id="paint0_linear_8724_31278" x1="226.781" y1="242.871" x2="185.54" y2="13.6804" gradientUnits="userSpaceOnUse">
<stop stop-color="#FEDAC9" stop-opacity="0.7"/>
<stop offset="0.17" stop-color="#F3CCCC" stop-opacity="0.73"/>
<stop offset="0.44" stop-color="#D5A7D4" stop-opacity="0.8"/>
<stop offset="0.77" stop-color="#A46BE2" stop-opacity="0.91"/>
<stop offset="1" stop-color="#7C3AED"/>
</linearGradient>
</defs>
</svg>
