<svg width="445" height="336" viewBox="0 0 445 336" fill="none" xmlns="http://www.w3.org/2000/svg">
<path d="M381.02 335.673H69.8867L76.605 328.178C77.6727 326.986 78.9808 326.033 80.4436 325.381C81.9064 324.729 83.4907 324.393 85.0927 324.395H381.02V335.673Z" fill="#7C3AED"/>
<path d="M379.654 335.673H155.045L214.747 181.619C215.651 179.284 217.242 177.277 219.31 175.861C221.378 174.445 223.827 173.687 226.335 173.686H439.521C440.297 173.685 441.062 173.872 441.75 174.229C442.438 174.586 443.03 175.104 443.475 175.738C443.921 176.372 444.206 177.103 444.308 177.871C444.41 178.638 444.325 179.419 444.06 180.147L391.35 327.446C390.489 329.854 388.903 331.938 386.809 333.41C384.715 334.883 382.216 335.674 379.654 335.673Z" fill="#7C3AED"/>
<path d="M166.668 324.395L220.198 186.292C221.045 184.107 222.536 182.228 224.473 180.904C226.411 179.581 228.705 178.874 231.053 178.876H430.565C431.289 178.877 432.001 179.051 432.643 179.384C433.285 179.716 433.838 180.198 434.255 180.788C434.671 181.379 434.94 182.06 435.038 182.776C435.135 183.491 435.059 184.219 434.816 184.899L385.479 322.787C385.278 323.339 385.038 323.877 384.76 324.395H166.668Z" fill="#FEFDFF"/>
<path d="M166.668 324.395L220.198 186.292C221.045 184.107 222.536 182.228 224.473 180.904C226.411 179.581 228.705 178.874 231.053 178.876H430.565C431.289 178.877 432.001 179.051 432.643 179.384C433.285 179.716 433.838 180.198 434.255 180.788C434.671 181.379 434.94 182.06 435.038 182.776C435.135 183.491 435.059 184.219 434.816 184.899L385.479 322.787C385.278 323.339 385.038 323.877 384.76 324.395H166.668Z" fill="url(#paint0_linear_8337_39505)"/>
<path d="M285.721 305.608H87.3382C66.2637 305.608 46.0525 297.252 31.1506 282.379C16.2487 267.506 7.87695 247.334 7.87695 226.301C7.87695 205.267 16.2487 185.095 31.1506 170.223C46.0525 155.35 66.2637 146.994 87.3382 146.994H291.62C299.424 146.994 306.909 143.9 312.427 138.392C317.946 132.884 321.046 125.414 321.046 117.625C321.044 109.837 317.943 102.368 312.425 96.8622C306.907 91.3559 299.423 88.2626 291.62 88.2626H32.0167" stroke="#7C3AED" stroke-miterlimit="10" stroke-dasharray="12 12"/>
<path d="M133.618 286.554H263.502V269.425H133.618V286.554Z" fill="#F6AE2D"/>
<path d="M102.385 286.554H161.058V224.98H120.267L102.385 259.719V286.554Z" fill="#7BE0AD"/>
<path d="M102.385 267.372C101.565 267.372 100.17 265.656 100.17 263.546C100.17 261.435 101.565 259.712 102.385 259.712V267.372Z" fill="#F6AE2D"/>
<path d="M155.269 259.001H108.68L123.828 229.941H155.269V259.001Z" fill="white"/>
<path d="M124.561 228.203V261.406" stroke="#7BE0AD" stroke-width="6" stroke-miterlimit="10"/>
<path d="M240.167 300.776C247.398 300.776 253.259 294.926 253.259 287.71C253.259 280.494 247.398 274.644 240.167 274.644C232.937 274.644 227.076 280.494 227.076 287.71C227.076 294.926 232.937 300.776 240.167 300.776Z" fill="#7C3AED"/>
<path d="M240.167 294.832C244.108 294.832 247.302 291.643 247.302 287.71C247.302 283.777 244.108 280.589 240.167 280.589C236.226 280.589 233.031 283.777 233.031 287.71C233.031 291.643 236.226 294.832 240.167 294.832Z" fill="#FEDAC9"/>
<path d="M200.238 300.776C207.468 300.776 213.329 294.926 213.329 287.71C213.329 280.494 207.468 274.644 200.238 274.644C193.008 274.644 187.146 280.494 187.146 287.71C187.146 294.926 193.008 300.776 200.238 300.776Z" fill="#7C3AED"/>
<path d="M200.239 294.832C204.18 294.832 207.374 291.643 207.374 287.71C207.374 283.777 204.18 280.589 200.239 280.589C196.298 280.589 193.104 283.777 193.104 287.71C193.104 291.643 196.298 294.832 200.239 294.832Z" fill="#FEDAC9"/>
<path d="M130.957 300.776C138.187 300.776 144.048 294.926 144.048 287.71C144.048 280.494 138.187 274.644 130.957 274.644C123.726 274.644 117.865 280.494 117.865 287.71C117.865 294.926 123.726 300.776 130.957 300.776Z" fill="#7C3AED"/>
<path d="M130.956 294.832C134.897 294.832 138.091 291.643 138.091 287.71C138.091 283.777 134.897 280.589 130.956 280.589C127.015 280.589 123.82 283.777 123.82 287.71C123.82 291.643 127.015 294.832 130.956 294.832Z" fill="#FEDAC9"/>
<path d="M185.307 269.418H254.957V222.209L220.128 201.009L185.307 222.209V269.418Z" fill="#D0CFEC"/>
<path d="M237.283 212.977L253.69 223.142V193.127H237.283V212.977Z" fill="#F6AE2D"/>
<path d="M240.369 210.536L250.605 217.499V196.931H240.369V210.536Z" stroke="#FEFDFF" stroke-miterlimit="10"/>
<path d="M258.48 224.355L220.127 201.009L181.781 224.355" stroke="#7BE0AD" stroke-width="16" stroke-linecap="round" stroke-linejoin="round"/>
<path d="M222.531 269.418H243.182V239.84H222.531V269.418Z" fill="#FEFDFF"/>
<path d="M214.489 231.85H196.125V250.178H214.489V231.85Z" fill="#FEFDFF"/>
<path d="M205.303 226.732V254.629" stroke="#D0CFEC" stroke-width="3" stroke-miterlimit="10"/>
<path d="M35.864 0.779053V88.7149H30.1096C30.1096 88.7149 0.675781 56.1939 0.675781 30.1556C0.675781 22.3645 3.77683 14.8924 9.29674 9.38325C14.8167 3.87407 22.3033 0.779053 30.1096 0.779053H35.864Z" fill="#7C3AED"/>
<path d="M65.2973 30.1556C65.2973 56.1796 35.8635 88.7149 35.8635 88.7149C35.8635 88.7149 6.42969 56.1939 6.42969 30.1556C6.42969 22.3645 9.53074 14.8924 15.0507 9.38325C20.5706 3.87407 28.0572 0.779053 35.8635 0.779053C43.6698 0.779053 51.1564 3.87407 56.6763 9.38325C62.1963 14.8924 65.2973 22.3645 65.2973 30.1556Z" fill="#D0CFEC"/>
<path d="M30.7277 47.1627V15.2304H19.4922V54.3058H30.7277V47.1627Z" fill="white"/>
<path d="M54.2637 32.1442C52.7008 29.6327 50.6981 27.4223 48.3511 25.6185L47.4232 24.9437H35.9143V28.1814L36.907 28.7414C37.8336 29.2852 38.7035 29.9202 39.5037 30.6366C40.3604 31.3561 41.1197 32.1839 41.7623 33.099C42.4409 34.0278 42.9992 35.0385 43.4239 36.107C43.826 37.2361 44.0281 38.4265 44.0209 39.6248C44.0386 40.8239 43.8362 42.0161 43.4239 43.1425C43.0015 44.2144 42.4431 45.2277 41.7623 46.1577C41.1097 47.0627 40.3515 47.8869 39.5037 48.6129C38.6691 49.3151 37.779 49.9489 36.8422 50.5082L35.8496 51.1184V54.3561H47.416L48.2791 53.6885C50.6491 51.8852 52.676 49.6726 54.2637 47.1556C55.5794 44.9051 56.2697 42.3451 56.2634 39.7396C56.2724 37.077 55.583 34.4585 54.2637 32.1442Z" fill="white"/>
<defs>
<linearGradient id="paint0_linear_8337_39505" x1="204.884" y1="152.378" x2="389.224" y2="346.341" gradientUnits="userSpaceOnUse">
<stop stop-color="#7C3AED"/>
<stop offset="0.09" stop-color="#9A5EE5" stop-opacity="0.93"/>
<stop offset="0.22" stop-color="#BE8BDB" stop-opacity="0.85"/>
<stop offset="0.36" stop-color="#DAAED3" stop-opacity="0.78"/>
<stop offset="0.52" stop-color="#EFC7CD" stop-opacity="0.74"/>
<stop offset="0.71" stop-color="#FAD6CA" stop-opacity="0.71"/>
<stop offset="1" stop-color="#FEDAC9" stop-opacity="0.7"/>
</linearGradient>
</defs>
</svg>
