<svg width="504" height="342" viewBox="0 0 504 342" fill="none" xmlns="http://www.w3.org/2000/svg">
<g clip-path="url(#clip0_8721_30329)">
<path d="M365.747 144.997C369.937 146.052 374.315 146.463 378.319 148.096C382.181 149.684 385.528 152.347 388.734 155.041C393.974 159.452 399.208 164.293 401.757 170.646C404.634 177.797 403.688 185.834 402.735 193.479C399.632 217.913 395.654 245.286 392.551 269.746L232.727 261.94C233.109 227.581 235.956 193.295 241.243 159.342C242.016 154.353 242.988 149.054 246.393 145.344C250.024 141.383 255.637 140.027 260.948 139.197C269.984 137.775 279.144 137.295 288.28 137.763C292.735 137.995 297.228 138.451 301.644 137.763C306.794 136.992 311.596 134.741 316.547 133.095C323.171 130.902 336.193 126.961 342.856 130.645C346.641 132.741 349.428 136.953 353.155 139.39C357.009 141.948 361.265 143.844 365.747 144.997Z" fill="#7BE0AD"/>
<path d="M282.403 44.1356C276.423 48.09 271.968 53.9285 267.971 59.8763C264.714 64.7116 261.649 69.7592 259.899 75.3083C258.86 78.8263 258.187 82.442 257.89 86.0979C255.483 110.731 262.19 135.506 260.42 160.191C260.182 163.509 259.596 167.849 262.422 169.605C271.582 175.276 270.507 152.462 283.066 145.273C283.968 143.306 282.68 143.113 282.68 140.946C282.738 123.064 277.369 105.06 280.749 87.5061C283.15 75.0833 289.761 63.9014 296.919 53.4269C299.14 50.2119 306.62 41.615 299.887 40.0654C293.958 38.7472 287.347 40.8627 282.403 44.1356Z" fill="#332066"/>
<path d="M345.16 149.491C326.872 164.994 301.387 168.022 287.225 163.637C286.171 163.297 285.2 162.742 284.373 162.007C283.546 161.272 282.881 160.372 282.422 159.366C281.962 158.36 281.717 157.27 281.703 156.164C281.689 155.058 281.905 153.961 282.339 152.944C285.763 144.576 286.632 135.383 284.837 126.523C284.682 125.771 325.321 90.0711 328.707 102.732C330.38 109.001 332.73 125.539 334.371 131.963C336.064 138.74 341.176 143.794 345.16 149.491Z" fill="#FEA394"/>
<path d="M289.407 153.382C285.397 153.26 283.562 150.379 284.637 145.537L322.321 127.533C316.662 150.463 298.31 153.678 289.407 153.382Z" fill="#332066"/>
<path d="M265.982 76.7679C265.165 78.6193 264.71 80.6099 264.643 82.6321C264.103 89.3517 264.513 96.1138 265.859 102.719C266.433 104.979 266.802 107.286 266.96 109.612C267.05 113.56 265.673 117.746 267.34 121.322C268.183 123.128 269.709 124.537 271.061 125.977C276.108 131.436 279.069 138.432 282.822 144.849C283.704 146.354 284.701 147.89 286.233 148.707C287.306 149.227 288.485 149.489 289.677 149.472C293.231 149.556 296.694 148.373 299.932 146.9C306.802 143.788 312.997 139.365 318.169 133.879C320.373 131.641 322.232 129.089 323.685 126.305C326.061 121.482 326.557 115.978 327.014 110.622L325.913 65.1681L286.999 57.6836C279.378 63.1041 271.087 67.4572 265.982 76.7679Z" fill="#FEA394"/>
<path d="M304.271 126.446C297.634 135.499 283.485 134.747 282.95 134.638C282.416 134.528 278.657 129.037 278.657 129.037C284.714 130.098 289.413 130.439 302.629 125.501C303.498 125.385 304.135 125.584 304.271 126.446Z" fill="#332066"/>
<path d="M301.599 126.993C295.606 132.041 287.173 134.516 280.575 131.732C280.337 131.636 279.79 130.755 279.635 130.543L278.657 129.173C284.714 130.24 288.956 130.665 302.198 125.727L302.153 126.009C302.071 126.385 301.878 126.728 301.599 126.993Z" fill="white"/>
<path d="M292.13 138.928C294.969 137.796 297.28 135.623 299.333 133.392C300.38 132.273 301.393 131.126 302.372 129.952C303.241 128.923 304.11 127.785 304.271 126.447C297.157 132.344 285.403 137.97 280.388 131.501C282.725 141.989 289.967 139.79 292.13 138.928Z" fill="#ED704F"/>
<path d="M280.942 130.241C281.898 130.425 282.873 130.488 283.845 130.427C285.322 130.389 286.791 130.303 288.255 130.17C289.601 130.066 290.941 129.882 292.265 129.617C295.915 128.858 299.346 127.238 302.629 125.502C298.935 126.711 295.088 127.389 291.203 127.515C290.034 127.513 288.868 127.625 287.72 127.849C286.916 128.048 286.143 128.376 285.326 128.543C283.395 128.936 281.463 128.402 279.564 128.312C278.837 128.28 277.859 128.415 278.657 129.173C279.321 129.709 280.105 130.075 280.942 130.241Z" fill="#DB663E"/>
<path d="M278.258 106.18C278.965 108.042 279.229 110.043 279.03 112.025C278.864 114.031 278.339 115.991 277.479 117.812C277.028 118.597 276.694 119.444 276.487 120.326C276.388 120.727 276.37 121.144 276.433 121.552C276.496 121.96 276.639 122.352 276.854 122.705C277.393 123.417 278.117 123.968 278.946 124.299C279.834 124.672 280.751 124.969 281.689 125.187C280.698 125.219 279.708 125.113 278.747 124.872C277.711 124.636 276.775 124.083 276.069 123.29C275.707 122.851 275.457 122.33 275.342 121.772C275.236 121.232 275.223 120.678 275.303 120.133C275.49 119.115 275.84 118.133 276.339 117.226C276.734 116.395 277.068 115.535 277.337 114.654C277.62 113.756 277.848 112.841 278.019 111.915C278.363 110.023 278.443 108.093 278.258 106.18Z" fill="#332066"/>
<path d="M286.942 123.765C287.019 123.855 286.942 123.97 286.896 124.067C286.849 124.164 286.793 124.256 286.729 124.343C286.596 124.538 286.414 124.696 286.201 124.8C286.064 124.87 285.91 124.899 285.757 124.883C285.58 124.862 285.415 124.783 285.287 124.658C285.165 124.548 285.07 124.412 285.01 124.259C284.949 124.106 284.925 123.941 284.94 123.777C284.975 123.487 285.088 123.211 285.267 122.979C285.446 122.747 285.684 122.568 285.957 122.459C286.391 122.269 286.86 122.17 287.334 122.17C288.138 122.207 288.937 122.315 289.722 122.491C290.45 122.665 291.214 122.595 291.898 122.292C291.705 122.692 291.377 123.011 290.971 123.192C290.564 123.375 290.129 123.486 289.684 123.52C288.808 123.591 288.029 123.443 287.334 123.456C287.015 123.45 286.696 123.489 286.388 123.572C286.177 123.619 285.993 123.746 285.873 123.925C285.852 123.958 285.841 123.996 285.841 124.035C285.841 124.073 285.852 124.111 285.873 124.144C285.873 124.202 285.873 124.247 286.04 124.253C286.209 124.236 286.374 124.186 286.523 124.105L286.768 123.957C286.832 123.9 286.961 123.842 286.942 123.765Z" fill="#332066"/>
<path d="M296.391 108.024C297.902 108.024 299.127 106.801 299.127 105.291C299.127 103.782 297.902 102.559 296.391 102.559C294.881 102.559 293.656 103.782 293.656 105.291C293.656 106.801 294.881 108.024 296.391 108.024Z" fill="#332066"/>
<path d="M303.563 104.963C302.481 104.886 301.477 104.783 300.486 104.738C299.518 104.677 298.546 104.722 297.589 104.873C296.649 105.021 295.748 105.227 294.853 105.426C294.396 105.504 293.971 105.664 293.488 105.722C293.219 105.744 292.949 105.731 292.684 105.684C292.321 105.621 291.967 105.518 291.628 105.375C291.631 105.021 291.712 104.672 291.864 104.352C292.017 104.032 292.237 103.749 292.51 103.523C292.74 103.337 292.996 103.185 293.269 103.073C293.533 102.948 293.804 102.838 294.08 102.745C295.183 102.379 296.347 102.239 297.505 102.334C298.633 102.42 299.748 102.635 300.827 102.977C301.889 103.308 302.876 103.845 303.73 104.558L303.563 104.963Z" fill="#332066"/>
<path d="M271.769 107.413C273.109 107.413 274.196 106.327 274.196 104.989C274.196 103.65 273.109 102.564 271.769 102.564C270.429 102.564 269.342 103.65 269.342 104.989C269.342 106.327 270.429 107.413 271.769 107.413Z" fill="#332066"/>
<path d="M275.168 105.909C274.57 105.53 273.919 105.241 273.237 105.054C272.643 104.891 272.021 104.863 271.415 104.97C270.771 105.073 270.198 105.234 269.548 105.35C269.213 105.421 268.873 105.469 268.531 105.491C267.985 105.419 267.47 105.196 267.044 104.848C267.038 104.556 267.092 104.267 267.203 103.997C267.313 103.727 267.478 103.483 267.688 103.279C267.851 103.136 268.038 103.022 268.241 102.945C268.435 102.844 268.638 102.76 268.846 102.694C269.703 102.401 270.619 102.326 271.511 102.475C272.436 102.61 273.317 102.956 274.086 103.485C274.83 104.005 275.346 104.789 275.528 105.678L275.168 105.909Z" fill="#332066"/>
<path d="M288.049 102.063C288.969 101.883 300.762 99.0538 306.002 99.5361C304 98.0122 301.773 96.4175 299.263 96.5075C297.975 96.5461 290.077 96.5076 286.755 97.98C283.607 99.3818 284.869 102.693 288.049 102.063Z" fill="#332066"/>
<path d="M275.58 98.7899C272.503 97.5682 265.435 97.041 264.379 97.3432C263.323 97.6454 262.448 98.7899 262.802 99.8316C265.287 100.475 273.822 101.947 275.348 102.14C276.803 102.326 277.447 99.5294 275.58 98.7899Z" fill="#332066"/>
<path d="M291.699 74.7751C298.001 76.8713 303.112 78.3245 307.792 83.0248C310.135 85.3782 310.721 213.303 374.431 155.51C377.649 152.578 383.063 152.887 387.305 154.025C383.069 148.624 375.86 146.766 369.834 143.461C365.65 141.161 361.946 138.081 358.923 134.388C351.81 125.669 349.042 114.23 347.516 103.087C345.991 91.9433 345.482 80.5493 342.025 69.8433C338.858 60.0311 334.159 39.6865 314.409 38.6705C305.803 38.2333 297.756 40.7989 291.834 47.0296C287.572 51.5306 281.534 57.8577 279.848 63.9791C278.032 70.5892 287.012 73.2126 291.699 74.7751Z" fill="#332066"/>
<path d="M288.255 43.725C283.716 45.9048 279.706 49.0427 275.94 52.3863C271.286 56.5079 266.864 61.0732 264.115 66.6481C261.366 72.2229 261.933 87.4492 264.411 93.1462C262.293 73.3739 272.818 74.049 279.449 66.5259C283.504 63.9539 282.133 61.6391 284.598 57.5239C286.087 55.1157 287.888 52.9147 289.954 50.9781C291.885 49.152 294.563 47.7052 296.108 45.5833C300.865 39.1083 291.003 42.439 288.255 43.725Z" fill="#332066"/>
<path d="M171.483 258.963L433.389 271.797" stroke="#332066" stroke-miterlimit="10"/>
<path d="M90.1798 216.029L154.771 222.144L134.771 126.601L67.7523 122.318L90.1798 216.029Z" fill="url(#paint0_linear_8721_30329)"/>
<path d="M121.356 138.889C121.864 141.249 124.091 143.294 126.332 143.448C128.572 143.603 129.969 141.809 129.466 139.442C128.964 137.076 126.731 135.031 124.49 134.883C122.25 134.736 120.847 136.549 121.356 138.889Z" stroke="#FEFDFF" stroke-miterlimit="10"/>
<path d="M120.216 149.883L135.434 150.969C134.835 148.14 130.928 145.613 126.724 145.318C122.521 145.022 119.605 147.066 120.216 149.883Z" stroke="#FEFDFF" stroke-miterlimit="10"/>
<path d="M111.069 136.734L95.8446 135.705" stroke="#FEFDFF" stroke-width="2" stroke-miterlimit="10" stroke-linecap="round"/>
<path d="M112.169 141.699L86.356 139.918" stroke="#FEFDFF" stroke-width="2" stroke-miterlimit="10" stroke-linecap="round"/>
<path d="M121.407 154.032L93.8168 152.02" stroke="#FEFDFF" stroke-width="4" stroke-miterlimit="10" stroke-linecap="round"/>
<path d="M134.687 161.986C134.742 162.221 134.865 162.435 135.041 162.6C135.218 162.765 135.44 162.873 135.678 162.912C135.781 162.926 135.886 162.914 135.983 162.876C136.08 162.837 136.165 162.775 136.23 162.693C136.295 162.612 136.337 162.516 136.354 162.413C136.37 162.31 136.359 162.205 136.322 162.108C136.271 161.873 136.149 161.659 135.973 161.495C135.797 161.331 135.576 161.224 135.337 161.189C135.235 161.175 135.131 161.188 135.035 161.226C134.939 161.264 134.855 161.326 134.79 161.406C134.724 161.486 134.681 161.581 134.663 161.683C134.645 161.784 134.653 161.889 134.687 161.986Z" fill="#FEFDFF"/>
<path d="M136.084 168.557C136.137 168.791 136.259 169.004 136.435 169.168C136.61 169.332 136.831 169.44 137.069 169.476C137.171 169.49 137.275 169.478 137.371 169.44C137.467 169.402 137.551 169.339 137.616 169.259C137.681 169.179 137.724 169.083 137.741 168.982C137.758 168.88 137.748 168.776 137.713 168.679C137.661 168.444 137.539 168.231 137.363 168.067C137.187 167.902 136.966 167.795 136.728 167.759C136.625 167.745 136.521 167.758 136.425 167.796C136.33 167.834 136.245 167.896 136.18 167.977C136.116 168.057 136.073 168.152 136.056 168.254C136.039 168.356 136.049 168.46 136.084 168.557Z" fill="#FEFDFF"/>
<path d="M137.481 175.121C137.533 175.356 137.655 175.569 137.831 175.734C138.006 175.898 138.228 176.005 138.466 176.041C138.568 176.056 138.672 176.045 138.768 176.008C138.864 175.97 138.949 175.909 139.014 175.829C139.079 175.749 139.122 175.654 139.139 175.552C139.155 175.451 139.145 175.346 139.11 175.25C139.058 175.014 138.936 174.8 138.76 174.635C138.585 174.469 138.363 174.361 138.125 174.324C138.022 174.31 137.918 174.323 137.822 174.361C137.726 174.399 137.642 174.461 137.577 174.541C137.513 174.621 137.47 174.717 137.453 174.818C137.436 174.92 137.446 175.024 137.481 175.121Z" fill="#FEFDFF"/>
<path d="M138.878 181.687C138.93 181.922 139.052 182.136 139.228 182.301C139.403 182.466 139.625 182.574 139.863 182.612C139.963 182.622 140.064 182.606 140.156 182.566C140.248 182.526 140.329 182.463 140.39 182.383C140.451 182.304 140.491 182.21 140.506 182.11C140.521 182.011 140.51 181.909 140.474 181.815C140.423 181.581 140.302 181.367 140.128 181.202C139.953 181.036 139.733 180.928 139.496 180.889C139.396 180.88 139.295 180.896 139.202 180.936C139.11 180.976 139.03 181.039 138.968 181.119C138.906 181.198 138.866 181.292 138.85 181.391C138.834 181.49 138.844 181.592 138.878 181.687Z" fill="#FEFDFF"/>
<path d="M140.275 188.251C140.327 188.485 140.448 188.699 140.622 188.864C140.796 189.029 141.016 189.138 141.253 189.177C141.697 189.215 141.968 188.862 141.897 188.386C141.845 188.15 141.724 187.936 141.548 187.771C141.372 187.606 141.15 187.497 140.912 187.46C140.448 187.421 140.172 187.756 140.275 188.251Z" fill="#FEFDFF"/>
<path d="M131.43 161.741L85.9312 158.32" stroke="#FEFDFF" stroke-width="2" stroke-miterlimit="10" stroke-linecap="round"/>
<path d="M132.807 168.164L90.0639 164.865" stroke="#FEFDFF" stroke-width="2" stroke-miterlimit="10" stroke-linecap="round"/>
<path d="M134.185 174.588L83.5751 170.576" stroke="#FEFDFF" stroke-width="2" stroke-miterlimit="10" stroke-linecap="round"/>
<path d="M135.563 181.012L97.6792 177.932" stroke="#FEFDFF" stroke-width="2" stroke-miterlimit="10" stroke-linecap="round"/>
<path d="M136.934 187.441L91.8857 183.68" stroke="#FEFDFF" stroke-width="2" stroke-miterlimit="10" stroke-linecap="round"/>
<path d="M145.669 196.804L86.9483 191.73" stroke="#FEFDFF" stroke-width="2" stroke-miterlimit="10" stroke-linecap="round"/>
<path d="M146.525 200.841L104.213 197.131" stroke="#FEFDFF" stroke-width="2" stroke-miterlimit="10" stroke-linecap="round"/>
<path d="M147.375 204.885L94.6794 200.191" stroke="#FEFDFF" stroke-width="2" stroke-miterlimit="10" stroke-linecap="round"/>
<path d="M148.231 208.924L95.6129 204.172" stroke="#FEFDFF" stroke-width="2" stroke-miterlimit="10" stroke-linecap="round"/>
<path d="M149.081 212.97L103.363 208.777" stroke="#FEFDFF" stroke-width="2" stroke-miterlimit="10" stroke-linecap="round"/>
<path d="M149.937 217.014L134.829 215.605" stroke="#FEFDFF" stroke-width="2" stroke-miterlimit="10" stroke-linecap="round"/>
<path d="M22.4339 152.172L87.0191 158.281L67.0249 62.7369L0 58.4609L22.4339 152.172Z" fill="url(#paint1_linear_8721_30329)"/>
<path d="M53.6096 75.0515C54.1182 77.4178 56.3455 79.4561 58.5792 79.6104C60.8129 79.7647 62.2163 77.9708 61.7142 75.6045C61.2121 73.2383 58.9848 71.1935 56.7446 71.0456C54.5044 70.8977 53.0947 72.6917 53.6096 75.0515Z" stroke="#FEFDFF" stroke-miterlimit="10"/>
<path d="M52.4638 86.0218L67.6815 87.1149C67.0828 84.2857 63.1754 81.7523 58.9783 81.4629C54.7812 81.1736 51.8522 83.2119 52.4638 86.0218Z" stroke="#FEFDFF" stroke-miterlimit="10"/>
<path d="M43.3228 72.8706L28.0923 71.8418" stroke="#FEFDFF" stroke-width="2" stroke-miterlimit="10" stroke-linecap="round"/>
<path d="M44.4172 77.8422L18.6102 76.0547" stroke="#FEFDFF" stroke-width="2" stroke-miterlimit="10" stroke-linecap="round"/>
<path d="M53.6611 90.1683L26.0645 88.1621" stroke="#FEFDFF" stroke-width="4" stroke-miterlimit="10" stroke-linecap="round"/>
<path d="M66.9477 98.1282C66.9988 98.3633 67.1204 98.5772 67.2964 98.7415C67.4723 98.9058 67.6943 99.0126 67.9326 99.0476C68.0348 99.0616 68.1389 99.049 68.2348 99.011C68.3307 98.9729 68.4151 98.9108 68.4799 98.8306C68.5446 98.7504 68.5875 98.6548 68.6044 98.5531C68.6213 98.4514 68.6116 98.3471 68.5763 98.2503C68.5239 98.0147 68.4011 97.8005 68.224 97.6363C68.0469 97.4721 67.8241 97.3655 67.5849 97.3308C67.4832 97.3181 67.3799 97.3316 67.285 97.3702C67.19 97.4088 67.1065 97.471 67.0426 97.5511C66.9786 97.6311 66.9363 97.7262 66.9197 97.8272C66.903 97.9283 66.9127 98.0319 66.9477 98.1282Z" fill="#FEFDFF"/>
<path d="M68.3381 104.693C68.3897 104.929 68.5114 105.143 68.6871 105.309C68.8629 105.474 69.0845 105.582 69.323 105.619C69.4252 105.633 69.5293 105.621 69.6252 105.583C69.7211 105.545 69.8055 105.483 69.8703 105.402C69.9351 105.322 69.978 105.227 69.9949 105.125C70.0118 105.023 70.0021 104.919 69.9667 104.822C69.9151 104.587 69.7935 104.372 69.6177 104.207C69.442 104.042 69.2203 103.933 68.9818 103.896C68.8796 103.882 68.7755 103.895 68.6796 103.933C68.5837 103.971 68.4993 104.033 68.4345 104.113C68.3698 104.193 68.3269 104.289 68.31 104.391C68.2931 104.492 68.3028 104.597 68.3381 104.693Z" fill="#FEFDFF"/>
<path d="M69.735 111.24C69.7862 111.475 69.9069 111.688 70.0814 111.853C70.2559 112.019 70.4762 112.127 70.7135 112.166C70.8157 112.18 70.9198 112.167 71.0157 112.129C71.1116 112.091 71.196 112.029 71.2608 111.949C71.3255 111.869 71.3684 111.773 71.3853 111.671C71.4022 111.57 71.3925 111.465 71.3572 111.369C71.3044 111.134 71.1823 110.921 71.0066 110.757C70.8309 110.593 70.6099 110.486 70.3723 110.449C70.2709 110.435 70.1675 110.447 70.0723 110.485C69.9772 110.523 69.8934 110.584 69.8292 110.664C69.765 110.744 69.7226 110.839 69.706 110.94C69.6895 111.04 69.6995 111.144 69.735 111.24Z" fill="#FEFDFF"/>
<path d="M71.1254 117.823C71.177 118.058 71.2987 118.273 71.4745 118.438C71.6502 118.603 71.8719 118.712 72.1103 118.749C72.5545 118.787 72.8249 118.434 72.7541 117.958C72.7025 117.722 72.5808 117.508 72.405 117.343C72.2293 117.178 72.0076 117.069 71.7692 117.032C71.6673 117.017 71.5631 117.028 71.467 117.065C71.3709 117.102 71.2861 117.164 71.2211 117.244C71.1561 117.324 71.1131 117.419 71.0963 117.521C71.0795 117.622 71.0896 117.726 71.1254 117.823Z" fill="#FEFDFF"/>
<path d="M72.5223 124.396C72.5764 124.63 72.6988 124.843 72.8741 125.008C73.0494 125.173 73.2698 125.282 73.5072 125.322C73.6099 125.338 73.715 125.326 73.8119 125.289C73.9088 125.251 73.9942 125.189 74.0594 125.108C74.1246 125.028 74.1674 124.931 74.1835 124.829C74.1996 124.726 74.1883 124.621 74.151 124.524C74.099 124.29 73.978 124.077 73.8036 123.912C73.6293 123.747 73.4095 123.638 73.1725 123.598C73.0698 123.583 72.9649 123.595 72.868 123.632C72.7712 123.67 72.6858 123.732 72.6202 123.812C72.5547 123.893 72.5111 123.989 72.494 124.091C72.4768 124.193 72.4866 124.298 72.5223 124.396Z" fill="#FEFDFF"/>
<path d="M63.684 97.8837L18.1789 94.4629" stroke="#FEFDFF" stroke-width="2" stroke-miterlimit="10" stroke-linecap="round"/>
<path d="M65.0615 104.307L22.3116 101.002" stroke="#FEFDFF" stroke-width="2" stroke-miterlimit="10" stroke-linecap="round"/>
<path d="M66.4327 110.731L15.8228 106.719" stroke="#FEFDFF" stroke-width="2" stroke-miterlimit="10" stroke-linecap="round"/>
<path d="M67.8102 117.154L29.9333 114.074" stroke="#FEFDFF" stroke-width="2" stroke-miterlimit="10" stroke-linecap="round"/>
<path d="M69.1878 123.578L24.1398 119.816" stroke="#FEFDFF" stroke-width="2" stroke-miterlimit="10" stroke-linecap="round"/>
<path d="M77.9232 132.94L19.2024 127.867" stroke="#FEFDFF" stroke-width="2" stroke-miterlimit="10" stroke-linecap="round"/>
<path d="M78.7729 136.986L36.4672 133.275" stroke="#FEFDFF" stroke-width="2" stroke-miterlimit="10" stroke-linecap="round"/>
<path d="M79.6291 141.023L26.9271 136.336" stroke="#FEFDFF" stroke-width="2" stroke-miterlimit="10" stroke-linecap="round"/>
<path d="M80.4788 145.067L27.867 140.309" stroke="#FEFDFF" stroke-width="2" stroke-miterlimit="10" stroke-linecap="round"/>
<path d="M81.335 149.113L35.6174 144.914" stroke="#FEFDFF" stroke-width="2" stroke-miterlimit="10" stroke-linecap="round"/>
<path d="M82.1847 153.15L67.0828 151.742" stroke="#FEFDFF" stroke-width="2" stroke-miterlimit="10" stroke-linecap="round"/>
<path d="M144.279 211.162L208.864 217.277L188.87 121.727L121.845 117.451L144.279 211.162Z" fill="url(#paint2_linear_8721_30329)"/>
<path d="M175.454 134.047C175.963 136.407 178.19 138.445 180.43 138.599C182.671 138.754 184.067 136.966 183.565 134.594C183.063 132.221 180.83 130.189 178.589 130.035C176.349 129.88 174.939 131.681 175.454 134.047Z" stroke="#FEFDFF" stroke-miterlimit="10"/>
<path d="M174.315 145.016L189.526 146.102C188.934 143.273 185.02 140.746 180.823 140.45C176.626 140.155 173.697 142.199 174.315 145.016Z" stroke="#FEFDFF" stroke-miterlimit="10"/>
<path d="M165.168 131.861L149.943 130.832" stroke="#FEFDFF" stroke-width="2" stroke-miterlimit="10" stroke-linecap="round"/>
<path d="M166.268 136.831L140.455 135.043" stroke="#FEFDFF" stroke-width="2" stroke-miterlimit="10" stroke-linecap="round"/>
<path d="M175.506 149.163L147.916 147.15" stroke="#FEFDFF" stroke-width="4" stroke-miterlimit="10" stroke-linecap="round"/>
<path d="M188.786 157.118C188.838 157.354 188.961 157.568 189.138 157.732C189.315 157.897 189.538 158.003 189.777 158.038C190.221 158.076 190.498 157.716 190.421 157.24C190.37 157.005 190.248 156.791 190.072 156.627C189.896 156.463 189.674 156.356 189.436 156.321C189.333 156.306 189.229 156.317 189.132 156.355C189.035 156.392 188.949 156.454 188.884 156.535C188.818 156.615 188.775 156.711 188.758 156.814C188.74 156.916 188.75 157.021 188.786 157.118Z" fill="#FEFDFF"/>
<path d="M190.183 163.682C190.237 163.92 190.361 164.136 190.541 164.301C190.72 164.466 190.945 164.573 191.187 164.608C191.289 164.622 191.393 164.609 191.489 164.571C191.585 164.533 191.67 164.471 191.734 164.391C191.799 164.31 191.842 164.215 191.859 164.113C191.876 164.012 191.866 163.907 191.831 163.81C191.776 163.575 191.653 163.361 191.476 163.197C191.3 163.032 191.078 162.923 190.839 162.885C190.736 162.868 190.631 162.879 190.533 162.916C190.435 162.953 190.349 163.014 190.282 163.095C190.216 163.176 190.172 163.272 190.154 163.375C190.137 163.478 190.147 163.584 190.183 163.682Z" fill="#FEFDFF"/>
<path d="M191.58 170.247C191.631 170.482 191.753 170.697 191.929 170.862C192.105 171.027 192.326 171.135 192.565 171.173C192.667 171.187 192.771 171.174 192.867 171.136C192.963 171.098 193.047 171.036 193.112 170.956C193.177 170.875 193.22 170.78 193.236 170.678C193.253 170.576 193.244 170.472 193.208 170.375C193.156 170.141 193.035 169.927 192.859 169.763C192.683 169.599 192.461 169.492 192.223 169.456C192.122 169.44 192.017 169.452 191.921 169.489C191.825 169.526 191.74 169.588 191.675 169.668C191.61 169.747 191.567 169.843 191.551 169.945C191.534 170.046 191.544 170.15 191.58 170.247Z" fill="#FEFDFF"/>
<path d="M192.977 176.826C193.029 177.06 193.15 177.272 193.325 177.436C193.499 177.6 193.719 177.708 193.955 177.746C194.399 177.784 194.676 177.431 194.599 176.955C194.548 176.72 194.427 176.506 194.252 176.341C194.078 176.176 193.858 176.067 193.62 176.029C193.518 176.015 193.414 176.028 193.318 176.066C193.222 176.104 193.138 176.166 193.073 176.246C193.008 176.326 192.965 176.422 192.949 176.523C192.932 176.625 192.941 176.729 192.977 176.826Z" fill="#FEFDFF"/>
<path d="M194.406 183.385C194.458 183.619 194.579 183.833 194.753 183.998C194.927 184.163 195.147 184.272 195.384 184.311C195.822 184.35 196.099 183.989 196.028 183.514C195.966 183.276 195.833 183.063 195.646 182.902C195.46 182.741 195.23 182.641 194.985 182.613C194.891 182.611 194.797 182.631 194.712 182.672C194.627 182.713 194.553 182.774 194.496 182.85C194.439 182.925 194.402 183.013 194.386 183.107C194.37 183.2 194.377 183.295 194.406 183.385Z" fill="#FEFDFF"/>
<path d="M185.529 156.874L140.03 153.453" stroke="#FEFDFF" stroke-width="2" stroke-miterlimit="10" stroke-linecap="round"/>
<path d="M186.906 163.297L144.156 159.998" stroke="#FEFDFF" stroke-width="2" stroke-miterlimit="10" stroke-linecap="round"/>
<path d="M188.284 169.721L137.668 165.709" stroke="#FEFDFF" stroke-width="2" stroke-miterlimit="10" stroke-linecap="round"/>
<path d="M189.655 176.144L151.778 173.064" stroke="#FEFDFF" stroke-width="2" stroke-miterlimit="10" stroke-linecap="round"/>
<path d="M191.033 182.568L145.984 178.807" stroke="#FEFDFF" stroke-width="2" stroke-miterlimit="10" stroke-linecap="round"/>
<path d="M199.768 191.93L141.047 186.863" stroke="#FEFDFF" stroke-width="2" stroke-miterlimit="10" stroke-linecap="round"/>
<path d="M200.624 195.974L158.312 192.264" stroke="#FEFDFF" stroke-width="2" stroke-miterlimit="10" stroke-linecap="round"/>
<path d="M201.474 200.018L148.772 195.324" stroke="#FEFDFF" stroke-width="2" stroke-miterlimit="10" stroke-linecap="round"/>
<path d="M202.33 204.056L149.712 199.305" stroke="#FEFDFF" stroke-width="2" stroke-miterlimit="10" stroke-linecap="round"/>
<path d="M203.18 208.101L157.462 203.908" stroke="#FEFDFF" stroke-width="2" stroke-miterlimit="10" stroke-linecap="round"/>
<path d="M204.036 212.14L188.928 210.738" stroke="#FEFDFF" stroke-width="2" stroke-miterlimit="10" stroke-linecap="round"/>
<path d="M188.052 133.461C198.291 133.461 206.591 125.17 206.591 114.942C206.591 104.715 198.291 96.4238 188.052 96.4238C177.813 96.4238 169.513 104.715 169.513 114.942C169.513 125.17 177.813 133.461 188.052 133.461Z" fill="#7C3AED"/>
<path d="M188.052 134.683C198.967 134.683 207.815 125.845 207.815 114.943C207.815 104.041 198.967 95.2031 188.052 95.2031C177.138 95.2031 168.29 104.041 168.29 114.943C168.29 125.845 177.138 134.683 188.052 134.683Z" stroke="#7C3AED" stroke-miterlimit="10"/>
<path d="M188.052 131.127C197.001 131.127 204.255 123.881 204.255 114.942C204.255 106.004 197.001 98.7578 188.052 98.7578C179.104 98.7578 171.849 106.004 171.849 114.942C171.849 123.881 179.104 131.127 188.052 131.127Z" fill="#FEDAC9"/>
<path d="M181.596 116.152L187.376 120.248L196.601 108.256" stroke="#7BE0AD" stroke-width="3" stroke-linecap="round" stroke-linejoin="round"/>
<path d="M199.388 311.857C197.995 312.274 196.515 312.314 195.101 311.973L164.846 304.179L265.634 281.295L265.666 285.937C265.669 286.2 265.591 286.458 265.442 286.675C265.294 286.893 265.082 287.059 264.836 287.153L199.388 311.857Z" fill="#332066"/>
<path d="M198.191 305.266C197.133 305.642 195.978 305.642 194.921 305.266L164.665 294.219C164.523 294.155 164.408 294.042 164.343 293.9C164.278 293.758 164.267 293.597 164.311 293.448L172.345 266.371C172.39 266.221 172.488 266.093 172.621 266.01C172.753 265.927 172.912 265.895 173.066 265.921L265.081 280.652C265.22 280.674 265.348 280.742 265.445 280.845C265.543 280.948 265.603 281.079 265.618 281.22C265.632 281.36 265.6 281.502 265.526 281.622C265.453 281.743 265.341 281.835 265.209 281.886L198.191 305.266Z" fill="#D0CFEC"/>
<path d="M236.171 159.858C232.399 166.622 229.09 173.791 228.053 181.475C227.706 184.047 227.937 186.844 226.888 189.243C217.232 211.394 217.741 221.599 217.194 223.586C214.072 234.896 194.766 231.501 186.868 250.328C186.127 252.103 186.121 253.897 186.127 255.8C191.058 249.891 198.918 248.727 205.871 251.125C212.591 253.82 217.567 259.697 221.069 266.03C221.069 266.03 248.241 261.214 249.058 255.498C249.901 249.544 250.346 231.81 250.095 225.797C249.489 210.854 245.196 194.29 250.738 180.434C253.313 174.004 253.648 169.297 256.229 162.854C258.444 157.324 255.637 141.127 255.637 141.127C247.912 141.519 242.338 149.235 238.791 155.273C237.922 156.778 237.033 158.302 236.171 159.858Z" fill="#7BE0AD"/>
<path d="M249.058 255.496C246.284 232.882 229.843 229.474 219.447 225.59C225.24 225.59 236.911 229.448 244.372 236.135C243.799 229.615 231.883 225.436 229.894 223.584C235.044 225.391 242.537 228.342 246.258 232.882C249.979 237.421 249.058 255.496 249.058 255.496Z" fill="#332066"/>
<path d="M199.298 249.851L192.532 253.709L179.471 262.769C175.577 267.741 173.111 273.678 172.339 279.944C172.339 282.2 174.585 282.753 176.105 281.358C175.376 283.482 174.896 285.683 174.675 287.917C174.251 291.428 179.574 293.144 180.469 288.245C179.285 294.488 184.331 294.848 186.263 290.592C185.754 293.247 190.247 295.607 192.198 289.576C193.672 285.03 195.088 279.834 198.255 274.851C200.547 271.25 203.637 269.945 207.338 268.421L205.446 273.475C203.231 281.474 210.196 284.67 211.471 279.468L216.621 267.932C217.541 264.531 217.322 260.859 216.563 258.853C216.531 258.827 209.334 249.44 199.298 249.851Z" fill="#FEA394"/>
<path d="M196.736 248.912C186.198 248.526 186.147 255.528 186.147 255.528C186.12 256.34 186.216 257.15 186.43 257.933L196.208 251.683C196.792 251.309 197.452 251.068 198.139 250.976C205.407 250.031 211.246 253.548 215.301 257.56C216.082 258.345 216.601 259.351 216.788 260.441C217.104 262.235 217.297 263.707 216.73 267.218C217.104 267.816 220.451 267.906 221.043 266.022C221.725 260.338 213.75 249.542 196.736 248.912Z" fill="#332066"/>
<path d="M176.105 281.359C176.105 281.359 177.823 274.286 179.214 272.119C180.166 270.81 181.204 269.567 182.323 268.396" stroke="#332066" stroke-miterlimit="10"/>
<path d="M180.45 288.245C180.45 288.245 182.555 279.243 183.894 276.671C185.136 274.545 186.518 272.504 188.033 270.562" stroke="#332066" stroke-miterlimit="10"/>
<path d="M186.243 290.593C186.243 290.593 188.516 281.031 189.906 278.086C191.045 275.994 192.354 273.998 193.82 272.119" stroke="#332066" stroke-miterlimit="10"/>
<path d="M192.552 311.998L67.7459 282.922C67.2407 282.803 66.7748 282.556 66.3936 282.205C66.0123 281.853 65.7286 281.409 65.5701 280.916L33.6541 180.935C33.5073 180.472 33.4755 179.979 33.5614 179.5C33.6473 179.022 33.8484 178.571 34.1473 178.187C34.4462 177.803 34.834 177.497 35.2774 177.296C35.7207 177.095 36.2063 177.004 36.6925 177.032L165.715 185.218C166.36 185.258 166.976 185.506 167.469 185.924C167.962 186.343 168.306 186.909 168.451 187.539L196.131 308.423C196.24 308.915 196.224 309.427 196.083 309.911C195.942 310.395 195.681 310.836 195.324 311.192C194.967 311.549 194.526 311.809 194.041 311.95C193.557 312.091 193.044 312.108 192.552 311.998Z" fill="#7C3AED"/>
<path d="M116.367 235.693C118.388 241.802 116.489 246.56 112.504 246.689C108.771 246.811 104.2 242.792 101.96 237.429C99.5782 231.713 100.499 226.113 104.419 225.212C108.642 224.254 114.191 229.122 116.367 235.693Z" fill="white"/>
<path d="M108.404 239.196L107.708 236.785L107.239 235.126L106.653 233.081L106.144 231.3L104.001 230.959L106.717 240.688L108.906 240.964L108.404 239.196Z" fill="#7C3AED"/>
<path d="M111.861 236.137C111.391 235.492 110.851 234.901 110.251 234.375L110.026 234.182L107.824 233.848L108.056 234.645L108.281 234.812C108.506 234.979 108.721 235.16 108.925 235.352C109.155 235.551 109.37 235.766 109.569 235.995C109.766 236.243 109.945 236.505 110.103 236.78C110.26 237.059 110.385 237.354 110.476 237.661C110.56 237.936 110.606 238.222 110.612 238.509C110.609 238.744 110.574 238.978 110.509 239.204C110.452 239.4 110.363 239.584 110.245 239.75C110.135 239.898 110.007 240.032 109.865 240.149L109.717 240.278L109.949 241.075L112.195 241.364L112.318 241.216C112.662 240.801 112.897 240.306 113 239.776C113.086 239.185 113.033 238.582 112.845 238.014C112.62 237.34 112.287 236.706 111.861 236.137Z" fill="#7C3AED"/>
<path d="M315.632 279.52L386.507 292.572L289.104 342L217.213 320.775L315.632 279.52Z" fill="#FEDAC9"/>
<path d="M296.694 331.738L266.072 323.244" stroke="white" stroke-width="3" stroke-miterlimit="10" stroke-linecap="round"/>
<path d="M307.161 326.536L252.541 312.023" stroke="white" stroke-width="3" stroke-miterlimit="10" stroke-linecap="round"/>
<path d="M323.995 318.164L290.237 309.844" stroke="white" stroke-width="3" stroke-miterlimit="10" stroke-linecap="round"/>
<path d="M333.663 313.355L281.85 301.15" stroke="white" stroke-width="3" stroke-miterlimit="10" stroke-linecap="round"/>
<path d="M343.332 308.552L306.421 300.264" stroke="white" stroke-width="3" stroke-miterlimit="10" stroke-linecap="round"/>
<path d="M353.001 303.741L304.934 293.479" stroke="white" stroke-width="3" stroke-miterlimit="10" stroke-linecap="round"/>
<path d="M362.663 298.932L311.075 288.496" stroke="white" stroke-width="3" stroke-miterlimit="10" stroke-linecap="round"/>
<path d="M364.35 260.415C340.532 262.505 318.207 258.454 302.436 251.497L377.681 199.33C400.353 205.117 433.409 204.808 463.265 201.079L364.35 260.415Z" fill="#FEDAC9"/>
<path d="M363.243 257.844L370.967 259.175C373.433 259.606 375.905 260.03 378.402 260.249C379.69 260.365 380.977 260.423 382.316 260.48L384.428 260.57L389.655 260.802C391.65 260.892 393.903 260.886 395.307 259.471C395.628 259.077 395.981 258.709 396.362 258.371C396.815 258.117 397.284 257.891 397.766 257.696C398.288 257.38 398.736 256.955 399.078 256.45C399.42 255.945 399.649 255.372 399.748 254.771C399.925 253.564 399.925 252.338 399.748 251.131C400.216 251.173 400.687 251.093 401.114 250.9C401.542 250.706 401.912 250.404 402.188 250.025C402.729 249.256 403.096 248.378 403.263 247.453C403.791 245.17 403.945 242.816 403.72 240.483L404.782 235.898L388.528 244.984C382.175 245.871 375.493 244.54 369.133 245.543C367.337 245.826 363.506 247.17 363.667 248.803C360.513 249.138 360.275 251.375 360.648 252.61C359.799 252.398 355.801 256.918 363.243 257.844Z" fill="#FEA394"/>
<path d="M403.765 240.483L404.827 235.898L388.528 244.984C393.305 244.984 400.019 245.171 403.92 241.885C403.92 241.859 404.119 241.621 403.765 240.483Z" fill="#332066"/>
<path d="M360.648 252.578L378.171 255.022L386.603 256.603" stroke="#332066" stroke-miterlimit="10"/>
<path d="M363.674 248.777L382.426 250.623L391.148 252.063" stroke="#332066" stroke-miterlimit="10"/>
<path d="M407.158 239.627C403.199 242.804 399.375 244.212 398.403 242.842C397.431 241.473 398.969 238.791 401.274 237.177C402.561 236.258 404.782 234.432 405.947 234.432C407.557 234.419 409.353 237.865 407.158 239.627Z" fill="#FEA394"/>
<path d="M426.862 138.574H417.85V185.314H426.862V138.574Z" fill="#F6AE2D"/>
<path d="M414.573 150.746H405.561V185.314H414.573V150.746Z" fill="#F6AE2D"/>
<path d="M402.285 162.66H393.272V185.313H402.285V162.66Z" fill="#F6AE2D"/>
<path d="M390.054 186.824H430.087" stroke="#7C3AED" stroke-miterlimit="10"/>
<path d="M113.605 70.5944L118.665 63.3027L109.949 64.9938L104.889 72.2855L113.605 70.5944Z" fill="#D0CFEC"/>
<path opacity="0.6" d="M113.605 70.5944L118.665 63.3027L109.949 64.9938L104.889 72.2855L113.605 70.5944Z" fill="#FFFEFD"/>
<path d="M119.798 80.0722L124.857 72.7806L118.665 63.3027L113.605 70.5944L119.798 80.0722Z" fill="#D0CFEC"/>
<path d="M119.798 80.0736L111.082 81.7647L104.889 72.2868L113.605 70.5957L119.798 80.0736Z" fill="#D0CFEC"/>
<path opacity="0.1" d="M119.798 80.0736L111.082 81.7647L104.889 72.2868L113.605 70.5957L119.798 80.0736Z" fill="#332066"/>
<path d="M377.276 27.4571L382.336 20.1719L373.619 21.863L368.553 29.1546L377.276 27.4571Z" fill="#D0CFEC"/>
<path opacity="0.6" d="M377.276 27.4571L382.336 20.1719L373.619 21.863L368.553 29.1546L377.276 27.4571Z" fill="#FFFEFD"/>
<path d="M383.468 36.9414L388.528 29.6497L382.335 20.1719L377.276 27.4571L383.468 36.9414Z" fill="#D0CFEC"/>
<path d="M383.468 36.9413L374.746 38.6324L368.553 29.1546L377.276 27.457L383.468 36.9413Z" fill="#D0CFEC"/>
<path opacity="0.1" d="M383.468 36.9413L374.746 38.6324L368.553 29.1546L377.276 27.457L383.468 36.9413Z" fill="#332066"/>
<path d="M478.09 149.568L483.15 142.283L474.434 143.974L469.374 151.266L478.09 149.568Z" fill="#D0CFEC"/>
<path opacity="0.6" d="M478.09 149.568L483.15 142.283L474.434 143.974L469.374 151.266L478.09 149.568Z" fill="#FFFEFD"/>
<path d="M484.283 159.046L489.342 151.761L483.15 142.283L478.09 149.568L484.283 159.046Z" fill="#D0CFEC"/>
<path d="M484.283 159.046L475.567 160.744L469.374 151.266L478.09 149.568L484.283 159.046Z" fill="#D0CFEC"/>
<path opacity="0.1" d="M484.283 159.046L475.567 160.744L469.374 151.266L478.09 149.568L484.283 159.046Z" fill="#332066"/>
<path d="M101.657 28.0097C102.752 28.0097 103.64 27.123 103.64 26.0293C103.64 24.9355 102.752 24.0488 101.657 24.0488C100.562 24.0488 99.6748 24.9355 99.6748 26.0293C99.6748 27.123 100.562 28.0097 101.657 28.0097Z" fill="#7C3AED"/>
<path d="M88.5769 31.874C89.3768 31.874 90.0253 31.2262 90.0253 30.4272C90.0253 29.6282 89.3768 28.9805 88.5769 28.9805C87.777 28.9805 87.1285 29.6282 87.1285 30.4272C87.1285 31.2262 87.777 31.874 88.5769 31.874Z" fill="#7C3AED"/>
<path d="M94.8211 43.5572C96.4778 43.5572 97.8208 42.2157 97.8208 40.5608C97.8208 38.906 96.4778 37.5645 94.8211 37.5645C93.1643 37.5645 91.8213 38.906 91.8213 40.5608C91.8213 42.2157 93.1643 43.5572 94.8211 43.5572Z" fill="#7C3AED"/>
<path d="M381.589 103.002C382.684 103.002 383.571 102.115 383.571 101.021C383.571 99.9277 382.684 99.041 381.589 99.041C380.494 99.041 379.606 99.9277 379.606 101.021C379.606 102.115 380.494 103.002 381.589 103.002Z" fill="#D0CFEC"/>
<path d="M469.258 38.914C470.353 38.914 471.241 38.0273 471.241 36.9336C471.241 35.8398 470.353 34.9531 469.258 34.9531C468.163 34.9531 467.275 35.8398 467.275 36.9336C467.275 38.0273 468.163 38.914 469.258 38.914Z" fill="#D0CFEC"/>
<path d="M392.828 110.474C393.628 110.474 394.277 109.826 394.277 109.027C394.277 108.228 393.628 107.58 392.828 107.58C392.028 107.58 391.38 108.228 391.38 109.027C391.38 109.826 392.028 110.474 392.828 110.474Z" fill="#D0CFEC"/>
<path d="M387.279 2.89351C388.079 2.89351 388.728 2.24578 388.728 1.44675C388.728 0.647734 388.079 0 387.279 0C386.479 0 385.831 0.647734 385.831 1.44675C385.831 2.24578 386.479 2.89351 387.279 2.89351Z" fill="#7C3AED"/>
<path d="M397.379 101.028C399.036 101.028 400.379 99.6864 400.379 98.0315C400.379 96.3767 399.036 95.0352 397.379 95.0352C395.723 95.0352 394.38 96.3767 394.38 98.0315C394.38 99.6864 395.723 101.028 397.379 101.028Z" fill="#D0CFEC"/>
<path d="M466.258 18.1705C467.915 18.1705 469.258 16.829 469.258 15.1741C469.258 13.5193 467.915 12.1777 466.258 12.1777C464.602 12.1777 463.259 13.5193 463.259 15.1741C463.259 16.829 464.602 18.1705 466.258 18.1705Z" fill="#D0CFEC"/>
<path d="M361.382 66.1393C363.039 66.1393 364.382 64.7977 364.382 63.1429C364.382 61.488 363.039 60.1465 361.382 60.1465C359.725 60.1465 358.382 61.488 358.382 63.1429C358.382 64.7977 359.725 66.1393 361.382 66.1393Z" fill="#7C3AED"/>
<path d="M152.068 96.3346C153.724 96.3346 155.068 94.993 155.068 93.3382C155.068 91.6833 153.724 90.3418 152.068 90.3418C150.411 90.3418 149.068 91.6833 149.068 93.3382C149.068 94.993 150.411 96.3346 152.068 96.3346Z" fill="#7C3AED"/>
<path d="M502.017 123.816C503.112 123.816 504 122.93 504 121.836C504 120.742 503.112 119.855 502.017 119.855C500.922 119.855 500.035 120.742 500.035 121.836C500.035 122.93 500.922 123.816 502.017 123.816Z" fill="#7C3AED"/>
<path d="M447.268 125.791C448.363 125.791 449.251 124.904 449.251 123.811C449.251 122.717 448.363 121.83 447.268 121.83C446.173 121.83 445.286 122.717 445.286 123.811C445.286 124.904 446.173 125.791 447.268 125.791Z" fill="#7C3AED"/>
<path d="M499.063 171.565C500.719 171.565 502.062 170.224 502.062 168.569C502.062 166.914 500.719 165.572 499.063 165.572C497.406 165.572 496.063 166.914 496.063 168.569C496.063 170.224 497.406 171.565 499.063 171.565Z" fill="#7C3AED"/>
<path d="M209.018 63.4062C210.113 63.4062 211.001 62.5195 211.001 61.4258C211.001 60.332 210.113 59.4453 209.018 59.4453C207.923 59.4453 207.036 60.332 207.036 61.4258C207.036 62.5195 207.923 63.4062 209.018 63.4062Z" fill="#D0CFEC"/>
<path d="M202.587 52.0185C203.387 52.0185 204.036 51.3708 204.036 50.5718C204.036 49.7727 203.387 49.125 202.587 49.125C201.788 49.125 201.139 49.7727 201.139 50.5718C201.139 51.3708 201.788 52.0185 202.587 52.0185Z" fill="#D0CFEC"/>
<path d="M200.502 66.235C202.159 66.235 203.502 64.8934 203.502 63.2386C203.502 61.5837 202.159 60.2422 200.502 60.2422C198.845 60.2422 197.502 61.5837 197.502 63.2386C197.502 64.8934 198.845 66.235 200.502 66.235Z" fill="#D0CFEC"/>
</g>
<defs>
<linearGradient id="paint0_linear_8721_30329" x1="113.264" y1="218.299" x2="108.594" y2="110.77" gradientUnits="userSpaceOnUse">
<stop stop-color="#FEDAC9" stop-opacity="0.7"/>
<stop offset="0.19" stop-color="#F9D3CA" stop-opacity="0.71"/>
<stop offset="0.38" stop-color="#E9C0CF" stop-opacity="0.75"/>
<stop offset="0.57" stop-color="#CE9ED6" stop-opacity="0.81"/>
<stop offset="0.75" stop-color="#A870E1" stop-opacity="0.9"/>
<stop offset="0.93" stop-color="#7C3AED"/>
</linearGradient>
<linearGradient id="paint1_linear_8721_30329" x1="76.6615" y1="187.351" x2="19.1984" y2="43.2608" gradientUnits="userSpaceOnUse">
<stop stop-color="#FEDAC9" stop-opacity="0.7"/>
<stop offset="0.17" stop-color="#F3CCCC" stop-opacity="0.73"/>
<stop offset="0.44" stop-color="#D5A7D4" stop-opacity="0.8"/>
<stop offset="0.77" stop-color="#A46BE2" stop-opacity="0.91"/>
<stop offset="1" stop-color="#7C3AED"/>
</linearGradient>
<linearGradient id="paint2_linear_8721_30329" x1="147.027" y1="84.6323" x2="181.207" y2="228.341" gradientUnits="userSpaceOnUse">
<stop offset="0.05" stop-color="#7C3AED"/>
<stop offset="0.19" stop-color="#9B60E4" stop-opacity="0.93"/>
<stop offset="0.41" stop-color="#C695D9" stop-opacity="0.83"/>
<stop offset="0.62" stop-color="#E5BBD0" stop-opacity="0.76"/>
<stop offset="0.82" stop-color="#F8D2CB" stop-opacity="0.71"/>
<stop offset="1" stop-color="#FEDAC9" stop-opacity="0.7"/>
</linearGradient>
<clipPath id="clip0_8721_30329">
<rect width="504" height="342" fill="white"/>
</clipPath>
</defs>
</svg>
