<svg width="134" height="146" viewBox="0 0 134 146" fill="none" xmlns="http://www.w3.org/2000/svg">
<path d="M84.7852 97.1081L94.8041 107.099" stroke="#FEDAC9" stroke-width="9" stroke-miterlimit="10"/>
<path d="M131.722 143.091C131.005 143.807 130.153 144.375 129.215 144.762C128.278 145.15 127.273 145.349 126.258 145.349C125.243 145.349 124.238 145.15 123.3 144.762C122.362 144.375 121.511 143.807 120.793 143.091L88.9473 112.149L99.8763 101.289L131.722 132.231C133.161 133.674 133.968 135.626 133.968 137.661C133.968 139.695 133.161 141.647 131.722 143.091Z" fill="#7C3AED"/>
<path d="M51.6175 115.5C80.1218 115.5 103.229 92.4577 103.229 64.0336C103.229 35.6095 80.1218 12.5672 51.6175 12.5672C23.1132 12.5672 0.00585938 35.6095 0.00585938 64.0336C0.00585938 92.4577 23.1132 115.5 51.6175 115.5Z" fill="#D0CFEC"/>
<path d="M51.6185 103.182C73.3006 103.182 90.8775 85.6545 90.8775 64.0333C90.8775 42.4121 73.3006 24.8847 51.6185 24.8847C29.9363 24.8847 12.3594 42.4121 12.3594 64.0333C12.3594 85.6545 29.9363 103.182 51.6185 103.182Z" fill="#FEDAC9"/>
<path opacity="0.5" d="M51.6185 103.182C73.3006 103.182 90.8775 85.6545 90.8775 64.0333C90.8775 42.4121 73.3006 24.8847 51.6185 24.8847C29.9363 24.8847 12.3594 42.4121 12.3594 64.0333C12.3594 85.6545 29.9363 103.182 51.6185 103.182Z" fill="white"/>
<path d="M51.6171 66.2286C58.0869 66.2286 63.3318 60.9985 63.3318 54.5469C63.3318 48.0952 58.0869 42.8651 51.6171 42.8651C45.1472 42.8651 39.9023 48.0952 39.9023 54.5469C39.9023 60.9985 45.1472 66.2286 51.6171 66.2286Z" fill="white"/>
<path d="M73.6929 85.2095H29.5488C29.5488 77.5148 39.4278 71.2473 51.617 71.2473C63.8062 71.2473 73.6929 77.4993 73.6929 85.2095Z" fill="white"/>
<path d="M86.1318 0.652374L93.0082 14.5526L108.387 16.7788L97.2631 27.5995L99.8845 42.8727L86.1318 35.6588L72.3713 42.8727L75.0005 27.5995L63.877 16.7788L79.2554 14.5526L86.1318 0.652374Z" fill="#F6AE2D"/>
</svg>
