<svg width="331" height="240" viewBox="0 0 331 240" fill="none" xmlns="http://www.w3.org/2000/svg">
<path d="M146.134 45.5809C114.466 51.6699 82.4459 55.7714 50.2626 57.8609C41.4045 58.4341 31.2844 58.3843 25.2749 51.8798C17.8723 43.9049 22.0764 29.2822 31.9529 24.7278C41.8293 20.1734 54.3419 24.7278 60.8137 33.4503C67.2855 42.1728 68.3912 54.0105 66.0424 64.6022C63.6935 75.1938 58.2275 84.8322 52.474 94.0407C46.7206 103.249 40.5049 112.289 36.4194 122.351C27.7674 143.666 29.5853 168.923 41.2295 188.78C52.8738 208.636 73.9822 222.667 96.8273 225.663C109.465 227.314 122.277 225.776 134.934 224.237C165.487 220.498 196.091 216.76 226.139 210.162C230.256 209.259 234.616 208.156 237.514 205.103C239.67 202.835 240.725 199.776 242.056 196.948C248.165 183.995 261.815 174.674 276.17 174.581C290.526 174.487 319.655 188.78 308.923 197.814C299.965 205.377 289.907 195.459 286.234 189.266C282.561 183.073 281.936 174.599 281.399 167.459C279.912 147.447 284.635 127.672 286.597 107.71C288.127 92.103 290.488 75.3122 282.961 61.568C279.288 54.8579 273.528 49.4935 267.287 45.0513C243.337 28.0112 210.74 23.8057 183.229 34.2167" stroke="#7C3AED" stroke-miterlimit="10" stroke-dasharray="12 12"/>
<path d="M47.7391 160.668C62.7987 160.668 75.0069 148.493 75.0069 133.473C75.0069 118.453 62.7987 106.277 47.7391 106.277C32.6794 106.277 20.4712 118.453 20.4712 133.473C20.4712 148.493 32.6794 160.668 47.7391 160.668Z" fill="#D0CFEC"/>
<path d="M47.7389 162.464C63.7921 162.464 76.8058 149.485 76.8058 133.474C76.8058 117.464 63.7921 104.484 47.7389 104.484C31.6856 104.484 18.6719 117.464 18.6719 133.474C18.6719 149.485 31.6856 162.464 47.7389 162.464Z" stroke="#D0CFEC" stroke-width="2" stroke-miterlimit="10"/>
<path d="M47.7389 157.236C60.8975 157.236 71.5647 146.597 71.5647 133.474C71.5647 120.35 60.8975 109.711 47.7389 109.711C34.5803 109.711 23.9131 120.35 23.9131 133.474C23.9131 146.597 34.5803 157.236 47.7389 157.236Z" fill="#7C3AED"/>
<path d="M33.9829 128.247C33.9927 126.087 34.5139 123.961 35.504 122.04C36.4942 120.12 37.9253 118.46 39.6808 117.196C41.4362 115.931 43.4663 115.099 45.6056 114.766C47.745 114.433 49.9329 114.608 51.9913 115.278C54.0496 115.949 55.92 117.094 57.4501 118.622C58.9802 120.15 60.1266 122.017 60.796 124.071C61.4654 126.125 61.6388 128.307 61.3021 130.44C60.9653 132.573 60.128 134.597 58.8582 136.346C56.8967 139.293 51.7929 142.626 51.7929 144.62V146.901C51.7929 147.119 51.7061 147.328 51.5514 147.482C51.3968 147.636 51.187 147.723 50.9683 147.723H44.5153C44.296 147.723 44.0856 147.636 43.93 147.482C43.7743 147.328 43.6861 147.119 43.6844 146.901V144.62C43.6844 142.626 38.5869 139.293 36.6191 136.346C34.9005 133.994 33.9772 131.157 33.9829 128.247Z" fill="#FEDAC9"/>
<path d="M49.5691 147.48C49.415 143.92 49.4734 140.354 49.744 136.801C48.588 136.934 47.4205 136.934 46.2645 136.801C46.5386 140.354 46.597 143.92 46.4394 147.48H46.202C46.3422 143.913 46.2775 140.342 46.0084 136.782C41.9291 136.215 40.0988 133.91 39.7614 131.736C39.5678 130.49 40.0051 129.2 40.7984 128.727C41.0502 128.583 41.3293 128.494 41.6177 128.465C41.906 128.437 42.1973 128.468 42.4726 128.558C43.018 128.745 43.5201 129.04 43.9493 129.424C44.3786 129.808 44.7261 130.274 44.9714 130.795C45.6336 132.085 46.0271 134.234 46.2208 136.571C47.3935 136.704 48.5776 136.704 49.7503 136.571C49.9752 134.234 50.375 132.085 50.9997 130.795C51.2459 130.275 51.5937 129.809 52.0228 129.425C52.4519 129.041 52.9536 128.746 53.4985 128.558C53.7738 128.468 54.0651 128.437 54.3534 128.465C54.6418 128.494 54.9208 128.583 55.1726 128.727C55.966 129.2 56.422 130.465 56.2096 131.736C55.8848 133.91 54.0544 136.215 49.9627 136.782C49.6936 140.342 49.6289 143.913 49.769 147.48H49.5691ZM54.2044 128.689C53.9926 128.689 53.782 128.72 53.5797 128.783C53.0709 128.961 52.6031 129.239 52.204 129.601C51.8048 129.963 51.4824 130.4 51.2558 130.888C50.6311 132.135 50.2376 134.234 50.0064 136.496C53.917 135.935 55.6661 133.736 55.9785 131.661C56.1534 130.502 55.7536 129.312 55.0602 128.901C54.7988 128.756 54.5034 128.683 54.2044 128.689ZM41.8042 128.689C41.4983 128.686 41.1977 128.768 40.9359 128.926C40.2362 129.337 39.8364 130.527 40.0113 131.686C40.3237 133.761 42.0728 135.96 45.9834 136.521C45.7585 134.234 45.3587 132.159 44.734 130.913C44.5078 130.426 44.1863 129.989 43.7883 129.627C43.3903 129.266 42.9239 128.987 42.4164 128.808C42.219 128.739 42.0129 128.699 41.8042 128.689Z" fill="white" stroke="white" stroke-miterlimit="10"/>
<path d="M52.3805 145.572H43.6348V149.734C43.6343 150.413 43.8271 151.079 44.1907 151.653C44.5293 152.189 44.9986 152.63 45.5548 152.935C46.1109 153.24 46.7357 153.399 47.3704 153.398H48.6511C49.2858 153.399 49.9105 153.24 50.4667 152.935C51.0229 152.63 51.4922 152.189 51.8307 151.653C52.1944 151.079 52.3872 150.413 52.3867 149.734L52.3805 145.572Z" fill="#D0CFEC"/>
<path d="M43.6283 148.382H43.7282L52.474 147.479C52.5473 147.472 52.6185 147.451 52.6829 147.415C52.7472 147.379 52.8033 147.33 52.8475 147.272C52.8917 147.213 52.923 147.145 52.9394 147.074C52.9557 147.002 52.9568 146.928 52.9425 146.856C52.9207 146.71 52.8438 146.579 52.7275 146.488C52.6112 146.398 52.4645 146.356 52.3178 146.37L43.5721 147.273C43.4991 147.281 43.4284 147.303 43.3645 147.339C43.3007 147.375 43.2449 147.424 43.2009 147.482C43.1569 147.541 43.1255 147.608 43.1088 147.679C43.092 147.75 43.0902 147.824 43.1036 147.896C43.124 148.024 43.1868 148.142 43.2819 148.23C43.377 148.318 43.499 148.371 43.6283 148.382Z" fill="white"/>
<path d="M43.6283 150.289H43.7282L52.474 149.385C52.5473 149.379 52.6185 149.357 52.6829 149.321C52.7472 149.285 52.8033 149.237 52.8475 149.178C52.8917 149.119 52.923 149.052 52.9394 148.98C52.9557 148.908 52.9568 148.834 52.9425 148.762C52.9207 148.617 52.8438 148.485 52.7275 148.395C52.6112 148.304 52.4645 148.262 52.3178 148.276L43.5721 149.18C43.4991 149.187 43.4284 149.209 43.3645 149.245C43.3007 149.281 43.2449 149.33 43.2009 149.389C43.1569 149.447 43.1255 149.514 43.1088 149.585C43.092 149.657 43.0902 149.731 43.1036 149.803C43.124 149.93 43.1868 150.048 43.2819 150.136C43.377 150.224 43.499 150.278 43.6283 150.289Z" fill="white"/>
<path d="M43.9783 152.171H44.0533L52.3492 151.311C52.4222 151.304 52.4928 151.281 52.5567 151.245C52.6206 151.209 52.6763 151.16 52.7203 151.102C52.7644 151.043 52.7957 150.976 52.8125 150.905C52.8293 150.834 52.831 150.76 52.8177 150.688C52.796 150.542 52.719 150.411 52.6027 150.32C52.4865 150.23 52.3398 150.188 52.193 150.202L43.9033 151.087C43.83 151.093 43.7588 151.115 43.6944 151.151C43.6301 151.186 43.5739 151.235 43.5298 151.294C43.4856 151.353 43.4543 151.42 43.4379 151.492C43.4216 151.563 43.4205 151.638 43.4348 151.71C43.459 151.837 43.5261 151.952 43.625 152.036C43.7239 152.12 43.8485 152.167 43.9783 152.171Z" fill="white"/>
<path d="M51.0498 117.225C54.3357 118.022 56.8532 120.383 57.6216 122.981" stroke="white" stroke-width="2" stroke-miterlimit="10" stroke-linecap="round"/>
<path d="M58.9332 126.439C59.159 126.999 59.2629 127.6 59.2382 128.202C59.2134 128.805 59.0605 129.396 58.7896 129.935" stroke="white" stroke-width="2" stroke-miterlimit="10" stroke-linecap="round"/>
<path d="M215.519 159.399H307.237L322.898 143.86V88.9707H215.519V159.399Z" fill="#D0CFEC"/>
<path d="M307.236 159.479L322.897 143.859H307.236V159.479Z" fill="#7C3AED"/>
<path d="M295.218 88.9707H312.615V65.9993H295.218V88.9707Z" fill="#FEDAC9"/>
<path d="M295.217 88.9707H303.913V65.9993H295.217V88.9707Z" fill="#7BE0AD"/>
<path d="M295.217 66.0048H312.615L303.913 53.7559L295.217 66.0048Z" fill="#7C3AED"/>
<path d="M271.204 88.9766H292.1V51.8436H271.204V88.9766Z" fill="#F6AE2D"/>
<path d="M281.649 59.8809H271.204" stroke="#7C3AED" stroke-width="4" stroke-miterlimit="10"/>
<path d="M278.044 67.3262H271.204" stroke="#7C3AED" stroke-width="4" stroke-miterlimit="10"/>
<path d="M281.649 74.7715H271.204" stroke="#7C3AED" stroke-width="4" stroke-miterlimit="10"/>
<path d="M278.044 82.2227H271.204" stroke="#7C3AED" stroke-width="4" stroke-miterlimit="10"/>
<path d="M254.519 124.657V136.507H315.07V97.7109H254.519V111.355" stroke="#FEFDFF" stroke-width="6" stroke-linecap="round" stroke-linejoin="round"/>
<path d="M278.538 128.801V136.508" stroke="#FEFDFF" stroke-width="6" stroke-miterlimit="10" stroke-linecap="round"/>
<path d="M278.538 111.979V121.723" stroke="#FEFDFF" stroke-width="6" stroke-miterlimit="10" stroke-linecap="round"/>
<path d="M278.538 97.7109V105.243" stroke="#FEFDFF" stroke-width="6" stroke-miterlimit="10" stroke-linecap="round"/>
<path d="M315.07 117.113H278.538" stroke="#FEFDFF" stroke-width="6" stroke-miterlimit="10" stroke-linecap="round"/>
<path d="M223.509 143.859H249.002V121.928H223.509V143.859Z" fill="#F6AE2D"/>
<path d="M245.08 67.6938V55.4512" stroke="#7BE0AD" stroke-width="9" stroke-linejoin="round"/>
<path d="M245.08 74.7402L228.157 111.356" stroke="#7C3AED" stroke-width="9" stroke-miterlimit="10" stroke-linecap="round"/>
<path d="M262.009 111.356L245.08 74.7402" stroke="#7C3AED" stroke-width="9" stroke-miterlimit="10" stroke-linecap="round"/>
<path d="M245.08 85.0945C250.814 85.0945 255.462 80.4585 255.462 74.7396C255.462 69.0208 250.814 64.3848 245.08 64.3848C239.346 64.3848 234.697 69.0208 234.697 74.7396C234.697 80.4585 239.346 85.0945 245.08 85.0945Z" fill="#FEDAC9"/>
<path d="M245.08 80.9262C248.506 80.9262 251.283 78.1563 251.283 74.7395C251.283 71.3226 248.506 68.5527 245.08 68.5527C241.654 68.5527 238.876 71.3226 238.876 74.7395C238.876 78.1563 241.654 80.9262 245.08 80.9262Z" fill="#7C3AED"/>
<path d="M245.08 77.1815C246.432 77.1815 247.528 76.088 247.528 74.7392C247.528 73.3903 246.432 72.2969 245.08 72.2969C243.727 72.2969 242.631 73.3903 242.631 74.7392C242.631 76.088 243.727 77.1815 245.08 77.1815Z" fill="#7BE0AD"/>
<path d="M253.544 94.1406C248.13 100.321 242.277 100.321 235.984 94.1406" stroke="#7C3AED" stroke-width="9" stroke-linejoin="round"/>
<path d="M301.758 144.67H260.715" stroke="#FEFDFF" stroke-width="4" stroke-miterlimit="10" stroke-linecap="round"/>
<path d="M301.758 149.043H260.715" stroke="#FEFDFF" stroke-width="4" stroke-miterlimit="10" stroke-linecap="round"/>
<path d="M301.758 153.984H223.515" stroke="#FEFDFF" stroke-width="4" stroke-miterlimit="10" stroke-linecap="round"/>
<path d="M135.033 240.001L105.91 167.105L114.943 158.252L119.747 151.311L186.308 147.23L188.263 154.227C191.343 159.741 197.678 166.501 205.13 169.672L179.099 240.001H135.033Z" fill="#D0CFEC"/>
<path d="M135.034 240.001H29.123C32.2465 223.659 32.3964 193.441 43.6971 197.011C46.0397 189.535 82.6905 189.678 114.95 158.246C114.225 175.386 118.492 189.111 126.856 200.033L135.034 240.001Z" fill="#F6AE2D"/>
<path d="M178.219 240H287.078C283.954 223.658 276.164 182.612 264.389 188.089C262.046 180.613 220.348 182.961 188.27 154.221C189.282 171.192 188.27 184.507 183.429 201.204L178.219 240Z" fill="#F6AE2D"/>
<path d="M111.551 162.383C110.182 164.129 108.691 165.778 107.091 167.317C105.498 168.868 103.814 170.324 102.05 171.679C98.4903 174.347 94.7775 176.806 90.9303 179.043L91.1302 178.339C91.8591 179.618 92.9121 180.684 94.1838 181.43C95.4556 182.175 96.9015 182.575 98.3767 182.588H99.8072L98.7702 183.579C95.3282 186.874 91.8986 190.201 88.4441 193.46L88.5502 192.712C90.8491 196.617 93.1251 200.538 95.3781 204.475C97.6312 208.413 99.8718 212.359 102.1 216.313L108.759 228.151L115.381 239.988C112.951 236.163 110.621 232.275 108.259 228.406L101.306 216.724C98.9826 212.836 96.6962 208.924 94.4349 205.011C92.1735 201.098 89.8496 197.198 87.5258 193.317L87.2759 192.905L87.6257 192.563C91.0553 189.254 94.5473 186.015 98.0081 182.737L98.4017 183.722C96.7225 183.698 95.0796 183.232 93.6399 182.369C92.2003 181.507 91.0154 180.28 90.2057 178.812L89.9558 178.357L90.4056 178.108C94.2853 175.998 98.0396 173.666 101.65 171.124C103.437 169.828 105.186 168.489 106.841 167.018C108.5 165.565 110.072 164.017 111.551 162.383Z" fill="#332066"/>
<path d="M192.162 160.508C193.792 162.223 195.599 163.762 197.553 165.1C199.501 166.423 201.538 167.612 203.65 168.657C205.755 169.71 207.929 170.645 210.122 171.523C212.314 172.402 214.551 173.199 216.762 174.046L217.387 174.296L216.993 174.856C215.903 176.522 214.568 178.016 213.033 179.286C211.433 180.482 209.653 181.417 207.76 182.059L208.06 181.193C208.896 182.264 209.915 183.18 211.071 183.897C212.233 184.688 213.47 185.398 214.713 186.096C217.212 187.467 219.798 188.706 222.422 189.834L222.953 190.058L222.734 190.582C220.991 194.688 219.186 198.769 217.374 202.837C215.563 206.905 213.676 210.936 211.808 214.986C209.94 219.036 208.06 223.086 206.149 227.098C204.237 231.11 202.319 235.141 200.358 239.141L205.699 226.892L211.071 214.656L216.4 202.407C218.186 198.332 219.96 194.245 221.672 190.139L221.978 190.893C219.298 189.772 216.681 188.557 214.12 187.155C212.826 186.471 211.575 185.712 210.371 184.881C209.758 184.463 209.17 184.01 208.61 183.523C208.016 183.022 207.493 182.444 207.054 181.803L206.655 181.18L207.354 180.925C209.144 180.341 210.831 179.479 212.352 178.37C213.802 177.179 215.065 175.779 216.1 174.215L216.35 175.025C214.132 174.177 211.927 173.274 209.741 172.333C207.554 171.392 205.399 170.377 203.294 169.218C201.185 168.099 199.171 166.812 197.272 165.368C195.386 163.95 193.671 162.319 192.162 160.508Z" fill="#332066"/>
<path d="M159.603 197.01C167.249 207.602 169.517 220.274 171.435 240H138.513C138.513 220.928 145.772 201.994 147.927 198.063C147.665 191.945 143.442 186.811 139.644 184.506C142.336 180.998 144.891 178.275 150.132 178.275L158.672 179.073C165.544 178.917 166.075 179.796 167.743 180.693C162.751 184.5 160.546 189.982 159.603 197.01Z" fill="#7C3AED"/>
<path d="M151.588 178.674C150.182 178.502 148.755 178.64 147.409 179.079C146.743 179.277 146.097 179.536 145.478 179.852C145.181 180.006 144.899 180.187 144.635 180.394L143.798 181.017C141.575 182.76 139.458 184.632 137.457 186.624C136.47 187.634 135.483 188.643 134.565 189.739C133.647 190.836 132.735 191.895 131.848 192.998C130.105 195.228 128.499 197.565 126.944 199.976C128.034 197.316 129.408 194.78 131.042 192.412C132.677 190.032 134.532 187.811 136.583 185.777C138.627 183.74 140.863 181.904 143.261 180.294L144.167 179.671C144.482 179.463 144.817 179.286 145.166 179.142C145.847 178.856 146.557 178.647 147.284 178.519C148.709 178.212 150.189 178.265 151.588 178.674Z" fill="#332066"/>
<path d="M155.604 178.812C157.21 178.812 158.803 178.738 160.408 178.725C162.042 178.661 163.677 178.787 165.281 179.099C166.923 179.523 168.428 180.36 169.654 181.529C170.845 182.661 171.915 183.913 172.846 185.267C174.72 187.871 176.525 190.494 178.306 193.155C180.086 195.815 181.81 198.5 183.441 201.254C181.367 198.806 179.405 196.27 177.481 193.728C175.557 191.186 173.683 188.582 171.859 185.984C170.975 184.697 169.982 183.488 168.892 182.37C167.833 181.278 166.526 180.457 165.081 179.977C162.07 179.105 158.772 179.28 155.604 178.812Z" fill="#332066"/>
<path d="M156.173 199.465C157.906 201.801 159.244 204.405 160.134 207.172C161.048 209.926 161.717 212.755 162.133 215.626C162.555 218.498 162.806 221.392 162.883 224.293C162.966 227.173 162.887 230.056 162.645 232.928L161.908 224.293C161.639 221.446 161.352 218.605 160.915 215.788C160.51 212.986 159.944 210.209 159.222 207.471C158.494 204.702 157.472 202.018 156.173 199.465Z" fill="#332066"/>
<path d="M156.323 205.877C156.819 208.023 157.151 210.204 157.317 212.4C157.504 214.587 157.56 216.761 157.56 218.986C157.56 221.21 157.466 223.347 157.304 225.559C157.142 227.77 156.935 229.92 156.679 232.101C156.442 229.914 156.392 227.739 156.354 225.528C156.317 223.316 156.354 221.166 156.354 218.979V212.438L156.323 205.877Z" fill="#332066"/>
<path d="M144.972 184.338C146.417 185 147.58 186.153 148.252 187.59C148.899 188.991 149.408 190.452 149.77 191.951C149.95 192.651 150.182 193.336 150.463 194.001C150.714 194.63 151.098 195.197 151.588 195.665C152.562 196.593 154.086 196.848 155.604 196.948C154.855 197.169 154.074 197.261 153.293 197.222C152.46 197.181 151.657 196.904 150.975 196.425C150.298 195.925 149.754 195.266 149.395 194.506C149.055 193.794 148.78 193.054 148.57 192.294C148.158 190.817 147.858 189.372 147.365 188.008C146.885 186.605 146.063 185.344 144.972 184.338Z" fill="#332066"/>
<path d="M154.237 196.02C153.967 195.313 153.773 194.58 153.656 193.833C153.423 192.377 153.364 190.899 153.481 189.429C153.535 188.679 153.669 187.938 153.88 187.217C154.151 187.923 154.346 188.656 154.461 189.404C154.694 190.858 154.753 192.334 154.636 193.802C154.582 194.554 154.448 195.297 154.237 196.02Z" fill="#332066"/>
<path d="M156.323 196.451C156.287 195.273 156.358 194.095 156.535 192.931C156.681 191.772 156.89 190.622 157.16 189.485C157.439 188.351 157.776 187.232 158.172 186.133C158.556 185.018 159.041 183.939 159.621 182.912C159.512 184.079 159.341 185.24 159.109 186.389C158.891 187.529 158.653 188.663 158.372 189.784C158.091 190.906 157.785 192.027 157.454 193.136C157.136 194.26 156.758 195.366 156.323 196.451Z" fill="#332066"/>
<path d="M186.315 147.224C179.368 157.228 170.683 165.913 160.671 172.868C159.066 173.971 157.366 175.042 155.449 175.36C153.584 175.576 151.695 175.383 149.914 174.793C141.057 172.309 133.069 167.414 126.844 160.656C124.401 158.002 121.222 154.644 119.754 151.311C120.439 145.073 120.146 138.767 118.885 132.62L186.315 128.969C185.289 135.011 185.289 141.182 186.315 147.224Z" fill="#FEA394"/>
<path d="M176.038 138.658C159.584 149.698 143.61 150.464 128.224 138.658C108.234 127.107 109.608 86.3226 112.145 40.3487L190.15 38.6914C192.449 79.357 191.812 116.945 176.038 138.658Z" fill="#FEA394"/>
<path d="M110.302 86.727C109.046 84.9436 107.458 83.4184 105.623 82.2349C104.661 81.6118 103.18 81.1632 102.5 82.0978C102.346 82.404 102.257 82.7386 102.239 83.0805C102.221 83.4225 102.273 83.7645 102.393 84.0853C103.943 90.731 105.542 97.3767 107.191 104.022C107.528 105.801 108.161 107.511 109.065 109.082C110.058 110.596 111.708 111.804 113.525 111.779" fill="#FEA394"/>
<path d="M191.968 84.5397C192.856 82.7737 194.172 81.2573 195.798 80.1286C196.872 79.3872 198.296 78.8202 199.446 79.4246C200.914 80.1971 200.964 82.2345 200.801 83.873C200.177 90.1574 199.344 96.421 198.303 102.664C197.803 105.661 197.128 108.894 194.861 110.913C194.143 111.608 193.208 112.037 192.212 112.128C191.715 112.166 191.218 112.058 190.782 111.818C190.346 111.578 189.989 111.215 189.757 110.776" fill="#FEA394"/>
<path d="M195.298 94.1777C195.66 94.8774 195.834 95.6587 195.804 96.4456C195.847 99.601 194.979 102.702 193.305 105.38C193.074 105.748 192.73 106.153 192.299 106.09C192.126 106.051 191.971 105.955 191.859 105.819C191.746 105.683 191.681 105.513 191.674 105.336C191.672 104.983 191.749 104.634 191.899 104.315L192.905 101.673C193.221 100.925 193.449 100.143 193.586 99.3427C193.83 97.5546 192.243 96.0905 192.393 94.5453C192.543 93.0002 194.436 92.7635 195.298 94.1777Z" fill="#332066"/>
<path d="M197.172 83.4878C197.372 83.418 197.587 83.3987 197.796 83.4317C198.546 83.6061 198.584 84.6778 198.471 85.4067C198.086 88.0912 198.059 90.8146 198.39 93.5062C198.231 93.5529 198.062 93.5438 197.909 93.4802C197.757 93.4166 197.631 93.3026 197.553 93.1573C197.43 92.8574 197.379 92.5333 197.403 92.2103L197.203 86.7275C197.218 86.4174 197.154 86.1086 197.016 85.8304C196.597 85.1076 195.423 85.3133 194.773 85.4316C195.073 84.4472 196.154 83.7557 197.172 83.4878Z" fill="#332066"/>
<path d="M107.522 99.0944C107.918 101.068 108.525 102.994 109.333 104.839C109.424 105.131 109.611 105.383 109.864 105.555C109.977 105.603 110.099 105.627 110.221 105.626C110.344 105.625 110.465 105.6 110.577 105.552C110.69 105.504 110.791 105.433 110.876 105.345C110.961 105.257 111.027 105.152 111.07 105.038C111.145 104.803 111.165 104.553 111.131 104.308C111.096 104.064 111.007 103.83 110.87 103.624C110.589 103.217 110.28 102.83 109.946 102.465C109.238 101.577 108.786 100.513 108.64 99.3873C108.478 98.2035 109.027 97.2565 109.046 96.1412C109.065 95.026 108.615 94.5463 107.797 95.5182C106.978 96.4901 107.309 98.0228 107.522 99.0944Z" fill="#332066"/>
<path d="M103.611 85.5425L104.942 91.2246C104.942 91.3305 105.011 91.4489 105.111 91.4675C105.211 91.4862 105.323 91.3305 105.348 91.2059C105.494 90.5106 105.426 89.7877 105.154 89.1312C104.842 88.3524 104.374 87.6919 104.449 86.8135C104.511 86.1904 105.179 85.5674 105.167 84.9444C105.136 83.4304 103.237 83.9226 103.611 85.5425Z" fill="#332066"/>
<path d="M157.672 133.019C157.672 135.031 154.649 136.657 150.926 136.657C147.202 136.657 144.185 135.031 144.185 133.019C144.185 131.617 145.734 128.159 147.896 127.555C148.886 127.312 149.906 127.207 150.926 127.243C151.945 127.209 152.965 127.301 153.962 127.517C156.173 128.109 157.672 131.58 157.672 133.019Z" fill="#332066"/>
<path d="M187.995 32.3547C166.381 11.3022 115.181 16.6977 106.916 38.6909C105.154 43.3762 106.354 48.0365 109.053 52.1298C102.612 63.1389 106.191 63.9302 107.303 83.4748C107.853 83.9857 108.365 84.4966 108.828 85.02C109.627 85.9281 110.098 87.0778 110.165 88.2847C110.527 94.6521 110.989 103.443 111.052 108.122C111.114 112.932 111.189 117.792 112.351 122.452C113.095 125.485 114.212 128.414 115.674 131.175C122.715 144.327 138.957 156.613 144.523 156.545C145.772 156.545 147.646 156.189 149.345 156.04V156.102C149.845 156.065 150.364 156.034 150.926 156.021C152.85 155.971 155.642 156.576 157.335 156.594C162.901 156.663 179.149 144.377 186.19 131.224C187.65 128.463 188.766 125.534 189.513 122.502C190.675 117.835 190.762 112.976 190.812 108.172C190.9 101.717 191.618 89.9793 191.874 85.9483C191.934 85.0322 192.259 84.1532 192.811 83.4188L194.504 81.1758C197.153 63.4504 197.103 41.2205 187.995 32.3547ZM188.364 103.175C187.214 109.406 174.864 119.873 174.864 119.873C173.765 117.243 157.966 104.708 153.387 108.035C153.01 108.314 152.716 108.69 152.537 109.122C152.358 109.555 152.3 110.028 152.37 110.491C152.44 110.954 152.635 111.389 152.934 111.75C153.233 112.111 153.625 112.384 154.068 112.539C159.253 114.546 166.643 116.901 173.221 127.231C173.221 127.231 166.287 141.897 150.932 142.576V142.526C135.577 141.853 128.643 127.181 128.643 127.181C135.221 116.826 142.611 114.496 147.79 112.49C148.233 112.335 148.625 112.062 148.925 111.702C149.225 111.341 149.421 110.906 149.491 110.443C149.562 109.98 149.505 109.507 149.326 109.074C149.147 108.641 148.854 108.264 148.477 107.985C143.898 104.646 128.099 117.181 127 119.823C127 119.823 114.644 109.362 113.5 103.125C112.157 95.8234 112.114 80.0731 112.114 80.0731C113.076 68.2354 110.033 61.8181 119.041 52.08C135.127 57.0643 148.133 51.538 163.794 49.5879C184.222 49.8682 185.977 63.195 189.576 79.288C189.694 79.8239 189.751 80.3716 189.744 80.9204C189.713 84.2723 189.519 96.8764 188.364 103.175Z" fill="#332066"/>
<path d="M164.881 118.19C164.881 118.19 155.979 125.311 151.469 125.311C144.404 125.311 137.289 117.785 137.289 117.785C140.162 118.034 145.709 118.851 150.926 118.19C156.904 118.776 160.096 117.785 164.881 118.19Z" fill="#332066"/>
<path d="M163.332 118.165C163.332 118.165 160.79 120.969 150.926 120.857C139.556 120.726 139.256 117.86 139.256 117.86C140.812 118.925 145.709 117.791 150.926 117.131C156.904 117.717 159.015 118.956 163.332 118.165Z" fill="white"/>
<path d="M150.926 126.751C158.122 126.751 160.296 124.259 164.881 118.19C156.367 124.57 145.597 124.788 137.289 117.785C139.662 120.981 143.329 126.751 150.926 126.751Z" fill="#DD665E"/>
<path d="M147.846 115.997C149.095 116.166 149.639 116.839 150.926 116.876C151.744 116.876 152.7 116.253 153.506 116.147C155.636 115.892 160.046 116.496 164.881 118.191C159.884 118.751 140.843 119.549 137.289 117.786C140.456 117.025 143.56 115.617 147.846 115.997Z" fill="#D35A4A"/>
<path d="M154.368 80.7715C154.624 81.5814 154.799 82.3852 154.992 83.1889C155.186 83.9926 155.342 84.7901 155.48 85.5938C155.798 87.1888 156.048 88.7837 156.373 90.3413C156.667 91.8893 157.053 93.4184 157.529 94.9207C157.785 95.6708 158.082 96.407 158.416 97.1262C158.791 97.87 159.11 98.6406 159.372 99.4314C158.784 98.8084 158.203 98.2601 157.641 97.6246C157.084 96.9698 156.593 96.2624 156.173 95.5125C155.398 93.9981 154.844 92.3804 154.53 90.7089C154.214 89.0654 154.041 87.3978 154.012 85.7246C154.012 84.896 154.012 84.0611 154.074 83.2325C154.137 82.4038 154.212 81.6188 154.368 80.7715Z" fill="#332066"/>
<path d="M153.081 106.054C153.388 105.71 153.65 105.329 153.862 104.92C154.1 104.515 154.367 104.127 154.662 103.761C155.003 103.328 155.428 102.968 155.911 102.702C156.244 102.52 156.618 102.426 156.998 102.428H157.254H157.473C157.623 102.456 157.771 102.494 157.916 102.54C158.253 102.635 158.566 102.799 158.835 103.022C159.104 103.246 159.323 103.523 159.478 103.836C159.624 104.169 159.682 104.533 159.647 104.895C159.615 105.295 159.437 105.67 159.147 105.948C158.865 106.207 158.493 106.348 158.11 106.34C157.813 106.327 157.524 106.244 157.266 106.097C156.81 105.867 156.492 105.574 156.017 105.393C156.491 105.289 156.98 105.27 157.46 105.337C157.636 105.348 157.813 105.322 157.979 105.263C158.019 105.243 158.055 105.215 158.084 105.181C158.113 105.146 158.135 105.106 158.147 105.063C158.143 104.893 158.086 104.727 157.985 104.59C157.82 104.436 157.614 104.335 157.391 104.297C157.316 104.278 157.238 104.265 157.16 104.259H157.042H156.954C156.872 104.268 156.791 104.291 156.717 104.328C156.382 104.495 156.062 104.691 155.761 104.914C155.376 105.183 154.978 105.433 154.568 105.661C154.128 105.951 153.606 106.088 153.081 106.054Z" fill="#332066"/>
<path d="M148.977 106.054C148.453 106.098 147.929 105.971 147.484 105.693C147.046 105.456 146.659 105.188 146.297 104.945C145.994 104.722 145.672 104.526 145.335 104.359C145.261 104.322 145.18 104.299 145.097 104.291H145.016H144.891C144.815 104.297 144.74 104.309 144.666 104.328C144.433 104.36 144.215 104.462 144.042 104.621C143.936 104.757 143.877 104.923 143.873 105.094C143.887 105.138 143.91 105.178 143.94 105.212C143.97 105.246 144.007 105.274 144.048 105.294C144.213 105.355 144.39 105.38 144.566 105.369C145.045 105.301 145.531 105.32 146.003 105.425C145.547 105.605 145.229 105.898 144.754 106.129C144.498 106.274 144.211 106.357 143.917 106.372C143.531 106.378 143.158 106.238 142.873 105.979C142.585 105.699 142.408 105.326 142.374 104.926C142.34 104.564 142.401 104.199 142.549 103.867C142.703 103.555 142.921 103.278 143.189 103.055C143.457 102.832 143.768 102.667 144.104 102.571C144.25 102.526 144.398 102.488 144.548 102.459H144.766H145.029C145.406 102.457 145.778 102.552 146.109 102.733C146.595 102.996 147.02 103.357 147.359 103.792C147.655 104.157 147.923 104.545 148.158 104.951C148.386 105.35 148.661 105.72 148.977 106.054Z" fill="#332066"/>
<path d="M132.916 87.2635C134.886 87.2635 136.483 85.6708 136.483 83.706C136.483 81.7412 134.886 80.1484 132.916 80.1484C130.946 80.1484 129.349 81.7412 129.349 83.706C129.349 85.6708 130.946 87.2635 132.916 87.2635Z" fill="#332066"/>
<path d="M140.025 84.5471C139.54 84.6313 139.047 84.6543 138.557 84.6156C138.18 84.6064 137.807 84.5499 137.445 84.4474C137.122 84.3638 136.807 84.2555 136.501 84.1234C136.195 84.0175 135.877 83.9365 135.577 83.8243C134.297 83.4566 132.986 83.2104 131.66 83.0891C130.237 82.9752 128.805 83.0254 127.393 83.2387C125.938 83.4194 124.463 83.681 122.908 83.8617L122.714 83.3757C123.98 82.4244 125.382 81.6702 126.875 81.139C128.406 80.5876 129.998 80.2215 131.616 80.0487C133.329 79.8463 135.065 80.06 136.676 80.6718C137.491 80.9797 138.251 81.4174 138.925 81.9677C139.243 82.2878 139.509 82.6557 139.712 83.058C139.915 83.5287 140.021 84.0349 140.025 84.5471Z" fill="#332066"/>
<path d="M168.792 87.2635C170.762 87.2635 172.359 85.6708 172.359 83.706C172.359 81.7412 170.762 80.1484 168.792 80.1484C166.822 80.1484 165.225 81.7412 165.225 83.706C165.225 85.6708 166.822 87.2635 168.792 87.2635Z" fill="#332066"/>
<path d="M161.689 84.5474C161.69 84.0336 161.794 83.5252 161.995 83.0521C162.201 82.6512 162.466 82.2836 162.782 81.9618C163.46 81.4127 164.221 80.9752 165.037 80.6659C166.647 80.0542 168.381 79.8404 170.091 80.0428C171.712 80.215 173.306 80.581 174.839 81.1332C176.331 81.6643 177.734 82.4185 178.999 83.3699L178.799 83.8558C177.244 83.6752 175.77 83.4135 174.314 83.2328C172.904 83.0194 171.475 82.9692 170.054 83.0833C168.728 83.2045 167.416 83.4507 166.137 83.8185C165.837 83.9306 165.512 84.0116 165.206 84.1175C164.901 84.2515 164.586 84.3599 164.263 84.4415C163.901 84.544 163.527 84.6005 163.151 84.6097C162.663 84.6504 162.172 84.6295 161.689 84.5474Z" fill="#332066"/>
<path d="M169.879 73.8555C175.276 72.3353 181.673 74.6779 184.172 79.6809C183.485 76.4353 182.147 73.3621 180.236 70.6469C179.653 69.8242 178.93 69.1095 178.1 68.5348C174.07 65.7249 157.173 67.3323 156.704 68.9958C155.13 74.6281 160.065 76.6343 169.879 73.8555Z" fill="#332066"/>
<path d="M123.739 75.102C119.841 76.5536 117.985 80.3915 115.874 82.5784C116.08 79.2327 116.674 72.7843 118.997 70.8965C124.033 66.8716 140.518 67.8498 140.749 68.99C142.586 77.7561 126.375 74.1425 123.739 75.102Z" fill="#332066"/>
<path d="M206.024 204.948C209.06 204.948 211.521 202.493 211.521 199.465C211.521 196.437 209.06 193.982 206.024 193.982C202.988 193.982 200.526 196.437 200.526 199.465C200.526 202.493 202.988 204.948 206.024 204.948Z" fill="#D0CFEC" stroke="#7C3AED" stroke-miterlimit="10"/>
<path d="M204.843 201.093L205.305 199.653L205.624 198.669L206.017 197.454L206.355 196.395L204.706 195.865L202.832 201.61L204.487 202.139L204.843 201.093Z" fill="white"/>
<path d="M209.016 199.996C208.908 199.549 208.718 199.126 208.454 198.75L208.348 198.606L206.661 198.064L206.505 198.538L206.623 198.669C206.736 198.791 206.834 198.924 206.917 199.068C207.008 199.214 207.082 199.371 207.136 199.535C207.189 199.705 207.222 199.881 207.236 200.058C207.242 200.43 207.126 200.793 206.905 201.092C206.788 201.227 206.658 201.351 206.517 201.46C206.377 201.561 206.226 201.646 206.067 201.715C205.911 201.777 205.75 201.827 205.586 201.865L205.412 201.909L205.255 202.388L206.961 202.93L207.117 202.874C207.551 202.722 207.953 202.492 208.304 202.195C208.597 201.924 208.812 201.58 208.929 201.198C209.059 200.811 209.089 200.398 209.016 199.996Z" fill="white"/>
</svg>
