<svg width="362" height="325" viewBox="0 0 362 325" fill="none" xmlns="http://www.w3.org/2000/svg">
<path d="M115.723 246.605C112.733 251.147 109.2 266.269 98.4835 256.565L91.1328 233.713L105.932 229.67L115.723 246.605Z" fill="#332066"/>
<path d="M40.088 295.811H10.3027C7.13155 294.47 5.08698 291.289 4.53759 285.621L2.85464 281.564C0.318391 275.323 -0.216178 268.45 1.3247 261.893C9.66987 224.641 39.9698 178.04 48.0229 155.618L81.1324 162.432L61.8272 218.431L67.1542 213.826C88.4437 209.195 104.406 220.121 115.042 246.605C102.795 266.873 74.7136 282.335 40.088 295.811Z" fill="#F8895D"/>
<path d="M114.924 246.806C98.234 225.905 80.8899 212.694 67.1621 213.826L91.7734 210.353L115.05 246.591L114.924 246.806Z" fill="#332066"/>
<path d="M139.438 228.156L115.05 246.604C99.8404 224.703 83.9429 212.867 67.1621 213.826C86.7941 175.122 114.681 157.048 149.091 155.305L139.438 228.156Z" fill="#D0CFEC"/>
<path d="M54.7617 265.248C59.741 249.807 64.2057 231.559 61.8343 218.431L64.2613 216.347C66.3615 230.656 65.6244 239.137 54.7617 265.248Z" fill="#332066"/>
<path d="M81.4519 162.279L74.1151 174.191L42.2852 170.059L48.0016 155.597C41.694 141.705 44.5245 122.492 49.5733 110.003L64.9423 106.106L80.2418 102.237H81.9387L90.9097 105.71C91.6052 115.073 92.7039 123.45 95.2353 128.507L106.119 111.677C112.378 102.723 124.506 105.897 121.21 110.093C115.807 116.885 110.939 124.084 106.647 131.626L104.7 138.141C102.614 142.1 96.355 149.811 91.7651 154.944C90.2207 156.685 88.4141 158.176 86.4103 159.362L81.4519 162.279Z" fill="#F8895D"/>
<path d="M59.3868 108.092L49.5742 110.003L50.3322 79.9398C50.5965 74.7233 57.3839 73.6883 57.982 78.5089L59.3868 108.092Z" fill="#F8895D"/>
<path d="M68.4138 106.592L58.6777 110.003L62.3705 69.8888C62.6278 64.6723 69.4221 63.6373 70.0202 68.4996L68.4138 106.592Z" fill="#F8895D"/>
<path d="M80.2344 104.793L69.3301 106.877L72.7655 64.9639C72.9394 58.5318 81.4028 58.2748 81.4028 63.9706L80.2344 104.793Z" fill="#F8895D"/>
<path d="M92.0917 117.011L80.9648 110.003L85.5338 72.2436C85.7077 65.8185 94.1711 65.5615 94.1711 71.2573L92.0917 117.011Z" fill="#F8895D"/>
<path d="M298.108 176.796L323.06 195.349C327.979 199.005 331.578 204.156 333.317 210.029C335.057 215.901 334.842 222.179 332.706 227.92L309.506 298.693L309.061 324.977L109.959 324.915L118.777 189.299C119.311 181.07 122.585 173.256 128.078 167.1C133.571 160.944 140.968 156.799 149.091 155.326L178.07 150.082L298.108 176.796Z" fill="#D0CFEC"/>
<path d="M309.06 324.977L308.023 302.583L357.323 294.484L358.713 324.915L309.06 324.977Z" fill="#F8895D"/>
<path d="M308.531 314.912L308.01 302.583L357.309 294.484L357.754 304.146C342.879 311.175 326.578 314.19 308.531 314.912Z" fill="#332066"/>
<path d="M360.584 299.867C345.514 309.835 320.166 314.454 300.381 314.912V240.04L323.059 195.349C355.647 206.123 364.792 247.063 360.584 299.867Z" fill="#D0CFEC"/>
<path d="M312.995 324.915L309.059 324.977L307.244 290.427L312.995 324.915Z" fill="#332066"/>
<path d="M191.685 258.635L184.404 257.836C184.376 258.147 184.425 258.459 184.546 258.746C184.668 259.033 184.857 259.286 185.099 259.483C185.792 259.97 186.61 260.249 187.457 260.288C188.123 260.362 188.798 260.326 189.453 260.184C189.998 260.095 190.526 259.921 191.018 259.67L191.379 259.712L191.136 261.928C190.451 262.092 189.753 262.196 189.049 262.24C188.338 262.283 187.623 262.264 186.914 262.185C185.291 262.113 183.732 261.527 182.464 260.511C181.986 260.079 181.624 259.535 181.408 258.929C181.192 258.323 181.129 257.673 181.226 257.037C181.269 256.394 181.461 255.769 181.787 255.212C182.113 254.655 182.563 254.182 183.104 253.828C184.387 253.064 185.9 252.781 187.373 253.03C188.688 253.074 189.941 253.595 190.899 254.495C191.274 254.929 191.549 255.441 191.702 255.993C191.856 256.546 191.886 257.125 191.789 257.69L191.685 258.635ZM188.695 256.669C188.731 256.432 188.719 256.189 188.659 255.957C188.599 255.724 188.493 255.506 188.347 255.315C187.973 254.95 187.478 254.735 186.956 254.711C186.426 254.63 185.884 254.718 185.405 254.961C185.18 255.09 184.989 255.272 184.848 255.491C184.708 255.71 184.622 255.959 184.599 256.218L188.709 256.669H188.695Z" fill="#332066"/>
<path d="M199.146 263.22C198.777 263.267 198.405 263.286 198.034 263.275C197.63 263.275 197.171 263.275 196.608 263.185C195.633 263.145 194.693 262.813 193.91 262.233C193.616 261.927 193.402 261.554 193.286 261.145C193.171 260.737 193.158 260.307 193.249 259.892L193.687 255.871L192.387 255.725L192.595 253.856L193.896 254.002L194.167 251.529L197.359 251.877L197.088 254.349L200.064 254.676L199.863 256.544L196.879 256.218L196.538 259.281L196.455 260.073C196.429 260.283 196.458 260.496 196.538 260.691C196.611 260.888 196.748 261.055 196.928 261.164C197.196 261.321 197.5 261.409 197.811 261.421C198.228 261.441 198.646 261.397 199.049 261.289H199.313L199.105 263.192L199.146 263.22Z" fill="#332066"/>
<path d="M206.408 263.171L205.713 263.511C205.468 263.63 205.215 263.729 204.955 263.81C204.625 263.9 204.287 263.956 203.946 263.977C203.572 264.007 203.195 264.007 202.82 263.977C201.96 263.911 201.149 263.551 200.525 262.956C200.242 262.694 200.026 262.368 199.897 262.005C199.767 261.642 199.727 261.253 199.781 260.872C199.817 260.314 200.051 259.786 200.441 259.385C200.86 258.998 201.369 258.723 201.923 258.587C202.654 258.402 203.408 258.318 204.162 258.337C205.038 258.337 205.956 258.336 206.902 258.413V258.364C206.938 258.15 206.901 257.93 206.798 257.739C206.694 257.548 206.531 257.396 206.332 257.308C205.715 257.029 205.053 256.864 204.378 256.822C203.81 256.763 203.237 256.78 202.674 256.871C202.055 256.968 201.624 257.045 201.352 257.114L201.046 257.079L201.276 254.995C201.624 254.954 202.187 254.919 202.952 254.905C203.718 254.88 204.485 254.91 205.247 254.995C207.062 255.197 208.335 255.579 209.093 256.155C209.46 256.431 209.745 256.802 209.914 257.229C210.083 257.655 210.131 258.121 210.052 258.573L209.406 264.435L206.234 264.088L206.339 263.171H206.408ZM206.554 261.837L206.749 260.045H205.358C204.967 260.029 204.576 260.052 204.19 260.115C203.907 260.137 203.636 260.241 203.411 260.413C203.319 260.489 203.244 260.584 203.19 260.69C203.136 260.796 203.105 260.913 203.098 261.032C203.073 261.181 203.073 261.334 203.098 261.483C203.134 261.621 203.215 261.743 203.327 261.83C203.463 261.953 203.621 262.047 203.793 262.108C204.078 262.201 204.372 262.259 204.67 262.282C204.998 262.314 205.33 262.29 205.65 262.212C205.969 262.136 206.275 262.009 206.554 261.837Z" fill="#332066"/>
<path d="M220.58 262.928C220.524 263.378 220.343 263.804 220.058 264.157C219.773 264.511 219.395 264.778 218.966 264.928C217.738 265.4 216.407 265.541 215.106 265.338C214.295 265.253 213.494 265.09 212.714 264.852C212.134 264.67 211.571 264.438 211.031 264.157L211.282 261.879H211.581L212.095 262.261C212.701 262.648 213.356 262.952 214.042 263.164C214.473 263.298 214.915 263.388 215.364 263.435C215.824 263.509 216.294 263.509 216.755 263.435C217.068 263.345 217.241 263.185 217.262 262.949C217.278 262.855 217.267 262.759 217.23 262.672C217.193 262.585 217.132 262.509 217.054 262.455C216.749 262.284 216.421 262.158 216.08 262.08C215.77 261.98 215.454 261.897 215.134 261.83C214.745 261.74 214.376 261.615 214.063 261.518C213.336 261.308 212.68 260.905 212.165 260.351C211.974 260.115 211.833 259.844 211.751 259.553C211.668 259.261 211.646 258.956 211.685 258.656C211.752 258.223 211.935 257.816 212.214 257.477C212.493 257.139 212.858 256.881 213.271 256.732C214.476 256.247 215.792 256.103 217.075 256.315C217.781 256.394 218.479 256.536 219.161 256.739C219.695 256.894 220.216 257.091 220.719 257.329L220.475 259.517L220.197 259.483C219.719 259.132 219.198 258.845 218.646 258.628C218.072 258.385 217.465 258.226 216.845 258.156C216.405 258.096 215.958 258.113 215.524 258.204C215.155 258.288 214.96 258.448 214.94 258.67C214.925 258.763 214.935 258.858 214.97 258.946C215.004 259.034 215.061 259.111 215.134 259.17C215.468 259.383 215.838 259.531 216.226 259.608C216.546 259.712 216.922 259.795 217.269 259.885C217.617 259.976 218.006 260.094 218.375 260.219C219.054 260.416 219.667 260.793 220.148 261.309C220.335 261.531 220.47 261.791 220.544 262.071C220.619 262.35 220.631 262.643 220.58 262.928Z" fill="#332066"/>
<path d="M231.866 263.046L224.558 262.233C224.529 262.544 224.578 262.856 224.699 263.143C224.82 263.431 225.011 263.683 225.253 263.88C225.946 264.367 226.764 264.646 227.61 264.685C228.277 264.759 228.951 264.723 229.606 264.581C230.151 264.492 230.679 264.318 231.171 264.067H231.533L231.289 266.29C230.604 266.451 229.906 266.556 229.203 266.602C228.493 266.645 227.781 266.626 227.075 266.547C225.45 266.47 223.89 265.884 222.617 264.873C222.139 264.435 221.778 263.885 221.565 263.272C221.353 262.66 221.296 262.005 221.4 261.365C221.443 260.722 221.635 260.097 221.961 259.54C222.287 258.983 222.738 258.509 223.278 258.156C224.56 257.389 226.075 257.106 227.548 257.357C229.175 257.538 230.33 258.017 231.074 258.823C231.448 259.256 231.722 259.766 231.876 260.317C232.03 260.869 232.06 261.447 231.964 262.011L231.853 262.997L231.866 263.046ZM228.876 261.08C228.912 260.843 228.9 260.6 228.841 260.368C228.781 260.135 228.675 259.917 228.528 259.726C228.154 259.361 227.66 259.146 227.138 259.121C226.607 259.041 226.065 259.129 225.587 259.372C225.362 259.502 225.171 259.684 225.031 259.903C224.891 260.121 224.805 260.37 224.78 260.629L228.89 261.08H228.876Z" fill="#332066"/>
<path d="M236.151 267.366L232.959 267.012L234.273 255.065L237.465 255.412L236.151 267.366Z" fill="#332066"/>
<path d="M248.62 264.887L241.318 264.081C241.289 264.392 241.338 264.706 241.459 264.994C241.581 265.282 241.771 265.536 242.013 265.734C242.706 266.221 243.524 266.501 244.371 266.54C245.037 266.61 245.711 266.575 246.367 266.436C246.911 266.343 247.438 266.17 247.931 265.922L248.293 265.956L248.05 268.179C247.364 268.34 246.666 268.445 245.963 268.492C245.254 268.534 244.542 268.516 243.835 268.436C241.832 268.214 240.358 267.651 239.378 266.755C238.904 266.322 238.544 265.777 238.332 265.171C238.12 264.565 238.061 263.916 238.161 263.282C238.204 262.639 238.396 262.014 238.721 261.457C239.047 260.9 239.498 260.426 240.038 260.073C241.32 259.306 242.835 259.023 244.308 259.274C245.622 259.318 246.874 259.836 247.834 260.733C248.208 261.167 248.482 261.679 248.636 262.231C248.79 262.784 248.82 263.363 248.724 263.928L248.613 264.914L248.62 264.887ZM245.629 262.928C245.666 262.69 245.654 262.448 245.594 262.215C245.534 261.982 245.428 261.764 245.282 261.573C244.908 261.209 244.413 260.994 243.891 260.969C243.361 260.889 242.818 260.976 242.34 261.219C242.114 261.348 241.922 261.529 241.781 261.748C241.641 261.967 241.556 262.217 241.533 262.476L245.643 262.928H245.629Z" fill="#332066"/>
<path d="M254.852 269.659C254.052 269.577 253.266 269.4 252.508 269.131C251.858 268.897 251.255 268.549 250.728 268.103C250.258 267.675 249.891 267.145 249.657 266.554C249.432 265.898 249.361 265.199 249.449 264.511C249.499 263.786 249.739 263.087 250.144 262.483C250.518 261.932 251.022 261.481 251.611 261.17C252.218 260.849 252.882 260.649 253.566 260.58C254.3 260.49 255.043 260.49 255.777 260.58C256.406 260.645 257.026 260.778 257.627 260.976C258.162 261.16 258.679 261.392 259.171 261.671L258.913 264.032L258.461 263.984C258.329 263.853 258.19 263.73 258.044 263.615C257.855 263.453 257.653 263.306 257.439 263.178C257.198 263.033 256.944 262.91 256.681 262.81C256.363 262.692 256.031 262.617 255.694 262.587C255.345 262.51 254.984 262.511 254.636 262.591C254.288 262.67 253.962 262.826 253.682 263.046C253.401 263.267 253.174 263.547 253.015 263.867C252.857 264.186 252.772 264.537 252.766 264.894C252.703 265.237 252.714 265.591 252.799 265.93C252.884 266.269 253.041 266.586 253.26 266.859C253.768 267.382 254.457 267.692 255.186 267.728C255.549 267.769 255.915 267.769 256.278 267.728C256.558 267.693 256.834 267.625 257.098 267.526C257.295 267.462 257.484 267.375 257.662 267.269C257.817 267.182 257.968 267.087 258.114 266.984L258.566 267.033L258.308 269.395C257.777 269.54 257.235 269.647 256.688 269.714C256.076 269.758 255.461 269.739 254.852 269.659Z" fill="#332066"/>
<path d="M266.229 270.569C265.86 270.613 265.488 270.631 265.117 270.624C264.713 270.624 264.261 270.589 263.691 270.527C262.716 270.491 261.774 270.159 260.993 269.575C260.698 269.271 260.484 268.899 260.368 268.491C260.253 268.084 260.241 267.655 260.332 267.241L260.777 263.213L259.477 263.074L259.678 261.198L260.979 261.344L261.25 258.871L264.442 259.219L264.171 261.691L267.168 262.025L266.959 263.893L263.983 263.567L263.642 266.623L263.559 267.415C263.533 267.627 263.561 267.842 263.642 268.04C263.715 268.237 263.852 268.404 264.032 268.513C264.301 268.667 264.604 268.755 264.915 268.77C265.132 268.796 265.351 268.796 265.569 268.77C265.768 268.756 265.964 268.716 266.153 268.651L266.417 268.686L266.208 270.589L266.229 270.569Z" fill="#332066"/>
<path d="M172.477 258.322L172.783 255.544L172.992 253.648L173.249 251.3L173.472 249.251L170.286 248.904L169.062 260.017L172.255 260.372L172.477 258.322Z" fill="#332066"/>
<path d="M179.626 254.787C179.257 254.028 178.758 253.339 178.152 252.752L177.909 252.53L174.64 252.175L174.543 253.092L174.807 253.28C175.06 253.463 175.293 253.672 175.502 253.905C175.726 254.132 175.915 254.389 176.066 254.669C176.232 254.954 176.361 255.26 176.448 255.579C176.526 255.911 176.545 256.254 176.504 256.593C176.474 256.934 176.38 257.267 176.226 257.572C176.072 257.863 175.883 258.134 175.662 258.378C175.458 258.615 175.225 258.826 174.967 259.003C174.709 259.179 174.437 259.332 174.153 259.462L173.854 259.608L173.75 260.525L177.032 260.886L177.304 260.719C178.034 260.285 178.678 259.72 179.202 259.052C179.646 258.455 179.923 257.75 180.002 257.01C180.074 256.249 179.945 255.482 179.626 254.787Z" fill="#332066"/>
<path d="M298.107 176.796C264.803 205.275 198.827 188.334 178.068 150.054L206.95 133.73L214.161 108.676L274.664 121.873L270.401 150.95L298.107 176.796Z" fill="#F8895D"/>
<path d="M209.439 125.055L214.161 108.669L274.664 121.867L272.188 138.746C249.976 170.003 215.01 155.729 209.439 125.055Z" fill="#332066"/>
<path d="M216.213 67.1103C214.943 64.9736 213.413 63.0021 211.658 61.2408C211.025 60.6296 210.267 60.0183 209.37 60.1434C208.651 60.3336 208.033 60.794 207.646 61.4284C205.879 63.8874 204.543 66.6285 203.695 69.5345C203.111 71.1841 202.76 72.9072 202.652 74.6538C202.651 76.1057 202.786 77.5545 203.056 78.9812L204.349 87.2679C204.445 88.2825 204.726 89.271 205.177 90.1852C205.789 91.1668 206.763 91.8681 207.889 92.1372C209.015 92.4064 210.202 92.2216 211.192 91.6231" fill="#F8895D"/>
<path d="M209.446 63.9914C208.751 64.0609 208.278 64.7764 207.965 65.4223C205.696 70.0851 204.553 75.2142 204.627 80.3981C204.573 81.4631 204.791 82.5242 205.26 83.4822C205.504 83.9565 205.896 84.3385 206.376 84.5704C206.857 84.8023 207.4 84.8714 207.923 84.7672C208.046 84.5665 208.091 84.3281 208.05 84.0966C208.009 83.8652 207.885 83.6566 207.701 83.51C207.319 83.2299 206.922 82.9702 206.512 82.732C205.121 81.7109 205.281 79.6549 205.573 77.9739C206.053 75.258 206.644 72.4171 208.445 70.3332C209.335 69.2983 210.796 68.1452 211.06 66.7213C211.248 65.7349 210.754 63.8734 209.446 63.9914Z" fill="#332066"/>
<path d="M211.033 76.3974C211.15 76.7089 211.304 77.0051 211.492 77.2795C211.71 77.6619 211.841 78.0872 211.877 78.5257C211.913 78.9641 211.853 79.4052 211.701 79.8179C211.548 80.2307 211.308 80.6053 210.995 80.9155C210.683 81.2257 210.307 81.464 209.893 81.6139C209.548 81.7645 209.161 81.7891 208.801 81.6833C208.448 81.5053 208.172 81.2068 208.021 80.8422C207.87 80.4776 207.856 80.0712 207.98 79.6968C208.243 78.9546 208.578 78.2403 208.982 77.5643C209.413 76.6405 209.566 75.6124 209.92 74.6608C210.171 73.9662 211.652 71.5698 212.563 72.6604C213.377 73.6328 210.706 75.1123 211.033 76.3974Z" fill="#332066"/>
<path d="M296.46 87.9974C298.235 87.4787 300.023 87.0272 301.821 86.6429C302.325 86.4945 302.856 86.4659 303.372 86.5595C304.624 86.8721 305.229 88.4836 304.881 89.7339C299.158 110.406 292.829 114.427 291.32 115.657C288.761 117.741 287.363 117.115 284.088 116.733" fill="#F8895D"/>
<path d="M300.812 90.2409C301.063 90.0255 301.362 89.7685 301.688 89.838C302.015 89.9074 302.238 90.4701 302.238 90.9077C302.238 93.1374 301.542 95.3115 300.847 97.4301C300.477 98.6792 300.012 99.8983 299.456 101.077C299.057 102.013 298.364 102.793 297.481 103.3C297.432 103.164 297.415 103.018 297.432 102.875C297.449 102.731 297.499 102.594 297.578 102.473C298.816 99.5625 300.882 96.791 300.701 93.6306C300.714 93.4547 300.684 93.2784 300.612 93.1172C300.54 92.956 300.43 92.815 300.291 92.7067C299.665 92.3594 297.794 93.2833 298.044 92.0469C298.163 91.4009 300.298 90.6646 300.812 90.2409Z" fill="#332066"/>
<path d="M293.879 104.154C293.852 104.793 293.639 105.411 293.267 105.932C293.09 106.142 292.843 106.28 292.571 106.321C292.495 106.341 292.416 106.346 292.338 106.334C292.26 106.322 292.186 106.294 292.119 106.252C292.061 106.201 292.013 106.14 291.978 106.07C291.943 106.001 291.923 105.926 291.918 105.849C291.799 105.154 292.21 104.46 292.349 103.765C292.425 103.369 292.766 101.619 293.427 101.681C294.087 101.744 293.934 103.64 293.879 104.154Z" fill="#332066"/>
<path d="M224.349 40.6943C224.349 40.6943 218.034 59.3446 216.31 65.7003C214.585 72.056 210.503 91.5745 210.503 91.5745C210.503 91.5745 207.923 102.591 208.271 106.293C208.966 114.059 226.352 139.503 226.352 139.503C230.399 144.073 241.366 145.754 247.465 146.039C247.465 146.039 264.997 142.698 271.242 137.071C276.019 132.716 282.278 121.005 285.06 115.191C288.336 108.44 294.4 94.6794 296.674 87.5319C298.864 80.6553 302.933 59.3655 302.933 59.3655C305.332 47.5571 290.533 29.7959 273.224 25.0378C254.169 19.8144 233.89 20.7174 224.349 40.6943Z" fill="#F8895D"/>
<path d="M236.38 11.1109C238.849 8.24913 241.554 5.49847 244.878 3.69249C248.202 1.8865 252.236 1.09465 255.817 2.30327C257.549 2.88674 259.294 3.92865 261.061 3.60913C262.117 3.30809 263.117 2.839 264.023 2.21991C266.966 0.602867 270.427 0.203812 273.662 1.10854C276.764 1.99069 279.448 4.01895 282.577 4.78997C285.22 5.4429 288.141 5.1859 290.512 6.56122C292.167 7.51979 293.294 9.17296 294.88 10.2774C296.187 11.1873 297.738 11.6666 299.101 12.521C304.059 15.5356 305.513 22.051 305.652 27.851C307.084 27.3231 308.712 28.365 309.372 29.7334C310.033 31.1018 309.984 32.6994 309.922 34.2275C309.546 43.2088 309.157 52.2874 307.077 61.0047C305.39 67.6939 303.004 74.1871 299.956 80.3774C298.83 82.746 298.357 85.4411 297.174 87.8028L296.583 88.0112C296.583 88.0112 295.471 90.1992 294.692 90.477L297.077 76.9738C298.468 69.0761 299.859 61.0881 299.344 53.0931C299.261 51.8151 299.024 50.3703 297.953 49.6687C297.121 49.2559 296.182 49.1057 295.262 49.2381C293.529 49.3866 291.784 49.164 290.144 48.5851C289.329 48.2818 288.608 47.7698 288.054 47.1005C287.5 46.4312 287.132 45.6281 286.986 44.7717C286.722 42.0766 289.344 39.2565 287.967 36.9296C287.23 35.6862 285.658 35.2556 284.239 34.9777C282.054 34.6619 279.915 34.0835 277.869 33.2551C275.873 32.3243 274.072 30.7059 273.502 28.5804C272.034 29.5163 270.271 29.8766 268.553 29.5919C266.836 29.3072 265.284 28.3976 264.197 27.0383C263.447 28.3082 262.369 29.3538 261.076 30.0658C259.784 30.7778 258.323 31.1302 256.848 31.0862C255.372 31.0422 253.935 30.6034 252.687 29.8157C251.439 29.0279 250.426 27.92 249.753 26.6077C246.716 28.622 243.107 29.597 239.468 29.3861C238.425 29.2201 237.361 29.2531 236.331 29.4833C235.67 29.7349 235.059 30.1044 234.53 30.5739C229.662 34.5262 226.783 40.4373 224.724 46.3693C222.861 51.7456 221.247 62.9705 217.596 67.4438C217.123 68.0272 216.073 67.5063 216.052 66.7492L215.037 65.2071C215.037 65.2071 215.232 60.1712 215.239 59.164C215.343 48.342 220.295 36.4711 225.364 27.1078C228.447 21.394 232.141 16.0305 236.38 11.1109Z" fill="#FEDAC9"/>
<path d="M217.541 95.2004C216.692 89.7199 217.541 73.6675 220.197 62.387C220.197 61.9842 216.289 66.0824 216.31 65.6725C214.564 72.0699 210.503 91.5468 210.503 91.5468C210.503 91.5468 207.923 102.563 208.271 106.266C208.966 114.031 219.078 134.606 224.265 140.447C228.313 145.018 240.914 147.935 247.013 148.241C255.407 148.658 265.018 142.684 271.263 137.044C276.019 132.716 282.278 121.005 285.06 115.191C285.797 113.677 296.187 89.8589 297.154 87.7959L295.888 83.6282C293.975 92.0538 286.694 106.946 285.06 109.739C282.758 113.726 280.7 116.893 276.979 119.373C276.557 119.648 276.069 119.805 275.565 119.824C275.061 119.844 274.562 119.727 274.12 119.485C273.678 119.243 273.31 118.886 273.055 118.451C272.801 118.017 272.669 117.521 272.674 117.018C272.869 103.716 261.895 101.973 256.68 99.8474C253.717 98.6526 247.5 96.5063 244.822 95.6797C240.198 94.2905 231.477 92.4567 222.854 97.6941C222.356 97.9927 221.793 98.1644 221.214 98.194C220.634 98.2236 220.056 98.1101 219.531 97.8636C219.006 97.6171 218.549 97.2452 218.202 96.7807C217.855 96.3162 217.628 95.7734 217.541 95.2004Z" fill="#FEDAC9"/>
<path d="M267.897 112.274L257.584 115.386L237.235 109.593L232.479 101.952L239.718 102.237L255.143 106.286L267.897 112.274Z" fill="#332066"/>
<path d="M264.893 110.475C264.893 110.475 264.476 112.01 263.37 112.114C254.483 112.962 241.603 108.342 236.853 104.703C236.269 104.258 235.518 103.779 235.678 103.056L235.887 102.084L239.753 102.237L255.157 106.286L264.893 110.475Z" fill="white"/>
<path d="M267.897 112.274C256.033 114.476 240.344 111.524 232.479 101.952C233.348 110.009 240.01 115.024 247.472 116.539C256.137 118.296 264.482 116.629 267.897 112.274Z" fill="#ED704F"/>
<path d="M250.567 103.751C251.186 103.952 252.945 103.966 254.301 104.446C256.666 105.237 264.635 108.69 267.897 112.295C262.89 110.093 253.063 106.967 249.364 105.89C246.165 104.96 238.849 102.647 232.479 101.973C235.817 100.625 242.973 101.216 247.117 102.167C248.772 102.521 250.052 103.591 250.567 103.751Z" fill="#DB663E"/>
<path d="M244.67 90.2479C245.116 89.8889 245.629 89.6223 246.18 89.4637C246.73 89.3051 247.307 89.2576 247.876 89.3241C249.073 89.4302 250.204 89.9172 251.103 90.7133C251.559 91.133 251.942 91.626 252.236 92.172C252.399 92.4899 252.507 92.8327 252.556 93.1861C252.625 93.6205 252.554 94.0654 252.354 94.4572C252.242 94.6724 252.081 94.8584 251.885 95.0007C251.688 95.1429 251.461 95.2375 251.221 95.2769C251.01 95.3091 250.794 95.2954 250.589 95.2366C250.384 95.1779 250.194 95.0755 250.032 94.9365C249.895 94.8253 249.787 94.6822 249.719 94.5197C249.65 94.3573 249.622 94.1805 249.638 94.0049C249.654 93.8294 249.713 93.6603 249.809 93.5127C249.906 93.3651 250.037 93.2434 250.192 93.1583C249.997 93.6862 250.365 94.1308 250.588 94.0752C250.641 94.0759 250.693 94.065 250.741 94.0434C250.789 94.0218 250.832 93.99 250.866 93.9502C250.922 93.8807 250.866 93.846 250.866 93.7974C250.782 93.569 250.67 93.352 250.532 93.1514C250.288 92.8277 250.013 92.5277 249.712 92.2553C249.07 91.6731 248.334 91.2034 247.535 90.8661C246.619 90.5082 245.652 90.2995 244.67 90.2479Z" fill="#332066"/>
<path d="M262.618 96.159C261.629 96.165 260.644 96.0341 259.69 95.77C258.779 95.5547 257.917 95.3116 257.145 95.2074C257.048 95.2074 256.95 95.2074 256.86 95.2074H256.721H256.651C256.591 95.2191 256.532 95.2402 256.478 95.2699C256.194 95.4259 255.937 95.6277 255.72 95.8673C255.671 95.909 255.629 95.9645 255.615 95.9576C255.601 95.9506 255.615 95.9576 255.615 95.9229C255.619 95.8882 255.619 95.8533 255.615 95.8187C255.607 95.78 255.592 95.7433 255.569 95.711C255.546 95.6787 255.517 95.6515 255.483 95.6311C255.379 95.6311 255.553 95.7978 255.699 95.8881C255.869 96.0031 256.053 96.0942 256.248 96.159C256.47 96.2433 256.709 96.2696 256.943 96.2354C256.808 96.4895 256.586 96.6867 256.318 96.7911C256.043 96.9009 255.751 96.962 255.455 96.9717C255.294 96.973 255.132 96.9543 254.975 96.9161C254.762 96.8722 254.565 96.7714 254.405 96.6244C254.252 96.4981 254.144 96.3248 254.099 96.1312C254.092 96.0666 254.092 96.0014 254.099 95.9367V95.8256C254.094 95.7562 254.094 95.6866 254.099 95.6172C254.133 95.424 254.189 95.2353 254.266 95.0546C254.518 94.4726 254.924 93.9705 255.441 93.6029C255.777 93.3568 256.174 93.2078 256.589 93.1722C256.684 93.1614 256.779 93.1614 256.874 93.1722H257.09C257.229 93.1834 257.369 93.202 257.507 93.2278C258.527 93.4195 259.498 93.8114 260.365 94.3808C261.172 94.8992 261.927 95.4947 262.618 96.159Z" fill="#332066"/>
<path d="M255.158 66.8533C255.587 68.1181 255.785 69.4498 255.742 70.7848C255.723 72.1235 255.544 73.4552 255.206 74.751C254.868 76.0569 254.336 77.3049 253.628 78.4533C252.945 79.6211 251.957 80.5814 250.77 81.2317C251.544 80.2194 252.182 79.1102 252.668 77.9323C253.148 76.7731 253.547 75.5826 253.864 74.3689C254.177 73.1534 254.448 71.9239 254.664 70.6667C254.88 69.4094 255.019 68.173 255.158 66.8533Z" fill="#332066"/>
<path d="M241.625 69.8888C243.303 69.8888 244.664 68.5297 244.664 66.8533C244.664 65.1769 243.303 63.8179 241.625 63.8179C239.947 63.8179 238.586 65.1769 238.586 66.8533C238.586 68.5297 239.947 69.8888 241.625 69.8888Z" fill="#332066"/>
<path d="M247.354 70.8752C246.873 69.6544 246.147 68.5455 245.219 67.6175C244.375 66.7551 243.374 66.0619 242.27 65.5753C241.213 65.1024 240.045 64.9317 238.897 65.0822C237.625 65.326 236.419 65.8348 235.357 66.5756C235.641 65.8807 236.063 65.2504 236.597 64.7227C237.131 64.1951 237.767 63.781 238.466 63.5054C239.97 62.9465 241.634 63.0014 243.098 63.6582C244.512 64.2791 245.705 65.3132 246.519 66.6242C247.347 67.8761 247.647 69.4037 247.354 70.8752Z" fill="#332066"/>
<path d="M277.396 82.2667C279.075 82.2667 280.436 80.9077 280.436 79.2312C280.436 77.5548 279.075 76.1958 277.396 76.1958C275.718 76.1958 274.357 77.5548 274.357 79.2312C274.357 80.9077 275.718 82.2667 277.396 82.2667Z" fill="#332066"/>
<path d="M283.121 83.2531C282.186 80.8924 280.365 78.9903 278.045 77.9533C276.988 77.4804 275.82 77.3096 274.672 77.4601C273.398 77.705 272.19 78.2137 271.125 78.9535C271.409 78.2586 271.83 77.6283 272.365 77.1007C272.899 76.573 273.535 76.1589 274.234 75.8833C275.738 75.3244 277.401 75.3793 278.865 76.0361C280.279 76.6571 281.472 77.6911 282.287 79.0021C283.118 80.2526 283.418 81.7817 283.121 83.2531Z" fill="#332066"/>
<path d="M270.532 68.0828C271.513 69.0969 273.036 69.2983 274.434 69.472C278.356 69.9721 282.313 70.7362 285.832 72.5422C289.351 74.3482 292.431 77.3141 293.621 81.0789C294.754 77.0919 292.772 72.7436 289.657 69.9652C286.541 67.1867 282.473 65.86 278.46 64.8251C276.457 64.3041 273.481 63.4358 271.45 64.2694C271.08 64.3969 270.749 64.6154 270.486 64.9048C270.223 65.1941 270.037 65.5449 269.945 65.9249C269.854 66.3049 269.86 66.7017 269.962 67.0789C270.065 67.456 270.261 67.8012 270.532 68.0828Z" fill="#FEDAC9"/>
<path d="M250.573 63.0817C254.426 64.978 255.803 60.7895 255.268 59.8657C252.667 55.3437 245.267 53.2669 240.086 53.1974C234.133 53.121 228.793 55.441 226.352 57.9555C226.352 57.9555 232.868 56.6357 238.049 57.6915C242.639 58.6223 246.575 61.109 250.573 63.0817Z" fill="#FEDAC9"/>
</svg>
