<svg width="251" height="334" viewBox="0 0 251 334" fill="none" xmlns="http://www.w3.org/2000/svg">
<path d="M250.259 315.941V318.554C250.261 320.506 249.877 322.44 249.129 324.244C248.382 326.048 247.285 327.688 245.902 329.069C244.519 330.45 242.877 331.545 241.07 332.292C239.263 333.039 237.325 333.423 235.369 333.422H219.904V301.073H235.369C239.319 301.075 243.106 302.642 245.898 305.43C248.69 308.218 250.259 311.999 250.259 315.941Z" fill="#7C3AED"/>
<path d="M250.26 125.036V315.941C250.26 311.999 248.691 308.218 245.899 305.43C243.107 302.642 239.32 301.075 235.37 301.073H14.9833C11.0343 301.073 7.24712 299.507 4.45479 296.72C1.66246 293.934 0.09375 290.154 0.09375 286.212C0.09375 282.271 1.66246 278.491 4.45479 275.704C7.24712 272.917 11.0343 271.352 14.9833 271.352H30.4483V110.197H235.37C239.315 110.197 243.099 111.76 245.891 114.542C248.683 117.324 250.254 121.099 250.26 125.036Z" fill="#FEFDFF"/>
<path d="M250.26 125.036V315.941C250.26 311.999 248.691 308.218 245.899 305.43C243.107 302.642 239.32 301.075 235.37 301.073H14.9833C11.0343 301.073 7.24712 299.507 4.45479 296.72C1.66246 293.934 0.09375 290.154 0.09375 286.212C0.09375 282.271 1.66246 278.491 4.45479 275.704C7.24712 272.917 11.0343 271.352 14.9833 271.352H30.4483V110.197H235.37C239.315 110.197 243.099 111.76 245.891 114.542C248.683 117.324 250.254 121.099 250.26 125.036Z" fill="#FEDAC9"/>
<path d="M30.4476 77.8341V271.352H14.9827C13.0265 271.35 11.0891 271.733 9.28136 272.479C7.47362 273.225 5.83099 274.32 4.44742 275.7C3.06384 277.08 1.96649 278.719 1.2181 280.523C0.469717 282.327 0.0849928 284.26 0.0859392 286.212V92.6947C0.0849928 90.7423 0.469717 88.8089 1.2181 87.005C1.96649 85.2012 3.06384 83.5622 4.44742 82.182C5.83099 80.8018 7.47362 79.7074 9.28136 78.9613C11.0891 78.2153 13.0265 77.8322 14.9827 77.8341H30.4476Z" fill="#7BE0AD"/>
<path d="M199.089 183.861L177.121 179.704L169.734 200.775L143.99 156.272L173.345 139.358L199.089 183.861Z" fill="#D0CFEC"/>
<path d="M182.89 155.856C182.89 155.856 171.813 155.253 168.986 157.22C164.073 160.644 164.044 174.564 154.888 175.095L143.99 156.272L173.345 139.358L182.89 155.856Z" fill="#332066"/>
<path d="M78.4473 183.861L100.422 179.704L107.802 200.775L133.546 156.272L104.191 139.358L78.4473 183.861Z" fill="#D0CFEC"/>
<path d="M95.7168 153.989C95.7168 153.989 106.434 153.716 109.304 155.576C115.426 159.531 112.728 172.698 124.043 172.683L133.545 156.251L104.176 139.358L95.7168 153.989Z" fill="#332066"/>
<path d="M194.442 117.01C194.442 122.466 183.738 126.156 182.134 131.081C180.48 136.178 186.91 145.439 183.81 149.682C180.71 153.925 169.856 150.708 165.562 153.824C161.267 156.94 161.088 168.182 155.981 169.876C151.053 171.47 144.234 162.511 138.768 162.511C133.301 162.511 126.475 171.47 121.562 169.876C116.455 168.218 116.232 156.954 111.981 153.824C107.73 150.694 96.8756 153.968 93.725 149.682C90.5745 145.396 97.0626 136.178 95.401 131.081C93.8041 126.156 83.0938 122.466 83.0938 117.01C83.0938 111.554 93.8041 107.871 95.401 102.946C97.0626 97.8492 90.632 88.5883 93.725 84.3455C96.818 80.1027 107.687 83.3189 111.981 80.2032C116.275 77.0875 116.455 65.8451 121.562 64.1509C126.489 62.5571 133.308 71.5166 138.768 71.5166C144.227 71.5166 151.053 62.5571 155.981 64.1509C161.088 65.8092 161.311 77.0731 165.562 80.2032C169.813 83.3332 180.667 80.0596 183.81 84.3455C186.954 88.6313 180.48 97.8492 182.134 102.946C183.738 107.871 194.442 111.561 194.442 117.01Z" fill="#F6AE2D"/>
<path d="M138.768 149.983C157.014 149.983 171.805 135.221 171.805 117.01C171.805 98.7994 157.014 84.0367 138.768 84.0367C120.522 84.0367 105.73 98.7994 105.73 117.01C105.73 135.221 120.522 149.983 138.768 149.983Z" fill="#FEFDFF"/>
<path d="M138.768 149.983C157.014 149.983 171.805 135.221 171.805 117.01C171.805 98.7994 157.014 84.0367 138.768 84.0367C120.522 84.0367 105.73 98.7994 105.73 117.01C105.73 135.221 120.522 149.983 138.768 149.983Z" fill="#7C3AED"/>
<path d="M134.882 129.293V97.5836H123.719V136.35H134.882V129.293Z" fill="white"/>
<path d="M158.253 114.382C156.694 111.898 154.704 109.71 152.376 107.921L151.455 107.261H140.033V110.47L141.018 111.03C141.938 111.569 142.8 112.199 143.593 112.911C144.443 113.625 145.198 114.445 145.838 115.352C146.51 116.278 147.066 117.284 147.492 118.345C147.888 119.466 148.088 120.646 148.082 121.834C148.098 123.026 147.898 124.21 147.492 125.33C147.069 126.394 146.513 127.4 145.838 128.324C145.188 129.223 144.435 130.042 143.593 130.765C142.766 131.463 141.883 132.092 140.954 132.646L139.961 133.256V136.472H151.47L152.326 135.805C154.677 134.023 156.689 131.834 158.267 129.344C159.574 127.106 160.257 124.56 160.245 121.971C160.264 119.31 159.576 116.692 158.253 114.382Z" fill="white"/>
<path d="M138.846 0.939575L147.01 17.4513L165.273 20.1004L152.059 32.9508L155.174 51.0994L138.846 42.5276L122.518 51.0994L125.639 32.9508L112.426 20.1004L130.682 17.4513L138.846 0.939575Z" fill="#F6AE2D"/>
<path d="M214.92 41.0847L223.091 57.5965L241.347 60.2455L228.133 73.096L231.255 91.2374L214.92 82.6728L198.592 91.2374L201.714 73.096L188.5 60.2455L206.763 57.5965L214.92 41.0847Z" fill="#F6AE2D"/>
<path d="M62.7734 41.0847L70.9375 57.5965L89.1934 60.2455L75.987 73.096L79.1016 91.2374L62.7734 82.6728L46.4453 91.2374L49.5671 73.096L36.3535 60.2455L54.6094 57.5965L62.7734 41.0847Z" fill="#F6AE2D"/>
<path d="M70.8438 231.874H207.166" stroke="#FEFDFF" stroke-width="3" stroke-miterlimit="10"/>
<path d="M70.8438 242.183H207.166" stroke="#FEFDFF" stroke-width="3" stroke-miterlimit="10"/>
<path d="M70.8438 252.5H207.166" stroke="#FEFDFF" stroke-width="3" stroke-miterlimit="10"/>
<path d="M70.8438 262.809H207.166" stroke="#FEFDFF" stroke-width="3" stroke-miterlimit="10"/>
<path d="M70.8438 273.125H207.166" stroke="#FEFDFF" stroke-width="3" stroke-miterlimit="10"/>
</svg>
