<svg width="593" height="330" viewBox="0 0 593 330" fill="none" xmlns="http://www.w3.org/2000/svg">
<path d="M60.3084 255.284C32.5258 252.025 7.99811 229.81 2.05508 202.508C-3.88795 175.206 9.16056 144.82 33.0707 130.32C46.4534 122.206 63.8248 119.085 77.8614 125.965C93.3002 133.571 101.401 151.983 100.326 169.139C100.035 173.755 98.7129 178.995 94.5571 181.034C89.188 183.683 83.0125 179.256 79.3435 174.502C66.9925 158.536 64.5949 136.764 67.7917 116.814C69.9713 103.3 74.7446 89.7147 84.3493 79.9535C96.2063 67.9063 113.905 63.2616 130.847 63.131C147.79 63.0004 164.406 66.8395 181.131 69.3505C247.703 79.3294 332.249 86.6448 376.996 36.424C397.223 13.723 340.75 8.6864 352.883 46.7947C357.663 61.7811 368.685 74.4162 383.673 79.2423C398.662 84.0684 414.812 83.1177 430.527 82.1452L496.387 77.9215C507.925 77.1957 554.212 80.418 566.134 112.437C571.692 127.373 568.597 189.365 559.305 202.291C555.956 206.964 551.437 211.188 545.813 212.451C540.19 213.714 533.462 210.999 531.697 205.506C529.96 200.15 533.651 194.126 538.773 191.775C543.895 189.423 549.933 190.055 555.294 191.775C577.461 198.93 590.495 223.155 591.723 246.393C592.74 265.604 586.325 286.222 570.908 297.746C555.491 309.271 537.342 312.573 526.379 296.767C517.98 284.654 515.982 257.991 509.726 249.594C471.947 198.793 449.613 290.235 439.1 297.884C410.359 318.858 371.533 322.298 336.899 314.206C302.265 306.114 270.937 287.688 241.382 267.861" stroke="#7C3AED" stroke-miterlimit="10" stroke-dasharray="12 12"/>
<path d="M219.76 115.334C221.213 121.633 217.733 134.58 216.237 135.262C214.965 135.85 208.724 133.659 207.249 127.947C205.949 122.947 206.399 117.787 207.155 116.8C208.376 115.196 219.731 115.203 219.76 115.334Z" fill="#332066"/>
<path d="M278.936 199.01C248.269 186.789 222.55 169.19 208.238 139.173C213.454 132.337 219.957 124.499 219.339 112.365C219.121 108.01 216.803 96.7324 216.803 96.7324L288.214 125.878C272.826 156.576 276.815 172.158 278.936 199.01Z" fill="#FEA394"/>
<path d="M226.016 124.818L278.66 151.75L283.601 156.446L278.871 159.704C254.154 168.145 226.016 124.818 226.016 124.818Z" fill="#332066"/>
<path d="M369.332 329.7C368.678 306.041 372.877 189.169 357.344 178.022C349.715 172.542 340.633 167.375 331.835 162.825C323.4 158.471 314.609 154.842 305.825 151.213C301.023 149.232 296.213 147.251 291.295 145.567C277.244 147.483 272.456 157.992 270.821 162.484C270.523 163.289 269.753 165.583 269.499 166.403L265.568 178.965C264.174 174.072 262.298 169.329 259.967 164.806C259.271 163.31 258.35 161.93 257.235 160.713C255.72 159.366 254.004 158.264 252.149 157.447C241.309 151.874 231.421 144.645 221.584 137.446C218.039 134.855 214.457 132.228 211.667 128.839C208.877 125.45 206.915 121.175 207.177 116.799C201.59 122.554 196.911 129.499 195.24 137.337L196.272 139.333C178.631 144.719 161.326 151.146 144.448 158.579C136.456 162.085 127.614 165.902 123.662 173.646C109.168 202.007 73.8728 329.679 73.8728 329.679L369.332 329.7Z" fill="#7BE0AD"/>
<path d="M195.218 137.324C197.754 141.541 200.514 145.59 203.435 149.517C206.356 153.443 209.451 157.217 212.669 160.889C215.888 164.561 219.244 168.11 222.754 171.506C226.263 174.903 229.859 178.198 233.652 181.304L232.126 181.79C232.702 179.893 233.368 178.036 234.124 176.216C234.85 174.387 235.693 172.588 236.609 170.853C238.4 167.356 240.535 164.045 242.98 160.969C241.021 164.349 239.267 167.844 237.727 171.434C236.981 173.219 236.286 175.024 235.642 176.848C235.017 178.669 234.458 180.513 233.942 182.371L233.564 183.742L232.416 182.857C228.506 179.821 224.773 176.564 221.235 173.103C217.694 169.651 214.336 166.017 211.173 162.217C207.999 158.43 205.054 154.458 202.353 150.322C199.624 146.191 197.238 141.843 195.218 137.324Z" fill="#332066"/>
<path d="M273.444 165.801C275.276 165.86 277.078 166.279 278.748 167.035C280.475 167.82 281.99 169.007 283.165 170.497C284.336 171.99 285.218 173.688 285.766 175.504C286.294 177.277 286.645 179.098 286.812 180.94L284.93 180.301C286.171 178.998 287.288 177.581 288.265 176.07C289.265 174.561 290.133 172.968 290.859 171.309C291.596 169.643 292.182 167.913 292.61 166.142C293.048 164.34 293.318 162.501 293.416 160.648C293.768 162.516 293.851 164.425 293.663 166.316C293.476 168.227 293.069 170.109 292.45 171.926C291.824 173.753 291.008 175.509 290.016 177.166C289.008 178.819 287.837 180.368 286.521 181.789L284.85 183.596L284.64 181.15C284.515 179.434 284.23 177.734 283.79 176.07C283.376 174.443 282.704 172.892 281.799 171.476C280.864 170.069 279.65 168.869 278.232 167.949C276.748 167.005 275.135 166.282 273.444 165.801Z" fill="#332066"/>
<path d="M264.798 182.217C263.774 186.607 262.618 190.926 262.786 195.316C262.849 197.519 263.031 199.716 263.33 201.899C263.599 204.076 263.919 206.326 264.166 208.583C264.385 210.85 264.485 213.127 264.464 215.405C264.406 217.676 264.282 219.94 264.013 222.183C263.501 226.663 262.705 231.106 261.63 235.486C261.783 230.979 262.146 226.508 262.321 222.06C262.539 217.638 262.43 213.206 261.994 208.8C261.58 204.395 260.831 199.888 261.093 195.28C261.151 194.129 261.282 192.982 261.485 191.847C261.701 190.723 261.978 189.611 262.313 188.516C263.006 186.366 263.836 184.262 264.798 182.217Z" fill="#332066"/>
<path d="M297.514 40.1979C302.599 42.455 306.385 47.0126 308.666 52.0782C310.947 57.1438 311.855 62.7029 312.408 68.2258C312.851 72.6528 313.047 77.2684 311.361 81.3906C310.41 83.7057 308.877 85.8248 308.455 88.2923C307.845 92.0371 309.908 95.811 309.429 99.5703C309.065 102.219 307.474 104.505 306.29 106.907C303.152 113.279 302.832 120.696 299.831 127.177C298.378 130.363 296.199 133.273 295.145 136.612C294.382 138.999 294.172 141.547 293.372 143.927C290.888 151.264 283.448 151.91 275.703 152.208C267.958 152.505 260.446 149.356 253.791 145.429C243.198 139.195 233.339 134.652 226.001 124.804L216.803 96.7181L224.069 36.2282L265.917 28.7168L288.243 31.9826L297.514 40.1979Z" fill="#FEA394"/>
<path d="M276.553 52.456C286.26 52.2052 295.793 49.8215 304.474 45.4744C304.474 45.4744 310.039 51.0335 312.081 65.3595C315.423 56.1282 313.89 43.9141 310.933 41.5627C311.717 40.9496 312.446 40.2697 313.112 39.5306C316.571 35.6915 317.726 30.3356 318.343 25.2046C313.222 27.0265 307.915 28.2799 302.52 28.9422C304.205 27.9611 305.554 26.4929 306.388 24.731C307.222 22.9691 307.502 20.9962 307.191 19.0722C303.42 20.4511 297.862 20.2406 293.99 19.1593C295.407 15.6032 296.344 13.0994 295.879 8.46194C290.946 10.3198 281.741 9.18768 277.396 7.4314L277.541 0.304688C271.787 4.29623 264.413 5.03648 257.402 5.05825C250.391 5.08002 243.256 4.52846 236.492 6.37909C228.718 8.50549 218.67 14.6017 218.845 23.7387C211.936 20.4148 197.325 40.3725 209.211 77.9075C210.315 74.5183 212.321 67.7472 215.859 68.2262C218.049 68.4953 220.267 68.4219 222.434 68.0085C226.975 71.013 225.34 88.4451 226.241 91.3045C230.731 89.6861 233.288 84.3375 234.959 80.7306C236.63 77.1237 237.865 72.7911 235.947 69.3511C239.093 68.1246 242.116 66.3248 244.143 63.625C246.17 60.9253 247.921 53.5809 246.686 50.4457C245.501 47.3323 234.829 38.2025 234.829 38.2098C239.834 42.107 243.867 46.1131 249.991 47.7968C256.348 49.5458 262.182 51.6577 268.845 52.2383C271.408 52.4559 273.982 52.5286 276.553 52.456Z" fill="#332066"/>
<path d="M222.398 68.0085C219.012 64.7064 215.641 63.03 211.994 63.6541C210.098 63.9589 208.63 65.5701 207.947 67.3626C207.38 69.1962 207.135 71.1136 207.22 73.0306L207.119 80.288C206.996 83.0355 207.132 85.7885 207.526 88.5105C207.933 91.2473 209.116 93.8106 210.933 95.8985C211.662 96.7129 212.556 97.3635 213.556 97.8072C216.658 99.1208 220.233 97.6766 223.001 95.8042" fill="#FEA394"/>
<path d="M208.928 68.3343C207.685 69.7858 207.475 75.0764 209.175 77.9068C209.335 76.3755 209.131 71.2228 210.134 70.0616C210.86 69.198 212.669 69.7495 212.844 68.944C212.96 68.3779 210.185 66.8393 208.928 68.3343Z" fill="#332066"/>
<path d="M212.444 77.4136C211.987 78.0414 211.792 78.8219 211.899 79.5908C211.878 80.4279 211.963 81.2644 212.153 82.08C212.36 82.9065 212.882 83.6199 213.607 84.0686C214.333 84.475 215.278 84.504 215.873 85.0991C216.738 85.97 216.338 87.436 216.643 88.6189C216.768 89.087 217.007 89.5172 217.338 89.8715C217.668 90.2259 218.081 90.4936 218.54 90.651C218.782 90.7441 219.042 90.7839 219.302 90.7677C219.561 90.7514 219.814 90.6794 220.044 90.5566C220.308 90.3416 220.513 90.0629 220.641 89.7468C220.768 89.4307 220.812 89.0876 220.77 88.7495C220.746 87.9079 220.473 87.0922 219.986 86.4054C219.375 85.5418 218.416 84.8233 218.307 83.771C218.118 81.9276 220.065 79.3368 218.373 77.7256C217.646 76.9999 216.578 77.1958 215.648 77.1015C214.616 76.9709 213.301 76.5282 212.444 77.4136Z" fill="#332066"/>
<path d="M268.997 127.503C274.083 127.678 279.263 124.985 284.342 125.391C285.795 125.508 287.095 126.052 288.585 126.074C290.074 126.095 291.491 125.544 292.98 125.406C293.731 125.379 294.471 125.585 295.099 125.996C295.728 126.406 296.213 127.002 296.489 127.699C296.253 127.63 296.004 127.618 295.763 127.663C294.728 127.7 293.703 127.881 292.719 128.2C291.316 128.665 289.725 129.405 288.243 129.383C282.467 129.31 277.28 128.033 271.533 127.707L268.997 127.503Z" fill="#D35A4A"/>
<path d="M268.997 127.505C274.25 127.795 277.716 133.115 282.801 134.588C284.828 135.176 290.219 135.655 292.937 132.099C294.012 130.698 294.288 128.666 295.748 127.665C293.633 127.259 291.444 127.513 289.478 128.39C288.512 128.884 287.081 128.55 286.013 128.311C282.271 127.461 278.951 128.086 274.889 127.803L268.997 127.505Z" fill="#DD665E"/>
<path d="M294.571 87.4648C294.731 89.9831 294.789 92.4724 295.152 94.9254C295.484 97.3725 295.969 99.7964 296.605 102.183C297.179 104.592 297.971 107.009 298.167 109.622C298.167 109.941 298.167 110.275 298.167 110.601C298.186 110.929 298.164 111.258 298.102 111.581L297.95 112.553L297.659 113.49L297.506 113.954C297.441 114.107 297.361 114.244 297.288 114.39L296.845 115.246C296.511 115.79 296.119 116.284 295.734 116.792C295.981 116.204 296.264 115.645 296.46 115.072L296.743 114.194C296.787 114.049 296.838 113.903 296.874 113.758L296.947 113.308L297.107 112.416V111.523C297.139 111.224 297.139 110.922 297.107 110.623C297.107 110.325 297.07 110.028 297.02 109.73C296.81 108.527 296.529 107.337 296.177 106.167L295.174 102.538C294.536 100.075 294.154 97.5536 294.034 95.0125C293.918 92.4843 294.098 89.9512 294.571 87.4648Z" fill="#332066"/>
<path d="M288.701 116.357C287.945 115.635 287.086 115.031 286.151 114.564C285.27 114.136 284.325 113.857 283.354 113.737C282.871 113.684 282.385 113.672 281.9 113.7C281.657 113.714 281.415 113.741 281.174 113.78C281.002 113.807 280.835 113.861 280.68 113.94C280.633 113.963 280.593 113.997 280.561 114.039C280.53 114.08 280.508 114.128 280.498 114.179C280.488 114.21 280.488 114.243 280.498 114.274C280.498 114.274 280.571 114.361 280.658 114.397C280.889 114.476 281.136 114.5 281.378 114.468C281.62 114.435 281.851 114.346 282.053 114.208C281.912 114.485 281.694 114.715 281.427 114.873C281.159 115.031 280.852 115.11 280.542 115.101C280.337 115.095 280.139 115.032 279.968 114.92C279.768 114.778 279.626 114.569 279.568 114.332C279.523 114.116 279.531 113.891 279.591 113.679C279.652 113.466 279.764 113.272 279.917 113.113C280.174 112.847 280.498 112.654 280.854 112.554C281.141 112.465 281.432 112.392 281.726 112.336C282.316 112.253 282.916 112.253 283.506 112.336C284.683 112.476 285.802 112.927 286.746 113.642C287.672 114.314 288.357 115.266 288.701 116.357Z" fill="#332066"/>
<path d="M270.145 89.853C271.919 89.853 273.357 88.4168 273.357 86.6452C273.357 84.8737 271.919 83.4375 270.145 83.4375C268.372 83.4375 266.934 84.8737 266.934 86.6452C266.934 88.4168 268.372 89.853 270.145 89.853Z" fill="#332066"/>
<path d="M300.158 91.3042C301.932 91.3042 303.37 89.868 303.37 88.0964C303.37 86.3248 301.932 84.8887 300.158 84.8887C298.385 84.8887 296.947 86.3248 296.947 88.0964C296.947 89.868 298.385 91.3042 300.158 91.3042Z" fill="#332066"/>
<path d="M258.47 85.615C259.041 84.851 259.81 84.2565 260.693 83.895C261.523 83.5215 262.387 83.2274 263.272 83.0168C265.03 82.6041 266.823 82.361 268.627 82.2911C270.489 82.1658 272.358 82.3949 274.134 82.966C274.37 83.0372 274.6 83.1244 274.824 83.2273C275.049 83.3216 275.275 83.4305 275.507 83.5539C275.993 83.7803 276.433 84.0925 276.808 84.4755C277.007 84.6823 277.183 84.9112 277.331 85.1577C277.48 85.42 277.588 85.7041 277.65 85.9996C277.722 86.2915 277.725 86.5959 277.66 86.8892C277.594 87.1825 277.462 87.4568 277.273 87.6906C276.939 87.3753 276.546 87.1287 276.117 86.9648C275.965 86.8922 275.783 86.8487 275.652 86.7906C275.522 86.7326 275.362 86.6818 275.195 86.631C274.89 86.5294 274.606 86.377 274.265 86.2609C273.923 86.1447 273.582 86.0504 273.219 85.9488C271.676 85.5745 270.11 85.2982 268.532 85.1215C266.89 84.9411 265.234 84.9023 263.585 85.0053C262.757 85.0561 261.928 85.1287 261.122 85.2593C260.324 85.3347 259.549 85.5665 258.841 85.9415L258.47 85.615Z" fill="#332066"/>
<path d="M294.251 88.0603C294.931 86.8818 295.988 85.9665 297.252 85.4622C298.481 84.9128 299.787 84.5554 301.124 84.4026C302.599 84.18 304.106 84.4343 305.426 85.1284C306.186 85.5487 306.794 86.1992 307.162 86.9862C307.338 87.4057 307.374 87.871 307.262 88.3122C307.151 88.7534 306.899 89.1464 306.544 89.432C306.013 89.065 305.46 88.7306 304.888 88.4305C304.592 88.2166 304.275 88.0319 303.943 87.8789C303.056 87.5201 302.121 87.2928 301.168 87.204C298.927 87.0157 296.674 87.4082 294.629 88.3434L294.251 88.0603Z" fill="#332066"/>
<path d="M298.306 80.1142C299.926 83.7429 307.198 78.416 309.516 78.0967C310.693 77.937 312.132 77.8427 313.105 78.5104C313.088 77.8775 312.947 77.2541 312.688 76.6759C312.43 76.0977 312.06 75.576 311.6 75.1406C311.14 74.7053 310.598 74.3647 310.006 74.1385C309.415 73.9122 308.784 73.8047 308.15 73.8221C305.753 73.8221 296.533 76.13 298.306 80.1142Z" fill="#332066"/>
<path d="M287.103 79.7726C285.649 83.2779 275.391 78.8219 269.593 77.6898C263.795 76.5576 257.525 76.4415 252.229 78.5897C254.496 75.8391 257.453 74.6272 260.758 73.4152C263.973 72.2457 267.38 71.6965 270.799 71.7968C276.045 71.9564 289.064 73.8216 287.103 79.7726Z" fill="#332066"/>
<path opacity="0.3" d="M279.721 100.442C277.098 102.401 269.324 102.619 266.934 100.369C256.835 90.9347 260.911 80.4478 260.911 80.4478C265.125 75.5273 285.49 78.2271 288.701 85.6949C290.401 89.6574 283.019 97.9816 279.721 100.442Z" fill="#D0CFEC"/>
<path opacity="0.3" d="M315.786 98.4095C314.058 100.775 311.926 102.816 309.487 104.44C307.62 105.529 302.774 106.48 300.892 105.42C299.655 104.738 298.58 103.796 297.741 102.66C296.902 101.524 296.319 100.22 296.032 98.8376L295.08 86.6453C295.08 86.6453 300.166 83.6916 304.895 83.365C307.504 83.1835 312.771 82.2764 315.328 82.7989C316.927 83.1327 321.141 85.7018 321.141 85.7018C321.141 85.7018 317.639 95.492 315.786 98.4095Z" fill="#D0CFEC"/>
<path d="M319.477 82.8061C311.819 80.7305 302.73 82.2909 295.443 85.1866C294.481 85.47 293.464 85.5137 292.481 85.3138C291.499 85.1139 290.58 84.6765 289.805 84.0399C288.904 83.3142 281.152 78.5171 276.953 77.6026C266.055 75.2077 261.383 79.0541 259.901 78.967C258.637 78.9235 226.575 71.7097 224.468 71.4121C224.796 72.4528 225.039 73.5183 225.195 74.5981C225.195 74.5981 255.317 80.0048 257.7 84.381C259.276 87.2839 260.933 110.014 279.336 101.799C284.567 99.469 287.03 93.9171 289.616 88.808C290.299 87.313 293.402 87.2912 293.787 89.6643C294.063 91.3698 294.252 94.984 294.426 96.7112C294.775 100.34 296.853 105.072 300.645 106.247C306.08 107.931 312.785 104.259 315.997 99.5779C318.576 95.8041 319.985 91.4134 321.649 87.1388C321.814 86.7132 321.888 86.2579 321.866 85.8022C321.844 85.3464 321.727 84.9002 321.523 84.4922C321.318 84.0842 321.031 83.7235 320.678 83.4331C320.326 83.1428 319.917 82.9292 319.477 82.8061ZM271.969 101.334C264.515 100.369 261.529 93.2567 260.976 89.4684C260.61 86.5574 260.793 83.6036 261.514 80.7596C268.053 76.3616 281.617 79.5331 286.797 84.7003C287.358 85.2757 287.725 86.0122 287.845 86.8064C287.964 87.6006 287.832 88.4123 287.466 89.1273C285.337 93.3874 279.852 102.357 271.969 101.334ZM319.68 87.2476C319.68 87.2476 315.728 104.542 305.15 104.963C297.637 105.26 296.366 99.8827 295.814 96.0798C295.535 94.0627 295.418 92.0266 295.465 89.9909C295.477 89.1891 295.715 88.4068 296.152 87.734C296.589 87.0613 297.207 86.5254 297.935 86.1881C306.203 82.3489 320.763 82.1675 319.68 87.2476Z" fill="#7BE0AD"/>
<path d="M271.991 247.337C274.41 251.967 273.269 256.372 266.658 255.102C253.907 246.328 238.723 228.569 238.723 228.569C237.822 221.61 241.019 218.104 246.221 220.543L271.991 247.337Z" fill="#332066"/>
<path d="M238.723 228.569C244.312 222.589 249.897 216.611 255.477 210.636C260.991 204.729 266.527 198.807 272.804 193.727C276.066 191.092 279.626 188.646 283.702 187.63C287.175 186.767 290.815 186.999 294.375 187.326C307.415 188.539 320.309 190.993 332.881 194.656C335.904 195.541 339.623 197.711 338.759 200.737C338.032 203.205 334.843 203.749 332.271 203.807C321.092 204.088 309.906 204.059 298.712 203.72L305.651 210.491C306.748 211.565 308.056 212.617 308.433 214.12C309.4 217.85 313.127 227.001 305.527 228.903C304.467 230.093 305.462 232.851 300.739 234.985C299.047 235.747 297.95 237.372 296.693 238.729C291.164 244.702 281.014 245.631 274.497 240.761C273.07 246.102 270.376 251.021 266.643 255.102C252.483 254.572 238.185 237.14 238.723 228.569Z" fill="#FEA394"/>
<path d="M216.098 240.894C197.151 248.877 181.857 260.525 170.639 270.649C168.736 273.552 168.656 279.663 168.423 285.476C168.06 279.67 167.508 273.443 168.765 270.961C167.435 271.534 166.629 273.581 166.026 276.23C164.26 267.521 182.133 248.028 178.094 232.279C183.484 245.909 175.551 256.439 170.647 267.419C183.505 255.139 199.075 246.052 216.098 240.894Z" fill="#332066"/>
<path d="M240.154 221.066C237.182 223.563 234.153 225.98 231.109 228.367C229.583 229.557 228.057 230.748 226.517 231.916C224.977 233.085 223.451 234.282 221.896 235.429L222.114 235.211C220.822 237.332 220.228 239.804 220.414 242.28C220.53 244.85 221.045 247.386 221.94 249.798C223.731 254.708 226.419 259.243 229.866 263.174C233.289 267.162 237.442 270.462 242.101 272.898C246.818 275.339 252.046 276.63 257.358 276.665C251.934 277.245 246.453 276.366 241.484 274.118C236.481 271.857 232.005 268.579 228.341 264.494C226.491 262.482 224.841 260.294 223.415 257.963C221.975 255.624 220.795 253.134 219.898 250.538C218.953 247.912 218.421 245.156 218.322 242.367C218.18 239.462 218.966 236.588 220.567 234.159L220.668 234.028L220.792 233.941C222.368 232.823 223.981 231.764 225.572 230.653C227.164 229.543 228.776 228.476 230.389 227.409C233.608 225.225 236.856 223.106 240.154 221.066Z" fill="#332066"/>
<path d="M261.63 274.022C262.06 272.37 262.623 270.756 263.316 269.196C263.984 267.652 264.725 266.143 265.539 264.667C266.353 263.191 267.232 261.757 268.176 260.363C269.125 258.943 270.19 257.603 271.359 256.357C270.929 258.012 270.366 259.628 269.673 261.191C269.005 262.737 268.256 264.246 267.45 265.719C266.643 267.193 265.757 268.622 264.805 270.016C263.858 271.436 262.797 272.775 261.63 274.022Z" fill="#332066"/>
<path d="M247.325 279.088C244.775 282.717 242.065 286.244 239.29 289.698C237.916 291.44 236.492 293.131 235.09 294.851L230.796 299.931L226.437 304.924C224.948 306.564 223.487 308.226 221.962 309.837C218.947 313.089 215.873 316.282 212.633 319.344C215.183 315.716 217.9 312.189 220.676 308.727C222.042 306.985 223.473 305.294 224.875 303.581L229.169 298.501L233.528 293.508C235.018 291.868 236.485 290.206 238.004 288.595C241.019 285.373 244.121 282.15 247.325 279.088Z" fill="#332066"/>
<path d="M392.29 275.627L355.15 264.407C350.725 258.855 353.98 256.982 360.511 258.383L395.516 269.059C399.817 270.198 400.776 274.342 392.29 275.627Z" fill="#332066"/>
<path d="M414.674 218.91C414.406 215.782 414.652 212.632 415.401 209.584C416.723 204.199 419.615 199.141 419.818 193.618C419.862 192.377 418.859 192.224 417.639 191.978C416.418 191.731 414.732 193.146 414.326 194.329L408.404 207.632L414.674 218.91Z" fill="#FEA394"/>
<path d="M414.674 218.91C414.712 214.091 414.313 209.28 413.483 204.533C413.231 203.282 413.427 201.983 414.035 200.861C415.764 197.726 417.74 195.055 418.045 192.674C416.825 192.428 414.718 193.124 414.318 194.307L408.397 207.61L414.674 218.91Z" fill="#332066"/>
<path d="M440.226 160.546L440.183 160.611L436.906 165.358L406.69 161.729C405.375 161.779 404.088 162.12 402.921 162.726C401.754 163.332 400.736 164.188 399.94 165.234L357.881 221.457C357.538 221.907 357.313 222.436 357.227 222.996C356.744 222.805 356.312 222.505 355.964 222.12C355.615 221.735 355.361 221.275 355.22 220.775C355.08 220.276 355.057 219.751 355.153 219.241C355.249 218.731 355.462 218.25 355.774 217.836L398.56 161.526C399.354 160.48 400.371 159.623 401.537 159.017C402.703 158.411 403.989 158.071 405.302 158.021L438.185 157.019C438.604 157.004 439.018 157.104 439.385 157.307C439.752 157.509 440.056 157.808 440.266 158.17C440.476 158.533 440.583 158.945 440.576 159.364C440.569 159.782 440.448 160.191 440.226 160.546Z" fill="#D0CFEC"/>
<path d="M439.26 160.619C439.346 160.617 439.431 160.638 439.505 160.68C439.58 160.722 439.641 160.785 439.683 160.86C439.724 160.935 439.744 161.02 439.74 161.106C439.736 161.191 439.708 161.274 439.66 161.345L399.221 219.97C397.884 222.009 394.92 229.405 392.486 229.405L358.477 223.163C358.049 223.164 357.625 223.083 357.227 222.924C357.313 222.364 357.538 221.835 357.881 221.385L399.94 165.162C400.736 164.117 401.754 163.26 402.921 162.654C404.088 162.048 405.375 161.707 406.69 161.657L439.26 160.619Z" fill="#7C3AED"/>
<path d="M405.716 180.498H394.898C394.655 180.496 394.418 180.429 394.211 180.302C394.005 180.175 393.837 179.993 393.727 179.777C393.617 179.562 393.568 179.32 393.586 179.078C393.604 178.837 393.689 178.605 393.83 178.408L403.435 165.555C403.691 165.197 404.025 164.901 404.411 164.689C404.797 164.477 405.225 164.353 405.665 164.328L416.716 163.661C416.963 163.645 417.21 163.7 417.427 163.819C417.645 163.938 417.824 164.116 417.945 164.332C418.065 164.548 418.123 164.794 418.11 165.041C418.096 165.288 418.014 165.527 417.871 165.729L408.15 179.235C407.875 179.624 407.51 179.942 407.087 180.162C406.663 180.382 406.193 180.497 405.716 180.498Z" fill="#332066"/>
<path d="M407.264 228.765C396.642 216.384 385.642 203.691 371.097 196.296C369.005 195.229 366.266 194.344 364.486 195.882C362.241 197.82 363.759 201.499 365.561 203.865C372.02 212.088 380.542 215.912 385.177 224.723C381.472 219.352 378.144 217.008 373.051 212.988C367.958 208.967 358.128 202.501 354.27 206.717C352.926 208.169 353.028 213.336 355.724 216.783C353.784 216.885 351.524 217.219 350.565 218.902C349.359 221.036 351.074 223.583 352.694 225.434L361.093 234.89C362.778 236.799 364.58 239.245 363.73 241.654C363.214 243.106 360.533 248.672 361.42 254.594C361.885 257.7 358.194 261.851 355.113 263.905C355.76 273.282 384.763 284.85 392.29 275.626C391.861 273.354 402.759 257.983 409.247 250.951C412.219 246.444 415.931 235.42 415.786 227.793C415.67 220.056 414.333 212.4 412.669 204.852C410.976 197.181 409.08 189.51 405.811 182.354C404.285 179.009 398.247 180.555 396.155 183.574C394.368 186.157 394.702 189.597 395.138 192.703C396.09 199.7 398.516 216.203 399.497 223.184" fill="#FEA394"/>
<path d="M386.434 304.858C385.381 305.192 384.32 305.475 383.245 305.707C382.443 314.115 379.955 322.274 375.928 329.7H360.519C352.04 318.263 340.394 289.611 338.846 279.008L353.101 259.551C356.871 272.142 381.021 283.449 398.524 272.73L386.434 304.858Z" fill="#7BE0AD"/>
<path d="M353.101 259.551C352.28 261.22 351.444 262.867 350.565 264.493C349.686 266.119 348.8 267.744 347.913 269.37L345.174 274.189L342.37 278.971L342.522 278.311C342.785 280.567 343.39 282.769 344.317 284.843C345.26 286.932 346.482 288.885 347.949 290.648C349.436 292.415 351.12 294.005 352.97 295.388C354.821 296.797 356.801 298.029 358.884 299.067C363.115 301.147 367.61 302.643 372.245 303.516C376.922 304.405 381.673 304.845 386.434 304.829C381.651 305.398 376.816 305.364 372.041 304.728C367.213 304.121 362.506 302.78 358.085 300.751C355.861 299.714 353.74 298.469 351.749 297.035C349.76 295.569 347.944 293.882 346.337 292.006C343.044 288.208 340.993 283.495 340.459 278.5L340.423 278.137L340.612 277.847L343.612 273.195L346.685 268.579C347.732 267.055 348.77 265.524 349.846 264.014C350.921 262.505 352.004 261.039 353.101 259.551Z" fill="#332066"/>
<path d="M338.846 285.439C337.015 288.342 335.017 291.064 332.961 293.764C331.951 295.121 330.883 296.434 329.837 297.77L326.619 301.696L323.313 305.55C322.179 306.805 321.075 308.09 319.905 309.323C317.61 311.813 315.248 314.251 312.72 316.581C314.551 313.678 316.549 310.956 318.605 308.257C319.615 306.899 320.69 305.586 321.729 304.251L324.955 300.324L328.268 296.478C329.401 295.215 330.505 293.938 331.675 292.704C333.964 290.186 336.325 287.747 338.846 285.439Z" fill="#332066"/>
<path d="M151.081 24.3691H12.0667V85.0696H151.081V24.3691Z" fill="#D0CFEC"/>
<path d="M42.3848 56.6662C48.1227 56.6662 52.7742 52.0198 52.7742 46.2882C52.7742 40.5565 48.1227 35.9102 42.3848 35.9102C36.6469 35.9102 31.9954 40.5565 31.9954 46.2882C31.9954 52.0198 36.6469 56.6662 42.3848 56.6662Z" fill="#FEFDFF"/>
<path d="M61.965 73.5236H22.8049C22.8049 66.6872 31.5742 61.1426 42.4213 61.1426C53.2684 61.1426 61.965 66.6872 61.965 73.5236Z" fill="#FEFDFF"/>
<path d="M70.4653 37.6445H121.947" stroke="white" stroke-width="3" stroke-miterlimit="10"/>
<path d="M70.4653 44.4883H108.194" stroke="white" stroke-width="3" stroke-miterlimit="10"/>
<path d="M70.4653 61.4629H136.812" stroke="white" stroke-width="3" stroke-miterlimit="10"/>
<path d="M70.4653 66.9492H130.295" stroke="white" stroke-width="3" stroke-miterlimit="10"/>
<path d="M70.4653 72.4277H120.72" stroke="white" stroke-width="3" stroke-miterlimit="10"/>
<path d="M133.659 121.241C150.901 121.241 164.878 107.279 164.878 90.0559C164.878 72.833 150.901 58.8711 133.659 58.8711C116.417 58.8711 102.44 72.833 102.44 90.0559C102.44 107.279 116.417 121.241 133.659 121.241Z" fill="#7C3AED"/>
<path d="M133.659 123.296C152.036 123.296 166.934 108.414 166.934 90.057C166.934 71.6998 152.036 56.8184 133.659 56.8184C115.282 56.8184 100.384 71.6998 100.384 90.057C100.384 108.414 115.282 123.296 133.659 123.296Z" stroke="#7C3AED" stroke-miterlimit="10"/>
<path d="M133.659 117.307C148.726 117.307 160.94 105.107 160.94 90.056C160.94 75.0055 148.726 62.8047 133.659 62.8047C118.592 62.8047 106.378 75.0055 106.378 90.056C106.378 105.107 118.592 117.307 133.659 117.307Z" fill="#FEDAC9"/>
<path d="M151.546 84.505C151.441 83.8437 151.105 83.2406 150.599 82.8014C150.093 82.3622 149.449 82.1149 148.778 82.1029C147.078 82.1029 145.378 82.1029 143.693 82.1029H138.36C138.967 80.936 139.479 79.7226 139.893 78.4742C140.691 76.3941 141.026 74.1651 140.874 71.9426C140.84 70.972 140.452 70.0472 139.783 69.3426C139.114 68.638 138.21 68.2024 137.241 68.118C136.18 67.9583 135.89 68.1688 135.708 69.2283C135.708 69.2283 135.708 69.2864 135.708 69.3154C135.54 70.5564 135.462 71.808 135.475 73.0602C135.478 74.0954 135.08 75.0915 134.364 75.8398C133.049 77.1869 131.662 78.4613 130.208 79.6571C129.137 80.5415 128.141 81.5124 127.229 82.5601C126.715 83.1682 126.436 83.941 126.445 84.7373C126.445 89.411 126.445 94.0847 126.445 98.7585C126.445 98.9326 126.445 99.0996 126.445 99.2737C126.445 99.8326 126.445 100.384 126.445 100.943C126.435 101.232 126.484 101.519 126.59 101.788C126.696 102.057 126.856 102.301 127.06 102.505C127.265 102.709 127.509 102.869 127.778 102.975C128.047 103.081 128.335 103.13 128.624 103.12L136.035 103.2C139.115 103.236 142.203 103.28 145.284 103.287C145.703 103.275 146.115 103.173 146.491 102.987C146.868 102.801 147.199 102.535 147.463 102.209C147.727 101.883 147.916 101.504 148.019 101.097C148.122 100.691 148.136 100.267 148.059 99.8543C147.923 99.1795 147.577 98.5648 147.071 98.098C147.597 97.9595 148.076 97.6795 148.454 97.2884C148.833 96.8972 149.097 96.41 149.217 95.8795C149.338 95.3491 149.311 94.7958 149.138 94.2797C148.966 93.7637 148.656 93.3047 148.241 92.9526C148.763 92.8255 149.24 92.5538 149.615 92.1687C149.99 91.7837 150.249 91.3008 150.362 90.7754C150.49 90.2441 150.467 89.6879 150.296 89.1689C150.126 88.6499 149.814 88.1884 149.396 87.8362L149.628 87.7418C150.286 87.5252 150.842 87.0779 151.195 86.4828C151.548 85.8877 151.673 85.185 151.546 84.505Z" fill="white"/>
<path d="M125.885 84.4326C125.907 84.1462 125.87 83.8584 125.778 83.5865C125.685 83.3147 125.538 83.0644 125.346 82.8508C125.154 82.6371 124.921 82.4646 124.66 82.3435C124.399 82.2225 124.117 82.1555 123.829 82.1465C121.814 82.1126 119.802 82.1126 117.792 82.1465C117.515 82.1483 117.242 82.2053 116.987 82.3141C116.733 82.4229 116.503 82.5813 116.311 82.78C116.119 82.9787 115.968 83.2138 115.868 83.4714C115.768 83.729 115.721 84.004 115.728 84.2802C115.728 89.8586 115.728 95.4347 115.728 101.008C115.722 101.285 115.77 101.56 115.87 101.817C115.97 102.075 116.121 102.31 116.313 102.509C116.505 102.708 116.734 102.867 116.988 102.977C117.242 103.087 117.515 103.145 117.792 103.149C119.802 103.188 121.814 103.188 123.829 103.149C124.368 103.127 124.879 102.906 125.264 102.53C125.649 102.153 125.881 101.647 125.914 101.11V92.7277C125.885 89.9627 125.893 87.1976 125.885 84.4326Z" fill="white"/>
<path d="M120.981 218.91H26.728V273.551H47.8483L44.7969 287.811L64.4859 273.551H120.981V218.91Z" fill="#F6AE2D"/>
<path d="M47.8555 253.507C51.8761 253.507 55.1354 250.251 55.1354 246.235C55.1354 242.219 51.8761 238.963 47.8555 238.963C43.835 238.963 40.5757 242.219 40.5757 246.235C40.5757 250.251 43.835 253.507 47.8555 253.507Z" fill="white"/>
<path d="M73.8509 253.507C77.8714 253.507 81.1307 250.251 81.1307 246.235C81.1307 242.219 77.8714 238.963 73.8509 238.963C69.8303 238.963 66.571 242.219 66.571 246.235C66.571 250.251 69.8303 253.507 73.8509 253.507Z" fill="white"/>
<path d="M99.8463 253.507C103.867 253.507 107.126 250.251 107.126 246.235C107.126 242.219 103.867 238.963 99.8463 238.963C95.8257 238.963 92.5664 242.219 92.5664 246.235C92.5664 250.251 95.8257 253.507 99.8463 253.507Z" fill="white"/>
<path d="M502.585 126.72H404.408V43.7688L453.486 12.6348L502.585 43.7688V126.72Z" fill="#332066"/>
<path d="M497.048 120.371H409.945V8.6875H474.62L497.048 29.9733V120.371Z" fill="#FEFDFF"/>
<path d="M497.048 120.371H409.945V8.6875H474.62L497.048 29.9733V120.371Z" fill="url(#paint0_linear_8724_31627)"/>
<path d="M474.62 8.6875L497.048 29.9733H474.62V8.6875Z" fill="url(#paint1_linear_8724_31627)"/>
<path d="M502.585 64.5312V126.719H404.408V64.5312C408.63 66.9117 450.071 92.1817 453.507 94.3372C456.922 92.1817 498.364 66.9262 502.585 64.5312Z" fill="#7BE0AD"/>
<path d="M404.408 64.5312C412.749 69.0937 421.022 73.782 429.227 78.596C433.346 80.9764 437.429 83.4221 441.527 85.8533L447.644 89.5256L450.703 91.3617C450.923 91.5037 451.151 91.6322 451.386 91.7463C451.602 91.8546 451.829 91.942 452.062 92.0076C452.532 92.1537 453.022 92.2271 453.515 92.2253C454.007 92.2257 454.496 92.1548 454.968 92.0148C455.2 91.9436 455.426 91.8538 455.643 91.7463C455.881 91.6338 456.111 91.5078 456.334 91.3689L459.385 89.5256L465.503 85.8533C469.607 83.4366 473.683 80.9837 477.803 78.596C486.003 73.7868 494.276 69.101 502.621 64.5385C494.692 69.8606 486.7 75.035 478.645 80.062C474.635 82.6166 470.581 85.0913 466.549 87.6096L460.475 91.3326L457.438 93.1905C457.157 93.372 456.866 93.5368 456.566 93.684C456.251 93.8413 455.923 93.9724 455.585 94.0759C454.913 94.2873 454.212 94.395 453.507 94.3952C452.805 94.3883 452.107 94.2782 451.437 94.0686C451.099 93.9683 450.77 93.8372 450.456 93.6768C450.144 93.5316 449.824 93.3284 449.591 93.1905L446.547 91.3326L440.473 87.6024C436.441 85.0913 432.394 82.6093 428.384 80.0547C420.334 74.9988 412.342 69.8243 404.408 64.5312Z" fill="#FEFDFF"/>
<path d="M456.603 92.4219C460.01 94.062 463.294 95.8836 466.541 97.7705C468.176 98.6922 469.767 99.6865 471.38 100.673L476.153 103.649L480.869 106.726C482.416 107.793 483.986 108.816 485.511 109.912C488.584 112.089 491.621 114.266 494.535 116.683C491.127 115.043 487.843 113.229 484.596 111.342C482.961 110.42 481.37 109.426 479.757 108.439L474.984 105.456L470.276 102.379C468.728 101.319 467.159 100.289 465.633 99.193C462.553 97.0375 459.523 94.8241 456.603 92.4219Z" fill="#FEFDFF"/>
<path d="M450.398 92.4219C447.557 94.8241 444.586 97.0375 441.592 99.193C440.139 100.282 438.57 101.312 437.051 102.372L432.452 105.449L427.781 108.432C426.204 109.39 424.65 110.384 423.044 111.335C419.869 113.221 416.643 115.043 413.308 116.683C416.149 114.288 419.121 112.068 422.114 109.912C423.567 108.823 425.144 107.793 426.655 106.733L431.261 103.656L435.925 100.681C437.502 99.7228 439.064 98.7285 440.662 97.7778C443.844 95.8909 447.063 94.0693 450.398 92.4219Z" fill="#FEFDFF"/>
<path d="M417.544 33.9707H467.152" stroke="#FEFDFF" stroke-width="3" stroke-miterlimit="10" stroke-linecap="round"/>
<path d="M460.017 43.2539H480.44" stroke="#FEFDFF" stroke-width="3" stroke-miterlimit="10" stroke-linecap="round"/>
<path d="M417.544 43.2539H454.052" stroke="#FEFDFF" stroke-width="3" stroke-miterlimit="10" stroke-linecap="round"/>
<path d="M471.075 52.5352H490.561" stroke="#FEFDFF" stroke-width="3" stroke-miterlimit="10" stroke-linecap="round"/>
<path d="M441.207 52.5352H464.275" stroke="#FEFDFF" stroke-width="3" stroke-miterlimit="10" stroke-linecap="round"/>
<path d="M417.544 52.5352H434.872" stroke="#FEFDFF" stroke-width="3" stroke-miterlimit="10" stroke-linecap="round"/>
<path d="M460.017 61.8184H484.77" stroke="#FEFDFF" stroke-width="3" stroke-miterlimit="10" stroke-linecap="round"/>
<path d="M417.544 61.8184H451.27" stroke="#FEFDFF" stroke-width="3" stroke-miterlimit="10" stroke-linecap="round"/>
<path d="M422.31 71.0996H478.878" stroke="#FEFDFF" stroke-width="3" stroke-miterlimit="10" stroke-linecap="round"/>
<path d="M440.379 80.3828H467.152" stroke="#FEFDFF" stroke-width="3" stroke-miterlimit="10" stroke-linecap="round"/>
<path d="M591.933 108.947H467.152V144.486H591.933V108.947Z" fill="#7C3AED"/>
<path d="M482.009 119.223H523.436" stroke="#FEFDFF" stroke-width="3" stroke-miterlimit="10" stroke-linecap="round"/>
<path d="M482.009 126.721H577.083" stroke="#FEFDFF" stroke-width="3" stroke-miterlimit="10" stroke-linecap="round"/>
<path d="M482.009 134.217H577.083" stroke="#FEFDFF" stroke-width="3" stroke-miterlimit="10" stroke-linecap="round"/>
<path d="M489.827 249.348H437.96C436.555 249.348 435.417 250.485 435.417 251.888V303.698C435.417 305.101 436.555 306.238 437.96 306.238H489.827C491.231 306.238 492.37 305.101 492.37 303.698V251.888C492.37 250.485 491.231 249.348 489.827 249.348Z" fill="#FEDAC9"/>
<path d="M481.755 289.001L472.833 277.796L481.755 266.576C481.839 266.499 481.943 266.447 482.056 266.428C482.168 266.409 482.284 266.423 482.389 266.468C482.493 266.514 482.583 266.589 482.646 266.684C482.708 266.779 482.742 266.89 482.743 267.004V288.588C482.74 288.701 482.704 288.81 482.64 288.903C482.576 288.996 482.486 289.069 482.382 289.112C482.278 289.156 482.163 289.169 482.052 289.149C481.941 289.129 481.838 289.078 481.755 289.001Z" fill="#FEFDFF"/>
<path d="M468.045 265.633H448.552C446.614 265.633 445.043 267.202 445.043 269.138V286.447C445.043 288.383 446.614 289.952 448.552 289.952H468.045C469.983 289.952 471.554 288.383 471.554 286.447V269.138C471.554 267.202 469.983 265.633 468.045 265.633Z" fill="#FEFDFF"/>
<path d="M458.448 268.537H466.556C466.825 268.537 467.091 268.59 467.339 268.693C467.587 268.796 467.812 268.947 468.002 269.137C468.192 269.327 468.342 269.553 468.444 269.801C468.546 270.049 468.598 270.315 468.597 270.584V277.797" stroke="#7BE0AD" stroke-width="2" stroke-miterlimit="10" stroke-linecap="round"/>
<path d="M458.571 287.057H450.456C450.187 287.057 449.921 287.004 449.673 286.901C449.425 286.798 449.199 286.648 449.01 286.457C448.82 286.267 448.67 286.042 448.568 285.793C448.465 285.545 448.413 285.279 448.414 285.011V277.797" stroke="#7BE0AD" stroke-width="2" stroke-miterlimit="10" stroke-linecap="round"/>
<defs>
<linearGradient id="paint0_linear_8724_31627" x1="427.352" y1="-7.7141" x2="473.351" y2="138.434" gradientUnits="userSpaceOnUse">
<stop stop-color="#FEDAC9" stop-opacity="0.7"/>
<stop offset="0.17" stop-color="#F3CCCC" stop-opacity="0.73"/>
<stop offset="0.44" stop-color="#D5A7D4" stop-opacity="0.8"/>
<stop offset="0.77" stop-color="#A46BE2" stop-opacity="0.91"/>
<stop offset="1" stop-color="#7C3AED"/>
</linearGradient>
<linearGradient id="paint1_linear_8724_31627" x1="493.823" y1="10.8865" x2="475.637" y2="30.1384" gradientUnits="userSpaceOnUse">
<stop stop-color="#FEDAC9" stop-opacity="0.7"/>
<stop offset="0.17" stop-color="#F3CCCC" stop-opacity="0.73"/>
<stop offset="0.44" stop-color="#D5A7D4" stop-opacity="0.8"/>
<stop offset="0.77" stop-color="#A46BE2" stop-opacity="0.91"/>
<stop offset="1" stop-color="#7C3AED"/>
</linearGradient>
</defs>
</svg>
