<svg width="330" height="240" viewBox="0 0 330 240" fill="none" xmlns="http://www.w3.org/2000/svg">
<path d="M69.4304 208.236C-9.9089 199.931 21.9725 133.908 34.0799 127.316C46.1872 120.724 64.4105 125.229 68.5086 138.369C69.0255 140.02 69.2996 141.827 68.7204 143.453C67.7363 146.188 64.4915 147.59 61.5955 147.322C58.6994 147.054 56.0961 145.453 53.7045 143.827C30.5174 127.721 17.9554 98.3512 20.5525 70.4703C23.2867 41.2997 53.7543 24.1724 81.4194 24.864C102.196 25.3811 122.151 34.9073 137.528 48.8945C142.566 53.4738 147.536 60.1465 145.101 66.5015C144.946 56.1903 144.995 45.1438 150.8 36.6269C157.719 26.4839 170.854 22.7955 183.036 21.294C195.735 19.7301 208.578 19.7301 221.277 21.294C233.614 22.8142 246.32 26.0976 255.531 34.44C268.037 45.7731 271.381 65.9719 263.198 80.7317C262.544 82.0774 261.595 83.2575 260.42 84.1833C256.26 87.0929 250.032 82.5696 249.957 77.4919C249.882 72.4141 253.943 68.1463 258.452 65.7913C272.285 58.6076 290.309 65.5296 299.663 77.9903C309.018 90.4511 311.316 106.874 310.992 122.463C310.774 132.818 309.366 143.646 303.4 152.107C299.47 157.677 293.858 161.801 288.253 165.67C260.388 184.881 230.068 200.258 198.108 211.389" stroke="#7C3AED" stroke-miterlimit="10" stroke-dasharray="12 12"/>
<path d="M244.682 239.998C240.733 220.628 235.377 192.143 231.198 187.838C223.967 180.361 164.072 159.863 164.072 159.863H107.745C107.745 159.863 50.8705 190.648 47.0091 193.675C45.0338 195.118 43.3601 196.935 42.0827 199.021C40.5693 201.694 40.1271 204.815 39.7596 207.862C39.3922 210.909 36.4712 227.052 34.2354 239.961L244.682 239.998Z" fill="#7C3AED"/>
<path d="M164.072 159.865C160.808 152.282 157.533 148.083 158.635 128.09H109.053C111.75 146.382 111.588 152.718 107.77 159.865C98.6026 198.368 169.341 201.814 164.072 159.865Z" fill="#F8895D"/>
<path d="M131.972 151.323C136.83 151.323 154.985 143.847 160.621 127.529H108.306C112.26 144.713 127.326 151.323 131.972 151.323Z" fill="#332066"/>
<path d="M134.283 87.7965C167.83 87.7965 195.026 81.9164 195.026 74.6629C195.026 67.4094 167.83 61.5293 134.283 61.5293C100.736 61.5293 73.541 67.4094 73.541 74.6629C73.541 81.9164 100.736 87.7965 134.283 87.7965Z" fill="#332066"/>
<path d="M134.258 29.0442C128.753 27.2125 122.68 28.1907 117.218 30.147C106.089 34.1693 96.7194 41.9641 90.7367 52.1776C86.9999 58.626 84.7578 70.0712 80.2674 76.0337C76.8917 80.5195 72.2954 84.2515 70.3025 89.5037C68.5461 94.1391 69.1004 99.354 70.4706 104.114C71.8408 108.874 73.9147 109.235 75.3846 113.97C75.1448 112.54 75.2793 111.073 75.7748 109.71C76.2703 108.348 77.1099 107.137 78.2121 106.195C77.542 107.047 77.1582 108.089 77.1157 109.172C77.0732 110.255 77.3741 111.324 77.9754 112.226L81.4507 109.64C78.7477 113.534 78.6854 118.849 80.4293 123.26C82.1731 127.671 85.4989 131.278 89.1486 134.281C87.491 130.08 86.7951 125.56 87.112 121.054C87.0746 123.254 87.7348 125.64 89.6032 126.892C91.4716 128.144 94.4362 127.578 95.1026 125.484L95.1337 129.553C95.0885 129.956 95.1878 130.362 95.414 130.699C96.6596 132.163 99.0387 127.777 100.303 129.247C99.627 130.653 98.6155 131.871 97.3577 132.794C96.1 133.716 94.6346 134.315 93.0909 134.537C97.5139 135.023 101.988 134.38 106.095 132.668C109.57 131.216 112.865 128.973 116.633 128.774C118.912 128.655 121.167 129.303 123.447 129.397C126.037 129.496 128.591 128.88 131.138 128.419C136.226 127.49 141.502 127.173 146.54 128.344C150.7 129.31 154.574 131.241 158.722 132.25C162.87 133.26 167.622 133.191 170.948 130.518C170.325 131.652 171.826 133.01 173.084 132.742C174.342 132.475 175.202 131.347 175.874 130.25C178.163 126.521 179.768 122.413 180.614 118.12C181.781 118.968 183.123 119.543 184.541 119.803C185.96 120.063 187.419 120.001 188.81 119.621C187.936 118.75 187.285 117.682 186.91 116.506C188.884 117.283 191.004 117.616 193.12 117.48C195.236 117.345 197.297 116.744 199.155 115.721C197.35 115.571 195.606 115 194.062 114.055C192.517 113.109 191.216 111.815 190.261 110.276C193.06 111.243 196.067 111.444 198.97 110.858C201.873 110.272 204.567 108.92 206.772 106.943C202.337 107.13 197.938 106.065 194.079 103.871C196.163 104.248 198.314 103.961 200.226 103.049C196.329 100.619 192.874 97.5454 190.006 93.9585C190.977 94.545 192.08 94.8786 193.214 94.9287C194.348 94.9787 195.476 94.7437 196.495 94.245C194.477 93.2422 192.73 91.7681 191.401 89.9474C190.072 88.1267 189.2 86.0128 188.86 83.7843C189.6 84.6951 190.67 85.2771 191.837 85.4042C189.127 82.8967 187.045 79.7871 185.758 76.3265C183.983 71.5416 183.815 66.3205 182.576 61.3736C180.016 51.1496 172.362 42.6202 162.945 38.1219C158.087 35.798 153.098 34.9008 147.767 34.6142C142.436 34.3276 139.272 30.714 134.258 29.0442Z" fill="#FEDAC9"/>
<path d="M170.318 84.1082C169.995 92.8307 167.933 104.257 167.061 112.967C166.55 118.07 164.645 124.531 163.654 127.453C162.048 132.188 139.409 147.465 132.545 147.477C122.531 147.477 105.217 128.786 104.594 127.253C103.566 124.761 102.19 113.26 101.704 109.185C96.1361 62.5573 104.139 48.2337 140.405 49.2555C173.856 50.1589 170.649 75.3296 170.318 84.1082Z" fill="#F8895D"/>
<path d="M101.573 108.824C100.01 110.73 96.8898 110.656 94.847 109.273C92.8042 107.889 91.6021 105.584 90.6243 103.316C88.5566 98.5252 87.5913 93.2356 88.6314 88.1142C90.7614 77.6285 100.346 83.9648 101.355 84.7187L101.573 108.824Z" fill="#F8895D"/>
<path d="M167.061 113.579C167.74 114.825 169.814 115.355 171.215 115.236C172.61 115.047 173.914 114.436 174.952 113.486C177.306 111.511 178.832 108.719 179.935 105.847C181.137 102.682 181.735 99.2243 181.006 95.916C178.216 83.3182 166.301 86.3773 164.813 86.8819L167.061 113.579Z" fill="#F8895D"/>
<path d="M170.717 104.077C170.64 104.021 170.576 103.95 170.528 103.869C170.48 103.787 170.449 103.696 170.437 103.602C170.425 103.508 170.433 103.413 170.46 103.322C170.487 103.231 170.532 103.146 170.593 103.074C171.346 102.22 172.137 101.005 173.426 101.429C173.852 101.557 174.227 101.816 174.498 102.17C174.769 102.523 174.921 102.953 174.933 103.398C174.884 105.591 172.984 106.114 171.041 108.07C170.924 108.19 170.777 108.277 170.616 108.324C170.455 108.37 170.285 108.374 170.122 108.335C169.959 108.296 169.809 108.216 169.686 108.102C169.564 107.988 169.472 107.844 169.422 107.684C168.942 105.927 170.786 106.108 170.96 105.148C171.066 104.544 170.916 104.233 170.717 104.077Z" fill="#332066"/>
<path d="M96.9211 100.357C96.8837 101.086 98.3784 102.226 98.5528 102.962C98.7272 103.697 98.4096 104.606 97.6809 104.687C97.3672 104.7 97.0575 104.613 96.7965 104.438C95.7114 103.811 94.8408 102.87 94.2985 101.74C93.7563 100.609 93.5676 99.3413 93.7572 98.1019C93.8683 97.2182 94.3142 96.4109 95.0028 95.8465C95.7128 95.3293 97.2761 94.7125 97.8926 95.8465C98.8019 97.5598 97.0332 98.3075 96.9211 100.357Z" fill="#332066"/>
<path d="M94.3488 97.0741C93.1032 99.398 90.5622 100.7 88.8494 102.681C87.1367 104.663 85.779 107.198 86.1091 109.79C84.2549 106.456 83.2817 102.703 83.2817 98.8871C83.2817 95.0713 84.2549 91.3186 86.1091 87.984L84.0974 88.4014C85.6607 82.7442 90.2321 78.5325 93.9129 73.9594C100.832 65.3864 105.186 54.6453 113.668 47.6236C118.028 43.9913 143.613 37.599 144.572 46.5645C146.316 62.969 115.045 57.5611 94.3488 97.0741Z" fill="#FEDAC9"/>
<path d="M167.591 80.3707C168.706 89.0933 169.179 98.4388 174.442 105.436C176.718 108.389 179.713 110.709 183.141 112.174C186.57 113.639 190.316 114.2 194.023 113.803C190.035 111.29 186.454 108.182 183.404 104.588C184.015 105.663 184.913 106.546 185.998 107.14C187.082 107.733 188.31 108.012 189.545 107.946C185.621 102.775 182.071 97.2426 179.866 91.1243C177.493 84.5139 176.783 77.4175 175.507 70.5641C174.23 63.7107 172.349 56.6081 167.983 51.088C163.798 45.867 146.627 38.9949 143.245 48.9198C141.719 53.4182 151.747 55.1502 154.942 56.8823C158.824 58.9627 161.932 62.2401 163.804 66.2278C165.959 70.614 166.968 75.536 167.591 80.3707Z" fill="#FEDAC9"/>
<path d="M186.387 65.7357L181.703 45.026C181.285 43.12 180.595 41.284 179.654 39.5744C174.211 29.855 166.756 23.2321 157.57 19.3132V16.7276L149.417 13.7059V11.6873L136.961 9.07673V7.39453H131.574V9.07673L119.118 11.6873V13.7059L110.971 16.7089V19.3132C101.779 23.257 94.33 29.9049 88.8805 39.5993C87.94 41.3089 87.25 43.1449 86.8315 45.0509L82.1479 65.7606C116.666 60.1391 151.866 60.1306 186.387 65.7357Z" fill="white"/>
<path d="M186.387 65.7357L181.703 45.026C181.285 43.12 180.595 41.284 179.654 39.5744C174.211 29.855 166.756 23.2321 157.57 19.3132V16.7276L149.417 13.7059V11.6873L136.961 9.07673V7.39453H131.574V9.07673L119.118 11.6873V13.7059L110.971 16.7089V19.3132C101.779 23.257 94.33 29.9049 88.8805 39.5993C87.94 41.3089 87.25 43.1449 86.8315 45.0509L82.1479 65.7606C115.518 60.0349 150.302 60.2343 186.387 65.7357Z" fill="#F6AE2D"/>
<path d="M157.719 58.0359C141.626 56.5197 125.424 56.5677 109.34 58.1792C89.7712 60.1792 80.5537 61.5311 73.5845 69.8985L73.5347 74.6648L80.2236 70.2661L92.331 66.5279L109.296 63.6432V63.7803C125.798 60.7359 142.718 60.7359 159.22 63.7803V63.637L176.254 66.5591L188.361 70.2973L195.05 74.509L195.007 69.9297C194.315 68.0107 189.414 60.8209 157.719 58.0359Z" fill="#F6AE2D"/>
<path d="M195.025 74.6629C195.025 75.8467 191.799 76.8373 186.387 77.6348C177.886 59.7038 94.9903 58.5636 78.9967 77.0928C75.5276 76.4012 73.5347 75.5912 73.5347 74.6629C73.5347 67.4108 100.733 61.5293 134.283 61.5293C167.834 61.5293 195.025 67.4108 195.025 74.6629Z" fill="#332066"/>
<path d="M133.318 131.372C126.249 131.372 120.189 123.31 118.769 121.023C122.898 123.609 138.699 125.304 149.791 121.995C147.437 125.889 140.623 131.372 133.318 131.372Z" fill="#ED704F"/>
<path d="M118.769 121.023C124.792 122.132 126.405 119.983 131.045 120.612C131.717 120.705 133.536 121.553 134.227 121.54C134.918 121.528 136.824 120.624 137.472 120.699C141.832 121.223 144.628 122.132 149.791 121.995C145.737 126.936 126.604 127.721 118.769 121.023Z" fill="#DB663E"/>
<path d="M131.126 94.0781C131.489 95.4122 131.698 96.7835 131.749 98.1652C131.804 99.5911 131.578 101.014 131.082 102.352C130.805 103.014 130.452 103.641 130.03 104.221C129.608 104.771 129.157 105.297 128.678 105.797C127.71 106.723 126.9 107.801 126.28 108.987C126.343 107.579 127.146 106.283 127.924 105.187C128.732 104.171 129.404 103.055 129.924 101.866C130.373 100.663 130.662 99.4064 130.783 98.1279C130.902 96.8257 130.958 95.4737 131.126 94.0781Z" fill="#332066"/>
<path d="M131.686 115.646C131.244 115.31 130.864 114.942 130.478 114.618C130.124 114.302 129.743 114.018 129.338 113.771C128.981 113.558 128.581 113.426 128.167 113.385C127.973 113.363 127.776 113.363 127.582 113.385C127.536 113.388 127.49 113.388 127.445 113.385C127.445 113.385 127.445 113.31 127.445 113.329L127.357 113.048C127.413 113.161 127.491 113.262 127.586 113.344C127.681 113.427 127.792 113.489 127.912 113.528C128.058 113.59 128.214 113.625 128.373 113.634C128.553 113.649 128.735 113.63 128.908 113.578C128.798 113.753 128.644 113.895 128.46 113.989C128.265 114.084 128.053 114.141 127.837 114.157C127.589 114.178 127.341 114.138 127.112 114.042C126.883 113.945 126.681 113.795 126.523 113.603L126.461 113.528V113.323C126.454 113.184 126.477 113.046 126.527 112.918C126.578 112.789 126.655 112.672 126.753 112.575C126.913 112.425 127.105 112.315 127.314 112.251C127.626 112.156 127.953 112.116 128.279 112.133C128.912 112.157 129.523 112.375 130.029 112.756C130.489 113.11 130.869 113.558 131.144 114.07C131.408 114.563 131.591 115.095 131.686 115.646Z" fill="#332066"/>
<path d="M135.224 116.045C135.407 115.232 135.768 114.47 136.282 113.815C136.563 113.447 136.916 113.141 137.32 112.916C137.724 112.691 138.17 112.552 138.63 112.506C139.13 112.458 139.634 112.553 140.082 112.78C140.335 112.894 140.559 113.066 140.733 113.283C140.907 113.499 141.028 113.754 141.084 114.027C141.107 114.193 141.089 114.362 141.031 114.519C140.974 114.677 140.879 114.818 140.754 114.93C140.545 115.122 140.272 115.23 139.988 115.235C139.758 115.228 139.534 115.161 139.336 115.042C139.139 114.923 138.975 114.756 138.861 114.556C139.182 114.716 139.554 114.743 139.895 114.631C140.006 114.584 140.095 114.498 140.144 114.388C140.162 114.36 140.171 114.328 140.171 114.294C140.171 114.261 140.162 114.229 140.144 114.201C140.004 114.02 139.813 113.886 139.596 113.815C139.323 113.724 139.035 113.69 138.749 113.715C138.096 113.788 137.479 114.05 136.974 114.469C136.395 114.936 135.859 115.516 135.224 116.045Z" fill="#332066"/>
<path d="M151.753 96.9248C153.314 96.9248 154.58 95.6583 154.58 94.0962C154.58 92.534 153.314 91.2676 151.753 91.2676C150.191 91.2676 148.925 92.534 148.925 94.0962C148.925 95.6583 150.191 96.9248 151.753 96.9248Z" fill="#332066"/>
<path d="M144.422 94.3947C144.692 93.7521 145.15 93.2067 145.736 92.8309C146.305 92.4633 146.918 92.1702 147.561 91.9587C148.823 91.5514 150.127 91.2901 151.448 91.1799C152.783 91.0297 154.134 91.1013 155.446 91.3917C156.14 91.531 156.806 91.7814 157.42 92.1331C157.747 92.3469 158.025 92.6271 158.236 92.9555C158.354 93.1276 158.433 93.3226 158.47 93.5278C158.506 93.7329 158.499 93.9435 158.448 94.1455C158.153 93.9984 157.835 93.9016 157.508 93.8589C157.221 93.8153 156.972 93.7655 156.698 93.7094C156.181 93.5848 155.633 93.4353 155.054 93.3543C153.908 93.1798 152.712 93.0552 151.504 92.9929C150.295 92.9405 149.085 93.0136 147.891 93.211C147.303 93.3077 146.724 93.4536 146.16 93.6471C145.598 93.821 145.088 94.1289 144.671 94.5443L144.422 94.3947Z" fill="#332066"/>
<path d="M117.1 95.0439C118.662 95.0439 119.928 93.7775 119.928 92.2153C119.928 90.6531 118.662 89.3867 117.1 89.3867C115.538 89.3867 114.272 90.6531 114.272 92.2153C114.272 93.7775 115.538 95.0439 117.1 95.0439Z" fill="#332066"/>
<path d="M109.801 91.4915C110.164 90.8922 110.703 90.4199 111.345 90.1395C111.958 89.8508 112.604 89.6415 113.27 89.5164C114.577 89.2876 115.906 89.2102 117.231 89.2859C118.573 89.3264 119.9 89.583 121.161 90.046C121.833 90.2837 122.464 90.6265 123.029 91.0616C123.324 91.3161 123.562 91.6304 123.727 91.9837C123.82 92.1704 123.872 92.3748 123.879 92.5833C123.887 92.7918 123.85 92.9994 123.77 93.1924C123.498 93.0069 123.197 92.8679 122.88 92.7812C122.599 92.6939 122.363 92.6129 122.101 92.5195C121.597 92.3263 121.08 92.102 120.519 91.9401C119.379 91.597 118.221 91.3142 117.05 91.0927C115.86 90.867 114.649 90.7709 113.438 90.8061C112.844 90.8167 112.252 90.8813 111.669 90.9993C111.088 91.0912 110.539 91.3244 110.069 91.6784L109.801 91.4915Z" fill="#332066"/>
<path d="M167.871 93.374C166.305 89.4264 163.246 86.2561 159.357 84.5518C154.649 82.5145 143.326 82.1344 143.326 87.424C143.326 90.1654 158.815 82.1344 167.871 93.374Z" fill="#FEDAC9"/>
<path d="M104.189 87.8043C106.238 84.1408 109.171 82.6954 113.232 81.5739C118.177 80.2033 130.851 80.7453 128.721 86.6205C127.613 89.6796 115.842 79.8544 104.189 87.8043Z" fill="#FEDAC9"/>
<path d="M112.859 54.4278C110.891 54.5961 108.929 54.7892 106.961 55.001C106.995 55.2492 107.09 55.485 107.238 55.6873C107.386 55.8895 107.582 56.0519 107.808 56.1599C108.437 56.4228 109.128 56.5027 109.801 56.3904C110.336 56.34 110.86 56.2033 111.351 55.9854C111.766 55.8353 112.156 55.6254 112.51 55.3624H112.796C112.846 55.9854 112.902 56.5399 112.952 57.1318C112.437 57.368 111.904 57.5618 111.358 57.7112C110.806 57.8573 110.244 57.9573 109.676 58.0103C108.404 58.2151 107.101 58.0259 105.939 57.4683C105.487 57.2184 105.103 56.8598 104.824 56.4247C104.545 55.9896 104.378 55.4918 104.339 54.9761C104.248 54.459 104.283 53.9275 104.443 53.4272C104.602 52.927 104.881 52.4729 105.254 52.1039C106.15 51.2706 107.314 50.7865 108.536 50.7395C109.596 50.547 110.689 50.7463 111.613 51.3002C111.986 51.5724 112.292 51.9259 112.507 52.334C112.723 52.742 112.843 53.1939 112.859 53.6553V54.4278ZM110.168 53.3687C110.157 53.1775 110.106 52.9906 110.021 52.8193C109.935 52.648 109.816 52.4958 109.67 52.3718C109.298 52.1422 108.854 52.0579 108.424 52.1351C107.989 52.1662 107.572 52.3267 107.229 52.5961C107.07 52.7317 106.949 52.9049 106.875 53.0997C106.801 53.2946 106.777 53.5048 106.805 53.7113C107.92 53.593 109.035 53.4746 110.149 53.3687H110.168Z" fill="white"/>
<path d="M119.423 56.945C119.136 57.0258 118.845 57.0903 118.551 57.1381C118.233 57.1817 117.872 57.2316 117.424 57.2627C116.651 57.3698 115.864 57.244 115.163 56.9014C114.887 56.7077 114.663 56.4488 114.511 56.1478C114.359 55.8467 114.283 55.5128 114.291 55.1756C114.204 54.1039 114.117 53.0323 114.036 51.9607L112.971 52.0479L112.84 50.5526L113.917 50.4654C113.861 49.805 113.811 49.1508 113.755 48.4904L116.402 48.291C116.446 48.9514 116.496 49.6119 116.539 50.266L118.999 50.1103C118.999 50.6087 119.055 51.1071 119.087 51.6056L116.645 51.7613L116.813 54.2099C116.813 54.4528 116.844 54.6647 116.857 54.8329C116.869 55.0012 116.922 55.164 117.013 55.3064C117.101 55.449 117.231 55.5602 117.386 55.6242C117.625 55.7036 117.878 55.7291 118.127 55.6989C118.301 55.6835 118.473 55.648 118.638 55.593C118.793 55.5527 118.943 55.4963 119.087 55.4248H119.298L119.392 56.945H119.423Z" fill="white"/>
<path d="M125.184 55.9919L124.679 56.3408C124.498 56.4626 124.308 56.5729 124.113 56.671C123.862 56.7783 123.601 56.8617 123.334 56.9202C123.041 56.9856 122.743 57.0252 122.444 57.0386C121.759 57.0897 121.077 56.9098 120.507 56.5277C120.253 56.3603 120.042 56.1354 119.892 55.8713C119.741 55.6071 119.655 55.3111 119.641 55.0075C119.6 54.5661 119.717 54.1245 119.971 53.7614C120.249 53.4126 120.609 53.1368 121.017 52.9577C121.581 52.7215 122.174 52.5602 122.78 52.4779C123.49 52.372 124.225 52.2723 124.997 52.21V52.1477C125 51.9728 124.943 51.802 124.837 51.663C124.731 51.524 124.581 51.4248 124.412 51.3814C123.88 51.237 123.328 51.1864 122.78 51.2319C122.314 51.2584 121.854 51.3442 121.41 51.4873C120.924 51.6431 120.588 51.7615 120.376 51.8487H120.133L120.039 50.1789C120.48 50.0595 120.927 49.9638 121.379 49.8923C121.995 49.7729 122.62 49.7 123.247 49.6743C124.357 49.5487 125.48 49.7095 126.51 50.1416C126.837 50.3118 127.108 50.5715 127.292 50.8904C127.477 51.2093 127.566 51.5742 127.551 51.9421C127.594 53.506 127.631 55.0573 127.675 56.6398C126.845 56.6398 125.998 56.6648 125.134 56.7146C125.134 56.4716 125.134 56.2286 125.134 55.9794L125.184 55.9919ZM125.14 54.9265C125.14 54.4467 125.14 53.967 125.09 53.4935C124.735 53.5309 124.368 53.5807 123.957 53.6368C123.642 53.6722 123.332 53.7368 123.029 53.8299C122.809 53.8853 122.609 53.9995 122.45 54.1601C122.386 54.2317 122.337 54.3156 122.307 54.4068C122.277 54.4979 122.266 54.5942 122.275 54.6897C122.277 54.8107 122.298 54.9306 122.338 55.0449C122.384 55.1482 122.463 55.2336 122.562 55.2878C122.686 55.3652 122.823 55.4201 122.967 55.4498C123.205 55.4758 123.445 55.4758 123.683 55.4498C123.948 55.4342 124.209 55.3753 124.455 55.2754C124.688 55.1903 124.909 55.0728 125.109 54.9265H125.14Z" fill="white"/>
<path d="M136.394 54.3846C136.384 54.7468 136.274 55.0992 136.077 55.4027C135.879 55.7063 135.601 55.9491 135.273 56.1042C134.336 56.583 133.292 56.8125 132.24 56.7709C131.591 56.7784 130.943 56.7284 130.303 56.6213C129.827 56.542 129.358 56.4232 128.902 56.2662C128.902 55.6432 128.902 55.0201 128.858 54.4345H129.108C129.226 54.5092 129.382 54.5965 129.556 54.6837C129.791 54.7957 130.032 54.8935 130.278 54.9765C130.578 55.0716 130.884 55.1466 131.194 55.2008C131.552 55.265 131.914 55.2963 132.278 55.2943C132.659 55.3053 133.04 55.2548 133.405 55.1447C133.648 55.045 133.766 54.9017 133.766 54.7148C133.77 54.6397 133.752 54.5651 133.714 54.5C133.677 54.4348 133.621 54.3818 133.554 54.3472C133.295 54.2353 133.02 54.1639 132.738 54.1354C132.558 54.098 132.296 54.0606 131.96 54.0233C131.624 53.9859 131.337 53.9298 131.069 53.88C130.467 53.7861 129.902 53.5322 129.431 53.1448C129.253 52.982 129.11 52.7838 129.013 52.5628C128.915 52.3418 128.865 52.1029 128.865 51.8613C128.874 51.5087 128.981 51.1654 129.172 50.8689C129.363 50.5723 129.631 50.3338 129.948 50.1791C130.887 49.6715 131.947 49.4302 133.013 49.4813C133.602 49.4787 134.189 49.5308 134.769 49.6371C135.217 49.7127 135.658 49.8232 136.089 49.9673C136.089 50.553 136.089 51.1386 136.089 51.7243H135.859C135.443 51.4816 134.997 51.2951 134.532 51.1698C134.044 51.031 133.539 50.9597 133.031 50.9579C132.667 50.9502 132.305 51.005 131.96 51.1199C131.667 51.2196 131.53 51.3629 131.53 51.5436C131.529 51.6184 131.547 51.6922 131.583 51.7578C131.619 51.8234 131.672 51.8784 131.736 51.9174C132.028 52.0558 132.342 52.1402 132.664 52.1666C132.925 52.2165 133.218 52.2538 133.529 52.2912C133.841 52.3286 134.152 52.3909 134.451 52.4532C135.013 52.5513 135.538 52.7988 135.971 53.1697C136.125 53.3296 136.243 53.521 136.316 53.7308C136.389 53.9405 136.416 54.1635 136.394 54.3846Z" fill="white"/>
<path d="M145.506 53.7602C143.526 53.673 141.551 53.6107 139.571 53.5671C139.576 53.8155 139.641 54.0589 139.762 54.2762C139.882 54.4934 140.054 54.6778 140.262 54.8132C140.849 55.155 141.521 55.3235 142.199 55.2991C142.737 55.3164 143.275 55.2513 143.794 55.106C144.23 54.9993 144.649 54.8315 145.039 54.6076H145.332C145.332 55.2306 145.276 55.7913 145.251 56.3832C144.711 56.5475 144.159 56.6683 143.601 56.7446C143.037 56.8227 142.468 56.8519 141.9 56.8318C140.603 56.8733 139.324 56.5144 138.238 55.8038C137.824 55.4947 137.494 55.0874 137.276 54.6186C137.059 54.1498 136.961 53.6343 136.993 53.1185C136.983 52.6076 137.093 52.1016 137.313 51.6407C137.534 51.1799 137.859 50.7771 138.263 50.4644C139.26 49.7563 140.477 49.4272 141.695 49.536C142.756 49.4829 143.801 49.8123 144.641 50.4644C144.969 50.7849 145.22 51.1757 145.375 51.6074C145.531 52.039 145.586 52.5003 145.537 52.9565C145.537 53.2182 145.537 53.4799 145.506 53.7415V53.7602ZM142.971 52.3646C142.986 52.1733 142.96 51.9811 142.897 51.8C142.834 51.6189 142.734 51.4527 142.604 51.3117C142.273 51.0409 141.854 50.9012 141.427 50.9192C140.991 50.8914 140.557 50.9956 140.181 51.2182C140.008 51.3342 139.866 51.4907 139.767 51.6742C139.668 51.8578 139.616 52.0627 139.615 52.2712C140.736 52.2712 141.857 52.3272 142.971 52.3646Z" fill="white"/>
<path d="M149.137 57.0077L146.577 56.8644C146.739 53.6786 146.897 50.4907 147.05 47.3008L149.71 47.4441C149.519 50.634 149.328 53.8219 149.137 57.0077Z" fill="white"/>
<path d="M159.096 54.7387C157.121 54.5455 155.153 54.3711 153.179 54.2215C153.167 54.4723 153.218 54.722 153.327 54.9482C153.435 55.1744 153.599 55.37 153.802 55.5174C154.365 55.9021 155.026 56.1182 155.707 56.1405C156.246 56.1877 156.788 56.1499 157.314 56.0283C157.748 55.9444 158.167 55.7997 158.56 55.5984H158.853C158.79 56.1841 158.734 56.776 158.678 57.3679C157.574 57.646 156.43 57.7345 155.296 57.6295C153.997 57.5939 152.74 57.1589 151.697 56.3835C151.299 56.0529 150.991 55.6287 150.798 55.1491C150.606 54.6694 150.536 54.1494 150.594 53.6359C150.606 53.1189 150.74 52.612 150.986 52.1571C151.232 51.7021 151.582 51.3121 152.008 51.0191C153.042 50.3689 154.274 50.1063 155.483 50.2777C156.559 50.2869 157.596 50.6827 158.404 51.3929C158.714 51.7307 158.944 52.1344 159.075 52.5736C159.207 53.0128 159.237 53.4761 159.164 53.9287L159.089 54.7137L159.096 54.7387ZM156.642 53.206C156.666 53.0155 156.651 52.8222 156.597 52.6378C156.544 52.4535 156.453 52.2821 156.33 52.1344C156.013 51.8459 155.601 51.684 155.172 51.6795C154.743 51.6282 154.308 51.7086 153.926 51.9101C153.748 52.0182 153.599 52.1673 153.491 52.3451C153.382 52.5229 153.318 52.7241 153.303 52.9318C154.418 53.0191 155.539 53.1063 156.654 53.206H156.642Z" fill="white"/>
<path d="M164.109 58.5636C163.472 58.486 162.846 58.3398 162.241 58.1275C161.721 57.9441 161.238 57.6699 160.814 57.3176C160.43 56.9776 160.133 56.5502 159.949 56.0715C159.758 55.55 159.692 54.9909 159.756 54.4391C159.799 53.8625 159.989 53.3066 160.31 52.8255C160.61 52.3798 161.019 52.0192 161.5 51.7788C161.997 51.5191 162.541 51.3603 163.1 51.3115C163.706 51.2399 164.319 51.2399 164.925 51.3115C165.44 51.3701 165.948 51.485 166.438 51.6542C166.87 51.8066 167.287 51.9985 167.684 52.2273L167.441 54.0965L167.074 54.0466C166.974 53.9594 166.874 53.8535 166.737 53.7476C166.586 53.6151 166.424 53.4962 166.252 53.3924C166.053 53.2721 165.844 53.168 165.629 53.0809C165.368 52.9827 165.096 52.9198 164.819 52.894C164.531 52.8398 164.236 52.8444 163.95 52.9076C163.664 52.9707 163.394 53.0912 163.156 53.2616C162.945 53.4429 162.772 53.6648 162.648 53.9141C162.524 54.1635 162.451 54.4352 162.434 54.7133C162.382 54.9868 162.391 55.2683 162.458 55.5382C162.526 55.8082 162.652 56.0603 162.826 56.2771C163.244 56.7144 163.816 56.9715 164.421 56.9936C164.712 57.0277 165.007 57.0277 165.299 56.9936C165.526 56.9723 165.749 56.9242 165.965 56.8503C166.123 56.7999 166.276 56.7331 166.42 56.6509C166.547 56.5875 166.67 56.5146 166.787 56.4328L167.155 56.4765C167.074 57.0995 166.986 57.7225 166.905 58.3456C166.478 58.4571 166.043 58.5342 165.604 58.5761C165.106 58.6196 164.606 58.6154 164.109 58.5636Z" fill="white"/>
<path d="M173.184 59.562C172.887 59.5838 172.589 59.5838 172.293 59.562C171.975 59.562 171.608 59.5059 171.159 59.4436C170.38 59.3822 169.636 59.0893 169.023 58.6025C168.795 58.3551 168.631 58.0548 168.547 57.7285C168.464 57.4023 168.462 57.0603 168.544 56.7334C168.687 55.668 168.836 54.6026 168.986 53.5372L167.921 53.3939C167.989 52.9017 168.052 52.4033 168.12 51.9111L169.185 52.0544C169.279 51.4002 169.366 50.746 169.459 50.0918L172.087 50.4718C171.994 51.0949 171.894 51.774 171.801 52.4282L174.255 52.8082C174.174 53.3004 174.099 53.7926 174.018 54.2848L171.595 53.911C171.477 54.721 171.353 55.5309 171.234 56.3409C171.197 56.5776 171.166 56.7894 171.141 56.9639C171.116 57.1316 171.133 57.3029 171.191 57.4623C171.244 57.6226 171.349 57.7605 171.49 57.8548C171.703 57.9862 171.944 58.0672 172.193 58.0916C172.369 58.1104 172.547 58.1104 172.723 58.0916C172.883 58.087 173.041 58.064 173.196 58.0231L173.408 58.0604C173.327 58.5589 173.246 59.0635 173.171 59.562H173.184Z" fill="white"/>
<path d="M97.6869 57.6238C97.581 56.8949 97.4751 56.1597 97.363 55.4245L97.1575 53.9167C97.0703 53.2937 96.9769 52.6707 96.8835 52.0476C96.79 51.4246 96.7278 50.9698 96.6468 50.4277L94.0186 50.8265C94.4794 53.7548 94.9424 56.683 95.4074 59.6113C96.2544 59.4742 97.1014 59.3496 97.9485 59.225L97.6869 57.6238Z" fill="white"/>
<path d="M102.626 53.5045C102.19 52.9779 101.66 52.5365 101.063 52.2024L100.826 52.084C99.9355 52.1961 99.0449 52.3207 98.1543 52.4516C98.1917 52.6946 98.2228 52.9375 98.2602 53.1805L98.5093 53.274C98.7403 53.3657 98.9615 53.4805 99.1695 53.6167C99.3982 53.747 99.6078 53.9084 99.7923 54.0964C99.9763 54.2827 100.135 54.4921 100.266 54.7194C100.394 54.9601 100.478 55.2217 100.515 55.492C100.562 55.7599 100.562 56.034 100.515 56.3019C100.447 56.555 100.351 56.7995 100.228 57.0309C100.105 57.2547 99.9566 57.4637 99.786 57.6539C99.6178 57.8369 99.4368 58.0077 99.2442 58.1648L99.0387 58.333C99.076 58.576 99.1072 58.819 99.1446 59.062L101.76 58.7069L101.935 58.5262C102.419 58.051 102.815 57.4942 103.106 56.8814C103.343 56.3347 103.429 55.7344 103.355 55.1431C103.262 54.5417 103.011 53.976 102.626 53.5045Z" fill="white"/>
<path d="M272.559 240C274.383 236.031 276.495 232.044 278.662 228.262C284.554 217.969 291.318 208.188 297.029 197.795C297.651 196.655 298.274 195.403 298.081 194.119C297.869 193.202 297.442 192.348 296.836 191.627C295.335 189.571 293.79 187.478 291.654 186.101C290.626 185.447 289.437 184.923 288.789 183.889C288.322 183.142 288.21 182.213 287.736 181.466C286.073 178.799 281.471 180.039 279.378 177.727C278.65 176.917 278.344 175.777 277.51 175.048C276.675 174.319 275.504 174.126 274.396 173.983L265.938 172.893C265.365 176.762 262.631 179.883 260.333 183.029C257.365 187.096 254.96 191.545 253.183 196.256C252.679 197.59 252.218 199.017 252.448 200.425C252.739 201.583 253.215 202.688 253.856 203.696C255.144 206.201 256.067 208.878 256.596 211.645C257.611 216.667 256.727 221.938 254.908 226.729C253.09 231.52 250.474 235.676 247.715 240" fill="#F8895D"/>
<path d="M287.624 213.196C285.345 212.337 283.19 211.52 281.733 208.088C279.378 202.555 275.199 192.761 271.145 183.284C267.682 175.185 264.431 167.553 262.862 163.858C262.731 163.54 262.594 163.235 262.457 162.917C261.111 159.802 260.053 157.36 260.943 153.136C261.479 150.569 260.532 147.491 258.533 145.285C256.222 142.731 252.828 141.547 248.979 141.977L247.777 142.114L252.809 147.946C253.08 148.726 253.129 149.566 252.951 150.372C252.773 151.178 252.375 151.919 251.8 152.513C250.521 153.697 248.848 154.364 247.105 154.382L241.829 149.017L241.387 149.64C241.287 149.771 239.008 152.936 242.82 158.537C244.451 160.936 246.177 161.528 247.846 162.101C249.994 162.836 252.018 163.528 254.074 168.406C256.129 173.285 268.523 201.863 271.73 209.159C274.01 214.324 274.844 217.028 273.941 219.389C273.038 221.751 272.073 226.243 275.965 229.944C279.752 233.526 282.517 234.56 285.226 233.414L286.011 233.078L280.942 227.015C280.811 226.642 280.319 224.76 282.866 222.903C283.631 222.291 284.515 221.843 285.461 221.588C286.407 221.333 287.396 221.276 288.365 221.421L293.765 227.651L294.226 226.984C294.307 226.872 296.032 224.262 293.404 218.075C292.059 214.872 289.804 214.019 287.624 213.196Z" fill="#D0CFEC"/>
<path d="M305.58 203.633C302.708 203.932 299.974 204.213 296.238 201.415C290.196 196.898 279.478 188.917 269.121 181.198L247.877 165.36L246.849 164.594C243.43 162.102 240.733 160.089 238.821 155.248C237.663 152.308 234.661 149.597 231.185 148.358C229.233 147.642 227.136 147.412 225.075 147.687C223.013 147.961 221.05 148.732 219.352 149.934L218.231 150.7L227.175 154.121C227.673 154.557 229.84 156.613 229.186 159.392C228.939 160.326 228.5 161.199 227.899 161.956C227.298 162.713 226.546 163.338 225.692 163.79L216.817 160.98L216.761 161.821C216.761 162.015 216.562 166.494 224.117 170.313C227.355 171.952 229.485 171.659 231.547 171.379C234.194 171.017 236.697 170.675 241.979 174.681C247.26 178.687 278.805 201.92 286.871 207.789C292.6 211.957 295.26 214.318 295.889 217.253C296.518 220.187 298.536 225.352 304.938 227.153C311.129 228.891 314.604 228.517 316.572 225.907L317.139 225.147L308.002 221.508C307.629 221.191 305.885 219.496 307.211 216.231C307.584 215.194 308.188 214.256 308.978 213.488C309.768 212.721 310.723 212.144 311.77 211.801L321.368 215.396V214.462C321.368 214.306 321.368 210.686 314.623 205.64C311.154 203.048 308.32 203.341 305.58 203.633Z" fill="#D0CFEC"/>
<path d="M294.855 200.275C294.855 200.275 268.766 173.254 265.938 172.893C265.365 176.762 261.087 180.026 258.776 183.173C255.811 187.229 259.212 191.833 257.437 196.531C258.216 199.901 261.062 202.761 263.453 202.605C263.554 202.598 263.655 202.612 263.75 202.647C263.844 202.683 263.93 202.738 264.001 202.81C264.072 202.881 264.127 202.968 264.161 203.062C264.196 203.157 264.209 203.258 264.201 203.359C263.927 206.306 267.782 208.237 270.205 206.755C270.281 206.712 270.366 206.686 270.454 206.678C270.541 206.671 270.629 206.682 270.712 206.71C270.795 206.739 270.871 206.785 270.935 206.846C270.999 206.906 271.049 206.979 271.083 207.06C272.11 209.969 276.47 209.054 279.136 206.468C283.377 202.605 284.174 201.272 294.855 200.275Z" fill="#332066"/>
<path d="M275.212 174.075C273.233 173.285 271.207 172.62 269.146 172.081C268.193 171.876 267.14 171.72 266.306 172.212C265.781 172.603 265.354 173.11 265.06 173.695C262.162 178.462 260.234 183.756 259.386 189.271C259.15 190.679 258.664 192.187 259.336 193.439C259.922 194.529 260.949 195.183 261.099 196.411C261.223 197.47 260.688 198.548 260.788 199.613C260.949 201.389 263.279 201.925 265.048 201.987C264.786 202.785 264.822 203.65 265.147 204.424C265.472 205.198 266.065 205.829 266.818 206.2C267.57 206.572 268.431 206.66 269.243 206.448C270.055 206.236 270.763 205.738 271.238 205.046C271.73 206.996 274.396 207.576 276.252 206.797C278.108 206.018 279.434 204.386 280.991 203.115C284.417 200.323 290.595 199.127 294.861 200.261" fill="#F8895D"/>
<path d="M272.278 201.676C273.431 200.212 274.533 198.71 275.704 197.258C276.875 195.807 278.033 194.343 279.291 192.953C279.914 192.255 280.537 191.576 281.234 190.916C281.583 190.598 281.919 190.293 282.299 189.975C282.674 189.639 283.115 189.386 283.595 189.234C284.545 188.996 285.541 189.009 286.485 189.271C287.388 189.486 288.306 189.634 289.231 189.713C287.363 190.05 285.42 189.246 283.782 189.801C283.375 189.941 283.002 190.163 282.685 190.455C282.337 190.741 281.994 191.078 281.658 191.364C280.998 191.987 280.35 192.667 279.721 193.346C278.475 194.704 277.23 196.106 275.984 197.508C274.738 198.909 273.568 200.33 272.278 201.676Z" fill="#332066"/>
<path d="M265.739 201.377C266.481 200.304 267.157 199.186 267.763 198.031L269.631 194.61C270.877 192.324 272.191 190.056 273.636 187.869C274.343 186.749 275.143 185.69 276.028 184.704C276.268 184.451 276.535 184.226 276.825 184.031C277.128 183.845 277.458 183.704 277.803 183.614C278.463 183.459 279.142 183.392 279.82 183.414C281.141 183.457 282.454 183.637 283.738 183.95C285.013 184.24 286.273 184.593 287.512 185.009C284.984 184.435 282.41 184.085 279.82 183.963C279.19 183.953 278.562 184.029 277.952 184.187C277.665 184.26 277.391 184.38 277.142 184.542C276.895 184.728 276.666 184.937 276.457 185.165C275.59 186.114 274.802 187.133 274.103 188.212C272.658 190.368 271.332 192.617 269.974 194.841C269.295 195.956 268.641 197.084 267.937 198.187C267.283 199.302 266.549 200.368 265.739 201.377Z" fill="#332066"/>
<path d="M260.912 198.362C261.678 195.733 262.587 193.141 263.578 190.581C264.54 188.006 265.659 185.493 266.928 183.054C267.545 181.799 268.317 180.627 269.227 179.565C269.478 179.287 269.775 179.053 270.105 178.874C270.43 178.708 270.773 178.579 271.126 178.488C271.813 178.325 272.514 178.229 273.219 178.201C274.602 178.152 275.987 178.237 277.354 178.456C278.717 178.651 280.06 178.959 281.371 179.379C278.707 178.848 275.989 178.639 273.275 178.756C272.61 178.79 271.951 178.892 271.307 179.061C270.998 179.143 270.699 179.26 270.416 179.41C270.146 179.566 269.904 179.766 269.7 180.002C268.822 181.018 268.072 182.137 267.464 183.335C266.169 185.727 265.072 188.238 263.983 190.743C262.893 193.247 261.865 195.796 260.912 198.362Z" fill="#332066"/>
<path d="M259.424 212.654C255.575 209.757 254.018 204.81 252.673 200.194L249.745 190.144C249.517 189.457 249.365 188.746 249.291 188.026C249.268 187.401 249.304 186.775 249.397 186.157L250.144 179.989C250.349 178.288 250.592 176.487 251.67 175.16C252.915 173.59 255.064 173.048 257.057 172.724C259.118 172.392 261.199 172.203 263.285 172.157C263.709 172.12 264.135 172.182 264.531 172.338C265.452 172.793 265.571 174.064 265.403 175.079C265.012 177.45 263.813 179.612 262.008 181.197C261.545 181.541 261.144 181.963 260.825 182.443C260.62 182.888 260.504 183.368 260.482 183.858C260.17 187.221 260.545 190.613 261.585 193.826" fill="#F8895D"/>
<path d="M260.233 182.499H256.403C256.403 182.499 263.285 181.732 265.421 175.109C265.031 177.48 263.831 179.642 262.027 181.228C261.563 181.571 261.163 181.993 260.843 182.474C260.639 182.918 260.522 183.399 260.501 183.888C260.178 186.439 259.634 188.957 258.875 191.414" fill="#332066"/>
</svg>
