<svg width="504" height="304" viewBox="0 0 504 304" fill="none" xmlns="http://www.w3.org/2000/svg">
<path d="M135.956 173.867C116.604 172.101 97.6176 179.528 84.5945 193.957C81.3692 197.548 78.509 201.871 78.2656 206.68C77.7788 215.873 86.6636 222.752 95.1834 226.161C101.512 228.718 108.389 230.361 115.144 229.448C121.899 228.535 128.532 224.578 131.331 218.369C134.496 211.428 132.427 202.966 127.741 197C123.055 191.034 116.178 187.138 109.18 184.216C96.1571 178.737 82.0995 175.937 69.1373 170.336C61.287 166.988 53.6192 162.422 48.6291 155.482C39.9876 143.611 41.3265 125.53 51.6718 115.12C57.6357 109.093 65.7903 105.745 73.6406 102.579C90.2541 95.8824 106.868 89.1858 124.029 84.1329C138.086 79.9932 152.57 77.0102 166.323 71.7748C180.076 66.5393 193.343 58.9295 202.35 47.3627C208.618 39.3269 212.33 27.2122 206.001 19.2981C200.828 12.845 191.213 12.1145 183.18 13.9408C173.2 16.1933 164.193 21.4897 157.377 29.0994C154.396 32.3868 151.84 36.3439 151.535 40.7879C151.109 46.3887 154.578 51.8068 159.264 54.9116C163.95 58.0164 169.67 59.2339 175.269 59.7209C198.698 61.7299 221.397 52.5374 243.366 44.1362C265.335 35.7351 288.886 27.9427 311.889 32.6912C322.417 34.8828 332.276 39.6313 341.404 45.2929C347.733 49.25 353.94 53.8158 358.078 60.0862C366.233 72.3226 365.016 88.577 361.303 102.822C355.461 125.408 344.264 146.228 333.249 166.744" stroke="#FEDAC9" stroke-miterlimit="10" stroke-linecap="round" stroke-dasharray="6 6"/>
<path d="M95.8528 266.523H378.404" stroke="#1A224A" stroke-opacity="0.5" stroke-miterlimit="10"/>
<path d="M43.8823 228.048H326.433" stroke="#1A224A" stroke-opacity="0.5" stroke-miterlimit="10"/>
<path d="M259.736 248.503H222.919L245.374 207.593H282.131L259.736 248.503Z" fill="#A4A3AE"/>
<path d="M222.919 248.503H293.998C296.614 248.503 298.805 250.634 298.805 253.312H222.919V248.503Z" fill="#D0CFEC"/>
<path d="M222.919 248.503H252.86C255.476 248.503 257.667 250.634 257.667 253.312H222.98L222.919 248.503Z" fill="#1A224A"/>
<path d="M365.746 212.037L305.499 88.8814C304.891 87.6639 303.735 86.9333 302.396 86.9333H103.216L102.547 85.7158L100.052 87.7856C98.8348 88.8205 98.5306 90.5251 99.2 91.9253L159.447 215.081C160.055 216.299 161.211 217.029 162.55 217.029H362.582C364.529 217.029 366.05 215.507 366.05 213.559C366.05 213.011 365.929 212.524 365.746 212.037Z" fill="#A5A3AE"/>
<path d="M364.955 215.142H164.924C163.585 215.142 162.368 214.411 161.82 213.194L101.573 89.9772C100.721 88.2726 101.452 86.2028 103.156 85.3505C103.642 85.107 104.129 84.9852 104.677 84.9852H304.708C306.047 84.9852 307.264 85.7158 307.812 86.9333L368.059 210.089C368.91 211.794 368.18 213.924 366.476 214.716C365.989 215.02 365.503 215.142 364.955 215.142Z" fill="#D5D4DA"/>
<path d="M364.955 215.142H210.748L252.555 84.9852H304.708C306.047 84.9852 307.264 85.7158 307.812 86.9333L368.058 210.089C368.91 211.794 368.18 213.924 366.476 214.716C365.989 215.02 365.503 215.142 364.955 215.142Z" fill="#C3C1CE"/>
<path d="M360.147 208.263H170.34L114.11 93.2646H300.022L360.147 208.263Z" fill="white"/>
<path d="M186.588 204.915H173.078L126.281 109.276H139.851L186.588 204.915Z" fill="#FEDAC9"/>
<path d="M299.353 107.206H125.489L120.864 97.587H294.363L299.353 107.206Z" fill="#FEDAC9"/>
<path d="M340.369 190.426H190.422L182.389 174.049H332.032L340.369 190.426Z" fill="#FEDAC9"/>
<path d="M248.235 73.4793L238.741 69.6441L248.235 65.8087L257.667 69.6441L248.235 73.4793Z" fill="#D0CFEC"/>
<path d="M248.235 160.656L238.741 160.23V69.644L248.235 73.4793V160.656Z" fill="#598B9B"/>
<path d="M248.235 160.656H257.667V69.644L248.235 73.4793V160.656Z" fill="#7BC5DC"/>
<path d="M238.741 107.814L229.309 103.979L238.741 100.144L248.235 103.979L238.741 107.814Z" fill="#D0CFEC"/>
<path d="M238.741 190.426H229.309V103.979L238.741 107.814V190.426Z" fill="#598B9B"/>
<path d="M238.741 190.426H248.235V103.979L238.741 107.814V190.426Z" fill="#7BC5DC"/>
<path d="M257.667 116.946L248.235 113.111L257.667 109.276L267.1 113.111L257.667 116.946Z" fill="#D0CFEC"/>
<path d="M257.667 190.426L248.235 189.999V113.111L257.667 116.946V190.426Z" fill="#598B9B"/>
<path d="M257.667 190.426H267.1V113.111L257.667 116.946V190.426Z" fill="#7BC5DC"/>
<path d="M276.532 134.418L267.1 130.583L276.532 126.747L285.965 130.583L276.532 134.418Z" fill="#D0CFEC"/>
<path d="M276.532 190.426H267.1V130.583L276.532 134.418V190.426Z" fill="#598B9B"/>
<path d="M276.532 190.426H285.965V130.583L276.532 134.418V190.426Z" fill="#7BC5DC"/>
<path d="M229.309 129.061L219.876 125.225L229.309 121.39L238.741 125.225L229.309 129.061Z" fill="#D0CFEC"/>
<path d="M229.309 190.426H219.876V125.225L229.309 129.061V190.426Z" fill="#598B9B"/>
<path d="M229.309 190.426H238.741V125.225L229.309 129.061V190.426Z" fill="#7BC5DC"/>
<path d="M248.235 142.819L238.741 138.984L248.235 135.088L257.667 138.984L248.235 142.819Z" fill="#D0CFEC"/>
<path d="M248.235 190.426H238.741V138.984L248.235 142.819V190.426Z" fill="#598B9B"/>
<path d="M248.235 190.426H257.667V138.984L248.235 142.819V190.426Z" fill="#7BC5DC"/>
<path d="M229.309 38.0485L219.876 34.2131L229.309 30.3779L238.741 34.2131L229.309 38.0485Z" fill="#D0CFEC"/>
<path d="M229.309 70.1311L219.876 66.2958V34.2132L229.309 38.0485V70.1311Z" fill="#598B9B"/>
<path d="M229.309 70.1311L238.741 66.2958V34.2132L229.309 38.0485V70.1311Z" fill="#7BC5DC"/>
<path d="M276.532 79.2627L267.1 75.4274L276.532 71.5921L285.965 75.4274L276.532 79.2627Z" fill="#D0CFEC"/>
<path d="M276.532 111.345L267.1 107.51V75.4274L276.532 79.2627V111.345Z" fill="#598B9B"/>
<path d="M276.532 111.345L285.965 107.51V75.4274L276.532 79.2627V111.345Z" fill="#7BC5DC"/>
<path d="M205.757 143.063H200.767V151.403H205.757V143.063Z" fill="#598B9B"/>
<path d="M210.747 134.783H205.757V143.124H210.747V134.783Z" fill="#598B9B"/>
<path d="M211.295 156.334H206.305V164.674H211.295V156.334Z" fill="#598B9B"/>
<path d="M200.463 163.457H195.473V171.797H200.463V163.457Z" fill="#598B9B"/>
<path d="M200.463 171.493H195.473V179.833H200.463V171.493Z" fill="#598B9B"/>
<path d="M219.876 76.645H214.886V84.9852H219.876V76.645Z" fill="#598B9B"/>
<path d="M227.361 90.7686H222.371V99.1089H227.361V90.7686Z" fill="#598B9B"/>
<path d="M296.128 147.02H291.137V155.36H296.128V147.02Z" fill="#598B9B"/>
<g filter="url(#filter0_b_7289_29381)">
<path d="M399.277 187.747H319.131C318.157 187.747 317.244 187.199 316.757 186.286L290.042 131.557C289.433 130.278 289.92 128.696 291.259 128.087C291.624 127.904 291.989 127.843 292.415 127.843H372.623C373.596 127.843 374.509 128.452 374.996 129.304L401.711 184.033C402.32 185.312 401.772 186.895 400.494 187.503C400.068 187.625 399.703 187.747 399.277 187.747Z" fill="url(#paint0_linear_7289_29381)"/>
</g>
<path d="M338.605 148.542H302.396L298.075 139.227H334.284L338.605 148.542Z" stroke="white" stroke-linecap="round" stroke-linejoin="round"/>
<path d="M335.318 180.259H318.401L303.613 151.281H320.47L335.318 180.259Z" stroke="white" stroke-linecap="round" stroke-linejoin="round"/>
<path d="M354.609 180.259H337.753L322.904 151.281H339.822L354.609 180.259Z" stroke="white" stroke-linecap="round" stroke-linejoin="round"/>
<path d="M303.126 142.819H324.486" stroke="#1A224A" stroke-opacity="0.5" stroke-width="2" stroke-miterlimit="10" stroke-linecap="round"/>
<path d="M304.647 145.559H317.245" stroke="#1A224A" stroke-opacity="0.5" stroke-width="2" stroke-miterlimit="10" stroke-linecap="round"/>
<path d="M307.69 153.838L313.349 165.527" stroke="#1A224A" stroke-opacity="0.5" stroke-width="2" stroke-miterlimit="10" stroke-linecap="round"/>
<path d="M311.219 153.838L319.07 169.971" stroke="#1A224A" stroke-opacity="0.5" stroke-width="2" stroke-miterlimit="10" stroke-linecap="round"/>
<path d="M314.749 153.838L325.642 176.058" stroke="#1A224A" stroke-opacity="0.5" stroke-width="2" stroke-miterlimit="10" stroke-linecap="round"/>
<path d="M318.34 153.838L322.417 162.239" stroke="#1A224A" stroke-opacity="0.5" stroke-width="2" stroke-miterlimit="10" stroke-linecap="round"/>
<path d="M326.738 153.838L337.813 176.545" stroke="#1A224A" stroke-opacity="0.5" stroke-width="2" stroke-miterlimit="10" stroke-linecap="round"/>
<path d="M330.267 153.838L336.657 166.927" stroke="#1A224A" stroke-opacity="0.5" stroke-width="2" stroke-miterlimit="10" stroke-linecap="round"/>
<path d="M333.858 153.838L337.935 162.239" stroke="#1A224A" stroke-opacity="0.5" stroke-width="2" stroke-miterlimit="10" stroke-linecap="round"/>
<path d="M337.387 153.838L344.021 167.475" stroke="#1A224A" stroke-opacity="0.5" stroke-width="2" stroke-miterlimit="10" stroke-linecap="round"/>
<path d="M303.126 142.21H324.486" stroke="#7BC5DC" stroke-width="2" stroke-miterlimit="10" stroke-linecap="round"/>
<path d="M304.647 144.95H317.245" stroke="#FEDAC9" stroke-width="2" stroke-miterlimit="10" stroke-linecap="round"/>
<path d="M308.299 153.229L313.958 164.918" stroke="white" stroke-width="2" stroke-miterlimit="10" stroke-linecap="round"/>
<path d="M311.828 153.229L319.678 169.362" stroke="#7BC5DC" stroke-width="2" stroke-miterlimit="10" stroke-linecap="round"/>
<path d="M315.358 153.229L326.251 175.45" stroke="white" stroke-width="2" stroke-miterlimit="10" stroke-linecap="round"/>
<path d="M318.948 153.229L323.026 161.63" stroke="#7BC5DC" stroke-width="2" stroke-miterlimit="10" stroke-linecap="round"/>
<path d="M327.346 153.229L338.422 175.937" stroke="white" stroke-width="2" stroke-miterlimit="10" stroke-linecap="round"/>
<path d="M330.876 153.229L337.266 166.318" stroke="#7BC5DC" stroke-width="2" stroke-miterlimit="10" stroke-linecap="round"/>
<path d="M334.466 153.229L338.544 161.63" stroke="white" stroke-width="2" stroke-miterlimit="10" stroke-linecap="round"/>
<path d="M337.996 153.229L344.629 166.866" stroke="#7BC5DC" stroke-width="2" stroke-miterlimit="10" stroke-linecap="round"/>
<path d="M376.882 154.812C380.412 161.996 377.369 167.901 370.067 167.901C362.764 167.901 354.123 161.935 350.836 154.812C347.672 147.811 350.836 142.21 357.896 142.21C364.955 142.21 373.414 147.75 376.882 154.812Z" stroke="#1A224A" stroke-opacity="0.6" stroke-width="6" stroke-linecap="round" stroke-linejoin="round"/>
<path d="M377.491 153.595C381.021 160.778 377.978 166.683 370.675 166.683C363.373 166.683 354.731 160.717 351.445 153.595C348.281 146.594 351.445 140.993 358.504 140.993C365.563 140.993 374.022 146.533 377.491 153.595Z" stroke="white" stroke-width="6" stroke-linecap="round" stroke-linejoin="round"/>
<path d="M358.504 140.932C365.563 140.932 374.022 146.533 377.491 153.534" stroke="#7BC5DC" stroke-width="6" stroke-linecap="round" stroke-linejoin="round"/>
<path d="M109.85 146.959H29.6423C28.6686 146.959 27.7558 146.411 27.2689 145.498L0.553472 90.7686C-0.0550805 89.4902 0.431762 87.9074 1.77058 87.2986C2.13571 87.116 2.50084 87.0551 2.92683 87.0551H83.1341C84.1078 87.0551 85.0206 87.603 85.5074 88.5162L112.223 143.245C112.831 144.524 112.345 146.107 111.006 146.715C110.641 146.837 110.215 146.959 109.85 146.959Z" fill="url(#paint1_linear_7289_29381)"/>
<path d="M7.73438 96.065H34.9367" stroke="#1A224A" stroke-opacity="0.5" stroke-width="2" stroke-miterlimit="10" stroke-linecap="round"/>
<path d="M67.616 101.788H83.0732" stroke="#1A224A" stroke-opacity="0.5" stroke-width="2" stroke-miterlimit="10" stroke-linecap="round"/>
<path d="M58.1226 101.788H64.3298" stroke="#1A224A" stroke-opacity="0.5" stroke-width="2" stroke-miterlimit="10" stroke-linecap="round"/>
<path d="M33.2937 101.788H54.8365" stroke="#1A224A" stroke-opacity="0.5" stroke-width="2" stroke-miterlimit="10" stroke-linecap="round"/>
<path d="M10.5945 101.788H30.555" stroke="#1A224A" stroke-opacity="0.5" stroke-width="2" stroke-miterlimit="10" stroke-linecap="round"/>
<path d="M19.7837 107.51H41.2656" stroke="#1A224A" stroke-opacity="0.5" stroke-width="2" stroke-miterlimit="10" stroke-linecap="round"/>
<path d="M57.5139 113.233H64.3297" stroke="#1A224A" stroke-opacity="0.5" stroke-width="2" stroke-miterlimit="10" stroke-linecap="round"/>
<path d="M29.0337 113.233H53.0715" stroke="#1A224A" stroke-opacity="0.5" stroke-width="2" stroke-miterlimit="10" stroke-linecap="round"/>
<path d="M76.6833 118.955H90.4366" stroke="#1A224A" stroke-opacity="0.5" stroke-width="2" stroke-miterlimit="10" stroke-linecap="round"/>
<path d="M64.3298 118.955H73.093" stroke="#1A224A" stroke-opacity="0.5" stroke-width="2" stroke-miterlimit="10" stroke-linecap="round"/>
<path d="M49.4812 118.955H61.2263" stroke="#1A224A" stroke-opacity="0.5" stroke-width="2" stroke-miterlimit="10" stroke-linecap="round"/>
<path d="M31.894 118.955H46.1342" stroke="#1A224A" stroke-opacity="0.5" stroke-width="2" stroke-miterlimit="10" stroke-linecap="round"/>
<path d="M54.167 124.678H81.4302" stroke="#1A224A" stroke-opacity="0.5" stroke-width="2" stroke-miterlimit="10" stroke-linecap="round"/>
<path d="M34.7542 124.678H51.2459" stroke="#1A224A" stroke-opacity="0.5" stroke-width="2" stroke-miterlimit="10" stroke-linecap="round"/>
<path d="M31.2246 130.4H52.0371" stroke="#1A224A" stroke-opacity="0.5" stroke-width="2" stroke-miterlimit="10" stroke-linecap="round"/>
<path d="M79.6653 136.062H86.2985" stroke="#1A224A" stroke-opacity="0.5" stroke-width="2" stroke-miterlimit="10" stroke-linecap="round"/>
<path d="M58.1226 136.062H75.0403" stroke="#1A224A" stroke-opacity="0.5" stroke-width="2" stroke-miterlimit="10" stroke-linecap="round"/>
<path d="M34.0847 136.062H54.167" stroke="#1A224A" stroke-opacity="0.5" stroke-width="2" stroke-miterlimit="10" stroke-linecap="round"/>
<path d="M69.5632 141.784H100.173" stroke="#1A224A" stroke-opacity="0.5" stroke-width="2" stroke-miterlimit="10" stroke-linecap="round"/>
<path d="M43.2739 141.784H63.843" stroke="#1A224A" stroke-opacity="0.5" stroke-width="2" stroke-miterlimit="10" stroke-linecap="round"/>
<path d="M8.34302 95.4562H35.5453" stroke="white" stroke-width="2" stroke-miterlimit="10" stroke-linecap="round"/>
<path d="M68.2246 101.179H83.6818" stroke="#7BC5DC" stroke-width="2" stroke-miterlimit="10" stroke-linecap="round"/>
<path d="M58.7312 101.179H64.9384" stroke="#FEDAC9" stroke-width="2" stroke-miterlimit="10" stroke-linecap="round"/>
<path d="M33.9023 101.179H55.4451" stroke="#7BC5DC" stroke-width="2" stroke-miterlimit="10" stroke-linecap="round"/>
<path d="M11.2031 101.179H31.1636" stroke="white" stroke-width="2" stroke-miterlimit="10" stroke-linecap="round"/>
<path d="M20.3923 106.901H41.8742" stroke="white" stroke-width="2" stroke-miterlimit="10" stroke-linecap="round"/>
<path d="M58.1226 112.624H64.9383" stroke="#7BC5DC" stroke-width="2" stroke-miterlimit="10" stroke-linecap="round"/>
<path d="M29.6423 112.624H53.6802" stroke="white" stroke-width="2" stroke-miterlimit="10" stroke-linecap="round"/>
<path d="M77.292 118.346H91.0453" stroke="#7BC5DC" stroke-width="2" stroke-miterlimit="10" stroke-linecap="round"/>
<path d="M64.9385 118.346H73.7016" stroke="#7BC5DC" stroke-width="2" stroke-miterlimit="10" stroke-linecap="round"/>
<path d="M50.0898 118.346H61.8349" stroke="#7BC5DC" stroke-width="2" stroke-miterlimit="10" stroke-linecap="round"/>
<path d="M32.5027 118.346H46.7428" stroke="#FEDAC9" stroke-width="2" stroke-miterlimit="10" stroke-linecap="round"/>
<path d="M54.7756 124.069H82.0388" stroke="#7BC5DC" stroke-width="2" stroke-miterlimit="10" stroke-linecap="round"/>
<path d="M35.3628 124.069H51.8546" stroke="white" stroke-width="2" stroke-miterlimit="10" stroke-linecap="round"/>
<path d="M31.8333 129.791H52.6458" stroke="white" stroke-width="2" stroke-miterlimit="10" stroke-linecap="round"/>
<path d="M80.2739 135.453H86.9071" stroke="white" stroke-width="2" stroke-miterlimit="10" stroke-linecap="round"/>
<path d="M58.7312 135.453H75.649" stroke="#7BC5DC" stroke-width="2" stroke-miterlimit="10" stroke-linecap="round"/>
<path d="M34.6934 135.453H54.7756" stroke="white" stroke-width="2" stroke-miterlimit="10" stroke-linecap="round"/>
<path d="M70.1719 141.175H100.782" stroke="#7BC5DC" stroke-width="2" stroke-miterlimit="10" stroke-linecap="round"/>
<path d="M43.8826 141.175H64.4517" stroke="white" stroke-width="2" stroke-miterlimit="10" stroke-linecap="round"/>
<path d="M372.075 65.8087H291.929C290.955 65.8087 290.042 65.2608 289.555 64.3477L262.84 9.61852C262.231 8.34008 262.779 6.75726 264.057 6.14849C264.422 5.96585 264.787 5.90497 265.213 5.90497H345.42C346.394 5.90497 347.307 6.45287 347.794 7.36604L374.509 62.0952C375.118 63.3736 374.631 64.9565 373.292 65.5652C372.866 65.7479 372.501 65.8087 372.075 65.8087Z" fill="url(#paint2_linear_7289_29381)"/>
<path d="M351.141 34.3958L361.729 56.0683C362.216 57.0423 361.79 58.2599 360.817 58.7469C360.512 58.8687 360.208 58.9295 359.904 58.9295H333.432" stroke="white" stroke-miterlimit="10" stroke-linecap="round"/>
<path d="M284.504 33.9697L275.498 15.5846C275.011 14.6105 275.437 13.3929 276.411 12.9059C276.715 12.7842 277.019 12.7233 277.323 12.7233H303.674" stroke="white" stroke-miterlimit="10" stroke-linecap="round"/>
<path d="M310.367 20.2113C313.167 20.5156 316.331 22.7681 317.366 25.2032C318.4 27.6384 317.062 29.4038 314.262 29.1603C311.463 28.9168 308.298 26.6034 307.203 24.1683C306.108 21.7332 307.568 19.9069 310.367 20.2113ZM315.053 25.0206C314.323 23.5595 312.923 22.5855 311.28 22.342C309.759 22.1594 309.029 23.1334 309.576 24.4727C310.307 25.9338 311.767 26.9078 313.349 27.1513C314.871 27.2731 315.601 26.3599 315.053 25.0206Z" fill="#1A224A" fill-opacity="0.5"/>
<path d="M321.626 24.9597L322.356 26.6034C322.539 27.0296 322.356 27.334 321.869 27.2731L320.53 27.2122C320.652 27.7601 320.591 28.3689 320.469 28.9168L321.808 29.9517C322.234 30.317 322.417 30.7431 322.234 30.9866L321.443 32.0216C321.261 32.2651 320.713 32.2651 320.287 31.9607L318.887 31.0475C318.34 31.3519 317.792 31.5345 317.183 31.5954L317.609 32.813C317.731 33.2391 317.488 33.4826 317.062 33.4218L315.236 33.2391C314.749 33.1782 314.262 32.8738 314.019 32.4477L313.349 31.1693C312.497 30.9258 311.706 30.6214 310.976 30.1952L310.307 30.9258C310.063 31.1693 309.576 31.1084 309.09 30.804L307.264 29.5256C306.838 29.2212 306.594 28.7342 306.777 28.4298L307.325 27.5775C306.716 27.0296 306.169 26.3599 305.682 25.6903L304.16 25.4468C303.673 25.325 303.247 25.0206 303.004 24.5945L302.274 22.9508C302.152 22.7072 302.213 22.4637 302.395 22.2811C302.517 22.2202 302.639 22.2202 302.761 22.2202L304.16 22.2811C304.039 21.7332 304.099 21.1244 304.221 20.5765L302.882 19.4807C302.456 19.1155 302.274 18.6893 302.456 18.3849L303.308 17.35C303.491 17.1065 304.039 17.1065 304.525 17.4718L305.986 18.4458C306.534 18.1414 307.142 17.9588 307.751 17.8979L307.325 16.6804C307.203 16.2542 307.446 16.0107 307.933 16.0716L309.82 16.3151C310.307 16.376 310.793 16.6804 311.037 17.1065L311.706 18.3241C312.558 18.5676 313.349 18.8719 314.08 19.2981L314.81 18.6284C315.053 18.3849 315.54 18.5067 316.027 18.8111L317.853 20.0895C318.279 20.3939 318.522 20.8809 318.34 21.1244L317.853 21.9767C318.461 22.5246 319.009 23.1943 319.496 23.8639L320.956 24.1074C321.078 24.2292 321.443 24.5336 321.626 24.9597ZM317.366 25.2641C316.27 22.829 313.167 20.5765 310.368 20.2721C307.568 19.9678 306.108 21.7332 307.203 24.2292C308.298 26.7252 311.463 28.9777 314.262 29.2212C317.062 29.4647 318.461 27.6992 317.366 25.2641Z" fill="#1A224A" fill-opacity="0.5"/>
<path d="M304.769 36.9527C307.751 36.4656 311.95 38.4746 314.08 41.4576C316.21 44.4406 315.601 47.3019 312.741 47.7889C309.881 48.2759 305.56 46.3278 303.369 43.3448C301.178 40.3618 301.787 37.5006 304.769 36.9527ZM311.646 41.9447C310.489 40.3618 308.238 39.266 306.655 39.5704C305.073 39.8748 304.769 41.3968 305.925 42.9796C307.081 44.5624 309.394 45.6582 310.976 45.4147C312.558 45.1712 312.863 43.5884 311.646 41.9447Z" fill="#1A224A" fill-opacity="0.5"/>
<path d="M318.279 39.6922L319.678 41.6403C320.044 42.1273 319.983 42.6143 319.557 42.7361L318.157 43.1013C318.522 43.8319 318.766 44.6233 318.887 45.4147L320.713 46.3887C321.2 46.6322 321.565 47.1193 321.626 47.6672L321.261 49.3109C321.2 49.6761 320.652 49.8588 320.044 49.5544L318.218 48.763C317.853 49.3109 317.305 49.737 316.757 50.0414L317.731 51.5633C318.035 52.0504 317.914 52.5374 317.427 52.5983L315.479 52.9635C314.871 53.0244 314.262 52.7809 313.897 52.2939L312.68 50.7719C311.706 50.7111 310.794 50.5284 309.82 50.2849L309.455 51.5025C309.333 51.9286 308.785 51.9895 308.116 51.6851L305.682 50.5284C305.073 50.2849 304.647 49.6761 304.708 49.25L304.83 47.9107C303.917 47.3019 303.065 46.6322 302.274 45.8408L300.631 45.9626C300.022 45.9626 299.414 45.6582 299.049 45.1712L297.588 43.2231C297.223 42.7361 297.284 42.249 297.771 42.1273L299.17 41.762C298.805 41.0315 298.562 40.1792 298.44 39.3878L296.553 38.4137C296.006 38.1702 295.641 37.6832 295.641 37.1353L296.006 35.4307C296.127 35.0654 296.675 34.8828 297.284 35.1872L299.17 35.9786C299.596 35.4307 300.083 35.0046 300.692 34.7002L299.718 33.1782C299.414 32.6912 299.535 32.2042 300.022 32.1433L302.03 31.8389C302.639 31.778 303.248 32.0824 303.613 32.5695L304.83 34.0305C305.803 34.0914 306.777 34.274 307.69 34.5784L308.116 33.4218C308.238 33.0565 308.785 32.9956 309.394 33.2391L311.828 34.3958C312.376 34.6393 312.863 35.2481 312.802 35.6742L312.68 37.0135C313.593 37.6223 314.384 38.292 315.175 39.0225L316.757 38.9008C317.488 38.9008 317.975 39.2051 318.279 39.6922ZM314.141 41.5185C311.95 38.5355 307.751 36.5265 304.83 37.0135C301.909 37.5006 301.178 40.4227 303.43 43.4057C305.682 46.3887 309.881 48.3977 312.802 47.8498C315.723 47.3019 316.331 44.5015 314.141 41.5185Z" fill="#1A224A" fill-opacity="0.5"/>
<path d="M330.024 35.6742C333.493 35.1263 338.3 37.5614 340.795 41.0923C343.29 44.6233 342.56 47.9715 339.152 48.5803C335.744 49.1891 330.815 46.754 328.259 43.2231C325.703 39.6922 326.555 36.2221 330.024 35.6742ZM337.996 41.6402C336.657 39.753 334.04 38.4746 332.215 38.7181C330.389 38.9616 329.963 40.8488 331.302 42.736C332.641 44.6233 335.318 45.9626 337.144 45.6582C338.97 45.3538 339.335 43.5275 337.996 41.6402Z" fill="#1A224A" fill-opacity="0.5"/>
<path d="M345.664 39.0225L347.307 41.3359C347.733 41.8838 347.611 42.4925 347.124 42.6143L345.542 42.9796C345.968 43.8319 346.211 44.8059 346.333 45.7191L348.402 46.8757C349.011 47.1193 349.376 47.728 349.437 48.3977L349.011 50.3458C348.889 50.8328 348.28 50.9546 347.611 50.6502L345.481 49.737C345.055 50.3458 344.447 50.8937 343.777 51.2589L344.873 53.0244C345.238 53.6332 345.055 54.1202 344.507 54.242L342.256 54.6681C341.526 54.729 340.856 54.4246 340.43 53.8158L339.03 52.0504C337.935 51.9895 336.779 51.746 335.744 51.4416L335.318 52.9027C335.197 53.3897 334.527 53.4506 333.797 53.1462L330.937 51.746C330.267 51.4416 329.72 50.711 329.78 50.224L329.963 48.6412C328.929 47.9107 327.894 47.1193 327.042 46.2061L325.155 46.3887C324.425 46.3887 323.756 46.0235 323.33 45.4147L321.626 43.0404C321.2 42.4317 321.261 41.8838 321.808 41.7011L323.452 41.275C323.026 40.3618 322.782 39.4486 322.66 38.4746L320.47 37.257C319.861 37.0135 319.435 36.4048 319.435 35.6742L319.922 33.7261C320.044 33.2391 320.652 33.1174 321.382 33.4217L323.634 34.3958C324.121 33.7261 324.729 33.2391 325.46 32.8738L324.303 31.0475C323.938 30.4387 324.121 29.8908 324.669 29.83L326.981 29.4647C327.711 29.4647 328.381 29.7691 328.807 30.317L330.206 32.0824C331.302 32.2042 332.458 32.4477 333.493 32.7521L333.979 31.3519C334.101 30.8649 334.771 30.8649 335.501 31.1693L338.3 32.5695C338.97 32.9347 339.456 33.6044 339.396 34.0914L339.213 35.6742C340.248 36.4048 341.221 37.1962 342.073 38.1093L343.899 37.9876C344.69 38.1093 345.299 38.4746 345.664 39.0225ZM340.856 41.1532C338.361 37.6223 333.493 35.1872 330.085 35.7351C326.677 36.283 325.825 39.6922 328.381 43.284C330.937 46.8757 335.805 49.25 339.274 48.6412C342.743 48.0324 343.351 44.6841 340.856 41.1532Z" fill="#1A224A" fill-opacity="0.5"/>
<path d="M312.802 18.3849C315.601 18.6893 318.766 20.9418 319.8 23.3769C320.835 25.812 319.496 27.5775 316.697 27.334C313.897 27.0904 310.733 24.7771 309.637 22.342C308.542 19.9069 310.002 18.0805 312.802 18.3849ZM317.488 23.1943C316.757 21.7332 315.358 20.7591 313.715 20.5156C312.193 20.333 311.463 21.307 312.011 22.6464C312.741 24.1074 314.201 25.0815 315.784 25.325C317.305 25.4467 318.035 24.5336 317.488 23.1943Z" fill="#7BC5DC"/>
<path d="M324.06 23.1334L324.79 24.7771C324.973 25.2032 324.79 25.5076 324.303 25.4467L322.965 25.3859C323.086 25.9338 323.026 26.5425 322.904 27.0904L324.243 28.1254C324.669 28.4906 324.851 28.9168 324.669 29.1603L323.878 30.1952C323.695 30.4387 323.147 30.4387 322.721 30.1343L321.322 29.2212C320.774 29.5255 320.226 29.7082 319.618 29.7691L320.044 30.9866C320.165 31.4128 319.922 31.6563 319.496 31.5954L317.67 31.4128C317.183 31.3519 316.697 31.0475 316.453 30.6213L315.784 29.3429C314.932 29.0994 314.141 28.795 313.41 28.3689L312.741 29.0994C312.498 29.3429 312.011 29.282 311.524 28.9776L309.698 27.6992C309.272 27.3948 309.029 26.9078 309.211 26.6034L309.759 25.7511C309.151 25.2032 308.603 24.5336 308.116 23.8639L306.595 23.6204C306.108 23.4986 305.682 23.1943 305.438 22.7681L304.708 21.1244C304.586 20.8809 304.647 20.6374 304.83 20.4548C304.951 20.3939 305.073 20.3939 305.195 20.3939L306.595 20.4548C306.473 19.9069 306.534 19.2981 306.655 18.7502L305.317 17.6544C304.891 17.2891 304.708 16.863 304.891 16.5586L305.743 15.5236C305.925 15.2801 306.473 15.2801 306.96 15.6454L308.42 16.6195C308.968 16.3151 309.577 16.1324 310.185 16.0716L309.759 14.854C309.637 14.4279 309.881 14.1843 310.368 14.2452L312.254 14.4887C312.741 14.5496 313.228 14.854 313.471 15.2801L314.141 16.4977C314.993 16.7412 315.784 17.0456 316.514 17.4717L317.244 16.8021C317.488 16.5586 317.975 16.6803 318.461 16.9847L320.287 18.2632C320.713 18.5675 320.956 19.0546 320.774 19.2981L320.287 20.1504C320.896 20.6983 321.443 21.3679 321.93 22.0376L323.391 22.2811C323.512 22.4028 323.878 22.7072 324.06 23.1334ZM319.8 23.4378C318.705 21.0027 315.601 18.7502 312.802 18.4458C310.003 18.1414 308.542 19.9069 309.637 22.4028C310.733 24.8988 313.897 27.1513 316.697 27.3948C319.496 27.6383 320.896 25.8729 319.8 23.4378Z" fill="#7BC5DC"/>
<path d="M307.203 35.1263C310.185 34.6393 314.384 36.6483 316.514 39.6313C318.644 42.6143 318.035 45.4755 315.175 45.9626C312.315 46.4496 307.994 44.5015 305.804 41.5185C303.613 38.5355 304.221 35.6742 307.203 35.1263ZM314.08 40.1183C312.924 38.5355 310.672 37.4397 309.09 37.7441C307.508 38.0484 307.203 39.5704 308.36 41.1532C309.516 42.736 311.828 43.8318 313.411 43.5883C314.993 43.3448 315.297 41.762 314.08 40.1183Z" fill="#7BC5DC"/>
<path d="M320.713 37.8658L322.113 39.8139C322.478 40.3009 322.417 40.7879 321.991 40.9097L320.591 41.275C320.957 42.0055 321.2 42.7969 321.322 43.5883L323.147 44.5624C323.634 44.8059 323.999 45.2929 324.06 45.8408L323.695 47.4845C323.634 47.8498 323.086 48.0324 322.478 47.728L320.652 46.9366C320.287 47.4845 319.739 47.9106 319.192 48.215L320.165 49.737C320.47 50.224 320.348 50.711 319.861 50.7719L317.914 51.1372C317.305 51.1981 316.697 50.9545 316.332 50.4675L315.114 48.9456C314.141 48.8847 313.228 48.7021 312.254 48.4586L311.889 49.6761C311.767 50.1023 311.22 50.1631 310.55 49.8587L308.116 48.7021C307.508 48.4585 307.082 47.8498 307.142 47.4236L307.264 46.0843C306.351 45.4755 305.499 44.8059 304.708 44.0145L303.065 44.1362C302.457 44.1362 301.848 43.8318 301.483 43.3448L300.022 41.3967C299.657 40.9097 299.718 40.4227 300.205 40.3009L301.605 39.9357C301.239 39.2051 300.996 38.3528 300.874 37.5614L298.988 36.5874C298.44 36.3439 298.075 35.8568 298.075 35.3089L298.44 33.6044C298.562 33.2391 299.109 33.0565 299.718 33.3609L301.605 34.1523C302.031 33.6044 302.517 33.1782 303.126 32.8738L302.152 31.3519C301.848 30.8649 301.97 30.3778 302.457 30.317L304.465 30.0126C305.073 29.9517 305.682 30.2561 306.047 30.7431L307.264 32.2042C308.238 32.2651 309.211 32.4477 310.124 32.7521L310.55 31.5954C310.672 31.2301 311.22 31.1693 311.828 31.4128L314.262 32.5694C314.81 32.8129 315.297 33.4217 315.236 33.8479L315.114 35.1872C316.027 35.796 316.818 36.4656 317.609 37.1962L319.192 37.0744C319.922 37.0744 320.409 37.3788 320.713 37.8658ZM316.575 39.6921C314.384 36.7091 310.185 34.7002 307.264 35.1872C304.343 35.6742 303.613 38.5963 305.864 41.5794C308.116 44.5624 312.315 46.5713 315.236 46.0234C318.157 45.4755 318.766 42.6752 316.575 39.6921Z" fill="#D0CFEC"/>
<path d="M332.458 33.8479C335.927 33.3 340.734 35.7351 343.23 39.266C345.725 42.7969 344.994 46.1452 341.586 46.754C338.179 47.3627 333.249 44.9276 330.693 41.3967C328.137 37.8658 328.989 34.3958 332.458 33.8479ZM340.43 39.8139C339.091 37.9267 336.475 36.6482 334.649 36.8918C332.823 37.1353 332.397 39.0225 333.736 40.9097C335.075 42.7969 337.753 44.1362 339.578 43.8318C341.404 43.5274 341.769 41.7011 340.43 39.8139Z" fill="#7BC5DC"/>
<path d="M348.098 37.1962L349.741 39.5095C350.167 40.0574 350.045 40.6662 349.559 40.7879L347.976 41.1532C348.402 42.0055 348.646 42.9795 348.767 43.8927L350.837 45.0494C351.445 45.2929 351.81 45.9017 351.871 46.5713L351.445 48.5194C351.323 49.0064 350.715 49.1282 350.045 48.8238L347.915 47.9106C347.489 48.5194 346.881 49.0673 346.211 49.4326L347.307 51.1981C347.672 51.8068 347.489 52.2939 346.942 52.4156L344.69 52.8418C343.96 52.9026 343.29 52.5982 342.864 51.9895L341.465 50.224C340.369 50.1631 339.213 49.9196 338.179 49.6152L337.753 51.0763C337.631 51.5633 336.962 51.6242 336.231 51.3198L333.371 49.9196C332.702 49.6152 332.154 48.8847 332.215 48.3977L332.397 46.8148C331.363 46.0843 330.328 45.2929 329.476 44.3797L327.59 44.5624C326.86 44.5624 326.19 44.1971 325.764 43.5883L324.06 41.2141C323.634 40.6053 323.695 40.0574 324.243 39.8748L325.886 39.4486C325.46 38.5355 325.216 37.6223 325.095 36.6482L322.904 35.4307C322.295 35.1872 321.869 34.5784 321.869 33.8479L322.356 31.8998C322.478 31.4128 323.086 31.291 323.817 31.5954L326.068 32.5694C326.555 31.8998 327.164 31.4128 327.894 31.0475L326.738 29.2212C326.373 28.6124 326.555 28.0645 327.103 28.0036L329.415 27.6383C330.146 27.6383 330.815 27.9427 331.241 28.4906L332.641 30.2561C333.736 30.3778 334.892 30.6213 335.927 30.9257L336.414 29.5255C336.536 29.0385 337.205 29.0385 337.935 29.3429L340.735 30.7431C341.404 31.1084 341.891 31.778 341.83 32.265L341.647 33.8479C342.682 34.5784 343.656 35.3698 344.508 36.283L346.333 36.1612C347.124 36.283 347.733 36.6483 348.098 37.1962ZM343.29 39.3269C340.795 35.796 335.927 33.3608 332.519 33.9087C329.111 34.4566 328.259 37.8658 330.815 41.4576C333.371 45.0494 338.239 47.4236 341.708 46.8148C345.177 46.2061 345.786 42.8578 343.29 39.3269Z" fill="#B3B2CC"/>
<path d="M176.486 39.6922C185.998 39.6922 193.708 31.9787 193.708 22.4637C193.708 12.9488 185.998 5.23532 176.486 5.23532C166.975 5.23532 159.264 12.9488 159.264 22.4637C159.264 31.9787 166.975 39.6922 176.486 39.6922Z" fill="#7BC5DC"/>
<path d="M166.567 18.6893C166.567 13.2103 171.009 8.76624 176.486 8.76624C181.963 8.76624 186.406 13.2103 186.406 18.6893C186.406 20.7592 185.736 22.829 184.519 24.5336C183.12 26.6643 179.407 29.0994 179.407 30.4996V32.1433C179.407 32.5086 179.164 32.7521 178.799 32.7521H174.174C173.809 32.7521 173.565 32.5086 173.565 32.1433V30.4996C173.565 29.0385 169.914 26.6643 168.453 24.5336C167.236 22.829 166.567 20.7592 166.567 18.6893Z" fill="white"/>
<path d="M177.825 32.5694C177.704 30.0126 177.764 27.3948 177.947 24.838C177.095 24.8988 176.243 24.8988 175.452 24.838C175.634 27.3948 175.695 30.0126 175.574 32.5694H175.391C175.513 30.0126 175.452 27.3948 175.269 24.838C172.348 24.4118 171.009 22.7681 170.766 21.1853C170.583 20.3939 170.888 19.5416 171.496 18.9937C171.861 18.8111 172.287 18.7502 172.713 18.8719C173.504 19.1763 174.174 19.7242 174.478 20.5156C175.026 21.855 175.33 23.2551 175.391 24.7162C176.243 24.838 177.095 24.838 177.947 24.7162C178.008 23.2551 178.312 21.855 178.86 20.5156C179.225 19.7851 179.833 19.1763 180.625 18.8719C181.051 18.7502 181.477 18.8111 181.842 18.9937C182.45 19.5416 182.755 20.3939 182.572 21.1853C182.329 22.7681 180.99 24.4118 178.069 24.838C177.886 27.3948 177.825 30.0126 177.947 32.5694H177.825ZM181.172 18.9937C181.051 18.9937 180.868 18.9937 180.746 19.0546C180.016 19.2981 179.407 19.846 179.042 20.5765C178.495 21.855 178.19 23.2551 178.129 24.6553C180.929 24.2292 182.207 22.6464 182.45 21.1853C182.633 20.4548 182.389 19.6634 181.781 19.1763C181.598 19.0546 181.355 18.9937 181.172 18.9937ZM172.227 18.9937C171.983 18.9937 171.801 19.0546 171.618 19.1763C171.07 19.6634 170.766 20.4548 170.949 21.1853C171.192 22.7072 172.47 24.2901 175.269 24.6553C175.208 23.2551 174.904 21.855 174.356 20.5765C174.052 19.846 173.444 19.2981 172.653 19.0546C172.531 18.9937 172.348 18.9937 172.227 18.9937Z" stroke="#598B9B" stroke-miterlimit="10"/>
<path d="M179.833 31.2301H173.504V34.274C173.504 34.7611 173.626 35.2481 173.93 35.6742C174.417 36.4656 175.269 36.9527 176.243 36.9527H177.156C178.069 36.9527 178.981 36.4656 179.468 35.6742C179.712 35.2481 179.894 34.7611 179.894 34.274L179.833 31.2301Z" fill="#D0CFEC"/>
<path d="M173.504 33.2391L179.894 32.5695C180.077 32.5695 180.259 32.3259 180.259 32.1433C180.259 31.8998 180.016 31.778 179.833 31.778L173.504 32.3868C173.322 32.3868 173.139 32.5695 173.139 32.813C173.139 33.0565 173.322 33.2391 173.504 33.2391Z" fill="white"/>
<path d="M173.504 34.6393L179.894 33.9697C180.077 33.9697 180.259 33.787 180.259 33.5435C180.198 33.3 180.016 33.1782 179.833 33.1782L173.504 33.8479C173.322 33.8479 173.139 34.0305 173.139 34.274C173.139 34.4567 173.322 34.6393 173.504 34.6393Z" fill="white"/>
<path d="M173.748 35.9786L179.773 35.3698C179.955 35.3698 180.138 35.1263 180.138 34.9437C180.138 34.7002 179.894 34.5784 179.712 34.5784L173.748 35.1872C173.565 35.1872 173.383 35.3698 173.383 35.6134C173.383 35.8569 173.565 35.9786 173.748 35.9786Z" fill="white"/>
<path d="M178.86 10.7143C181.05 11.2013 182.876 12.7842 183.606 14.9149" stroke="#598B9B" stroke-opacity="0.3" stroke-width="3" stroke-miterlimit="10" stroke-linecap="round"/>
<path d="M184.58 17.35C184.884 18.1414 184.884 19.1155 184.458 19.846" stroke="white" stroke-width="3" stroke-miterlimit="10" stroke-linecap="round"/>
<path d="M108.024 242.415C117.535 242.415 125.246 234.702 125.246 225.187C125.246 215.672 117.535 207.958 108.024 207.958C98.5123 207.958 90.8018 215.672 90.8018 225.187C90.8018 234.702 98.5123 242.415 108.024 242.415Z" fill="#7BC5DC"/>
<path d="M101.208 226.465L107.354 230.848L117.091 218.064" stroke="white" stroke-width="3" stroke-linecap="round" stroke-linejoin="round"/>
<path d="M330.146 303.902H215.312C215.312 297.875 219.328 292.579 225.17 290.935L331.85 274.802L330.146 303.902Z" fill="#1A224A"/>
<path d="M456.603 154.812H408.467L398.304 111.284L444.736 110.98L456.603 154.812Z" fill="#F8895D"/>
<path d="M386.863 94.9083L385.646 94.6648C385.037 93.9952 385.037 93.0211 385.585 92.3515L386.863 92.595V94.9083Z" fill="#1A224A"/>
<path d="M386.011 92.9602C385.646 92.8994 385.281 92.7776 385.037 92.595C384.794 92.4123 384.55 92.1688 384.368 91.9253C384.855 92.2906 385.402 92.4732 386.011 92.4123V92.9602Z" fill="#1A224A"/>
<path d="M390.94 62.3387C386.559 68.183 383.029 77.2538 381.142 84.3156C381.021 84.7417 380.96 85.2288 380.96 85.7158C381.142 86.3854 381.508 86.9942 381.994 87.4812C383.516 89.4293 384.916 91.3774 386.254 93.5081C386.254 93.5081 382.664 101.118 379.073 104.04C378.404 107.632 382.725 108.423 384.124 110.919C385.707 113.598 386.924 117.129 385.159 119.686C384.368 120.781 383.029 121.755 383.151 123.095C383.212 123.643 383.394 124.13 383.698 124.556C385.767 128.148 387.654 130.278 398.425 129.243C417.96 126.078 431.531 114.328 449.3 99.4133L434.634 55.5813L400.008 53.6332L390.94 62.3387Z" fill="#F8895D"/>
<path d="M402.685 95.6389C402.32 94.5431 404.024 89.9164 407.067 88.6988C409.318 87.7856 413.335 89.4293 414.369 91.3774C415.526 93.569 413.943 103.188 412.726 105.014C411.509 106.84 407.249 109.032 406.458 109.215C405.363 109.58 404.146 109.276 403.354 108.484" fill="#B36344"/>
<path d="M401.468 94.8475C401.103 93.6908 402.807 89.125 405.85 87.9074C408.101 86.9942 412.118 88.6379 413.152 90.586C414.308 92.7776 412.726 102.396 411.509 104.223C410.292 106.049 406.032 108.241 405.241 108.423C404.146 108.788 402.929 108.484 402.137 107.693" fill="#F8895D"/>
<path d="M404.754 94.056C405.485 93.569 406.397 94.056 407.249 94.2387C408.345 94.4822 409.501 94.2387 410.414 93.5081C410.901 93.1429 411.205 92.595 411.266 91.9862C411.327 91.1339 410.596 90.4034 409.866 89.9163C408.649 89.1249 407.006 88.7597 405.728 89.4293C404.693 89.9772 404.146 91.073 403.72 92.1688C403.233 93.3255 402.929 94.5431 402.807 95.7606C402.807 96.4912 402.807 98.6828 403.72 98.8045C403.781 97.2217 403.355 96.0041 404.267 94.5431C404.389 94.4213 404.572 94.2387 404.754 94.056Z" fill="#B36344"/>
<path d="M407.919 99.9612C406.884 99.9612 405.91 100.326 405.058 100.874C404.206 101.483 403.841 102.579 404.085 103.614C404.146 103.796 404.206 103.979 404.328 104.162C404.632 104.527 405.058 104.71 405.545 104.771C406.032 104.771 406.458 104.71 406.945 104.588C407.432 104.466 407.858 104.284 408.223 103.918C408.405 103.736 408.466 103.492 408.466 103.188C408.406 102.944 408.162 102.701 407.919 102.64C407.614 102.518 407.31 102.457 407.006 102.457C405.728 102.579 405.971 101.605 406.823 101.118C406.945 100.996 409.075 99.9003 407.919 99.9612Z" fill="#B36344"/>
<path d="M393.8 65.0173C395.809 65.2608 397.878 65.0782 399.886 65.2608C400.251 65.2608 400.616 65.3826 400.86 65.6261C401.042 65.9305 401.103 66.2349 400.981 66.5393C400.677 68.183 399.582 69.5223 398.486 70.8007C397.391 72.0792 396.356 73.4793 396.235 75.1839C396.113 76.8885 397.452 78.7148 399.095 78.4713C399.886 78.3496 400.616 77.8625 401.347 78.0452C402.259 78.2887 402.625 79.3845 402.381 80.2977C402.077 81.15 401.59 81.9414 400.981 82.6719C400.19 83.8286 399.643 85.1679 399.46 86.5681C399.277 87.6639 399.46 89.0641 400.555 89.3685C401.651 89.6728 402.442 88.6988 403.233 88.0291C407.371 84.3156 416.256 86.3246 417.717 92.0471C417.96 93.3864 417.899 94.7257 417.595 96.0041L416.134 103.675C415.587 106.719 415.039 109.884 416.074 112.806C417.108 115.729 419.542 117.738 422.22 119.016C427.819 121.695 441.45 121.208 446.866 117.798C449.179 116.337 456.542 109.275 461.837 91.4992C462.689 88.577 464.819 86.0811 465.427 83.0372C466.036 79.9933 465.671 76.7059 463.906 74.2099C462.81 72.6879 461.167 71.5313 460.194 69.9484C458.49 67.148 458.977 63.6171 458.307 60.4515C456.968 53.6332 450.396 48.7629 443.58 47.3019C436.764 45.8408 429.705 46.9366 422.828 48.0324C421.551 48.215 420.273 48.3977 419.055 47.9715C417.838 47.5454 416.926 46.2061 417.351 44.9885C417.473 44.8059 417.473 44.5624 417.534 44.3797C417.534 43.771 416.621 43.6492 416.013 43.5275C414.735 43.1622 414.004 41.762 414.37 40.4836C414.43 40.3009 414.491 40.1183 414.613 39.9357C415.587 38.5355 418.021 37.9267 417.656 36.283C417.412 35.0654 415.769 34.8828 414.552 35.0046C403.233 36.283 390.514 45.1712 388.263 56.8597C387.593 61.3647 389.236 64.4085 393.8 65.0173Z" fill="#FEDAC9"/>
<path d="M396.174 109.336C393.618 117.616 388.202 117.068 387.411 114.998C387.167 114.207 386.863 113.415 386.498 112.685C386.011 111.893 385.22 111.406 384.307 111.224C384.246 116.946 382.968 122.669 380.534 127.843C380.169 128.696 379.743 129.609 380.047 130.461C380.23 130.887 380.473 131.192 380.838 131.496C382.36 132.835 384.429 133.444 386.437 133.931C388.749 134.54 394.531 133.992 402.259 128.209C405.728 125.652 402.564 97.4652 400.799 94.3605C399.277 91.6209 397.026 106.597 396.174 109.336Z" fill="#FEDAC9"/>
<path d="M381.203 83.9503C381.751 83.7068 385.463 86.3246 385.767 87.9683C384.003 86.9333 382.664 86.9942 381.994 87.4204C380.351 87.3595 380.108 84.3765 381.203 83.9503Z" fill="#FEDAC9"/>
<path d="M491.716 303.902H310.428C335.623 273.706 329.598 221.108 375.909 171.31C391.67 154.812 422.585 132.044 463.175 150.307C531.029 180.929 491.716 303.902 491.716 303.902Z" fill="#D0CFEC"/>
<path d="M463.175 150.307L378.83 168.327L374.083 157.369C403.598 140.567 430.983 121.147 456.481 130.704C461.289 136.183 463.54 142.697 463.175 150.307Z" fill="#D0CFEC"/>
<path d="M463.175 150.307C457.82 139.167 378.404 167.292 378.404 167.292C439.198 144.219 461.776 139.775 463.175 147.446C463.236 148.42 463.236 149.394 463.175 150.307Z" fill="#8684A5"/>
<path d="M178.616 245.033H194.499C200.585 245.033 205.514 249.964 205.514 256.052V256.782H169.244V254.469C169.183 249.234 173.443 245.033 178.616 245.033Z" fill="#598B9B"/>
<path d="M206.062 236.145L193.708 233.284L201.863 229.448L217.32 232.736L206.062 236.145Z" fill="#F8895D"/>
<path d="M206.062 236.145L195.716 233.527L202.228 231.275L217.32 232.736L206.062 236.145Z" fill="#1A224A"/>
<path d="M277.627 258.974L228.091 255.261L201.437 257.087C200.828 257.026 200.463 234.136 200.463 234.136L217.442 232.857L228.091 236.754L273.915 229.144L277.627 258.974Z" fill="#F8895D"/>
<path d="M277.628 258.974L256.207 257.391C256.207 257.391 262.049 255.504 263.448 253.252C264.909 250.877 264.361 235.78 270.325 229.753L277.628 258.974Z" fill="#B26344"/>
<path d="M201.924 240.589L188.353 237.789L190.483 237.18L178.129 246.311L175.756 243.389L187.075 233.04L187.866 232.31L189.205 232.431L202.958 234.014L201.924 240.589Z" fill="#F8895D"/>
<path d="M202.167 246.311L189.144 242.537L191.091 242.233L173.808 251.364L171.922 248.077L188.414 237.606L189.205 237.058L190.361 237.302L203.688 239.798L202.167 246.311Z" fill="#F8895D"/>
<path d="M203.384 253.13L189.692 247.833L191.639 247.712L176.364 253.739L174.843 250.269L189.448 242.841L190.239 242.415L191.396 242.72L205.514 246.798L203.384 253.13Z" fill="#F8895D"/>
<path d="M201.376 257.087L189.692 252.521H191.456L179.651 255.808L178.373 252.217L189.631 247.468L190.361 247.164L191.396 247.407L203.506 250.756L201.376 257.087Z" fill="#F8895D"/>
<path d="M176.973 244.79L189.205 237.058L202.471 239.189" stroke="#1A224A" stroke-miterlimit="10"/>
<path d="M175.025 250.634L190.057 242.72L201.984 245.277" stroke="#1A224A" stroke-miterlimit="10"/>
<path d="M178.494 252.582L189.692 248.077L201.984 251.182" stroke="#1A224A" stroke-miterlimit="10"/>
<path d="M384.611 220.378L340.309 254.226L337.753 264.027C337.753 264.027 344.751 265.792 350.35 261.287C361.486 252.278 384.611 220.378 384.611 220.378Z" fill="#8684A5"/>
<path d="M378.1 214.107C392.888 214.107 404.876 202.114 404.876 187.321C404.876 172.527 392.888 160.535 378.1 160.535C363.311 160.535 351.323 172.527 351.323 187.321C351.323 202.114 363.311 214.107 378.1 214.107Z" fill="#D0CFEC"/>
<path d="M339.822 263.905L289.007 266.462L281.522 227.561L315.114 223.3L358.443 169.118L397.756 205.523C397.756 205.523 362.886 245.703 350.532 258.791C347.794 261.835 343.96 263.662 339.822 263.905Z" fill="#D0CFEC"/>
<path d="M294.424 266.219L280.183 269.202C268.986 256.843 267.282 244.242 272.698 225.187L289.92 226.709C286.208 240.345 289.616 252.825 294.424 266.219Z" fill="#8684A5"/>
<path d="M289.92 226.709L287.121 226.891C287.365 225.491 287.669 224.152 288.095 222.813L289.92 226.709Z" fill="#1A224A"/>
<path d="M294.241 267.984C293.815 267.436 293.45 266.888 293.146 266.279L294.424 266.219L294.241 267.984Z" fill="#1A224A"/>
<path d="M294.241 267.984L279.332 271.332C268.134 258.974 266.065 244.303 271.481 225.187L288.095 222.813C282.922 241.137 288.947 260.557 294.241 267.984Z" fill="#D0CFEC"/>
<defs>
<filter id="filter0_b_7289_29381" x="285.783" y="123.843" width="120.177" height="67.9038" filterUnits="userSpaceOnUse" color-interpolation-filters="sRGB">
<feFlood flood-opacity="0" result="BackgroundImageFix"/>
<feGaussianBlur in="BackgroundImageFix" stdDeviation="2"/>
<feComposite in2="SourceAlpha" operator="in" result="effect1_backgroundBlur_7289_29381"/>
<feBlend mode="normal" in="SourceGraphic" in2="effect1_backgroundBlur_7289_29381" result="shape"/>
</filter>
<linearGradient id="paint0_linear_7289_29381" x1="330.445" y1="114.987" x2="350.328" y2="170.132" gradientUnits="userSpaceOnUse">
<stop stop-color="#BFDCED"/>
<stop offset="1" stop-color="#E8DDD3" stop-opacity="0.7"/>
</linearGradient>
<linearGradient id="paint1_linear_7289_29381" x1="0.72551" y1="77.5802" x2="65.108" y2="123.094" gradientUnits="userSpaceOnUse">
<stop stop-color="#BFDCED"/>
<stop offset="1" stop-color="#E8DDD3" stop-opacity="0.7"/>
</linearGradient>
<linearGradient id="paint2_linear_7289_29381" x1="298.517" y1="-9.46583" x2="333.683" y2="69.6231" gradientUnits="userSpaceOnUse">
<stop stop-color="#BFDCED"/>
<stop offset="1" stop-color="#E8DDD3" stop-opacity="0.7"/>
</linearGradient>
</defs>
</svg>
