<svg width="402" height="236" viewBox="0 0 402 236" fill="none" xmlns="http://www.w3.org/2000/svg">
<path d="M305.837 45.8733C317.175 46.4905 328.739 46.897 339.685 43.8936C350.631 40.8902 361.057 33.9499 365.502 23.4868C367.378 19.0908 368.071 13.8593 365.864 9.61385C363.657 5.36841 357.841 2.91448 353.81 5.44368C350.631 7.43091 349.524 11.6914 350.141 15.3949C350.759 19.0984 352.748 22.3878 354.594 25.6547C360.827 36.6589 365.846 48.3068 369.563 60.3936C374.045 74.9591 376.501 91.1656 370.361 105.121C368.139 110.172 363.235 117.767 357.215 118.806C351.882 119.732 343.843 115.893 338.517 114.711C322.072 111.061 305.664 106.808 290.182 100.063C270.03 91.2785 251.264 77.8572 239.843 59.0763C234.826 50.8414 231.248 41.4773 231.059 31.8573C230.871 22.2373 234.374 12.2861 241.606 5.88027C246.224 1.80042 252.794 -0.721252 258.624 1.25845C265.804 3.70485 269.337 11.9022 270.09 19.4371C270.912 27.7172 268.915 37.0211 262.293 42.1096C256.643 46.4604 248.853 46.8443 241.802 45.7679C227.73 43.6226 214.96 36.5544 202.522 29.6292C190.085 22.704 177.293 15.6734 163.213 13.626C149.133 11.5785 133.252 15.4852 124.792 26.9419C120.822 32.339 118.765 38.9255 115.119 44.5259C104.572 60.6571 84.2314 49.4262 69.1644 46.6637C47.3624 42.6666 21.4397 50.0962 12.068 70.1642C6.25212 82.622 7.94716 97.5714 13.5747 110.12C19.2022 122.668 28.3554 133.259 37.6367 143.413" stroke="#7C3AED" stroke-miterlimit="10" stroke-dasharray="12 12"/>
<path d="M177.451 121.667L215.789 123.202L210.116 107.094L181.241 104.482L177.451 121.667Z" fill="#332066"/>
<path d="M189.874 152.281L216.995 153.237C222.17 135.336 218.426 121.268 210.147 116.217C208.791 114.493 210.689 103.804 210.689 103.804L180.141 101.282C182.604 106.431 181.971 112.92 181.497 119.348L189.874 152.281Z" fill="#FEA394"/>
<path d="M207.615 112.513C208.76 110.85 210.628 103.804 210.628 103.804L180.08 101.282C184.419 110.699 188.179 112.619 193.64 116.014C197.475 118.362 205.528 115.539 207.615 112.513Z" fill="#332066"/>
<path d="M204.188 111.068C205.319 110.807 206.374 110.286 207.269 109.547C208.163 108.807 208.873 107.869 209.341 106.808L213.469 97.4058C214.803 94.3949 215.255 91 215.051 85.8739C215.051 85.8739 213.371 69.0803 211.111 63.9993C205.137 50.6005 165.586 54.5148 176.254 87.3342L180.111 101.267C180.51 102.7 181.201 104.035 182.141 105.187C183.081 106.34 184.249 107.287 185.573 107.967L192.255 111.407C194.323 112.47 196.702 112.764 198.967 112.235L204.188 111.068Z" fill="#FEA394"/>
<path d="M213.559 64.4885C210.207 52.4447 201.423 50.2919 199.614 49.7273C196.752 48.8391 193.799 49.3208 190.823 48.9746C186.212 48.4778 167.469 50.2467 166.859 72.4525C166.814 74.1612 166.354 75.9302 166.821 77.5711C169.375 86.5513 176.78 92.0689 177.926 93.7324C177.859 91.043 177.48 88.3703 176.796 85.7685C176.396 84.263 175.907 82.6596 176.441 81.2069C176.711 80.5975 177.033 80.0131 177.406 79.4605C178.191 77.8398 178.797 76.1387 179.214 74.387C180.773 69.4516 183.74 65.0778 187.749 61.8012C188.284 61.3123 188.915 60.9405 189.602 60.7098C191.049 60.3184 192.556 61.0861 194.055 61.1388C195.735 61.1991 197.294 60.3861 198.921 59.9721C200.32 59.6508 201.773 59.6484 203.172 59.9651C204.571 60.2817 205.881 60.9093 207.005 61.8012C208.074 62.5827 208.834 63.7152 209.152 65.0004C209.318 65.8736 209.152 66.7844 209.265 67.6726C209.446 69.7351 210.772 71.5041 211.728 73.3332C212.647 75.0495 213.732 80.1079 214.305 81.922C216.151 80.6423 215.759 75.2226 215.518 73.2203C215.087 70.2643 214.432 67.3453 213.559 64.4885Z" fill="#332066"/>
<path d="M179.341 95.8026C179.484 97.3532 177.744 98.5651 176.192 98.4447C174.64 98.3242 173.314 97.293 172.169 96.2316C171.151 95.2857 170.19 94.2803 169.291 93.2207C168.386 92.2247 167.652 91.085 167.122 89.8484C166.595 88.5944 166.579 87.1848 167.076 85.9191C167.333 85.2956 167.771 84.7634 168.334 84.3917C168.897 84.0199 169.558 83.8256 170.233 83.834C171.604 83.9243 172.696 84.9782 173.533 86.0922" fill="#FEA394"/>
<path d="M167.779 86.5889C167.628 86.7912 167.528 87.0266 167.487 87.2756C167.447 87.5245 167.467 87.7795 167.545 88.0191C167.698 88.4969 167.892 88.9604 168.125 89.4042C168.39 90.1755 168.702 90.9297 169.059 91.6624C169.12 91.7527 169.195 91.8506 169.3 91.843C169.406 91.8355 169.481 91.7075 169.511 91.6022C169.903 90.1569 168.479 88.9601 169.15 87.5825C169.383 87.0933 169.866 87.1761 169.413 86.5513C169.307 86.4402 169.179 86.3525 169.037 86.2937C168.894 86.235 168.742 86.2065 168.588 86.21C168.434 86.2136 168.283 86.2491 168.143 86.3143C168.004 86.3796 167.88 86.4731 167.779 86.5889Z" fill="#332066"/>
<path d="M171.085 93.1529C171.205 93.4523 171.406 93.7128 171.665 93.9056C172.263 94.2767 172.97 94.4308 173.669 94.3422C174.362 94.2522 175.067 94.2879 175.748 94.4476C175.802 94.34 175.832 94.2215 175.835 94.1009C175.837 93.9803 175.813 93.8607 175.763 93.7509C175.713 93.6411 175.639 93.5438 175.546 93.4664C175.454 93.3889 175.345 93.3332 175.228 93.3034C174.904 93.2432 174.543 93.3862 174.256 93.2206C174.103 93.1022 173.985 92.9431 173.917 92.7614C173.866 92.6685 173.835 92.5659 173.827 92.4603C173.827 91.7829 174.362 91.5495 173.865 90.8269C173.721 90.6065 173.514 90.4355 173.27 90.3371C173.026 90.2388 172.757 90.218 172.501 90.2774C171.943 90.4869 171.486 90.9008 171.223 91.435C170.96 91.9692 170.911 92.5835 171.085 93.1529Z" fill="#332066"/>
<path d="M213.965 76.4646C214.078 75.4785 214.357 74.2816 215.321 74.0031C215.406 73.9677 215.496 73.9495 215.588 73.9495C215.68 73.9495 215.771 73.9677 215.856 74.0031C215.966 74.0949 216.056 74.2099 216.117 74.34C216.178 74.4701 216.21 74.6121 216.21 74.7558C216.753 79.1407 216.676 83.5801 215.984 87.9438C215.916 88.3428 215.637 88.8697 215.23 88.6966C214.824 88.5234 214.929 88.0567 214.613 87.9438" fill="#FEA394"/>
<path d="M189.889 78.3615C188.271 78.4616 186.675 78.7937 185.151 79.3476C183.616 79.9041 182.317 80.966 181.467 82.3586C181.685 81.2379 182.112 80.168 182.725 79.2046C183.061 78.6281 183.528 78.1383 184.088 77.7744C184.855 77.3987 185.698 77.203 186.552 77.2023C188.315 77.0744 190.078 76.8862 191.825 76.8109C192.805 76.7657 194.085 76.8109 193.987 78.1131C192.627 78.2749 191.259 78.3579 189.889 78.3615Z" fill="#332066"/>
<path d="M201.739 74.5979C203.562 73.6043 205.468 72.6031 207.54 72.5504C208.049 72.5239 208.559 72.5876 209.047 72.7386C209.542 72.9133 210.005 73.1675 210.418 73.4913C211.062 73.9872 211.641 74.5612 212.143 75.2001C210.595 74.5987 208.936 74.3378 207.279 74.4353C205.621 74.5327 204.004 74.9861 202.538 75.7646C202.056 76.0281 200.933 77.1798 200.436 76.3216C199.939 75.4635 201.234 74.8312 201.739 74.5979Z" fill="#332066"/>
<path d="M202.206 91.5646C202.306 91.5663 202.405 91.5464 202.496 91.5061C202.587 91.4658 202.668 91.4061 202.734 91.3313C202.779 91.2786 202.809 91.2184 202.779 91.1882C202.749 91.1581 202.643 91.1883 202.628 91.3689C202.613 91.5496 202.628 91.5195 202.628 91.542C202.628 91.5646 202.628 91.5797 202.628 91.5872C202.628 91.5947 202.538 91.5872 202.478 91.6474C202.222 91.7835 201.982 91.9477 201.762 92.1367C201.574 92.3092 201.347 92.434 201.101 92.5008C200.854 92.5676 200.595 92.5744 200.346 92.5206C200.553 92.164 200.72 91.7853 200.843 91.3915C200.939 91.1352 201.086 90.9011 201.275 90.7031C201.464 90.5052 201.691 90.3476 201.943 90.2398C202.288 90.1151 202.667 90.1151 203.013 90.2398C203.21 90.3108 203.388 90.4268 203.532 90.5785C203.712 90.7666 203.818 91.0119 203.834 91.2711C203.841 91.4184 203.805 91.5648 203.73 91.692C203.655 91.8191 203.545 91.9214 203.412 91.9862C203.25 92.0644 203.07 92.0957 202.892 92.0765C202.739 92.0707 202.592 92.0187 202.469 91.9273C202.347 91.8358 202.255 91.7094 202.206 91.5646Z" fill="#332066"/>
<path d="M198.439 92.5432C197.897 92.5432 197.482 92.5432 197.09 92.5432C196.765 92.5535 196.442 92.5989 196.126 92.6787L195.998 92.7238C195.953 92.7238 195.953 92.7238 195.998 92.6711C196.033 92.5764 196.037 92.4731 196.01 92.3759C195.983 92.2786 195.926 92.1923 195.847 92.1291C195.644 92.0162 195.636 92.1291 195.682 92.1291H195.765H195.93L196.284 92.1668C196.542 92.2018 196.794 92.2649 197.038 92.355C196.874 92.5496 196.689 92.7262 196.488 92.8819L196.194 93.0851C196.145 93.1212 196.092 93.1515 196.036 93.1755C195.956 93.2145 195.873 93.2448 195.787 93.2658C195.65 93.3009 195.507 93.3042 195.369 93.2755C195.23 93.2468 195.1 93.1868 194.989 93.1002C194.897 93.0294 194.82 92.941 194.763 92.8402C194.706 92.7393 194.67 92.6281 194.657 92.5131C194.638 92.3187 194.675 92.123 194.763 91.9485C194.876 91.7439 195.036 91.5687 195.23 91.4366C195.379 91.3386 195.541 91.2626 195.712 91.2108C196.271 91.0537 196.869 91.1073 197.392 91.3614C197.883 91.6023 198.259 92.0269 198.439 92.5432Z" fill="#332066"/>
<path d="M200.601 77.8572C200.272 78.4584 200.052 79.1135 199.953 79.7917C199.867 80.445 199.882 81.1078 199.998 81.7564C200.299 83.0825 200.807 84.3527 201.505 85.5201C200.332 84.619 199.528 83.3207 199.245 81.8693C199.105 81.1176 199.147 80.3436 199.366 79.6111C199.583 78.9112 200.015 78.2975 200.601 77.8572Z" fill="#332066"/>
<path d="M190.424 84.4437C191.127 84.4437 191.697 83.8741 191.697 83.1715C191.697 82.469 191.127 81.8994 190.424 81.8994C189.72 81.8994 189.15 82.469 189.15 83.1715C189.15 83.8741 189.72 84.4437 190.424 84.4437Z" fill="#332066"/>
<path d="M186.28 84.6695C186.249 84.0127 186.476 83.3698 186.913 82.8779C187.345 82.3902 187.854 81.9758 188.42 81.651C189.07 81.2445 189.855 81.1094 190.604 81.2746L190.936 81.38C191.054 81.4369 191.17 81.4997 191.282 81.5682C191.515 81.7032 191.708 81.8981 191.84 82.1327C191.949 82.3678 191.978 82.6323 191.923 82.8855C191.813 83.154 191.62 83.3807 191.373 83.5328C191.126 83.4688 190.874 83.4285 190.619 83.4124C190.5 83.4152 190.383 83.4489 190.28 83.5102C190.175 83.6156 190.243 83.6156 190.137 83.6457C190.032 83.6758 189.617 83.6457 189.211 83.6984C188.774 83.7537 188.35 83.8783 187.953 84.0673C187.497 84.2669 187.068 84.5195 186.672 84.82L186.28 84.6695Z" fill="#332066"/>
<path d="M205.904 81.0789C206.607 81.0789 207.177 80.5094 207.177 79.8068C207.177 79.1042 206.607 78.5347 205.904 78.5347C205.201 78.5347 204.631 79.1042 204.631 79.8068C204.631 80.5094 205.201 81.0789 205.904 81.0789Z" fill="#332066"/>
<path d="M201.761 81.3048C201.744 80.9804 201.791 80.6559 201.9 80.3498C202.008 80.0436 202.176 79.7619 202.394 79.5208C202.824 79.0308 203.334 78.6161 203.901 78.2938C204.221 78.0912 204.578 77.9537 204.952 77.8891C205.325 77.8245 205.708 77.8342 206.078 77.9174L206.417 78.0153C206.536 78.0721 206.651 78.135 206.764 78.2035C206.996 78.3385 207.189 78.5334 207.321 78.768C207.425 79.0045 207.454 79.2673 207.404 79.5208C207.289 79.7888 207.094 80.0148 206.846 80.1681C206.6 80.1022 206.348 80.0594 206.093 80.0401C205.971 80.0466 205.852 80.0828 205.746 80.1455C205.649 80.2509 205.746 80.2434 205.611 80.2735C205.475 80.3036 205.091 80.2735 204.684 80.3262C204.245 80.3817 203.817 80.5088 203.419 80.7026C202.967 80.8908 202.538 81.1281 202.138 81.4101L201.761 81.3048Z" fill="#332066"/>
<path d="M196.879 102.532C199.55 102.95 202.284 102.512 204.691 101.282C206.329 99.759 207.375 97.7059 207.644 95.4863C204.571 95.4863 201.617 95.682 199.636 96.9918C194.415 96.6305 192.916 98.4973 190.076 98.7758C192.472 100.522 194.837 102.058 196.879 102.532Z" fill="#332066"/>
<path d="M192.593 99.3629C195.471 101.621 205.732 99.3629 206.651 96.7886V95.4863L192.209 98.1209L192.593 99.3629Z" fill="#FEFDFF"/>
<path d="M190.047 98.7607C193.324 103.917 206.839 108.125 207.615 95.4863C203.449 106.649 191.621 99.4382 190.047 98.7607Z" fill="#DD665E"/>
<path d="M203.939 95.2229C203.123 95.2223 202.31 95.3286 201.521 95.5391C200.987 95.7616 200.438 95.9477 199.879 96.0961C199.23 96.2014 198.576 96.2693 197.92 96.2993C196.666 96.3258 195.422 96.5363 194.229 96.9241C192.722 97.4661 191.306 98.3543 189.754 98.821C192.551 98.1536 195.423 97.855 198.297 97.9328C199.079 98.0572 199.877 98.0265 200.647 97.8424C201.23 97.5904 201.779 97.2668 202.282 96.8789C203.133 96.3445 204.776 95.8928 207.616 95.4939C206.404 95.2699 205.171 95.179 203.939 95.2229Z" fill="#D35A4A"/>
<path d="M219.495 181.645H194.77L189.873 139.725C199.252 151.167 210.507 151.197 216.353 138.34L219.495 181.645Z" fill="#F6AE2D"/>
<path d="M213.823 150.624C211.751 166.59 216.836 194.607 207.615 224.995H257.276L251.739 149.721C251.739 149.721 247.332 126.462 241.734 122.397C234.465 119.183 226.389 118.272 220.844 115.434C220.844 115.434 217.778 111.889 210.116 107.154C210.659 109.156 218.531 131.806 213.823 150.624Z" fill="#7BE0AD"/>
<path d="M149.54 114.907C142.006 123.413 136.733 138.731 136.409 149.691L131.889 222.857L201.732 222.669C197.807 205.537 204.594 163.158 191.885 134.855C192.368 132.069 191.275 129.585 188.654 127.327C180.487 123.451 180.668 107.116 181.203 104.504L178.129 107.365L177.722 108.471C177.722 108.471 154.331 109.525 149.54 114.907Z" fill="#7BE0AD"/>
<path d="M225.432 119.762L230.743 126.183L233.425 129.36L236.122 132.521L236.604 133.093H235.851C234.239 133.057 232.637 133.37 231.158 134.012L230.977 134.087L230.811 133.974C230.193 133.56 229.553 133.168 228.905 132.807C228.269 132.428 227.609 132.089 226.931 131.791C226.277 131.5 225.58 131.317 224.867 131.249C224.188 131.178 223.506 131.355 222.946 131.746L222.991 131.241C224.017 132.327 224.685 133.701 224.905 135.178C224.954 135.545 224.976 135.915 224.973 136.285C225.003 136.695 224.914 137.106 224.717 137.467C224.455 137.764 224.127 137.996 223.76 138.144C223.459 138.302 223.174 138.489 222.908 138.701C221.856 139.612 221.052 140.775 220.573 142.081C220.1 143.411 219.737 144.778 219.488 146.168C219.633 144.753 219.91 143.354 220.317 141.991C220.738 140.59 221.532 139.331 222.615 138.347C222.893 138.104 223.196 137.89 223.519 137.708C223.806 137.584 224.064 137.399 224.272 137.166C224.395 136.889 224.44 136.585 224.4 136.285C224.394 135.947 224.361 135.609 224.302 135.276C224.075 133.933 223.447 132.69 222.502 131.708L222.238 131.445L222.539 131.211C223.222 130.712 224.062 130.477 224.905 130.549C225.7 130.611 226.479 130.804 227.21 131.121C227.921 131.422 228.613 131.767 229.282 132.152C229.945 132.536 230.593 132.943 231.218 133.379L230.871 133.342C232.453 132.678 234.159 132.364 235.874 132.423L235.602 132.973C234.713 131.904 233.817 130.843 232.958 129.751L230.382 126.477C228.679 124.279 227.037 122.066 225.432 119.762Z" fill="#FEFDFF"/>
<path d="M176.193 112.694C175.63 114.514 175.167 116.364 174.807 118.234C174.446 120.097 174.195 121.98 174.053 123.872C173.904 125.76 173.879 127.656 173.978 129.548C174.063 131.44 174.262 133.325 174.573 135.193L173.94 135.08C174.546 134.074 175.281 133.15 176.125 132.333C176.981 131.539 177.927 130.846 178.943 130.27C180.967 129.122 183.259 128.529 185.587 128.554C183.314 128.748 181.12 129.478 179.184 130.684C178.231 131.278 177.354 131.983 176.57 132.785C175.777 133.573 175.091 134.461 174.528 135.427L174.061 136.225L173.895 135.314C173.538 133.42 173.319 131.503 173.24 129.578C173.171 127.657 173.226 125.733 173.405 123.819C173.598 121.907 173.926 120.01 174.385 118.144C174.845 116.283 175.45 114.461 176.193 112.694Z" fill="#FEFDFF"/>
<path d="M238.75 221.886H233.424L235.865 159.65L238.75 221.886Z" fill="#332066"/>
<path d="M82.2349 223.708H16.8893L0.609375 136.872H82.2349V223.708Z" fill="#7BE0AD"/>
<path d="M21.1306 223.708H16.8893L0.609375 136.872H3.84878C11.0659 147.004 13.793 164.573 11.6761 181.675C21.4772 192.432 22.2682 217.024 21.1306 223.708Z" fill="#332066"/>
<path d="M102.989 39.061C105.679 37.9695 109.77 39.633 112.564 40.2879C113.985 40.5975 115.319 41.2161 116.472 42.0995C117.626 42.9829 118.571 44.1094 119.239 45.399C119.568 46.3152 120.008 47.1874 120.55 47.996C121.868 49.5918 124.422 49.8402 125.552 51.579C126.682 53.3178 125.936 55.5911 126.848 57.3751C127.601 58.8806 129.394 59.6333 130.2 61.1388C131.474 63.5099 129.801 66.5359 130.622 69.1028C131.157 70.7739 132.641 71.9331 133.726 73.3181C134.754 74.6361 135.442 76.1858 135.731 77.8315C136.02 79.4772 135.901 81.1686 135.383 82.7575C135.129 83.3485 134.957 83.9715 134.871 84.6092C134.781 86.4158 136.513 87.7707 137.071 89.4945C137.922 92.1291 135.896 95.0346 136.672 97.6918C137.169 99.393 138.758 100.703 138.879 102.487C139 104.271 137.493 106.1 138.043 107.846C138.397 108.968 139.482 109.668 140.235 110.564C140.913 111.399 141.33 112.416 141.435 113.486C141.539 114.557 141.326 115.635 140.823 116.586C140.244 117.411 139.71 118.268 139.226 119.152C138.698 120.394 139.873 120.711 139.979 121.915C139.934 125.107 139.821 128.17 139.768 131.362C139.782 132.481 139.702 133.599 139.527 134.704C139.237 135.792 139.005 136.895 138.834 138.009C138.683 139.815 139.241 141.923 137.99 143.225C137.169 144.083 135.858 144.226 134.834 144.828C133.485 145.634 132.754 147.147 131.767 148.374C130.78 149.601 129.101 150.632 127.692 149.879C126.622 149.345 126.185 148.005 125.108 147.433C123.458 146.522 120.829 147.696 119.834 146.116C119.036 144.874 120.173 143.263 119.993 141.81C119.638 138.965 115.141 138.889 113.695 136.413C112.941 135.073 113.242 133.357 112.783 131.896C112.03 129.397 109.318 128.133 106.801 127.38C104.285 126.627 101.528 126.228 99.6747 124.407C97.4749 122.261 97.0831 118.753 94.8758 116.616C93.9713 115.813 92.8845 115.243 91.7097 114.954C90.5348 114.665 89.3073 114.667 88.1333 114.96C85.7663 115.573 83.6558 116.923 82.1065 118.814C81.0594 120.018 80.1553 121.524 80.2834 123.119C80.3437 123.872 80.6601 124.625 80.6978 125.445C80.8786 129.006 75.9592 130.714 74.9196 134.109C74.121 136.721 75.7934 139.823 74.3922 142.171C73.9274 142.864 73.3372 143.464 72.652 143.94C70.3819 145.747 68.0766 147.503 65.7362 149.209C65.3653 147.671 65.3991 146.063 65.8342 144.542C64.5615 144.77 63.2492 144.547 62.1231 143.912C60.997 143.278 60.1275 142.271 59.6642 141.065C59.0992 139.446 59.2122 137.406 57.8637 136.337C56.2289 135.05 53.3888 136.029 52.078 134.41C50.7672 132.792 52.1458 130.647 51.7164 128.72C51.189 126.349 48.2736 125.378 46.9929 123.3C44.9287 119.95 47.8969 115.509 46.8422 111.723C46.4053 110.165 45.3355 108.885 44.5821 107.447C43.7957 105.893 43.3973 104.171 43.4209 102.429C43.4445 100.687 43.8895 98.9764 44.7178 97.4434C45.4711 96.1186 46.4881 94.8766 46.6313 93.3636C46.8422 91.0527 44.8609 88.9826 45.0191 86.6642C45.2903 82.9005 50.9028 81.109 50.9856 77.3076C51.0384 74.9591 48.8386 72.7912 49.4789 70.533C49.9309 69.0275 51.5657 68.0791 52.1684 66.5962C52.7259 65.2337 52.304 63.7056 52.1684 62.2378C52.1111 60.6269 52.4573 59.0272 53.1756 57.5838C53.8939 56.1405 54.9616 54.8993 56.2817 53.9727C58.5417 52.3995 58.0897 52.5199 58.3383 52.0683C58.8129 51.1801 58.3383 50.0961 58.4061 49.095C58.489 46.3249 61.7661 45.0001 63.5741 42.9075C65.6458 40.5213 66.1355 36.592 69.066 35.3801C70.3166 34.8682 71.7329 35.0263 73.0513 34.7327C74.6258 34.3789 75.9818 33.423 77.4282 32.7229C79.6041 31.7271 81.9869 31.2662 84.3775 31.3788C86.7681 31.4914 89.0969 32.1743 91.1693 33.3703C95.2751 35.779 102.085 34.3789 102.989 39.061Z" fill="#332066"/>
<path d="M177.179 231.559H147.354L131.059 200.817L137.289 123.202C145.576 126.763 153.659 131.761 155.693 139.1C159.249 151.897 160.387 190.535 160.387 190.535L177.179 231.559Z" fill="#7C3AED"/>
<path d="M155.904 231.559H147.354L131.059 200.817L146.751 164.264C146.601 169.757 147.292 175.24 148.8 180.523C148.975 181.174 148.988 181.857 148.837 182.513C148.686 183.169 148.376 183.779 147.934 184.287L142.494 190.557L140.656 210.369L155.904 231.559Z" fill="#332066"/>
<path d="M57.3283 228.699L39.7753 145.897C39.0525 142.476 39.4322 138.914 40.86 135.721C42.2877 132.529 44.6901 129.87 47.7231 128.125L79.5296 109.081L111.961 111L140.762 124.858C144.18 126.557 146.931 129.35 148.577 132.791C150.223 136.232 150.67 140.125 149.847 143.85C146.608 158.43 145.93 171.927 146.435 180.508L141.003 188.864L136.483 233.049L57.3283 228.699Z" fill="#7C3AED"/>
<path d="M57.3289 228.699C57.3289 228.699 46.782 219.011 46.6992 209.255C46.5334 191.626 57.2461 168.705 61.284 166.409L57.9166 195.834L90.1072 208.232L57.3289 228.699Z" fill="#332066"/>
<path d="M90.0547 164.46L85.5346 164.738C85.554 164.93 85.6197 165.115 85.7259 165.276C85.8322 165.437 85.9759 165.57 86.1448 165.664C86.6141 165.885 87.1366 165.969 87.6515 165.905C88.0651 165.879 88.472 165.788 88.8568 165.634C89.1743 165.519 89.4736 165.359 89.7458 165.16H89.9718L90.0547 166.53C89.6548 166.699 89.2415 166.835 88.8192 166.936C88.3914 167.039 87.9551 167.102 87.5159 167.124C86.5251 167.248 85.5205 167.056 84.6456 166.575C84.3092 166.362 84.031 166.069 83.8364 165.722C83.6417 165.375 83.5366 164.985 83.5307 164.588C83.4907 164.192 83.5426 163.793 83.6825 163.421C83.8223 163.049 84.0462 162.714 84.3367 162.442C85.0324 161.844 85.92 161.516 86.8379 161.517C87.6291 161.415 88.4307 161.599 89.0979 162.036C89.37 162.26 89.5889 162.542 89.7387 162.861C89.8885 163.18 89.9656 163.528 89.9643 163.88L90.0547 164.46ZM88.0357 163.579C88.0237 163.292 87.8992 163.022 87.6892 162.826C87.4229 162.643 87.098 162.565 86.7776 162.608C86.4465 162.613 86.1252 162.721 85.8585 162.917C85.7352 163.02 85.6382 163.151 85.5753 163.299C85.5125 163.446 85.4856 163.607 85.4969 163.767L88.0357 163.609V163.579Z" fill="white"/>
<path d="M95.0569 166.47C94.8368 166.534 94.6129 166.584 94.3865 166.62C94.1454 166.62 93.8666 166.688 93.5126 166.711C92.9178 166.791 92.3126 166.686 91.7799 166.409C91.569 166.256 91.3995 166.052 91.2865 165.817C91.1734 165.582 91.1203 165.323 91.132 165.062L90.9813 162.578L90.1828 162.668L90.1074 161.509L90.9135 161.464L90.8231 159.958L92.7894 159.838L92.8798 161.343L94.7029 161.163L94.7707 162.315L92.9325 162.427L93.0455 164.317V164.806C93.0533 164.936 93.092 165.063 93.1585 165.175C93.2219 165.289 93.3232 165.376 93.4448 165.423C93.6257 165.488 93.8193 165.508 94.0098 165.484C94.1439 165.476 94.276 165.448 94.4015 165.401C94.5198 165.374 94.6339 165.331 94.7405 165.273H94.9063L94.9816 166.447L95.0569 166.47Z" fill="white"/>
<path d="M99.4488 165.679L99.0721 165.958C98.9362 166.057 98.7926 166.145 98.6427 166.221C98.4509 166.307 98.2517 166.375 98.0476 166.425C97.8227 166.479 97.5931 166.511 97.362 166.522C96.8314 166.574 96.2991 166.441 95.8553 166.146C95.6621 166.016 95.5016 165.843 95.3866 165.641C95.2716 165.438 95.2051 165.212 95.1924 164.979C95.1545 164.637 95.24 164.293 95.4335 164.008C95.6503 163.734 95.9291 163.514 96.2471 163.368C96.6729 163.183 97.1212 163.054 97.5805 162.985C98.1154 162.894 98.6729 162.811 99.2529 162.744C99.2505 162.61 99.2042 162.481 99.1211 162.376C99.0381 162.272 98.923 162.197 98.7934 162.164C98.3903 162.06 97.9718 162.029 97.5579 162.074C97.2084 162.097 96.8638 162.168 96.5333 162.284C96.1642 162.405 95.9156 162.495 95.78 162.563H95.5917L95.5088 161.268C95.8412 161.176 96.1782 161.101 96.5183 161.042C96.9801 160.946 97.4485 160.883 97.9195 160.854C98.7486 160.742 99.5927 160.849 100.368 161.163C100.621 161.289 100.834 161.483 100.982 161.724C101.13 161.965 101.207 162.243 101.204 162.525L101.423 166.146L99.4639 166.266L99.4262 165.702L99.4488 165.679ZM99.3961 164.859L99.3283 163.752L98.477 163.88C98.2365 163.915 97.9996 163.97 97.7689 164.046C97.6 164.088 97.4478 164.18 97.3319 164.309C97.2842 164.365 97.2482 164.43 97.2262 164.499C97.2042 164.569 97.1966 164.643 97.2038 164.716C97.2075 164.808 97.2253 164.9 97.2566 164.987C97.295 165.065 97.3551 165.13 97.4298 165.175C97.5249 165.233 97.6294 165.274 97.7387 165.295C97.9214 165.316 98.1059 165.316 98.2887 165.295C98.4907 165.278 98.6889 165.23 98.8763 165.152C99.0645 165.084 99.2401 164.985 99.3961 164.859Z" fill="white"/>
<path d="M108.014 164.038C108.028 164.316 107.966 164.593 107.833 164.837C107.7 165.082 107.502 165.285 107.26 165.423C106.565 165.838 105.773 166.064 104.963 166.078C104.46 166.108 103.955 166.09 103.456 166.026C103.086 165.983 102.72 165.908 102.364 165.8L102.281 164.392H102.461L102.816 164.573C102.998 164.648 103.184 164.713 103.373 164.768C103.607 164.836 103.847 164.883 104.089 164.911C104.364 164.939 104.642 164.939 104.917 164.911C105.208 164.908 105.496 164.854 105.769 164.753C105.957 164.663 106.04 164.55 106.032 164.4C106.03 164.342 106.011 164.287 105.98 164.239C105.948 164.191 105.903 164.153 105.852 164.129C105.651 164.055 105.44 164.012 105.226 164.001C105.083 164.001 104.88 164.001 104.624 163.948C104.367 163.895 104.141 163.895 103.938 163.873C103.478 163.82 103.04 163.643 102.672 163.361C102.531 163.239 102.416 163.089 102.335 162.921C102.255 162.752 102.211 162.569 102.205 162.382C102.2 162.113 102.267 161.848 102.4 161.613C102.532 161.379 102.725 161.184 102.959 161.05C103.639 160.633 104.421 160.409 105.219 160.403C105.661 160.373 106.105 160.386 106.545 160.44C106.883 160.478 107.219 160.543 107.547 160.636L107.629 161.983H107.456C107.132 161.818 106.788 161.697 106.432 161.622C106.056 161.537 105.671 161.504 105.287 161.524C105.015 161.533 104.748 161.589 104.496 161.69C104.277 161.78 104.179 161.893 104.187 162.036C104.187 162.093 104.203 162.149 104.232 162.197C104.261 162.246 104.303 162.287 104.352 162.315C104.578 162.414 104.821 162.468 105.068 162.473L105.723 162.525C105.957 162.525 106.198 162.578 106.432 162.616C106.861 162.665 107.27 162.829 107.614 163.09C107.746 163.21 107.849 163.356 107.918 163.52C107.987 163.684 108.02 163.861 108.014 164.038Z" fill="white"/>
<path d="M114.869 162.954L110.349 163.233C110.367 163.425 110.433 163.61 110.539 163.772C110.645 163.933 110.79 164.066 110.96 164.159C111.429 164.381 111.951 164.464 112.466 164.4C112.88 164.374 113.287 164.283 113.672 164.129C113.989 164.014 114.288 163.854 114.561 163.654H114.787L114.869 165.024C114.47 165.196 114.056 165.335 113.634 165.438C113.206 165.538 112.77 165.598 112.331 165.619C111.34 165.743 110.335 165.55 109.46 165.07C109.125 164.855 108.848 164.56 108.654 164.212C108.461 163.864 108.358 163.473 108.353 163.075C108.313 162.679 108.365 162.28 108.505 161.908C108.645 161.536 108.868 161.201 109.159 160.93C109.854 160.331 110.742 160.002 111.66 160.004C112.452 159.899 113.254 160.083 113.92 160.523C114.193 160.747 114.413 161.028 114.564 161.347C114.715 161.666 114.794 162.014 114.794 162.367L114.832 162.969L114.869 162.954ZM112.85 162.081C112.848 161.932 112.815 161.786 112.755 161.65C112.694 161.514 112.606 161.392 112.496 161.291C112.23 161.107 111.905 161.029 111.585 161.073C111.254 161.08 110.934 161.188 110.666 161.381C110.544 161.485 110.448 161.616 110.387 161.764C110.325 161.912 110.299 162.072 110.312 162.232L112.85 162.081Z" fill="white"/>
<path d="M117.914 165.13L115.941 165.25L115.496 157.866L117.462 157.745L117.914 165.13Z" fill="white"/>
<path d="M125.213 162.33L120.693 162.601C120.707 162.793 120.77 162.979 120.875 163.141C120.981 163.303 121.125 163.436 121.296 163.526C121.763 163.753 122.287 163.84 122.803 163.775C123.213 163.745 123.617 163.653 124 163.504C124.318 163.389 124.617 163.229 124.889 163.03H125.115L125.198 164.4C124.798 164.569 124.385 164.705 123.963 164.806C123.535 164.908 123.099 164.971 122.659 164.994C121.669 165.118 120.664 164.926 119.789 164.445C119.452 164.229 119.175 163.934 118.981 163.584C118.788 163.234 118.685 162.842 118.682 162.443C118.641 162.048 118.692 161.65 118.832 161.278C118.972 160.907 119.196 160.574 119.488 160.305C120.186 159.706 121.076 159.375 121.996 159.371C122.788 159.268 123.59 159.452 124.257 159.891C124.528 160.116 124.748 160.397 124.899 160.716C125.05 161.034 125.129 161.382 125.13 161.735L125.168 162.345L125.213 162.33ZM123.194 161.449C123.189 161.306 123.154 161.166 123.094 161.037C123.033 160.907 122.947 160.792 122.84 160.696C122.576 160.509 122.249 160.431 121.929 160.478C121.598 160.486 121.278 160.593 121.01 160.787C120.888 160.89 120.792 161.022 120.731 161.169C120.669 161.317 120.643 161.477 120.655 161.637L123.194 161.479V161.449Z" fill="white"/>
<path d="M129.484 164.58C128.98 164.614 128.474 164.586 127.977 164.497C127.559 164.427 127.158 164.279 126.795 164.061C126.463 163.854 126.187 163.57 125.989 163.233C125.777 162.86 125.658 162.442 125.642 162.013C125.601 161.571 125.674 161.125 125.853 160.719C126.019 160.344 126.279 160.017 126.606 159.77C126.94 159.51 127.321 159.318 127.729 159.206C128.164 159.07 128.614 158.991 129.07 158.972C129.457 158.941 129.846 158.956 130.23 159.018C130.573 159.07 130.911 159.153 131.239 159.266L131.33 160.726H131.051C130.957 160.659 130.859 160.599 130.757 160.546C130.629 160.464 130.493 160.396 130.35 160.342C130.186 160.281 130.017 160.234 129.846 160.199C129.642 160.162 129.435 160.15 129.228 160.162C128.78 160.166 128.352 160.347 128.038 160.666C127.771 161.008 127.647 161.439 127.691 161.87C127.689 162.085 127.734 162.297 127.821 162.493C127.908 162.689 128.036 162.864 128.196 163.007C128.558 163.272 129.008 163.391 129.454 163.338C129.677 163.325 129.897 163.284 130.109 163.218C130.277 163.169 130.439 163.101 130.592 163.015C130.703 162.952 130.809 162.878 130.908 162.796L131.149 162.578H131.428L131.518 164.038C131.212 164.185 130.895 164.306 130.569 164.4C130.214 164.494 129.851 164.554 129.484 164.58Z" fill="white"/>
<path d="M136.475 163.955C136.255 164.021 136.031 164.072 135.805 164.106C135.564 164.106 135.285 164.174 134.938 164.196C134.342 164.274 133.736 164.172 133.198 163.903C132.99 163.747 132.822 163.543 132.711 163.308C132.599 163.074 132.547 162.815 132.558 162.555L132.407 160.064L131.601 160.117L131.533 158.957L132.369 158.905L132.279 157.399L134.245 157.279L134.343 158.784L136.196 158.671L136.264 159.823L134.426 159.936L134.539 161.825V162.315C134.547 162.445 134.586 162.571 134.652 162.683C134.716 162.797 134.817 162.885 134.938 162.932C135.119 162.999 135.312 163.022 135.503 163C135.636 162.985 135.768 162.957 135.895 162.917C136.013 162.886 136.127 162.84 136.234 162.781H136.4L136.475 163.955Z" fill="white"/>
<path d="M78.3853 166.274L78.2799 164.558L78.2045 163.383L78.1292 161.916L78.0463 160.658L76.0801 160.771L76.4944 167.629L78.4682 167.508L78.3853 166.274Z" fill="white"/>
<path d="M82.3488 163.421C82.0497 162.995 81.6742 162.627 81.2414 162.337L81.0681 162.224L79.0566 162.352V162.917L79.2374 163.007C79.4078 163.087 79.5673 163.188 79.7121 163.308C80.0336 163.549 80.292 163.864 80.4654 164.227C80.5466 164.42 80.595 164.626 80.6085 164.836C80.6255 165.047 80.6025 165.259 80.5407 165.461C80.4192 165.842 80.2042 166.186 79.9155 166.462C79.7764 166.593 79.6278 166.714 79.471 166.823L79.2977 166.944V167.508L81.3242 167.388L81.4674 167.26C81.864 166.918 82.1957 166.508 82.4467 166.048C82.652 165.641 82.7456 165.186 82.7179 164.731C82.7097 164.27 82.5826 163.819 82.3488 163.421Z" fill="white"/>
<path d="M96.1037 220.321C94.1977 224.882 92.3369 227.133 87.3723 226.147C84.9013 225.65 80.5922 219.267 81.6017 216.293C84.7582 207.261 93.6553 209.413 96.1037 209.94C100.292 210.844 97.3165 217.422 96.1037 220.321Z" fill="#332066"/>
<path d="M96.5341 226.147L79.207 221.051L86.4166 209.255L101.348 213.23L109.032 210.648L120.257 209.797L131.399 215.202L136.981 219.854L133.968 220.855L135.407 221.608L131.926 222.887L130.051 222.135L126.698 223.64L124.22 222.887L121.553 224.242L111.624 223.143L110.697 224.039C110.095 224.628 109.381 225.089 108.596 225.394C107.812 225.699 106.973 225.843 106.132 225.816L103.118 225.725L96.5341 226.147Z" fill="#B25E4F"/>
<path d="M119.383 213.139L128.468 217.279L132.928 220.441" stroke="#332066" stroke-miterlimit="10"/>
<path d="M115.57 215.292L125.108 219.124L128.468 221.608" stroke="#332066" stroke-miterlimit="10"/>
<path d="M111.623 218.446L122.019 221.676L123.729 222.669" stroke="#332066" stroke-miterlimit="10"/>
<path d="M53.48 197.799L96.1046 209.94C87.8177 209.579 84.051 220.855 87.3732 226.147L23.1351 222.082C16.2419 220.652 13.4922 215.157 16.6487 207.419C33.5162 181.825 27.4819 136.458 47.7395 128.14L61.2998 166.409L53.48 197.799Z" fill="#7C3AED"/>
<path d="M112.708 122.577C113.341 128.915 110.222 134.553 104.722 139.74C92.036 135.735 81.0899 130.383 74.498 121.606C78.5209 110.067 82.7849 107.176 81.1426 89.4719H110.576L112.708 122.577Z" fill="#B25E4F"/>
<path d="M86.6046 104.888C83.7419 101.689 82.8379 92.2345 82.8379 92.2345L110.561 89.4719L111.947 111.015C111.955 115.381 96.579 116.036 86.6046 104.888Z" fill="#332066"/>
<path d="M114.154 52.9867C117.608 54.7545 120.379 57.6159 122.034 61.1238C124.151 65.9188 123.541 71.3987 124.083 76.6077C124.339 79.0541 124.836 81.4779 124.897 83.9394C124.987 89.4193 122.757 94.6358 120.565 99.6641C119.141 102.916 117.431 106.439 114.154 107.839C111.464 108.96 108.398 108.306 105.558 107.643L89.5872 103.879C88.8173 103.752 88.0739 103.498 87.3874 103.127C86.5114 102.473 85.8123 101.612 85.3534 100.62C83.521 97.3016 82.0776 93.7831 81.0517 90.1344C81.1928 90.2763 81.3006 90.4477 81.3671 90.6364C81.4336 90.825 81.4573 91.0261 81.4364 91.225C81.4155 91.4239 81.3505 91.6157 81.2462 91.7864C81.1418 91.9571 81.0008 92.1025 80.8333 92.2119C80.4788 92.4134 80.0836 92.5328 79.6768 92.5615C79.2701 92.5901 78.862 92.5273 78.4828 92.3776C75.7858 91.542 73.9627 88.8623 73.4203 86.0997C72.8779 83.3372 73.2696 80.4768 73.7141 77.6916C73.7591 76.7836 74.1125 75.918 74.7161 75.2377C75.3865 74.643 76.7049 74.7559 76.9309 75.6291C76.8706 70.503 76.8405 65.2112 78.8218 60.484C80.6648 56.1108 84.0735 52.5814 88.3818 50.5855C92.9019 48.5154 97.3166 48.7714 102.055 49.7123C106.236 50.5102 110.304 50.9242 114.154 52.9867Z" fill="#B25E4F"/>
<path d="M78.9427 88.4256C79.1386 88.5762 79.4249 88.5762 79.5831 88.7569C79.6274 88.8281 79.6552 88.9084 79.6645 88.9918C79.6738 89.0752 79.6645 89.1596 79.637 89.2389C79.6096 89.3182 79.5649 89.3904 79.506 89.4503C79.4471 89.5101 79.3757 89.5561 79.2968 89.5849C78.9726 89.6991 78.6191 89.6991 78.2948 89.5849C77.7826 89.4494 77.2025 89.216 77.0518 88.7042C77.014 88.5002 77.014 88.2909 77.0518 88.0869C77.1422 87.1535 76.9765 85.8287 77.7675 85.1889C78.0373 84.9734 78.3782 84.867 78.7228 84.8907C79.0674 84.9144 79.3905 85.0665 79.6283 85.3168C81.3534 86.8148 77.7524 87.5525 78.9427 88.4256Z" fill="#332066"/>
<path d="M118.916 93.883C118.916 93.883 116.656 98.136 113.642 98.3167C110.463 98.5124 101.98 93.2281 101.98 93.2281L112.776 93.6948L118.916 93.883Z" fill="#332066"/>
<path d="M117.838 94.8615C114.402 96.1864 108.918 95.7724 105.106 94.425C104.945 94.3729 104.804 94.2728 104.702 94.1383C104.599 94.0037 104.541 93.8411 104.533 93.6722L104.488 93.0399L118.35 93.1905V93.9432C118.35 94.1271 118.302 94.3079 118.213 94.4686C118.123 94.6292 117.994 94.7645 117.838 94.8615Z" fill="white"/>
<path d="M107.149 97.9327C109.71 99.4984 116.988 102.005 118.916 93.8905C115.458 98.9489 107.405 96.3971 101.996 93.2356C103.368 95.142 105.123 96.7417 107.149 97.9327Z" fill="#FEA394"/>
<path d="M109.905 91.9108C110.919 91.6239 111.985 91.5673 113.024 91.7452C113.419 91.8806 113.825 91.9838 114.237 92.0539C114.704 92.0915 115.39 91.6323 115.857 91.6323C117.363 91.6323 118.373 93.2959 119.872 93.5669C116.911 94.4175 117.228 93.8755 114.071 93.9131C111.382 93.9131 104.436 94.4551 102.018 93.198C104.496 93.2206 108.496 92.2496 109.905 91.9108Z" fill="#E58A7F"/>
<path d="M114.343 73.3558C114.219 74.9542 114.377 76.562 114.81 78.1056C115.26 79.6454 115.971 81.0966 116.912 82.3962C115.547 81.3844 114.555 79.95 114.09 78.3163C113.626 76.6826 113.715 74.9413 114.343 73.3634V73.3558Z" fill="#332066"/>
<path d="M116.777 87.816C116.784 88.0057 116.719 88.1912 116.596 88.3353C116.476 88.4884 116.321 88.6098 116.144 88.6891C115.902 88.7847 115.632 88.7847 115.39 88.6891C115.219 88.6332 115.065 88.5348 114.943 88.4032C114.82 88.2715 114.733 88.1109 114.69 87.9364V87.8762C114.666 87.7061 114.684 87.5329 114.74 87.3708C114.796 87.2086 114.89 87.0619 115.014 86.9428C115.182 86.7858 115.391 86.6789 115.616 86.6342C115.894 86.5741 116.182 86.5741 116.46 86.6342C116.703 86.6799 116.939 86.7584 117.161 86.8675C117.392 86.9793 117.61 87.1182 117.809 87.2815C117.602 87.435 117.373 87.5567 117.131 87.6428C116.905 87.7256 116.694 87.8084 116.505 87.8687C116.347 87.9149 116.191 87.9702 116.038 88.0343C115.993 88.0343 115.993 88.0869 116.038 88.0343C116.08 87.9921 116.112 87.9411 116.131 87.8852C116.151 87.8292 116.158 87.7695 116.151 87.7106V87.6504C116.151 87.5675 115.986 87.4245 115.933 87.4471C115.88 87.4697 115.933 87.5224 115.978 87.5675C116.218 87.7194 116.493 87.8051 116.777 87.816Z" fill="#332066"/>
<path d="M109.438 87.7557C109.771 87.3749 110.182 87.0695 110.643 86.8599C111.099 86.6586 111.591 86.5535 112.089 86.5513C112.455 86.5435 112.815 86.6458 113.121 86.8449C113.346 86.9961 113.51 87.2232 113.581 87.4847C113.61 87.6133 113.612 87.7464 113.587 87.8759C113.563 88.0054 113.512 88.1284 113.438 88.2374C113.372 88.3341 113.287 88.4166 113.189 88.4799C113.091 88.5433 112.981 88.5863 112.865 88.6063C112.713 88.6329 112.558 88.6329 112.406 88.6063C112.261 88.5919 112.121 88.5409 112.001 88.4579C111.882 88.3749 111.785 88.2628 111.72 88.1321C111.94 88.1463 112.157 88.0793 112.33 87.9439C112.4 87.894 112.466 87.8387 112.526 87.7783C112.594 87.703 112.526 87.7105 112.466 87.7256C112.442 87.734 112.421 87.7506 112.407 87.7725C112.393 87.7944 112.387 87.8204 112.391 87.846C112.391 87.9213 112.428 87.9665 112.391 87.989C112.353 88.0116 112.255 87.989 112.104 87.989C111.696 88.0514 111.282 88.0766 110.869 88.0643C110.375 88.0638 109.887 87.9586 109.438 87.7557Z" fill="#332066"/>
<path d="M104.015 79.0089C105.254 79.0089 106.259 78.0046 106.259 76.7657C106.259 75.5269 105.254 74.5226 104.015 74.5226C102.775 74.5226 101.77 75.5269 101.77 76.7657C101.77 78.0046 102.775 79.0089 104.015 79.0089Z" fill="#332066"/>
<path d="M96.209 76.5098C96.9013 75.7323 97.7654 75.1266 98.7327 74.7408C99.7084 74.337 100.74 74.0833 101.791 73.9881C102.932 73.8445 104.088 74.0855 105.076 74.6731C105.212 74.7559 105.34 74.8462 105.46 74.9366L105.792 75.2903C106.011 75.5316 106.178 75.8162 106.281 76.1259C106.36 76.4307 106.375 76.7483 106.326 77.0593C106.241 77.3577 106.089 77.6329 105.882 77.8647C105.703 77.6554 105.541 77.4313 105.4 77.1948C105.227 77.0216 105.144 76.8485 105.016 76.7206C104.888 76.5926 104.82 76.442 104.662 76.3442L104.473 76.1786C104.39 76.1379 104.31 76.0927 104.232 76.0431C103.476 75.6788 102.653 75.4763 101.814 75.4484C100.889 75.407 99.9623 75.5009 99.0642 75.7269C98.1312 75.9389 97.2279 76.2651 96.3747 76.698L96.209 76.5098Z" fill="#332066"/>
<path d="M121.273 78.5271C122.246 78.5271 123.035 77.7385 123.035 76.7657C123.035 75.7929 122.246 75.0043 121.273 75.0043C120.299 75.0043 119.51 75.7929 119.51 76.7657C119.51 77.7385 120.299 78.5271 121.273 78.5271Z" fill="#332066"/>
<path d="M116.188 76.713C116.335 75.9274 116.784 75.2305 117.438 74.7709C118.098 74.283 118.88 73.9884 119.698 73.9203C120.581 73.8464 121.458 74.1161 122.146 74.6731C122.32 74.8013 122.477 74.9504 122.614 75.1172C122.766 75.2628 122.889 75.4366 122.975 75.629C123.073 75.8363 123.123 76.0625 123.123 76.2914C123.123 76.5204 123.073 76.7466 122.975 76.9539C122.578 76.8721 122.2 76.7163 121.86 76.4947C121.643 76.3068 121.414 76.1333 121.175 75.9753C120.722 75.6742 120.207 75.4787 119.668 75.4032C119.073 75.3363 118.472 75.4326 117.928 75.6817C117.328 75.9401 116.795 76.3313 116.368 76.8259L116.188 76.713Z" fill="#332066"/>
<path d="M91.5996 72.8815C92.7191 71.4274 94.1047 70.1987 95.6828 69.2608C96.7139 68.771 97.8184 68.4531 98.9523 68.3199C100.15 68.1543 104.776 68.1092 106.576 69.434C107.171 69.8781 106.975 71.1879 106.576 71.6922C104.226 72.0987 101.19 70.134 98.7489 70.6007C96.2101 71.0524 93.8295 71.5341 91.5996 72.8815Z" fill="#332066"/>
<path d="M116.355 71.5041C117.605 70.9772 118.713 70.1492 119.978 69.6524C121.244 69.1556 122.803 69.0577 123.851 69.9158C123.18 68.8545 122.344 67.6576 121.078 67.5673C120.573 67.5221 116.181 68.4254 115.33 69.4341C114.78 70.0814 114.66 72.2042 116.355 71.5041Z" fill="#332066"/>
<path d="M78.9733 79.31C80.0159 79.9031 80.9016 80.7365 81.5568 81.7407C82.212 82.745 82.6177 83.891 82.7401 85.0835C83.614 81.8844 82.5894 78.5196 82.0621 75.2452C81.5347 71.9708 81.723 68.1243 84.2769 66.0016C85.4521 65.0306 86.9588 64.5714 88.3375 63.9015C89.7161 63.2315 91.0721 62.2078 91.4036 60.7174C91.6145 59.7689 91.4036 58.6925 91.9309 57.8871C92.9329 56.3816 95.3738 57.187 97.001 56.3816C97.8071 55.9902 98.357 55.2148 99.1104 54.7256C100.414 53.89 102.079 54.0105 103.63 53.9728C105.182 53.9352 106.93 53.6642 107.766 52.3695C109.567 54.0933 112.535 53.875 114.584 55.3127C115.503 55.945 116.181 56.8784 117.055 57.5709C117.929 58.2634 118.871 58.685 119.669 59.385C121.929 61.3647 122.201 64.8123 124.107 67.1232C125.086 64.865 124.317 62.2228 123.135 60.0625C121.952 57.9021 120.377 55.9375 119.586 53.604C119.225 52.5276 119.006 51.3458 118.215 50.5178C117.601 49.9675 116.873 49.5589 116.083 49.3209L107.925 46.197C104.041 44.6595 99.7513 44.4765 95.7504 45.6776C92.1919 46.7729 88.7319 48.1654 85.4069 49.8403C82.6969 51.1113 80.1991 52.792 78.0015 54.8234C75.7963 56.878 74.3274 59.5993 73.8204 62.5691C73.6847 64.003 73.6696 65.4458 73.7752 66.8823C73.8279 68.2222 73.8355 69.5696 73.7752 70.917C73.7306 72.7617 73.5341 74.5995 73.1876 76.412C72.6452 79.1294 71.6809 81.7414 71.1837 84.4663C70.6865 87.1912 70.7618 90.1495 72.163 92.5356C72.6753 93.4013 73.6697 94.2444 74.5813 93.7626C75.2518 93.4013 75.3346 92.5055 75.3346 91.7528C75.3346 88.7418 74.5135 85.6631 74.973 82.6522C75.0789 81.555 75.539 80.522 76.2839 79.709C76.6104 79.3323 77.0613 79.085 77.5546 79.0118C78.048 78.9386 78.5513 79.0444 78.9733 79.31Z" fill="#332066"/>
<path d="M319.766 223.708H385.111L401.391 136.872H319.766V223.708Z" fill="#7BE0AD"/>
<path d="M380.87 223.708H385.111L401.391 136.872H398.144C390.927 147.004 388.2 164.573 390.324 181.675C380.523 192.432 379.725 217.024 380.87 223.708Z" fill="#332066"/>
<path d="M340.52 97.0144C346.939 101.44 349.508 104.813 355.708 109.547C360.265 113.033 364.929 116.623 367.972 121.486C370.488 125.506 371.739 130.165 372.907 134.764C376.138 147.561 378.813 160.817 377.585 173.989C376.387 186.891 376.078 199.718 372.816 212.266C372.544 213.725 371.952 215.105 371.083 216.308C369.23 218.506 365.953 218.77 363.075 218.567C358.096 218.183 353.244 216.866 348.347 215.857C330.267 212.138 311.569 212.688 293.097 213.252C295.04 201.961 296.984 190.279 294.521 179.055C292.705 170.775 293.436 164.324 291.831 156.029C289.413 143.579 291.53 139.138 300.035 129.683C306.71 122.299 312.571 107.402 320.458 101.32C320.458 101.335 335.902 93.8228 340.52 97.0144Z" fill="white"/>
<path d="M336.852 95.2229H333.559L332.053 91.685C332.55 90.6086 333.65 89.9537 335.865 90.0817L336.852 95.2229Z" fill="#332066"/>
<path d="M301.195 98.55C304.17 102.901 306.353 107.743 307.644 112.852C308.239 115.216 308.638 117.715 307.991 120.063C307.343 122.412 305.52 124.663 305.391 127.214C306.756 127.565 308.191 127.525 309.535 127.101C316.907 125.278 323.662 121.529 329.107 116.238C334.552 110.947 338.491 104.305 340.52 96.9918C334.9 95.795 331.698 89.6301 331.171 83.9092C330.644 78.1884 331.962 72.445 331.578 66.7167L301.195 98.55Z" fill="#F8895D"/>
<path d="M307.991 120.071C307.542 121.151 307.149 122.254 306.816 123.375C306.679 123.882 306.598 124.402 306.575 124.926C306.575 125.385 306.71 125.754 306.846 125.724C306.981 125.694 306.959 125.724 307.034 125.724C307.18 125.731 307.325 125.731 307.471 125.724C307.91 125.686 308.344 125.602 308.767 125.475C309.769 125.174 310.747 124.794 311.69 124.339C315.672 122.334 319.456 119.958 322.99 117.24C326.596 114.576 329.964 111.605 333.055 108.358C336.068 105.076 338.803 101.508 340.49 97.0068C340.63 98.2183 340.614 99.4425 340.445 100.65C340.286 101.878 340.009 103.088 339.616 104.263C338.815 106.613 337.708 108.848 336.324 110.91C333.558 114.975 330.119 118.539 326.154 121.448C324.191 122.916 322.118 124.232 319.954 125.385C317.767 126.564 315.461 127.51 313.076 128.208C311.819 128.574 310.525 128.801 309.219 128.885C308.479 128.935 307.736 128.879 307.011 128.72C306.573 128.622 306.151 128.46 305.761 128.238C305.294 127.966 304.909 127.573 304.646 127.101C304.522 126.863 304.428 126.61 304.367 126.349C304.332 126.12 304.314 125.888 304.314 125.656C304.332 125.259 304.406 124.866 304.533 124.489C304.766 123.862 305.082 123.27 305.475 122.728C306.2 121.742 307.045 120.849 307.991 120.071Z" fill="#7C3AED"/>
<path d="M301.195 98.55C302.542 100.517 303.728 102.589 304.744 104.745C305.964 107.349 316.368 92.2721 315.607 83.9318L301.195 98.55Z" fill="#332066"/>
<path d="M283.975 52.1361C281.975 55.974 280.59 60.1014 279.869 64.3681C279.673 65.156 279.688 65.9818 279.914 66.7618C280.261 67.6952 281.142 68.3124 281.722 69.1329C283.342 71.3911 279.741 79.5057 278.822 81.523C278.28 82.6973 280.329 84.1049 282.92 84.7071C284.028 86.4986 283.214 88.2073 283.553 88.4708C286.747 90.729 285.113 95.5992 286.951 99.0543C288.555 102.065 292.804 102.299 296.126 101.493C302.477 99.9501 309.159 96.2692 312.949 90.872C313.121 90.6254 313.265 90.3603 313.378 90.0816L317.454 80.7402L327.895 69.3286L304.3 44.3904L283.975 52.1361Z" fill="#F8895D"/>
<path d="M293.761 87.0255L287.358 90.7139L285.022 90.7817C285.075 90.0289 284.382 89.6375 284.096 88.8697C287.388 88.7064 290.641 88.0857 293.761 87.0255Z" fill="#332066"/>
<path d="M291.093 88.245C289.036 89.1152 286.845 89.6245 284.614 89.7505C284.494 89.7565 284.375 89.7278 284.271 89.6677C284.166 89.6076 284.082 89.5187 284.027 89.4118L283.748 88.8397L291.779 87.6428L291.093 88.245Z" fill="white"/>
<path d="M294.393 86.5588L291.945 87.2213C290.937 87.5655 289.875 87.7236 288.811 87.6879C287.508 87.5675 286.242 86.875 284.954 87.0782C284.637 87.1559 284.315 87.2113 283.99 87.2438C283.686 87.1934 283.374 87.2114 283.078 87.2965C282.106 87.5525 282.784 88.7644 283.395 89.0203C284.728 89.5698 291.169 88.8999 294.393 86.5588Z" fill="#DB663E"/>
<path d="M286.377 92.5432C288.494 92.227 292.841 87.7783 294.122 86.7245C293.233 87.3568 289.986 88.7945 289.044 89.329C287.342 90.3075 283.552 90.172 283.771 91.1205C284.095 92.7765 285.556 92.6636 286.377 92.5432Z" fill="#ED704F"/>
<path d="M283.514 83.6307C283.332 83.7816 283.129 83.9058 282.911 83.9996C282.677 84.1154 282.42 84.1796 282.158 84.1877C282.042 84.1926 281.927 84.1611 281.83 84.0976C281.733 84.0342 281.658 83.942 281.616 83.834C281.587 83.7674 281.572 83.6957 281.572 83.6232C281.572 83.5507 281.587 83.479 281.616 83.4124C281.658 83.3343 281.708 83.2611 281.766 83.1941C281.964 82.9684 282.227 82.8104 282.52 82.7425C282.8 82.6592 283.098 82.6592 283.378 82.7425C283.596 82.847 283.803 82.9731 283.996 83.1189C284.366 83.3272 284.761 83.4866 285.171 83.5931C284.716 83.7794 284.21 83.8007 283.74 83.6533C283.544 83.5931 283.318 83.4501 283.168 83.4275C283.017 83.3861 282.858 83.3861 282.708 83.4275C282.557 83.4623 282.417 83.5348 282.301 83.6382C282.218 83.706 282.301 83.6909 282.241 83.5856C282.158 83.5856 282.181 83.4802 282.241 83.5856C282.433 83.6105 282.628 83.6105 282.821 83.5856L283.514 83.6307Z" fill="#332066"/>
<path d="M282.535 73.0322C283.201 73.0322 283.741 72.493 283.741 71.8278C283.741 71.1626 283.201 70.6234 282.535 70.6234C281.87 70.6234 281.33 71.1626 281.33 71.8278C281.33 72.493 281.87 73.0322 282.535 73.0322Z" fill="#332066"/>
<path d="M280.607 70.1868C280.899 70.3041 281.198 70.3997 281.504 70.4728C281.783 70.5255 282.069 70.5631 282.378 70.5932C282.731 70.6132 283.077 70.7027 283.395 70.8567C283.591 70.9632 283.74 71.141 283.809 71.3535C283.844 71.5425 283.818 71.7376 283.734 71.9105C283.669 71.7702 283.582 71.6407 283.478 71.5266C283.389 71.4554 283.282 71.411 283.169 71.3987C282.943 71.3987 282.619 71.3987 282.287 71.3385C281.932 71.3023 281.588 71.192 281.278 71.0148C280.961 70.8296 280.722 70.5352 280.607 70.1868Z" fill="#332066"/>
<path d="M284.321 77.8948L280.057 78.7379L283.56 70.5857L282.241 69.3286L287.07 72.2869L284.321 77.8948Z" fill="#F8895D"/>
<path d="M290.016 73.7698C290.852 73.7698 291.53 73.0924 291.53 72.2568C291.53 71.4212 290.852 70.7438 290.016 70.7438C289.18 70.7438 288.502 71.4212 288.502 72.2568C288.502 73.0924 289.18 73.7698 290.016 73.7698Z" fill="#332066"/>
<path d="M295.093 73.0924C294.544 72.7619 293.963 72.4846 293.361 72.2644C292.796 72.0416 292.202 71.9021 291.598 71.8504C291.092 71.8082 290.583 71.8515 290.091 71.9784C289.908 72.0335 289.735 72.1173 289.579 72.2268C289.481 72.2719 289.383 72.3472 289.225 72.4149C289.067 72.4827 288.931 72.6182 288.682 72.7612C288.51 72.5867 288.39 72.3678 288.336 72.1289C288.308 71.891 288.341 71.6499 288.434 71.4289C288.539 71.2083 288.693 71.0151 288.886 70.8643L289.172 70.6385C289.272 70.5823 289.375 70.532 289.481 70.4879C290.25 70.1792 291.104 70.1525 291.892 70.4127C292.596 70.6177 293.264 70.93 293.873 71.3385C294.483 71.7317 294.977 72.2799 295.304 72.9268L295.093 73.0924Z" fill="#332066"/>
<path d="M279.801 66.3854C280.288 66.3488 280.774 66.4619 281.194 66.7095C281.614 66.9571 281.948 67.3274 282.152 67.7705C282.212 67.9511 281.609 68.892 281.3 68.5684C280.788 68.049 280.509 68.2673 279.726 67.4618C279.327 67.1231 279.274 66.4757 279.801 66.3854Z" fill="#FEDAC9"/>
<path d="M294.716 68.8545C296.044 69.0755 297.231 69.8079 298.024 70.8944C297.729 70.0662 297.263 69.3094 296.655 68.6738C296.047 68.0382 295.312 67.538 294.498 67.206C291.537 66.1295 287.213 66.9952 286.06 67.9587C285.992 68.0584 285.946 68.1717 285.926 68.2908C285.906 68.4098 285.911 68.5319 285.943 68.6485C285.974 68.7652 286.031 68.8736 286.108 68.9663C286.186 69.059 286.283 69.1339 286.392 69.1857C286.994 69.2609 290.935 67.9512 294.716 68.8545Z" fill="#FEDAC9"/>
<path d="M334.57 68.576C336.514 64.8123 337.147 60.5442 337.749 56.359C338.042 54.8714 338.093 53.3464 337.9 51.8426C337.52 50.2391 336.82 48.7287 335.843 47.4014C332.318 42.1322 327.669 37.4276 322.012 34.4919C316.354 31.5562 309.627 30.4572 303.464 32.1057C301.883 32.6214 300.276 33.0561 298.65 33.408C295.938 33.837 293.008 33.3327 290.529 34.522C287.727 35.8694 286.295 39.0385 283.983 41.0859C282.544 42.3806 280.713 43.3441 279.696 44.955C278.189 47.3487 278.897 50.4199 279.628 53.1373C279.716 53.6332 279.931 54.0976 280.254 54.4847C280.924 55.1697 282.084 55.0417 282.943 54.6126C283.747 54.0865 284.588 53.6186 285.459 53.2125C287.192 52.648 289.053 53.5287 290.876 53.5136C292.446 53.411 293.967 52.9251 295.305 52.0985C297.497 50.9239 299.566 49.5345 301.483 47.9509C301.106 50.6382 304.896 52.3921 304.896 55.1094C304.896 56.6902 303.57 58.1204 303.773 59.6259C304.044 61.8841 306.862 62.5089 308.745 63.7208C310.953 65.1359 312.128 67.778 312.407 70.375C312.685 72.9719 312.173 75.599 311.653 78.1659C313.506 76.013 313.86 72.9945 314.862 70.3298C315.864 67.6651 318.26 64.9854 321.047 65.5424C323.556 66.0392 324.859 68.8921 325.033 71.4439C325.206 73.9957 322.69 80.4768 331.15 83.9469C331.474 73.2128 333.395 70.8342 334.57 68.576Z" fill="#FEDAC9"/>
<path d="M315.607 69.3813C316.341 67.8054 317.668 66.5826 319.299 65.9789C320.114 65.6969 320.99 65.6418 321.834 65.8194C322.678 65.9971 323.458 66.4009 324.09 66.9876C324.938 67.9444 325.449 69.1529 325.544 70.4276C325.686 72.4844 325.482 74.5503 324.941 76.5399C324.429 78.7981 323.811 81.1692 322.35 82.9984C320.888 84.8275 318.35 86.0093 316.15 85.1964" fill="#F8895D"/>
<path d="M317.694 73.6419C317.949 74.1624 318.056 74.7432 318.003 75.3205C317.874 75.8474 317.415 76.2087 317.114 76.6679C316.812 77.1271 316.76 77.8647 317.257 78.0906C317.754 78.3164 318.123 77.9626 318.394 77.6013C318.606 77.2102 318.905 76.8729 319.268 76.6152C319.538 76.5196 319.815 76.4466 320.097 76.3969C320.467 76.2523 320.783 75.995 320.999 75.6614C321.216 75.3277 321.322 74.9347 321.302 74.5376C321.244 73.7426 320.889 72.9983 320.308 72.4526C320.006 72.1087 319.607 71.8646 319.163 71.7525C317.957 71.5041 317.377 72.6106 317.694 73.6419Z" fill="#332066"/>
<path d="M323.533 68.7716C324.202 69.7343 324.555 70.8813 324.542 72.0535C324.61 74.2435 323.971 76.3972 322.719 78.1959C322.678 78.1416 322.652 78.0779 322.643 78.0107C322.634 77.9436 322.642 77.8752 322.666 77.812C322.915 76.5323 323.269 75.2752 323.42 73.9805C323.622 72.6859 323.455 71.3606 322.937 70.1566C322.366 69.2066 321.675 68.3338 320.881 67.5597C321.853 67.3113 322.968 68.0113 323.533 68.7716Z" fill="#332066"/>
<path d="M295.155 221.886H272.6C274.498 179.198 274.513 137.67 297.679 126.973L293.859 153.071L295.155 221.886Z" fill="#D0CFEC"/>
<path d="M295.153 221.886H285.902L288.637 193.403L289.277 162.156L295.153 221.886Z" fill="#332066"/>
<path d="M305.491 224.988C299.125 224.988 298.778 224.792 292.428 224.988C294.371 213.696 293.934 191.656 291.456 180.433C289.64 172.153 288.578 163.12 286.936 154.84C284.525 142.397 294.786 129.999 303.283 120.628L301.166 113.853C303.227 113.004 305.177 111.91 306.975 110.594C309.114 116.405 309.084 115.509 307.962 120.078C307.577 122.141 305.89 124.836 306.673 125.829C290.642 158.671 305.491 212.906 305.491 224.988Z" fill="#D0CFEC"/>
<path d="M303.298 121.885C303.705 122.178 304.052 122.449 304.383 122.698C304.714 122.946 305.046 123.165 305.37 123.375L304.345 123.511C304.692 122.969 305.001 122.427 305.332 121.87C305.664 121.313 305.988 120.733 306.44 120.086C306.719 120.807 306.759 121.599 306.553 122.344C306.37 123.091 306.011 123.782 305.505 124.361L304.986 124.964L304.481 124.497C304.111 124.164 303.81 123.762 303.592 123.315C303.376 122.87 303.275 122.379 303.298 121.885Z" fill="#332066"/>
<path d="M334.909 90.059C338.111 89.5246 341.915 92.7915 342.97 96.2315C343.207 96.9748 343.291 97.7582 343.218 98.5349C348.01 102.411 351.799 106.567 355.709 109.547C360.267 113.033 364.93 116.623 367.973 121.486C370.489 125.506 371.74 130.165 372.908 134.764C376.14 147.561 378.814 160.817 377.586 173.989C376.388 186.891 376.599 211.483 373.367 224.032L315.608 224.988C317.552 213.696 313.649 156.488 315.608 143.948C315.849 142.442 317.25 127.47 317.25 127.47L313.416 126.311C312.581 123.592 312.172 120.761 312.203 117.918C326.441 114.147 336.446 96.9165 334.909 90.059Z" fill="#D0CFEC"/>
<path d="M376.305 197.912L319.766 192.575L352.958 183.722L345.884 157.497L376.305 197.912Z" fill="#332066"/>
<path d="M341.463 103.036C341.005 105.951 339.982 108.749 338.45 111.271C336.938 113.815 335.088 116.142 332.95 118.189C330.828 120.215 328.492 122.005 325.982 123.526C323.496 125.085 320.836 126.348 318.057 127.29C320.565 125.784 323.006 124.279 325.334 122.593C327.655 120.923 329.856 119.092 331.918 117.113C333.98 115.148 335.842 112.985 337.478 110.654C339.118 108.29 340.457 105.731 341.463 103.036Z" fill="#332066"/>
<path d="M276.757 201.728L264.139 198.913C266.655 196.398 273.254 193.403 273.254 193.403C273.254 193.403 281.217 193.478 284.893 194.599L276.757 201.728Z" fill="#F8895D"/>
<path d="M276.705 200.689L266.316 199.936C266.316 199.936 271.741 196.368 273.85 195.992C275.959 195.616 281.383 197.144 281.383 197.144L276.705 200.689Z" fill="#332066"/>
<path d="M303.299 219.929H287.742L281.037 221.886H268.291L262.264 220.08C259.77 218.8 258.602 216.384 260.395 215.225C257.872 213.922 257.661 209.632 259.311 209.346C257.932 206.719 258 204.257 259.883 203.798C259.424 200.576 260.162 198.792 262.987 198.461L270.129 198.318L284.902 194.599L289.678 197.121L303.306 195.269L303.299 219.929Z" fill="#F8895D"/>
<path d="M259.875 203.798C262.225 205.303 265.096 205.665 268.162 205.499" stroke="#332066" stroke-width="0.75" stroke-miterlimit="10"/>
<path d="M259.303 209.338C261.579 210.876 264.334 211.542 267.062 211.212" stroke="#332066" stroke-width="0.75" stroke-miterlimit="10"/>
<path d="M260.387 215.224C262.428 216.599 264.93 217.111 267.348 216.647" stroke="#332066" stroke-width="0.75" stroke-miterlimit="10"/>
<path d="M338.036 131.595C345.049 165.664 363.047 189.33 363.047 189.33C357.133 190.678 305.792 193.29 299.766 193.771C305.491 200.29 303.261 213.734 300.24 220.704C306.538 220.298 382.355 220.704 382.355 220.704C382.355 220.704 394.522 213.689 397.995 211.092C407.344 204.069 370.912 127.786 370.912 127.786" fill="#D0CFEC"/>
<path d="M390.859 221.886H15.5176V235.722H390.859V221.886Z" fill="#F6AE2D"/>
<path d="M236.438 221.886H128.559L130.894 219.289C131.263 218.875 131.716 218.544 132.222 218.317C132.728 218.09 133.277 217.972 133.832 217.972H236.438V221.886Z" fill="#FEDAC9"/>
<path d="M235.964 221.886H158.09L178.792 168.442C179.105 167.623 179.661 166.92 180.386 166.427C181.11 165.933 181.968 165.672 182.845 165.679H256.764C257.035 165.678 257.302 165.742 257.542 165.867C257.783 165.992 257.99 166.173 258.145 166.395C258.3 166.617 258.398 166.874 258.432 167.142C258.465 167.411 258.433 167.684 258.338 167.937L240.024 219.033C239.723 219.869 239.172 220.591 238.445 221.101C237.719 221.612 236.852 221.886 235.964 221.886Z" fill="#FEDAC9"/>
<path d="M212.17 195.284C213.045 192.842 212.54 190.428 211.044 189.893C209.547 189.358 207.625 190.905 206.751 193.348C205.877 195.79 206.381 198.204 207.878 198.739C209.374 199.274 211.296 197.727 212.17 195.284Z" fill="white"/>
</svg>
