<svg width="362" height="254" viewBox="0 0 362 254" fill="none" xmlns="http://www.w3.org/2000/svg">
<path d="M210.732 48.2372C225.686 57.669 244.535 57.5636 262.216 57.1496C280.809 56.7206 299.597 56.2614 317.572 51.5041C325.603 49.3814 333.709 46.2349 339.329 40.0926C344.949 33.9502 347.337 24.285 343.035 17.1867C337.235 7.61939 322.22 7.69467 313.482 14.6801C304.743 21.6655 300.968 33.0469 298.369 43.9391C292.832 67.3869 291.499 93.7328 304.637 113.944C314.431 128.946 331.667 139.921 334.96 157.505C337.89 173.124 327.697 189.203 313.595 196.549C299.492 203.896 282.489 203.746 267.037 199.974C251.586 196.203 237.197 189.097 222.59 182.857C200.81 173.576 178.278 166.161 155.542 159.65C132.527 153.071 109.203 147.411 85.4801 144.136C73.4867 142.488 61.0188 141.487 49.5076 145.213C41.731 147.74 34.7747 152.305 29.363 158.431C26.5455 161.63 24.1649 166.455 26.6585 169.902C27.2329 170.624 27.946 171.224 28.756 171.666C29.5659 172.108 30.4562 172.384 31.3745 172.477C37.4013 173.29 42.961 167.96 44.4752 162.029C45.9894 156.097 44.4752 149.872 42.7726 143.963C41.2057 138.558 39.375 133.033 35.6836 128.78C32.3463 124.949 27.7734 122.465 23.4567 119.747C15.9232 115.065 8.72875 109.367 4.29151 101.682C-0.14572 93.9962 -1.36615 84.0224 2.99575 76.2993C9.02255 65.6179 23.0725 62.6446 35.3371 62.9231C52.7997 63.3146 69.8631 67.9891 87.2052 70.0666C104.547 72.1442 123.215 71.3162 137.861 61.7865" stroke="#7C3AED" stroke-miterlimit="10" stroke-dasharray="12 12"/>
<path d="M25.0832 134.004C27.047 134.004 28.639 132.414 28.639 130.451C28.639 128.489 27.047 126.898 25.0832 126.898C23.1193 126.898 21.5273 128.489 21.5273 130.451C21.5273 132.414 23.1193 134.004 25.0832 134.004Z" fill="#F6AE2D"/>
<path d="M309.474 165.74C311.438 165.74 313.03 164.149 313.03 162.187C313.03 160.225 311.438 158.634 309.474 158.634C307.51 158.634 305.918 160.225 305.918 162.187C305.918 164.149 307.51 165.74 309.474 165.74Z" fill="#7C3AED"/>
<path d="M71.1593 163.03C73.1232 163.03 74.7151 161.439 74.7151 159.477C74.7151 157.515 73.1232 155.924 71.1593 155.924C69.1955 155.924 67.6035 157.515 67.6035 159.477C67.6035 161.439 69.1955 163.03 71.1593 163.03Z" fill="#7BE0AD"/>
<path d="M114.499 17.1565C116.463 17.1565 118.055 15.5658 118.055 13.6036C118.055 11.6414 116.463 10.0507 114.499 10.0507C112.535 10.0507 110.943 11.6414 110.943 13.6036C110.943 15.5658 112.535 17.1565 114.499 17.1565Z" fill="#D0CFEC"/>
<path d="M11.7882 90.5336C13.7521 90.5336 15.344 88.9429 15.344 86.9807C15.344 85.0184 13.7521 83.4277 11.7882 83.4277C9.82441 83.4277 8.23242 85.0184 8.23242 86.9807C8.23242 88.9429 9.82441 90.5336 11.7882 90.5336Z" fill="#FEDAC9"/>
<path d="M236.587 8.44741C238.551 8.44741 240.143 6.85671 240.143 4.89448C240.143 2.93225 238.551 1.34155 236.587 1.34155C234.623 1.34155 233.031 2.93225 233.031 4.89448C233.031 6.85671 234.623 8.44741 236.587 8.44741Z" fill="#F6AE2D"/>
<path d="M278.187 79.4683C280.15 79.4683 281.742 77.8776 281.742 75.9154C281.742 73.9531 280.15 72.3624 278.187 72.3624C276.223 72.3624 274.631 73.9531 274.631 75.9154C274.631 77.8776 276.223 79.4683 278.187 79.4683Z" fill="#D0CFEC"/>
<path d="M358.374 131.023C360.338 131.023 361.93 129.433 361.93 127.47C361.93 125.508 360.338 123.917 358.374 123.917C356.41 123.917 354.818 125.508 354.818 127.47C354.818 129.433 356.41 131.023 358.374 131.023Z" fill="#FEDAC9"/>
<path d="M320.239 37.0138C323.234 37.0138 325.663 34.5873 325.663 31.594C325.663 28.6008 323.234 26.1743 320.239 26.1743C317.243 26.1743 314.814 28.6008 314.814 31.594C314.814 34.5873 317.243 37.0138 320.239 37.0138Z" fill="#7BE0AD"/>
<path d="M231.162 229.873C234.158 229.873 236.587 227.447 236.587 224.453C236.587 221.46 234.158 219.034 231.162 219.034C228.167 219.034 225.738 221.46 225.738 224.453C225.738 227.447 228.167 229.873 231.162 229.873Z" fill="#7BE0AD"/>
<path d="M15.344 34.7857C18.3397 34.7857 20.7682 32.3592 20.7682 29.366C20.7682 26.3728 18.3397 23.9463 15.344 23.9463C12.3484 23.9463 9.91992 26.3728 9.91992 29.366C9.91992 32.3592 12.3484 34.7857 15.344 34.7857Z" fill="#7BE0AD"/>
<path d="M80.1468 84.888C83.1424 84.888 85.5709 82.4615 85.5709 79.4683C85.5709 76.4751 83.1424 74.0486 80.1468 74.0486C77.1511 74.0486 74.7227 76.4751 74.7227 79.4683C74.7227 82.4615 77.1511 84.888 80.1468 84.888Z" fill="#7C3AED"/>
<path d="M345.174 189.15C348.17 189.15 350.598 186.723 350.598 183.73C350.598 180.737 348.17 178.31 345.174 178.31C342.178 178.31 339.75 180.737 339.75 183.73C339.75 186.723 342.178 189.15 345.174 189.15Z" fill="#F6AE2D"/>
<path d="M18.8987 204.626C21.8944 204.626 24.3229 202.2 24.3229 199.207C24.3229 196.213 21.8944 193.787 18.8987 193.787C15.9031 193.787 13.4746 196.213 13.4746 199.207C13.4746 202.2 15.9031 204.626 18.8987 204.626Z" fill="#7C3AED"/>
<path d="M38.5234 48.6888C41.2244 46.7089 43.1355 43.8365 43.9174 40.5818C44.0653 40.1688 44.1164 39.7273 44.0668 39.2915C44.0172 38.8556 43.8681 38.4369 43.6312 38.0676C42.5237 36.7729 40.1582 38.3913 40.3842 40.0775C40.6102 41.7636 42.3053 42.8626 43.9325 43.3745C46.7068 44.2322 49.6952 44.0829 52.37 42.9529" stroke="#7C3AED" stroke-width="3" stroke-miterlimit="10"/>
<path d="M327.193 104.497C330.523 104.874 333.878 104.052 336.655 102.178C337.046 101.977 337.385 101.688 337.647 101.334C337.908 100.98 338.084 100.571 338.162 100.139C338.23 98.4373 335.39 98.0233 334.395 99.4234C333.401 100.824 333.928 102.773 334.78 104.248C336.241 106.754 338.541 108.663 341.273 109.638" stroke="#7C3AED" stroke-width="3" stroke-miterlimit="10"/>
<path d="M55.0523 195.33C54.9466 194.731 54.9644 194.117 55.1047 193.526C55.2449 192.934 55.5046 192.377 55.8679 191.889C56.2312 191.402 56.6904 190.993 57.2173 190.689C57.7442 190.385 58.3277 190.192 58.9321 190.121C59.6998 190.166 60.4696 190.166 61.2373 190.121C63.7761 189.692 64.6952 186.583 65.0869 184.046" stroke="#FEDAC9" stroke-width="3" stroke-miterlimit="10"/>
<path d="M269.659 35.019C269.552 34.4206 269.569 33.8066 269.709 33.215C269.849 32.6234 270.109 32.0667 270.472 31.5793C270.836 31.0919 271.295 30.6841 271.823 30.3811C272.35 30.0781 272.934 29.8863 273.539 29.8176C274.292 29.7649 275.083 29.923 275.844 29.8176C278.383 29.3885 279.302 26.2797 279.694 23.7355" stroke="#FEDAC9" stroke-width="3" stroke-miterlimit="10"/>
<path d="M285.54 223.994C287.316 220.984 288.248 217.552 288.237 214.058C288.281 213.467 288.161 212.876 287.891 212.349C287.062 210.972 284.629 211.551 284.124 213.102C283.619 214.653 284.674 216.324 286.105 217.054C287.597 217.678 289.234 217.869 290.829 217.603C294.804 217.225 298.684 216.16 302.295 214.457" stroke="#FEDAC9" stroke-width="3" stroke-miterlimit="10"/>
<path d="M284.123 140.29C284.311 138.724 284.876 136.767 286.383 136.526C287.709 136.345 288.756 137.617 290.029 138.031C292.237 138.784 294.693 136.067 293.751 133.944" stroke="#7BE0AD" stroke-width="3" stroke-miterlimit="10"/>
<path d="M4.95508 160.049C6.46178 159.492 8.42049 159.078 9.32451 160.365C10.0779 161.464 9.44505 162.977 9.65598 164.302C10.0101 166.56 13.5357 167.539 14.9897 165.732" stroke="#7BE0AD" stroke-width="3" stroke-miterlimit="10"/>
<path d="M76.7031 46.1972C77.5112 45.5649 78.5137 45.2321 79.5398 45.2554C80.5659 45.2788 81.5522 45.6568 82.3307 46.3252C83.2121 47.1231 83.7319 48.2597 84.5907 49.0877C85.3458 49.7722 86.3034 50.1924 87.3187 50.2847C88.3341 50.3771 89.3519 50.1366 90.2182 49.5996" stroke="#7BE0AD" stroke-width="3" stroke-miterlimit="10"/>
<path d="M41.3633 116.435C44.3064 118.172 47.6012 119.229 51.0062 119.529C52.6711 119.68 54.9763 118.98 54.7277 117.331C54.5092 115.893 52.2191 115.698 51.315 116.842C50.411 117.986 50.6069 119.642 51.1267 121.004C51.7336 122.574 52.6837 123.987 53.9076 125.143C55.1315 126.298 56.5982 127.165 58.2007 127.681" stroke="#D0CFEC" stroke-width="3" stroke-miterlimit="10"/>
<path d="M137.023 199.207C140.85 201.559 143.781 205.119 145.355 209.323C146.591 212.658 146.945 216.339 148.715 219.425C151.676 224.581 156.693 232.38 162.223 234.585C167.753 236.791 173.712 241.262 175.271 249.678" stroke="#7C3AED" stroke-miterlimit="10"/>
<path d="M212.593 197.34C213.346 200.652 211.237 203.911 208.894 206.373C206.551 208.834 203.786 211.047 202.505 214.171C201.851 216.15 201.52 218.222 201.526 220.306C201.3 224.182 200.984 228.225 198.95 231.537C196.855 234.969 193.232 237.114 190.309 239.885C187.329 242.723 185.069 246.229 183.717 250.114" stroke="#7C3AED" stroke-miterlimit="10"/>
<path d="M173.713 224.453C174.843 225.68 176.922 231.589 176.643 233.147C176.297 235.044 174.775 236.753 175.137 238.65C175.589 241.194 178.971 242.113 180.034 244.469C181.397 247.48 179.446 253.118 179.446 253.118" stroke="#7C3AED" stroke-miterlimit="10"/>
<path d="M109.814 88.7646C98.5134 68.1245 102.808 44.067 119.366 35.0266C135.925 25.9862 158.488 35.4029 169.773 56.043C179.966 74.6884 177.457 96.1264 164.665 106.755L168.937 110.112C167.43 111.889 165.923 110.037 164.349 110.737C162.465 111.573 163.422 113.266 161.855 114.011C160.921 114.456 160.085 113.545 158.676 114.124C157.832 114.471 157.501 116.556 155.798 117.286L155.286 111.874C139.42 116.887 120.014 107.41 109.814 88.7646Z" fill="#7BE0AD"/>
<path d="M251.662 93.793C262.962 73.1529 258.668 49.0953 242.109 40.0624C225.55 31.0296 202.988 40.4313 191.702 61.0714C181.51 79.7243 184.018 101.162 196.818 111.791L192.539 115.148C194.045 116.917 195.552 115.065 197.127 115.765C199.01 116.601 198.053 118.295 199.62 119.047C200.554 119.491 201.391 118.581 202.799 119.16C203.643 119.507 203.975 121.592 205.677 122.314L206.189 116.902C222.055 121.915 241.454 112.438 251.662 93.793Z" fill="#FEDAC9"/>
<path d="M150.08 43.4648C150.08 19.9492 165.373 0.882324 184.237 0.882324C203.101 0.882324 218.394 19.9492 218.394 43.4648C218.394 64.7146 205.903 82.3287 189.578 85.5278L191.725 90.526C189.533 91.3465 189.119 89.0205 187.394 88.87C185.344 88.7044 185.367 90.6465 183.627 90.5561C182.595 90.4959 182.293 89.2991 180.787 89.1259C179.875 89.0281 178.587 90.6992 176.749 90.526L178.888 85.5278C162.571 82.3287 150.08 64.7221 150.08 43.4648Z" fill="#7C3AED"/>
<path d="M210.838 103.714C226.305 85.987 250.374 81.6587 264.59 94.0413C278.806 106.424 277.804 130.843 262.33 148.57C248.355 164.588 227.359 169.646 212.948 161.366L211.32 166.53C209.128 165.71 210.349 163.685 209.151 162.443C207.712 160.937 206.454 162.443 205.203 161.238C204.45 160.486 205.03 159.417 203.998 158.303C203.38 157.625 201.308 158.039 200.035 156.699L204.94 154.343C194.694 141.208 196.864 119.732 210.838 103.714Z" fill="#F6AE2D"/>
<path d="M140.248 107.922C124.781 90.1948 100.712 85.8665 86.4961 98.2491C72.2804 110.632 73.2824 135.05 88.7562 152.777C102.731 168.796 123.727 173.854 138.138 165.574L139.811 170.745C142.003 169.932 140.783 167.9 141.988 166.658C143.419 165.153 144.677 166.658 145.928 165.461C146.681 164.708 146.101 163.64 147.133 162.518C147.751 161.848 149.823 162.254 151.096 160.915L146.192 158.559C156.392 145.438 154.222 123.963 140.248 107.922Z" fill="#FEDAC9"/>
<path d="M207.552 104.444C201.42 81.7341 181.69 67.3116 163.474 72.2195C145.258 77.1273 135.464 99.5213 141.627 122.224C147.171 142.744 163.82 156.496 180.417 155.344L179.663 160.719C181.991 160.952 181.788 158.589 183.43 158.002C185.366 157.302 185.848 159.183 187.498 158.649C188.485 158.325 188.462 157.083 189.879 156.534C190.73 156.195 192.41 157.475 194.143 156.827L190.768 152.559C205.654 145.22 213.119 124.964 207.552 104.444Z" fill="#D0CFEC"/>
<path d="M192.425 153.402C202.867 132.326 225.038 122.013 241.943 130.376C258.848 138.739 264.092 162.608 253.643 183.685C244.211 202.729 225.196 212.974 209.142 208.608L208.848 214.035C206.521 213.802 207.183 211.529 205.707 210.633C203.944 209.572 203.1 211.326 201.586 210.475C200.69 209.971 200.953 208.759 199.673 207.938C198.919 207.441 197.006 208.367 195.431 207.396L199.567 203.866C186.361 193.734 182.986 172.447 192.425 153.402Z" fill="#7C3AED"/>
<path d="M161.297 152.221C153.176 130.143 132.241 117.519 114.529 124.023C96.8181 130.527 89.0586 153.696 97.2023 175.766C104.54 195.714 122.349 207.938 138.772 205.311L138.486 210.738C140.829 210.738 140.414 208.428 141.981 207.728C143.842 206.862 144.49 208.699 146.087 208.014C147.036 207.607 146.901 206.373 148.264 205.695C149.086 205.289 150.871 206.41 152.536 205.612L148.769 201.66C162.992 192.981 168.635 172.168 161.297 152.221Z" fill="#F6AE2D"/>
<path d="M141.115 187.351C141.115 163.828 156.408 144.768 175.272 144.768C194.136 144.768 209.429 163.828 209.429 187.351C209.429 208.601 196.938 226.215 180.613 229.414L182.753 234.405C180.568 235.233 180.154 232.899 178.429 232.756C176.38 232.583 176.402 234.525 174.662 234.435C173.63 234.382 173.328 233.178 171.814 233.012C170.91 232.914 169.614 234.585 167.776 234.405L169.923 229.414C153.598 226.215 141.115 208.601 141.115 187.351Z" fill="#7BE0AD"/>
<path opacity="0.2" d="M250.29 53.5816C253.472 57.2968 255.187 62.0456 255.111 66.9352C255.036 69.0278 254.516 71.2183 253.047 72.7087C252.196 73.5366 251.137 74.1191 249.981 74.3949C248.774 74.6972 247.511 74.7021 246.302 74.4092C245.092 74.1162 243.972 73.5341 243.038 72.7129C242.103 71.8917 241.382 70.856 240.937 69.6949C240.492 68.5337 240.335 67.2819 240.481 66.047C240.735 64.9721 240.849 63.869 240.82 62.765C240.527 60.7101 238.56 59.4003 237.054 57.9927C235.14 56.2313 233.656 53.8451 233.596 51.218C233.325 39.5054 247.149 49.8029 250.29 53.5816Z" fill="white"/>
<path opacity="0.2" d="M258.027 116.044C258.178 119.702 258.457 123.677 260.912 126.394C261.472 127.063 262.204 127.565 263.029 127.847C264.943 128.426 266.977 127.245 268.303 125.739C270.314 123.288 271.397 120.207 271.361 117.038C271.285 113.895 270.594 110.799 269.327 107.922C268.288 105.363 266.728 102.653 264.092 101.832C263.166 101.57 262.204 101.46 261.244 101.509C257.824 101.561 256.242 102.397 256.649 105.438C257.123 108.9 257.839 112.325 258.027 116.044Z" fill="white"/>
<path opacity="0.1" d="M252 150.331C250.78 148.314 248.889 146.567 246.561 146.138C244.233 145.709 241.551 147.034 240.979 149.322C240.037 153.086 244.708 155.984 245.258 159.816C245.627 162.33 244.158 164.686 243.05 166.974C241.679 169.812 240.105 175.171 243.231 177.55C246.357 179.929 249.002 176.398 250.365 173.892C253.921 167.268 256.083 157.136 252 150.331Z" fill="white"/>
<path opacity="0.2" d="M187.966 152.19C191.715 154.013 194.882 156.844 197.111 160.365C198.197 162.052 198.762 164.02 198.739 166.026C198.714 167.024 198.427 167.999 197.907 168.852C197.388 169.705 196.654 170.407 195.778 170.888C193.149 172.168 189.947 170.678 187.905 168.578C185.864 166.477 184.478 163.805 182.316 161.803C180.59 160.237 178.458 159.198 176.537 157.889C173.848 156.052 169.042 149.443 174.413 147.727C177.698 146.695 185.141 150.738 187.966 152.19Z" fill="white"/>
<path opacity="0.2" d="M137.182 129.525C139.713 130.76 142.222 132.333 143.683 134.734C145.145 137.136 145.258 140.561 143.269 142.563C142.363 143.422 141.218 143.986 139.984 144.181C138.822 144.377 137.631 144.314 136.495 143.998C135.36 143.682 134.308 143.12 133.415 142.352C131.69 140.847 130.59 138.588 128.495 137.625C126.695 136.827 124.623 137.233 122.657 137.143C117.105 136.887 109.097 129.104 117.029 125.98C123.101 123.586 131.78 126.898 137.182 129.525Z" fill="white"/>
<path opacity="0.2" d="M116.186 98.5728C117.97 99.2841 119.598 100.338 120.977 101.674C121.338 102.001 121.599 102.424 121.73 102.894C121.911 103.865 121.098 104.738 120.224 105.212C118.611 106.1 116.69 106.198 114.852 106.191C110.093 106.187 105.349 105.644 100.712 104.572C96.1917 103.518 92.7263 96.4425 98.6778 94.907C103.77 93.6198 111.635 96.5329 116.186 98.5728Z" fill="white"/>
<path opacity="0.2" d="M128.271 45.9564C131.383 45.5714 134.381 44.5462 137.077 42.9454C137.848 42.5628 138.526 42.0184 139.066 41.3496C140.573 39.2871 139.066 36.1783 136.761 35.1019C134.456 34.0255 131.766 34.4169 129.28 34.9363C126.923 35.32 124.656 36.1312 122.59 37.33C120.82 38.4742 117.792 41.726 119.155 43.9692C120.519 46.2123 126.191 46.1973 128.271 45.9564Z" fill="white"/>
<path opacity="0.1" d="M197.887 22.7946C198.514 23.2711 199.235 23.6076 200.003 23.7816C200.771 23.9557 201.568 23.963 202.339 23.8033C203.146 23.5586 203.895 23.1513 204.539 22.6064C205.963 21.4623 207.198 19.7611 206.919 17.9545C206.681 16.9436 206.2 16.0059 205.518 15.2221C204.172 13.4054 202.756 11.649 201.269 9.95288C198.828 7.13011 186.3 -1.5565 185.6 6.85159C185.389 9.47112 188.078 12.4444 189.705 14.1833C192.229 16.9007 194.828 20.6568 197.887 22.7946Z" fill="white"/>
<path opacity="0.2" d="M175.37 88.7722C177.133 89.6378 178.836 90.6992 180.764 91.068C183.476 91.5723 186.249 90.6239 188.69 89.3593C189.136 89.1776 189.52 88.872 189.797 88.4786C189.998 88.0571 190.066 87.5847 189.993 87.1237C189.624 82.7804 186.181 79.1521 182.173 77.4434C178.165 75.7347 173.08 73.6797 169.306 75.825C167.046 77.1122 165.682 82.419 167.174 85.016C168.538 87.3871 173.065 87.6506 175.37 88.7722Z" fill="white"/>
<path d="M162.479 39.3774L160.091 38.9107C160.122 38.7288 160.122 38.5431 160.091 38.3612C160.052 38.1957 159.981 38.0396 159.88 37.9021C159.773 37.7577 159.637 37.6372 159.481 37.5483C159.301 37.4436 159.105 37.3674 158.901 37.3224C158.558 37.2303 158.195 37.2491 157.863 37.3763C157.531 37.5034 157.249 37.7323 157.055 38.03C156.573 38.7715 156.368 39.659 156.475 40.5366C156.52 40.8842 156.679 41.2071 156.927 41.455C157.193 41.7001 157.522 41.8668 157.876 41.9367C158.079 41.98 158.287 41.9952 158.494 41.9819C158.671 41.9688 158.844 41.9255 159.007 41.8539C159.156 41.7803 159.289 41.678 159.398 41.5528C159.516 41.4234 159.608 41.2726 159.669 41.1087C160.476 41.2818 161.289 41.4399 162.103 41.598C161.999 41.9688 161.825 42.3164 161.59 42.6217C161.319 42.9667 160.987 43.2599 160.611 43.4874C160.178 43.7417 159.7 43.908 159.202 43.9767C158.599 44.0605 157.986 44.0299 157.394 43.8863C156.616 43.7352 155.888 43.3909 155.277 42.8852C154.694 42.4215 154.27 41.7873 154.065 41.0711C153.838 40.2688 153.838 39.4195 154.065 38.6172C154.252 37.8033 154.647 37.0515 155.21 36.4342C155.721 35.9109 156.368 35.5407 157.078 35.3653C157.791 35.1917 158.535 35.1917 159.248 35.3653C159.749 35.4711 160.231 35.6512 160.679 35.8998C161.085 36.1186 161.445 36.4124 161.741 36.7654C162.02 37.1047 162.227 37.4963 162.351 37.9171C162.487 38.3912 162.531 38.8869 162.479 39.3774Z" fill="white"/>
<path d="M165.954 45.4445C165.289 45.3651 164.655 45.1219 164.108 44.7369C163.65 44.404 163.302 43.943 163.106 43.4121C162.908 42.8437 162.869 42.2321 162.993 41.6431C163.084 41.0503 163.325 40.4906 163.694 40.0172C164.049 39.5836 164.519 39.2577 165.05 39.0763C165.655 38.8827 166.299 38.8388 166.925 38.9483C167.559 39.0202 168.165 39.2478 168.688 39.6107C169.145 39.9431 169.496 40.4007 169.698 40.928C169.906 41.4895 169.977 42.0925 169.905 42.6869C169.833 43.2812 169.62 43.8498 169.283 44.3455C168.94 44.8064 168.464 45.1527 167.92 45.3391C167.283 45.534 166.608 45.5701 165.954 45.4445ZM166.217 43.7659C166.413 43.8045 166.616 43.7639 166.782 43.653C166.968 43.5278 167.114 43.353 167.204 43.1486C167.33 42.8851 167.411 42.6028 167.445 42.3131C167.491 42.0263 167.491 41.7342 167.445 41.4474C167.41 41.2276 167.319 41.0203 167.182 40.8452C167.059 40.6954 166.884 40.5984 166.692 40.5743C166.491 40.5408 166.285 40.5809 166.112 40.6872C165.924 40.8086 165.775 40.9809 165.682 41.184C165.552 41.4465 165.465 41.7288 165.426 42.0195C165.377 42.306 165.377 42.5987 165.426 42.8852C165.459 43.1094 165.553 43.3204 165.698 43.4949C165.83 43.6505 166.015 43.7523 166.217 43.7809V43.7659Z" fill="white"/>
<path d="M173.336 42.5992C173.223 43.7885 173.117 44.9854 173.012 46.1747C172.183 46.0994 171.362 46.0166 170.533 45.9263L171.234 39.5807C171.987 39.6635 172.741 39.7388 173.494 39.8065L173.381 41.0184H173.449C173.624 40.6584 173.909 40.3632 174.262 40.1754C174.655 39.9898 175.088 39.9063 175.521 39.9326C175.954 39.9589 176.374 40.0942 176.741 40.3259C177.069 40.5499 177.33 40.8597 177.494 41.2217C177.673 41.6126 177.748 42.0429 177.713 42.4712C177.637 43.8261 177.57 45.1811 177.494 46.536C176.665 46.4908 175.837 46.4381 175.016 46.3779C175.099 45.1811 175.189 43.9917 175.279 42.7949C175.314 42.5281 175.244 42.2583 175.083 42.0421C175.002 41.9377 174.9 41.8515 174.783 41.7892C174.666 41.727 174.538 41.69 174.405 41.6808C174.228 41.6601 174.048 41.6888 173.886 41.7636C173.734 41.8302 173.605 41.9402 173.516 42.0798C173.414 42.2351 173.352 42.4137 173.336 42.5992Z" fill="white"/>
<path d="M181.999 49.2082C181.382 49.2141 180.769 49.107 180.191 48.8921C179.752 48.7465 179.359 48.4867 179.053 48.1393C178.798 47.8259 178.652 47.4371 178.639 47.0328L181.042 47.1156C181.055 47.2443 181.117 47.3631 181.216 47.4468C181.32 47.5403 181.447 47.6052 181.585 47.635C181.752 47.6785 181.924 47.7012 182.097 47.7027C182.38 47.72 182.662 47.649 182.903 47.4995C183.015 47.4105 183.103 47.2952 183.16 47.1638C183.216 47.0325 183.239 46.8892 183.227 46.7468C183.227 46.3854 183.227 45.994 183.227 45.6703H183.159C183.068 45.8825 182.926 46.0688 182.745 46.2123C182.544 46.3693 182.313 46.4844 182.067 46.551C181.787 46.6269 181.498 46.6599 181.208 46.6489C180.736 46.6426 180.273 46.5211 179.859 46.2951C179.434 46.0299 179.106 45.6336 178.925 45.166C178.684 44.5961 178.586 43.9759 178.639 43.3594C178.644 42.7122 178.801 42.0752 179.099 41.5002C179.327 41.0694 179.675 40.7138 180.101 40.4764C180.485 40.2711 180.915 40.1675 181.351 40.1753C181.644 40.176 181.934 40.2375 182.202 40.356C182.433 40.4652 182.641 40.6186 182.813 40.8076C182.973 40.9803 183.098 41.1822 183.182 41.4023H183.234C183.234 41.0335 183.234 40.6496 183.234 40.2883H185.6L185.668 46.6564C185.69 47.1528 185.535 47.6409 185.231 48.0339C184.893 48.4407 184.446 48.7435 183.943 48.9071C183.318 49.1223 182.66 49.2242 181.999 49.2082ZM182.157 44.9703C182.364 44.9813 182.568 44.923 182.737 44.8047C182.91 44.6772 183.041 44.5018 183.114 44.3004C183.295 43.7786 183.295 43.2112 183.114 42.6895C183.046 42.4871 182.924 42.3074 182.76 42.1701C182.598 42.0459 182.399 41.9797 182.195 41.9819C181.993 41.972 181.794 42.0303 181.63 42.1475C181.462 42.2808 181.334 42.4579 181.261 42.6594C181.165 42.9198 181.117 43.195 181.118 43.4723C181.102 43.745 181.138 44.0183 181.223 44.2778C181.288 44.4778 181.408 44.6554 181.57 44.7896C181.742 44.908 181.949 44.9638 182.157 44.9477V44.9703Z" fill="white"/>
<path d="M186.942 46.6488C186.897 44.5261 186.849 42.3984 186.799 40.2656C187.552 40.2656 188.306 40.2279 189.059 40.1978C189.059 40.6043 189.097 41.0033 189.112 41.4098H189.179C189.244 41.0262 189.429 40.673 189.707 40.4011C189.957 40.1799 190.277 40.0522 190.611 40.0398C190.713 40.0286 190.817 40.0286 190.92 40.0398C191.019 40.0474 191.117 40.0625 191.213 40.0849L191.326 42.0421C191.181 42.0068 191.032 41.9866 190.882 41.9818C190.734 41.9709 190.585 41.9709 190.437 41.9818C190.217 41.9889 190.002 42.051 189.812 42.1625C189.632 42.2673 189.486 42.4214 189.39 42.6066C189.29 42.8044 189.243 43.025 189.255 43.2464L189.39 46.5735C188.599 46.6037 187.771 46.6338 186.942 46.6488Z" fill="white"/>
<path d="M194.362 46.3703C193.964 46.4115 193.562 46.3731 193.179 46.2574C192.85 46.1622 192.558 45.9677 192.343 45.7004C192.125 45.4029 192.004 45.0454 191.996 44.6767C191.969 44.3673 192.012 44.0556 192.124 43.7658C192.232 43.5152 192.4 43.2953 192.614 43.126C192.842 42.9474 193.096 42.8052 193.368 42.7045C193.679 42.5994 193.999 42.5214 194.324 42.4711C194.693 42.4109 194.995 42.3507 195.221 42.2905C195.392 42.2513 195.554 42.1769 195.695 42.0722C195.741 42.0375 195.776 41.9913 195.797 41.9383C195.818 41.8852 195.825 41.8275 195.816 41.7711C195.813 41.6945 195.79 41.6202 195.749 41.5554C195.708 41.4907 195.65 41.4378 195.582 41.4022C195.42 41.3262 195.24 41.2975 195.063 41.3194C194.866 41.3283 194.677 41.3966 194.52 41.5152C194.451 41.5697 194.395 41.6395 194.357 41.7192C194.319 41.7988 194.3 41.8861 194.302 41.9743C193.548 42.0345 192.795 42.0872 192.094 42.1324C192.094 41.7436 192.204 41.3628 192.411 41.0334C192.642 40.671 192.964 40.3752 193.345 40.1753C193.845 39.9241 194.391 39.7781 194.95 39.7462C195.376 39.7009 195.807 39.7135 196.23 39.7839C196.579 39.8392 196.915 39.9538 197.225 40.1226C197.491 40.2694 197.722 40.4723 197.903 40.7173C198.07 40.9532 198.173 41.2279 198.204 41.5152C198.377 42.9604 198.543 44.4132 198.709 45.8585C197.955 45.9488 197.202 46.0316 196.396 46.1069C196.396 45.8058 196.336 45.5047 196.313 45.2111H196.253C196.148 45.4445 195.996 45.6544 195.808 45.8284C195.622 45.9962 195.404 46.1265 195.168 46.2122C194.907 46.2975 194.636 46.3505 194.362 46.3703ZM195.04 44.8648C195.222 44.8479 195.399 44.7942 195.56 44.7068C195.711 44.6263 195.839 44.5067 195.929 44.3605C196.022 44.21 196.06 44.0314 196.034 43.8562L195.989 43.3217L195.786 43.4121L195.567 43.4949L195.319 43.5701L195.04 43.6454C194.883 43.678 194.733 43.7365 194.595 43.8185C194.494 43.8806 194.409 43.9657 194.347 44.0669C194.297 44.1616 194.276 44.269 194.287 44.3756C194.289 44.4552 194.312 44.5327 194.353 44.6011C194.394 44.6695 194.451 44.7266 194.52 44.767C194.679 44.8516 194.861 44.8857 195.04 44.8648Z" fill="white"/>
<path d="M202.98 38.8129C203.07 39.3624 203.153 39.9044 203.243 40.4539C201.797 40.6897 200.345 40.893 198.889 41.0636L198.686 39.4226C200.117 39.247 201.548 39.0437 202.98 38.8129ZM199.326 37.7967C200.079 37.6988 200.833 37.5859 201.639 37.473C201.925 39.4076 202.211 41.3346 202.505 43.2691C202.51 43.3449 202.536 43.4179 202.58 43.4799C202.625 43.5343 202.686 43.5737 202.754 43.5928C202.841 43.6083 202.93 43.6083 203.017 43.5928C203.104 43.581 203.19 43.5608 203.273 43.5326L203.484 43.4573L204.095 44.9628L203.643 45.1434C203.411 45.232 203.171 45.2976 202.927 45.3391C202.453 45.4538 201.961 45.4691 201.48 45.3843C201.111 45.3229 200.773 45.137 200.524 44.8574C200.281 44.5502 200.134 44.1784 200.102 43.7885C199.846 41.8088 199.582 39.8065 199.326 37.7967Z" fill="white"/>
<path d="M210.565 39.4752C209.812 39.6408 209.119 39.7914 208.396 39.9419C208.363 39.8201 208.288 39.7136 208.185 39.6408C208.08 39.5597 207.955 39.5077 207.823 39.4903C207.676 39.4641 207.526 39.4641 207.379 39.4903C207.199 39.5199 207.028 39.5922 206.882 39.7011C206.823 39.7342 206.777 39.7846 206.749 39.8453C206.72 39.906 206.711 39.9739 206.723 40.0398C206.734 40.0889 206.754 40.1352 206.784 40.1755C206.814 40.2158 206.853 40.2491 206.897 40.2731C207.07 40.3467 207.259 40.3752 207.447 40.3559H208.833C209.391 40.3099 209.952 40.4003 210.468 40.6194C210.659 40.7184 210.827 40.859 210.957 41.0309C211.087 41.2028 211.177 41.4017 211.221 41.613C211.317 42.0368 211.255 42.4808 211.048 42.8626C210.809 43.2771 210.466 43.6221 210.053 43.8637C209.553 44.1645 209.001 44.3712 208.426 44.4734C207.581 44.6904 206.689 44.6431 205.872 44.3379C205.571 44.2205 205.301 44.034 205.085 43.7934C204.87 43.5528 204.713 43.2649 204.629 42.9529C205.428 42.8174 206.226 42.6744 207.025 42.5238C207.055 42.6181 207.109 42.7036 207.179 42.773C207.25 42.8424 207.337 42.8938 207.432 42.9228C207.666 42.9887 207.913 42.9887 208.147 42.9228C208.337 42.8916 208.518 42.8169 208.675 42.7045C208.732 42.6685 208.777 42.6166 208.806 42.555C208.834 42.4935 208.843 42.4251 208.833 42.3582C208.816 42.2998 208.784 42.2468 208.741 42.2045C208.697 42.1623 208.643 42.1322 208.584 42.1174C208.385 42.0638 208.179 42.0435 207.974 42.0571H206.754C206.18 42.1038 205.605 41.978 205.104 41.6958C204.911 41.5697 204.748 41.4035 204.626 41.2087C204.504 41.0138 204.425 40.7948 204.396 40.5667C204.316 40.167 204.377 39.752 204.569 39.3924C204.785 39.0197 205.104 38.7167 205.488 38.5193C205.972 38.2553 206.496 38.0723 207.04 37.9773C207.809 37.7849 208.619 37.8215 209.368 38.0827C209.666 38.1998 209.931 38.3878 210.139 38.6305C210.348 38.8732 210.494 39.1632 210.565 39.4752Z" fill="white"/>
<path d="M214.25 43.1863C213.928 43.2731 213.584 43.2298 213.293 43.0659C213.15 42.9919 213.026 42.8852 212.932 42.7544C212.838 42.6236 212.776 42.4724 212.751 42.3131C212.712 42.1644 212.707 42.0089 212.736 41.858C212.764 41.707 212.826 41.5642 212.917 41.44C213.1 41.1746 213.375 40.9853 213.688 40.9077C214.002 40.8301 214.333 40.8695 214.619 41.0184C214.759 41.0854 214.883 41.1821 214.982 41.3017C215.081 41.4213 215.152 41.5609 215.192 41.711C215.256 41.9117 215.256 42.1274 215.192 42.3282C215.12 42.5266 215.001 42.7047 214.845 42.8476C214.681 43.0124 214.476 43.1295 214.25 43.1863ZM213.331 34.4997C213.745 36.4117 214.16 38.3161 214.566 40.2281L212.6 40.7098C212.073 38.828 211.551 36.9461 211.033 35.0643C211.802 34.9062 212.57 34.6879 213.331 34.4922V34.4997Z" fill="white"/>
<path d="M141.898 110.827L142.448 110.556C143.104 111.791 143.767 113.086 144.55 114.463H144.61C145.108 112.623 145.728 110.817 146.464 109.058L147.3 108.795C146.357 110.903 145.576 113.08 144.965 115.306C145.123 116.767 145.319 118.249 145.582 119.725L144.972 119.86C144.716 118.4 144.528 116.932 144.377 115.487C143.42 113.808 142.659 112.273 141.898 110.827Z" fill="white"/>
<path d="M151.232 118.716C150.685 118.834 150.113 118.754 149.62 118.49C149.099 118.197 148.673 117.76 148.392 117.233C148.043 116.596 147.828 115.894 147.759 115.171C147.664 114.429 147.71 113.675 147.894 112.95C148.05 112.326 148.352 111.748 148.776 111.264C149.175 110.815 149.7 110.495 150.283 110.346C150.815 110.189 151.387 110.226 151.895 110.451C152.409 110.708 152.83 111.119 153.1 111.625C153.444 112.285 153.654 113.007 153.718 113.748C153.819 114.529 153.781 115.322 153.605 116.089C153.462 116.737 153.165 117.342 152.738 117.85C152.349 118.301 151.818 118.607 151.232 118.716ZM151.074 117.843C151.534 117.743 151.939 117.474 152.211 117.09C152.514 116.67 152.715 116.186 152.799 115.675C152.904 115.094 152.922 114.5 152.851 113.914C152.793 113.352 152.645 112.803 152.414 112.288C152.228 111.874 151.928 111.521 151.548 111.272C151.36 111.164 151.152 111.097 150.937 111.074C150.722 111.05 150.504 111.072 150.298 111.136C149.845 111.254 149.445 111.518 149.16 111.889C148.85 112.294 148.639 112.766 148.542 113.266C148.428 113.823 148.405 114.395 148.474 114.96C148.531 115.511 148.682 116.048 148.919 116.548C149.117 116.974 149.427 117.338 149.815 117.602C149.995 117.721 150.197 117.804 150.409 117.845C150.621 117.887 150.839 117.886 151.051 117.843H151.074Z" fill="white"/>
<path d="M160.891 113.191C160.65 111.422 160.484 109.698 160.386 108.11L161.343 107.914C161.544 110.736 161.893 113.545 162.39 116.33L161.419 116.518C161.328 116.029 161.245 115.547 161.17 115.065H161.095C160.961 115.555 160.702 116.002 160.341 116.36C159.95 116.756 159.444 117.019 158.895 117.113C158.418 117.219 157.921 117.185 157.463 117.015C157.017 116.842 156.633 116.538 156.364 116.142C156.043 115.651 155.844 115.091 155.783 114.508C155.535 112.672 155.377 110.88 155.316 109.194L156.213 108.991C156.281 110.662 156.439 112.438 156.68 114.26C156.699 114.548 156.776 114.83 156.905 115.088C157.034 115.347 157.214 115.577 157.433 115.765C157.644 115.929 157.888 116.044 158.149 116.103C158.409 116.161 158.679 116.162 158.94 116.104C159.317 116.024 159.669 115.854 159.965 115.607C160.297 115.344 160.557 114.999 160.718 114.606C160.907 114.16 160.967 113.67 160.891 113.191Z" fill="white"/>
<path d="M164.814 104.851C164.814 105.107 164.814 105.378 164.867 105.656C164.879 105.941 164.846 106.225 164.769 106.499C164.68 106.836 164.548 107.159 164.378 107.463C164.192 107.792 163.964 108.096 163.699 108.366L163.127 108.035C163.37 107.688 163.577 107.317 163.745 106.928C163.896 106.583 163.966 106.206 163.948 105.829C163.948 105.551 163.948 105.272 163.91 105.009L164.814 104.851Z" fill="white"/>
<path d="M173.584 105.769C173.064 108.313 172.492 111.4 171.942 114.569L170.835 114.772C169.215 112.002 167.67 109.307 166.367 106.988L167.429 106.8C168.529 108.757 169.787 110.993 171.106 113.319H171.189C171.626 110.669 172.093 108.125 172.53 105.95L173.584 105.769Z" fill="white"/>
<path d="M180.492 113.191C179.736 113.349 178.95 113.281 178.232 112.995C177.55 112.718 176.958 112.257 176.522 111.663C176.045 111.016 175.72 110.27 175.573 109.48C175.39 108.738 175.39 107.963 175.573 107.222C175.73 106.615 176.066 106.07 176.537 105.656C177.031 105.24 177.636 104.979 178.277 104.903C178.717 104.836 179.164 104.836 179.603 104.903C180.061 104.98 180.5 105.141 180.899 105.378C181.335 105.632 181.716 105.97 182.022 106.371C182.388 106.854 182.657 107.404 182.813 107.99C182.85 108.14 182.895 108.291 182.941 108.441C180.786 108.788 178.564 109.149 176.304 109.54L176.123 108.697C178.029 108.381 179.89 108.072 181.735 107.786C181.607 107.311 181.364 106.874 181.027 106.514C180.712 106.174 180.319 105.916 179.882 105.762C179.439 105.601 178.961 105.557 178.496 105.634C178.016 105.684 177.564 105.887 177.208 106.213C176.872 106.528 176.629 106.929 176.507 107.372C176.386 107.867 176.386 108.383 176.507 108.878C176.545 109.043 176.575 109.217 176.613 109.382C176.74 109.992 176.997 110.567 177.366 111.068C177.69 111.518 178.134 111.867 178.647 112.077C179.177 112.281 179.754 112.33 180.312 112.22C180.68 112.163 181.034 112.032 181.351 111.836C181.613 111.673 181.837 111.455 182.007 111.196C182.158 110.968 182.263 110.712 182.315 110.444L183.317 110.594C183.271 110.983 183.137 111.356 182.926 111.686C182.683 112.061 182.362 112.379 181.984 112.619C181.53 112.908 181.023 113.103 180.492 113.191Z" fill="white"/>
<path d="M193.849 114.117C193.393 114.199 192.927 114.199 192.471 114.117C192.073 114.051 191.691 113.908 191.348 113.695C191.032 113.495 190.754 113.24 190.527 112.943L191.137 112.288C191.311 112.491 191.509 112.673 191.725 112.83C191.971 113.013 192.254 113.141 192.554 113.206C192.918 113.286 193.296 113.286 193.661 113.206C193.959 113.184 194.247 113.091 194.501 112.934C194.754 112.777 194.967 112.561 195.119 112.305C195.271 112.048 195.359 111.759 195.376 111.461C195.392 111.163 195.336 110.866 195.213 110.594C195.047 109.992 194.874 109.397 194.686 108.818H194.618C194.591 109.076 194.527 109.329 194.429 109.57C194.323 109.851 194.143 110.097 193.91 110.285C193.614 110.513 193.263 110.659 192.893 110.707C192.311 110.808 191.713 110.732 191.175 110.489C190.586 110.213 190.07 109.803 189.668 109.292C189.197 108.692 188.835 108.014 188.598 107.29C188.35 106.654 188.227 105.977 188.237 105.295C188.233 104.802 188.424 104.327 188.768 103.973C189.112 103.619 189.581 103.415 190.075 103.405C190.465 103.349 190.863 103.375 191.243 103.481C191.578 103.568 191.896 103.711 192.184 103.902C192.434 104.067 192.668 104.253 192.885 104.459H192.96C192.757 104.038 192.539 103.631 192.313 103.247L193.066 103.157C194.355 105.485 195.344 107.966 196.011 110.541C196.193 111.106 196.216 111.71 196.079 112.288C195.949 112.76 195.669 113.178 195.281 113.477C194.86 113.798 194.37 114.017 193.849 114.117ZM192.749 109.902C193.162 109.853 193.543 109.655 193.819 109.344C194.08 109.017 194.22 108.611 194.218 108.193C194.221 107.647 194.11 107.106 193.895 106.605C193.691 106.075 193.395 105.586 193.021 105.159C192.692 104.792 192.292 104.495 191.845 104.286C191.425 104.098 190.961 104.03 190.504 104.09C190.309 104.098 190.117 104.146 189.94 104.232C189.764 104.317 189.607 104.438 189.48 104.587C189.248 104.905 189.134 105.293 189.156 105.686C189.18 106.202 189.287 106.71 189.472 107.192C189.659 107.732 189.929 108.239 190.271 108.697C190.565 109.101 190.949 109.431 191.393 109.661C191.809 109.88 192.283 109.964 192.749 109.902Z" fill="white"/>
<path d="M200.365 109.804C199.845 109.887 199.312 109.786 198.859 109.518C198.312 109.207 197.837 108.783 197.465 108.276C197.012 107.686 196.647 107.035 196.38 106.341C196.116 105.735 195.958 105.089 195.913 104.429C195.879 103.964 196.019 103.503 196.305 103.134C196.627 102.791 197.07 102.586 197.54 102.562C198.101 102.495 198.67 102.576 199.19 102.796C199.77 103.032 200.286 103.4 200.697 103.872C201.156 104.4 201.499 105.018 201.706 105.686C201.931 106.316 202.026 106.984 201.985 107.651C201.969 108.173 201.805 108.68 201.511 109.111C201.378 109.299 201.208 109.458 201.011 109.577C200.814 109.697 200.594 109.774 200.365 109.804ZM200.147 108.998C200.328 108.979 200.502 108.918 200.655 108.82C200.808 108.722 200.936 108.59 201.028 108.434C201.229 108.076 201.328 107.67 201.315 107.259C201.313 106.746 201.224 106.237 201.051 105.754C200.879 105.249 200.625 104.776 200.298 104.354C199.998 103.975 199.624 103.662 199.198 103.435C198.804 103.23 198.358 103.149 197.917 103.202C197.735 103.208 197.556 103.256 197.395 103.342C197.235 103.428 197.096 103.55 196.99 103.699C196.801 104.024 196.724 104.402 196.772 104.775C196.827 105.278 196.954 105.769 197.149 106.236C197.353 106.752 197.619 107.243 197.94 107.696C198.217 108.101 198.57 108.448 198.979 108.72C199.32 108.954 199.737 109.054 200.147 108.998Z" fill="white"/>
<path d="M204.434 101.742L204.614 102.434L201.706 102.818C201.616 102.6 201.526 102.382 201.428 102.163C202.422 102.035 203.417 101.9 204.434 101.742ZM201.714 100.515L202.505 100.387C203.374 102.548 204.025 104.789 204.449 107.079C204.489 107.321 204.568 107.554 204.682 107.771C204.754 107.91 204.867 108.023 205.006 108.095C205.11 108.151 205.229 108.172 205.345 108.155C205.405 108.149 205.463 108.134 205.518 108.11C205.559 108.096 205.597 108.076 205.631 108.05C205.699 108.298 205.767 108.547 205.827 108.803C205.778 108.848 205.722 108.886 205.662 108.915C205.586 108.959 205.501 108.985 205.413 108.991C205.216 109.015 205.017 108.973 204.848 108.87C204.624 108.738 204.438 108.552 204.306 108.328C204.114 108.034 203.983 107.703 203.921 107.357C203.436 105.003 202.696 102.709 201.714 100.515Z" fill="white"/>
<path d="M153.78 126.296C153.878 126.545 153.983 126.785 154.081 127.049L150.924 127.44C150.819 127.207 150.721 126.974 150.623 126.733L153.78 126.296ZM150.932 124.828L151.685 124.715C152.421 127.015 153.492 129.194 154.864 131.181C155.003 131.381 155.183 131.548 155.392 131.671C155.567 131.777 155.762 131.846 155.964 131.874C156.144 131.9 156.327 131.9 156.507 131.874C156.589 131.87 156.67 131.855 156.748 131.829L156.914 131.784L157.501 132.243C157.431 132.277 157.358 132.304 157.283 132.326C157.159 132.36 157.033 132.385 156.906 132.401C156.601 132.442 156.292 132.442 155.987 132.401C155.646 132.35 155.316 132.246 155.008 132.092C154.693 131.941 154.419 131.717 154.209 131.437C152.784 129.416 151.678 127.186 150.932 124.828Z" fill="white"/>
<path d="M157.741 128.539C158.325 129.781 159.067 130.942 159.948 131.994L159.194 132.077C157.447 130.135 155.985 126.989 154.9 123.473L155.752 123.338C156.126 124.6 156.569 125.842 157.078 127.056H157.153C157.163 126.679 157.319 126.32 157.59 126.055C157.944 125.74 158.39 125.547 158.863 125.506C159.368 125.422 159.885 125.464 160.37 125.626C160.844 125.772 161.275 126.031 161.628 126.379C162.009 126.775 162.306 127.243 162.502 127.756C163.001 129.077 163.642 130.339 164.415 131.52L163.602 131.61C162.802 130.465 162.13 129.236 161.598 127.945C161.391 127.406 161.016 126.949 160.528 126.642C160.052 126.338 159.48 126.222 158.923 126.319C158.572 126.35 158.239 126.487 157.967 126.71C157.736 126.902 157.582 127.168 157.53 127.463C157.49 127.835 157.564 128.21 157.741 128.539Z" fill="white"/>
<path d="M164.091 123.368C163.899 123.4 163.701 123.36 163.536 123.256C163.371 123.152 163.249 122.991 163.195 122.803C163.172 122.714 163.168 122.621 163.183 122.53C163.199 122.439 163.234 122.353 163.285 122.277C163.336 122.199 163.403 122.133 163.48 122.082C163.558 122.032 163.646 121.998 163.737 121.983C163.835 121.965 163.935 121.966 164.032 121.987C164.129 122.008 164.221 122.047 164.302 122.103C164.471 122.206 164.593 122.371 164.641 122.563C164.665 122.652 164.669 122.745 164.653 122.836C164.638 122.927 164.603 123.013 164.551 123.089C164.498 123.165 164.43 123.229 164.351 123.277C164.272 123.325 164.183 123.356 164.091 123.368ZM166.547 131.257C165.459 129.205 164.602 127.039 163.993 124.798L164.95 124.648C165.538 126.898 166.356 129.083 167.391 131.166L166.547 131.257Z" fill="white"/>
<path d="M173.652 125.069L172.793 125.453C172.651 125.239 172.479 125.046 172.281 124.881C172.059 124.709 171.802 124.588 171.528 124.527C171.195 124.459 170.851 124.459 170.518 124.527C170.023 124.584 169.558 124.798 169.192 125.137C169.052 125.266 168.95 125.432 168.899 125.615C168.847 125.798 168.847 125.992 168.899 126.176C168.933 126.336 169.003 126.487 169.104 126.618C169.204 126.748 169.332 126.854 169.479 126.929C169.874 127.108 170.302 127.206 170.737 127.215L172.055 127.29C172.655 127.291 173.245 127.441 173.773 127.726C173.963 127.836 174.129 127.985 174.259 128.162C174.389 128.34 174.48 128.543 174.526 128.758C174.568 128.923 174.574 129.096 174.546 129.264C174.517 129.433 174.454 129.593 174.36 129.736C174.141 130.063 173.836 130.324 173.479 130.489C173.028 130.691 172.547 130.818 172.055 130.865C171.401 130.955 170.735 130.914 170.096 130.745C169.555 130.598 169.083 130.264 168.763 129.804L169.562 129.525C169.788 129.854 170.116 130.1 170.496 130.226C170.938 130.358 171.404 130.389 171.859 130.316C172.347 130.282 172.816 130.115 173.215 129.834C173.356 129.744 173.465 129.612 173.527 129.456C173.589 129.301 173.601 129.131 173.562 128.968C173.529 128.839 173.469 128.717 173.386 128.612C173.302 128.507 173.198 128.421 173.08 128.359C172.734 128.191 172.356 128.101 171.972 128.095L170.571 128.028C169.953 128.024 169.345 127.869 168.801 127.576C168.377 127.321 168.067 126.915 167.934 126.439C167.82 126.054 167.844 125.642 168.002 125.273C168.191 124.883 168.486 124.554 168.853 124.324C169.298 124.04 169.799 123.855 170.322 123.782C170.996 123.633 171.7 123.699 172.334 123.97C172.871 124.201 173.329 124.583 173.652 125.069Z" fill="white"/>
<path d="M180.17 122.066L181.187 121.87C181.591 124.522 181.857 127.193 181.985 129.872C181.998 130.168 181.916 130.461 181.752 130.707C181.57 130.955 181.325 131.149 181.044 131.272C180.695 131.426 180.323 131.523 179.944 131.558H179.838H179.733C179.733 131.4 179.733 131.234 179.733 131.054H179.823H179.921C180.235 131.035 180.535 130.92 180.78 130.722C180.88 130.634 180.959 130.523 181.01 130.399C181.061 130.275 181.083 130.141 181.074 130.007C180.953 127.945 180.629 125.152 180.17 122.066ZM180.448 120.5C180.35 120.52 180.249 120.521 180.151 120.501C180.052 120.482 179.959 120.443 179.876 120.387C179.794 120.336 179.724 120.268 179.67 120.188C179.617 120.107 179.582 120.016 179.567 119.921C179.552 119.822 179.557 119.721 179.582 119.624C179.606 119.527 179.65 119.436 179.71 119.356C179.83 119.192 180.008 119.079 180.207 119.04C180.307 119.019 180.409 119.018 180.509 119.037C180.609 119.056 180.703 119.096 180.787 119.153C180.87 119.205 180.94 119.274 180.994 119.356C181.047 119.438 181.082 119.53 181.096 119.627C181.113 119.725 181.109 119.825 181.084 119.921C181.059 120.017 181.015 120.106 180.953 120.184C180.893 120.27 180.816 120.342 180.727 120.397C180.637 120.451 180.537 120.486 180.433 120.5H180.448Z" fill="white"/>
<path d="M187.552 128.479C186.947 128.61 186.317 128.576 185.729 128.381C185.201 128.202 184.748 127.853 184.441 127.388C184.084 126.827 183.879 126.184 183.846 125.521C183.778 124.77 183.87 124.013 184.117 123.3C184.352 122.628 184.745 122.021 185.262 121.531C185.784 121.052 186.428 120.727 187.123 120.59C187.772 120.44 188.452 120.498 189.067 120.756C189.648 121.016 190.135 121.45 190.46 121.998C190.83 122.623 191.03 123.334 191.04 124.061C191.079 124.786 190.939 125.509 190.634 126.168C190.345 126.764 189.916 127.281 189.383 127.674C188.844 128.081 188.217 128.357 187.552 128.479ZM187.552 127.779C188.076 127.69 188.565 127.461 188.969 127.117C189.356 126.779 189.656 126.353 189.842 125.875C190.039 125.359 190.127 124.808 190.099 124.256C190.085 123.712 189.951 123.177 189.707 122.691C189.487 122.253 189.14 121.891 188.712 121.652C188.247 121.416 187.713 121.355 187.206 121.479C186.665 121.576 186.167 121.839 185.782 122.231C185.407 122.63 185.133 123.113 184.983 123.639C184.822 124.18 184.763 124.747 184.81 125.31C184.833 125.821 184.969 126.32 185.209 126.77C185.412 127.157 185.738 127.464 186.136 127.644C186.586 127.841 187.088 127.888 187.567 127.779H187.552Z" fill="white"/>
<path d="M193.148 127.214C193.308 123.689 193.094 120.156 192.508 116.676L193.389 116.495C193.623 118.001 193.804 119.439 193.917 120.861H193.999C194.088 120.567 194.204 120.283 194.346 120.011C194.509 119.699 194.729 119.421 194.994 119.19C195.293 118.927 195.657 118.748 196.049 118.671C196.555 118.538 197.093 118.6 197.555 118.844C198.037 119.119 198.417 119.541 198.64 120.048C198.93 120.679 199.084 121.364 199.092 122.058C199.135 122.783 199.035 123.509 198.798 124.196C198.594 124.791 198.257 125.332 197.811 125.777C197.392 126.187 196.873 126.48 196.305 126.627C195.952 126.72 195.581 126.72 195.227 126.627C194.966 126.561 194.729 126.423 194.542 126.228C194.377 126.06 194.24 125.867 194.135 125.656H194.03C194.03 126.1 194.03 126.545 193.977 126.966L193.148 127.214ZM194.045 123.338C194.051 123.875 194.15 124.408 194.338 124.911C194.479 125.285 194.746 125.599 195.092 125.799C195.458 125.978 195.879 126.008 196.267 125.882C196.724 125.777 197.138 125.532 197.45 125.182C197.797 124.817 198.055 124.376 198.203 123.895C198.365 123.359 198.434 122.798 198.407 122.239C198.396 121.705 198.289 121.177 198.09 120.681C197.936 120.277 197.66 119.933 197.299 119.695C197.119 119.585 196.918 119.514 196.709 119.487C196.501 119.46 196.288 119.477 196.086 119.537C195.637 119.641 195.235 119.89 194.941 120.244C194.619 120.64 194.39 121.103 194.271 121.599C194.112 122.165 194.036 122.75 194.045 123.338Z" fill="white"/>
<path d="M201.33 125.13C201.264 125.155 201.193 125.162 201.124 125.15C201.055 125.138 200.991 125.108 200.938 125.062C200.881 125.008 200.836 124.943 200.807 124.87C200.779 124.797 200.767 124.718 200.772 124.64C200.772 124.449 200.83 124.263 200.938 124.106C201.029 123.958 201.167 123.844 201.33 123.782C201.394 123.756 201.465 123.75 201.533 123.763C201.601 123.777 201.664 123.809 201.714 123.857C201.768 123.913 201.81 123.979 201.839 124.052C201.867 124.124 201.881 124.201 201.879 124.279C201.877 124.403 201.851 124.526 201.804 124.64C201.76 124.755 201.693 124.86 201.608 124.949C201.534 125.034 201.438 125.097 201.33 125.13ZM200.96 114.832C201.322 117.264 201.541 119.714 201.616 122.171L200.96 122.382C200.866 119.912 200.614 117.451 200.207 115.013L200.96 114.832Z" fill="white"/>
</svg>
