<svg width="403" height="319" viewBox="0 0 403 319" fill="none" xmlns="http://www.w3.org/2000/svg">
<path d="M184.419 3.64258H3.80273V253.135H184.419V3.64258Z" fill="#D0CFEC"/>
<mask id="mask0_8337_39431" style="mask-type:luminance" maskUnits="userSpaceOnUse" x="3" y="3" width="182" height="251">
<path d="M184.419 3.64258H3.80273V253.135H184.419V3.64258Z" fill="white"/>
</mask>
<g mask="url(#mask0_8337_39431)">
<path d="M56.6867 98.7286H4.47266V118.916H56.6867V98.7286Z" fill="#7C3AED"/>
<path d="M61.2746 95.814H-0.125V98.7215H61.2746V95.814Z" fill="#7C3AED"/>
<path d="M30.5831 76.926L-4.39648 95.8212H65.5628L30.5831 76.926Z" fill="#7C3AED"/>
<path d="M35.7189 73.5662L30.5831 66.861L25.4473 73.5662V79.6971H35.7189V73.5662Z" fill="#7C3AED"/>
<path d="M86.0478 235.374H-24.8828V271.937H86.0478V235.374Z" fill="#7C3AED"/>
<path d="M30.5833 117.545C28.8548 117.545 27.1651 117.033 25.7279 116.075C24.2906 115.116 23.1705 113.754 22.509 112.16C21.8475 110.566 21.6745 108.813 22.0117 107.121C22.3489 105.429 23.1813 103.874 24.4035 102.655C25.6257 101.435 27.183 100.604 28.8783 100.267C30.5736 99.9309 32.3308 100.104 33.9277 100.764C35.5247 101.424 36.8896 102.542 37.8499 103.976C38.8102 105.411 39.3228 107.097 39.3228 108.822C39.319 111.135 38.397 113.351 36.7588 114.986C35.1207 116.621 32.9 117.541 30.5833 117.545ZM30.5833 101.442C29.1205 101.441 27.6901 101.873 26.4732 102.683C25.2562 103.493 24.3074 104.645 23.7466 105.993C23.1858 107.342 23.0384 108.826 23.3229 110.258C23.6074 111.69 24.311 113.005 25.3449 114.038C26.3787 115.071 27.6963 115.775 29.1308 116.06C30.5654 116.345 32.0526 116.2 33.4041 115.641C34.7557 115.083 35.911 114.137 36.7238 112.923C37.5366 111.709 37.9705 110.282 37.9705 108.822C37.9686 106.867 37.1899 104.992 35.8052 103.609C34.4204 102.225 32.5426 101.446 30.5833 101.442Z" fill="#D0CFEC"/>
<path d="M61.2256 123.661H-0.0660324L-2.08008 118.916H63.2397L61.2256 123.661Z" fill="#7C3AED"/>
<path d="M16.6637 123.661C15.0021 160.784 12.8802 198.251 8.1975 235.367H-18.7188C-8.39678 198.251 -3.72851 160.784 -0.0672684 123.661H16.6637Z" fill="#7C3AED"/>
<path d="M79.8756 235.367H8.19727C12.8799 198.244 15.0019 160.777 16.6634 123.654H61.2242C64.8854 160.784 69.5537 198.252 79.8756 235.367Z" fill="#7C3AED"/>
<path d="M24.7852 220.83H36.3731V210.24C36.3731 207.807 33.7764 205.833 30.6187 205.833C27.461 205.833 24.8211 207.807 24.8211 210.24L24.7852 220.83Z" fill="#D0CFEC"/>
<path d="M24.7852 187.002H36.3731V176.442C36.3731 174.008 33.7764 172.034 30.6187 172.034C27.461 172.034 24.8211 174.008 24.8211 176.442L24.7852 187.002Z" fill="#D0CFEC"/>
<path d="M24.7852 153.174H36.3731V142.614C36.3731 140.18 33.7764 138.206 30.6187 138.206C27.461 138.206 24.8211 140.18 24.8211 142.614L24.7852 153.174Z" fill="#D0CFEC"/>
<path d="M65.9861 119.584H-5.72101C-5.81517 119.593 -5.91033 119.583 -6.00033 119.554C-6.09033 119.525 -6.17316 119.477 -6.24346 119.414C-6.31377 119.35 -6.36997 119.273 -6.40844 119.187C-6.44692 119.1 -6.4668 119.007 -6.4668 118.912C-6.4668 118.818 -6.44692 118.725 -6.40844 118.638C-6.36997 118.552 -6.31377 118.475 -6.24346 118.411C-6.17316 118.348 -6.09033 118.3 -6.00033 118.271C-5.91033 118.242 -5.81517 118.232 -5.72101 118.241H65.9861C66.0803 118.232 66.1755 118.242 66.2655 118.271C66.3555 118.3 66.4383 118.348 66.5086 118.411C66.5789 118.475 66.6351 118.552 66.6736 118.638C66.712 118.725 66.7319 118.818 66.7319 118.912C66.7319 119.007 66.712 119.1 66.6736 119.187C66.6351 119.273 66.5789 119.35 66.5086 119.414C66.4383 119.477 66.3555 119.525 66.2655 119.554C66.1755 119.583 66.0803 119.593 65.9861 119.584Z" fill="#FEFDFF"/>
<path d="M63.2387 114.041H-2.80756C-2.97394 114.024 -3.12803 113.946 -3.24004 113.822C-3.35206 113.698 -3.41406 113.537 -3.41406 113.37C-3.41406 113.203 -3.35206 113.042 -3.24004 112.918C-3.12803 112.794 -2.97394 112.716 -2.80756 112.699H63.2387C63.3328 112.689 63.428 112.699 63.518 112.729C63.608 112.758 63.6908 112.806 63.7611 112.869C63.8314 112.932 63.8876 113.01 63.9261 113.096C63.9646 113.182 63.9845 113.276 63.9845 113.37C63.9845 113.465 63.9646 113.558 63.9261 113.645C63.8876 113.731 63.8314 113.808 63.7611 113.871C63.6908 113.935 63.608 113.983 63.518 114.012C63.428 114.041 63.3328 114.051 63.2387 114.041Z" fill="#FEFDFF"/>
<path d="M63.9154 113.374H62.5703V118.909H63.9154V113.374Z" fill="#FEFDFF"/>
<path d="M52.9024 113.374H51.5645V118.909H52.9024V113.374Z" fill="#FEFDFF"/>
<path d="M41.8978 113.374H40.5527V118.909H41.8978V113.374Z" fill="#FEFDFF"/>
<path d="M30.892 113.374H29.5469V118.909H30.892V113.374Z" fill="#FEFDFF"/>
<path d="M19.8803 113.374H18.5352V118.909H19.8803V113.374Z" fill="#FEFDFF"/>
<path d="M8.87439 113.374H7.5293V118.909H8.87439V113.374Z" fill="#FEFDFF"/>
<path d="M30.1078 109.296L-46.2676 33.0693L-45.3181 32.1217L31.0501 108.341L30.1078 109.296Z" fill="#D0CFEC"/>
<path d="M-32.5838 19.4224L-46.7031 33.5143L15.5676 95.6638L29.6869 81.5719L-32.5838 19.4224Z" fill="#F6AE2D"/>
<path d="M-45.7507 30.499L-47.7344 32.4788L16.5962 96.6842L18.5799 94.7045L-45.7507 30.499Z" fill="#FEFDFF"/>
<path d="M-45.3181 185.516L-46.2676 184.575L30.1078 108.341L31.0501 109.296L-45.3181 185.516Z" fill="#D0CFEC"/>
<path d="M3.2785 109.704L-58.9922 171.853L-44.8779 185.94L17.3928 123.791L3.2785 109.704Z" fill="#F6AE2D"/>
<path d="M-45.9145 186.98L-47.8926 185.006L16.4345 120.797L18.4198 122.778L-45.9145 186.98Z" fill="#FEFDFF"/>
<path d="M106.476 185.516L30.1074 109.296L31.0497 108.341L107.425 184.575L106.476 185.516Z" fill="#D0CFEC"/>
<path d="M45.5959 121.967L31.4766 136.059L93.7473 198.208L107.867 184.116L45.5959 121.967Z" fill="#F6AE2D"/>
<path d="M108.893 185.164L106.915 187.138L42.5879 122.936L44.5588 120.955L108.893 185.164Z" fill="#FEFDFF"/>
<path d="M31.0497 109.296L30.1074 108.349L106.476 32.1217L107.425 33.0693L31.0497 109.296Z" fill="#D0CFEC"/>
<path d="M106.036 31.6853L43.7656 93.8348L57.8799 107.922L120.151 45.7721L106.036 31.6853Z" fill="#F6AE2D"/>
<path d="M107.073 30.6644L109.051 32.6315L44.7235 96.8407L42.7383 94.8664L107.073 30.6644Z" fill="#FEFDFF"/>
<path d="M33.273 108.822C33.273 109.353 33.1152 109.873 32.8196 110.314C32.524 110.756 32.1038 111.1 31.6123 111.303C31.1207 111.506 30.5798 111.559 30.0579 111.456C29.5361 111.352 29.0567 111.096 28.6805 110.721C28.3043 110.345 28.0481 109.867 27.9443 109.346C27.8405 108.825 27.8937 108.286 28.0974 107.795C28.301 107.304 28.6458 106.885 29.0882 106.59C29.5306 106.295 30.0507 106.137 30.5828 106.137C31.2957 106.139 31.9788 106.423 32.4829 106.926C32.987 107.429 33.2711 108.111 33.273 108.822Z" fill="#FEFDFF"/>
<path d="M30.5823 111.838C29.9828 111.839 29.3963 111.663 28.8972 111.331C28.3981 111 28.0089 110.528 27.7788 109.975C27.5487 109.423 27.4881 108.814 27.6047 108.227C27.7213 107.64 28.0099 107.101 28.4338 106.678C28.8578 106.255 29.398 105.967 29.9861 105.851C30.5742 105.734 31.1837 105.795 31.7373 106.024C32.291 106.254 32.7638 106.642 33.096 107.141C33.4282 107.639 33.6048 108.224 33.6034 108.822C33.6015 109.621 33.2826 110.387 32.7164 110.952C32.1503 111.517 31.383 111.836 30.5823 111.838ZM30.5823 106.475C30.1171 106.475 29.6624 106.613 29.2756 106.87C28.8887 107.128 28.5873 107.495 28.4092 107.924C28.2312 108.353 28.1846 108.825 28.2754 109.28C28.3662 109.736 28.5902 110.154 28.9191 110.482C29.2481 110.811 29.6672 111.034 30.1234 111.125C30.5797 111.215 31.0526 111.169 31.4824 110.991C31.9122 110.814 32.2796 110.513 32.538 110.127C32.7965 109.741 32.9344 109.287 32.9344 108.822C32.9325 108.2 32.6841 107.604 32.2434 107.165C31.8027 106.725 31.2056 106.477 30.5823 106.475Z" fill="#D0CFEC"/>
</g>
<path d="M184.419 3.64258H3.80273V253.135H184.419V3.64258Z" stroke="white" stroke-width="7" stroke-miterlimit="10"/>
<path d="M94.1113 3.64258V249.646" stroke="white" stroke-width="6" stroke-miterlimit="10"/>
<path d="M5.58008 81.7145H183.096" stroke="white" stroke-width="6" stroke-miterlimit="10"/>
<path d="M5.11914 171.574H182.643" stroke="white" stroke-width="6" stroke-miterlimit="10"/>
<path d="M402.634 272.411H313.045V317.445H402.634V272.411Z" fill="#F6AE2D"/>
<path d="M336.098 282.454C337.135 282.454 337.975 281.615 337.975 280.581C337.975 279.546 337.135 278.707 336.098 278.707C335.061 278.707 334.221 279.546 334.221 280.581C334.221 281.615 335.061 282.454 336.098 282.454Z" fill="#FEFDFF"/>
<path d="M324.373 282.454C325.41 282.454 326.251 281.615 326.251 280.581C326.251 279.546 325.41 278.707 324.373 278.707C323.337 278.707 322.496 279.546 322.496 280.581C322.496 281.615 323.337 282.454 324.373 282.454Z" fill="#FEFDFF"/>
<path d="M316.045 286.869H396.456" stroke="#FEFDFF" stroke-width="2" stroke-miterlimit="10" stroke-linecap="round"/>
<path d="M383.961 208.036H313.045V272.411H383.961V208.036Z" fill="#7BE0AD"/>
<path d="M362.791 218.216V262.712" stroke="#FEFDFF" stroke-width="2" stroke-miterlimit="10" stroke-linecap="round"/>
<path d="M313.052 220.27H209.105V317.445H313.052V220.27Z" fill="#7C3AED"/>
<path d="M313.051 220.27H283.373V317.445H313.051V220.27Z" fill="#D0CFEC"/>
<path d="M223.082 236.918H248.114" stroke="#FEFDFF" stroke-width="2" stroke-miterlimit="10" stroke-linecap="round"/>
<path d="M283.373 220.27V317.445" stroke="#FEFDFF" stroke-width="2" stroke-miterlimit="10" stroke-linecap="round"/>
<path d="M313.052 159.442H209.105V220.262H313.052V159.442Z" fill="#FEDAC9"/>
<path d="M223.082 171.574H300.148" stroke="#FEFDFF" stroke-width="2" stroke-miterlimit="10" stroke-linecap="round"/>
<path d="M235.598 171.574V208.036" stroke="#FEFDFF" stroke-width="2" stroke-miterlimit="10" stroke-linecap="round"/>
<path d="M304.859 114.652H253.918V159.442H304.859V114.652Z" fill="#D0CFEC"/>
<path d="M270.85 127.151H295.888" stroke="#FEFDFF" stroke-width="2" stroke-miterlimit="10" stroke-linecap="round"/>
<path d="M209.106 243.623H105.16V317.445H209.106V243.623Z" fill="#7BE0AD"/>
<path d="M120.156 259.711H145.188" stroke="#FEFDFF" stroke-width="2" stroke-miterlimit="10" stroke-linecap="round"/>
<path d="M209.105 180.921H132.672V243.623H209.105V180.921Z" fill="#F6AE2D"/>
<path d="M193.094 191.676C194.131 191.676 194.972 190.837 194.972 189.802C194.972 188.767 194.131 187.928 193.094 187.928C192.057 187.928 191.217 188.767 191.217 189.802C191.217 190.837 192.057 191.676 193.094 191.676Z" fill="#FEFDFF"/>
<path d="M181.37 191.676C182.406 191.676 183.247 190.837 183.247 189.802C183.247 188.767 182.406 187.928 181.37 187.928C180.333 187.928 179.492 188.767 179.492 189.802C179.492 190.837 180.333 191.676 181.37 191.676Z" fill="#FEFDFF"/>
<path d="M353.836 176.556C354.073 163.527 359.346 150.827 360.425 125.916" stroke="#7BE0AD" stroke-width="0.75" stroke-miterlimit="10"/>
<path d="M349.327 176.126L349.435 176.556C349.435 176.556 340.163 177.167 340.026 176.556C337.221 163.871 337.329 147.223 337.329 147.223C337.329 147.223 346.09 163.283 349.327 176.126Z" fill="#7BE0AD"/>
<path d="M349.327 176.126L349.435 176.556H347.521C343.378 168.602 342.112 156.857 337.336 147.223C337.336 147.223 346.09 163.283 349.327 176.126Z" fill="#332066"/>
<path d="M354.131 162.478C354.526 169.528 353.469 173.965 352.397 176.556H348.16C346.837 174.058 345.377 169.823 344.996 162.981C344.276 149.757 347.873 131.824 347.873 131.824C347.873 131.824 353.397 149.255 354.131 162.478Z" fill="#7BE0AD"/>
<path d="M354.131 162.478C354.527 169.528 353.47 173.965 352.398 176.556L349.873 176.635C348.55 174.144 350.909 166.642 354.131 162.478Z" fill="#332066"/>
<path d="M360.159 176.636L350.693 176.557C350.895 175.745 351.132 174.898 351.413 174.015C355.225 161.33 364.705 145.68 364.705 145.68C364.705 145.68 363.95 163.957 360.159 176.636Z" fill="#7BE0AD"/>
<path d="M364.461 123.044C363.788 123.348 363.137 123.698 362.512 124.092C362.009 122.694 361.296 121.379 360.397 120.194C359.619 121.227 358.974 122.353 358.477 123.547C357.983 123.129 357.465 122.743 356.923 122.391C356.923 122.391 355.808 126.031 356.513 128.249C357.455 131.199 359.095 131.329 360.261 131.436C361.426 131.544 362.605 131.156 364.008 128.888C365.267 126.921 364.461 123.044 364.461 123.044Z" fill="#F6AE2D"/>
<path d="M360.921 208.037H339.629L334.508 176.557H366.049L360.921 208.037Z" fill="url(#paint0_linear_8337_39431)"/>
<defs>
<linearGradient id="paint0_linear_8337_39431" x1="350.253" y1="179.493" x2="350.074" y2="206.084" gradientUnits="userSpaceOnUse">
<stop stop-color="#7C3AED"/>
<stop offset="0.07" stop-color="#8A4BE9" stop-opacity="0.97"/>
<stop offset="0.34" stop-color="#BC89DB" stop-opacity="0.85"/>
<stop offset="0.6" stop-color="#E0B5D1" stop-opacity="0.77"/>
<stop offset="0.83" stop-color="#F6D0CB" stop-opacity="0.72"/>
<stop offset="1" stop-color="#FEDAC9" stop-opacity="0.7"/>
</linearGradient>
</defs>
</svg>
