<svg width="170" height="24" viewBox="0 0 170 24" fill="none" xmlns="http://www.w3.org/2000/svg">
<path d="M38.8524 16.0416H26.1107C26.1767 17.3836 26.7048 18.3823 27.6621 19.1001C28.6194 19.8179 30.0388 20.1612 31.8874 20.1612C33.0757 20.1612 34.198 19.9428 35.3204 19.5371C36.4427 19.1313 37.301 18.6944 37.9281 18.1951H38.5553V22.5644C37.301 23.0637 36.1126 23.407 34.9903 23.6255C33.8679 23.844 32.6466 23.9688 31.2932 23.9688C27.7942 23.9688 25.1204 23.1886 23.2718 21.6593C21.4233 20.13 20.466 17.9766 20.466 15.1365C20.466 12.3277 21.3573 10.1118 23.1068 8.48895C24.8563 6.83485 27.266 6.02341 30.3359 6.02341C33.1747 6.02341 35.2874 6.71001 36.7068 8.11443C38.1262 9.51886 38.8524 11.5163 38.8524 14.1378V16.0416ZM33.3068 12.8583C33.2738 11.7035 32.9767 10.8609 32.4485 10.2991C31.8874 9.73732 31.0621 9.42523 29.9068 9.42523C28.8175 9.42523 27.9592 9.70611 27.266 10.2367C26.5728 10.7672 26.1767 11.6411 26.1107 12.8583H33.3068Z" fill="#141D4B"/>
<path d="M52.6175 23.3758C52.0233 23.5319 51.3961 23.6567 50.7029 23.7191C50.0097 23.7815 49.2175 23.844 48.2272 23.844C46.0486 23.844 44.4311 23.407 43.3748 22.5644C42.3185 21.7217 41.7903 20.2549 41.7903 18.1638V10.2367H39.5126V6.55396H41.7903V1.6853H47.3689V6.55396H52.5845V10.2367H47.3689V16.2601C47.3689 16.8531 47.3689 17.3836 47.3689 17.8205C47.3689 18.2575 47.468 18.6632 47.633 19.0065C47.7651 19.3498 48.0291 19.6307 48.3922 19.8491C48.7554 20.0676 49.2835 20.1612 49.9767 20.1612C50.2738 20.1612 50.6369 20.0988 51.099 19.974C51.5612 19.8492 51.8913 19.7555 52.0893 19.6307H52.5515V23.3758H52.6175Z" fill="#141D4B"/>
<path d="M65.1612 21.7217C64.8641 21.9402 64.501 22.2211 64.0388 22.5332C63.5767 22.8453 63.1806 23.0949 62.7845 23.2822C62.2233 23.5319 61.6621 23.6879 61.068 23.8128C60.4738 23.9376 59.8466 24 59.1204 24C57.4699 24 56.0835 23.5007 54.9612 22.502C53.8388 21.5033 53.2777 20.2237 53.2777 18.6632C53.2777 17.4148 53.5748 16.4161 54.1359 15.6359C54.6971 14.8557 55.5223 14.2315 56.5456 13.7633C57.5689 13.2952 58.8563 12.9831 60.3748 12.7958C61.8932 12.6086 63.4777 12.4525 65.1282 12.3589V12.2653C65.1282 11.329 64.732 10.6736 63.9398 10.3303C63.1476 9.98701 61.9922 9.79975 60.4738 9.79975C59.5495 9.79975 58.5922 9.9558 57.5359 10.2679C56.4796 10.58 55.7534 10.8297 55.2913 11.0169H54.7631V6.89728C55.3573 6.74123 56.3146 6.55398 57.635 6.36672C58.9554 6.14825 60.2757 6.05463 61.6291 6.05463C64.7981 6.05463 67.0757 6.52277 68.4952 7.49026C69.9146 8.45775 70.6078 9.92459 70.6078 11.9844V23.5319H65.0621V21.7217H65.1612ZM65.1612 19.1001V15.5735C64.402 15.6359 63.6097 15.7295 62.7185 15.8232C61.8272 15.9168 61.167 16.0416 60.7049 16.1977C60.1437 16.3537 59.7146 16.6034 59.4175 16.9467C59.1204 17.29 58.9884 17.6957 58.9884 18.2263C58.9884 18.5696 59.0214 18.8505 59.0874 19.1001C59.1534 19.3186 59.3185 19.5371 59.5495 19.7243C59.7806 19.9116 60.0777 20.0676 60.4078 20.1613C60.7379 20.2549 61.266 20.3173 61.9592 20.3173C62.5204 20.3173 63.0816 20.1925 63.6427 19.974C64.2369 19.7555 64.732 19.4434 65.1612 19.1001Z" fill="#141D4B"/>
<path d="M89.6214 18.1638C89.6214 19.9116 88.8291 21.3472 87.2117 22.4083C85.5942 23.4694 83.3825 24.0312 80.6097 24.0312C79.0583 24.0312 77.6719 23.8752 76.3845 23.5943C75.1301 23.3134 74.1068 23.0013 73.3476 22.658V18.1638H73.8757C74.1398 18.3511 74.4699 18.5696 74.833 18.788C75.1961 19.0065 75.7243 19.2562 76.3845 19.5371C76.9786 19.7555 77.6058 19.974 78.3651 20.13C79.0913 20.2861 79.8835 20.3797 80.7087 20.3797C81.7981 20.3797 82.6233 20.2549 83.1515 20.0364C83.6796 19.7867 83.9437 19.4434 83.9437 18.9753C83.9437 18.5696 83.7786 18.2575 83.4816 18.0702C83.1845 17.883 82.5903 17.6957 81.732 17.5397C81.3359 17.446 80.7748 17.3524 80.0486 17.2588C79.3553 17.1651 78.6952 17.0091 78.134 16.8843C76.5495 16.4785 75.3942 15.8544 74.635 15.0117C73.8757 14.1691 73.4796 13.1079 73.4796 11.8283C73.4796 10.2055 74.2719 8.83225 75.8563 7.73992C77.4408 6.64759 79.6194 6.11703 82.3592 6.11703C83.6466 6.11703 84.901 6.24187 86.0893 6.49155C87.2777 6.74122 88.2019 7.02211 88.8952 7.30299V11.6099H88.4C87.5748 11.0481 86.6175 10.6112 85.5612 10.2679C84.5049 9.92458 83.4486 9.73732 82.3592 9.73732C81.468 9.73732 80.7087 9.86216 80.0816 10.1118C79.4544 10.3615 79.1573 10.7048 79.1573 11.1417C79.1573 11.5475 79.2893 11.8596 79.5864 12.078C79.8505 12.2965 80.5107 12.515 81.567 12.7022C82.1282 12.827 82.7553 12.9207 83.4155 13.0143C84.0757 13.1079 84.7359 13.264 85.3961 13.42C86.8486 13.7945 87.9379 14.3875 88.6641 15.1678C89.3903 15.948 89.6214 16.9467 89.6214 18.1638Z" fill="#141D4B"/>
<path d="M109.163 16.0416H96.3884C96.4544 17.3836 96.9825 18.3823 97.9398 19.1001C98.8971 19.8179 100.317 20.1612 102.165 20.1612C103.353 20.1612 104.476 19.9428 105.598 19.5371C106.72 19.1313 107.579 18.6944 108.206 18.195H108.833V22.5644C107.579 23.0637 106.39 23.407 105.268 23.6255C104.146 23.8439 102.924 23.9688 101.571 23.9688C98.0719 23.9688 95.3981 23.1885 93.5495 21.6593C91.701 20.13 90.7767 17.9454 90.7767 15.1053C90.7767 12.2965 91.668 10.0806 93.4175 8.45773C95.167 6.80363 97.5767 5.99219 100.647 5.99219C103.485 5.99219 105.598 6.67879 107.017 8.08321C108.437 9.48764 109.163 11.485 109.163 14.1066V16.0416ZM103.617 12.8582C103.584 11.7035 103.287 10.8608 102.759 10.2991C102.198 9.73731 101.373 9.42522 100.217 9.42522C99.1282 9.42522 98.2699 9.7061 97.5767 10.2367C96.8835 10.7672 96.4874 11.6411 96.4214 12.8582H103.617Z" fill="#141D4B"/>
<path d="M117.383 23.5319H111.804V0H117.383V23.5319Z" fill="#141D4B"/>
<path d="M138.476 16.0416H125.701C125.767 17.3836 126.295 18.3823 127.252 19.1001C128.21 19.8179 129.629 20.1612 131.478 20.1612C132.666 20.1612 133.788 19.9428 134.911 19.5371C136.033 19.1313 136.891 18.6944 137.518 18.195H138.146V22.5644C136.891 23.0637 135.703 23.407 134.581 23.6255C133.458 23.8439 132.237 23.9688 130.883 23.9688C127.384 23.9688 124.711 23.1885 122.862 21.6593C121.014 20.13 120.089 17.9454 120.089 15.1053C120.089 12.2965 120.981 10.0806 122.73 8.45773C124.48 6.80363 126.889 5.99219 129.959 5.99219C132.798 5.99219 134.911 6.67879 136.33 8.08321C137.75 9.48764 138.476 11.485 138.476 14.1066V16.0416ZM132.93 12.8582C132.897 11.7035 132.6 10.8608 132.072 10.2991C131.511 9.73731 130.685 9.42522 129.53 9.42522C128.441 9.42522 127.583 9.7061 126.889 10.2367C126.196 10.7672 125.8 11.6411 125.734 12.8582H132.93Z" fill="#141D4B"/>
<path d="M150.161 24C148.643 24 147.256 23.8127 146.002 23.4694C144.748 23.1261 143.658 22.5644 142.734 21.8466C141.81 21.0975 141.117 20.1925 140.588 19.0689C140.093 17.9454 139.829 16.6346 139.829 15.1365C139.829 13.5449 140.093 12.1717 140.654 11.0481C141.183 9.89337 141.942 8.95709 142.932 8.17685C143.856 7.45904 144.946 6.92848 146.2 6.61638C147.421 6.27308 148.709 6.11703 150.029 6.11703C151.217 6.11703 152.307 6.24187 153.297 6.49155C154.287 6.74122 155.245 7.08452 156.103 7.49025V12.1404H155.311C155.08 11.9532 154.849 11.7347 154.518 11.5163C154.221 11.2666 153.858 11.0481 153.396 10.7984C152.967 10.58 152.505 10.3927 152.01 10.2367C151.515 10.0806 150.92 10.0182 150.26 10.0182C148.775 10.0182 147.619 10.4863 146.827 11.3914C146.035 12.3277 145.639 13.5761 145.639 15.1365C145.639 16.7594 146.035 18.0078 146.86 18.8505C147.685 19.6931 148.841 20.13 150.359 20.13C151.052 20.13 151.68 20.0364 152.241 19.8804C152.802 19.7243 153.264 19.5371 153.627 19.3186C153.99 19.1313 154.287 18.9129 154.551 18.6944C154.816 18.4759 155.08 18.2575 155.278 18.039H156.07V22.6892C155.179 23.0949 154.287 23.407 153.33 23.6567C152.373 23.8752 151.317 24 150.161 24Z" fill="#141D4B"/>
<path d="M170 23.3758C169.406 23.5319 168.779 23.6567 168.085 23.7191C167.392 23.7815 166.6 23.844 165.61 23.844C163.431 23.844 161.814 23.407 160.757 22.5644C159.701 21.7217 159.173 20.2549 159.173 18.1638V10.2367H156.895V6.55396H159.173V1.6853H164.751V6.55396H170V10.2367H164.784V16.2601C164.784 16.8531 164.784 17.3836 164.784 17.8205C164.784 18.2575 164.883 18.6632 165.049 19.0065C165.181 19.3498 165.445 19.6307 165.808 19.8491C166.171 20.0676 166.699 20.1612 167.392 20.1612C167.689 20.1612 168.052 20.0988 168.515 19.974C168.977 19.8492 169.307 19.7555 169.505 19.6307H169.967V23.3758H170Z" fill="#141D4B"/>
<path d="M5.57864 19.5371V14.0754V10.3303V5.71131V1.6853H0V23.5319H5.57864V19.5371Z" fill="#141D4B"/>
<path d="M17.2641 11.1417C16.6039 9.89336 15.6136 8.64498 14.3262 7.49024L13.8641 7.11572H8.1534V8.92587L8.64855 9.23796C9.11068 9.55005 9.53981 9.89336 9.93593 10.2991C10.332 10.6736 10.7282 11.1417 11.0583 11.6723C11.3884 12.1716 11.6524 12.7334 11.8835 13.3576C12.0816 13.9818 12.1806 14.6372 12.1806 15.3238C12.1806 16.0416 12.0816 16.697 11.8835 17.29C11.6854 17.883 11.3884 18.4447 11.0583 18.9753C10.7282 19.4746 10.3651 19.9428 9.93593 20.3485C9.5068 20.7542 9.07767 21.0975 8.61554 21.4096L8.12039 21.7529V23.5631H13.8641L14.2932 23.1885C15.6136 22.0026 16.6039 20.7854 17.2641 19.537C17.9243 18.2575 18.2544 16.853 18.2544 15.3862C18.2544 13.9194 17.9243 12.4213 17.2641 11.1417Z" fill="#141D4B"/>
</svg>
