<svg width="330" height="240" viewBox="0 0 330 240" fill="none" xmlns="http://www.w3.org/2000/svg">
<g clip-path="url(#clip0_8728_31961)">
<path d="M33.5505 106.477C2.32301 55.3378 53.4928 39.251 62.1373 40.2291C69.4864 41.0453 84.6517 46.5093 78.0811 52.8145C73.6405 54.5465 68.3654 50.9827 67.2319 46.3473C66.0983 41.712 68.3342 36.7713 71.7721 33.4754C75.21 30.1795 79.7191 28.2294 84.141 26.4912C103.174 19.0147 124.125 14.1363 144.024 18.8154C163.922 23.4944 182.127 39.874 183.485 60.2909C187.222 50.0731 198.233 44.4346 208.796 41.8303C233.671 35.7059 261.628 41.8303 280.537 59.1383C299.445 76.4463 308.059 104.738 300.404 129.193C298.536 135.08 292.6 143.304 287.992 147.398C283.383 151.491 271.749 158.712 270.671 145.666C269.426 130.638 290.601 140.725 296.935 147.466C304.552 155.603 307.324 167.709 304.932 178.618C302.54 189.527 295.303 199.047 285.986 205.153C275.48 212.038 262.756 214.667 250.25 215.857C232.567 217.541 214.734 216.638 197.311 213.178C170.53 207.851 143.75 196.449 116.876 201.241C97.5687 204.692 78.3054 216.399 59.5776 210.586C49.4258 207.427 41.4539 199.502 35.039 191.016C27.1231 180.543 20.7145 168.058 21.3373 154.936C21.6923 147.273 25.3046 129.691 40.0837 127.199" stroke="#7C3AED" stroke-miterlimit="10" stroke-dasharray="12 12"/>
<path d="M127.052 133.471C124.767 134.898 117.766 139.702 116.041 149.297C114.964 151.67 71.8218 167.502 57.6841 182.068C49.0022 193.14 37.6048 223.288 36.1226 239.998H284.622C284.622 229.544 273.374 188.056 265.938 182.056C245.068 165.234 203.452 150.904 201.752 149.284C198.55 140.593 195.2 136.755 189.756 133.459L127.052 133.471Z" fill="#7BE0AD"/>
<path d="M116.396 151.035C116.016 153.851 115.937 156.7 116.16 159.533C116.363 162.349 116.752 165.149 117.324 167.913C117.868 170.676 118.577 173.404 119.448 176.081C120.275 178.751 121.303 181.355 122.525 183.869L120.27 184.492C120.022 181.053 120.842 177.622 122.618 174.667C123.502 173.205 124.593 171.879 125.857 170.729C127.125 169.572 128.574 168.631 130.148 167.944L131.194 167.502L131.674 168.48C132.708 170.596 133.877 172.644 135.174 174.611C136.459 176.597 137.867 178.501 139.39 180.312C140.897 182.181 142.548 183.813 144.261 185.551C145.133 186.422 145.894 187.397 146.528 188.455C147.171 189.514 147.455 190.753 147.337 191.987C147.263 190.804 146.828 189.671 146.092 188.741C145.356 187.821 144.521 186.985 143.6 186.249C141.696 184.747 139.888 183.126 138.188 181.396C136.485 179.64 134.908 177.766 133.467 175.788C132.034 173.801 130.736 171.719 129.581 169.558L131.107 170.094C129.786 170.718 128.568 171.539 127.495 172.53C126.419 173.527 125.495 174.678 124.754 175.944C123.216 178.456 122.478 181.376 122.637 184.318L123.085 190.847L120.382 184.922C119.189 182.264 118.2 179.519 117.424 176.711C116.667 173.919 116.089 171.083 115.692 168.219C115.295 165.358 115.124 162.471 115.182 159.583C115.207 156.693 115.615 153.818 116.396 151.035Z" fill="#332066"/>
<path d="M202.244 150.543C203.281 153.527 204.097 156.585 204.685 159.689C205.316 162.784 205.864 165.899 206.329 169.035C206.778 172.15 207.164 175.302 207.432 178.467C207.556 180.05 207.65 181.632 207.675 183.24C207.675 184.037 207.675 184.841 207.675 185.657C207.645 186.491 207.57 187.323 207.45 188.149L207.201 190.205L205.707 188.648C202.786 185.614 199.89 182.586 196.464 180.424C194.804 179.34 192.981 178.528 191.064 178.019C190.118 177.782 189.15 177.646 188.175 177.614C187.203 177.567 186.23 177.629 185.272 177.801C184.331 177.957 183.414 178.236 182.544 178.629C182.115 178.819 181.699 179.037 181.299 179.284C180.91 179.535 180.542 179.817 180.196 180.125C179.853 180.427 179.531 180.751 179.231 181.097C178.952 181.463 178.693 181.844 178.453 182.237C177.985 183.111 177.583 184.019 177.251 184.953C176.892 185.989 176.476 187.004 176.005 187.994C175.48 189.049 174.798 190.017 173.981 190.866C172.372 192.434 170.514 193.722 168.481 194.679L165.641 196.106L162.864 197.601L160.061 199.071C159.607 199.321 159.102 199.57 158.697 199.819C156.559 201.039 154.842 202.882 153.777 205.102C153.347 205.989 153.023 206.924 152.812 207.887C152.601 208.871 152.491 209.872 152.482 210.878C152.338 215.058 152.482 219.289 152.482 223.519C152.482 227.75 152.544 231.974 152.531 236.198C152.17 231.986 151.84 227.773 151.541 223.557C151.248 219.339 150.918 215.127 150.85 210.859C150.81 209.749 150.888 208.638 151.08 207.545C151.699 204.17 153.515 201.133 156.194 198.99C156.639 198.637 157.105 198.31 157.589 198.012C158.081 197.701 158.523 197.476 158.99 197.202L161.761 195.638L164.539 194.075L167.329 192.604C169.111 191.72 170.745 190.567 172.175 189.184C172.82 188.505 173.358 187.732 173.769 186.891C174.197 185.972 174.577 185.032 174.909 184.075C175.275 183.015 175.725 181.986 176.254 180.997C176.557 180.482 176.892 179.987 177.257 179.514C177.637 179.053 178.053 178.624 178.502 178.231C178.948 177.84 179.423 177.484 179.922 177.165C180.424 176.859 180.946 176.588 181.486 176.355C182.544 175.882 183.66 175.551 184.805 175.371C185.932 175.177 187.077 175.111 188.218 175.172C189.356 175.217 190.485 175.382 191.588 175.664C193.759 176.246 195.816 177.192 197.672 178.461C201.359 180.916 204.305 184.112 207.139 187.24L205.395 187.738C205.495 187.016 205.632 186.299 205.663 185.526C205.694 184.754 205.75 184 205.756 183.227C205.788 181.682 205.756 180.112 205.675 178.555C205.545 175.44 205.314 172.324 205.009 169.209C204.704 166.094 204.355 162.979 203.919 159.864C203.707 158.306 203.469 156.753 203.203 155.203C202.966 153.634 202.646 152.078 202.244 150.543Z" fill="#332066"/>
<path d="M157.433 210.348C159.056 210.348 160.372 209.032 160.372 207.408C160.372 205.783 159.056 204.467 157.433 204.467C155.809 204.467 154.493 205.783 154.493 207.408C154.493 209.032 155.809 210.348 157.433 210.348Z" fill="white"/>
<path d="M157.433 238.63C159.056 238.63 160.372 237.313 160.372 235.689C160.372 234.065 159.056 232.748 157.433 232.748C155.809 232.748 154.493 234.065 154.493 235.689C154.493 237.313 155.809 238.63 157.433 238.63Z" fill="white"/>
<path d="M127.451 123.087V149.292C128.908 159.061 134.364 165.26 140.99 177.752C143.532 182.55 150.059 180.581 158.099 193.434C163.258 188.573 168.663 183.979 174.292 179.671C175.991 178.359 177.388 176.698 178.39 174.799C181.554 168.812 186.848 158.201 189.8 149.336V120.707" fill="#B25E4F"/>
<path d="M126.367 123.087C129.674 136.233 132.932 143.454 146.172 155.273C153.901 162.183 165 161.697 170.636 157.055C179.412 149.828 178.49 149.336 189.825 120.707" fill="#332066"/>
<path d="M122.693 118.893C125.751 126.731 131.157 133.41 136.812 139.641C139.683 142.806 142.753 145.977 146.671 147.696C151.902 149.995 157.881 149.404 163.561 148.731C165.753 148.469 167.989 148.189 170.001 147.26C172.86 145.933 174.983 143.435 176.983 141.03L187.284 128.656C189.464 126.033 191.681 123.361 192.995 120.214C194.272 117.168 194.645 113.822 195 110.532L196.807 93.6169C198.195 80.8072 199.547 67.5926 195.86 55.244C194.228 49.7841 191.65 44.6533 188.243 40.0855C187.583 39.088 186.737 38.2271 185.752 37.5498C184.51 36.9174 183.151 36.5504 181.76 36.4719C170.973 35.1695 160.098 34.7527 149.243 35.2258C144.042 35.4564 138.805 35.8925 133.816 37.3816C131.616 37.9423 129.56 38.9661 127.787 40.3846C126.33 41.7743 125.116 43.3978 124.194 45.1882C117.966 56.1038 117.056 65.63 118.171 77.6983C119.429 91.3677 117.579 105.81 122.693 118.893Z" fill="#B25E4F"/>
<path d="M114.914 77.2933C116.284 80.6764 117.934 90.4207 119.305 93.8037C118.956 68.0349 122.848 48.5152 126.697 42.3658C132.271 33.4066 179.567 33.5623 186.219 40.7397C187.464 43.3627 193.281 51.3313 196.9 82.4832C197.685 78.8571 200.014 74.9444 200.687 70.9258C200.911 69.1924 200.879 67.4353 200.593 65.711C199.385 56.2907 196.763 38.5778 188.33 36.0046C177.232 3.38864 141.202 15.3198 137.945 16.0986C114.627 23.7557 113.712 35.0265 118.015 41.4749C113.73 46.5153 113.512 73.8354 114.914 77.2933Z" fill="#332066"/>
<path d="M197.293 80.9947C197.293 78.4091 198.245 73.2379 199.535 71.0261C199.723 70.6323 200.016 70.2981 200.382 70.0604C201.378 69.5308 202.593 70.59 202.742 71.7114C202.892 72.8329 202.393 73.9108 202.119 75.0011C201.698 76.8955 201.541 78.8391 201.652 80.7766C201.679 85.9817 201.385 91.1835 200.774 96.3526C200.72 97.1888 200.52 98.0091 200.182 98.7762C199.18 100.751 196.639 101.405 194.421 101.268L195.785 101.711" fill="#B25E4F"/>
<path d="M200.5 86.1645C200.659 88.7345 200.116 91.2994 198.93 93.5848C198.756 93.915 198.519 94.2702 198.152 94.32C197.957 94.3235 197.766 94.2579 197.615 94.1348C197.463 94.0117 197.36 93.8389 197.323 93.6471C197.265 93.2602 197.31 92.8645 197.454 92.5007C197.946 90.9618 198.843 89.3544 198.781 87.6971C198.731 86.3202 197.379 85.1177 197.361 83.9589C197.317 80.8749 200.369 84.1458 200.5 86.1645Z" fill="#332066"/>
<path d="M117.747 81.1C117.656 79.3316 117.18 77.6046 116.352 76.0398C115.523 74.4749 114.363 73.1102 112.952 72.041C112.658 71.7867 112.301 71.6166 111.918 71.5488C111.052 71.4616 110.367 72.365 110.292 73.2373C110.316 74.109 110.487 74.9705 110.797 75.7855C112.124 80.8134 109.078 86.5142 111.351 91.1932C111.887 92.2897 112.684 93.2492 113.151 94.3769C113.824 95.9843 113.774 97.8098 114.303 99.4671C114.74 100.73 115.509 101.852 116.529 102.714C117.55 103.575 118.784 104.146 120.102 104.364" fill="#B25E4F"/>
<path d="M117.355 86.1091C117.202 85.2445 116.867 84.4225 116.371 83.6979C116.12 83.3382 115.785 83.0447 115.396 82.8429C115.006 82.641 114.574 82.5368 114.135 82.5391C112.84 82.6263 111.899 83.9596 111.843 85.2618C111.881 86.5651 112.315 87.8259 113.089 88.8754C113.862 89.9198 114.51 91.051 115.02 92.246C115.173 92.9825 115.458 93.6852 115.86 94.3207C116.334 94.9064 117.355 95.1369 117.804 94.5326C118.252 93.9282 117.897 93.2865 117.523 92.732C117 91.9843 116.278 91.3551 115.835 90.5638C113.786 87.0437 117.087 87.025 117.355 86.1091Z" fill="#332066"/>
<path d="M171.134 124.861L150.127 127.154L137.684 114.681L181.05 114.625L171.134 124.861Z" fill="#332066"/>
<path d="M176.472 119.566C167.697 125.566 151.759 125.348 141.875 119.492L140.324 115.828H177.724L176.472 119.566Z" fill="white"/>
<path d="M159.756 132.707C170.823 132.707 174.566 127.604 181.056 114.602C166.046 127.922 153.652 128.639 137.684 114.658C144.784 132.084 153.067 132.707 159.756 132.707Z" fill="#FEA394"/>
<path d="M152.98 113.268C157.178 113.081 157.8 114.514 160.099 114.464C162.627 114.427 163.213 113.61 165.704 113.218C167.697 112.919 174.678 113.841 181.037 114.607C169.522 118.969 163.599 118.969 160.516 118.969C158.025 118.969 147.125 119.249 137.665 114.657C140.524 115.025 151.678 113.33 152.98 113.268Z" fill="#E58A7F"/>
<path d="M162.951 77.293C163.256 79.218 163.748 81.1085 164.42 82.9377C165.118 84.7232 165.931 86.461 166.856 88.14C167.784 89.8347 168.786 91.4982 169.795 93.1804C170.336 94.0282 170.825 94.9083 171.259 95.8158C171.72 96.7517 171.893 97.8032 171.757 98.8376C171.52 97.8997 171.08 97.0255 170.468 96.2769C169.901 95.5168 169.222 94.8065 168.599 94.0215C167.319 92.4696 166.187 90.8008 165.218 89.0372C164.226 87.2532 163.49 85.3383 163.032 83.3489C162.554 81.3615 162.526 79.2924 162.951 77.293Z" fill="#332066"/>
<path d="M162.833 107.573C163.501 106.743 164.261 105.993 165.1 105.336C165.924 104.636 166.842 104.053 167.827 103.604C168.365 103.377 168.931 103.22 169.509 103.137C169.82 103.108 170.132 103.108 170.443 103.137C170.688 103.147 170.928 103.209 171.147 103.318C171.431 103.463 171.652 103.706 171.77 104.003C171.846 104.228 171.865 104.469 171.826 104.704C171.787 104.939 171.691 105.16 171.546 105.349C171.421 105.517 171.265 105.659 171.085 105.766C170.988 105.819 170.886 105.861 170.78 105.891C170.691 105.912 170.602 105.926 170.512 105.934C170.211 105.931 169.914 105.868 169.638 105.748C169.362 105.629 169.112 105.454 168.905 105.237C169.381 105.29 169.864 105.222 170.306 105.037L170.406 104.962C170.421 104.942 170.432 104.919 170.437 104.894C170.459 104.844 170.474 104.792 170.481 104.738C170.481 104.626 170.437 104.501 170.425 104.595C170.43 104.65 170.457 104.702 170.499 104.738C170.53 104.769 170.499 104.769 170.449 104.782C170.4 104.794 170.038 104.856 169.827 104.913C169.402 105.032 168.986 105.18 168.581 105.355C167.728 105.716 166.843 106.196 165.884 106.601C164.906 107.037 163.883 107.363 162.833 107.573Z" fill="#332066"/>
<path d="M156.063 107.785C155.182 107.215 154.255 106.721 153.291 106.308C152.393 105.933 151.458 105.655 150.501 105.48C150.029 105.398 149.553 105.344 149.075 105.318H148.402C148.221 105.318 148.116 105.374 148.159 105.287C148.203 105.199 148.078 105.037 148.084 105.156C148.091 105.274 148.259 105.386 148.408 105.455C148.757 105.617 149.486 105.511 149.965 105.872C149.386 105.928 149.05 106.265 148.327 106.364C147.926 106.397 147.527 106.274 147.213 106.022C147.001 105.844 146.854 105.601 146.795 105.33C146.763 105.177 146.761 105.019 146.79 104.865C146.819 104.711 146.878 104.564 146.963 104.433C147.24 104.047 147.655 103.783 148.122 103.698L148.39 103.642H148.608C148.757 103.642 148.907 103.598 149.05 103.592C149.643 103.556 150.239 103.59 150.825 103.692C151.989 103.901 153.088 104.381 154.032 105.093C154.957 105.773 155.663 106.709 156.063 107.785Z" fill="#332066"/>
<path d="M138.829 85.7984C140.955 85.7984 142.678 84.0745 142.678 81.948C142.678 79.8215 140.955 78.0977 138.829 78.0977C136.704 78.0977 134.98 79.8215 134.98 81.948C134.98 84.0745 136.704 85.7984 138.829 85.7984Z" fill="#332066"/>
<path d="M147.985 83.2065C147.384 82.6557 146.66 82.2582 145.873 82.0476C145.126 81.7984 144.36 81.599 143.587 81.4246C142.043 81.057 140.473 80.7579 138.923 80.4775C137.372 80.1972 135.809 79.9417 134.208 79.7299C132.558 79.4866 130.893 79.3596 129.226 79.3499C130.625 78.1888 132.337 77.4689 134.146 77.2814C135.908 77.0409 137.698 77.0851 139.446 77.4122C141.21 77.7031 142.914 78.2819 144.491 79.1256C145.294 79.5659 146.037 80.1083 146.702 80.7392C147.04 81.0706 147.335 81.4432 147.58 81.8482C147.843 82.2522 147.984 82.7241 147.985 83.2065Z" fill="#332066"/>
<path d="M177.749 85.7984C179.875 85.7984 181.598 84.0745 181.598 81.948C181.598 79.8215 179.875 78.0977 177.749 78.0977C175.623 78.0977 173.9 79.8215 173.9 81.948C173.9 84.0745 175.623 85.7984 177.749 85.7984Z" fill="#332066"/>
<path d="M168.587 83.2064C168.592 82.7314 168.735 82.2682 168.998 81.8731C169.239 81.4668 169.532 81.0939 169.87 80.7641C170.533 80.1244 171.276 79.5735 172.081 79.1255C173.648 78.2736 175.343 77.6843 177.101 77.381C178.849 77.0539 180.638 77.0097 182.401 77.2501C184.21 77.4362 185.922 78.1562 187.321 79.3186C185.664 79.3293 184.009 79.4563 182.37 79.6987C180.781 79.9105 179.218 80.1659 177.649 80.4463C176.079 80.7267 174.535 81.0257 172.984 81.3933C172.212 81.574 171.452 81.7734 170.698 82.0164C169.909 82.2374 169.185 82.6456 168.587 83.2064Z" fill="#332066"/>
<path d="M191.251 73.691C185.359 62.1836 170.462 65.6726 168.083 68.0837C166.949 69.2363 167.08 72.7191 169.397 72.1397C174.84 70.7877 183.859 67.4981 191.251 73.691Z" fill="#332066"/>
<path d="M121.74 73.1251C123.54 68.552 130.048 66.3838 132.184 65.7359C135.684 64.6705 148.003 63.6113 146.758 70.0971C146.341 72.2653 138.257 69.985 136.718 69.8479C131.549 69.3869 125.975 71.5426 121.74 73.1251Z" fill="#332066"/>
<path d="M245.012 62.6152H228.781V97.929H245.012V62.6152Z" fill="#F6AE2D"/>
<path d="M262.793 46.3477H246.562V97.9289H262.793V46.3477Z" fill="#F6AE2D"/>
<path d="M280.58 29.2578H264.35V97.9289H280.58V29.2578Z" fill="#F6AE2D"/>
<path d="M298.361 12.1484H282.131V97.9344H298.361V12.1484Z" fill="#F6AE2D"/>
<path d="M223.631 97.9277H303.599" stroke="#F6AE2D" stroke-width="2" stroke-miterlimit="10"/>
<path d="M296.256 127.422C308.037 127.422 317.587 117.868 317.587 106.083C317.587 94.2979 308.037 84.7441 296.256 84.7441C284.475 84.7441 274.925 94.2979 274.925 106.083C274.925 117.868 284.475 127.422 296.256 127.422Z" fill="#7C3AED"/>
<path d="M296.256 128.83C308.814 128.83 318.995 118.646 318.995 106.083C318.995 93.5202 308.814 83.3359 296.256 83.3359C283.698 83.3359 273.518 93.5202 273.518 106.083C273.518 118.646 283.698 128.83 296.256 128.83Z" stroke="#7C3AED" stroke-miterlimit="10"/>
<path d="M296.256 124.731C306.551 124.731 314.897 116.382 314.897 106.083C314.897 95.7843 306.551 87.4355 296.256 87.4355C285.961 87.4355 277.616 95.7843 277.616 106.083C277.616 116.382 285.961 124.731 296.256 124.731Z" fill="#FEDAC9"/>
<path d="M288.826 107.479L295.484 112.196L306.103 98.3828" stroke="#7BE0AD" stroke-width="7" stroke-linecap="round" stroke-linejoin="round"/>
<path d="M75.6956 130.271L73.9518 135.71C73.7414 136.367 73.2911 136.92 72.6908 137.26C72.0905 137.599 71.3844 137.7 70.7132 137.542L66.5217 136.445C65.3143 138.393 63.8168 140.145 62.0811 141.641L63.8063 145.691C64.0719 146.321 64.0913 147.028 63.8607 147.672C63.63 148.316 63.166 148.85 62.5607 149.167L57.435 151.765C56.8215 152.069 56.118 152.135 55.4586 151.953C54.7992 151.77 54.2301 151.351 53.8601 150.775L51.5308 147.037C49.2875 147.562 46.9781 147.746 44.6799 147.585L43.0295 151.554C42.7584 152.188 42.2593 152.697 41.6307 152.981C41.0022 153.265 40.29 153.303 39.6352 153.086L34.1483 151.323C33.4902 151.118 32.9332 150.673 32.5872 150.076C32.2413 149.48 32.1316 148.775 32.2798 148.102L33.2825 143.797C31.3163 142.575 29.5444 141.065 28.0261 139.317L24.0277 141.155C23.3925 141.417 22.6831 141.434 22.0358 141.204C21.3885 140.974 20.8491 140.513 20.5213 139.909L17.8681 134.813C17.5601 134.201 17.4935 133.497 17.6816 132.838C17.8698 132.18 18.2988 131.617 18.8833 131.261L22.6201 128.975C22.0699 126.749 21.8599 124.453 21.9973 122.165L17.8806 120.464C17.241 120.204 16.7237 119.711 16.4326 119.084C16.1415 118.458 16.0981 117.744 16.3111 117.087L18.0612 111.76C18.269 111.103 18.7179 110.549 19.3175 110.209C19.9171 109.869 20.6231 109.769 21.2935 109.929L25.5348 110.9C26.7423 108.953 28.2397 107.2 29.9755 105.704L28.2503 101.648C27.9849 101.019 27.9657 100.313 28.1965 99.6702C28.4272 99.0274 28.891 98.4948 29.4959 98.1781L34.6216 95.5738C35.24 95.2722 35.9481 95.2104 36.6094 95.4002C37.2707 95.59 37.8383 96.0181 38.2027 96.6018L40.532 100.34C42.7761 99.8202 45.085 99.6375 47.3829 99.798L49.0333 95.8292C49.3032 95.1939 49.8022 94.6835 50.4311 94.3995C51.0601 94.1156 51.7728 94.0788 52.4276 94.2966L57.9208 96.0785C58.5813 96.2801 59.141 96.7243 59.4876 97.3218C59.8342 97.9193 59.9419 98.6258 59.7892 99.2996L58.8238 103.486C60.7884 104.696 62.5603 106.193 64.0803 107.929L68.1535 106.234C68.7899 105.975 69.4992 105.959 70.1468 106.188C70.7944 106.418 71.3351 106.878 71.6661 107.48L74.313 112.583C74.6212 113.192 74.6886 113.896 74.5016 114.553C74.3146 115.21 73.887 115.772 73.3041 116.128L69.5672 118.421C70.1052 120.648 70.3025 122.944 70.1527 125.23L74.2757 126.925C74.8818 127.211 75.3616 127.71 75.6235 128.327C75.8854 128.944 75.9111 129.636 75.6956 130.271ZM59.7892 128.346C62.461 120.209 56.9616 112.838 50.7523 108.876C42.525 106.228 33.5317 110.745 31.0155 118.9C29.8085 122.85 30.208 127.117 32.1275 130.775C34.0469 134.432 37.3312 137.184 41.2669 138.432C49.5066 141.124 57.1858 136.339 59.7892 128.346Z" fill="#D0CFEC"/>
<path d="M50.8084 108.788C53.7242 109.758 56.288 111.569 58.1769 113.994C60.0658 116.418 61.1954 119.347 61.4235 122.413C61.6516 125.478 60.968 128.542 59.4586 131.22C57.9493 133.897 55.6819 136.068 52.9418 137.459C50.2016 138.85 47.1114 139.399 44.0602 139.036C41.0089 138.674 38.1331 137.416 35.7948 135.422C33.4566 133.428 31.7604 130.786 30.92 127.829C30.0795 124.873 30.1323 121.734 31.0717 118.807C32.3725 114.868 35.1778 111.604 38.8755 109.727C42.5732 107.85 46.8629 107.513 50.8084 108.788ZM54.0159 126.308C54.6981 124.182 54.5082 121.873 53.4879 119.887C52.4677 117.901 50.7007 116.402 48.5757 115.72C46.4506 115.037 44.1417 115.227 42.1567 116.248C40.1717 117.269 38.6733 119.036 37.9911 121.162C37.6281 122.22 37.4797 123.34 37.5545 124.456C37.6293 125.572 37.9258 126.661 38.4268 127.661C38.9277 128.661 39.623 129.551 40.4719 130.279C41.3209 131.007 42.3064 131.558 43.3708 131.9C44.4353 132.243 45.5572 132.369 46.6711 132.272C47.785 132.175 48.8684 131.857 49.8579 131.337C50.8474 130.816 51.7231 130.103 52.4339 129.24C53.1446 128.376 53.6761 127.38 53.9972 126.308H54.0159Z" fill="#7C3AED"/>
</g>
<defs>
<clipPath id="clip0_8728_31961">
<rect width="330" height="240" fill="white"/>
</clipPath>
</defs>
</svg>
