<svg width="394" height="211" viewBox="0 0 394 211" fill="none" xmlns="http://www.w3.org/2000/svg">
<path d="M6.81889 145.187C32.7191 113.128 40.7046 62.672 25.1479 24.4554C23.3173 19.939 21.0271 15.3849 17.0117 12.66C12.9964 9.93508 6.82642 9.83722 3.83562 13.6611C1.22903 16.9958 2.01251 22.0692 4.58897 25.449C7.16543 28.8288 11.0527 30.8763 14.9023 32.6377C47.4019 47.4817 80.8958 48.5431 112.152 29.8977C122.616 23.6425 131.687 15.2569 142.158 9.00168C152.63 2.74642 165.361 -1.31084 177.023 2.22703C185.114 4.69602 191.744 10.5523 197.175 17.0334C211.67 34.3464 218.94 60.0374 208.024 79.8043C203.428 88.1296 192.836 95.1602 184.745 90.147C177.023 85.3671 178.372 72.6608 185.303 66.8121C192.233 60.9633 202.155 60.3385 211.203 61.0611C235.116 63.0376 257.864 72.2251 276.435 87.407C283.969 93.6096 290.749 100.761 298.885 106.225C318.337 119.338 345.367 120.994 365.542 109.018C385.716 97.0421 397.258 71.4489 391.442 48.7313C388.428 36.8455 378.755 25.0049 366.498 25.7501C357.526 26.2996 350.437 33.2775 344.26 39.7737C334.496 50.0962 324.758 60.4363 315.045 70.794" stroke="#7C3AED" stroke-miterlimit="10" stroke-dasharray="12 12"/>
<path d="M82.0476 198.918H16.7096L0.429688 112.082H82.0476V198.918Z" fill="#7BE0AD"/>
<path d="M20.951 198.918H16.7096L0.429688 112.089H3.66909C10.8862 122.214 13.6133 139.79 11.4964 156.885C21.2975 167.641 22.0885 192.233 20.951 198.918Z" fill="#332066"/>
<path d="M102.84 14.2708C105.53 13.1794 109.62 14.8429 112.415 15.4978C113.835 15.8065 115.168 16.4247 116.321 17.3082C117.473 18.1918 118.416 19.3189 119.082 20.6089C119.414 21.5238 119.854 22.3956 120.393 23.2059C121.712 24.8017 124.265 25.0501 125.403 26.7889C126.54 28.5277 125.787 30.8085 126.699 32.585C127.452 34.0905 129.245 34.8432 130.044 36.3487C131.324 38.7198 129.652 41.7458 130.473 44.3127C131.008 45.9837 132.492 47.143 133.577 48.528C134.592 49.8481 135.269 51.3962 135.549 53.0374C135.828 54.6787 135.702 56.3633 135.181 57.9448C134.923 58.5346 134.751 59.1581 134.669 59.7965C134.579 61.6031 136.311 62.958 136.869 64.6818C137.72 67.3164 135.694 70.2219 136.47 72.8791C136.967 74.5803 138.556 75.8901 138.677 77.6741C138.797 79.458 137.291 81.2872 137.841 83.0336C138.195 84.1551 139.272 84.8552 140.033 85.7509C140.711 86.5866 141.128 87.603 141.232 88.6737C141.337 89.7443 141.124 90.822 140.621 91.7729C140.131 92.6536 139.415 93.4138 139.016 94.3397C138.496 95.5817 139.671 95.8979 139.769 97.1022C139.717 100.294 139.611 103.358 139.558 106.549C139.569 107.67 139.488 108.791 139.317 109.899C139.028 110.985 138.794 112.086 138.617 113.196C138.474 115.002 139.031 117.11 137.78 118.42C136.959 119.27 135.648 119.413 134.624 120.023C133.268 120.821 132.545 122.334 131.558 123.561C130.571 124.788 128.891 125.819 127.482 125.104C126.412 124.57 125.975 123.237 124.898 122.658C123.248 121.747 120.619 122.921 119.625 121.34C118.826 120.106 119.964 118.488 119.783 117.035C119.429 114.197 114.931 114.114 113.485 111.645C112.694 110.298 113.025 108.582 112.573 107.091C111.82 104.592 109.108 103.327 106.592 102.575C104.076 101.822 101.318 101.423 99.4575 99.5637C97.2653 97.4184 96.8735 93.9106 94.6662 91.7804C93.7634 90.9748 92.6767 90.4026 91.5013 90.1139C90.3258 89.8252 89.0975 89.8288 87.9237 90.1244C85.5551 90.7303 83.443 92.0783 81.8969 93.9709C80.8423 95.1828 79.9458 96.6807 80.0738 98.2765C80.1341 99.0293 80.443 99.782 80.4882 100.602C80.669 104.163 75.7496 105.872 74.71 109.267C73.9039 111.879 75.5839 114.98 74.1826 117.328C73.7137 118.018 73.1242 118.617 72.4424 119.097C70.1673 120.914 67.862 122.67 65.5266 124.366C65.1558 122.828 65.1895 121.221 65.6246 119.699C64.3519 119.927 63.0396 119.704 61.9135 119.07C60.7874 118.435 59.9179 117.428 59.4546 116.222C58.8821 114.603 59.0026 112.564 57.6466 111.495C56.0194 110.207 53.1792 111.186 51.8684 109.568C50.6404 108.062 51.9287 105.804 51.5068 103.884C50.9794 101.506 48.0564 100.535 46.7833 98.4572C44.7342 95.2129 47.7476 90.8094 46.6703 87.0155C46.2409 85.4649 45.1636 84.1777 44.4102 82.74C43.6238 81.1865 43.2254 79.4659 43.249 77.7252C43.2727 75.9844 43.7176 74.2752 44.5458 72.7436C45.2992 71.4113 46.3162 70.1693 46.4593 68.6562C46.6703 66.3529 44.6814 64.2753 44.8472 61.9569C45.1109 58.1932 50.7308 56.4016 50.8137 52.6003C50.8664 50.2593 48.6591 48.0839 49.307 45.8257C49.7515 44.3202 51.3938 43.3642 51.9965 41.8813C52.5464 40.5189 52.1245 38.9908 51.9965 37.523C51.9194 35.9065 52.2485 34.2964 52.9539 32.8396C53.6592 31.3828 54.7182 30.1256 56.0344 29.1826C58.2945 27.6094 57.85 27.7373 58.0911 27.2782C58.5732 26.3899 58.1363 25.306 58.1664 24.2672C58.2417 21.4971 61.5264 20.1723 63.3344 18.0797C65.3986 15.6935 65.8958 11.7642 68.8263 10.5523C70.0769 10.048 71.4932 10.1985 72.8115 9.90496C74.386 9.55117 75.7345 8.59519 77.1885 7.89514C79.3643 6.8993 81.7472 6.43843 84.1378 6.55105C86.5283 6.66367 88.8572 7.34652 90.9296 8.5425C95.0956 10.9889 101.906 9.59634 102.84 14.2708Z" fill="#332066"/>
<path d="M176.992 206.769H147.189L130.895 176.027L137.125 98.412C145.412 101.973 153.495 106.971 155.529 114.317C159.085 127.114 160.222 165.752 160.222 165.752L176.992 206.769Z" fill="#7C3AED"/>
<path d="M155.725 206.769H147.19L130.895 176.027L146.587 139.474C146.432 144.967 147.123 150.45 148.636 155.733C148.811 156.383 148.824 157.067 148.673 157.723C148.522 158.379 148.212 158.988 147.77 159.497L142.323 165.767L140.515 185.542L155.725 206.769Z" fill="#332066"/>
<path d="M57.1495 203.908L39.5889 121.107C38.8669 117.685 39.2477 114.122 40.6768 110.93C42.1059 107.737 44.5099 105.078 47.5443 103.335L79.3432 84.2982L111.782 86.2252L140.583 100.083C144.001 101.782 146.752 104.575 148.398 108.016C150.045 111.457 150.492 115.35 149.668 119.075C146.429 133.655 145.743 147.152 146.256 155.733L140.824 164.089L136.304 208.274L57.1495 203.908Z" fill="#7C3AED"/>
<path d="M57.1488 203.908C57.1488 203.908 46.6019 194.221 46.5115 184.465C46.3533 166.836 57.0584 143.915 61.1039 141.619L57.7364 171.044L89.9346 183.441L57.1488 203.908Z" fill="#332066"/>
<path d="M89.874 139.67L85.3539 139.948C85.3721 140.141 85.4373 140.326 85.5436 140.487C85.65 140.649 85.7944 140.781 85.9641 140.874C86.4332 141.096 86.9559 141.18 87.4708 141.115C87.8823 141.091 88.2869 140.999 88.6687 140.844C88.9891 140.73 89.2911 140.571 89.5652 140.37H89.7912L89.874 141.74C89.4717 141.911 89.056 142.05 88.631 142.154C88.2054 142.253 87.7717 142.313 87.3352 142.334C86.3421 142.457 85.3354 142.265 84.4574 141.785C84.1229 141.571 83.8466 141.277 83.6533 140.931C83.4601 140.584 83.3558 140.195 83.35 139.798C83.3085 139.403 83.359 139.004 83.4976 138.631C83.6361 138.259 83.8589 137.924 84.1486 137.652C84.8499 137.059 85.7381 136.731 86.6572 136.726C87.4484 136.625 88.2497 136.81 88.9173 137.246C89.1894 137.47 89.4082 137.752 89.558 138.071C89.7079 138.39 89.7849 138.738 89.7836 139.09L89.874 139.67ZM87.8551 138.797C87.8528 138.648 87.821 138.502 87.7615 138.366C87.702 138.231 87.616 138.108 87.5085 138.006C87.2377 137.827 86.912 137.75 86.5894 137.788C86.261 137.794 85.9425 137.902 85.6779 138.096C85.5551 138.2 85.4584 138.331 85.3955 138.479C85.3327 138.626 85.3056 138.787 85.3163 138.947L87.8551 138.797Z" fill="white"/>
<path d="M94.8697 141.679C94.6523 141.744 94.4309 141.795 94.2068 141.83C93.9582 141.83 93.6794 141.898 93.3329 141.92C92.7356 142 92.1284 141.895 91.5926 141.619C91.3838 141.466 91.216 141.263 91.1043 141.03C90.9926 140.796 90.9404 140.538 90.9523 140.279L90.8016 137.788L89.9955 137.84L89.9277 136.681L90.7338 136.636L90.6359 135.131L92.6097 135.01L92.7001 136.516L94.5382 136.403L94.6136 137.554L92.7679 137.667L92.8884 139.557V140.046C92.8934 140.177 92.9323 140.304 93.0014 140.415C93.0649 140.529 93.1661 140.616 93.2877 140.663C93.4679 140.731 93.6616 140.754 93.8527 140.731C93.9854 140.715 94.1165 140.687 94.2444 140.648C94.3622 140.616 94.4759 140.57 94.5834 140.513H94.7492L94.817 141.687L94.8697 141.679Z" fill="white"/>
<path d="M99.2699 140.889C99.1645 140.964 99.0439 141.062 98.8857 141.168C98.7509 141.268 98.6072 141.357 98.4563 141.431C98.2654 141.519 98.066 141.587 97.8612 141.634C97.6385 141.688 97.4117 141.723 97.1831 141.74C96.6518 141.787 96.1203 141.651 95.6764 141.356C95.4818 141.227 95.3199 141.054 95.2035 140.851C95.0871 140.649 95.0195 140.422 95.006 140.189C94.9754 139.846 95.0631 139.504 95.2546 139.218C95.4681 138.94 95.7478 138.72 96.0682 138.578C96.4936 138.392 96.942 138.262 97.4016 138.194C97.9365 138.104 98.4864 138.021 99.0741 137.953C99.0746 137.82 99.0303 137.691 98.9484 137.586C98.8664 137.48 98.7515 137.406 98.622 137.374C98.2184 137.273 97.8005 137.243 97.3865 137.283C97.037 137.306 96.6922 137.377 96.362 137.494C95.9928 137.615 95.7442 137.705 95.6086 137.773H95.4278L95.345 136.478C95.5559 136.418 95.8874 136.335 96.3469 136.252C96.8113 136.155 97.2821 136.092 97.7557 136.064C98.5848 135.952 99.4288 136.058 100.204 136.373C100.456 136.499 100.667 136.694 100.814 136.935C100.96 137.176 101.036 137.453 101.033 137.735L101.259 141.356L99.3 141.476V140.912L99.2699 140.889ZM99.2172 140.069L99.1494 138.962L98.2906 139.098C98.0522 139.126 97.8175 139.179 97.59 139.256C97.4223 139.3 97.2708 139.392 97.153 139.519C97.1037 139.574 97.0667 139.638 97.0446 139.708C97.0225 139.779 97.0158 139.853 97.0249 139.926C97.0279 140.018 97.0457 140.11 97.0777 140.197C97.1137 140.276 97.1744 140.342 97.2509 140.385C97.346 140.443 97.4505 140.484 97.5598 140.505C97.7425 140.526 97.9271 140.526 98.1098 140.505C98.3124 140.492 98.5112 140.443 98.6974 140.362C98.8856 140.294 99.0612 140.194 99.2172 140.069Z" fill="white"/>
<path d="M107.835 139.256C107.849 139.532 107.786 139.807 107.653 140.05C107.52 140.293 107.322 140.495 107.082 140.633C106.398 141.043 105.619 141.268 104.822 141.288C104.319 141.32 103.815 141.305 103.315 141.243C102.948 141.194 102.585 141.116 102.23 141.01L102.14 139.602H102.328L102.675 139.783C102.858 139.861 103.047 139.926 103.24 139.978C103.472 140.045 103.709 140.096 103.948 140.129C104.226 140.156 104.506 140.156 104.784 140.129C105.075 140.125 105.363 140.072 105.636 139.971C105.816 139.88 105.907 139.767 105.899 139.624C105.897 139.566 105.879 139.509 105.847 139.46C105.815 139.411 105.771 139.372 105.718 139.346C105.515 139.272 105.302 139.229 105.086 139.218C104.95 139.218 104.747 139.18 104.491 139.165C104.234 139.15 104.008 139.12 103.805 139.09C103.344 139.038 102.906 138.861 102.539 138.578C102.398 138.456 102.282 138.306 102.201 138.138C102.119 137.97 102.073 137.786 102.065 137.6C102.06 137.331 102.127 137.065 102.259 136.831C102.392 136.596 102.585 136.402 102.818 136.267C103.5 135.853 104.28 135.629 105.078 135.62C105.52 135.591 105.964 135.603 106.404 135.658C106.743 135.695 107.078 135.761 107.406 135.853L107.489 137.201H107.316C106.989 137.034 106.642 136.913 106.283 136.839C105.911 136.754 105.528 136.721 105.146 136.741C104.873 136.754 104.603 136.81 104.347 136.907C104.136 136.997 104.038 137.11 104.046 137.253C104.046 137.31 104.061 137.366 104.09 137.415C104.12 137.464 104.162 137.505 104.212 137.532C104.435 137.63 104.676 137.684 104.92 137.69L105.583 137.75C105.816 137.75 106.05 137.795 106.291 137.833C106.721 137.883 107.129 138.046 107.474 138.307C107.598 138.43 107.695 138.579 107.757 138.742C107.82 138.906 107.846 139.081 107.835 139.256Z" fill="white"/>
<path d="M114.69 138.172L110.17 138.443C110.187 138.635 110.252 138.821 110.358 138.982C110.465 139.144 110.61 139.276 110.78 139.369C111.249 139.59 111.772 139.674 112.287 139.609C112.698 139.585 113.103 139.494 113.484 139.338C113.806 139.228 114.109 139.068 114.381 138.864H114.607L114.69 140.234C113.886 140.584 113.026 140.788 112.151 140.836C111.157 140.957 110.15 140.762 109.273 140.279C108.939 140.064 108.663 139.769 108.471 139.421C108.279 139.072 108.177 138.682 108.173 138.285C108.133 137.889 108.185 137.49 108.325 137.118C108.465 136.746 108.689 136.411 108.979 136.139C109.676 135.543 110.563 135.214 111.48 135.213C112.272 135.108 113.075 135.293 113.74 135.733C114.013 135.957 114.233 136.238 114.384 136.557C114.535 136.876 114.614 137.224 114.614 137.577L114.652 138.187L114.69 138.172ZM112.671 137.291C112.661 136.991 112.534 136.708 112.317 136.501C112.049 136.321 111.725 136.244 111.405 136.282C111.073 136.287 110.751 136.398 110.486 136.598C110.364 136.701 110.269 136.831 110.207 136.977C110.145 137.124 110.12 137.283 110.132 137.442L112.671 137.291Z" fill="white"/>
<path d="M117.735 140.377L115.761 140.498L115.316 133.113L117.283 133L117.735 140.377Z" fill="white"/>
<path d="M125.034 137.539L120.514 137.818C120.533 138.01 120.599 138.195 120.705 138.356C120.812 138.517 120.955 138.65 121.124 138.744C121.593 138.966 122.116 139.049 122.631 138.985C123.044 138.955 123.45 138.864 123.836 138.714C124.154 138.599 124.453 138.439 124.725 138.239H124.951L125.034 139.609C124.632 139.779 124.216 139.915 123.791 140.016C123.366 140.118 122.932 140.181 122.495 140.204C121.505 140.328 120.5 140.135 119.625 139.655C119.288 139.439 119.011 139.143 118.817 138.794C118.624 138.444 118.521 138.052 118.518 137.652C118.477 137.258 118.528 136.859 118.668 136.488C118.808 136.117 119.032 135.784 119.324 135.515C120.018 134.914 120.907 134.586 121.825 134.589C122.616 134.479 123.421 134.664 124.085 135.108C124.358 135.332 124.578 135.613 124.729 135.932C124.88 136.251 124.959 136.599 124.959 136.952L124.996 137.554L125.034 137.539ZM123.015 136.659C122.997 136.372 122.871 136.103 122.661 135.906C122.395 135.723 122.07 135.645 121.75 135.688C121.419 135.694 121.098 135.802 120.83 135.996C120.709 136.1 120.613 136.231 120.551 136.379C120.49 136.527 120.464 136.687 120.476 136.847L123.015 136.689V136.659Z" fill="white"/>
<path d="M129.305 139.79C128.801 139.824 128.295 139.796 127.798 139.707C127.38 139.638 126.978 139.49 126.615 139.271C126.283 139.062 126.004 138.778 125.802 138.443C125.597 138.07 125.481 137.656 125.463 137.231C125.421 136.786 125.494 136.338 125.674 135.929C125.84 135.554 126.099 135.227 126.427 134.98C126.76 134.72 127.142 134.528 127.549 134.416C127.985 134.283 128.435 134.205 128.89 134.182C129.277 134.151 129.667 134.166 130.051 134.227C130.394 134.282 130.732 134.368 131.06 134.483L131.15 135.936H130.864C130.772 135.87 130.677 135.81 130.578 135.755C130.448 135.673 130.309 135.605 130.164 135.552C130.002 135.49 129.836 135.442 129.666 135.409C129.459 135.382 129.249 135.382 129.041 135.409C128.826 135.407 128.612 135.452 128.415 135.539C128.218 135.627 128.043 135.756 127.9 135.917C127.757 136.078 127.651 136.268 127.588 136.474C127.524 136.68 127.506 136.897 127.534 137.11C127.533 137.325 127.577 137.537 127.664 137.733C127.751 137.929 127.879 138.104 128.039 138.247C128.401 138.514 128.851 138.632 129.297 138.578C129.52 138.564 129.74 138.524 129.953 138.458C130.121 138.409 130.282 138.341 130.435 138.255C130.545 138.193 130.649 138.12 130.744 138.036C130.834 137.961 130.924 137.886 130.992 137.818H131.271L131.361 139.278C130.717 139.598 130.015 139.782 129.297 139.82L129.305 139.79Z" fill="white"/>
<path d="M136.297 139.165C136.077 139.229 135.853 139.28 135.627 139.316C135.386 139.316 135.107 139.384 134.753 139.406C134.159 139.483 133.556 139.38 133.02 139.113C132.81 138.959 132.641 138.755 132.529 138.52C132.417 138.285 132.366 138.025 132.38 137.765L132.229 135.274L131.423 135.326L131.348 134.167L132.154 134.122L132.063 132.617L134.03 132.496L134.12 134.002L135.973 133.889L136.049 135.048L134.203 135.153L134.323 137.043V137.539C134.33 137.668 134.369 137.792 134.436 137.901C134.5 138.014 134.601 138.102 134.723 138.149C134.903 138.216 135.097 138.24 135.288 138.217C135.421 138.201 135.552 138.174 135.679 138.134C135.796 138.1 135.909 138.057 136.018 138.006H136.184L136.252 139.18L136.297 139.165Z" fill="white"/>
<path d="M78.1987 141.484L78.0932 139.768L78.0254 138.593L77.935 137.148L77.8823 135.861L75.916 135.981L76.3304 142.831L78.2966 142.711L78.1987 141.484Z" fill="white"/>
<path d="M82.1613 138.601C81.8651 138.174 81.4921 137.807 81.0614 137.517L80.8881 137.411L78.8691 137.532V138.096L79.0499 138.187C79.2168 138.273 79.3757 138.374 79.5246 138.488C79.8461 138.729 80.1045 139.044 80.2779 139.406C80.3591 139.6 80.4075 139.806 80.421 140.016C80.438 140.227 80.415 140.439 80.3532 140.641C80.2896 140.833 80.2037 141.018 80.0971 141.19C79.9905 141.356 79.864 141.507 79.7204 141.642C79.5829 141.775 79.4342 141.896 79.276 142.003L79.1102 142.124V142.688L81.1367 142.568L81.2799 142.44C81.6745 142.099 82.006 141.691 82.2592 141.235C82.4602 140.824 82.5535 140.368 82.5304 139.911C82.5243 139.449 82.397 138.998 82.1613 138.601Z" fill="white"/>
<path d="M95.9611 195.53C94.0476 200.092 92.1943 202.343 87.2298 201.357C84.7588 200.86 80.4496 194.477 81.4591 191.511C84.6081 182.478 93.5127 184.631 95.9611 185.15C100.112 186.046 97.1363 192.632 95.9611 195.53Z" fill="#332066"/>
<path d="M96.3544 201.349L79.0273 196.253L86.2369 184.458L101.161 188.432L108.852 185.85L120.07 185.007L131.212 190.412L136.794 195.071L133.781 196.065L135.22 196.818L131.739 198.067L129.871 197.314L126.519 198.82L124.032 198.105L121.373 199.46L111.436 198.338L110.517 199.234C109.915 199.822 109.201 200.282 108.416 200.588C107.632 200.893 106.794 201.037 105.952 201.01L102.939 200.92L96.3544 201.349Z" fill="#B25E4F"/>
<path d="M119.203 188.349L128.289 192.489L132.748 195.651" stroke="#332066" stroke-miterlimit="10"/>
<path d="M115.391 190.502L124.928 194.334L128.288 196.818" stroke="#332066" stroke-miterlimit="10"/>
<path d="M111.436 193.664L121.839 196.885L123.542 197.879" stroke="#332066" stroke-miterlimit="10"/>
<path d="M53.2992 173.009L95.9614 185.15C87.6746 184.789 83.9078 196.065 87.2301 201.357L22.9769 197.292C16.0837 195.862 13.334 190.367 16.4905 182.629C33.358 157.035 27.3162 111.668 47.5813 103.35L61.1416 141.619L53.2992 173.009Z" fill="#7C3AED"/>
<path d="M112.536 97.7873C113.169 104.125 110.05 109.763 104.551 114.95C91.8642 110.945 80.9105 105.593 74.3262 96.8163C78.3491 85.2768 82.613 82.3862 80.9707 64.6818H110.404L112.536 97.7873Z" fill="#B25E4F"/>
<path d="M86.425 80.0979C83.5547 76.8988 82.6582 67.4444 82.6582 67.4444L110.381 64.6818L111.783 86.2252C111.783 90.5911 96.3993 91.246 86.425 80.0979Z" fill="#332066"/>
<path d="M113.967 28.2191C117.425 29.9842 120.199 32.8461 121.854 36.3562C123.971 41.1512 123.361 46.6311 123.904 51.8401C124.152 54.2865 124.657 56.7103 124.71 59.1718C124.808 64.6517 122.57 69.8682 120.385 74.8965C118.962 78.1559 117.251 81.6711 113.974 83.0712C111.277 84.1928 108.219 83.5379 105.379 82.8755L89.4076 79.1118C88.6377 78.9844 87.8943 78.73 87.2079 78.3591C86.3303 77.7071 85.6309 76.8451 85.1738 75.8525C83.3463 72.5186 81.9104 68.9849 80.8948 65.3216C81.0376 65.4623 81.1469 65.6332 81.2149 65.8217C81.2828 66.0102 81.3076 66.2116 81.2873 66.4109C81.2671 66.6102 81.2024 66.8025 81.0979 66.9736C80.9935 67.1446 80.852 67.2901 80.6838 67.3992C80.3294 67.6007 79.9342 67.7201 79.5274 67.7488C79.1207 67.7774 78.7126 67.7146 78.3334 67.5648C75.6364 66.7293 73.8133 64.0495 73.2634 61.287C72.7134 58.5244 73.1202 55.664 73.5647 52.8789C73.6105 51.9724 73.9608 51.1079 74.5591 50.4249C75.2371 49.8303 76.5555 49.9432 76.8192 50.8164C76.7589 45.6902 76.7288 40.3985 78.7025 35.6713C80.5486 31.2976 83.9598 27.7684 88.2701 25.7727C92.7902 23.7027 97.2048 23.9586 101.943 24.8996C106.057 25.7351 110.125 26.1341 113.967 28.2191Z" fill="#B25E4F"/>
<path d="M78.7562 63.643C78.9521 63.786 79.2459 63.786 79.4041 63.9742C79.5623 64.1624 79.4041 64.6667 79.1178 64.8022C78.7878 64.8962 78.4361 64.8803 78.1159 64.7571C77.6036 64.6216 77.016 64.3882 76.8728 63.8839C76.8314 63.6777 76.8314 63.4653 76.8728 63.2591C76.9632 62.3257 76.7975 61.0009 77.6262 60.3686C77.8944 60.1505 78.2352 60.0418 78.5802 60.0641C78.9253 60.0864 79.2492 60.2382 79.487 60.489C81.1745 62.0246 77.5735 62.7698 78.7562 63.643Z" fill="#332066"/>
<path d="M118.736 69.0929C118.736 69.0929 116.476 73.3459 113.463 73.5265C110.284 73.7222 101.801 68.438 101.801 68.438L112.596 68.9047L118.736 69.0929Z" fill="#332066"/>
<path d="M117.658 70.0714C114.215 71.3962 108.738 70.9822 104.926 69.6348C104.764 69.5847 104.622 69.4852 104.519 69.3502C104.416 69.2152 104.358 69.0516 104.354 68.8821L104.301 68.2573L118.17 68.4003V69.1531C118.17 69.337 118.122 69.5178 118.033 69.6785C117.943 69.8391 117.814 69.9744 117.658 70.0714Z" fill="white"/>
<path d="M106.962 73.1351C109.531 74.7008 116.808 77.2074 118.737 69.0929C115.279 74.1588 107.225 71.5995 101.816 68.438C103.188 70.3425 104.94 71.9419 106.962 73.1351Z" fill="#FEA394"/>
<path d="M109.725 67.1583C110.739 66.8652 111.805 66.806 112.844 66.9852C113.24 67.1206 113.645 67.2238 114.057 67.2938C114.524 67.3389 115.21 66.8723 115.677 66.8723C117.184 66.8723 118.193 68.5433 119.692 68.8068C116.732 69.6574 117.048 69.1154 113.891 69.1531C111.202 69.1531 104.256 69.7025 101.838 68.4379C104.339 68.4304 108.317 67.4594 109.725 67.1583Z" fill="#E58A7F"/>
<path d="M114.155 48.5431C113.904 51.7652 114.818 54.9703 116.732 57.576C115.363 56.5668 114.368 55.1329 113.902 53.4986C113.436 51.8642 113.525 50.1215 114.155 48.5431Z" fill="#332066"/>
<path d="M116.597 63.0258C116.606 63.2181 116.542 63.4066 116.416 63.5527C116.298 63.7058 116.143 63.8252 115.964 63.899C115.722 63.9946 115.453 63.9946 115.211 63.899C115.04 63.8431 114.886 63.7447 114.763 63.613C114.641 63.4813 114.553 63.3207 114.51 63.1462V63.086C114.487 62.9171 114.504 62.745 114.56 62.5841C114.617 62.4231 114.71 62.2778 114.834 62.1601C114.998 61.9962 115.208 61.8859 115.437 61.844C115.715 61.7839 116.002 61.7839 116.28 61.844C116.523 61.891 116.759 61.9694 116.981 62.0774C117.213 62.1909 117.431 62.3324 117.629 62.4989C117.417 62.6483 117.187 62.7697 116.943 62.8602C116.725 62.9355 116.514 63.0183 116.318 63.0785C116.162 63.1245 116.008 63.1798 115.859 63.2441C115.806 63.2968 115.813 63.2441 115.859 63.2441C115.903 63.2033 115.936 63.1528 115.957 63.0966C115.978 63.0404 115.986 62.98 115.979 62.9204V62.8602C115.979 62.7774 115.821 62.6344 115.761 62.6645C115.7 62.6946 115.761 62.7322 115.813 62.7774C116.049 62.9268 116.319 63.0124 116.597 63.0258Z" fill="#332066"/>
<path d="M109.252 62.9655C109.586 62.5904 109.996 62.2894 110.454 62.082C110.912 61.8745 111.408 61.7652 111.911 61.7612C112.277 61.7533 112.637 61.8556 112.943 62.0547C113.166 62.2068 113.327 62.4339 113.395 62.6946C113.424 62.8231 113.427 62.9563 113.402 63.0858C113.377 63.2152 113.326 63.3383 113.252 63.4473C113.189 63.5443 113.105 63.6272 113.008 63.6906C112.911 63.7541 112.802 63.7968 112.687 63.8161C112.535 63.8427 112.38 63.8427 112.228 63.8161C112.082 63.8047 111.941 63.7548 111.821 63.6715C111.7 63.5881 111.604 63.4744 111.542 63.3419C111.76 63.3572 111.975 63.29 112.145 63.1537C112.22 63.108 112.288 63.0523 112.348 62.9881C112.416 62.9129 112.311 62.9204 112.288 62.9354C112.263 62.9439 112.243 62.9604 112.229 62.9823C112.215 63.0043 112.209 63.0302 112.213 63.0559C112.213 63.1311 112.25 63.1838 112.213 63.1989C112.175 63.2139 112.069 63.1989 111.926 63.1989C111.515 63.2612 111.099 63.2864 110.683 63.2742C110.189 63.2757 109.701 63.1705 109.252 62.9655Z" fill="#332066"/>
<path d="M103.835 54.2187C105.075 54.2187 106.08 53.2144 106.08 51.9756C106.08 50.7367 105.075 49.7324 103.835 49.7324C102.595 49.7324 101.59 50.7367 101.59 51.9756C101.59 53.2144 102.595 54.2187 103.835 54.2187Z" fill="#332066"/>
<path d="M96.0605 51.7196C96.7514 50.9404 97.6159 50.3345 98.5843 49.9507C99.5599 49.5469 100.591 49.2931 101.643 49.1979C102.784 49.0543 103.94 49.2954 104.927 49.8829L105.312 50.1464L105.643 50.5002C105.863 50.7399 106.028 51.0252 106.125 51.3357C106.23 51.629 106.251 51.9455 106.185 52.2499C106.12 52.5543 105.972 52.8346 105.756 53.0595C105.577 52.8502 105.416 52.6261 105.274 52.3896C105.093 52.2164 105.018 52.0433 104.89 51.9153C104.762 51.7874 104.694 51.6368 104.536 51.539L104.347 51.3734C104.262 51.3327 104.179 51.2875 104.099 51.2379C103.346 50.8723 102.524 50.6721 101.688 50.6507C100.763 50.6068 99.8368 50.6981 98.9383 50.9217C98.0029 51.1337 97.0971 51.4598 96.2413 51.8927L96.0605 51.7196Z" fill="#332066"/>
<path d="M121.093 53.737C122.067 53.737 122.856 52.9484 122.856 51.9756C122.856 51.0028 122.067 50.2142 121.093 50.2142C120.119 50.2142 119.33 51.0028 119.33 51.9756C119.33 52.9484 120.119 53.737 121.093 53.737Z" fill="#332066"/>
<path d="M116.008 51.9229C116.157 51.1382 116.606 50.4421 117.258 49.9808C117.919 49.4952 118.701 49.2033 119.518 49.1377C120.402 49.0607 121.28 49.3307 121.967 49.8905C122.14 50.0187 122.297 50.1679 122.434 50.3346C122.586 50.4802 122.709 50.654 122.795 50.8464C122.893 51.0537 122.943 51.2799 122.943 51.5089C122.943 51.7378 122.893 51.964 122.795 52.1713C122.399 52.0879 122.021 51.9323 121.681 51.7121C121.468 51.5226 121.241 51.349 121.003 51.1927C120.547 50.8956 120.033 50.7005 119.496 50.6206C118.901 50.5533 118.299 50.6496 117.756 50.8991C117.154 51.1554 116.621 51.547 116.196 52.0433L116.008 51.9229Z" fill="#332066"/>
<path d="M91.4414 48.099C92.5574 46.6415 93.9436 45.4122 95.5246 44.4783C96.5549 43.985 97.6596 43.6646 98.7941 43.5298C99.9919 43.3642 104.61 43.3191 106.41 44.6439C107.013 45.088 106.817 46.3978 106.41 46.9021C104.068 47.301 101.032 45.3364 98.5907 45.8031C96.0067 46.2848 93.6487 46.744 91.4414 48.099Z" fill="#332066"/>
<path d="M116.175 46.7139C117.426 46.1945 118.533 45.359 119.799 44.8622C121.064 44.3654 122.624 44.2675 123.663 45.1332C123 44.0643 122.157 42.8749 120.899 42.7771C120.386 42.7319 115.994 43.6352 115.15 44.6439C114.6 45.2988 114.48 47.414 116.175 46.7139Z" fill="#332066"/>
<path d="M78.7939 54.5198C79.8365 55.113 80.7222 55.9463 81.3774 56.9506C82.0326 57.9548 82.4383 59.1008 82.5607 60.2934C83.4345 57.0942 82.41 53.7295 81.8826 50.4551C81.3553 47.1806 81.5436 43.3341 84.0975 41.2114C85.2727 40.2404 86.7794 39.7812 88.1505 39.1188C89.5216 38.4564 90.8852 37.4176 91.2242 35.9272C91.4351 34.9787 91.2242 33.9099 91.7515 33.0969C92.7535 31.5914 95.1868 32.3968 96.8216 31.5914C97.6277 31.1925 98.1776 30.4171 98.931 29.9279C100.227 29.0923 101.892 29.1751 103.451 29.1751C105.01 29.1751 106.758 28.859 107.587 27.5643C109.395 29.288 112.356 29.0697 114.412 30.5075C115.331 31.1473 116.009 32.0732 116.883 32.7657C117.757 33.4582 118.699 33.8797 119.497 34.5798C121.757 36.5595 122.029 40.007 123.935 42.3179C124.914 40.0597 124.146 37.4176 122.963 35.2572C121.78 33.0969 120.206 31.1322 119.415 28.8063C119.053 27.7223 118.834 26.5481 118.043 25.7125C117.426 25.1621 116.696 24.7535 115.904 24.5157L107.745 21.4445C103.861 19.9104 99.5723 19.7275 95.571 20.9251C92.0161 22.0237 88.5588 23.416 85.2351 25.0877C82.5216 26.3568 80.021 28.0377 77.8221 30.0709C75.6188 32.1259 74.1524 34.8474 73.6485 37.8166C73.5091 39.2503 73.494 40.6934 73.6033 42.1298C73.6485 43.4696 73.6636 44.817 73.6033 46.1644C73.5587 48.0091 73.3622 49.847 73.0157 51.6594C72.4733 54.3768 71.509 56.9888 71.0118 59.7137C70.5146 62.4387 70.5899 65.3969 71.9912 67.7831C72.4959 68.6488 73.4979 69.4994 74.4094 69.0176C75.0724 68.6488 75.1628 67.753 75.1628 67.0003C75.1628 63.9893 74.3341 60.9106 74.8012 57.8996C74.907 56.8025 75.3671 55.7695 76.112 54.9564C76.4332 54.5756 76.8802 54.3223 77.3721 54.2422C77.864 54.1621 78.3684 54.2606 78.7939 54.5198Z" fill="#332066"/>
<path d="M310.547 198.918H375.892L392.172 112.082H310.547V198.918Z" fill="#7BE0AD"/>
<path d="M371.688 198.918H375.93L392.21 112.089H388.963C381.746 122.214 379.018 139.79 381.143 156.885C371.297 167.641 370.506 192.233 371.688 198.918Z" fill="#332066"/>
<path d="M331.301 72.2242C337.719 76.6504 340.288 80.0226 346.488 84.7573C351.046 88.2425 355.709 91.8406 358.753 96.7033C361.269 100.723 362.519 105.375 363.687 109.974C366.919 122.771 369.593 136.026 368.365 149.207C367.16 162.101 366.859 174.928 363.597 187.476C363.325 188.936 362.73 190.317 361.856 191.518C360.003 193.724 356.734 193.98 353.856 193.777C348.876 193.393 344.025 192.075 339.128 191.067C321.047 187.348 302.349 187.898 283.877 188.462C285.821 177.171 287.757 165.489 285.293 154.265C283.485 145.985 284.216 139.534 282.604 131.239C280.193 118.789 282.31 114.348 290.816 104.938C297.49 97.5464 303.344 82.6497 311.239 76.5675C311.239 76.545 326.683 69.0402 331.301 72.2242Z" fill="white"/>
<path d="M327.633 70.4327H324.333L322.826 66.8949C323.323 65.8184 324.416 65.1636 326.638 65.2915L327.633 70.4327Z" fill="#332066"/>
<path d="M291.977 73.7599C294.948 78.1129 297.131 82.9539 298.425 88.0619C299.02 90.4255 299.42 92.9246 298.772 95.2731C298.124 97.6217 296.301 99.8724 296.173 102.424C297.537 102.774 298.973 102.735 300.316 102.311C307.689 100.488 314.443 96.7385 319.888 91.4477C325.333 86.1568 329.272 79.5146 331.301 72.2017C325.681 71.0048 322.48 64.8399 321.945 59.1266C321.41 53.4133 322.743 47.6549 322.359 41.9265L291.977 73.7599Z" fill="#F8895D"/>
<path d="M298.772 95.2806C298.316 96.3584 297.924 97.4618 297.597 98.5852C297.46 99.0918 297.379 99.6117 297.356 100.136C297.356 100.595 297.491 100.964 297.627 100.941C297.69 100.937 297.753 100.937 297.815 100.941C297.958 100.949 298.102 100.949 298.245 100.941C298.687 100.904 299.123 100.82 299.548 100.693C300.551 100.393 301.529 100.013 302.471 99.5562C306.452 97.5482 310.235 95.1717 313.771 92.4579C317.377 89.7938 320.745 86.8219 323.836 83.5755C326.849 80.2936 329.584 76.7256 331.272 72.2242C331.407 73.4359 331.392 74.6596 331.226 75.8675C331.069 77.0967 330.788 78.307 330.39 79.4806C329.595 81.8318 328.49 84.0669 327.106 86.1273C324.336 90.192 320.895 93.7557 316.928 96.6657C314.967 98.1312 312.897 99.4448 310.735 100.595C308.549 101.777 306.244 102.724 303.857 103.418C302.6 103.784 301.307 104.011 300 104.095C299.26 104.144 298.518 104.091 297.793 103.937C297.355 103.836 296.934 103.674 296.542 103.455C296.191 103.254 295.886 102.982 295.646 102.657C295.407 102.332 295.237 101.96 295.148 101.566C295.113 101.337 295.095 101.105 295.096 100.873C295.113 100.476 295.187 100.083 295.314 99.7067C295.547 99.0837 295.861 98.4941 296.248 97.9529C296.978 96.9632 297.826 96.0659 298.772 95.2806Z" fill="#7C3AED"/>
<path d="M291.977 73.7598C293.32 75.7271 294.504 77.7987 295.517 79.9549C296.745 82.5594 307.149 67.482 306.381 59.1492L291.977 73.7598Z" fill="#332066"/>
<path d="M274.754 27.346C272.754 31.1839 271.369 35.3113 270.648 39.578C270.449 40.3652 270.462 41.191 270.686 41.9717C271.04 42.9051 271.921 43.5299 272.501 44.3428C274.121 46.601 270.52 54.7156 269.594 56.7329C269.059 57.9072 271.1 59.3223 273.692 59.917C274.799 61.7085 273.993 63.4172 274.332 63.6807C277.526 65.9389 275.892 70.8091 277.73 74.2642C279.334 77.2752 283.583 77.516 286.898 76.7031C293.256 75.16 299.938 71.4791 303.728 66.0819C303.895 65.8455 304.039 65.5934 304.157 65.3292L308.233 55.9877L318.674 44.5912L295.079 19.6003L274.754 27.346Z" fill="#F8895D"/>
<path d="M284.54 62.2354L278.137 65.9238L275.801 65.9916C275.854 65.2388 275.153 64.8474 274.867 64.0796C278.162 63.9171 281.417 63.2964 284.54 62.2354Z" fill="#332066"/>
<path d="M281.874 63.4623C279.817 64.3296 277.625 64.8387 275.396 64.9678C275.275 64.9738 275.156 64.9451 275.052 64.885C274.948 64.8249 274.863 64.7361 274.808 64.6291L274.529 64.057L282.56 62.8451L281.874 63.4623Z" fill="white"/>
<path d="M285.173 61.7687L282.725 62.4386C281.713 62.7774 280.649 62.9329 279.583 62.8978C278.28 62.7773 277.022 62.0848 275.734 62.2881C275.416 62.3651 275.094 62.4205 274.769 62.4537C274.465 62.4067 274.154 62.4246 273.858 62.5064C272.886 62.7623 273.564 64.0118 274.167 64.2301C275.508 64.7796 281.949 64.1248 285.173 61.7687Z" fill="#DB663E"/>
<path d="M277.159 67.753C279.268 67.4368 283.622 62.9881 284.896 61.9418C284.014 62.5666 280.767 64.0043 279.825 64.5388C278.115 65.5173 274.334 65.3819 274.552 66.3303C274.868 67.9863 276.337 67.8809 277.159 67.753Z" fill="#ED704F"/>
<path d="M274.287 58.8782C274.106 59.0256 273.906 59.1472 273.692 59.2395C273.457 59.3542 273.2 59.4183 272.938 59.4277C272.823 59.4303 272.709 59.3979 272.612 59.3348C272.515 59.2716 272.44 59.1807 272.396 59.0739C272.342 58.9411 272.342 58.7926 272.396 58.6599C272.431 58.5774 272.48 58.5012 272.539 58.434C272.74 58.2121 273.002 58.0548 273.292 57.9824C273.57 57.9006 273.866 57.9006 274.144 57.9824C274.365 58.0853 274.575 58.2114 274.769 58.3588C275.139 58.5671 275.534 58.7265 275.944 58.833C275.489 59.0193 274.982 59.0406 274.513 58.8932C274.317 58.833 274.091 58.6975 273.94 58.6674C273.79 58.6261 273.631 58.6261 273.481 58.6674C273.329 58.7006 273.189 58.7733 273.074 58.8782C272.991 58.9459 273.036 58.9309 273.014 58.8255C272.931 58.8255 272.991 58.7201 273.014 58.8255C273.206 58.8477 273.401 58.8477 273.594 58.8255L274.287 58.8782Z" fill="#332066"/>
<path d="M273.309 48.242C273.975 48.242 274.514 47.7027 274.514 47.0376C274.514 46.3724 273.975 45.8332 273.309 45.8332C272.643 45.8332 272.104 46.3724 272.104 47.0376C272.104 47.7027 272.643 48.242 273.309 48.242Z" fill="#332066"/>
<path d="M271.387 45.3966C271.677 45.5173 271.977 45.613 272.283 45.6826C272.572 45.7396 272.864 45.7798 273.157 45.8031C273.509 45.8285 273.854 45.9178 274.174 46.0665C274.272 46.119 274.359 46.1907 274.429 46.2773C274.499 46.364 274.551 46.4638 274.581 46.5709C274.621 46.7564 274.598 46.9502 274.513 47.1204C274.448 46.98 274.362 46.8505 274.257 46.7365C274.168 46.6663 274.061 46.622 273.948 46.6085C273.715 46.6085 273.398 46.6085 273.067 46.5483C272.711 46.5156 272.366 46.4051 272.057 46.2246C271.74 46.0395 271.502 45.745 271.387 45.3966Z" fill="#332066"/>
<path d="M275.102 53.1047L270.83 53.9478L274.341 45.7956L273.022 44.5385L277.851 47.4968L275.102 53.1047Z" fill="#F8895D"/>
<path d="M280.797 48.9872C281.634 48.9872 282.312 48.3098 282.312 47.4742C282.312 46.6386 281.634 45.9612 280.797 45.9612C279.961 45.9612 279.283 46.6386 279.283 47.4742C279.283 48.3098 279.961 48.9872 280.797 48.9872Z" fill="#332066"/>
<path d="M285.806 48.3248C285.258 47.9959 284.681 47.7187 284.081 47.4968C283.517 47.2739 282.923 47.1344 282.318 47.0827C281.812 47.0444 281.304 47.0876 280.811 47.2107C280.63 47.269 280.457 47.3526 280.299 47.4591C280.201 47.5043 280.103 47.5796 279.945 47.6473C279.771 47.7724 279.59 47.888 279.403 47.9936C279.229 47.8201 279.109 47.6007 279.056 47.3613C279.029 47.1234 279.062 46.8824 279.154 46.6612C279.259 46.4407 279.414 46.2474 279.606 46.0967L279.892 45.8708L280.201 45.7203C280.971 45.4115 281.825 45.3849 282.612 45.645C283.316 45.85 283.984 46.1623 284.593 46.5709C285.201 46.9663 285.695 47.5139 286.025 48.1592L285.806 48.3248Z" fill="#332066"/>
<path d="M270.582 41.5953C271.067 41.558 271.552 41.671 271.972 41.9187C272.391 42.1665 272.723 42.5371 272.925 42.9803C272.992 43.161 272.39 44.1019 272.073 43.7782C271.569 43.2588 271.32 43.4847 270.506 42.6717C270.107 42.3405 270.062 41.6856 270.582 41.5953Z" fill="#FEDAC9"/>
<path d="M285.49 44.0643C286.818 44.2815 288.007 45.0147 288.797 46.1042C288.504 45.2765 288.039 44.52 287.432 43.8844C286.826 43.2487 286.092 42.7483 285.279 42.4158C282.318 41.3394 277.994 42.205 276.841 43.1685C276.771 43.2673 276.724 43.3802 276.703 43.4992C276.681 43.6183 276.686 43.7406 276.717 43.8575C276.748 43.9745 276.804 44.0833 276.881 44.1762C276.959 44.2691 277.056 44.344 277.165 44.3955C277.768 44.4708 281.715 43.161 285.49 44.0643Z" fill="#FEDAC9"/>
<path d="M325.342 43.7556C327.293 39.9919 327.926 35.7239 328.529 31.5387C328.821 30.0511 328.872 28.5261 328.679 27.0223C328.297 25.4184 327.595 23.908 326.615 22.5811C323.171 17.1788 318.412 12.7373 312.783 9.67161C307.126 6.73593 300.398 5.63693 294.244 7.28542C292.662 7.80017 291.055 8.2348 289.43 8.58766C286.718 9.01672 283.787 8.51239 281.309 9.70172C278.506 11.0491 277.075 14.1805 274.762 16.2656C273.323 17.5603 271.492 18.5238 270.475 20.1422C268.969 22.5284 269.677 25.6071 270.408 28.317C270.495 28.8128 270.711 29.2773 271.033 29.6644C271.703 30.3569 272.863 30.2214 273.722 29.7923C274.524 29.2642 275.365 28.7987 276.238 28.3998C277.971 27.8277 279.824 28.7084 281.655 28.7009C283.225 28.592 284.745 28.1038 286.085 27.2782C288.275 26.1017 290.344 24.7125 292.262 23.1306C291.886 25.8179 295.667 27.5717 295.675 30.2891C295.675 31.8699 294.349 33.3001 294.545 34.8056C294.824 37.0638 297.641 37.6886 299.525 38.8929C301.724 40.3081 302.907 42.9502 303.178 45.5547C303.449 48.1592 302.952 50.7712 302.425 53.338C304.278 51.1852 304.632 48.1667 305.627 45.5095C306.621 42.8524 309.032 40.1575 311.819 40.7146C314.328 41.2114 315.624 44.0643 315.804 46.6161C315.985 49.1678 313.461 55.6489 321.914 59.1266C322.253 48.4301 324.174 46.0214 325.342 43.7556Z" fill="#FEDAC9"/>
<path d="M306.381 44.5912C307.118 43.0148 308.447 41.7923 310.08 41.1888C310.894 40.9066 311.769 40.8514 312.612 41.0291C313.455 41.2068 314.233 41.6108 314.864 42.1975C315.717 43.1518 316.231 44.3612 316.325 45.6375C316.464 47.6942 316.26 49.7596 315.722 51.7498C315.21 54.008 314.592 56.3791 313.131 58.2082C311.669 60.0374 309.131 61.2192 306.931 60.4062" fill="#F8895D"/>
<path d="M308.482 48.8517C308.737 49.3722 308.844 49.953 308.791 50.5303C308.663 51.0572 308.195 51.4261 307.902 51.8777C307.608 52.3294 307.548 53.0746 308.045 53.3004C308.542 53.5262 308.911 53.1724 309.175 52.8111C309.392 52.4212 309.693 52.0844 310.056 51.825C310.326 51.7294 310.603 51.6564 310.885 51.6067C311.254 51.4602 311.569 51.2025 311.785 50.8693C312.001 50.5361 312.107 50.1441 312.09 49.7475C312.027 48.9537 311.673 48.2111 311.096 47.6624C310.794 47.3185 310.395 47.0744 309.951 46.9623C308.73 46.7139 308.15 47.7903 308.482 48.8517Z" fill="#332066"/>
<path d="M314.306 43.9815C314.98 44.9422 315.336 46.09 315.323 47.2634C315.388 49.4529 314.749 51.6055 313.5 53.4057C313.459 53.3515 313.433 53.2878 313.424 53.2206C313.415 53.1535 313.423 53.085 313.447 53.0219C313.696 51.7422 314.05 50.4851 314.201 49.1904C314.403 47.8958 314.236 46.5705 313.718 45.3665C313.144 44.4163 312.451 43.5435 311.654 42.7695C312.165 42.7107 312.682 42.7924 313.149 43.0061C313.617 43.2197 314.017 43.557 314.306 43.9815Z" fill="#332066"/>
<path d="M285.934 197.104H263.379C265.277 154.408 265.292 112.88 288.458 102.183L284.638 128.288L285.934 197.104Z" fill="#D0CFEC"/>
<path d="M285.935 197.104H276.684L279.418 168.613L280.051 137.366L285.935 197.104Z" fill="#332066"/>
<path d="M296.269 200.197C289.896 200.197 289.557 200.009 283.206 200.197C285.15 188.906 284.713 166.866 282.227 155.643C280.419 147.363 279.357 138.33 277.744 130.05C275.334 117.607 285.587 105.247 294.092 95.8376L291.975 89.063C294.034 88.214 295.984 87.1223 297.784 85.8112C299.923 91.6148 299.893 90.719 298.77 95.2882C298.386 97.3507 296.699 100.045 297.482 101.039C281.421 133.881 296.269 188.116 296.269 200.197Z" fill="#D0CFEC"/>
<path d="M294.093 97.0948C294.5 97.3883 294.846 97.6668 295.178 97.9077C295.509 98.1486 295.841 98.3744 296.165 98.5852L295.14 98.7207C295.479 98.1787 295.788 97.6367 296.127 97.0797C296.466 96.5227 296.783 95.9431 297.235 95.2957C297.506 96.0184 297.546 96.8078 297.348 97.5539C297.163 98.302 296.805 98.9959 296.3 99.5788L295.781 100.173L295.276 99.7143C294.906 99.3783 294.604 98.9745 294.387 98.525C294.171 98.0802 294.07 97.5885 294.093 97.0948Z" fill="#332066"/>
<path d="M325.688 65.2689C328.882 64.7345 332.694 68.0014 333.741 71.4414C333.984 72.1834 334.071 72.9675 333.998 73.7448C338.789 77.6214 342.578 81.7765 346.488 84.7573C351.046 88.2425 355.709 91.8406 358.753 96.7033C361.269 100.723 362.519 105.375 363.687 109.974C366.919 122.771 369.593 136.026 368.365 149.207C367.16 162.101 367.378 186.693 364.147 199.241L306.38 200.197C308.331 188.906 304.429 131.698 306.38 119.165C306.621 117.614 308.03 102.68 308.03 102.68L304.195 101.521C303.361 98.8023 302.951 95.9712 302.982 93.1278C317.213 89.3566 327.24 72.1264 325.688 65.2689Z" fill="#D0CFEC"/>
<path d="M367.078 173.121L310.547 167.784L343.739 158.932L336.658 132.707L367.078 173.121Z" fill="#332066"/>
<path d="M332.244 78.2537C331.784 81.1659 330.761 83.9605 329.23 86.4811C327.716 89.023 325.866 91.3497 323.731 93.3988C321.604 95.4367 319.262 97.2387 316.747 98.7733C314.255 100.314 311.593 101.562 308.814 102.492C311.331 100.986 313.764 99.4809 316.092 97.7948C318.416 96.1256 320.618 94.2944 322.684 92.3148C324.743 90.3482 326.605 88.1851 328.243 85.8563C329.887 83.4975 331.231 80.9437 332.244 78.2537Z" fill="#332066"/>
<path d="M267.537 176.938L254.918 174.123C257.442 171.616 264.034 168.612 264.034 168.612C264.034 168.612 272.004 168.688 275.68 169.809L267.537 176.938Z" fill="#F8895D"/>
<path d="M267.484 175.899L257.096 175.146C257.096 175.146 262.52 171.571 264.629 171.194C266.739 170.818 272.163 172.346 272.163 172.346L267.484 175.899Z" fill="#332066"/>
<path d="M294.093 195.139H278.521L271.816 197.104H259.062L253.035 195.29C250.542 194.01 249.374 191.594 251.167 190.434C248.643 189.132 248.432 184.842 250.082 184.555C248.703 181.928 248.771 179.467 250.655 179.008C250.188 175.794 250.933 174.002 253.758 173.671L260.9 173.528L275.673 169.809L280.442 172.331L294.093 170.487V195.139Z" fill="#F8895D"/>
<path d="M250.654 179.008C253.005 180.513 255.875 180.875 258.941 180.709" stroke="#332066" stroke-width="0.75" stroke-miterlimit="10"/>
<path d="M250.082 184.556C252.358 186.094 255.114 186.759 257.842 186.43" stroke="#332066" stroke-width="0.75" stroke-miterlimit="10"/>
<path d="M251.152 190.434C253.193 191.809 255.696 192.321 258.113 191.857" stroke="#332066" stroke-width="0.75" stroke-miterlimit="10"/>
<path d="M328.808 106.805C335.829 140.874 353.826 164.54 353.826 164.54C347.913 165.888 296.572 168.5 290.545 168.989C296.278 175.5 294.048 188.944 291.027 195.914C297.325 195.508 373.142 195.914 373.142 195.914C373.142 195.914 385.249 188.899 388.729 186.294C398.093 179.294 361.691 102.989 361.691 102.989" fill="#D0CFEC"/>
<path d="M387.666 197.104H12.3242V210.939H387.666V197.104Z" fill="#F6AE2D"/>
<path d="M233.244 197.104H125.342L127.67 194.499C128.041 194.086 128.495 193.755 129.002 193.528C129.51 193.301 130.059 193.183 130.615 193.182H233.222L233.244 197.104Z" fill="#FEDAC9"/>
<path d="M232.77 197.104H154.896L175.599 143.622C175.912 142.812 176.463 142.116 177.18 141.626C177.897 141.135 178.745 140.873 179.614 140.874H253.525C253.797 140.871 254.065 140.935 254.306 141.059C254.548 141.183 254.756 141.364 254.911 141.587C255.067 141.809 255.166 142.066 255.201 142.335C255.235 142.605 255.203 142.878 255.107 143.132L236.838 194.243C236.541 195.083 235.99 195.809 235.261 196.322C234.532 196.835 233.662 197.108 232.77 197.104Z" fill="#FEDAC9"/>
<path d="M208.977 170.495C209.851 168.052 209.347 165.638 207.851 165.104C206.354 164.569 204.432 166.115 203.558 168.558C202.683 171 203.188 173.414 204.684 173.949C206.181 174.484 208.103 172.937 208.977 170.495Z" fill="white"/>
</svg>
