<svg width="262" height="176" viewBox="0 0 262 176" fill="none" xmlns="http://www.w3.org/2000/svg">
<path d="M141.917 57.3672H108.213V70.3797H141.917V57.3672Z" fill="url(#paint0_linear_8737_83539)"/>
<path d="M144.886 55.4902H105.251V57.3671H144.886V55.4902Z" fill="#7C3AED"/>
<path d="M125.069 43.3145L102.485 55.4897H147.645L125.069 43.3145Z" fill="#D0CFEC"/>
<path d="M116.728 55.4897L125.069 43.3145L102.485 55.4897H105.251V57.3665H108.213V70.379H119.698V57.3665H116.728V55.4897Z" fill="#332066"/>
<path d="M128.381 41.1579L125.069 36.832L121.749 41.1579V45.1H128.381V41.1579Z" fill="#D0CFEC"/>
<path d="M123.843 41.1579L125.076 36.832L121.763 41.1579V45.1H123.843V41.1579Z" fill="#332066"/>
<path d="M136.406 69.4933C135.288 69.4933 134.195 69.1624 133.266 68.5426C132.337 67.9228 131.614 67.042 131.188 66.012C130.762 64.982 130.652 63.8491 130.874 62.7571C131.095 61.6651 131.637 60.6632 132.43 59.8784C133.224 59.0936 134.233 58.5613 135.331 58.3491C136.429 58.1369 137.565 58.2542 138.595 58.6863C139.626 59.1183 140.504 59.8457 141.12 60.7759C141.735 61.7062 142.059 62.7976 142.05 63.9116C142.039 65.3958 141.44 66.8155 140.382 67.8611C139.325 68.9067 137.896 69.4934 136.406 69.4933ZM136.406 59.1182C135.462 59.1182 134.538 59.3973 133.753 59.9202C132.967 60.4431 132.355 61.1862 131.994 62.0557C131.632 62.9252 131.538 63.882 131.722 64.805C131.906 65.7281 132.361 66.576 133.029 67.2414C133.697 67.9069 134.548 68.3601 135.474 68.5437C136.401 68.7273 137.361 68.6331 138.234 68.2729C139.106 67.9128 139.852 67.3029 140.377 66.5204C140.902 65.7378 141.182 64.8178 141.182 63.8767C141.182 62.6147 140.679 61.4043 139.783 60.512C138.888 59.6196 137.673 59.1182 136.406 59.1182Z" fill="#332066"/>
<path d="M144.851 73.4349H105.286L103.983 70.3789H146.147L144.851 73.4349Z" fill="#7C3AED"/>
<path d="M119.698 73.436H105.286L103.99 70.373H118.395L119.698 73.436Z" fill="#332066"/>
<path d="M156.861 145.426C150.194 121.508 147.183 97.3604 144.823 73.4355H105.258C102.891 97.3604 99.8799 121.508 93.2133 145.426H89.2357V168.988H160.874V145.426H156.861Z" fill="url(#paint1_linear_8737_83539)"/>
<path d="M119.698 73.4355H105.286C102.919 97.3604 99.9079 121.502 93.2483 145.426H89.2637V168.988H111.273V145.426H109.481C116.14 121.502 117.331 97.3604 119.698 73.4355Z" fill="#332066"/>
<path d="M132.66 136.057H140.139V129.247C140.139 127.684 138.465 126.414 136.406 126.414C134.347 126.414 132.66 127.684 132.66 129.247V136.057Z" fill="#332066"/>
<path d="M136.406 149.396C136.055 149.397 135.705 149.416 135.356 149.452C139.046 149.843 141.896 152.243 141.896 155.167V168.988H143.997V155.167C143.997 151.978 140.594 149.396 136.406 149.396Z" fill="#332066"/>
<path d="M141.896 155.166V168.987H128.801V155.166C128.801 152.249 131.658 149.842 135.356 149.451C139.046 149.842 141.896 152.249 141.896 155.166Z" fill="#D0CFEC"/>
<path d="M132.66 114.252H140.139V107.449C140.139 105.879 138.465 104.609 136.406 104.609C134.347 104.609 132.66 105.879 132.66 107.449V114.252Z" fill="#332066"/>
<path d="M132.66 92.455H140.139V85.6522C140.139 84.0824 138.465 82.8125 136.406 82.8125C134.347 82.8125 132.66 84.0824 132.66 85.6522V92.455Z" fill="#332066"/>
<path d="M147.919 70.8125H101.631C101.515 70.8125 101.405 70.7669 101.324 70.6858C101.242 70.6047 101.196 70.4946 101.196 70.3799C101.196 70.2652 101.242 70.1552 101.324 70.074C101.405 69.9929 101.515 69.9473 101.631 69.9473H147.919C147.976 69.9464 148.033 69.9569 148.087 69.9782C148.14 69.9996 148.189 70.0313 148.23 70.0715C148.271 70.1118 148.304 70.1598 148.326 70.2127C148.348 70.2657 148.36 70.3225 148.36 70.3799C148.358 70.4953 148.311 70.6053 148.228 70.6862C148.146 70.7672 148.034 70.8125 147.919 70.8125Z" fill="#7C3AED"/>
<path d="M146.147 67.2402H103.514C103.399 67.2402 103.289 67.1946 103.207 67.1135C103.126 67.0323 103.08 66.9223 103.08 66.8076C103.08 66.6929 103.126 66.5828 103.207 66.5017C103.289 66.4206 103.399 66.375 103.514 66.375H146.147C146.263 66.375 146.374 66.4203 146.456 66.5013C146.539 66.5822 146.586 66.6922 146.588 66.8076C146.588 66.865 146.577 66.9218 146.554 66.9748C146.532 67.0277 146.499 67.0757 146.458 67.116C146.417 67.1562 146.369 67.1879 146.315 67.2093C146.262 67.2306 146.204 67.2411 146.147 67.2402Z" fill="#7C3AED"/>
<path d="M146.588 66.8066H145.72V70.372H146.588V66.8066Z" fill="#7C3AED"/>
<path d="M139.48 66.8066H138.612V70.372H139.48V66.8066Z" fill="#7C3AED"/>
<path d="M132.373 66.8066H131.504V70.372H132.373V66.8066Z" fill="#7C3AED"/>
<path d="M125.265 66.8066H124.396V70.372H125.265V66.8066Z" fill="#7C3AED"/>
<path d="M118.157 66.8066H117.289V70.372H118.157V66.8066Z" fill="#7C3AED"/>
<path d="M111.056 66.8066H110.188V70.372H111.056V66.8066Z" fill="#7C3AED"/>
<path d="M103.948 66.8066H103.08V70.372H103.948V66.8066Z" fill="#7C3AED"/>
<path d="M75.6294 87.9961C67.7696 87.9961 60.2317 91.107 54.674 96.6445C49.1162 102.182 45.9939 109.692 45.9939 117.524C45.9939 147.114 75.6294 168.778 75.6294 168.778H79.8311C79.8311 168.778 105.307 139.913 105.307 117.524C105.307 103.395 80.4753 88.0031 80.4753 88.0031L75.6294 87.9961ZM75.6294 131.094C72.9353 131.096 70.3013 130.301 68.0605 128.811C65.8197 127.32 64.0729 125.201 63.0409 122.722C62.009 120.242 61.7382 117.513 62.263 114.88C62.7877 112.247 64.0844 109.829 65.989 107.93C67.8935 106.032 70.3204 104.738 72.9627 104.214C75.6049 103.69 78.3439 103.958 80.8331 104.985C83.3223 106.012 85.4499 107.752 86.9468 109.983C88.4437 112.215 89.2427 114.839 89.2427 117.524C89.2437 119.305 88.8922 121.07 88.2085 122.716C87.5248 124.363 86.5222 125.859 85.258 127.119C83.9938 128.379 82.4927 129.379 80.8406 130.061C79.1885 130.743 77.4178 131.094 75.6294 131.094Z" fill="#332066"/>
<path d="M79.8311 87.9961C71.9712 87.9961 64.4333 91.107 58.8756 96.6445C53.3178 102.182 50.1955 109.692 50.1955 117.524C50.1955 147.114 79.8311 168.778 79.8311 168.778C79.8311 168.778 109.467 147.114 109.467 117.524C109.467 109.692 106.344 102.182 100.787 96.6445C95.2288 91.107 87.6909 87.9961 79.8311 87.9961ZM79.8311 131.094C77.1372 131.094 74.5039 130.298 72.264 128.807C70.0242 127.316 68.2784 125.197 67.2476 122.717C66.2167 120.237 65.9469 117.509 66.4725 114.876C66.998 112.244 68.2952 109.826 70.2001 107.928C72.1049 106.03 74.5318 104.737 77.1739 104.214C79.816 103.69 82.5546 103.959 85.0433 104.986C87.5321 106.013 89.6593 107.752 91.1559 109.984C92.6526 112.216 93.4514 114.84 93.4514 117.524C93.4514 121.123 92.0164 124.575 89.4621 127.12C86.9078 129.665 83.4434 131.094 79.8311 131.094Z" fill="#7BE0AD"/>
<path d="M87.411 14.4449L86.797 15.0566L136.096 64.1759L136.71 63.5641L87.411 14.4449Z" fill="#332066"/>
<path d="M95.6371 6.25508L86.5211 15.3379L126.719 55.3891L135.835 46.3063L95.6371 6.25508Z" fill="#F6AE2D"/>
<path d="M87.1324 13.4049L85.8548 14.6777L127.38 56.0512L128.657 54.7783L87.1324 13.4049Z" fill="#332066"/>
<path d="M87.415 113.297L86.7988 112.69L136.105 63.5703L136.714 64.1773L87.415 113.297Z" fill="#332066"/>
<path d="M118.786 64.439L78.5878 104.49L87.6989 113.568L127.897 73.5169L118.786 64.439Z" fill="#F6AE2D"/>
<path d="M127.297 71.6041L85.7364 112.941L87.0128 114.215L128.574 72.8781L127.297 71.6041Z" fill="#332066"/>
<path d="M185.397 113.297L136.105 64.1773L136.714 63.5703L186.013 112.69L185.397 113.297Z" fill="#332066"/>
<path d="M146.098 72.3449L136.982 81.4277L177.179 121.479L186.295 112.396L146.098 72.3449Z" fill="#F6AE2D"/>
<path d="M186.966 113.073L185.684 114.343L144.158 72.9682L145.433 71.6914L186.966 113.073Z" fill="#332066"/>
<path d="M185.459 14.5076L136.031 63.498L136.644 64.1114L186.071 15.121L185.459 14.5076Z" fill="#332066"/>
<path d="M185.117 14.1578L144.92 54.209L154.031 63.2869L194.229 23.2357L185.117 14.1578Z" fill="#F6AE2D"/>
<path d="M185.764 13.4897L144.261 54.8848L145.539 56.157L187.042 14.7619L185.764 13.4897Z" fill="#332066"/>
<path d="M138.143 63.8768C138.143 64.2191 138.041 64.5536 137.85 64.8382C137.659 65.1227 137.388 65.3445 137.071 65.4755C136.753 65.6064 136.404 65.6407 136.067 65.5739C135.73 65.5072 135.421 65.3424 135.178 65.1004C134.935 64.8584 134.77 64.5501 134.703 64.2144C134.636 63.8787 134.67 63.5308 134.802 63.2147C134.933 62.8985 135.156 62.6282 135.441 62.4381C135.727 62.248 136.063 62.1465 136.406 62.1465C136.867 62.1465 137.308 62.3288 137.634 62.6533C137.96 62.9778 138.143 63.4179 138.143 63.8768Z" fill="#F6AE2D"/>
<path d="M136.406 65.8171C136.019 65.8171 135.641 65.7028 135.32 65.4886C134.998 65.2743 134.748 64.9699 134.6 64.6138C134.453 64.2577 134.414 63.8659 134.49 63.4881C134.566 63.1103 134.753 62.7635 135.027 62.4915C135.301 62.2196 135.65 62.0347 136.029 61.9604C136.409 61.8861 136.802 61.9256 137.159 62.074C137.516 62.2224 137.82 62.473 138.034 62.7941C138.248 63.1151 138.361 63.4921 138.36 63.8774C138.356 64.392 138.149 64.8842 137.783 65.2474C137.417 65.6106 136.922 65.8153 136.406 65.8171ZM136.406 62.3285C136.108 62.3341 135.819 62.4267 135.573 62.5948C135.328 62.763 135.138 62.9993 135.026 63.2744C134.914 63.5495 134.886 63.8512 134.945 64.1421C135.004 64.433 135.147 64.7002 135.358 64.9105C135.568 65.1208 135.835 65.2649 136.127 65.325C136.419 65.3851 136.722 65.3584 136.998 65.2484C137.275 65.1383 137.513 64.9497 137.683 64.706C137.853 64.4622 137.947 64.1741 137.954 63.8774C137.954 63.6762 137.914 63.4771 137.835 63.2915C137.757 63.106 137.643 62.9378 137.499 62.7969C137.355 62.6559 137.184 62.545 136.996 62.4705C136.809 62.3961 136.608 62.3597 136.406 62.3634V62.3285Z" fill="#332066"/>
<defs>
<linearGradient id="paint0_linear_8737_83539" x1="125.069" y1="73.8822" x2="125.069" y2="56.1392" gradientUnits="userSpaceOnUse">
<stop offset="0.05" stop-color="#7C3AED"/>
<stop offset="0.32" stop-color="#AD76DF" stop-opacity="0.89"/>
<stop offset="0.6" stop-color="#D9ADD3" stop-opacity="0.78"/>
<stop offset="0.84" stop-color="#F4CECC" stop-opacity="0.72"/>
<stop offset="1" stop-color="#FEDAC9" stop-opacity="0.7"/>
</linearGradient>
<linearGradient id="paint1_linear_8737_83539" x1="125.069" y1="170.23" x2="125.069" y2="71.2726" gradientUnits="userSpaceOnUse">
<stop offset="0.25" stop-color="#7C3AED"/>
<stop offset="0.47" stop-color="#B17BDE" stop-opacity="0.88"/>
<stop offset="0.69" stop-color="#DBAFD3" stop-opacity="0.78"/>
<stop offset="0.87" stop-color="#F5CFCC" stop-opacity="0.72"/>
<stop offset="1" stop-color="#FEDAC9" stop-opacity="0.7"/>
</linearGradient>
</defs>
</svg>
