<svg width="397" height="257" viewBox="0 0 397 257" fill="none" xmlns="http://www.w3.org/2000/svg">
<path d="M173.259 150.895C154.362 161.95 139.908 179.237 132.382 199.785C129.542 207.636 127.862 216.631 131.493 224.144C135.124 231.656 146.116 235.758 152.24 230.083C156.648 226.003 156.655 218.634 153.514 213.522C150.372 208.411 144.828 205.242 139.2 203.21C125.851 198.43 111.047 199.01 97.2836 202.457C83.5199 205.905 70.6075 211.957 57.8457 218.174" stroke="#7C3AED" stroke-miterlimit="10" stroke-dasharray="12 12"/>
<path d="M216.381 143.134C222.34 162.344 225.722 182.487 234.424 200.62C243.125 218.754 258.719 235.246 278.653 238.002C292.213 239.876 305.886 235.194 317.827 228.6C329.768 222.006 340.631 213.485 352.481 206.718" stroke="#7C3AED" stroke-miterlimit="10" stroke-dasharray="12 12"/>
<path d="M226.031 117.586L241.053 71.0816C244.82 59.4669 250.899 45.8197 263.036 44.4271C265.863 44.1045 268.726 44.54 271.329 45.689C273.932 46.8379 276.182 48.6588 277.847 50.9645C279.513 53.2701 280.533 55.9773 280.805 58.8078C281.076 61.6383 280.588 64.4899 279.391 67.0695C278.793 68.5756 277.712 69.841 276.317 70.6676C271.714 73.0011 267.239 67.0093 266.373 61.9283C263.412 44.4723 275.376 25.9399 292.341 20.8514C309.307 15.7628 329.142 24.2537 337.715 39.7451" stroke="#7C3AED" stroke-miterlimit="10" stroke-dasharray="12 12"/>
<path d="M172.159 101.146C153.542 107.047 133.601 107.364 114.806 102.057C107.499 99.9718 99.1063 95.094 99.6864 87.529C100.184 80.9425 107.355 77.0358 113.827 75.7185C116.554 75.169 119.469 74.8604 122.046 75.8992C127.96 78.2853 129.173 86.2569 127.779 92.4594C124.547 106.889 111.763 118.467 97.1928 121.064C82.623 123.66 67.0588 117.42 57.5816 106.009C48.1045 94.5972 45.0308 68.4696 50.8919 51.2018" stroke="#7C3AED" stroke-miterlimit="10" stroke-dasharray="12 12"/>
<path d="M110.821 32.3231C108.711 32.3238 106.623 32.7495 104.682 33.5746C102.74 34.3997 100.985 35.6074 99.5209 37.1256C98.3526 37.1256 97.2315 36.6645 96.4019 35.8425C95.5722 35.0206 95.1011 33.9044 95.0912 32.7371V13.467C95.0872 12.6522 94.9225 11.8461 94.6063 11.095C94.2901 10.3439 93.8288 9.66253 93.2486 9.08987C92.6685 8.5172 91.981 8.06451 91.2255 7.75773C90.47 7.45095 89.6614 7.2961 88.8459 7.30205H18.4755C17.661 7.30105 16.8543 7.46062 16.1016 7.7716C15.349 8.08258 14.6651 8.53886 14.0891 9.11432C13.5132 9.68978 13.0566 10.3731 12.7453 11.1252C12.4341 11.8772 12.2744 12.6833 12.2754 13.4971V83.7803C12.2744 84.5945 12.434 85.4009 12.7452 86.1534C13.0563 86.9059 13.5129 87.5897 14.0887 88.1658C14.6645 88.7418 15.3483 89.1988 16.1011 89.5106C16.8538 89.8224 17.6606 89.9829 18.4755 89.9829H38.9214C41.3472 89.9829 43.2532 87.7247 43.2532 85.2557C40.9917 83.0739 39.4342 80.2668 38.7804 77.1944C38.1266 74.1221 38.4064 70.9246 39.5839 68.0123C40.7614 65.0999 42.7829 62.6055 45.389 60.849C47.9952 59.0925 51.0671 58.154 54.2106 58.154C57.3542 58.154 60.4261 59.0925 63.0322 60.849C65.6384 62.6055 67.6598 65.0999 68.8373 68.0123C70.0148 70.9246 70.2946 74.1221 69.6409 77.1944C68.9871 80.2668 67.4296 83.0739 65.1681 85.2557C65.1598 86.4557 65.6106 87.6135 66.4285 88.4922C67.2463 89.371 68.3693 89.9042 69.5677 89.9829H88.8459C90.4923 89.9829 92.0712 89.3294 93.2354 88.1662C94.3995 87.003 95.0535 85.4254 95.0535 83.7803V63.4112C95.0654 62.2445 95.5371 61.1295 96.3664 60.308C97.1956 59.4865 98.3155 59.0247 99.4832 59.0228C101.294 60.896 103.541 62.2915 106.024 63.0845C108.506 63.8775 111.147 64.0432 113.709 63.5669C116.272 63.0905 118.676 61.9869 120.707 60.3547C122.738 58.7226 124.332 56.6129 125.347 54.2143C126.362 51.8157 126.767 49.2031 126.524 46.6102C126.281 44.0173 125.399 41.5249 123.956 39.3562C122.513 37.1874 120.555 35.4098 118.256 34.1824C115.957 32.9551 113.39 32.3163 110.783 32.3231H110.821Z" fill="#D0CFEC"/>
<path d="M325.241 210.594C325.048 207.562 323.977 204.651 322.159 202.215C320.341 199.779 317.854 197.924 315 196.875C312.146 195.825 309.048 195.627 306.084 196.304C303.119 196.981 300.415 198.504 298.301 200.688C297.457 200.688 296.631 200.446 295.922 199.989C295.212 199.533 294.65 198.882 294.301 198.114V174.952C294.301 173.754 294.777 172.605 295.625 171.758C296.472 170.912 297.622 170.436 298.821 170.436H319.802C320.963 170.444 322.075 170.91 322.893 171.734C323.712 172.557 324.171 173.671 324.171 174.832C321.922 177.002 320.373 179.794 319.723 182.851C319.073 185.907 319.351 189.087 320.523 191.984C321.694 194.881 323.705 197.362 326.297 199.109C328.89 200.857 331.945 201.79 335.072 201.79C338.199 201.79 341.255 200.857 343.847 199.109C346.439 197.362 348.45 194.881 349.622 191.984C350.793 189.087 351.072 185.907 350.422 182.851C349.771 179.794 348.222 177.002 345.973 174.832C345.975 173.67 346.436 172.557 347.256 171.733C348.076 170.91 349.188 170.444 350.35 170.436H371.73C372.929 170.436 374.079 170.912 374.926 171.758C375.774 172.605 376.25 173.754 376.25 174.952V248.179C376.25 249.376 375.774 250.525 374.926 251.372C374.079 252.219 372.929 252.695 371.73 252.695H350.772C349.61 252.685 348.498 252.217 347.68 251.392C346.862 250.567 346.402 249.453 346.402 248.291C348.649 246.121 350.196 243.33 350.845 240.276C351.493 237.222 351.214 234.044 350.043 231.149C348.871 228.254 346.862 225.775 344.271 224.029C341.68 222.284 338.626 221.351 335.502 221.351C332.377 221.351 329.323 222.284 326.732 224.029C324.141 225.775 322.132 228.254 320.96 231.149C319.789 234.044 319.51 237.222 320.158 240.276C320.807 243.33 322.354 246.121 324.601 248.291C324.601 249.453 324.141 250.567 323.323 251.392C322.505 252.217 321.393 252.685 320.231 252.695H298.874C297.675 252.695 296.525 252.219 295.677 251.372C294.83 250.525 294.354 249.376 294.354 248.179V225.047C294.702 224.279 295.265 223.628 295.975 223.172C296.684 222.715 297.51 222.472 298.354 222.473C300.589 224.757 303.469 226.305 306.608 226.909C309.748 227.513 312.997 227.145 315.921 225.853C318.845 224.561 321.305 222.407 322.97 219.681C324.636 216.954 325.428 213.783 325.241 210.594Z" fill="#7C3AED"/>
<path d="M257.438 111.398C255.21 111.395 253.005 111.841 250.953 112.709C248.901 113.576 247.046 114.849 245.498 116.449C244.259 116.447 243.073 115.955 242.197 115.08C241.322 114.205 240.829 113.019 240.827 111.782V91.1346C240.827 89.3539 240.119 87.646 238.859 86.3868C237.598 85.1276 235.889 84.4202 234.107 84.4202H213.382C212.151 84.4103 210.973 83.9139 210.107 83.0396C209.24 82.1652 208.755 80.9838 208.757 79.7532C211.135 77.4546 212.772 74.4985 213.458 71.2641C214.144 68.0296 213.848 64.6642 212.607 61.5991C211.366 58.5341 209.238 55.9091 206.494 54.0608C203.75 52.2125 200.517 51.2251 197.208 51.2251C193.899 51.2251 190.665 52.2125 187.922 54.0608C185.178 55.9091 183.049 58.5341 181.809 61.5991C180.568 64.6642 180.271 68.0296 180.957 71.2641C181.643 74.4985 183.281 77.4546 185.659 79.7532C185.659 80.9845 185.172 82.1659 184.304 83.04C183.436 83.9142 182.258 84.4103 181.026 84.4202H159.103C158.323 84.4202 157.551 84.5739 156.83 84.8724C156.109 85.171 155.454 85.6086 154.903 86.1602C154.352 86.7118 153.915 87.3666 153.617 88.0871C153.319 88.8076 153.166 89.5797 153.167 90.3593V113.739C152.795 114.544 152.201 115.226 151.456 115.706C150.71 116.186 149.843 116.444 148.956 116.449C146.655 114.069 143.696 112.43 140.456 111.742C137.217 111.054 133.846 111.349 130.776 112.589C127.705 113.828 125.076 115.956 123.224 118.7C121.372 121.443 120.383 124.676 120.383 127.985C120.383 131.294 121.372 134.527 123.224 137.27C125.076 140.014 127.705 142.142 130.776 143.381C133.846 144.621 137.217 144.916 140.456 144.228C143.696 143.54 146.655 141.901 148.956 139.521C149.852 139.521 150.729 139.779 151.482 140.263C152.235 140.748 152.833 141.439 153.205 142.253V165.588C153.204 166.368 153.356 167.14 153.654 167.86C153.952 168.581 154.389 169.236 154.941 169.787C155.492 170.339 156.147 170.776 156.868 171.075C157.588 171.373 158.361 171.527 159.141 171.527H180.596C181.827 171.537 183.003 172.032 183.87 172.905C184.736 173.778 185.222 174.957 185.222 176.187C182.841 178.486 181.202 181.443 180.514 184.679C179.827 187.916 180.122 191.283 181.363 194.351C182.604 197.418 184.734 200.045 187.479 201.895C190.224 203.744 193.46 204.733 196.771 204.733C200.082 204.733 203.318 203.744 206.063 201.895C208.808 200.045 210.938 197.418 212.179 194.351C213.419 191.283 213.715 187.916 213.028 184.679C212.34 181.443 210.701 178.486 208.32 176.187C208.322 174.958 208.808 173.78 209.674 172.907C210.54 172.035 211.716 171.539 212.945 171.527H234.875C236.452 171.527 237.964 170.901 239.078 169.788C240.193 168.674 240.819 167.163 240.819 165.588V144.203C240.821 142.966 241.314 141.78 242.19 140.905C243.065 140.03 244.252 139.538 245.49 139.536C247.397 141.506 249.763 142.973 252.376 143.807C254.989 144.641 257.768 144.816 260.465 144.315C263.162 143.814 265.693 142.654 267.832 140.937C269.97 139.221 271.65 137.002 272.722 134.479C273.793 131.956 274.223 129.207 273.972 126.478C273.721 123.748 272.797 121.123 271.283 118.838C269.77 116.552 267.713 114.676 265.297 113.378C262.881 112.08 260.181 111.4 257.438 111.398Z" fill="#7BE0AD"/>
<path d="M396.531 62.7488C396.368 65.3193 395.461 67.7872 393.92 69.8524C392.38 71.9175 390.272 73.4911 387.854 74.3817C385.435 75.2724 382.809 75.4417 380.296 74.8692C377.783 74.2967 375.49 73.007 373.697 71.1569C372.698 71.1569 371.74 71.5535 371.033 72.2593C370.327 72.9651 369.93 73.9224 369.93 74.9206V92.3239C369.93 93.5218 369.454 94.6706 368.606 95.5176C367.758 96.3645 366.609 96.8404 365.41 96.8404H347.985C346.996 96.8246 346.054 96.4211 345.36 95.717C344.667 95.0128 344.278 94.0645 344.278 93.0767C346.182 91.2368 347.493 88.8706 348.042 86.2816C348.592 83.6925 348.354 80.9985 347.361 78.5449C346.368 76.0914 344.664 73.9901 342.468 72.5106C340.272 71.031 337.683 70.2406 335.035 70.2406C332.386 70.2406 329.798 71.031 327.601 72.5106C325.405 73.9901 323.701 76.0914 322.708 78.5449C321.715 80.9985 321.478 83.6925 322.027 86.2816C322.576 88.8706 323.887 91.2368 325.791 93.0767C325.791 94.0645 325.403 95.0128 324.709 95.717C324.016 96.4211 323.073 96.8246 322.085 96.8404H305.315C304.116 96.8404 302.967 96.3645 302.119 95.5176C301.271 94.6706 300.795 93.5218 300.795 92.3239V74.8905C300.795 73.8923 301.192 72.935 301.898 72.2292C302.605 71.5233 303.563 71.1268 304.562 71.1268C306.403 73.0318 308.773 74.3436 311.366 74.894C313.959 75.4443 316.657 75.2081 319.115 74.2156C321.573 73.2232 323.678 71.5197 325.16 69.3238C326.642 67.1278 327.434 64.5394 327.434 61.8907C327.434 59.242 326.642 56.6536 325.16 54.4577C323.678 52.2617 321.573 50.5582 319.115 49.5658C316.657 48.5733 313.959 48.3371 311.366 48.8874C308.773 49.4378 306.403 50.7496 304.562 52.6546C303.563 52.6546 302.605 52.2581 301.898 51.5522C301.192 50.8464 300.795 49.8891 300.795 48.8909V31.5403C300.795 30.3424 301.271 29.1937 302.119 28.3467C302.967 27.4997 304.116 27.0238 305.315 27.0238H322.085C323.073 27.008 324.016 26.6045 324.709 25.9004C325.403 25.1963 325.791 24.248 325.791 23.2601C323.885 21.4198 322.572 19.0524 322.021 16.4614C321.47 13.8705 321.706 11.1742 322.7 8.71846C323.693 6.26269 325.398 4.15938 327.596 2.67833C329.793 1.19728 332.384 0.406006 335.035 0.406006C337.686 0.406006 340.276 1.19728 342.474 2.67833C344.672 4.15938 346.376 6.26269 347.37 8.71846C348.363 11.1742 348.599 13.8705 348.049 16.4614C347.498 19.0524 346.185 21.4198 344.278 23.2601C344.278 24.248 344.667 25.1963 345.36 25.9004C346.054 26.6045 346.996 27.008 347.985 27.0238H365.44C366.639 27.0238 367.788 27.4997 368.636 28.3467C369.484 29.1937 369.96 30.3424 369.96 31.5403V48.9436C369.96 49.9418 370.357 50.8991 371.063 51.6049C371.77 52.3108 372.728 52.7073 373.727 52.7073C375.617 50.7521 378.062 49.4232 380.732 48.9001C383.401 48.377 386.168 48.6847 388.657 49.7819C391.146 50.879 393.238 52.7127 394.652 55.0355C396.065 57.3582 396.732 60.0583 396.561 62.7714L396.531 62.7488Z" fill="#F6AE2D"/>
<path d="M123.38 195.6C123.218 198.171 122.311 200.639 120.77 202.704C119.229 204.769 117.12 206.342 114.7 207.232C112.281 208.121 109.655 208.288 107.142 207.713C104.629 207.138 102.337 205.846 100.546 203.993C99.547 203.993 98.5889 204.389 97.8825 205.095C97.1761 205.801 96.7793 206.758 96.7793 207.756V224.919C96.7793 226.181 96.2776 227.391 95.3847 228.283C94.4918 229.175 93.2808 229.676 92.0181 229.676H74.465C73.483 229.692 72.5459 230.09 71.8535 230.786C71.1611 231.482 70.7682 232.421 70.7585 233.402C72.6625 235.242 73.9732 237.608 74.5225 240.197C75.0718 242.786 74.8347 245.48 73.8415 247.934C72.8484 250.388 71.1445 252.489 68.9483 253.968C66.7521 255.448 64.1637 256.238 61.5149 256.238C58.8662 256.238 56.2778 255.448 54.0816 253.968C51.8854 252.489 50.1815 250.388 49.1883 247.934C48.1952 245.48 47.9581 242.786 48.5073 240.197C49.0566 237.608 50.3673 235.242 52.2713 233.402C52.2616 232.421 51.8687 231.482 51.1763 230.786C50.484 230.09 49.5469 229.692 48.5648 229.676H31.3885C30.4351 229.675 29.504 229.388 28.7166 228.851C27.9292 228.314 27.3219 227.552 26.9738 226.665C26.7434 226.104 26.6257 225.503 26.6273 224.896V206.183C26.3279 205.533 25.8493 204.982 25.2476 204.594C24.6458 204.206 23.9458 203.997 23.2297 203.993C21.3883 205.895 19.0202 207.205 16.429 207.754C13.8378 208.303 11.1416 208.066 8.68612 207.073C6.23059 206.081 4.12763 204.378 2.64687 202.184C1.1661 199.99 0.375 197.403 0.375 194.757C0.375 192.11 1.1661 189.524 2.64687 187.329C4.12763 185.135 6.23059 183.432 8.68612 182.44C11.1416 181.448 13.8378 181.211 16.429 181.76C19.0202 182.308 21.3883 183.618 23.2297 185.521C23.9462 185.522 24.648 185.317 25.2507 184.93C25.8534 184.543 26.3314 183.99 26.6273 183.338V164.625C26.6257 164.018 26.7434 163.417 26.9738 162.856C27.3054 162.007 27.8746 161.272 28.6134 160.738C29.3522 160.204 30.2293 159.894 31.1398 159.845H48.595C49.5835 159.86 50.5262 160.264 51.2196 160.968C51.913 161.672 52.3016 162.62 52.3015 163.608C50.3949 165.449 49.082 167.816 48.5312 170.407C47.9804 172.998 48.2168 175.694 49.2101 178.15C50.2034 180.606 51.9082 182.709 54.106 184.19C56.3037 185.671 58.8942 186.462 61.5451 186.462C64.1959 186.462 66.7864 185.671 68.9841 184.19C71.1819 182.709 72.8867 180.606 73.88 178.15C74.8733 175.694 75.1097 172.998 74.5589 170.407C74.0081 167.816 72.6952 165.449 70.7887 163.608C70.7885 162.62 71.1771 161.672 71.8705 160.968C72.564 160.264 73.5066 159.86 74.4952 159.845H91.7017C93.0788 159.916 94.3761 160.512 95.3263 161.511C96.2766 162.509 96.8074 163.834 96.8094 165.212V181.772C96.8193 182.764 97.2205 183.711 97.9259 184.409C98.6312 185.107 99.5836 185.498 100.576 185.498C102.469 183.546 104.915 182.22 107.585 181.7C110.255 181.179 113.02 181.489 115.508 182.587C117.996 183.686 120.088 185.52 121.501 187.842C122.914 190.165 123.58 192.864 123.41 195.577L123.38 195.6Z" fill="#FEDAC9"/>
<path d="M236.684 164.7C234.575 140.672 209.481 142.976 206.806 137.601L185.132 137.684C182.458 143.059 157.424 140.695 155.322 164.7H236.684Z" fill="#D0CFEC"/>
<path d="M200.825 164.7H189.133C183.965 157.556 182.059 151.542 183.483 145.994L208.984 146.333C209.639 152.483 206.603 159.544 200.825 164.7Z" fill="white"/>
<path d="M208.984 146.333C211.462 162.893 180.402 160.515 183.483 145.994C184.078 143.187 185.223 135.787 185.223 135.787H206.829C206.829 135.787 208.539 143.367 208.984 146.333Z" fill="#F8895D"/>
<path d="M195.663 150.684C186.985 150.684 184.936 137.684 184.936 137.684L207.205 137.443C207.205 137.443 204.334 150.684 195.663 150.684Z" fill="#332066"/>
<path d="M183.483 145.994C183.575 147.585 183.968 149.143 184.643 150.586C185.292 151.913 186.26 153.059 187.461 153.921C189.929 155.57 192.847 156.417 195.816 156.344C198.798 156.389 201.728 155.563 204.246 153.966C205.49 153.138 206.541 152.052 207.327 150.782C208.143 149.411 208.705 147.904 208.984 146.333C209.318 148.021 209.209 149.766 208.668 151.399C208.077 153.1 207.06 154.621 205.715 155.818C202.956 158.162 199.436 159.42 195.816 159.355C194.021 159.367 192.238 159.074 190.542 158.49C188.818 157.912 187.239 156.967 185.917 155.72C184.597 154.463 183.669 152.853 183.242 151.083C182.865 149.396 182.948 147.638 183.483 145.994Z" fill="#7C3AED"/>
<path d="M182.059 141.162C181.903 142.727 181.572 144.269 181.072 145.761C180.557 147.265 179.837 148.691 178.933 149.999C178.051 151.316 176.974 152.475 176.198 153.762C175.419 155.05 175.029 156.534 175.076 158.038L174.435 157.865C174.693 157.378 175.097 156.984 175.59 156.738C176.083 156.493 176.641 156.407 177.185 156.495L177.607 156.533L177.441 156.894C177.362 157.15 177.348 157.421 177.399 157.683C177.451 157.946 177.566 158.192 177.735 158.399C178.044 158.889 178.488 159.34 178.827 159.837C179.556 160.85 179.999 162.041 180.108 163.285C179.859 162.099 179.318 160.994 178.534 160.07C178.149 159.619 177.705 159.19 177.328 158.67C177.13 158.401 176.978 158.101 176.876 157.782C176.767 157.434 176.767 157.061 176.876 156.713L177.14 157.112C176.708 157.078 176.275 157.156 175.882 157.338C175.514 157.557 175.212 157.872 175.008 158.249L174.42 159.22L174.368 158.076C174.278 156.435 174.688 154.805 175.543 153.401C176.394 152.016 177.479 150.887 178.375 149.637C179.293 148.402 180.052 147.057 180.635 145.633C181.23 144.183 181.706 142.688 182.059 141.162Z" fill="#332066"/>
<path d="M209.789 140.462C210.06 142.178 211.077 143.623 211.861 145.166C212.715 146.69 213.419 148.294 213.962 149.954C214.497 151.635 214.786 153.384 214.821 155.148C214.852 156.906 214.663 158.661 214.256 160.372L213.925 161.877L213.563 160.372C213.424 159.579 213.067 158.842 212.531 158.241C212.251 157.971 211.909 157.771 211.536 157.66C211.162 157.549 210.767 157.529 210.384 157.602L210.459 157.09C210.561 157.139 210.651 157.211 210.721 157.299C210.792 157.388 210.841 157.491 210.866 157.602C210.919 157.789 210.919 157.987 210.866 158.174C210.775 158.525 210.551 158.827 210.241 159.017C209.683 159.363 209.096 159.491 208.779 159.928C208.485 160.431 208.298 160.989 208.229 161.568C208.207 161.874 208.117 162.171 207.965 162.438C207.814 162.705 207.606 162.935 207.355 163.112C207.576 162.913 207.752 162.671 207.871 162.399C207.991 162.128 208.051 161.835 208.049 161.538C208.073 160.914 208.227 160.301 208.501 159.739C208.877 159.137 209.57 158.987 210.007 158.648C210.211 158.511 210.354 158.3 210.407 158.061C210.459 157.812 210.407 157.624 210.248 157.579L209.352 157.24L210.331 157.067C210.794 156.977 211.27 156.977 211.732 157.067C212.208 157.177 212.646 157.414 212.998 157.752C213.643 158.431 214.087 159.275 214.279 160.191H213.586C213.951 158.53 214.123 156.833 214.098 155.133C214.066 153.431 213.813 151.741 213.345 150.104C212.858 148.472 212.236 146.883 211.484 145.354C211.115 144.602 210.73 143.789 210.414 142.976C210.051 142.184 209.839 141.331 209.789 140.462Z" fill="#332066"/>
<path d="M210.935 122.524C211.214 119.513 211.772 112.49 210.973 109.539C210.902 109.329 210.902 109.102 210.973 108.892C211.131 108.538 211.628 108.508 211.998 108.621C212.38 108.744 212.726 108.961 213.005 109.251C213.283 109.541 213.484 109.896 213.591 110.284C213.698 110.671 213.707 111.079 213.617 111.471C213.527 111.862 213.34 112.226 213.075 112.527C213.858 111.927 214.41 111.075 214.639 110.116C214.868 109.156 214.76 108.147 214.333 107.258C214.721 107.425 215.046 107.709 215.263 108.072C215.479 108.434 215.576 108.855 215.538 109.276C216.646 108.116 216.246 106.197 215.538 104.759C214.138 102.034 211.858 99.8621 209.067 98.5942C209.297 98.2672 209.613 98.0095 209.979 97.8489C210.346 97.6884 210.75 97.6311 211.146 97.6834C210.061 96.5618 207.38 96.0349 206.302 96.4564C206.434 96.1498 206.663 95.8954 206.955 95.7332C207.247 95.5711 207.584 95.5104 207.914 95.5607C206.784 93.9724 203.598 94.2057 202.076 94.2057C202.081 94.1133 202.104 94.0227 202.145 93.9397C202.186 93.8566 202.243 93.7829 202.314 93.7229C202.385 93.663 202.467 93.6181 202.555 93.5911C202.644 93.5641 202.737 93.5555 202.829 93.5659C201.401 92.7892 199.74 92.5514 198.151 92.896C198.286 92.6413 198.5 92.4374 198.761 92.3152C199.022 92.1929 199.315 92.159 199.597 92.2185C197.488 90.9012 194.678 91.1045 192.456 92.2185C190.276 93.4421 188.411 95.1559 187.009 97.2242C186.632 96.2984 187.664 95.0865 187.664 95.0865C184.395 95.0865 182.278 98.4888 182.323 101.108C182.054 100.812 181.848 100.463 181.718 100.084C181.588 99.7042 181.538 99.3024 181.57 98.9028C181.061 99.5532 180.81 100.369 180.865 101.192C180.921 102.016 181.279 102.79 181.871 103.367C181.571 103.388 181.269 103.344 180.987 103.239C180.705 103.134 180.449 102.97 180.236 102.757C180.282 103.292 180.439 103.813 180.699 104.283C180.958 104.754 181.314 105.165 181.743 105.489L180.236 105.301C180.537 105.814 180.938 106.261 181.416 106.616C181.893 106.97 182.438 107.224 183.016 107.364C182.47 107.634 182.003 108.04 181.661 108.544C181.319 109.048 181.114 109.632 181.065 110.239C181.028 111.45 181.142 112.661 181.404 113.845C181.683 115.945 182.481 123.329 182.225 124.511" fill="#FEDAC9"/>
<path d="M208.803 134.696C208.479 137.511 199.093 145.234 197.556 145.234H193.164C190.904 145.287 182.76 136.314 182.775 133.258C182.775 133.258 182.64 116.826 183.174 111.428C183.837 104.654 191.182 103.863 196.388 103.863C202.362 103.863 210.054 106.822 210.016 112.279L208.803 134.696Z" fill="#F8895D"/>
<path d="M209.225 121.628L210.325 119.408C210.451 119.122 210.636 118.866 210.867 118.655C210.984 118.543 211.133 118.472 211.293 118.452C211.453 118.432 211.615 118.463 211.756 118.542C212.08 118.753 212.103 119.219 212.088 119.618L211.892 124.361C211.874 125.989 211.7 127.613 211.372 129.208C211.323 129.479 211.215 129.736 211.056 129.961C210.834 130.184 210.563 130.351 210.265 130.45C210.035 130.582 209.776 130.652 209.511 130.652C209.247 130.652 208.987 130.582 208.758 130.45" fill="#F8895D"/>
<path d="M209.909 126.468C209.909 126.559 209.909 126.679 209.977 126.709C210.006 126.717 210.037 126.716 210.066 126.708C210.095 126.701 210.121 126.685 210.142 126.664C210.39 126.467 210.587 126.214 210.718 125.926C210.849 125.638 210.91 125.324 210.896 125.008C210.896 124.616 210.225 122.75 209.894 123.593C209.758 123.947 209.977 124.556 209.984 124.925C210.016 125.441 209.99 125.958 209.909 126.468Z" fill="#332066"/>
<path d="M183.114 121.402C183.02 120.436 182.765 119.492 182.36 118.61C182.277 118.322 182.118 118.062 181.901 117.857C181.79 117.76 181.653 117.698 181.507 117.677C181.361 117.657 181.213 117.681 181.08 117.744C180.96 117.843 180.863 117.967 180.797 118.108C180.731 118.248 180.696 118.402 180.695 118.557C180.628 119.333 180.628 120.114 180.695 120.89L181.102 128.049C181.067 128.658 181.239 129.26 181.592 129.758C181.991 130.209 182.865 130.254 183.099 129.705" fill="#F8895D"/>
<path d="M181.69 123.811C181.671 124.016 181.671 124.223 181.69 124.428C181.681 125.341 181.729 126.254 181.833 127.161C181.833 127.274 181.931 127.424 182.029 127.364C182.046 127.355 182.06 127.342 182.071 127.327C182.081 127.311 182.087 127.293 182.089 127.274C182.194 126.722 182.194 126.155 182.089 125.603C182.089 124.918 182.541 123.661 182.149 123.073C181.833 123.149 181.735 123.563 181.69 123.811Z" fill="#332066"/>
<path d="M200.477 118.053C201.481 117.971 202.491 117.994 203.491 118.12C204.095 118.149 204.694 118.248 205.276 118.414C205.894 118.62 206.454 118.969 206.91 119.434C207.365 119.899 207.704 120.465 207.898 121.086C206.212 119.697 204.048 119.024 201.871 119.212C201.178 119.28 198.775 120.04 198.285 119.392C197.599 118.527 200.033 118.105 200.477 118.053Z" fill="#FEDAC9"/>
<path d="M191.144 117.315C190.513 117.17 189.874 117.067 189.23 117.006C188.425 116.886 187.603 116.974 186.842 117.262C185.848 117.865 185.06 118.755 184.582 119.814C185.619 119.101 186.799 118.623 188.04 118.414C188.586 118.377 189.135 118.405 189.675 118.497C190.39 118.587 191.091 118.715 191.799 118.866C192.176 118.948 192.974 119.227 193.343 118.926C194.157 118.226 191.618 117.428 191.144 117.315Z" fill="#FEDAC9"/>
<path d="M193.02 130.33C192.887 130.395 192.745 130.441 192.598 130.465C192.497 130.486 192.391 130.476 192.296 130.435C192.2 130.395 192.119 130.327 192.064 130.239C191.992 130.112 191.973 129.962 192.011 129.822C192.049 129.681 192.141 129.561 192.267 129.487C192.364 129.43 192.472 129.394 192.583 129.381C192.695 129.368 192.807 129.379 192.915 129.411C193.068 129.462 193.209 129.543 193.331 129.649C193.452 129.755 193.552 129.884 193.623 130.029C193.757 130.261 193.849 130.516 193.894 130.781C193.344 130.616 192.937 130.149 192.704 130.119C192.644 130.119 192.613 130.119 192.621 130.119C192.629 130.119 192.621 130.066 192.621 130.006C192.621 129.946 192.621 130.089 192.719 130.134C192.817 130.179 192.892 130.232 193.02 130.33Z" fill="#332066"/>
<path d="M196.516 131.09C196.528 130.926 196.573 130.767 196.648 130.62C196.723 130.474 196.826 130.345 196.953 130.239C197.189 130.026 197.469 129.867 197.774 129.773C197.96 129.697 198.162 129.671 198.361 129.697C198.456 129.716 198.544 129.758 198.618 129.82C198.692 129.881 198.749 129.961 198.783 130.051C198.813 130.137 198.817 130.229 198.796 130.317C198.774 130.405 198.728 130.485 198.663 130.548C198.587 130.616 198.497 130.667 198.399 130.695C198.301 130.724 198.198 130.73 198.098 130.714C197.94 130.711 197.783 130.691 197.631 130.653C197.745 130.545 197.868 130.446 198 130.36C198.128 130.285 198.256 130.187 198.203 130.179C198.15 130.172 198.15 130.179 198.165 130.285C198.181 130.39 198.271 130.405 198.256 130.405C198.17 130.422 198.086 130.45 198.007 130.488C197.751 130.563 197.51 130.646 197.254 130.729C196.996 130.823 196.749 130.944 196.516 131.09Z" fill="#332066"/>
<path d="M197.043 120.725C197.103 121.28 197.126 121.838 197.111 122.396C197.111 122.945 197.066 123.51 197.036 124.037C196.983 124.547 197.048 125.061 197.224 125.542C197.445 126.042 197.697 126.527 197.978 126.995C197.519 126.65 197.13 126.221 196.832 125.731C196.55 125.205 196.427 124.609 196.478 124.014C196.524 123.442 196.591 122.908 196.682 122.358C196.769 121.807 196.89 121.262 197.043 120.725Z" fill="#332066"/>
<path d="M201.962 122.456C202.386 122.456 202.73 122.112 202.73 121.688C202.73 121.264 202.386 120.921 201.962 120.921C201.537 120.921 201.193 121.264 201.193 121.688C201.193 122.112 201.537 122.456 201.962 122.456Z" fill="#332066"/>
<path d="M204.84 122.23C204.399 121.978 203.917 121.805 203.416 121.718C202.921 121.613 202.416 121.562 201.91 121.568C201.423 121.57 200.938 121.623 200.463 121.726L200.132 121.824C200.028 121.875 199.919 121.918 199.808 121.952C199.697 121.996 199.584 122.034 199.469 122.065C199.332 122.119 199.191 122.162 199.047 122.193C199.048 122.029 199.084 121.867 199.152 121.718C199.23 121.585 199.327 121.463 199.439 121.357C199.683 121.177 199.955 121.04 200.245 120.951C200.801 120.798 201.383 120.759 201.955 120.838C202.506 120.897 203.048 121.026 203.567 121.222C204.105 121.389 204.582 121.711 204.938 122.147L204.84 122.23Z" fill="#332066"/>
<path d="M189.554 121.688C189.978 121.688 190.322 121.345 190.322 120.921C190.322 120.496 189.978 120.153 189.554 120.153C189.129 120.153 188.785 120.496 188.785 120.921C188.785 121.345 189.129 121.688 189.554 121.688Z" fill="#332066"/>
<path d="M186.557 121.124C186.95 120.72 187.453 120.44 188.003 120.318C188.538 120.167 189.09 120.083 189.645 120.07C190.219 120.04 190.794 120.127 191.333 120.326C191.608 120.442 191.863 120.602 192.086 120.8C192.189 120.917 192.278 121.046 192.35 121.184C192.4 121.339 192.42 121.503 192.41 121.666C192.27 121.621 192.134 121.566 192.003 121.5C191.888 121.464 191.777 121.417 191.672 121.357C191.565 121.316 191.461 121.266 191.363 121.207L191.039 121.086C190.574 120.94 190.094 120.844 189.608 120.8C189.107 120.749 188.602 120.749 188.101 120.8C187.594 120.846 187.099 120.981 186.639 121.199L186.557 121.124Z" fill="#332066"/>
<path d="M197.97 137.097H192.606L189.766 133.71C191.272 133.107 193.201 133.107 195.566 133.657C197.468 133.195 199.45 133.177 201.36 133.604L197.97 137.097Z" fill="#332066"/>
<path d="M199.31 134.515C198.055 135.228 196.626 135.578 195.184 135.524C193.742 135.471 192.342 135.017 191.144 134.214C191.016 134.131 190.909 134.02 190.831 133.89C190.752 133.759 190.705 133.613 190.692 133.461L190.646 133.145H192.854L195.664 133.679L197.924 133.145H199.875V133.529C199.884 133.73 199.836 133.929 199.736 134.104C199.636 134.278 199.488 134.421 199.31 134.515Z" fill="#FEFDFF"/>
<path d="M196.689 137.277H194.429L192.561 135.667C194.602 135.99 196.682 135.99 198.723 135.667L196.689 137.277Z" fill="#FEFDFF"/>
<path d="M195.664 138.211C199.566 138.211 200.764 134.394 201.381 133.604C200.982 133.559 198.504 136.72 195.43 136.502C191.965 136.261 190.737 133.807 189.787 133.71C189.765 133.71 191.143 138.211 195.664 138.211Z" fill="#ED704F"/>
<path d="M195.71 133.386C196.463 133.349 198.429 132.008 201.36 133.605C198.572 133.047 196.508 133.951 195.672 133.951C194.971 133.951 193.035 132.904 189.766 133.71C191.898 131.925 195.137 133.416 195.71 133.386Z" fill="#DB663E"/>
<path d="M249.287 99.2793C262.838 99.2793 273.823 88.3028 273.823 74.7626C273.823 61.2224 262.838 50.2458 249.287 50.2458C235.735 50.2458 224.75 61.2224 224.75 74.7626C224.75 88.3028 235.735 99.2793 249.287 99.2793Z" fill="#D0CFEC"/>
<path d="M249.287 100.898C263.733 100.898 275.444 89.1966 275.444 74.7625C275.444 60.3285 263.733 48.6274 249.287 48.6274C234.841 48.6274 223.131 60.3285 223.131 74.7625C223.131 89.1966 234.841 100.898 249.287 100.898Z" stroke="#D0CFEC" stroke-miterlimit="10"/>
<path d="M249.288 96.1855C261.129 96.1855 270.728 86.5941 270.728 74.7626C270.728 62.931 261.129 53.3396 249.288 53.3396C237.447 53.3396 227.848 62.931 227.848 74.7626C227.848 86.5941 237.447 96.1855 249.288 96.1855Z" fill="#7C3AED"/>
<path d="M249.341 89.5538C249.028 90.23 248.579 90.8347 248.022 91.3303C247.388 91.8955 246.652 92.3349 245.853 92.625C244.923 92.9611 243.941 93.1268 242.952 93.1143C242.412 93.1581 241.869 93.0724 241.368 92.8642C240.868 92.656 240.424 92.3315 240.074 91.9174C239.449 91.0997 239.122 90.0932 239.148 89.0646C239.152 88.4249 239.267 87.7908 239.487 87.1902C239.716 86.5488 240.072 85.9601 240.534 85.4589C241.023 84.9275 241.611 84.4978 242.267 84.1943C243.001 83.8585 243.802 83.6913 244.61 83.7051C246.393 83.7051 247.701 84.094 248.535 84.8718C248.919 85.2055 249.229 85.6168 249.443 86.0787C249.658 86.5405 249.771 87.0425 249.778 87.5516C249.778 88.2426 249.629 88.9256 249.341 89.5538ZM241.732 80.521C241.704 78.928 241.959 77.3428 242.485 75.8389C242.95 74.553 243.58 73.3333 244.361 72.2107C245.077 71.1939 245.886 70.2463 246.779 69.3804C247.638 68.5524 248.442 67.7997 249.19 67.1222C249.838 66.5518 250.457 65.9488 251.043 65.3156C251.487 64.904 251.757 64.3385 251.797 63.7349C251.753 63.4338 251.619 63.153 251.412 62.9295C251.265 62.7523 251.077 62.6132 250.865 62.5241C250.652 62.435 250.422 62.3985 250.192 62.4176C249.388 62.476 248.611 62.7348 247.932 63.1703C246.995 63.7022 246.089 64.2878 245.22 64.9242C244.232 65.6452 243.281 66.4166 242.372 67.2351L239.788 61.2132C241.442 59.7433 243.335 58.5671 245.386 57.7356C247.394 56.8896 249.55 56.4496 251.729 56.4408C252.722 56.4381 253.713 56.5467 254.682 56.7645C255.557 56.9524 256.385 57.3161 257.115 57.8334C257.822 58.3427 258.4 59.0104 258.803 59.783C259.248 60.6827 259.465 61.6778 259.436 62.6811C259.483 64.077 259.226 65.4665 258.682 66.7534C258.194 67.8256 257.546 68.8178 256.761 69.6966C255.977 70.5609 255.109 71.3452 254.17 72.0376C253.215 72.7502 252.299 73.4829 251.42 74.2356C250.539 74.9802 249.736 75.8125 249.024 76.7196C248.293 77.668 247.778 78.7652 247.518 79.9338L244.64 80.2274L241.732 80.521Z" fill="#FEDAC9"/>
</svg>
