<svg width="128" height="125" viewBox="0 0 128 125" fill="none" xmlns="http://www.w3.org/2000/svg">
<path d="M106.551 43.9772C106.551 44.2938 106.551 44.6032 106.551 44.9199C100.083 41.1695 92.749 39.1954 85.2841 39.1954C77.8193 39.1954 70.4855 41.1695 64.0175 44.9199C57.5469 41.1696 50.2108 39.1957 42.7438 39.1957C35.2767 39.1957 27.9407 41.1696 21.47 44.9199C21.47 44.6032 21.47 44.2938 21.47 43.9772C21.3664 38.2884 22.3903 32.6358 24.482 27.3497C26.5737 22.0636 29.6911 17.2499 33.6523 13.19C37.6135 9.12997 42.3389 5.90506 47.5526 3.70361C52.7662 1.50216 58.3635 0.368317 64.0175 0.368317C69.6715 0.368317 75.2688 1.50216 80.4825 3.70361C85.6961 5.90506 90.4216 9.12997 94.3828 13.19C98.3439 17.2499 101.461 22.0636 103.553 27.3497C105.645 32.6358 106.669 38.2884 106.565 43.9772H106.551Z" fill="#FEDAC9"/>
<path d="M127.832 82.0231C127.831 89.5397 125.865 96.9237 122.13 103.433C118.396 109.943 113.024 115.349 106.556 119.108C100.088 122.867 92.7509 124.847 85.2816 124.849C77.8123 124.851 70.474 122.875 64.0039 119.119C70.4752 115.361 75.8485 109.953 79.5831 103.441C83.3177 96.9292 85.2818 89.5419 85.2777 82.0231C85.2777 81.7065 85.2777 81.3971 85.2777 81.0805C91.6142 77.4028 96.9012 72.1427 100.628 65.8084C104.354 59.4741 106.395 52.2797 106.551 44.9202C113.026 48.6775 118.401 54.0854 122.137 60.5991C125.873 67.1128 127.838 74.5023 127.832 82.0231Z" fill="#F6AE2D"/>
<path d="M106.537 44.9199C106.38 52.2794 104.34 59.4738 100.613 65.8081C96.8869 72.1424 91.5999 77.4024 85.2634 81.0801C85.1061 73.7234 83.0672 66.5317 79.3433 60.199C75.6194 53.8663 70.3363 48.6064 64.0039 44.9271C70.4719 41.1767 77.8057 39.2026 85.2705 39.2026C92.7353 39.2026 100.069 41.1767 106.537 44.9271V44.9199Z" fill="#D0CFEC"/>
<path d="M64.0045 44.9273C57.6694 48.6041 52.3837 53.8632 48.6583 60.1963C44.933 66.5294 42.8938 73.7225 42.7379 81.0803C36.3991 77.4046 31.1099 72.1452 27.3819 65.8106C23.6539 59.476 21.6132 52.2806 21.457 44.9201C27.9277 41.1699 35.2637 39.196 42.7308 39.196C50.1978 39.196 57.5339 41.1699 64.0045 44.9201V44.9273Z" fill="#F6AE2D"/>
<path d="M64.0038 119.119C54.2262 124.797 42.6079 126.333 31.7045 123.391C20.8012 120.448 11.506 113.267 5.86387 103.428C0.221722 93.5885 -1.30524 81.8966 1.6189 70.9243C4.54305 59.952 11.6788 50.598 21.4563 44.9202C21.6124 52.2807 23.6531 59.4761 27.3812 65.8107C31.1092 72.1453 36.3983 77.4048 42.7372 81.0805C42.7372 81.3971 42.7372 81.7065 42.7372 82.0231C42.733 89.5411 44.6963 96.9276 48.4295 103.44C52.1628 109.951 57.5343 115.359 64.0038 119.119Z" fill="#D0CFEC"/>
<path d="M85.2773 82.0225C85.2814 89.5413 83.3174 96.9285 79.5828 103.441C75.8482 109.953 70.4748 115.36 64.0035 119.118C57.5314 115.36 52.1571 109.953 48.4212 103.441C44.6854 96.9293 42.72 89.5418 42.7227 82.0225C42.7227 81.7059 42.7227 81.3964 42.7227 81.0798C49.19 84.8281 56.5224 86.801 63.9857 86.801C71.449 86.801 78.7813 84.8281 85.2487 81.0798C85.2773 81.3964 85.2773 81.7059 85.2773 82.0225Z" fill="#FEDAC9"/>
<path d="M85.2624 81.0802C78.795 84.8285 71.4626 86.8014 63.9993 86.8014C56.5361 86.8014 49.2037 84.8285 42.7363 81.0802C42.8922 73.7223 44.9314 66.5293 48.6567 60.1961C52.3821 53.863 57.6678 48.604 64.0029 44.9271C70.3354 48.6065 75.6184 53.8663 79.3423 60.199C83.0662 66.5317 85.1051 73.7234 85.2624 81.0802Z" fill="#7C3AED"/>
<path d="M58.2111 75.9562V49.8848H49.1152V81.7922H58.2111V75.9562Z" fill="white"/>
<path d="M77.269 63.7016C76.0051 61.6476 74.3819 59.841 72.4779 58.3693L71.7628 57.8152H62.4667V60.4634L63.2748 60.9168C64.0261 61.3619 64.7305 61.8827 65.3771 62.4711C66.0692 63.0571 66.6843 63.7293 67.2077 64.4716C67.751 65.2356 68.2022 66.0617 68.5521 66.9327C68.8773 67.8569 69.0418 68.8306 69.0384 69.8111C69.0503 70.7923 68.8856 71.7675 68.5521 72.6895C68.2093 73.5638 67.7576 74.3908 67.2077 75.1506C66.68 75.8915 66.0654 76.5656 65.3771 77.1583C64.7037 77.7301 63.9863 78.2474 63.2319 78.7054L62.4238 79.2092V81.8501H71.7914L72.5065 81.3032C74.4276 79.8353 76.0679 78.0285 77.3476 75.9709C78.4151 74.133 78.9732 72.0406 78.9637 69.9118C78.9522 67.7277 78.3676 65.5854 77.269 63.7016Z" fill="white"/>
<path opacity="0.5" d="M75.9318 18.5821L74.0297 18.4238C73.7915 17.4672 73.4105 16.5525 72.8999 15.7109L74.1298 14.2717C74.3232 14.0495 74.4256 13.7618 74.4163 13.4666C74.407 13.1714 74.2867 12.8907 74.0798 12.6813L72.335 10.9183C72.1159 10.7206 71.8319 10.6112 71.5376 10.6112C71.2433 10.6112 70.9594 10.7206 70.7403 10.9183L69.3102 12.1488C68.464 11.6358 67.5454 11.2548 66.5857 11.019L66.4355 9.17685C66.4102 8.87913 66.2736 8.60215 66.0533 8.40182C65.833 8.20148 65.5454 8.09271 65.2485 8.09744H62.7814C62.4858 8.09454 62.1999 8.20414 61.9811 8.40429C61.7624 8.60445 61.6268 8.88038 61.6015 9.17685L61.4442 11.019C60.485 11.2562 59.5666 11.637 58.7198 12.1488L57.2896 10.9183C57.0644 10.7274 56.777 10.6269 56.4827 10.6362C56.1884 10.6455 55.9078 10.7639 55.695 10.9687L53.9502 12.7101C53.7432 12.9195 53.6229 13.2002 53.6136 13.4954C53.6043 13.7906 53.7067 14.0783 53.9001 14.3005L55.13 15.7397C54.6194 16.5813 54.2384 17.496 54.0002 18.4526L52.1481 18.6109C51.8547 18.6344 51.5808 18.768 51.3808 18.9853C51.1808 19.2026 51.0692 19.4877 51.0684 19.7839V22.1945C51.0674 22.492 51.1781 22.7788 51.3784 22.9976C51.5786 23.2164 51.8535 23.3511 52.1481 23.3747L54.0503 23.5258C54.2871 24.4828 54.6681 25.3977 55.1801 26.2387L53.9502 27.6779C53.7572 27.8989 53.6551 28.1855 53.6644 28.4795C53.6736 28.7735 53.7937 29.0529 54.0002 29.2611L55.745 31.0025C55.957 31.2083 56.237 31.328 56.5314 31.3387C56.8257 31.3493 57.1136 31.2501 57.3396 31.0601L58.7269 29.7792C59.574 30.2887 60.4925 30.6671 61.4514 30.9018L61.6087 32.8016C61.6356 33.0967 61.7719 33.3709 61.9906 33.5696C62.2092 33.7682 62.4941 33.8768 62.7886 33.8738H65.2556C65.5514 33.8786 65.8381 33.7709 66.0582 33.572C66.2783 33.3732 66.4157 33.098 66.4427 32.8016L66.5928 30.9522C67.5522 30.7188 68.4708 30.3403 69.3173 29.8296L70.7475 31.0601C70.9735 31.2501 71.2614 31.3493 71.5557 31.3387C71.8501 31.328 72.1301 31.2083 72.3421 31.0025L74.1012 29.2323C74.3077 29.0241 74.4278 28.7447 74.4371 28.4507C74.4464 28.1567 74.3442 27.8701 74.1513 27.6492L72.9213 26.2099C73.4333 25.369 73.8143 24.4541 74.0512 23.497L75.9032 23.3963C76.194 23.3676 76.4637 23.2307 76.6595 23.0124C76.8552 22.7941 76.9629 22.5102 76.9615 22.2161V19.7551C76.9635 19.4663 76.8595 19.1869 76.6695 18.9705C76.4795 18.7541 76.2168 18.6158 75.9318 18.5821ZM64.0042 24.6268C63.0538 24.6099 62.1477 24.2195 61.4795 23.5391C60.8114 22.8586 60.4343 21.9422 60.4288 20.9856C60.4288 20.0256 60.8078 19.105 61.4823 18.4261C62.1569 17.7473 63.0717 17.366 64.0257 17.366C64.9796 17.366 65.8945 17.7473 66.5691 18.4261C67.2436 19.105 67.6226 20.0256 67.6226 20.9856C67.6169 21.9496 67.2339 22.8724 66.5566 23.5541C65.8792 24.2357 64.9621 24.6211 64.0042 24.6268Z" fill="white"/>
<g opacity="0.5">
<path d="M109.856 91.86L91.4922 94.5801L103.012 79.9361L109.856 91.86Z" fill="white"/>
<path d="M109.691 77.6405C110.116 77.3953 110.62 77.3296 111.093 77.4577C111.566 77.5858 111.969 77.8974 112.215 78.3242C112.335 78.5373 112.412 78.7724 112.441 79.0156C112.469 79.2589 112.45 79.5055 112.384 79.7412C112.317 79.9768 112.205 80.1968 112.053 80.3884C111.901 80.58 111.713 80.7393 111.5 80.8572L106.494 83.7716" stroke="white" stroke-miterlimit="10"/>
<path d="M113.874 87.9169C114.084 87.7961 114.269 87.6345 114.417 87.4415C114.565 87.2486 114.674 87.0281 114.737 86.7926C114.8 86.5572 114.817 86.3116 114.785 86.0698C114.753 85.828 114.675 85.5949 114.553 85.3839C114.308 84.9572 113.905 84.6456 113.431 84.5175C112.958 84.3893 112.454 84.4551 112.029 84.7003L108.311 86.8591" stroke="white" stroke-miterlimit="10"/>
<path d="M107.418 85.3258L117.079 79.7129" stroke="white" stroke-miterlimit="10"/>
</g>
<g opacity="0.5">
<path d="M25.8896 84.2246C27.726 84.2246 29.2147 82.7264 29.2147 80.8784C29.2147 79.0304 27.726 77.5322 25.8896 77.5322C24.0532 77.5322 22.5645 79.0304 22.5645 80.8784C22.5645 82.7264 24.0532 84.2246 25.8896 84.2246Z" fill="white"/>
<path d="M30.7084 89.6507H21.0762C21.0762 87.4487 23.1785 85.6641 25.8887 85.6641C28.5989 85.6641 30.7084 87.4487 30.7084 89.6507Z" fill="white"/>
<path d="M17.7509 89.2835C19.5873 89.2835 21.0761 87.7854 21.0761 85.9374C21.0761 84.0893 19.5873 82.5912 17.7509 82.5912C15.9145 82.5912 14.4258 84.0893 14.4258 85.9374C14.4258 87.7854 15.9145 89.2835 17.7509 89.2835Z" fill="white"/>
<path d="M22.5638 94.7097H12.9316C12.9316 92.5077 15.034 90.7231 17.7513 90.7231C20.4686 90.7231 22.5638 92.5077 22.5638 94.7097Z" fill="white"/>
<path d="M34.0263 89.2835C35.8627 89.2835 37.3515 87.7854 37.3515 85.9374C37.3515 84.0893 35.8627 82.5912 34.0263 82.5912C32.1899 82.5912 30.7012 84.0893 30.7012 85.9374C30.7012 87.7854 32.1899 89.2835 34.0263 89.2835Z" fill="white"/>
<path d="M38.847 94.7097H29.2148C29.2148 92.5077 31.3172 90.7231 34.0274 90.7231C36.7375 90.7231 38.847 92.5077 38.847 94.7097Z" fill="white"/>
</g>
</svg>
