<svg width="329" height="195" viewBox="0 0 329 195" fill="none" xmlns="http://www.w3.org/2000/svg">
<path d="M123.919 82.0835C115.142 97.2424 76.5497 101.714 61.6536 82.5482L73.2554 76.8122C75.0771 75.9051 76.61 74.5032 77.6806 72.7652C78.7513 71.0273 79.3171 69.0226 79.3138 66.978V54.5767H110.515L109.613 67.8083C109.461 70.0476 109.996 72.2798 111.146 74.2034C112.296 76.127 114.005 77.6492 116.043 78.5642L123.919 82.0835Z" fill="#B25E4F"/>
<path d="M86.9247 73.0795C83.1382 68.8823 79.3517 58.1416 79.3517 58.1416L110.106 61.1886C110.106 61.1886 106.925 69.5145 102.995 73.9175C99.9351 77.353 90.6885 77.2692 86.9247 73.0795Z" fill="#332066"/>
<path d="M77.4433 31.4271V51.8268C79.5865 63.1921 86.7732 68.8976 90.7187 70.3602C92.9906 71.2057 98.2084 71.5637 100.723 70.7182C104.948 69.2937 111.976 59.5281 113.551 54.5233C115.46 48.3227 115.111 28.5172 115.111 28.5172L110.371 11.8272L89.0375 9.7019L77.4433 17.9136V31.4271Z" fill="#B25E4F"/>
<path d="M95.0126 44.6663C94.9341 44.8302 94.8233 44.9762 94.687 45.0956C94.5506 45.215 94.3915 45.3052 94.2193 45.3608C94.0472 45.4164 93.8656 45.4361 93.6856 45.4189C93.5056 45.4017 93.331 45.3478 93.1724 45.2605C92.9918 45.1373 92.8458 44.9694 92.7483 44.773C92.6793 44.6461 92.6477 44.502 92.657 44.3577C92.6664 44.2133 92.7165 44.0747 92.8013 43.9579C92.9634 43.7797 93.1838 43.6661 93.4223 43.638C93.5995 43.6042 93.7797 43.5888 93.96 43.5923C94.6524 43.641 95.3121 43.9075 95.8457 44.354C96.3758 44.7425 96.7772 45.1843 97.2997 45.55C96.6724 45.4446 96.0709 45.2197 95.5276 44.8872C95.0399 44.6045 94.4976 44.4305 93.9373 44.3769C93.7347 44.3568 93.5302 44.3828 93.339 44.453C93.339 44.453 93.339 44.453 93.339 44.5216C93.3789 44.609 93.4299 44.6909 93.4905 44.7654C93.7199 44.919 93.9932 44.9925 94.2682 44.9746C94.5432 44.9567 94.8048 44.8484 95.0126 44.6663Z" fill="#332066"/>
<path d="M99.0112 45.7937C99.4016 45.5068 99.8144 45.2521 100.246 45.032L100.814 44.7273C101.024 44.5676 101.26 44.4441 101.51 44.3616C101.681 44.3007 101.865 44.2906 102.041 44.3325C102.217 44.3744 102.377 44.4665 102.502 44.5978C102.638 44.739 102.714 44.9273 102.714 45.1234C102.713 45.2241 102.687 45.3229 102.638 45.4107C102.589 45.4985 102.519 45.5726 102.434 45.6262C102.307 45.6997 102.165 45.7453 102.019 45.7597C101.873 45.7741 101.725 45.7572 101.586 45.7099C101.35 45.6351 101.127 45.5219 100.927 45.3748C101.158 45.4082 101.391 45.4235 101.624 45.4205C101.809 45.4263 101.989 45.364 102.131 45.2453C102.192 45.1463 102.131 45.131 102.063 45.0472C101.995 44.9634 101.912 45.0472 101.737 45.0472C101.55 45.1322 101.368 45.2289 101.192 45.3367C100.951 45.454 100.697 45.5435 100.435 45.6033C99.9729 45.7402 99.4927 45.8044 99.0112 45.7937Z" fill="#332066"/>
<path d="M100.488 32.5088C100.127 33.6185 99.9756 34.7862 100.041 35.9519C100.119 37.1167 100.406 38.2575 100.889 39.3188C100.417 38.8989 100.032 38.3894 99.7566 37.8194C99.4809 37.2495 99.3198 36.6304 99.2825 35.9977C99.2452 35.3649 99.3325 34.731 99.5393 34.1323C99.7462 33.5336 100.069 32.9819 100.488 32.5088Z" fill="#332066"/>
<path d="M102.018 58.9871C100.261 61.3257 93.7555 60.5715 92.0289 58.6214C90.5784 56.7547 89.2769 54.7756 88.1364 52.7026C89.7797 49.2062 93.5359 49.5338 97.5193 50.684C101.684 50.1355 105.304 50.1812 106.122 53.5787C106.122 53.5634 104.1 56.1686 102.018 58.9871Z" fill="#FEA394"/>
<path d="M103.093 51.5296L91.2261 50.8745C89.7115 51.1259 88.5983 51.682 88.1212 52.6875C94.6946 61.2648 100.708 59.5966 106.107 53.5635C105.376 52.5456 104.307 51.8242 103.093 51.5296Z" fill="#332066"/>
<path d="M90.4007 55.27C94.9899 59.7414 99.2914 59.3606 103.275 56.2526C102.972 55.27 99.67 54.9653 97.3073 55.4909C94.1266 54.4168 91.7335 54.1959 90.4007 55.27Z" fill="#FEDAC9"/>
<path d="M103.093 51.5296L91.2261 50.8745C90.2641 50.97 89.3546 51.361 88.621 51.9943C88.621 51.9943 90.1356 54.2795 90.7112 54.1348C94.4219 53.0988 99.1172 53.5863 102.464 54.5462C102.798 54.6449 103.153 54.6458 103.487 54.5486C103.821 54.4515 104.12 54.2603 104.35 53.9977L105.41 52.7865C104.765 52.1643 103.964 51.7299 103.093 51.5296Z" fill="#FEFDFF"/>
<path d="M110.348 31.5641C111.591 32.2167 112.665 33.1533 113.483 34.2987C113.127 32.9124 112.855 31.3888 111.923 30.5357C109.81 28.6161 104.093 26.7269 103.108 28.3875C102.936 28.6166 102.842 28.8962 102.842 29.1836C102.842 29.471 102.936 29.7505 103.108 29.9796C103.487 30.5966 108.985 30.8632 110.348 31.5641Z" fill="#332066"/>
<path d="M92.4681 29.4618C93.3087 27.4812 91.5139 27.5269 91.1504 27.5117C89.2799 27.3974 85.5994 27.0089 83.9712 27.9383C82.542 28.8987 81.3796 30.2095 80.5937 31.747C81.0481 31.9298 83.4487 30.0331 84.3347 29.4999C86.0765 28.5172 91.8699 30.8634 92.4681 29.4618Z" fill="#332066"/>
<path d="M106.531 38.3971C107.46 38.3971 108.212 37.6399 108.212 36.706C108.212 35.772 107.46 35.0149 106.531 35.0149C105.603 35.0149 104.85 35.772 104.85 36.706C104.85 37.6399 105.603 38.3971 106.531 38.3971Z" fill="#332066"/>
<path d="M111.355 39.1283C110.923 38.5835 110.43 38.0902 109.886 37.6581C109.379 37.2488 108.809 36.927 108.197 36.7059C107.713 36.5303 107.193 36.4754 106.683 36.546C106.592 36.5993 106.471 36.5917 106.372 36.6526C106.272 36.7175 106.169 36.776 106.062 36.8278C105.956 36.904 105.781 36.9344 105.63 37.0259C105.421 37.1233 105.203 37.1998 104.979 37.2544C104.866 37.0372 104.812 36.7939 104.823 36.5492C104.834 36.3045 104.908 36.0669 105.039 35.8604C105.326 35.4518 105.735 35.1452 106.206 34.9844C106.648 34.8549 107.112 34.8219 107.568 34.8876C108.024 34.9533 108.46 35.1161 108.848 35.3652C109.538 35.7598 110.151 36.2758 110.658 36.8887C111.163 37.4889 111.495 38.2156 111.62 38.9912L111.355 39.1283Z" fill="#332066"/>
<path d="M88.9921 37.1402C89.9206 37.1402 90.6733 36.3831 90.6733 35.4491C90.6733 34.5152 89.9206 33.7581 88.9921 33.7581C88.0636 33.7581 87.3109 34.5152 87.3109 35.4491C87.3109 36.3831 88.0636 37.1402 88.9921 37.1402Z" fill="#332066"/>
<path d="M83.4487 35.9519C83.8241 35.2621 84.3791 34.6881 85.0541 34.2913C85.7359 33.8716 86.4877 33.58 87.273 33.4305C87.7221 33.3291 88.1872 33.3236 88.6385 33.4141C89.0898 33.5046 89.5173 33.6893 89.8933 33.9561C90.283 34.2708 90.5661 34.6992 90.7036 35.1825C90.7548 35.4213 90.7441 35.6694 90.6725 35.9029C90.6008 36.1363 90.4707 36.3473 90.2947 36.5156C90.1048 36.388 89.9273 36.2426 89.7645 36.0814C89.6434 35.9443 89.4843 35.8605 89.4162 35.7462C89.348 35.6319 89.242 35.5786 89.1814 35.4796C89.1208 35.3806 88.9997 35.3577 88.9315 35.2739C88.4648 35.0271 87.9442 34.9014 87.4169 34.9083C86.7664 34.9096 86.121 35.0229 85.5085 35.2435C84.8583 35.4684 84.2358 35.7674 83.6531 36.1347L83.4487 35.9519Z" fill="#332066"/>
<path d="M118.035 21.829C121.397 15.8264 118.254 13.564 116.952 15.0418C118.958 10.7226 115.24 8.186 113.286 10.4713C115.619 5.34467 109.977 3.40982 109.106 5.7484C110.045 2.0539 104.1 0.416139 103.57 3.60026C102.919 -0.855986 97.9131 -1.10736 96.9362 2.63284C95.8608 -1.69391 90.1205 0.0276457 90.3931 3.39459C88.7422 -0.32276 83.7971 0.804632 84.1984 5.75601C82.7444 1.69588 76.7693 4.99426 78.8973 9.56477C76.5649 6.12927 72.0817 10.9816 74.7928 14.8361C72.7254 13.046 70.6731 19.3076 74.6716 22.1565C72.3997 20.7244 71.5061 26.468 75.6713 28.6847C76.0802 33.0115 76.3453 39.1131 76.3453 39.1131L77.9507 41.8326L78.2915 28.6847C80.9799 26.0338 81.404 23.6572 81.972 21.4024C84.4105 11.7053 108.159 10.2351 111.173 22.5907C111.408 25.0664 112.105 27.3364 114.899 28.6238C115.096 31.1299 114.899 43.3408 114.899 43.3408L116.262 40.9413C116.338 39.2731 117.33 28.6238 117.33 28.6238C121.798 23.5201 118.807 21.2957 118.035 21.829Z" fill="#332066"/>
<path d="M78.4202 39.9434C77.8285 38.7382 76.8061 37.8023 75.5576 37.323C75.2091 37.1615 74.8256 37.0916 74.4429 37.1195C74.0602 37.1475 73.6907 37.2725 73.369 37.4829C72.5663 38.0771 72.43 39.2121 72.3694 40.21C72.1284 42.3724 72.2229 44.5593 72.6496 46.6925C72.8743 47.76 73.33 48.7647 73.9845 49.6349C74.6389 50.5052 75.476 51.2197 76.4361 51.7277C76.6403 51.833 76.8655 51.8903 77.0949 51.8953C77.3269 51.8867 77.5466 51.7885 77.7084 51.621" fill="#B25E4F"/>
<path d="M74.043 39.7074C74.2001 39.6031 74.3745 39.5282 74.558 39.4864C75.0192 39.3409 75.5157 39.357 75.9666 39.5322C76.1894 39.6236 76.3836 39.7737 76.5289 39.9667C76.6741 40.1598 76.765 40.3885 76.792 40.6291C76.8054 40.7651 76.7734 40.9018 76.7012 41.0176C76.6659 41.075 76.6151 41.1212 76.5548 41.1508C76.4945 41.1805 76.4271 41.1924 76.3604 41.1852C76.259 41.1536 76.1676 41.0958 76.0953 41.0176C75.8935 40.8082 75.6611 40.6309 75.4062 40.492C75.2802 40.4218 75.1411 40.3788 74.9976 40.3657C74.8542 40.3526 74.7097 40.3696 74.5732 40.4158C73.8916 40.6748 73.8159 41.6194 73.5887 42.2059C73.104 41.6574 73.4524 40.1263 74.043 39.7074Z" fill="#332066"/>
<path d="M75.853 43.5083C75.8018 43.3303 75.6973 43.1726 75.5536 43.0567C75.4099 42.9408 75.2341 42.8724 75.0503 42.8608C74.773 42.8706 74.5067 42.9724 74.293 43.1503C74.0602 43.3039 73.8721 43.5168 73.7477 43.7673C73.6168 44.1098 73.5904 44.4838 73.672 44.8414C73.8755 45.7266 74.2456 46.5644 74.7625 47.3095C74.9043 47.5761 75.0974 47.8117 75.3305 48.0027C75.4476 48.0957 75.5873 48.1554 75.7352 48.1755C75.8831 48.1956 76.0336 48.1754 76.1711 48.1169C76.2903 48.0437 76.3899 47.9423 76.4612 47.8215C76.5325 47.7006 76.5733 47.5641 76.58 47.4237C76.5968 47.2129 76.5629 47.0011 76.4812 46.8061C76.3995 46.6112 76.2723 46.439 76.1105 46.304C75.7697 46.0221 75.2774 45.9078 75.0503 45.5422C74.4368 44.5519 76.0802 44.4681 75.853 43.5083Z" fill="#332066"/>
<path d="M113.627 41.8706C113.647 41.6467 113.716 41.4302 113.83 41.2364C113.943 41.0426 114.097 40.8764 114.282 40.7497C114.466 40.623 114.677 40.5389 114.897 40.5036C115.118 40.4682 115.344 40.4824 115.558 40.5452C115.987 40.692 116.37 40.9493 116.669 41.2915C116.968 41.6337 117.172 42.0487 117.262 42.4952C117.438 43.3851 117.489 44.2954 117.414 45.1995C117.376 46.9515 117.527 48.7416 117.05 50.4251C116.573 52.1085 115.27 53.7235 113.536 53.8834" fill="#B25E4F"/>
<path d="M116.52 43.3713C116.541 43.156 116.516 42.9386 116.447 42.7337C116.377 42.5288 116.266 42.341 116.119 42.183C116.041 42.1123 115.939 42.0732 115.835 42.0732C115.73 42.0732 115.628 42.1123 115.551 42.183C115.502 42.2522 115.476 42.3347 115.476 42.4192C115.476 42.5037 115.502 42.5861 115.551 42.6553C115.641 42.7924 115.778 42.8991 115.884 43.0286C116.308 43.4932 116.126 44.1864 116.459 44.613C116.518 44.2019 116.538 43.7862 116.52 43.3713Z" fill="#332066"/>
<path d="M116.058 46.9059C116.164 47.2768 116.164 47.6701 116.058 48.0409L115.8 49.4273C115.782 49.5934 115.731 49.7541 115.649 49.8996C115.608 49.973 115.547 50.033 115.473 50.0722C115.399 50.1114 115.316 50.1282 115.232 50.1205C115.152 50.1009 115.079 50.0579 115.022 49.997C114.966 49.9361 114.928 49.8599 114.914 49.7777C114.893 49.6102 114.914 49.4399 114.975 49.2826C115.104 48.9246 115.316 48.6046 115.445 48.2466C115.525 48.0737 115.567 47.8852 115.567 47.6943C115.567 47.5035 115.525 47.3149 115.445 47.1421C115.361 46.9897 115.232 46.8678 115.164 46.7079C114.831 45.9613 115.891 46.4641 116.058 46.9059Z" fill="#332066"/>
<path d="M143.381 195.699H46.5985L45.3414 95.4218C45.3102 92.8553 46.1044 90.3473 47.6055 88.2718C49.1067 86.1962 51.2345 84.6642 53.6717 83.9041L67.7953 79.5088C77.4357 102.361 116.52 97.2424 119.723 80.202L131.84 83.0662C135.119 83.8378 138.042 85.7019 140.134 88.3557C142.227 91.0095 143.366 94.297 143.366 97.6842L143.381 195.699Z" fill="#FEA394"/>
<path d="M78.9731 121.832H75.0805C75.0858 122 75.1321 122.164 75.2152 122.311C75.2984 122.457 75.416 122.58 75.5576 122.67C75.9498 122.89 76.3971 122.99 76.845 122.959C77.2024 122.957 77.5573 122.901 77.8977 122.792C78.1658 122.706 78.4207 122.583 78.655 122.426H78.8443V123.622C78.1335 123.882 77.3818 124.011 76.6254 124.003C75.764 124.059 74.9071 123.838 74.1794 123.37C73.8993 123.169 73.6737 122.901 73.5229 122.589C73.3721 122.278 73.301 121.934 73.316 121.588C73.3015 121.242 73.3671 120.898 73.5077 120.582C73.6484 120.266 73.8602 119.987 74.1263 119.767C74.7613 119.288 75.5449 119.05 76.3377 119.097C77.0341 119.041 77.7268 119.244 78.2839 119.668C78.5066 119.877 78.6805 120.133 78.7931 120.418C78.9057 120.702 78.9543 121.008 78.9352 121.314L78.9731 121.832ZM77.2843 120.963C77.2907 120.704 77.1955 120.452 77.0192 120.263C76.8029 120.096 76.5343 120.012 76.2619 120.026C75.9781 120.015 75.6977 120.092 75.4592 120.247C75.3476 120.33 75.2571 120.438 75.1952 120.562C75.1333 120.687 75.1018 120.824 75.1033 120.963H77.2843Z" fill="white"/>
<path d="M83.1836 123.843C82.9916 123.887 82.7967 123.917 82.6005 123.934C82.3885 123.934 82.1461 123.934 81.8432 123.934C81.3154 123.977 80.7871 123.858 80.3286 123.591C80.1546 123.445 80.0193 123.258 79.9347 123.047C79.8501 122.836 79.8189 122.607 79.8439 122.38V120.217H79.1472V119.242H79.8666V117.909H81.5706V119.242H83.1685V120.247H81.5706V122.319C81.5704 122.434 81.5991 122.546 81.6539 122.647C81.703 122.746 81.7827 122.826 81.8811 122.875C82.0338 122.941 82.1999 122.97 82.3657 122.959C82.4836 122.956 82.6007 122.938 82.7141 122.906C82.8188 122.89 82.9208 122.859 83.017 122.814H83.1533V123.843H83.1836Z" fill="white"/>
<path d="M87.0156 123.386C86.9247 123.447 86.8187 123.523 86.6748 123.607C86.5533 123.688 86.4239 123.757 86.2885 123.812C86.1203 123.88 85.945 123.929 85.766 123.957C85.569 123.996 85.3685 124.013 85.1678 124.01C84.7114 124.025 84.2642 123.88 83.9031 123.599C83.7397 123.478 83.6077 123.319 83.5181 123.137C83.4284 122.954 83.3839 122.752 83.3881 122.548C83.3779 122.252 83.4688 121.962 83.6456 121.725C83.8504 121.491 84.1109 121.312 84.4029 121.207C84.7783 121.068 85.1706 120.981 85.5691 120.948C86.0311 120.895 86.5157 120.849 87.0231 120.826C87.029 120.709 86.9966 120.594 86.9309 120.498C86.8652 120.401 86.7699 120.329 86.6596 120.293C86.317 120.184 85.9584 120.135 85.5994 120.148C85.2948 120.153 84.9921 120.197 84.6982 120.278C84.3802 120.361 84.1605 120.43 84.0167 120.483H83.8576V119.356C84.0394 119.31 84.3271 119.265 84.7285 119.211C85.1348 119.153 85.5449 119.125 85.9553 119.127C86.6762 119.073 87.3987 119.207 88.0531 119.516C88.2631 119.642 88.4344 119.824 88.548 120.042C88.6616 120.259 88.7131 120.505 88.6968 120.75V123.904H86.9853V123.408L87.0156 123.386ZM87.0156 122.67V121.702L86.2583 121.771C86.0485 121.788 85.8407 121.823 85.6373 121.877C85.4885 121.905 85.3514 121.976 85.2435 122.083C85.1991 122.129 85.1647 122.184 85.1426 122.245C85.1204 122.305 85.1109 122.369 85.1147 122.433C85.1025 122.512 85.1025 122.591 85.1147 122.67C85.1439 122.741 85.1941 122.802 85.2586 122.845C85.3371 122.898 85.4243 122.937 85.5161 122.959C85.6725 122.995 85.8329 123.01 85.9932 123.005C86.3438 122.988 86.6826 122.872 86.9701 122.67H87.0156Z" fill="white"/>
<path d="M94.4901 122.411C94.4846 122.657 94.4108 122.896 94.277 123.102C94.1431 123.308 93.9546 123.472 93.7328 123.576C93.1114 123.898 92.4167 124.051 91.7184 124.018C91.2837 124.023 90.8497 123.982 90.4234 123.896C90.1089 123.839 89.7997 123.755 89.4995 123.645V122.411H89.7116L90.0069 122.586C90.158 122.666 90.315 122.735 90.4764 122.791C90.6746 122.858 90.877 122.912 91.0823 122.951C91.3192 122.999 91.5602 123.022 91.8017 123.02C92.0574 123.033 92.3135 123.002 92.559 122.929C92.7256 122.86 92.8013 122.761 92.8013 122.639C92.8047 122.588 92.7937 122.538 92.7696 122.493C92.7454 122.449 92.7092 122.412 92.665 122.388C92.4939 122.313 92.3127 122.264 92.1273 122.243C92.0062 122.243 91.832 122.19 91.6124 122.167C91.3928 122.144 91.1959 122.098 91.0293 122.068C90.6319 122 90.2617 121.82 89.9615 121.55C89.8451 121.438 89.7533 121.303 89.692 121.153C89.6307 121.004 89.6013 120.843 89.6055 120.681C89.6184 120.443 89.6957 120.213 89.8292 120.015C89.9627 119.818 90.1472 119.661 90.3628 119.562C90.9718 119.235 91.6579 119.082 92.3469 119.12C92.7303 119.117 93.1131 119.151 93.4905 119.219C93.781 119.27 94.0671 119.344 94.3462 119.44V120.62H94.1948C93.9222 120.46 93.6293 120.337 93.3239 120.255C93.0065 120.161 92.6777 120.112 92.3469 120.11C92.1108 120.104 91.8754 120.137 91.6502 120.209C91.4609 120.278 91.37 120.377 91.37 120.491C91.3662 120.542 91.3761 120.593 91.3988 120.638C91.4215 120.684 91.456 120.723 91.4988 120.75C91.6878 120.845 91.8937 120.902 92.1046 120.918C92.2788 120.918 92.4681 120.978 92.6726 121.009C92.8771 121.039 93.074 121.077 93.2784 121.116C93.6468 121.187 93.9909 121.352 94.2781 121.595C94.367 121.709 94.4317 121.841 94.4681 121.981C94.5046 122.121 94.5121 122.267 94.4901 122.411Z" fill="white"/>
<path d="M100.465 121.832H96.5272C96.5325 122 96.5787 122.164 96.6619 122.311C96.7451 122.457 96.8627 122.58 97.0043 122.67C97.3994 122.889 97.849 122.99 98.2993 122.959C98.6541 122.957 99.0065 122.9 99.3444 122.792C99.6256 122.709 99.8935 122.586 100.14 122.426H100.336V123.622C99.9804 123.745 99.6159 123.841 99.2459 123.911C98.8727 123.971 98.4955 124.002 98.1176 124.003C97.2537 124.06 96.3942 123.838 95.6639 123.37C95.3855 123.167 95.1622 122.896 95.014 122.584C94.8659 122.271 94.7978 121.926 94.8157 121.58C94.8012 121.234 94.8668 120.89 95.0075 120.574C95.1481 120.258 95.3599 119.979 95.6261 119.76C96.2565 119.276 97.0383 119.036 97.8298 119.082C98.526 119.028 99.218 119.231 99.776 119.653C100.001 119.862 100.176 120.119 100.29 120.405C100.404 120.691 100.454 120.999 100.435 121.306V121.832H100.465ZM98.7991 120.963C98.8054 120.835 98.7858 120.707 98.7416 120.586C98.6973 120.466 98.6293 120.356 98.5417 120.263C98.3253 120.095 98.0567 120.012 97.7844 120.026C97.4982 120.015 97.2153 120.092 96.974 120.247C96.8624 120.329 96.7723 120.437 96.7116 120.562C96.6509 120.687 96.6214 120.824 96.6257 120.963H98.7991Z" fill="white"/>
<path d="M102.979 123.881H101.276V117.444H102.979V123.881Z" fill="white"/>
<path d="M109.401 121.832H105.494C105.499 122 105.545 122.164 105.628 122.311C105.712 122.457 105.829 122.58 105.971 122.67C106.366 122.889 106.815 122.99 107.266 122.959C107.62 122.957 107.973 122.9 108.311 122.792C108.579 122.706 108.834 122.583 109.068 122.426H109.265V123.622C108.909 123.745 108.544 123.841 108.174 123.911C107.801 123.971 107.424 124.001 107.046 124.003C106.182 124.06 105.323 123.838 104.592 123.37C104.314 123.167 104.091 122.896 103.943 122.584C103.794 122.271 103.726 121.926 103.744 121.58C103.733 121.236 103.799 120.893 103.938 120.577C104.077 120.262 104.285 119.983 104.547 119.76C105.181 119.277 105.965 119.037 106.758 119.082C107.455 119.028 108.147 119.231 108.705 119.653C108.929 119.862 109.105 120.119 109.219 120.405C109.333 120.691 109.382 120.999 109.363 121.306V121.832H109.401ZM107.705 120.963C107.711 120.835 107.692 120.707 107.647 120.586C107.603 120.466 107.535 120.356 107.447 120.263C107.231 120.095 106.963 120.012 106.69 120.026C106.404 120.015 106.121 120.092 105.88 120.247C105.768 120.329 105.678 120.437 105.617 120.562C105.557 120.687 105.527 120.824 105.532 120.963H107.705Z" fill="white"/>
<path d="M112.998 124.01C112.57 124.013 112.143 123.964 111.726 123.866C111.368 123.784 111.029 123.634 110.727 123.424C110.451 123.225 110.225 122.964 110.068 122.662C109.91 122.327 109.832 121.959 109.841 121.588C109.825 121.199 109.912 120.813 110.09 120.468C110.256 120.16 110.495 119.898 110.787 119.706C111.088 119.498 111.428 119.353 111.787 119.28C112.498 119.111 113.236 119.098 113.953 119.242C114.245 119.309 114.531 119.401 114.808 119.516V120.788H114.566C114.49 120.726 114.409 120.67 114.324 120.621C114.217 120.543 114.103 120.477 113.983 120.423C113.847 120.358 113.705 120.307 113.559 120.27C113.386 120.225 113.207 120.204 113.029 120.209C112.84 120.188 112.648 120.209 112.468 120.272C112.288 120.335 112.125 120.437 111.989 120.571C111.853 120.705 111.749 120.868 111.684 121.048C111.619 121.228 111.595 121.42 111.613 121.611C111.599 121.797 111.625 121.983 111.689 122.158C111.753 122.333 111.853 122.492 111.984 122.624C112.286 122.873 112.67 122.998 113.059 122.974C113.251 122.976 113.441 122.953 113.627 122.906C113.775 122.877 113.918 122.825 114.051 122.754C114.151 122.704 114.247 122.648 114.339 122.586C114.415 122.529 114.488 122.468 114.559 122.403H114.801V123.675C114.529 123.788 114.247 123.877 113.96 123.942C113.643 123.998 113.321 124.021 112.998 124.01Z" fill="white"/>
<path d="M119.057 123.843C118.865 123.887 118.67 123.917 118.474 123.934C118.262 123.934 118.019 123.934 117.716 123.934C117.189 123.977 116.66 123.858 116.202 123.591C116.029 123.444 115.895 123.257 115.811 123.046C115.726 122.835 115.694 122.606 115.717 122.38V120.217H115.02V119.242H115.717V117.909H117.421V119.242H119.027V120.247H117.436V122.319C117.437 122.433 117.463 122.545 117.512 122.647C117.564 122.746 117.646 122.826 117.747 122.875C117.899 122.941 118.066 122.97 118.231 122.959C118.347 122.957 118.461 122.939 118.572 122.906C118.677 122.891 118.779 122.86 118.875 122.814H119.019V123.843H119.057Z" fill="white"/>
<path d="M68.8101 122.792V117.909H67.1062V123.881H68.8101V122.792Z" fill="white"/>
<path d="M72.377 120.491C72.1418 120.107 71.839 119.768 71.4834 119.493L71.3395 119.394H69.5977V119.927L69.7492 120.011C70.0391 120.184 70.2956 120.409 70.5065 120.674C70.6091 120.817 70.6931 120.974 70.7564 121.138C70.8177 121.312 70.8485 121.495 70.8473 121.679C70.8488 121.861 70.8181 122.042 70.7564 122.213C70.6912 122.377 70.6074 122.533 70.5065 122.677C70.4046 122.814 70.2878 122.94 70.1581 123.05C70.0344 123.16 69.8999 123.257 69.7567 123.34L69.6053 123.431V123.926H71.3622L71.491 123.827C71.853 123.555 72.1612 123.216 72.3997 122.83C72.6 122.485 72.7046 122.093 72.7026 121.695C72.7071 121.271 72.5944 120.854 72.377 120.491Z" fill="white"/>
<path d="M128.516 143.641C133.059 148.851 161.935 143.641 161.935 139.07L155.225 130.767H142.177L128.516 143.641Z" fill="#332066"/>
<path d="M154.036 195.699C155.695 189.049 158.868 175.535 158.913 169.433C158.982 159.995 157.815 137.44 157.815 137.44L136.285 140.487L138.557 167.544L137.043 195.729L154.036 195.699Z" fill="#B25E4F"/>
<path d="M133.779 113.925C142.043 113.925 148.743 107.186 148.743 98.8725C148.743 90.5594 142.043 83.8203 133.779 83.8203C125.514 83.8203 118.815 90.5594 118.815 98.8725C118.815 107.186 125.514 113.925 133.779 113.925Z" fill="#FEA394"/>
<path d="M128.561 143.542L118.807 99.9162L148.145 94.6296L161.981 138.971C150.788 138.209 139.867 148.364 128.561 143.542Z" fill="#FEA394"/>
<path d="M313.319 50.9126C313.189 51.2307 313.078 51.5563 312.986 51.8877C312.34 51.8001 311.684 51.8923 311.087 52.1542C310.49 52.4161 309.976 52.8377 309.601 53.3731C307.473 56.8847 303.065 60.823 299.68 63.1311L293.001 67.7016C292.753 67.8827 292.464 67.9997 292.16 68.0422C291.856 68.0847 291.547 68.0515 291.259 67.9454C290.995 67.8303 290.778 67.6298 290.64 67.3758C290.503 67.1218 290.454 66.8289 290.502 66.5437C290.502 64.4489 291.123 62.3008 289.873 60.3507C289.585 59.89 289.156 59.5351 288.652 59.3389C288.147 59.1426 287.592 59.1154 287.071 59.2614C285.905 59.627 286.177 60.6097 286.382 61.8666C286.519 62.9987 286.547 64.1417 286.465 65.2792C286.352 68.1053 280.558 71.5027 282.974 79.3031C284.08 82.8681 282.058 88.6041 282.058 88.6117L272.516 114.9L239.255 81.9387L221.641 106.216L272.319 145.393C273.605 146.391 275.152 146.992 276.772 147.122L281.876 147.548C282.953 147.637 284.024 147.314 284.875 146.643C285.726 145.972 286.293 145.003 286.465 143.93L295.174 89.7467C295.302 88.3396 295.633 86.9589 296.159 85.6485C296.825 84.2621 298.302 83.4699 299.498 82.5177C304.042 78.8765 307.988 74.047 311.289 69.2175C312.872 66.9322 317.939 57.0295 317.939 57.0295C317.939 57.0295 316.485 55.9554 315.455 56.6486C315.72 56.1763 316.659 53.3655 316.659 53.3655C317.143 52.2609 316.394 51.6134 315.826 51.621L316.454 49.968C315.773 48.9016 313.592 50.0671 313.319 50.9126Z" fill="#F8895D"/>
<path d="M312.781 52.5884C310.396 57.9206 306.352 61.4323 301.49 65.1725" stroke="#332066" stroke-width="0.5" stroke-miterlimit="10"/>
<path d="M315.311 51.781C312.804 57.4027 308.571 62.4455 303.05 67.0922" stroke="#332066" stroke-width="0.5" stroke-miterlimit="10"/>
<path d="M315.099 57.0752C311.767 62.4075 308.677 65.7973 305.201 69.8193" stroke="#332066" stroke-width="0.5" stroke-miterlimit="10"/>
<path d="M269.002 105.675L252.659 135.292L221.641 106.178L239.255 81.9387L269.002 105.675Z" fill="#D0CFEC"/>
<path d="M257.892 125.816L252.659 135.292L221.61 106.178L245.291 113.574C249.123 127.423 252.606 122.213 257.892 125.816Z" fill="#332066"/>
<path d="M229.547 108.448C237.811 108.448 244.511 101.709 244.511 93.3955C244.511 85.0824 237.811 78.3433 229.547 78.3433C221.282 78.3433 214.582 85.0824 214.582 93.3955C214.582 101.709 221.282 108.448 229.547 108.448Z" fill="#D0CFEC"/>
<path d="M242.36 92.5424C246.942 115.913 248.797 162.235 251.72 195.699H159.913L142.859 109.621C142.179 106.217 142.539 102.686 143.89 99.4911C145.242 96.2964 147.522 93.5875 150.432 91.7197L168.804 79.9811L203.079 77.0789L224.692 77.574C228.893 77.6676 232.936 79.2031 236.149 81.9258C239.363 84.6484 241.554 88.3945 242.36 92.5424Z" fill="#D0CFEC"/>
<path d="M195.945 195.699H159.913L149.175 141.515L171.629 129.929C180.027 143.641 177.763 161.656 179.724 175.49C179.959 177.15 222.89 135.452 223.307 136.975C214.976 145.713 189.115 176.015 181.049 181.416C183.359 186.832 188.463 194.031 195.945 195.699Z" fill="#332066"/>
<path d="M193.461 130.98L189.675 131.978C189.72 132.14 189.804 132.287 189.921 132.407C190.037 132.527 190.182 132.615 190.341 132.664C190.779 132.773 191.239 132.755 191.667 132.611C192.01 132.519 192.336 132.375 192.636 132.184C192.888 132.032 193.116 131.842 193.31 131.62L193.499 131.575L193.802 132.732C193.49 132.944 193.16 133.13 192.818 133.288C192.473 133.445 192.116 133.573 191.75 133.669C190.928 133.938 190.042 133.938 189.221 133.669C188.897 133.544 188.611 133.338 188.387 133.072C188.164 132.806 188.01 132.487 187.941 132.146C187.839 131.816 187.815 131.467 187.87 131.126C187.925 130.784 188.058 130.461 188.259 130.181C188.753 129.554 189.45 129.123 190.228 128.962C190.889 128.73 191.611 128.751 192.257 129.023C192.526 129.167 192.76 129.37 192.942 129.616C193.124 129.863 193.25 130.146 193.31 130.447L193.461 130.98ZM191.598 130.569C191.571 130.444 191.52 130.326 191.447 130.222C191.374 130.117 191.282 130.028 191.174 129.96C190.911 129.857 190.62 129.857 190.356 129.96C190.066 130.016 189.801 130.162 189.599 130.379C189.515 130.484 189.456 130.608 189.427 130.74C189.398 130.872 189.4 131.009 189.433 131.14L191.561 130.577L191.598 130.569Z" fill="#141D4B"/>
<path d="M198.005 131.849C197.829 131.941 197.647 132.02 197.46 132.085C197.225 132.175 196.985 132.252 196.74 132.313C196.251 132.479 195.723 132.493 195.226 132.351C195.025 132.254 194.851 132.109 194.719 131.928C194.587 131.748 194.501 131.537 194.469 131.315L193.923 129.213L193.249 129.396L192.992 128.421L193.666 128.238L193.333 126.951L194.976 126.516L195.317 127.804L196.831 127.4L197.089 128.375L195.574 128.779L195.991 130.371L196.104 130.79C196.131 130.899 196.186 130.999 196.263 131.079C196.334 131.166 196.434 131.226 196.544 131.247C196.709 131.266 196.877 131.251 197.036 131.201C197.146 131.167 197.253 131.121 197.354 131.064C197.45 131.022 197.54 130.966 197.619 130.896L197.755 130.858L198.013 131.856L198.005 131.849Z" fill="#141D4B"/>
<path d="M201.595 130.432L201.315 130.737C201.216 130.842 201.11 130.938 200.997 131.026C200.851 131.135 200.693 131.227 200.527 131.3C200.347 131.386 200.159 131.455 199.967 131.506C199.527 131.64 199.055 131.613 198.634 131.43C198.446 131.355 198.28 131.235 198.148 131.081C198.016 130.927 197.923 130.744 197.876 130.546C197.787 130.261 197.803 129.952 197.922 129.678C198.056 129.406 198.257 129.173 198.505 129C198.831 128.766 199.188 128.579 199.565 128.444C200.004 128.276 200.459 128.109 200.944 127.956C200.921 127.842 200.862 127.738 200.774 127.662C200.686 127.586 200.575 127.542 200.459 127.537C200.101 127.515 199.741 127.559 199.399 127.667C199.107 127.747 198.827 127.865 198.566 128.017C198.27 128.185 198.073 128.307 197.952 128.39L197.793 128.436L197.513 127.339C197.672 127.255 197.945 127.134 198.323 126.981C198.699 126.821 199.087 126.688 199.482 126.585C200.166 126.347 200.899 126.292 201.61 126.425C201.845 126.493 202.056 126.625 202.221 126.806C202.385 126.988 202.496 127.212 202.541 127.453L203.344 130.5L201.701 130.935L201.58 130.455L201.595 130.432ZM201.413 129.739L201.171 128.802L200.466 129.061C200.267 129.129 200.074 129.215 199.891 129.32C199.755 129.384 199.642 129.488 199.565 129.617C199.533 129.673 199.512 129.735 199.506 129.799C199.499 129.864 199.507 129.929 199.527 129.99C199.546 130.068 199.577 130.143 199.618 130.211C199.661 130.272 199.722 130.317 199.792 130.34C199.884 130.376 199.982 130.392 200.08 130.386C200.239 130.38 200.397 130.354 200.55 130.31C200.717 130.263 200.876 130.188 201.019 130.089C201.167 129.992 201.3 129.874 201.413 129.739Z" fill="#141D4B"/>
<path d="M208.607 127.583C208.666 127.819 208.657 128.066 208.584 128.297C208.51 128.529 208.374 128.735 208.191 128.893C207.662 129.36 207.023 129.683 206.335 129.83C205.917 129.944 205.488 130.016 205.056 130.043C204.736 130.071 204.414 130.071 204.094 130.043L203.783 128.847L203.935 128.809L204.26 128.901C204.43 128.937 204.602 128.962 204.775 128.977C205.223 129.011 205.673 128.972 206.108 128.863C206.357 128.808 206.595 128.713 206.813 128.581C206.871 128.547 206.918 128.496 206.946 128.435C206.975 128.373 206.984 128.305 206.972 128.238C206.959 128.188 206.934 128.143 206.898 128.107C206.862 128.07 206.817 128.045 206.767 128.032C206.584 128.008 206.398 128.008 206.214 128.032C206.093 128.032 205.919 128.032 205.699 128.086C205.48 128.139 205.283 128.131 205.109 128.139C204.707 128.171 204.305 128.094 203.942 127.918C203.802 127.836 203.68 127.726 203.584 127.595C203.488 127.464 203.419 127.315 203.382 127.156C203.333 126.927 203.346 126.688 203.421 126.465C203.496 126.243 203.629 126.045 203.806 125.892C204.313 125.419 204.939 125.095 205.616 124.955C205.985 124.855 206.363 124.791 206.744 124.764C207.039 124.738 207.336 124.738 207.63 124.764L207.926 125.907L207.782 125.945C207.479 125.859 207.166 125.813 206.85 125.808C206.519 125.797 206.188 125.833 205.866 125.915C205.636 125.974 205.416 126.069 205.215 126.197C205.048 126.311 204.987 126.425 205.018 126.539C205.025 126.59 205.047 126.637 205.081 126.675C205.114 126.713 205.158 126.74 205.207 126.753C205.415 126.793 205.628 126.793 205.836 126.753L206.404 126.684C206.601 126.684 206.813 126.684 207.017 126.638C207.391 126.608 207.765 126.682 208.1 126.852C208.233 126.928 208.348 127.033 208.436 127.16C208.524 127.286 208.582 127.431 208.607 127.583Z" fill="#141D4B"/>
<path d="M214.204 125.496L210.417 126.493C210.463 126.655 210.548 126.802 210.664 126.921C210.78 127.041 210.925 127.13 211.084 127.179C211.521 127.292 211.981 127.276 212.409 127.133C212.752 127.039 213.079 126.893 213.378 126.699C213.629 126.545 213.859 126.358 214.06 126.143L214.242 126.09L214.545 127.248C213.921 127.679 213.226 127.996 212.492 128.185C211.67 128.453 210.785 128.453 209.963 128.185C209.642 128.056 209.358 127.85 209.136 127.584C208.914 127.318 208.761 127.001 208.691 126.661C208.591 126.33 208.568 125.981 208.624 125.64C208.681 125.299 208.815 124.976 209.016 124.696C209.505 124.067 210.2 123.635 210.978 123.477C211.638 123.247 212.36 123.266 213.007 123.53C213.276 123.677 213.509 123.882 213.691 124.129C213.873 124.377 213.999 124.661 214.06 124.962L214.189 125.473L214.204 125.496ZM212.348 125.084C212.321 124.959 212.269 124.84 212.195 124.735C212.12 124.63 212.026 124.542 211.917 124.475C211.656 124.372 211.367 124.372 211.106 124.475C210.816 124.529 210.55 124.676 210.349 124.894C210.268 125.001 210.211 125.125 210.183 125.256C210.156 125.388 210.158 125.525 210.19 125.656L212.318 125.092L212.348 125.084Z" fill="#141D4B"/>
<path d="M217.157 126.836L215.506 127.271L213.908 121.047L215.559 120.613L217.157 126.836Z" fill="#141D4B"/>
<path d="M222.875 123.21L219.088 124.208C219.137 124.368 219.223 124.513 219.339 124.633C219.455 124.752 219.597 124.841 219.755 124.894C220.193 125.003 220.652 124.985 221.08 124.84C221.423 124.749 221.75 124.605 222.049 124.414C222.304 124.262 222.534 124.072 222.731 123.85L222.913 123.804L223.216 124.962C222.907 125.176 222.58 125.362 222.239 125.518C221.894 125.674 221.536 125.802 221.171 125.899C220.346 126.168 219.459 126.168 218.634 125.899C218.313 125.771 218.029 125.564 217.807 125.299C217.585 125.033 217.432 124.716 217.362 124.376C217.262 124.045 217.239 123.696 217.295 123.355C217.352 123.014 217.486 122.691 217.687 122.41C218.175 121.778 218.875 121.345 219.656 121.192C220.314 120.961 221.033 120.98 221.678 121.245C221.948 121.388 222.183 121.591 222.365 121.837C222.547 122.084 222.672 122.368 222.731 122.669L222.867 123.187L222.875 123.21ZM221.012 122.799C220.985 122.673 220.932 122.555 220.858 122.45C220.784 122.345 220.689 122.257 220.58 122.19C220.32 122.086 220.03 122.086 219.77 122.19C219.492 122.25 219.24 122.396 219.051 122.609C218.966 122.714 218.906 122.837 218.877 122.97C218.848 123.102 218.851 123.239 218.884 123.37L221.012 122.807V122.799Z" fill="#141D4B"/>
<path d="M226.873 124.399C226.461 124.514 226.036 124.578 225.609 124.589C225.243 124.597 224.878 124.537 224.533 124.414C224.217 124.291 223.935 124.096 223.708 123.843C223.468 123.559 223.297 123.222 223.208 122.86C223.114 122.485 223.114 122.092 223.208 121.717C223.285 121.369 223.449 121.046 223.685 120.78C223.925 120.503 224.215 120.276 224.541 120.11C224.889 119.924 225.257 119.781 225.639 119.683C225.963 119.593 226.295 119.539 226.631 119.523C226.932 119.515 227.233 119.53 227.532 119.569L227.85 120.803L227.616 120.864C227.527 120.822 227.436 120.787 227.343 120.757C227.217 120.714 227.088 120.681 226.957 120.658C226.809 120.635 226.66 120.619 226.51 120.613C226.33 120.617 226.152 120.646 225.98 120.697C225.791 120.733 225.612 120.808 225.453 120.917C225.294 121.025 225.159 121.166 225.056 121.329C224.886 121.664 224.854 122.052 224.965 122.41C224.999 122.594 225.072 122.768 225.179 122.921C225.287 123.073 225.425 123.201 225.586 123.294C225.937 123.461 226.338 123.485 226.707 123.363C226.894 123.314 227.075 123.243 227.244 123.149C227.38 123.082 227.505 122.995 227.616 122.89C227.699 122.82 227.775 122.74 227.843 122.654C227.908 122.584 227.966 122.507 228.017 122.426L228.252 122.365L228.57 123.591C228.333 123.772 228.079 123.93 227.812 124.063C227.513 124.21 227.198 124.323 226.873 124.399Z" fill="#141D4B"/>
<path d="M232.697 122.692C232.523 122.783 232.344 122.862 232.159 122.929C231.955 122.997 231.728 123.081 231.402 123.157C230.909 123.311 230.381 123.311 229.887 123.157C229.686 123.059 229.511 122.913 229.379 122.731C229.247 122.549 229.161 122.337 229.13 122.113L228.585 120.019L227.911 120.194L227.653 119.226L228.327 119.044L227.994 117.756L229.645 117.322L229.978 118.609L231.493 118.198L231.743 119.173L230.228 119.584L230.645 121.176L230.751 121.588C230.779 121.698 230.834 121.8 230.91 121.885C230.983 121.967 231.082 122.024 231.19 122.045C231.355 122.072 231.524 122.059 231.682 122.007C231.793 121.974 231.9 121.928 232 121.87C232.096 121.823 232.188 121.767 232.273 121.702H232.409L232.667 122.692H232.697Z" fill="#141D4B"/>
<path d="M183.829 134.5L183.45 133.06L183.192 132.062L182.874 130.843L182.594 129.777L180.943 130.211L182.458 135.993L184.101 135.559L183.829 134.5Z" fill="#141D4B"/>
<path d="M186.706 131.353C186.38 131.036 186.001 130.778 185.586 130.592L185.419 130.531L183.73 130.973L183.859 131.452L184.026 131.498C184.183 131.543 184.335 131.604 184.48 131.681C184.632 131.754 184.775 131.846 184.904 131.955C185.04 132.067 185.162 132.195 185.267 132.336C185.368 132.488 185.442 132.655 185.487 132.831C185.538 133.009 185.556 133.195 185.54 133.38C185.515 133.554 185.472 133.725 185.411 133.89C185.344 134.047 185.263 134.197 185.169 134.34C185.076 134.477 184.969 134.604 184.851 134.72L184.73 134.85L184.859 135.33L186.555 134.88L186.653 134.751C186.934 134.394 187.147 133.989 187.282 133.555C187.385 133.168 187.385 132.761 187.282 132.374C187.176 131.992 186.979 131.641 186.706 131.353Z" fill="#141D4B"/>
<path d="M200.148 100.571C187.077 100.335 168.842 80.0039 168.842 80.0039L170.962 72.1274V64.7993H202.443C202.443 64.7993 205.336 100.663 200.148 100.571Z" fill="#F8895D"/>
<path d="M176.702 74.0317L170.962 64.7993H202.443C202.443 64.7993 203.102 72.9805 203.2 81.5578C203.359 90.8588 176.702 74.0317 176.702 74.0317Z" fill="#332066"/>
<path d="M199.52 35.7081L190.659 22.9488L192.704 19.4219C198.058 24.3733 199.52 35.7081 199.52 35.7081Z" fill="#F6AE2D"/>
<path d="M193.59 78.8765L179.535 75.2658C177.201 74.6671 175.163 73.2348 173.802 71.2361C173.802 71.2361 161.238 54.3024 158.065 48.056C156.551 45.009 156.99 41.2764 156.793 38.9912C155.884 28.2353 174.817 13.5792 186.752 19.4446C186.752 19.4446 191.296 22.7659 192.484 24.1751C195.127 27.2221 200.815 38.1228 200.815 38.1228L201.678 41.7487C201.678 41.7487 208.986 48.3531 208.32 64.8526L207.108 71.617C206.07 76.3551 200.429 80.042 193.59 78.8765Z" fill="#F8895D"/>
<path d="M169.288 63.2683L163.616 56.9381L160.231 59.2234C152.969 48.9169 147.637 39.6845 150.591 35.0454C147.607 20.8997 176.339 4.76579 193.31 18.0888C186.593 33.2248 176.945 37.5668 170.742 41.0709C169.453 41.7942 168.483 42.9816 168.028 44.3947C167.572 45.8077 167.666 47.3417 168.289 48.6884C169.75 51.8649 170.046 53.1979 166.63 54.1958L169.288 63.2683Z" fill="#F6AE2D"/>
<path d="M163.616 56.9381C163.616 56.9381 160.489 55.0185 159.307 54.988C158.308 55.15 157.402 55.676 156.763 56.4658C156.556 57.1694 156.556 57.918 156.763 58.6216C156.937 59.3833 157.459 59.9775 158.86 60.7773C161.738 62.4638 163.993 65.043 165.29 68.1282C168.319 71.0381 169.902 69.8498 170.962 67.3665L163.616 56.9381Z" fill="#F8895D"/>
<path d="M158.255 58.5453C158.152 58.2807 158.152 57.9872 158.255 57.7226C158.474 57.2427 159.118 57.1589 159.64 57.2351C160.22 57.3135 160.78 57.4994 161.291 57.7836C161.372 57.8162 161.445 57.8657 161.505 57.9288C161.565 57.9918 161.611 58.0669 161.64 58.1492C161.693 58.4082 161.413 58.6291 161.155 58.69C160.896 58.7116 160.641 58.7706 160.398 58.8652C160.234 58.9867 160.116 59.1614 160.065 59.3598C160.014 59.5582 160.033 59.7683 160.118 59.9545C160.231 60.2669 160.549 60.4649 160.496 60.8077C159.976 60.6268 159.504 60.329 159.116 59.937C158.727 59.5449 158.433 59.069 158.255 58.5453Z" fill="#332066"/>
<path d="M164.48 59.5966C164.314 59.4509 164.101 59.3706 163.881 59.3706C163.661 59.3706 163.449 59.4509 163.283 59.5966C163.136 59.7884 163.047 60.0183 163.026 60.2594C162.946 60.9662 163.077 61.681 163.404 62.312C163.731 62.9431 164.237 63.4617 164.858 63.8015C165.094 63.9112 165.324 64.0333 165.547 64.1671C165.737 64.3043 165.903 64.4871 166.1 64.6166C166.195 64.6862 166.304 64.7328 166.42 64.7527C166.536 64.7725 166.654 64.765 166.767 64.7308C166.914 64.6615 167.03 64.5392 167.092 64.3881C167.187 64.146 167.186 63.8765 167.089 63.6354C166.991 63.3943 166.805 63.2001 166.57 63.0931C166.244 62.9636 165.865 63.0245 165.54 62.9026C165.336 62.8261 165.161 62.6872 165.04 62.5054C164.92 62.3236 164.858 62.1081 164.866 61.8895C164.904 61.0973 165.252 60.206 164.48 59.5966Z" fill="#332066"/>
<path d="M201.269 68.4787C202.549 67.5874 202.435 65.6297 202.443 64.0681C199.613 65.4037 196.866 66.9123 194.219 68.5853C195.521 69.2252 198.687 70.284 201.269 68.4787Z" fill="#ED704F"/>
<path d="M196.044 65.9419C197.096 65.5535 198.316 65.7134 199.285 65.1345C199.665 64.8763 200.017 64.5802 200.338 64.2509C201.211 63.4541 202.244 62.8542 203.367 62.4912C203.117 62.5674 202.61 63.8014 202.466 64.068C201.398 65.9496 196.279 69.3317 192.386 68.4633C193.457 67.4231 194.693 66.5708 196.044 65.9419Z" fill="#DB663E"/>
<path d="M193.537 44.8948C193.48 46.7242 194.037 48.5196 195.12 49.9909C195.647 50.7405 196.221 51.4554 196.839 52.1314C197.142 52.4894 197.445 52.8398 197.725 53.2283C198.005 53.6168 198.255 53.9901 198.482 54.4319C198.119 54.1196 197.786 53.7996 197.452 53.4797C197.119 53.1598 196.748 52.8627 196.407 52.5428C195.689 51.9141 195.048 51.2006 194.499 50.4175C193.941 49.6119 193.547 48.7032 193.34 47.7437C193.125 46.7953 193.193 45.8041 193.537 44.8948Z" fill="#332066"/>
<path d="M200.565 56.9915C200.796 57.1279 200.994 57.3129 201.147 57.5338C201.3 57.7547 201.404 58.0062 201.451 58.2712C201.572 58.7974 201.572 59.3446 201.451 59.8709C201.326 60.4332 201.003 60.9311 200.542 61.2725C200.116 61.5772 199.622 61.7733 199.103 61.8438C199.474 61.4782 199.861 61.1735 200.148 60.8307C200.424 60.506 200.612 60.115 200.694 59.6957C200.805 59.2574 200.863 58.8073 200.868 58.355C200.881 57.8823 200.776 57.4137 200.565 56.9915Z" fill="#332066"/>
<path d="M193.348 62.0342C193.749 61.5651 194.264 61.2074 194.842 60.9954C195.42 60.7833 196.042 60.724 196.65 60.823C196.806 60.8442 196.96 60.8773 197.112 60.922C197.328 60.9619 197.526 61.0684 197.68 61.2267C197.738 61.2981 197.779 61.3816 197.802 61.4712C197.824 61.5607 197.826 61.6542 197.808 61.7447C197.784 61.8541 197.726 61.9529 197.642 62.0265C197.56 62.1057 197.452 62.1518 197.339 62.156C197.246 62.1679 197.152 62.1679 197.059 62.156H196.847C196.274 62.0678 195.708 61.9457 195.15 61.7904L195.196 61.5543L195.688 61.8361L195.12 61.7904L193.992 61.6609L195.165 61.5466C195.742 61.4986 196.321 61.4808 196.9 61.4933H197.248C197.248 61.4933 197.059 61.6 197.081 61.6457C197.071 61.6616 197.066 61.6801 197.066 61.699C197.066 61.7179 197.071 61.7364 197.081 61.7523C197.081 61.7523 197.021 61.7523 196.877 61.699L196.498 61.6152C195.43 61.4417 194.335 61.5874 193.348 62.0342Z" fill="#332066"/>
<path d="M177.452 49.7397C179.159 48.699 181.053 48.0078 183.026 47.7058C184.101 47.4925 185.177 47.3173 186.267 47.1802C186.593 47.1802 187.024 47.1802 187.108 47.4925C187.132 47.6446 187.097 47.8003 187.009 47.9267C186.714 48.3872 186.327 48.7817 185.874 49.0857C185.421 49.3897 184.91 49.5967 184.374 49.694C183.321 49.9453 182.223 49.9682 181.155 50.151C178.126 50.6766 176.46 52.4363 174.423 54.4701C174.173 52.6648 176.089 50.6461 177.452 49.7397Z" fill="#F6AE2D"/>
<path d="M194.719 40.1796C196.15 37.9705 199.762 37.2469 200.625 37.8943C200.711 37.9395 200.783 38.0074 200.833 38.0906C200.883 38.1739 200.909 38.2693 200.909 38.3666C200.909 38.4639 200.883 38.5594 200.833 38.6426C200.783 38.7259 200.711 38.7937 200.625 38.8389C200.179 39.2731 199.3 39.3721 198.755 39.6845C197.604 40.3319 196.377 42.7315 195.112 42.8C193.499 42.9905 194.257 40.8956 194.719 40.1796Z" fill="#F6AE2D"/>
<path d="M196.983 46.5705C197.803 46.5705 198.467 45.9021 198.467 45.0775C198.467 44.2529 197.803 43.5845 196.983 43.5845C196.163 43.5845 195.499 44.2529 195.499 45.0775C195.499 45.9021 196.163 46.5705 196.983 46.5705Z" fill="#332066"/>
<path d="M201.33 43.181C200.725 43.1926 200.123 43.2692 199.535 43.4095C198.981 43.5275 198.451 43.7386 197.967 44.0341C197.593 44.2682 197.275 44.583 197.036 44.9558C197.036 45.0396 196.953 45.1082 196.937 45.1996C196.922 45.291 196.884 45.3748 196.869 45.4891C196.83 45.624 196.782 45.7563 196.725 45.8852C196.658 46.091 196.572 46.2899 196.468 46.4793C196.244 46.4447 196.034 46.35 195.859 46.2052C195.685 46.0604 195.552 45.8709 195.476 45.6567C195.355 45.214 195.379 44.744 195.544 44.316C195.709 43.9315 195.955 43.5875 196.265 43.3075C196.575 43.0274 196.941 42.818 197.339 42.6934C198.013 42.4494 198.728 42.3357 199.444 42.3583C200.142 42.3562 200.826 42.5573 201.413 42.9372L201.33 43.181Z" fill="#332066"/>
<path d="M181.731 55.2241C182.676 55.2241 183.442 54.4534 183.442 53.5026C183.442 52.5518 182.676 51.781 181.731 51.781C180.786 51.781 180.019 52.5518 180.019 53.5026C180.019 54.4534 180.786 55.2241 181.731 55.2241Z" fill="#332066"/>
<path d="M187.039 52.0629C186.347 51.9426 185.643 51.9043 184.942 51.9486C184.279 51.978 183.626 52.1196 183.011 52.3676C182.506 52.5657 182.058 52.8878 181.708 53.3045C181.708 53.4112 181.587 53.4874 181.549 53.594C181.511 53.7006 181.458 53.8149 181.428 53.9444C181.398 54.0739 181.292 54.2186 181.239 54.3938C181.148 54.6123 181.036 54.8214 180.905 55.0185C180.678 54.9235 180.479 54.7725 180.325 54.5795C180.172 54.3864 180.069 54.1575 180.027 53.9139C179.971 53.4073 180.074 52.8958 180.322 52.4514C180.572 52.0501 180.904 51.7068 181.296 51.4442C181.687 51.1816 182.13 51.0056 182.594 50.9279C183.392 50.7599 184.213 50.7393 185.018 50.8669C185.807 50.976 186.552 51.3029 187.168 51.8115L187.039 52.0629Z" fill="#332066"/>
<path d="M149.478 123.5C157.742 123.5 164.442 116.761 164.442 108.448C164.442 100.135 157.742 93.3955 149.478 93.3955C141.213 93.3955 134.513 100.135 134.513 108.448C134.513 116.761 141.213 123.5 149.478 123.5Z" fill="#D0CFEC"/>
<path d="M248.07 96.6862C247.621 96.6685 247.177 96.7967 246.806 97.0518C238.248 101.775 230.902 109.019 221.466 111.525C220.512 111.784 219.255 111.868 218.77 111.007C218.58 110.577 218.519 110.1 218.596 109.636C218.748 107.29 218.71 104.791 217.483 102.78C216.43 101.066 211.94 98.682 211.637 101.866C211.508 103.23 212.568 105.126 212.515 106.688C212.423 108.438 212.128 110.171 211.637 111.853C210.667 115.41 209.44 119.181 210.561 122.692C211.175 124.612 212.614 126.943 211.266 128.436C206.366 133.86 173.34 147.899 173.34 147.899L159.656 104.266L136.467 115.197L153.438 171.315C154.363 174.026 155.891 176.488 157.906 178.514L163.374 184.029C164.835 185.501 166.815 186.334 168.883 186.349C170.951 186.363 172.942 185.557 174.423 184.105C187.956 170.858 221.625 137.95 223.329 136.975C227.335 134.69 234.689 131.506 237.642 124.102C238.4 122.243 238.203 120.125 238.612 118.16C239.089 116.254 239.82 114.422 240.785 112.713C243.018 108.415 245.506 104.256 248.237 100.259C248.691 99.7011 249 99.039 249.138 98.3316C249.193 97.9731 249.115 97.6068 248.918 97.3031C248.72 96.9994 248.419 96.7796 248.07 96.6862Z" fill="#F8895D"/>
<path d="M175.741 143.245L162.973 101.866L134.93 111.998L144.919 157.367L175.741 143.245Z" fill="#D0CFEC"/>
<path d="M47.939 144.456C42.1532 148.196 15.8447 135.086 17.1093 130.699L25.8561 124.604L38.3819 128.307L47.939 144.456Z" fill="#332066"/>
<path d="M121.897 116.682C124.532 114.191 122.313 111.563 120.435 112.805L104.858 123.058C104.372 123.382 103.805 123.562 103.222 123.577C102.64 123.592 102.065 123.441 101.563 123.142C101.064 122.843 100.493 122.687 99.9124 122.692H98.6401C98.1469 122.701 97.6642 122.837 97.2391 123.089L91.5594 126.425C89.69 127.529 88.196 129.175 87.273 131.148L84.0091 138.164C83.0556 140.213 81.3876 141.839 79.3214 142.734C69.7189 146.893 45.3187 154.838 40.8128 155.752L54.3078 124.604L25.2958 122.159L10.4376 163.652C9.56877 166.383 9.33049 169.277 9.74084 172.115L10.8541 179.824C11.1546 181.881 12.2474 183.737 13.8966 184.992C15.5458 186.246 17.6191 186.797 19.669 186.527C61.3886 181.309 82.2825 158.083 91.3473 156.613C100.556 155.585 107.129 151.761 111.749 146.231C112.552 145.004 112.332 141.774 110.863 141.332C112.037 139.337 111.522 136.617 109.939 136.214C110.201 135.364 110.273 134.466 110.15 133.585C110.026 132.704 109.712 131.862 109.227 131.117C108.936 130.579 108.829 129.96 108.922 129.354C109.015 128.748 109.303 128.19 109.742 127.766C109.742 127.766 118.913 119.508 121.897 116.682Z" fill="#B25E4F"/>
<path d="M93.1345 130.104L101.518 123.127C102.193 123.455 102.944 123.594 103.691 123.53L93.1345 130.104Z" fill="#332066"/>
<path d="M55.2923 115.045C63.5569 115.045 70.2566 108.305 70.2566 99.9924C70.2566 91.6793 63.5569 84.9402 55.2923 84.9402C47.0278 84.9402 40.3281 91.6793 40.3281 99.9924C40.3281 108.305 47.0278 115.045 55.2923 115.045Z" fill="#FEA394"/>
<path d="M47.9162 144.364L69.3705 105.21L42.6682 91.9026L17.0942 130.592C28.0599 132.961 35.7237 145.827 47.9162 144.364Z" fill="#FEA394"/>
<path opacity="0.15" d="M120.67 116.652C120.182 116.588 119.735 116.345 119.415 115.969C119.095 115.594 118.924 115.112 118.936 114.618C118.974 114.342 119.115 114.092 119.329 113.917L120.087 113.224C120.42 112.936 120.853 112.792 121.291 112.823C121.729 112.854 122.138 113.059 122.427 113.391C122.713 113.727 122.856 114.162 122.825 114.603C122.794 115.044 122.591 115.454 122.26 115.745L121.541 116.362C121.423 116.468 121.285 116.548 121.135 116.598C120.985 116.648 120.827 116.666 120.67 116.652Z" fill="white"/>
<path d="M297.204 174.034L307.246 176.921L302.058 167.803L292.009 164.916L297.204 174.034Z" fill="#D0CFEC"/>
<path opacity="0.6" d="M297.204 174.034L307.246 176.921L302.058 167.803L292.009 164.916L297.204 174.034Z" fill="#FFFEFD"/>
<path d="M288.987 184.592L299.029 187.479L307.246 176.921L297.204 174.034L288.987 184.592Z" fill="#D0CFEC"/>
<path d="M288.987 184.592L283.792 175.474L292.009 164.916L297.204 174.034L288.987 184.592Z" fill="#D0CFEC"/>
<path opacity="0.1" d="M288.987 184.592L283.792 175.474L292.009 164.916L297.204 174.034L288.987 184.592Z" fill="#332066"/>
<path d="M17.026 56.618L27.3934 57.9435L20.8883 49.7166L10.5208 48.3911L17.026 56.618Z" fill="#D0CFEC"/>
<path opacity="0.6" d="M17.026 56.618L27.3934 57.9435L20.8883 49.7166L10.5208 48.3911L17.026 56.618Z" fill="#FFFEFD"/>
<path d="M10.4906 68.2958L20.8504 69.6289L27.3935 57.9436L17.0261 56.6182L10.4906 68.2958Z" fill="#D0CFEC"/>
<path d="M10.4906 68.2957L3.98538 60.0764L10.5209 48.3911L17.0261 56.618L10.4906 68.2957Z" fill="#D0CFEC"/>
<path opacity="0.1" d="M10.4906 68.2957L3.98538 60.0764L10.5209 48.3911L17.0261 56.618L10.4906 68.2957Z" fill="#332066"/>
<path d="M277.832 162.06C279.12 162.06 280.165 161.009 280.165 159.714C280.165 158.418 279.12 157.367 277.832 157.367C276.544 157.367 275.5 158.418 275.5 159.714C275.5 161.009 276.544 162.06 277.832 162.06Z" fill="#7C3AED"/>
<path d="M265.132 44.9785C266.42 44.9785 267.465 43.9281 267.465 42.6323C267.465 41.3366 266.42 40.2861 265.132 40.2861C263.844 40.2861 262.8 41.3366 262.8 42.6323C262.8 43.9281 263.844 44.9785 265.132 44.9785Z" fill="#7C3AED"/>
<path d="M17.026 106.559C18.3142 106.559 19.3585 105.508 19.3585 104.212C19.3585 102.917 18.3142 101.866 17.026 101.866C15.7379 101.866 14.6936 102.917 14.6936 104.212C14.6936 105.508 15.7379 106.559 17.026 106.559Z" fill="#7C3AED"/>
<path d="M14.6936 87.2861C15.9818 87.2861 17.026 86.2357 17.026 84.9399C17.026 83.6442 15.9818 82.5938 14.6936 82.5938C13.4054 82.5938 12.3611 83.6442 12.3611 84.9399C12.3611 86.2357 13.4054 87.2861 14.6936 87.2861Z" fill="#7C3AED"/>
<path d="M47.939 58.9414C49.2271 58.9414 50.2714 57.891 50.2714 56.5952C50.2714 55.2995 49.2271 54.249 47.939 54.249C46.6508 54.249 45.6065 55.2995 45.6065 56.5952C45.6065 57.891 46.6508 58.9414 47.939 58.9414Z" fill="#7C3AED"/>
<path d="M262.444 166.63C263.385 166.63 264.148 165.863 264.148 164.916C264.148 163.97 263.385 163.202 262.444 163.202C261.503 163.202 260.74 163.97 260.74 164.916C260.74 165.863 261.503 166.63 262.444 166.63Z" fill="#7C3AED"/>
<path d="M255.84 31.4804C256.781 31.4804 257.544 30.713 257.544 29.7664C257.544 28.8198 256.781 28.0525 255.84 28.0525C254.899 28.0525 254.136 28.8198 254.136 29.7664C254.136 30.713 254.899 31.4804 255.84 31.4804Z" fill="#7C3AED"/>
<path d="M17.0942 29.4921C18.0353 29.4921 18.7981 28.7247 18.7981 27.7781C18.7981 26.8316 18.0353 26.0642 17.0942 26.0642C16.1532 26.0642 15.3903 26.8316 15.3903 27.7781C15.3903 28.7247 16.1532 29.4921 17.0942 29.4921Z" fill="#7C3AED"/>
<path d="M269.79 180.471C271.739 180.471 273.319 178.882 273.319 176.922C273.319 174.961 271.739 173.372 269.79 173.372C267.84 173.372 266.26 174.961 266.26 176.922C266.26 178.882 267.84 180.471 269.79 180.471Z" fill="#7C3AED"/>
<path d="M250.607 49.7243C252.556 49.7243 254.136 48.135 254.136 46.1745C254.136 44.214 252.556 42.6248 250.607 42.6248C248.658 42.6248 247.078 44.214 247.078 46.1745C247.078 48.135 248.658 49.7243 250.607 49.7243Z" fill="#7C3AED"/>
<path d="M3.98537 96.9452C5.93439 96.9452 7.51438 95.3559 7.51438 93.3955C7.51438 91.435 5.93439 89.8457 3.98537 89.8457C2.03635 89.8457 0.45636 91.435 0.45636 93.3955C0.45636 95.3559 2.03635 96.9452 3.98537 96.9452Z" fill="#7C3AED"/>
<path d="M324.777 160.917C326.726 160.917 328.306 159.328 328.306 157.367C328.306 155.407 326.726 153.818 324.777 153.818C322.828 153.818 321.248 155.407 321.248 157.367C321.248 159.328 322.828 160.917 324.777 160.917Z" fill="#7C3AED"/>
</svg>
