<svg width="108" height="152" viewBox="0 0 108 152" fill="none" xmlns="http://www.w3.org/2000/svg">
<path d="M0.261803 63.901C0.258381 56.3573 2.03933 48.9201 5.45888 42.198C8.87843 35.4759 13.8394 29.6601 19.9356 25.2266C26.0318 20.7932 33.0901 17.8681 40.5326 16.6908C47.9751 15.5136 55.5903 16.1175 62.7548 18.4534C69.9193 20.7892 76.4294 24.7905 81.7524 30.1297C87.0753 35.4688 91.0597 41.9941 93.3794 49.1714C95.6991 56.3487 96.2882 63.974 95.0984 71.423C93.9087 78.8721 90.9738 85.9332 86.5342 92.0283C79.723 102.265 62.0265 113.903 62.0265 120.856V128.802C62.0276 129.179 61.9543 129.552 61.8109 129.901C61.6675 130.25 61.4568 130.567 61.1908 130.834C60.9249 131.101 60.6089 131.312 60.261 131.457C59.9132 131.601 59.5403 131.676 59.1636 131.676H36.7795C36.4029 131.676 36.03 131.601 35.6821 131.457C35.3343 131.312 35.0183 131.101 34.7524 130.834C34.4864 130.567 34.2757 130.25 34.1323 129.901C33.9889 129.552 33.9156 129.179 33.9166 128.802V120.856C33.9166 113.903 16.2201 102.304 9.40893 92.0283C3.44723 83.8664 0.242738 74.0126 0.261803 63.901Z" fill="#FEDAC9"/>
<path d="M63.1661 124.251H32.791V138.74C32.7921 141.108 33.4658 143.426 34.7337 145.425C35.9114 147.282 37.538 148.811 39.4627 149.87C41.3875 150.93 43.5482 151.487 45.7449 151.488H50.1965C52.3932 151.487 54.5539 150.93 56.4787 149.87C58.4034 148.811 60.0299 147.282 61.2077 145.425C62.4755 143.426 63.1493 141.108 63.1504 138.74L63.1661 124.251Z" fill="#7C3AED"/>
<path d="M32.7843 134.023H33.0439L63.419 130.873C63.6604 130.844 63.8936 130.767 64.1046 130.646C64.3155 130.525 64.4999 130.363 64.6468 130.168C64.7936 129.974 64.8998 129.753 64.9592 129.517C65.0185 129.281 65.0296 129.035 64.992 128.794C64.9232 128.291 64.6631 127.835 64.266 127.519C63.8688 127.204 63.3653 127.054 62.8605 127.101L32.4855 130.251C32.244 130.28 32.0108 130.357 31.7999 130.478C31.5889 130.599 31.4045 130.762 31.2577 130.956C31.1108 131.15 31.0046 131.372 30.9453 131.608C30.886 131.844 30.8748 132.089 30.9124 132.33C30.9781 132.786 31.2012 133.206 31.5431 133.515C31.8849 133.824 32.324 134.004 32.7843 134.023Z" fill="#D0CFEC"/>
<path d="M32.7844 140.653H33.0439L63.419 137.503C63.6608 137.473 63.8941 137.395 64.1051 137.273C64.3161 137.151 64.5005 136.988 64.6472 136.794C64.794 136.599 64.9001 136.377 64.9594 136.14C65.0186 135.903 65.0297 135.657 64.992 135.416C64.9233 134.914 64.6632 134.457 64.266 134.141C63.8688 133.826 63.3653 133.676 62.8606 133.723L32.4855 136.873C32.2437 136.903 32.0104 136.981 31.7994 137.103C31.5884 137.225 31.404 137.388 31.2573 137.583C31.1105 137.777 31.0044 138 30.9451 138.236C30.8859 138.473 30.8748 138.719 30.9125 138.96C30.9782 139.416 31.2013 139.836 31.5431 140.145C31.885 140.454 32.3241 140.634 32.7844 140.653Z" fill="#D0CFEC"/>
<path d="M33.5782 147.22H33.8378L62.6241 144.228C62.8696 144.203 63.1075 144.128 63.3234 144.009C63.5393 143.889 63.7287 143.727 63.8802 143.532C64.0316 143.337 64.142 143.113 64.2046 142.874C64.2672 142.635 64.2807 142.386 64.2443 142.141C64.1719 141.639 63.9097 141.183 63.5117 140.868C63.1137 140.553 62.6103 140.403 62.105 140.448L33.3187 143.441C33.0739 143.466 32.8368 143.54 32.6215 143.659C32.4062 143.778 32.2172 143.94 32.0658 144.134C31.9145 144.328 31.8039 144.551 31.7408 144.789C31.6777 145.027 31.6633 145.276 31.6985 145.519C31.7642 145.978 31.9881 146.399 32.3314 146.71C32.6748 147.02 33.1159 147.201 33.5782 147.22Z" fill="#D0CFEC"/>
<path opacity="0.5" d="M45.4472 124.251V85.1074L36.4023 77.9417V40.7432" stroke="white" stroke-width="3" stroke-miterlimit="10"/>
<path opacity="0.5" d="M56.2852 124.251V108.14L70.0491 95.9427V67.8232" stroke="white" stroke-width="3" stroke-miterlimit="10"/>
<path opacity="0.5" d="M39.9643 124.25V100.682L23.4004 86.7131V66.0586" stroke="white" stroke-width="3" stroke-miterlimit="10"/>
<path opacity="0.5" d="M50.6934 124.25V57.8613" stroke="white" stroke-width="3" stroke-miterlimit="10"/>
<path d="M23.4013 70.2872C25.7339 70.2872 27.6249 68.394 27.6249 66.0586C27.6249 63.7233 25.7339 61.8301 23.4013 61.8301C21.0687 61.8301 19.1777 63.7233 19.1777 66.0586C19.1777 68.394 21.0687 70.2872 23.4013 70.2872Z" fill="#F6AE2D"/>
<path d="M36.4013 44.9717C38.7339 44.9717 40.6249 43.0785 40.6249 40.7432C40.6249 38.4078 38.7339 36.5146 36.4013 36.5146C34.0687 36.5146 32.1777 38.4078 32.1777 40.7432C32.1777 43.0785 34.0687 44.9717 36.4013 44.9717Z" fill="#F6AE2D"/>
<path d="M50.6923 62.0899C53.0249 62.0899 54.9159 60.1967 54.9159 57.8614C54.9159 55.526 53.0249 53.6328 50.6923 53.6328C48.3597 53.6328 46.4688 55.526 46.4688 57.8614C46.4688 60.1967 48.3597 62.0899 50.6923 62.0899Z" fill="#F6AE2D"/>
<path d="M70.0497 72.0518C72.3824 72.0518 74.2733 70.1586 74.2733 67.8233C74.2733 65.4879 72.3824 63.5947 70.0497 63.5947C67.7171 63.5947 65.8262 65.4879 65.8262 67.8233C65.8262 70.1586 67.7171 72.0518 70.0497 72.0518Z" fill="#F6AE2D"/>
<path d="M97.9613 24.6084H87.1074V42.7352H97.9613V24.6084Z" fill="#D0CFEC"/>
<path d="M85.7552 0.512695H72.416V22.7893H85.7552V0.512695Z" fill="#D0CFEC"/>
<path d="M70.3479 30.0889H63.8828V40.8925H70.3479V30.0889Z" fill="#D0CFEC"/>
<path d="M100.125 55.4444H93.6602V66.248H100.125V55.4444Z" fill="#D0CFEC"/>
<path d="M107.739 11.6553H101.273V22.4589H107.739V11.6553Z" fill="#D0CFEC"/>
<path d="M87.1078 42.7354H76.2539V60.8622H87.1078V42.7354Z" fill="#D0CFEC"/>
</svg>
