<svg width="414" height="250" viewBox="0 0 414 250" fill="none" xmlns="http://www.w3.org/2000/svg">
<path d="M188.234 248.759H112.725L93.9121 148.113H188.234V248.759Z" fill="#7BE0AD"/>
<path d="M117.628 248.759H112.725L93.9121 148.113H97.6613C106 159.847 109.149 180.206 106.701 200.044C118.028 212.507 118.942 241.01 117.628 248.759Z" fill="#332066"/>
<path d="M81.1302 89.1348L65.9668 70.2466L99.549 53.1436L113.091 61.909L81.1302 89.1348Z" fill="#B25E4F"/>
<path d="M209.349 42.2385C206.48 52.9363 201.517 60.9596 197.248 59.8096C192.978 58.6596 193.499 48.938 196.367 38.2803C199.236 27.6227 204.279 18.9709 207.935 20.1677C210.576 23.1764 212.211 31.5808 209.349 42.2385Z" fill="#332066"/>
<path d="M208.121 60.1372L209.128 35.9202L178.955 41.4964L166.273 57.2555L208.121 60.1372Z" fill="#B25E4F"/>
<path d="M194.899 103.918C194.899 101.431 196.833 99.4381 198.475 97.566C200.116 95.6939 201.65 93.1465 200.696 90.8799C200.082 89.3889 198.494 88.2991 198.374 86.6877C198.261 85.2368 199.415 83.9264 199.395 82.4688C199.395 80.7237 197.701 79.4066 197.394 77.6882C197.087 75.9699 198.188 74.285 198.935 72.667C199.682 71.0489 199.862 68.7355 198.328 67.8329C197.454 67.3181 196.326 67.4719 195.432 66.9905C192.604 65.4393 195.259 59.9366 192.497 58.2985C191.917 58.0713 191.359 57.7916 190.829 57.4628C189.769 56.5468 190.309 54.7883 189.849 53.4511C189.082 51.2113 186.073 51.0575 183.845 50.2551C183.359 50.1227 182.937 49.8188 182.657 49.3993C182.23 48.5903 182.831 47.6543 183.211 46.8252C183.726 45.5948 183.782 44.2202 183.371 42.9514C182.959 41.6827 182.107 40.604 180.97 39.9117C179.789 39.2431 178.301 38.9623 177.561 37.8123C177.12 37.1437 177.06 36.221 176.58 35.5591C174.932 33.3126 170.689 35.8199 168.788 33.7873C167.874 32.8111 168.014 31.2466 167.387 30.0631C166.2 27.8366 163.024 27.8701 160.863 26.5663C159.562 25.7773 158.648 24.4936 157.527 23.4572C152.631 18.9508 152.384 20.8697 146.253 23.4572C144.385 24.2462 142.03 26.8538 140.016 26.593C137.901 26.3189 136.193 24.7878 134.252 23.9186C132.311 23.0494 129.489 23.1363 128.655 25.102C128.415 25.6837 128.388 26.339 128.148 26.9206C127.481 28.4986 125.586 29.0067 124.099 29.8358C122.611 30.6649 121.43 32.8646 122.764 33.9344C118.602 34.4425 117.294 38.4007 113.298 39.671C111.79 40.1458 110.149 39.9318 108.628 40.2527C107.107 40.5737 105.466 41.8173 105.673 43.3885C105.791 43.8973 105.936 44.3994 106.107 44.8929C106.654 47.32 104.039 49.1453 101.897 50.4022C99.7559 51.6592 97.4343 54.1197 98.7018 56.2593C99.0954 56.9279 99.7825 57.3825 100.036 58.1046C100.703 60.0302 97.8613 61.4477 97.6745 63.507C97.4877 65.5663 99.8693 66.8501 100.069 68.8559C100.416 72.3059 94.3256 73.9841 95.0261 77.374C95.3129 78.7714 96.7339 79.7074 97.0274 81.0981C97.481 83.1842 95.353 84.7889 93.9187 86.3668C92.5165 87.9746 91.6607 89.9876 91.4748 92.1149C91.289 94.2422 91.7827 96.3736 92.8847 98.2012C92.968 98.3738 93.0873 98.5264 93.2347 98.6487C93.382 98.7709 93.5538 98.86 93.7385 98.9099C95.0728 99.0704 94.1055 96.523 94.9327 95.4332C95.5998 94.5573 96.974 95.1523 97.8613 95.7942C99.7292 97.1314 101.657 98.5756 102.731 100.622C103.805 102.668 103.705 105.529 101.897 106.96C101.143 107.555 100.176 107.843 99.4357 108.464C97.2275 110.323 98.9687 114.743 101.851 114.589C101.504 116.194 101.183 117.858 101.524 119.456C101.864 121.054 103.185 122.565 104.819 122.605C105.346 122.605 105.873 122.485 106.394 122.539C108.261 122.712 109.129 125.033 108.942 126.905C108.755 128.777 107.941 130.609 108.215 132.467C108.488 134.326 110.683 136.051 112.177 134.921C113.245 134.106 113.158 132.508 113.605 131.237C114.052 129.967 116.16 129.171 116.527 130.462C116.002 131.905 115.981 133.483 116.465 134.94C116.95 136.397 117.912 137.646 119.195 138.485C118.388 141.22 118.201 145.171 120.957 145.893C123.031 146.435 124.799 144.482 126.58 143.306C131.517 140.043 138.395 142.45 143.825 140.116C147.774 138.425 150.529 134.393 154.692 133.35C157.808 132.568 161.136 133.631 164.279 132.996C167.167 132.414 169.582 130.475 172.317 129.405C175.433 128.182 171.297 127.266 174.612 126.838C180.396 126.089 188.241 124.23 192.877 120.359C194.706 118.732 196.085 116.659 196.88 114.341C198.221 110.096 194.905 107.876 194.899 103.918Z" fill="#F6AE2D"/>
<path d="M242.297 248.946L235.96 200.218C235.96 200.218 243.044 179.183 239.962 173.961L190.109 115.679L170.47 114.943L130.443 118.219L100.283 137.562L130.57 232.338L130.85 248.926L242.297 248.946Z" fill="#FEDAC9"/>
<path d="M23.3789 94.0424L72.4046 57.1418C72.4046 57.1418 88.5553 69.5245 83.3052 87.3965L59.5361 108.979L115.493 140.551L125.5 203.227C125.5 203.227 44.3861 142.824 26.4676 116.949C16.1541 102.019 23.3789 94.0424 23.3789 94.0424Z" fill="#FEDAC9"/>
<path d="M253.458 31.3669C236.553 30.7852 221.297 27.2148 207.934 20.1877C207.934 20.1877 209.936 46.8386 197.261 59.8297L236.467 64.764L173.231 129.78L220.689 159.867C220.689 159.867 269.168 78.4772 274.111 47.3601C274.699 43.6961 274.111 35.9937 270.643 33.7538C264.799 30.0297 253.458 31.3669 253.458 31.3669Z" fill="#FEDAC9"/>
<path d="M257.754 62.6378C249.942 67.2111 241.843 68.5483 235.272 65.9809L236.453 64.764C242.471 67.2913 249.855 65.6934 257.754 62.6378Z" fill="#332066"/>
<path d="M60.7038 109.628C57.4483 112.302 55.3269 113.907 48.8359 115.605C53.3389 113.599 57.3416 111.507 59.5564 108.979L60.7038 109.628Z" fill="#332066"/>
<path d="M132.738 131.799C160.089 154.799 181.81 159.459 187.207 143.526C190.356 134.233 186.04 124.036 177.414 119.389L170.169 115.485C166.353 110.082 168.915 106.224 166.32 93.7215L128.328 87.8243C131.89 98.5221 133.378 112.309 134.599 118.393L131.497 123.027C130.588 124.385 130.213 126.032 130.442 127.651C130.671 129.27 131.488 130.747 132.738 131.799Z" fill="#B25E4F"/>
<path d="M168.595 112.476C167.26 108.872 167.928 101.578 166.32 93.7215L135.199 88.8674C143.178 120.961 164.465 115.812 168.595 112.476Z" fill="#332066"/>
<path d="M130.23 86.9083C130.13 87.3964 128.822 87.851 128.328 87.8243C127.835 87.758 127.371 87.5488 126.994 87.2225C125.6 86.104 124.51 84.6505 123.825 82.9969C123.144 81.3519 122.645 79.6366 122.338 77.882C122.119 76.9102 121.983 75.9216 121.931 74.9268C121.337 62.5107 127.501 66.616 128.222 69.0698" fill="#B25E4F"/>
<path d="M127.341 82.9167C127.488 83.0952 127.591 83.306 127.641 83.5318C127.663 83.6458 127.645 83.7635 127.592 83.8664C127.539 83.9693 127.453 84.0516 127.348 84.1002C126.981 84.2205 126.681 83.7792 126.507 83.4315C126.211 82.9167 125.776 82.4952 125.253 82.2147C125.047 82.127 124.856 82.0074 124.686 81.8603C124.463 81.5927 124.335 81.2591 124.319 80.9109C124.14 79.6179 124.165 78.3048 124.393 77.0196C124.479 76.5047 124.673 75.9164 125.16 75.7425C126.841 75.1408 126.741 78.0492 126.494 78.9251C126.286 79.6078 126.254 80.3325 126.402 81.0308C126.55 81.7291 126.874 82.3782 127.341 82.9167Z" fill="#332066"/>
<path d="M170.703 108.337C170.703 108.337 177.494 107.147 179.322 97.3186C179.322 97.3186 180.869 83.5854 181.37 76.1638C181.556 73.4648 180.928 70.772 179.569 68.4347L177.567 65.0114C177.467 64.6328 177.402 64.2455 177.374 63.8547L176.78 55.2764C176.78 55.2764 167.808 30.5379 148.208 37.224C128.608 43.9101 127.754 63.2998 127.754 63.2998L128.208 69.0966L126.627 77.6481C127.001 78.7647 128.075 87.8979 128.628 88.9142H135.166C135.166 88.9142 139.836 100.989 146.213 105.222C154.225 110.49 169.802 108.591 170.703 108.337Z" fill="#B25E4F"/>
<path d="M174.598 92.07L168.594 94.2563L157.794 92.07C160.703 88.9609 169.135 87.6037 176.606 86.7612C176.226 89.0278 175.646 90.9267 174.598 92.07Z" fill="#332066"/>
<path d="M160.383 91.4682L160.056 90.7996C162.958 87.6906 167.968 88.3659 175.446 87.5234C175.299 92.2839 164.959 92.2839 160.383 91.4682Z" fill="white"/>
<path d="M165.326 87.2025C166.773 86.7746 168.228 86.1194 169.729 86.3467C170.128 86.4378 170.534 86.4959 170.943 86.5205C171.61 86.5205 172.277 85.7182 172.944 85.5644C174.278 85.2569 175.706 86.233 176.573 86.7612C175.906 86.9551 174.458 88.7671 171.557 89.2685C168.374 89.8168 164.565 89.2685 157.761 92.07C157.794 92.07 161.543 88.3124 165.326 87.2025Z" fill="#E58A7F"/>
<path d="M176.58 86.7612C174.906 95.7407 158.068 91.6287 157.768 92.07C163.091 93.1866 176.253 102.092 176.58 86.7612Z" fill="#FEA394"/>
<path d="M170.116 79.0723C169.509 79.2595 169.002 79.3665 168.535 79.5269C168.103 79.6638 167.687 79.8477 167.294 80.0752C167.125 80.1723 166.964 80.2842 166.814 80.4095C166.814 80.4095 166.767 80.4496 166.761 80.4095C166.776 80.3503 166.776 80.2882 166.761 80.229C166.752 80.1948 166.736 80.1629 166.714 80.1354C166.714 80.1688 166.714 80.1755 166.714 80.2089C166.714 80.2423 167.061 80.2089 167.301 80.1621C167.541 80.1153 167.815 79.9682 168.102 79.8813C167.952 80.136 167.775 80.3737 167.574 80.59C167.455 80.7288 167.309 80.8422 167.145 80.9238C166.981 81.0053 166.803 81.0532 166.621 81.0647C166.493 81.0592 166.368 81.0272 166.253 80.9708C166.138 80.9144 166.036 80.8349 165.953 80.7371L165.893 80.6703V80.6368C165.865 80.5934 165.842 80.5461 165.827 80.4964C165.795 80.3714 165.795 80.2403 165.827 80.1153C165.848 79.9885 165.891 79.8664 165.953 79.7542C166.119 79.4287 166.362 79.1487 166.661 78.9385C167.195 78.5516 167.843 78.354 168.502 78.3769C169.102 78.4234 169.67 78.668 170.116 79.0723Z" fill="#332066"/>
<path d="M173.565 79.5804C173.442 79.2162 173.442 78.8213 173.565 78.4571C173.692 78.0865 173.924 77.7611 174.232 77.5211C174.308 77.4587 174.388 77.4028 174.473 77.3539L174.599 77.2804C174.668 77.2443 174.74 77.213 174.813 77.1868C174.945 77.1419 175.085 77.1288 175.223 77.1486C175.361 77.1683 175.493 77.2204 175.607 77.3004C175.746 77.4015 175.845 77.5482 175.887 77.715C175.921 77.8351 175.921 77.9625 175.887 78.0827C175.849 78.2291 175.773 78.3628 175.667 78.4705C175.58 78.5374 175.507 78.5775 175.427 78.631C175.249 78.7351 175.051 78.7969 174.846 78.8115C174.836 78.6222 174.836 78.4325 174.846 78.2432C174.846 78.1629 174.846 78.0693 174.846 78.0092C174.846 77.949 174.846 77.9222 174.779 77.949C174.713 77.9757 174.779 78.0025 174.779 78.076C174.795 78.1689 174.845 78.2525 174.92 78.31C174.987 78.3674 175.071 78.4003 175.16 78.4036C175.191 78.4076 175.222 78.4076 175.253 78.4036L175.173 78.4571L175.026 78.5641L174.399 79.0121C174.172 79.1859 173.919 79.3798 173.565 79.5804Z" fill="#332066"/>
<path d="M157.127 67.1777C157.271 67.2222 157.394 67.3172 157.474 67.4452C157.561 67.5947 157.6 67.7673 157.587 67.9399C157.564 68.2643 157.458 68.5772 157.28 68.8493C156.971 69.3219 156.569 69.7268 156.099 70.0394C155.225 70.6245 154.223 70.9892 153.177 71.1025C152.158 71.2257 151.123 71.1207 150.149 70.7949C149.153 70.4819 148.276 69.8734 147.634 69.0498C148.694 68.8693 149.568 68.8091 150.422 68.7089L152.871 68.4414C153.664 68.3545 154.465 68.2542 155.252 68.1272C155.639 68.0667 156.022 67.9841 156.4 67.8798C156.573 67.8366 156.741 67.7738 156.9 67.6926C156.991 67.6457 157.063 67.569 157.104 67.4753C157.145 67.3816 157.153 67.2766 157.127 67.1777Z" fill="#332066"/>
<path d="M176.327 63.7277C176.459 63.8987 176.546 64.1009 176.579 64.3151C176.611 64.5293 176.589 64.7482 176.513 64.9512C176.4 65.3498 176.192 65.7147 175.906 66.0143C175.374 66.5824 174.671 66.9604 173.905 67.0908C173.18 67.2231 172.433 67.137 171.757 66.8434C171.065 66.5589 170.493 66.0441 170.136 65.3858C170.744 65.124 171.373 64.9138 172.017 64.7573C172.551 64.637 173.011 64.53 173.451 64.4565C173.892 64.3829 174.319 64.3294 174.785 64.2692C175.026 64.2358 175.252 64.1957 175.519 64.1422C175.825 64.0929 176.108 63.9478 176.327 63.7277Z" fill="#332066"/>
<path d="M167.467 59.3349C169.842 55.6776 176.807 56.5468 177.327 58.2049C173.438 58.0578 169.989 60.5985 169.235 60.8794C168.148 61.3073 166.847 60.291 167.467 59.3349Z" fill="#F6AE2D"/>
<path d="M160.997 61.9358C160.076 62.4439 150.436 61.8288 148.615 62.4172C146.692 63.1217 144.996 64.3346 143.705 65.9274C143.525 63.6341 145.847 60.7657 148.008 59.9901C150.009 59.2613 157.895 58.0512 161.45 60.1506C162.264 60.632 161.797 61.4544 160.997 61.9358Z" fill="#F6AE2D"/>
<path d="M177.841 73.7635C182.786 73.7635 186.794 69.7463 186.794 64.7907C186.794 59.8352 182.786 55.818 177.841 55.818C172.897 55.818 168.889 59.8352 168.889 64.7907C168.889 69.7463 172.897 73.7635 177.841 73.7635Z" stroke="#332066" stroke-miterlimit="10"/>
<path d="M153.192 79.8144C159.035 79.8144 163.772 75.0668 163.772 69.2102C163.772 63.3537 159.035 58.6061 153.192 58.6061C147.348 58.6061 142.611 63.3537 142.611 69.2102C142.611 75.0668 147.348 79.8144 153.192 79.8144Z" stroke="#332066" stroke-miterlimit="10"/>
<path d="M162.752 65.105C163.019 64.082 163.452 63.3265 164.266 63.2061L167.488 62.4773C168.155 62.4773 168.676 63.0456 169.036 64.102L169.483 61.3073L161.638 62.6445L162.752 65.105Z" fill="#332066"/>
<path d="M132.932 63.5872C134.271 69.1024 134.221 74.8651 132.785 80.3559L128.215 69.0698C125.92 63.7209 121.371 63.3064 121.19 62.7982C121.858 39.564 157.268 23.2499 168.175 41.971C162.951 36.475 136.894 34.5896 132.932 63.5872Z" fill="#F6AE2D"/>
<path d="M164.119 39.7713C164.465 39.9117 164.512 40.2861 164.786 40.7809C165.285 41.6871 166.078 42.395 167.034 42.7867C167.894 43.1277 168.895 43.2213 169.575 43.8498C170.743 44.933 170.383 47.019 171.503 48.149C172.244 48.8912 173.505 49.1118 173.912 50.088C174.006 50.4394 174.078 50.7968 174.125 51.1577C174.539 52.836 176.42 53.5112 176.794 55.2831C177.661 53.8255 177.094 51.0775 176.9 49.4996C176.707 47.9217 176.62 45.06 175.433 43.8766C174.245 42.6931 172.684 41.8707 171.637 40.5335C170.876 39.5707 170.416 38.3806 169.549 37.5047C168.756 36.7763 167.816 36.2268 166.794 35.8934C164.04 34.8433 161.132 34.2538 158.188 34.1483C155.713 34.0614 153.385 33.4797 150.943 33.4797C145.346 33.3861 139.842 35.7998 135.433 39.1228C129.429 43.6359 124.926 49.7804 119.829 55.2831C116.547 58.828 113.964 62.9638 112.217 67.4718C110.363 72.0518 111.55 77.5678 108.602 81.7667C108.115 82.4688 107.481 83.1909 107.541 84.0467C107.689 84.7952 108.095 85.4676 108.689 85.9455C110.837 88.172 112.851 91.0738 112.298 94.1226C111.771 97.0378 108.962 99.3311 109.049 102.3C109.049 103.563 114.519 111.948 114.519 111.948L108.141 132.441C112.144 139.922 116.587 132.086 119.482 132.26C122.378 132.434 124.819 134.848 127.668 134.48C130.923 134.052 132.844 130.167 136.08 129.626C137.381 129.405 138.715 129.773 140.036 129.679C141.357 129.586 142.824 128.743 142.838 127.419C142.838 126.838 142.558 126.263 142.671 125.694C142.838 124.859 143.758 124.417 144.592 124.29C146.94 123.929 147.928 123.702 148.281 121.181C148.508 119.456 148.281 118.44 147.021 117.17C145.153 115.324 142.804 114.448 144.746 111.466C145.98 109.574 148.081 107.542 147.467 105.054C146.887 102.701 144.465 101.344 143.825 98.7561C143.721 98.097 143.514 97.4584 143.211 96.8639C141.877 94.7378 138.021 95.5267 136.847 93.2869C135.76 91.2342 138.081 88.9275 138.015 86.6008C137.968 85.1633 137.007 83.9263 136.013 82.8699C134.879 81.6464 133.118 80.035 133.211 78.1897C133.311 76.2373 135.213 74.1446 135.78 72.2457C136.56 69.9882 136.47 67.5197 135.526 65.3256C135.169 64.7832 134.962 64.1557 134.926 63.507C134.996 63.1589 135.14 62.8298 135.347 62.5415C135.554 62.2533 135.82 62.0126 136.127 61.8354C138.355 60.2375 141.423 59.5755 142.798 57.1953C143.825 55.4168 143.718 52.9095 145.373 51.6859C147.027 50.4624 149.375 51.3115 151.377 50.9103C152.205 50.7378 152.976 50.3544 153.614 49.797C154.252 49.2396 154.736 48.527 155.019 47.7278C155.182 46.982 155.423 46.2557 155.74 45.5615C156.48 44.3513 158.034 44.0103 159.355 43.5088C161.357 42.7667 161.604 39.798 163.565 39.6643C163.755 39.6557 163.945 39.6923 164.119 39.7713Z" fill="#F6AE2D"/>
<path d="M88.102 248.946H79.7431C76.7575 248.946 73.8808 247.822 71.6837 245.796C69.4866 243.77 68.1296 240.99 67.8819 238.008L65.5938 210.702L102.365 210.361L99.9431 238.008C99.6957 240.986 98.3416 243.763 96.1488 245.789C93.9559 247.815 91.0842 248.941 88.102 248.946Z" fill="#D0CFEC"/>
<path d="M63.6393 216.398C61.7064 216.398 59.8169 216.973 58.2097 218.049C56.6025 219.125 55.3499 220.655 54.6101 222.445C53.8704 224.235 53.6769 226.204 54.054 228.104C54.4311 230.004 55.3619 231.75 56.7287 233.119C58.0955 234.489 59.8369 235.422 61.7327 235.8C63.6285 236.178 65.5935 235.984 67.3794 235.243C69.1652 234.501 70.6915 233.246 71.7654 231.635C72.8393 230.024 73.4125 228.131 73.4125 226.193C73.4125 223.595 72.3828 221.104 70.55 219.267C68.7172 217.43 66.2313 216.398 63.6393 216.398ZM63.6393 232.358C62.4212 232.358 61.2305 231.996 60.2178 231.317C59.2051 230.639 58.4158 229.675 57.95 228.547C57.4842 227.419 57.3626 226.177 57.6007 224.98C57.8389 223.783 58.426 222.683 59.2878 221.82C60.1496 220.958 61.2473 220.37 62.4422 220.133C63.6371 219.896 64.8753 220.019 66.0003 220.487C67.1253 220.955 68.0865 221.747 68.7623 222.763C69.4381 223.779 69.7981 224.972 69.7967 226.193C69.7967 227.003 69.6374 227.805 69.3279 228.554C69.0184 229.302 68.5647 229.982 67.9929 230.555C67.421 231.127 66.7422 231.581 65.9952 231.89C65.2482 232.2 64.4476 232.359 63.6393 232.358Z" fill="#D0CFEC"/>
<path d="M83.9327 213.015C94.1235 213.015 102.385 211.827 102.385 210.361C102.385 208.895 94.1235 207.706 83.9327 207.706C73.7418 207.706 65.4805 208.895 65.4805 210.361C65.4805 211.827 73.7418 213.015 83.9327 213.015Z" fill="#D0CFEC"/>
<path d="M83.9324 212.507C93.7806 212.507 101.764 211.633 101.764 210.554C101.764 209.476 93.7806 208.602 83.9324 208.602C74.0841 208.602 66.1006 209.476 66.1006 210.554C66.1006 211.633 74.0841 212.507 83.9324 212.507Z" fill="#7C3AED"/>
<path d="M358.187 248.946H203.158L206.494 245.195C207.025 244.597 207.677 244.119 208.406 243.792C209.135 243.464 209.924 243.296 210.723 243.296H358.154L358.187 248.946Z" fill="#7C3AED"/>
<path d="M357.507 248.946H245.586L275.339 171.855C275.791 170.687 276.584 169.683 277.615 168.974C278.646 168.265 279.866 167.885 281.116 167.884H387.34C387.725 167.883 388.105 167.976 388.448 168.154C388.79 168.332 389.084 168.59 389.306 168.906C389.528 169.222 389.671 169.587 389.722 169.97C389.773 170.353 389.732 170.743 389.601 171.106L363.337 244.827C362.907 246.032 362.116 247.074 361.072 247.812C360.029 248.549 358.783 248.945 357.507 248.946Z" fill="#7C3AED"/>
<path opacity="0.5" d="M316.567 214.633H313.024L316.734 202.805H320.069L319.455 204.878L318.735 207.312L318.141 209.317L317.234 212.36L316.567 214.633ZM325.766 207.746C325.491 207.009 325.051 206.346 324.479 205.807L324.252 205.613H320.79L320.503 206.543L320.763 206.71C320.992 206.87 321.201 207.059 321.383 207.271C321.586 207.49 321.75 207.741 321.87 208.014C322.176 208.639 322.226 209.358 322.01 210.019C321.908 210.404 321.746 210.769 321.53 211.103C321.303 211.441 321.044 211.757 320.756 212.045C320.471 212.329 320.163 212.588 319.836 212.821C319.511 213.04 319.175 213.241 318.828 213.423L318.461 213.617L318.161 214.653H321.817L322.144 214.439C323.042 213.86 323.856 213.16 324.565 212.36C325.135 211.689 325.548 210.898 325.773 210.046C325.982 209.293 325.975 208.496 325.753 207.746H325.766Z" fill="white"/>
<path d="M40.7236 248.946H413.383" stroke="#332066" stroke-miterlimit="10"/>
<path d="M321.489 139.294C322.624 139.294 323.544 138.372 323.544 137.235C323.544 136.097 322.624 135.175 321.489 135.175C320.354 135.175 319.435 136.097 319.435 137.235C319.435 138.372 320.354 139.294 321.489 139.294Z" fill="#7C3AED"/>
<path d="M309.562 82.1879C310.391 82.1879 311.063 81.5144 311.063 80.6836C311.063 79.8527 310.391 79.1792 309.562 79.1792C308.733 79.1792 308.061 79.8527 308.061 80.6836C308.061 81.5144 308.733 82.1879 309.562 82.1879Z" fill="#7C3AED"/>
<path d="M310.616 143.459C312.332 143.459 313.724 142.064 313.724 140.344C313.724 138.623 312.332 137.228 310.616 137.228C308.899 137.228 307.507 138.623 307.507 140.344C307.507 142.064 308.899 143.459 310.616 143.459Z" fill="#7C3AED"/>
<path d="M260.856 125.781C262.573 125.781 263.965 124.386 263.965 122.666C263.965 120.945 262.573 119.55 260.856 119.55C259.139 119.55 257.747 120.945 257.747 122.666C257.747 124.386 259.139 125.781 260.856 125.781Z" fill="#7C3AED"/>
<path d="M35.4863 199.576C36.6211 199.576 37.541 198.654 37.541 197.517C37.541 196.379 36.6211 195.457 35.4863 195.457C34.3516 195.457 33.4316 196.379 33.4316 197.517C33.4316 198.654 34.3516 199.576 35.4863 199.576Z" fill="#7C3AED"/>
<path d="M28.0752 214.513C28.9042 214.513 29.5762 213.839 29.5762 213.008C29.5762 212.177 28.9042 211.504 28.0752 211.504C27.2462 211.504 26.5742 212.177 26.5742 213.008C26.5742 213.839 27.2462 214.513 28.0752 214.513Z" fill="#7C3AED"/>
<path d="M7.74837 131.418C9.46527 131.418 10.8571 130.023 10.8571 128.302C10.8571 126.581 9.46527 125.186 7.74837 125.186C6.03147 125.186 4.63965 126.581 4.63965 128.302C4.63965 130.023 6.03147 131.418 7.74837 131.418Z" fill="#7C3AED"/>
<path d="M43.8255 215.623C45.5424 215.623 46.9342 214.228 46.9342 212.507C46.9342 210.786 45.5424 209.391 43.8255 209.391C42.1086 209.391 40.7168 210.786 40.7168 212.507C40.7168 214.228 42.1086 215.623 43.8255 215.623Z" fill="#7C3AED"/>
<path d="M294.425 54.7482C295.56 54.7482 296.48 53.8262 296.48 52.6888C296.48 51.5515 295.56 50.6295 294.425 50.6295C293.29 50.6295 292.37 51.5515 292.37 52.6888C292.37 53.8262 293.29 54.7482 294.425 54.7482Z" fill="#7C3AED"/>
<path d="M373.224 90.004C374.053 90.004 374.725 89.3305 374.725 88.4996C374.725 87.6688 374.053 86.9952 373.224 86.9952C372.395 86.9952 371.723 87.6688 371.723 88.4996C371.723 89.3305 372.395 90.004 373.224 90.004Z" fill="#7C3AED"/>
<path d="M364.525 20.0607C366.242 20.0607 367.633 18.6657 367.633 16.9449C367.633 15.2242 366.242 13.8292 364.525 13.8292C362.808 13.8292 361.416 15.2242 361.416 16.9449C361.416 18.6657 362.808 20.0607 364.525 20.0607Z" fill="#7C3AED"/>
<path d="M300.156 46.6045C301.873 46.6045 303.264 45.2095 303.264 43.4888C303.264 41.768 301.873 40.373 300.156 40.373C298.439 40.373 297.047 41.768 297.047 43.4888C297.047 45.2095 298.439 46.6045 300.156 46.6045Z" fill="#7C3AED"/>
<path d="M47.6552 18.6164L38.5225 19.7865L44.2529 12.5655L53.3856 11.4021L47.6552 18.6164Z" fill="#D0CFEC"/>
<path opacity="0.6" d="M47.6552 18.6164L38.5225 19.7865L44.2529 12.5655L53.3856 11.4021L47.6552 18.6164Z" fill="#FFFEFD"/>
<path d="M53.4123 28.8729L44.2863 30.0363L38.5225 19.7865L47.6552 18.6165L53.4123 28.8729Z" fill="#D0CFEC"/>
<path d="M53.4124 28.8729L59.1429 21.6519L53.3857 11.4021L47.6553 18.6164L53.4124 28.8729Z" fill="#D0CFEC"/>
<path opacity="0.1" d="M53.4124 28.8729L59.1429 21.6519L53.3857 11.4021L47.6553 18.6164L53.4124 28.8729Z" fill="#332066"/>
<path d="M288.668 112.409L279.535 113.572L285.266 106.351L294.392 105.188L288.668 112.409Z" fill="#D0CFEC"/>
<path opacity="0.6" d="M288.668 112.409L279.535 113.572L285.266 106.351L294.392 105.188L288.668 112.409Z" fill="#FFFEFD"/>
<path d="M294.425 122.659L285.299 123.829L279.535 113.572L288.668 112.409L294.425 122.659Z" fill="#D0CFEC"/>
<path d="M294.425 122.659L300.156 115.445L294.392 105.188L288.668 112.409L294.425 122.659Z" fill="#D0CFEC"/>
<path opacity="0.1" d="M294.425 122.659L300.156 115.445L294.392 105.188L288.668 112.409L294.425 122.659Z" fill="#332066"/>
<path d="M9.42975 191.807L0.303711 192.97L6.0275 185.749L15.1602 184.586L9.42975 191.807Z" fill="#D0CFEC"/>
<path opacity="0.6" d="M9.42975 191.807L0.303711 192.97L6.0275 185.749L15.1602 184.586L9.42975 191.807Z" fill="#FFFEFD"/>
<path d="M15.1936 202.056L6.06085 203.226L0.303711 192.97L9.42975 191.807L15.1936 202.056Z" fill="#D0CFEC"/>
<path d="M15.1935 202.056L20.9173 194.842L15.1601 184.586L9.42969 191.807L15.1935 202.056Z" fill="#D0CFEC"/>
<path opacity="0.1" d="M15.1935 202.056L20.9173 194.842L15.1601 184.586L9.42969 191.807L15.1935 202.056Z" fill="#332066"/>
<path d="M13.7998 45.0868C14.9346 45.0868 15.8545 44.1648 15.8545 43.0275C15.8545 41.8901 14.9346 40.9681 13.7998 40.9681C12.665 40.9681 11.7451 41.8901 11.7451 43.0275C11.7451 44.1648 12.665 45.0868 13.7998 45.0868Z" fill="#D0CFEC"/>
<path d="M2.13869 50.4758C2.96766 50.4758 3.63968 49.8023 3.63968 48.9714C3.63968 48.1406 2.96766 47.467 2.13869 47.467C1.30971 47.467 0.637695 48.1406 0.637695 48.9714C0.637695 49.8023 1.30971 50.4758 2.13869 50.4758Z" fill="#D0CFEC"/>
<path d="M15.1204 55.0891C16.8373 55.0891 18.2292 53.6942 18.2292 51.9734C18.2292 50.2526 16.8373 48.8577 15.1204 48.8577C13.4035 48.8577 12.0117 50.2526 12.0117 51.9734C12.0117 53.6942 13.4035 55.0891 15.1204 55.0891Z" fill="#D0CFEC"/>
<path d="M83.9329 108.304C85.6498 108.304 87.0417 106.909 87.0417 105.188C87.0417 103.467 85.6498 102.072 83.9329 102.072C82.216 102.072 80.8242 103.467 80.8242 105.188C80.8242 106.909 82.216 108.304 83.9329 108.304Z" fill="#D0CFEC"/>
<path d="M121.191 6.75531C122.908 6.75531 124.299 5.36036 124.299 3.63959C124.299 1.91882 122.908 0.523865 121.191 0.523865C119.474 0.523865 118.082 1.91882 118.082 3.63959C118.082 5.36036 119.474 6.75531 121.191 6.75531Z" fill="#D0CFEC"/>
<path d="M85.6732 229.128H80.6899C80.6953 229.342 80.7536 229.551 80.8596 229.737C80.9655 229.922 81.1159 230.078 81.297 230.191C81.7989 230.472 82.3715 230.6 82.9447 230.559C83.3978 230.557 83.8479 230.485 84.279 230.345C84.6386 230.241 84.9805 230.084 85.293 229.877H85.5398V231.402C85.0868 231.565 84.6202 231.688 84.1455 231.769C83.6694 231.85 83.1874 231.89 82.7046 231.89C81.5993 231.958 80.5003 231.678 79.5625 231.087C79.2066 230.827 78.9204 230.483 78.7295 230.085C78.5386 229.687 78.4489 229.248 78.4684 228.807C78.4499 228.368 78.5336 227.93 78.7131 227.528C78.8926 227.127 79.1628 226.773 79.5025 226.494C80.3104 225.879 81.3112 225.573 82.3243 225.631C83.2168 225.562 84.1039 225.821 84.8193 226.36C85.104 226.627 85.3267 226.954 85.472 227.317C85.6172 227.679 85.6813 228.069 85.6599 228.46L85.6732 229.128ZM83.5051 228.018C83.5111 227.854 83.4841 227.69 83.4257 227.536C83.3672 227.382 83.2785 227.241 83.1649 227.122C82.8821 226.902 82.528 226.795 82.1709 226.822C81.8075 226.805 81.4482 226.903 81.1436 227.102C81.0006 227.208 80.8849 227.346 80.806 227.505C80.7271 227.665 80.6873 227.841 80.6899 228.018H83.5051Z" fill="white"/>
<path d="M91.0833 231.682C90.8378 231.742 90.588 231.782 90.3362 231.803C90.0627 231.803 89.7558 231.843 89.3689 231.843C88.7073 231.892 88.0465 231.738 87.4743 231.402C87.2526 231.216 87.08 230.979 86.9718 230.711C86.8636 230.442 86.8231 230.152 86.8539 229.864V227.102H85.96V225.819H86.8539V224.12H89.0353V225.819H91.07V227.102H89.0353V229.743C89.0326 229.888 89.0671 230.031 89.1354 230.158C89.1978 230.288 89.3041 230.393 89.4356 230.452C89.6283 230.538 89.8391 230.575 90.0493 230.559C90.1978 230.555 90.3454 230.535 90.4896 230.499C90.6222 230.472 90.7518 230.431 90.8765 230.379H91.0567V231.716L91.0833 231.682Z" fill="white"/>
<path d="M95.954 231.107C95.8406 231.181 95.7005 231.281 95.5137 231.388C95.3569 231.485 95.1943 231.572 95.0268 231.649C94.8104 231.731 94.5872 231.794 94.3597 231.836C94.1086 231.881 93.8541 231.903 93.5992 231.903C93.0149 231.922 92.442 231.738 91.9781 231.382C91.7694 231.227 91.6001 231.026 91.4842 230.793C91.3682 230.561 91.3089 230.304 91.311 230.044C91.2952 229.664 91.4133 229.29 91.6445 228.988C91.8968 228.689 92.2203 228.459 92.5851 228.319C93.0675 228.137 93.5726 228.022 94.0861 227.978C94.6799 227.918 95.3003 227.858 95.9407 227.831V227.798C95.9479 227.651 95.9067 227.506 95.8235 227.385C95.7403 227.265 95.6197 227.175 95.4804 227.129C95.0498 226.99 94.5984 226.927 94.1462 226.942C93.7557 226.945 93.3674 227.001 92.9921 227.109C92.5785 227.216 92.325 227.303 92.1182 227.37H91.9114V225.932C92.1449 225.879 92.5184 225.812 93.0321 225.745C93.5493 225.673 94.0709 225.637 94.5931 225.638C95.5108 225.574 96.4296 225.746 97.2616 226.14C97.53 226.298 97.749 226.529 97.894 226.805C98.039 227.081 98.1041 227.393 98.0821 227.704V231.716H95.914V231.087L95.954 231.107ZM95.954 230.191V228.961L95.0001 229.048C94.7342 229.069 94.4707 229.113 94.2129 229.182C94.0245 229.219 93.8507 229.309 93.7126 229.443C93.6547 229.501 93.6099 229.571 93.5811 229.649C93.5524 229.726 93.5403 229.808 93.5458 229.891C93.5421 229.992 93.5534 230.093 93.5791 230.191C93.6166 230.281 93.6792 230.358 93.7593 230.412C93.8625 230.482 93.9779 230.532 94.0995 230.559C94.2987 230.604 94.5025 230.624 94.7065 230.619C94.934 230.616 95.1593 230.575 95.3737 230.499C95.581 230.425 95.7766 230.322 95.954 230.191Z" fill="white"/>
<path d="M100.717 229.336C100.323 229.236 99.9585 229.041 99.6564 228.767C99.5101 228.623 99.395 228.45 99.3181 228.259C99.2412 228.068 99.2042 227.863 99.2095 227.657C99.2213 227.358 99.3138 227.068 99.4771 226.817C99.6403 226.566 99.8683 226.365 100.137 226.233C100.422 226.059 100.732 225.93 101.057 225.852L100.717 229.336Z" fill="white"/>
<path d="M100.51 231.789L100.343 231.756C99.9376 231.688 99.5399 231.58 99.1553 231.435V229.864H99.3621C99.4621 229.931 99.5956 230.004 99.7357 230.085C99.9333 230.182 100.136 230.269 100.343 230.345L100.643 230.439L100.51 231.789Z" fill="white"/>
<path d="M72.6648 230.345V224.12H70.4834V231.736H72.6648V230.345Z" fill="white"/>
<path d="M77.2282 227.417C76.927 226.926 76.538 226.495 76.0808 226.146L75.9007 226.013H73.6725V226.648L73.866 226.755C74.0449 226.86 74.2126 226.983 74.3663 227.123C74.5313 227.265 74.6791 227.427 74.8066 227.604C74.9382 227.785 75.0458 227.983 75.1268 228.192C75.2061 228.406 75.2467 228.633 75.2469 228.861C75.2476 229.089 75.2069 229.316 75.1268 229.53C75.0451 229.738 74.9375 229.936 74.8066 230.118C74.6775 230.292 74.5299 230.451 74.3663 230.593C74.2039 230.729 74.0323 230.854 73.8526 230.967L73.6592 231.081V231.716H75.9007L76.0674 231.582C76.5295 231.234 76.923 230.804 77.2282 230.312C77.4847 229.872 77.6183 229.371 77.6151 228.861C77.6118 228.354 77.4786 227.857 77.2282 227.417Z" fill="white"/>
</svg>
