<svg width="520" height="308" viewBox="0 0 520 308" fill="none" xmlns="http://www.w3.org/2000/svg">
<path d="M152.239 53.9763C-24.7167 -18.9286 -43.6687 186.016 79.9863 209.872C125.955 218.74 189.791 220.592 234.897 208.06C280.002 195.528 323.982 176.404 361.514 148.331C493.184 49.779 610.221 159.494 417.567 271.544" stroke="#7C3AED" stroke-miterlimit="10" stroke-dasharray="12 12"/>
<path d="M131.911 42.1484L87.9607 269.812C87.7522 270.897 87.7855 272.016 88.0584 273.088C88.3313 274.159 88.837 275.157 89.5394 276.01C90.2417 276.863 91.1234 277.55 92.1214 278.022C93.1194 278.494 94.2091 278.739 95.3125 278.74H209.205L131.911 42.1484Z" fill="#7BE0AD"/>
<path d="M131.911 42.1484L109.052 269.812C108.843 270.897 108.877 272.016 109.15 273.088C109.423 274.159 109.928 275.157 110.631 276.01C111.333 276.863 112.215 277.55 113.213 278.022C114.211 278.494 115.3 278.739 116.404 278.74H209.215L131.911 42.1484Z" fill="#7C3AED"/>
<path d="M131.911 42.1484L134.663 269.812C134.453 270.898 134.485 272.017 134.757 273.089C135.029 274.162 135.535 275.16 136.237 276.014C136.94 276.867 137.822 277.554 138.821 278.025C139.82 278.497 140.911 278.741 142.015 278.74H209.206" fill="#D0CFEC"/>
<path d="M437.031 278.74H185.784C182.745 278.738 179.802 277.668 177.468 275.717C175.134 273.766 173.556 271.056 173.009 268.06L134.773 58.5252C134.367 56.2919 134.456 53.9966 135.032 51.8013C135.609 49.6061 136.66 47.5646 138.11 45.821C139.56 44.0775 141.375 42.6744 143.426 41.7111C145.477 40.7478 147.714 40.2477 149.979 40.2461H398.304C401.345 40.2457 404.29 41.3143 406.626 43.2656C408.962 45.217 410.541 47.9276 411.089 50.9257L449.847 263.37C450.19 265.25 450.116 267.183 449.63 269.032C449.145 270.881 448.259 272.6 447.036 274.067C445.812 275.534 444.282 276.713 442.553 277.52C440.824 278.328 438.939 278.744 437.031 278.74Z" fill="#FEFDFF"/>
<path d="M437.031 278.74H185.784C182.745 278.738 179.802 277.668 177.468 275.717C175.134 273.766 173.556 271.056 173.009 268.06L134.773 58.5252C134.367 56.2919 134.456 53.9966 135.032 51.8013C135.609 49.6061 136.66 47.5646 138.11 45.821C139.56 44.0775 141.375 42.6744 143.426 41.7111C145.477 40.7478 147.714 40.2477 149.979 40.2461H398.304C401.345 40.2457 404.29 41.3143 406.626 43.2656C408.962 45.217 410.541 47.9276 411.089 50.9257L449.847 263.37C450.19 265.25 450.116 267.183 449.63 269.032C449.145 270.881 448.259 272.6 447.036 274.067C445.812 275.534 444.282 276.713 442.553 277.52C440.824 278.328 438.939 278.744 437.031 278.74Z" fill="#FEDAC9"/>
<path d="M139.755 85.7031H417.567L410.446 46.1454C410.148 44.4904 409.283 42.9918 407.999 41.9091C406.715 40.8264 405.094 40.2277 403.416 40.2168H134.271C133.926 40.2171 133.584 40.2934 133.272 40.4404C132.959 40.5874 132.682 40.8013 132.461 41.0673C132.239 41.3332 132.079 41.6445 131.991 41.9794C131.903 42.3142 131.889 42.6643 131.951 43.005L139.755 85.7031Z" fill="#7BE0AD"/>
<path d="M300.41 160.056H286.349C285.519 160.023 284.724 159.716 284.086 159.182C283.449 158.649 283.005 157.919 282.824 157.107L280.112 143.015C280.023 142.657 280.019 142.283 280.099 141.923C280.178 141.563 280.341 141.226 280.572 140.939C280.804 140.652 281.099 140.423 281.434 140.27C281.769 140.117 282.135 140.044 282.503 140.056H296.563C297.394 140.093 298.189 140.403 298.826 140.938C299.463 141.473 299.906 142.203 300.089 143.015L302.79 157.107C302.881 157.464 302.888 157.837 302.809 158.197C302.731 158.557 302.57 158.894 302.339 159.18C302.107 159.467 301.813 159.695 301.478 159.847C301.143 159.999 300.777 160.071 300.41 160.056Z" fill="#FEFDFF"/>
<path d="M335.854 160.056H321.793C320.964 160.023 320.17 159.715 319.534 159.181C318.898 158.648 318.456 157.919 318.278 157.107L315.566 143.015C315.477 142.657 315.472 142.283 315.552 141.923C315.632 141.563 315.794 141.226 316.026 140.939C316.258 140.652 316.552 140.423 316.887 140.27C317.222 140.117 317.588 140.044 317.956 140.056H332.017C332.846 140.092 333.641 140.402 334.276 140.937C334.912 141.472 335.354 142.203 335.532 143.015L338.244 157.107C338.333 157.465 338.338 157.838 338.258 158.198C338.178 158.558 338.016 158.894 337.784 159.18C337.552 159.466 337.257 159.695 336.922 159.847C336.587 159.999 336.221 160.07 335.854 160.056Z" fill="#FEFDFF"/>
<path d="M371.287 160.056H357.226C356.396 160.021 355.602 159.714 354.964 159.181C354.327 158.647 353.883 157.919 353.701 157.107L350.999 143.015C350.908 142.658 350.902 142.284 350.98 141.924C351.059 141.564 351.22 141.226 351.451 140.939C351.682 140.652 351.976 140.423 352.311 140.27C352.646 140.116 353.011 140.043 353.379 140.056H367.44C368.271 140.092 369.066 140.401 369.704 140.936C370.341 141.471 370.785 142.202 370.965 143.015L373.677 157.107C373.766 157.465 373.771 157.838 373.691 158.198C373.611 158.558 373.449 158.894 373.217 159.18C372.985 159.467 372.69 159.695 372.355 159.847C372.02 159.999 371.654 160.071 371.287 160.056Z" fill="#D0CFEC"/>
<path d="M194.09 160.056H180.029C179.2 160.023 178.406 159.715 177.77 159.182C177.135 158.648 176.693 157.919 176.514 157.107L173.802 143.015C173.711 142.658 173.705 142.284 173.783 141.924C173.862 141.564 174.023 141.226 174.254 140.939C174.485 140.652 174.779 140.423 175.114 140.27C175.449 140.116 175.815 140.043 176.182 140.056H190.243C191.074 140.092 191.87 140.401 192.507 140.936C193.145 141.471 193.588 142.202 193.768 143.015L196.48 157.107C196.569 157.465 196.574 157.838 196.494 158.198C196.414 158.558 196.252 158.894 196.02 159.18C195.788 159.467 195.493 159.695 195.158 159.847C194.823 159.999 194.457 160.071 194.09 160.056Z" fill="#FEFDFF"/>
<path d="M229.574 160.056H215.513C214.683 160.023 213.887 159.716 213.25 159.182C212.612 158.649 212.168 157.919 211.988 157.107L209.276 143.015C209.187 142.657 209.182 142.283 209.262 141.923C209.342 141.563 209.504 141.226 209.736 140.939C209.967 140.652 210.262 140.423 210.597 140.27C210.932 140.117 211.298 140.044 211.666 140.056H225.727C226.557 140.093 227.352 140.403 227.989 140.938C228.626 141.473 229.07 142.203 229.252 143.015L231.954 157.107C232.045 157.464 232.051 157.837 231.973 158.197C231.895 158.557 231.733 158.894 231.502 159.18C231.271 159.467 230.976 159.695 230.641 159.847C230.307 159.999 229.941 160.071 229.574 160.056Z" fill="#FEFDFF"/>
<path d="M264.977 160.056H250.916C250.087 160.023 249.293 159.715 248.657 159.182C248.021 158.648 247.579 157.919 247.401 157.107L244.689 143.015C244.598 142.658 244.592 142.284 244.67 141.924C244.749 141.564 244.91 141.226 245.141 140.939C245.372 140.652 245.666 140.423 246.001 140.27C246.336 140.116 246.701 140.043 247.069 140.056H261.13C261.961 140.092 262.756 140.401 263.394 140.936C264.031 141.471 264.475 142.202 264.655 143.015L267.367 157.107C267.456 157.465 267.461 157.838 267.381 158.198C267.301 158.558 267.139 158.894 266.907 159.18C266.675 159.467 266.38 159.695 266.045 159.847C265.71 159.999 265.344 160.071 264.977 160.056Z" fill="#FEFDFF"/>
<path d="M406.73 160.056H392.669C391.84 160.023 391.044 159.716 390.406 159.182C389.769 158.649 389.325 157.919 389.144 157.107L386.432 143.015C386.344 142.658 386.339 142.285 386.418 141.925C386.498 141.566 386.659 141.23 386.889 140.943C387.12 140.656 387.414 140.427 387.747 140.273C388.081 140.119 388.446 140.045 388.813 140.056H402.874C403.703 140.092 404.497 140.401 405.133 140.937C405.769 141.472 406.21 142.202 406.389 143.015L409.101 157.107C409.191 157.463 409.198 157.835 409.12 158.194C409.042 158.554 408.882 158.89 408.652 159.176C408.422 159.462 408.128 159.691 407.795 159.843C407.461 159.996 407.097 160.069 406.73 160.056Z" fill="#D0CFEC"/>
<path d="M294.525 129.487H280.464C279.633 129.453 278.836 129.144 278.198 128.609C277.56 128.074 277.117 127.342 276.938 126.528L274.237 112.436C274.144 112.078 274.136 111.704 274.213 111.343C274.291 110.981 274.452 110.643 274.683 110.355C274.915 110.068 275.21 109.838 275.546 109.686C275.882 109.533 276.249 109.462 276.617 109.477H290.678C291.509 109.51 292.306 109.819 292.943 110.354C293.581 110.89 294.024 111.622 294.203 112.436L296.915 126.528C297.004 126.886 297.008 127.26 296.928 127.62C296.849 127.98 296.687 128.317 296.455 128.604C296.223 128.891 295.928 129.12 295.593 129.273C295.258 129.426 294.893 129.499 294.525 129.487Z" fill="#FEFDFF"/>
<path d="M259.272 129.488H245.211C244.38 129.454 243.583 129.146 242.945 128.61C242.308 128.075 241.865 127.343 241.686 126.529L238.974 112.437C238.885 112.079 238.881 111.705 238.96 111.345C239.04 110.985 239.202 110.648 239.434 110.361C239.666 110.074 239.961 109.845 240.296 109.692C240.631 109.539 240.996 109.465 241.364 109.478H255.425C256.256 109.512 257.053 109.82 257.691 110.356C258.329 110.891 258.771 111.623 258.95 112.437L261.652 126.529C261.745 126.887 261.753 127.261 261.675 127.622C261.598 127.984 261.437 128.322 261.206 128.609C260.974 128.897 260.679 129.126 260.343 129.279C260.007 129.432 259.64 129.503 259.272 129.488Z" fill="#FEFDFF"/>
<path d="M223.839 129.488H209.778C208.948 129.454 208.153 129.145 207.517 128.61C206.881 128.074 206.44 127.342 206.263 126.529L203.551 112.437C203.46 112.08 203.454 111.706 203.532 111.346C203.611 110.985 203.772 110.648 204.003 110.361C204.234 110.074 204.528 109.845 204.863 109.691C205.198 109.538 205.564 109.465 205.931 109.478H219.992C220.823 109.512 221.62 109.821 222.258 110.356C222.896 110.891 223.338 111.623 223.517 112.437L226.229 126.529C226.32 126.887 226.326 127.262 226.247 127.623C226.168 127.984 226.007 128.322 225.774 128.609C225.542 128.897 225.246 129.126 224.91 129.278C224.574 129.431 224.207 129.503 223.839 129.488Z" fill="#FEFDFF"/>
<path d="M188.948 129.488H174.887C174.056 129.454 173.259 129.146 172.621 128.61C171.983 128.075 171.541 127.343 171.362 126.529L168.65 112.437C168.561 112.079 168.556 111.705 168.636 111.345C168.716 110.985 168.878 110.648 169.11 110.361C169.341 110.074 169.636 109.845 169.971 109.692C170.306 109.539 170.672 109.465 171.04 109.478H185.101C185.932 109.512 186.729 109.82 187.367 110.356C188.004 110.891 188.447 111.623 188.626 112.437L191.328 126.529C191.419 126.886 191.425 127.26 191.347 127.621C191.268 127.981 191.107 128.318 190.876 128.605C190.645 128.892 190.351 129.122 190.016 129.275C189.681 129.428 189.315 129.501 188.948 129.488Z" fill="#FEFDFF"/>
<path d="M330.008 129.488H315.947C315.116 129.455 314.319 129.146 313.682 128.611C313.044 128.075 312.601 127.343 312.422 126.529L309.71 112.437C309.62 112.08 309.613 111.706 309.692 111.346C309.77 110.985 309.931 110.648 310.162 110.361C310.393 110.074 310.688 109.845 311.022 109.691C311.357 109.538 311.723 109.465 312.091 109.478H326.151C326.981 109.512 327.777 109.821 328.413 110.357C329.049 110.892 329.49 111.624 329.667 112.437L332.378 126.529C332.469 126.886 332.475 127.258 332.397 127.618C332.319 127.978 332.159 128.314 331.929 128.601C331.7 128.888 331.406 129.117 331.073 129.271C330.74 129.425 330.375 129.5 330.008 129.488Z" fill="#F6AE2D"/>
<path d="M365.401 129.488H351.341C350.51 129.456 349.714 129.147 349.078 128.612C348.441 128.076 348.001 127.343 347.825 126.529L345.114 112.437C345.023 112.08 345.017 111.706 345.095 111.346C345.173 110.985 345.334 110.648 345.565 110.361C345.796 110.074 346.091 109.845 346.426 109.691C346.76 109.538 347.126 109.465 347.494 109.478H361.555C362.386 109.512 363.183 109.821 363.82 110.356C364.458 110.891 364.901 111.623 365.08 112.437L367.792 126.529C367.88 126.887 367.885 127.261 367.805 127.621C367.726 127.982 367.563 128.318 367.332 128.605C367.1 128.892 366.805 129.121 366.47 129.274C366.135 129.428 365.769 129.501 365.401 129.488Z" fill="#D0CFEC"/>
<path d="M400.845 129.488H386.784C385.953 129.454 385.156 129.146 384.518 128.61C383.88 128.075 383.437 127.343 383.258 126.529L380.547 112.437C380.458 112.079 380.453 111.705 380.533 111.345C380.613 110.985 380.775 110.648 381.007 110.361C381.238 110.074 381.533 109.845 381.868 109.692C382.203 109.539 382.569 109.465 382.937 109.478H396.998C397.829 109.512 398.626 109.82 399.264 110.356C399.901 110.891 400.344 111.623 400.523 112.437L403.225 126.529C403.316 126.886 403.322 127.26 403.244 127.621C403.165 127.981 403.004 128.318 402.773 128.605C402.542 128.892 402.248 129.122 401.913 129.275C401.578 129.428 401.212 129.501 400.845 129.488Z" fill="#D0CFEC"/>
<path d="M306.647 192.459H292.586C291.756 192.425 290.961 192.118 290.323 191.585C289.685 191.051 289.242 190.322 289.061 189.509L286.349 175.418C286.26 175.06 286.256 174.686 286.335 174.325C286.415 173.965 286.577 173.628 286.809 173.342C287.041 173.055 287.336 172.826 287.671 172.672C288.006 172.519 288.371 172.446 288.739 172.458H302.8C303.63 172.496 304.425 172.805 305.062 173.34C305.7 173.875 306.143 174.605 306.325 175.418L309.027 189.509C309.118 189.866 309.125 190.24 309.046 190.6C308.968 190.96 308.807 191.296 308.575 191.583C308.344 191.869 308.049 192.098 307.715 192.25C307.38 192.402 307.014 192.473 306.647 192.459Z" fill="#FEFDFF"/>
<path d="M342.06 192.458H327.999C327.171 192.425 326.377 192.117 325.741 191.584C325.105 191.05 324.663 190.321 324.484 189.509L321.772 175.417C321.684 175.06 321.679 174.687 321.758 174.328C321.838 173.968 321.999 173.632 322.229 173.345C322.46 173.059 322.753 172.83 323.087 172.676C323.421 172.522 323.785 172.447 324.153 172.458H338.213C339.043 172.494 339.837 172.804 340.473 173.339C341.109 173.874 341.55 174.605 341.729 175.417L344.44 189.509C344.529 189.866 344.534 190.239 344.455 190.598C344.376 190.957 344.214 191.292 343.983 191.578C343.753 191.864 343.459 192.092 343.125 192.245C342.791 192.398 342.427 192.471 342.06 192.458Z" fill="#FEFDFF"/>
<path d="M377.524 192.459H363.463C362.634 192.424 361.839 192.116 361.202 191.583C360.565 191.05 360.12 190.321 359.938 189.51L357.236 175.418C357.145 175.06 357.139 174.687 357.218 174.326C357.296 173.966 357.457 173.629 357.688 173.342C357.919 173.055 358.213 172.825 358.548 172.672C358.883 172.519 359.249 172.446 359.616 172.458H373.677C374.508 172.494 375.304 172.803 375.941 173.338C376.579 173.873 377.022 174.604 377.203 175.418L379.904 189.51C379.995 189.867 380.002 190.24 379.923 190.6C379.845 190.96 379.684 191.296 379.453 191.583C379.221 191.869 378.927 192.098 378.592 192.25C378.257 192.402 377.891 192.473 377.524 192.459Z" fill="#D0CFEC"/>
<path d="M200.327 192.459H186.266C185.437 192.424 184.642 192.116 184.005 191.583C183.368 191.05 182.924 190.321 182.741 189.51L180.039 175.418C179.949 175.06 179.942 174.687 180.021 174.326C180.099 173.966 180.26 173.629 180.491 173.342C180.722 173.055 181.017 172.825 181.351 172.672C181.686 172.519 182.052 172.446 182.42 172.458H196.481C197.311 172.494 198.107 172.803 198.744 173.338C199.382 173.873 199.825 174.604 200.006 175.418L202.717 189.51C202.807 189.867 202.811 190.241 202.732 190.601C202.652 190.96 202.49 191.297 202.258 191.583C202.026 191.869 201.731 192.097 201.396 192.249C201.06 192.401 200.695 192.473 200.327 192.459Z" fill="#FEFDFF"/>
<path d="M235.77 192.459H221.71C220.88 192.425 220.084 192.118 219.447 191.585C218.809 191.051 218.365 190.322 218.184 189.509L215.473 175.418C215.384 175.06 215.379 174.686 215.459 174.325C215.539 173.965 215.701 173.628 215.933 173.342C216.164 173.055 216.459 172.826 216.794 172.672C217.129 172.519 217.495 172.446 217.863 172.458H231.924C232.753 172.494 233.548 172.804 234.183 173.339C234.819 173.874 235.26 174.605 235.439 175.418L238.151 189.509C238.242 189.866 238.248 190.24 238.17 190.6C238.091 190.96 237.93 191.296 237.699 191.583C237.468 191.869 237.173 192.098 236.838 192.25C236.503 192.402 236.138 192.473 235.77 192.459Z" fill="#FEFDFF"/>
<path d="M271.214 192.459H257.153C256.324 192.425 255.53 192.117 254.894 191.584C254.259 191.05 253.817 190.321 253.638 189.51L250.926 175.418C250.835 175.06 250.829 174.687 250.907 174.326C250.986 173.966 251.147 173.629 251.378 173.342C251.609 173.055 251.903 172.825 252.238 172.672C252.573 172.519 252.939 172.446 253.306 172.458H267.367C268.198 172.494 268.994 172.803 269.631 173.338C270.269 173.873 270.712 174.604 270.892 175.418L273.604 189.51C273.693 189.867 273.698 190.241 273.618 190.601C273.539 190.96 273.376 191.297 273.144 191.583C272.912 191.869 272.617 192.097 272.282 192.249C271.947 192.401 271.581 192.473 271.214 192.459Z" fill="#FEFDFF"/>
<path d="M412.967 192.458H398.906C398.076 192.425 397.281 192.118 396.643 191.584C396.006 191.051 395.562 190.321 395.381 189.509L392.669 175.417C392.581 175.06 392.576 174.687 392.655 174.328C392.735 173.968 392.896 173.632 393.126 173.345C393.357 173.059 393.65 172.83 393.984 172.676C394.318 172.522 394.682 172.447 395.05 172.458H409.11C409.94 172.494 410.734 172.804 411.37 173.339C412.006 173.874 412.447 174.605 412.626 175.417L415.337 189.509C415.426 189.865 415.431 190.237 415.352 190.595C415.273 190.953 415.113 191.288 414.883 191.574C414.654 191.86 414.361 192.088 414.029 192.242C413.696 192.395 413.333 192.469 412.967 192.458Z" fill="#D0CFEC"/>
<path d="M312.934 224.859H298.874C298.044 224.826 297.248 224.519 296.611 223.985C295.973 223.452 295.529 222.722 295.348 221.91L292.637 207.818C292.548 207.46 292.543 207.086 292.623 206.726C292.703 206.366 292.865 206.029 293.097 205.742C293.328 205.455 293.623 205.226 293.958 205.073C294.293 204.92 294.659 204.846 295.027 204.859H309.088C309.918 204.896 310.713 205.206 311.35 205.741C311.987 206.275 312.431 207.005 312.613 207.818L315.315 221.91C315.406 222.267 315.412 222.64 315.334 223C315.255 223.36 315.094 223.697 314.863 223.983C314.632 224.27 314.337 224.498 314.002 224.65C313.667 224.802 313.302 224.874 312.934 224.859Z" fill="#FEFDFF"/>
<path d="M348.327 224.859H334.266C333.438 224.825 332.644 224.518 332.008 223.984C331.372 223.451 330.93 222.721 330.751 221.91L328.039 207.818C327.949 207.461 327.942 207.087 328.021 206.727C328.099 206.366 328.26 206.029 328.491 205.742C328.722 205.455 329.017 205.226 329.351 205.072C329.686 204.919 330.052 204.846 330.42 204.859H344.481C345.311 204.894 346.107 205.204 346.744 205.739C347.382 206.274 347.825 207.005 348.006 207.818L350.717 221.91C350.807 222.268 350.811 222.641 350.732 223.001C350.652 223.361 350.49 223.697 350.258 223.983C350.026 224.269 349.731 224.497 349.396 224.649C349.06 224.801 348.695 224.873 348.327 224.859Z" fill="#FEFDFF"/>
<path d="M383.761 224.859H369.7C368.87 224.826 368.074 224.519 367.437 223.985C366.799 223.452 366.356 222.722 366.175 221.91L363.473 207.818C363.382 207.461 363.376 207.087 363.454 206.727C363.533 206.366 363.694 206.029 363.925 205.742C364.156 205.455 364.45 205.226 364.785 205.072C365.12 204.919 365.485 204.846 365.853 204.859H379.914C380.744 204.896 381.539 205.206 382.176 205.741C382.813 206.276 383.257 207.006 383.439 207.818L386.141 221.91C386.232 222.267 386.239 222.64 386.16 223C386.082 223.36 385.921 223.697 385.689 223.983C385.458 224.27 385.163 224.498 384.829 224.65C384.494 224.802 384.128 224.874 383.761 224.859Z" fill="#D0CFEC"/>
<path d="M206.564 224.859H192.503C191.674 224.824 190.879 224.516 190.242 223.983C189.605 223.45 189.16 222.722 188.978 221.91L186.276 207.818C186.186 207.461 186.179 207.087 186.258 206.727C186.336 206.366 186.497 206.029 186.728 205.742C186.959 205.455 187.254 205.226 187.588 205.072C187.923 204.919 188.289 204.846 188.656 204.859H202.717C203.548 204.894 204.344 205.204 204.981 205.739C205.619 206.274 206.062 207.005 206.243 207.818L208.954 221.91C209.043 222.268 209.048 222.641 208.968 223.001C208.889 223.361 208.726 223.697 208.494 223.983C208.263 224.269 207.967 224.497 207.632 224.649C207.297 224.801 206.932 224.873 206.564 224.859Z" fill="#7BE0AD"/>
<path d="M242.008 224.859H227.947C227.117 224.825 226.321 224.518 225.684 223.985C225.046 223.451 224.602 222.722 224.421 221.91L221.71 207.818C221.621 207.46 221.616 207.087 221.696 206.728C221.775 206.369 221.936 206.032 222.167 205.746C222.397 205.459 222.691 205.23 223.025 205.076C223.358 204.922 223.723 204.848 224.09 204.858H238.151C238.98 204.894 239.775 205.204 240.41 205.739C241.046 206.274 241.488 207.005 241.666 207.818L244.378 221.91C244.469 222.266 244.475 222.638 244.397 222.997C244.32 223.356 244.159 223.692 243.929 223.979C243.699 224.265 243.406 224.493 243.072 224.646C242.739 224.799 242.374 224.872 242.008 224.859Z" fill="#FEFDFF"/>
<path d="M277.44 224.859H263.38C262.551 224.825 261.757 224.518 261.121 223.984C260.485 223.451 260.043 222.721 259.864 221.91L257.153 207.818C257.062 207.461 257.056 207.087 257.134 206.727C257.212 206.366 257.374 206.029 257.605 205.742C257.835 205.455 258.13 205.226 258.465 205.072C258.799 204.919 259.165 204.846 259.533 204.859H273.594C274.424 204.894 275.22 205.204 275.858 205.739C276.495 206.274 276.938 207.005 277.119 207.818L279.831 221.91C279.92 222.268 279.925 222.641 279.845 223.001C279.765 223.361 279.603 223.697 279.371 223.983C279.139 224.269 278.844 224.497 278.509 224.649C278.174 224.801 277.808 224.873 277.44 224.859Z" fill="#FEFDFF"/>
<path d="M419.204 224.859H405.143C404.315 224.825 403.521 224.517 402.885 223.984C402.249 223.45 401.807 222.721 401.628 221.91L398.916 207.818C398.828 207.46 398.823 207.087 398.902 206.728C398.982 206.369 399.143 206.032 399.373 205.746C399.604 205.459 399.897 205.23 400.231 205.076C400.565 204.922 400.929 204.848 401.297 204.858H415.357C416.187 204.894 416.981 205.204 417.617 205.739C418.253 206.274 418.694 207.005 418.873 207.818L421.584 221.91C421.673 222.266 421.678 222.639 421.599 222.998C421.52 223.357 421.358 223.693 421.128 223.979C420.897 224.264 420.603 224.493 420.269 224.646C419.935 224.798 419.571 224.871 419.204 224.859Z" fill="#D0CFEC"/>
<path d="M212.5 255.437H198.439C197.608 255.402 196.813 255.093 196.175 254.558C195.538 254.023 195.094 253.292 194.914 252.478L192.202 238.386C192.113 238.028 192.109 237.654 192.188 237.294C192.268 236.934 192.43 236.597 192.662 236.31C192.894 236.024 193.189 235.794 193.524 235.641C193.859 235.488 194.224 235.415 194.592 235.427H208.653C209.483 235.464 210.278 235.774 210.915 236.309C211.553 236.844 211.996 237.574 212.178 238.386L214.88 252.478C214.971 252.836 214.977 253.209 214.899 253.57C214.82 253.93 214.659 254.267 214.428 254.554C214.197 254.841 213.903 255.071 213.568 255.224C213.233 255.377 212.868 255.45 212.5 255.437Z" fill="#FEFDFF"/>
<path d="M247.893 255.437H233.832C233.003 255.401 232.208 255.092 231.573 254.556C230.937 254.021 230.496 253.29 230.317 252.478L227.605 238.386C227.517 238.029 227.512 237.656 227.591 237.296C227.671 236.937 227.832 236.601 228.062 236.314C228.293 236.028 228.586 235.798 228.92 235.644C229.254 235.49 229.618 235.416 229.986 235.427H244.046C244.876 235.463 245.67 235.772 246.306 236.308C246.942 236.843 247.383 237.574 247.562 238.386L250.273 252.478C250.362 252.835 250.367 253.208 250.287 253.568C250.208 253.927 250.047 254.263 249.816 254.55C249.586 254.836 249.292 255.066 248.959 255.22C248.625 255.374 248.26 255.448 247.893 255.437Z" fill="#FEFDFF"/>
<path d="M283.326 255.438H269.265C268.435 255.4 267.64 255.091 267.003 254.556C266.366 254.021 265.922 253.291 265.74 252.478L263.038 238.387C262.948 238.029 262.941 237.655 263.02 237.295C263.098 236.935 263.259 236.598 263.49 236.31C263.721 236.023 264.016 235.794 264.35 235.641C264.685 235.487 265.051 235.414 265.419 235.427H279.48C280.31 235.463 281.106 235.772 281.743 236.307C282.381 236.842 282.824 237.573 283.005 238.387L285.717 252.478C285.805 252.836 285.81 253.21 285.73 253.571C285.65 253.931 285.488 254.268 285.256 254.554C285.025 254.841 284.73 255.07 284.395 255.223C284.06 255.377 283.694 255.45 283.326 255.438Z" fill="#FEFDFF"/>
<path d="M142.798 40.2556C142.8 35.8484 144.106 31.5408 146.551 27.8774C148.995 24.2139 152.469 21.3591 156.532 19.6739C160.595 17.9888 165.066 17.5489 169.379 18.4099C173.692 19.2709 177.653 21.3942 180.761 24.5112C183.87 27.6283 185.987 31.5991 186.844 35.9217C187.701 40.2444 187.26 44.7246 185.577 48.7961C183.894 52.8676 181.044 56.3475 177.387 58.7958C173.731 61.2441 169.432 62.5508 165.035 62.5508" stroke="#7C3AED" stroke-width="4" stroke-miterlimit="10"/>
<path d="M281.92 40.2562C281.92 35.8466 283.225 31.536 285.669 27.8696C288.114 24.2032 291.588 21.3455 295.653 19.6581C299.718 17.9706 304.191 17.5291 308.506 18.3893C312.822 19.2496 316.785 21.373 319.897 24.4911C323.008 27.6091 325.127 31.5817 325.985 35.9066C326.843 40.2314 326.403 44.7143 324.719 48.7882C323.035 52.8621 320.184 56.3442 316.526 58.794C312.867 61.2438 308.566 62.5514 304.166 62.5514" stroke="#7C3AED" stroke-width="4" stroke-miterlimit="10"/>
<path d="M212.359 40.2556C212.361 35.8484 213.667 31.5408 216.111 27.8774C218.556 24.2139 222.029 21.3591 226.093 19.6739C230.156 17.9888 234.627 17.5489 238.939 18.4099C243.252 19.2709 247.213 21.3942 250.322 24.5112C253.431 27.6283 255.548 31.5991 256.405 35.9217C257.262 40.2444 256.821 44.7246 255.138 48.7961C253.454 52.8676 250.604 56.3475 246.948 58.7958C243.291 61.2441 238.993 62.5508 234.595 62.5508" stroke="#7C3AED" stroke-width="4" stroke-miterlimit="10"/>
<path d="M351.491 40.2556C351.493 35.8484 352.799 31.5408 355.244 27.8774C357.688 24.2139 361.162 21.3591 365.225 19.6739C369.288 17.9888 373.759 17.5489 378.072 18.4099C382.384 19.2709 386.346 21.3942 389.454 24.5112C392.563 27.6283 394.68 31.5991 395.537 35.9217C396.394 40.2444 395.953 44.7246 394.27 48.7961C392.587 52.8676 389.737 56.3475 386.08 58.7958C382.424 61.2441 378.125 62.5508 373.727 62.5508" stroke="#7C3AED" stroke-width="4" stroke-miterlimit="10"/>
<path d="M333.664 247.628H324.916C325.193 248.44 325.767 249.117 326.523 249.52C327.482 249.999 328.547 250.224 329.617 250.175C330.384 250.176 331.145 250.043 331.866 249.782C332.433 249.61 332.962 249.329 333.423 248.957H333.855L334.638 251.654C333.904 251.942 333.144 252.161 332.369 252.309C331.546 252.453 330.713 252.523 329.878 252.52C327.805 252.604 325.75 252.109 323.942 251.091C322.448 250.199 321.365 248.752 320.929 247.064C320.664 246.384 320.586 245.646 320.703 244.925C320.82 244.205 321.126 243.529 321.592 242.968C322.509 241.954 324.009 241.448 326.091 241.448C327.761 241.371 329.412 241.822 330.812 242.736C332.065 243.641 332.967 244.954 333.363 246.45L333.664 247.628ZM329.295 245.665C329.13 245.05 328.78 244.502 328.291 244.095C327.736 243.715 327.074 243.525 326.403 243.552C325.805 243.514 325.213 243.692 324.736 244.055C324.535 244.265 324.398 244.528 324.339 244.812C324.281 245.097 324.303 245.393 324.404 245.665H329.295Z" fill="white"/>
<path d="M344.501 252.147C344.089 252.253 343.669 252.324 343.245 252.358C342.773 252.358 342.241 252.439 341.558 252.439C340.315 252.494 339.079 252.224 337.973 251.653C337.014 251.027 336.334 250.053 336.074 248.936L334.628 244.054H333.071L332.398 241.789H333.955L333.061 238.77H336.848L337.752 241.789H341.307L342 244.054H338.435L339.559 247.768L339.841 248.724C339.926 248.993 340.062 249.243 340.242 249.459C340.424 249.685 340.658 249.861 340.925 249.973C341.288 250.123 341.679 250.192 342.07 250.174C342.322 250.167 342.572 250.126 342.813 250.053C343.027 250.012 343.233 249.941 343.426 249.842H343.748L344.451 252.147H344.501Z" fill="white"/>
<path d="M352.837 251.129C352.676 251.26 352.485 251.441 352.224 251.633C351.997 251.807 351.755 251.962 351.501 252.096C351.152 252.242 350.789 252.35 350.416 252.418C349.987 252.503 349.549 252.544 349.111 252.538C347.992 252.544 346.896 252.222 345.957 251.612C345.06 251.082 344.389 250.24 344.069 249.247C343.828 248.65 343.828 247.982 344.069 247.385C344.362 246.863 344.822 246.455 345.375 246.227C346.147 245.899 346.968 245.698 347.805 245.633C348.81 245.513 349.814 245.422 350.979 245.362V245.301C350.892 245.022 350.739 244.768 350.533 244.561C350.326 244.354 350.073 244.2 349.794 244.114C348.993 243.87 348.159 243.758 347.323 243.781C346.673 243.787 346.027 243.885 345.405 244.073C344.931 244.201 344.465 244.356 344.009 244.536H343.647L342.864 242C344.348 241.667 345.863 241.492 347.383 241.476C349.083 241.386 350.781 241.69 352.345 242.362C352.902 242.639 353.396 243.027 353.797 243.503C354.198 243.979 354.497 244.533 354.675 245.13L356.965 252.247H353.108L352.747 251.129H352.837ZM352.325 249.519L351.642 247.345L350.015 247.496C349.569 247.525 349.128 247.603 348.699 247.727C348.403 247.785 348.138 247.949 347.956 248.19C347.895 248.312 347.863 248.446 347.863 248.583C347.863 248.719 347.895 248.853 347.956 248.975C348.011 249.165 348.088 249.348 348.187 249.519C348.306 249.675 348.457 249.806 348.629 249.901C348.839 250.024 349.066 250.115 349.302 250.173C349.663 250.239 350.029 250.269 350.396 250.264C350.771 250.262 351.143 250.19 351.491 250.052C351.803 249.935 352.087 249.753 352.325 249.519Z" fill="white"/>
<path d="M368.967 248.935C369.165 249.393 369.196 249.906 369.055 250.385C368.914 250.863 368.608 251.277 368.193 251.552C366.919 252.313 365.444 252.664 363.965 252.559C362.166 252.569 360.378 252.283 358.672 251.713L357.778 248.945H358.13C358.351 249.066 358.622 249.197 358.913 249.328C359.312 249.499 359.722 249.647 360.138 249.771C360.626 249.926 361.122 250.05 361.625 250.143C362.175 250.24 362.733 250.29 363.292 250.294C363.836 250.319 364.38 250.248 364.899 250.083C364.965 250.063 365.026 250.031 365.079 249.987C365.132 249.943 365.175 249.889 365.206 249.827C365.237 249.766 365.255 249.699 365.259 249.63C365.264 249.562 365.254 249.493 365.23 249.428C365.189 249.307 365.123 249.195 365.036 249.1C364.95 249.005 364.845 248.928 364.728 248.875C364.305 248.709 363.863 248.597 363.413 248.543C363.121 248.482 362.72 248.432 362.197 248.372C361.675 248.311 361.193 248.221 360.811 248.14C359.811 247.96 358.862 247.565 358.029 246.983C357.355 246.5 356.854 245.811 356.603 245.02C356.432 244.571 356.418 244.078 356.564 243.62C356.71 243.163 357.007 242.769 357.407 242.503C358.628 241.732 360.066 241.379 361.504 241.497C362.393 241.488 363.281 241.562 364.156 241.718C364.859 241.835 365.554 242 366.235 242.211L367.129 244.869H366.797C366.087 244.519 365.344 244.242 364.578 244.043C363.829 243.833 363.055 243.721 362.278 243.711C361.775 243.695 361.275 243.774 360.801 243.943C360.42 244.104 360.289 244.315 360.379 244.577C360.458 244.827 360.631 245.036 360.862 245.161C361.332 245.361 361.829 245.49 362.338 245.543C362.75 245.624 363.202 245.674 363.674 245.734C364.146 245.795 364.628 245.885 365.11 245.986C366.043 246.158 366.929 246.525 367.711 247.063C368.322 247.533 368.763 248.191 368.967 248.935Z" fill="white"/>
<path d="M381.943 247.627H373.195C373.525 248.442 374.134 249.113 374.913 249.519C375.89 249.994 376.971 250.219 378.056 250.173C378.797 250.166 379.531 250.029 380.226 249.771C380.775 249.6 381.284 249.319 381.722 248.945H382.234L383.188 251.643C382.468 251.932 381.721 252.151 380.959 252.297C380.143 252.442 379.316 252.512 378.488 252.508C376.388 252.582 374.307 252.088 372.462 251.079C370.909 250.189 369.74 248.755 369.178 247.053C368.595 245.322 368.733 243.956 369.59 242.956C370.433 241.95 371.91 241.436 373.999 241.436C375.689 241.369 377.36 241.818 378.789 242.725C380.098 243.624 381.075 244.929 381.571 246.439L382.003 247.627H381.943ZM377.444 245.664C377.243 245.019 376.832 244.46 376.276 244.077C375.721 243.694 375.053 243.508 374.38 243.55C373.794 243.508 373.214 243.688 372.753 244.053C372.561 244.269 372.437 244.537 372.394 244.823C372.351 245.109 372.392 245.401 372.512 245.664H377.444Z" fill="white"/>
<path d="M389.265 252.247H385.418L380.226 237.742H384.002L389.265 252.247Z" fill="white"/>
<path d="M402.07 247.628H393.282C393.632 248.447 394.257 249.116 395.049 249.52C396.031 249.994 397.114 250.219 398.203 250.174C398.961 250.179 399.713 250.046 400.423 249.782C400.966 249.612 401.469 249.331 401.899 248.956H402.321L403.325 251.654C402.608 251.942 401.864 252.161 401.106 252.308C400.29 252.453 399.463 252.524 398.635 252.52C396.536 252.584 394.457 252.09 392.609 251.09C391.031 250.204 389.828 248.773 389.224 247.064C388.591 245.333 388.702 243.964 389.526 242.967C390.349 241.971 391.795 241.448 393.894 241.448C395.594 241.383 397.274 241.832 398.715 242.736C400.05 243.631 401.061 244.934 401.598 246.45L402.06 247.638L402.07 247.628ZM397.52 245.665C397.285 245.038 396.873 244.492 396.335 244.095C395.76 243.717 395.083 243.527 394.397 243.551C393.813 243.508 393.236 243.688 392.78 244.055C392.428 244.377 392.358 244.92 392.589 245.665H397.52Z" fill="white"/>
<path d="M412.013 252.54C410.999 252.541 409.989 252.43 409 252.208C408.076 251.999 407.187 251.66 406.358 251.201C405.56 250.746 404.839 250.169 404.219 249.49C403.598 248.773 403.108 247.952 402.773 247.064C402.417 246.277 402.278 245.408 402.371 244.548C402.446 243.873 402.755 243.246 403.245 242.777C403.763 242.281 404.405 241.933 405.103 241.77C405.915 241.556 406.753 241.454 407.594 241.468C408.37 241.462 409.144 241.539 409.904 241.7C410.638 241.849 411.36 242.055 412.063 242.314L413.198 245.182H412.656C412.455 245.061 412.244 244.931 411.962 244.79C411.657 244.623 411.342 244.475 411.018 244.347C410.663 244.213 410.301 244.099 409.934 244.005C409.526 243.907 409.107 243.863 408.688 243.874C408.309 243.822 407.922 243.874 407.569 244.022C407.216 244.171 406.909 244.412 406.68 244.719C406.524 245.086 406.451 245.483 406.467 245.882C406.482 246.28 406.586 246.671 406.77 247.024C407.091 247.949 407.695 248.749 408.497 249.309C409.298 249.847 410.245 250.125 411.209 250.104C411.627 250.11 412.043 250.056 412.445 249.943C412.736 249.874 413.014 249.759 413.268 249.601C413.444 249.494 413.606 249.366 413.75 249.219C413.873 249.092 413.987 248.958 414.092 248.816H414.634L415.769 251.675C415.239 251.931 414.684 252.13 414.112 252.268C413.425 252.439 412.72 252.53 412.013 252.54Z" fill="white"/>
<path d="M425.562 252.147C425.157 252.254 424.744 252.325 424.326 252.358C423.864 252.358 423.322 252.439 422.649 252.439C421.378 252.486 420.115 252.217 418.973 251.653C417.955 251.027 417.185 250.067 416.794 248.936L414.845 244.054H413.289L412.385 241.789H413.931L412.736 238.77H416.523L417.738 241.789H421.313L422.247 244.054H418.682L420.178 247.768L420.57 248.724C420.684 248.997 420.848 249.246 421.052 249.459C421.251 249.688 421.503 249.865 421.785 249.973C422.391 250.212 423.06 250.24 423.684 250.053C423.89 250.011 424.09 249.94 424.276 249.842H424.588L425.542 252.147H425.562Z" fill="white"/>
<path d="M311.388 249.771L310.504 246.409L309.891 244.104L309.138 241.255L308.485 238.779H304.699L308.194 252.237H312.04L311.388 249.771Z" fill="white"/>
<path d="M318.016 244.607C317.246 243.745 316.364 242.99 315.395 242.362L315.023 242.131H311.126L311.418 243.248L311.809 243.439C312.179 243.626 312.532 243.845 312.864 244.094C313.227 244.34 313.564 244.623 313.868 244.939C314.182 245.246 314.465 245.583 314.712 245.946C314.95 246.318 315.13 246.726 315.244 247.154C315.36 247.548 315.401 247.962 315.365 248.371C315.324 248.72 315.229 249.059 315.084 249.378C314.94 249.684 314.754 249.969 314.531 250.224C314.314 250.47 314.068 250.69 313.798 250.878L313.517 251.089L313.808 252.207H317.775L318.016 251.975C318.663 251.347 319.152 250.574 319.442 249.72C319.689 248.886 319.689 247.998 319.442 247.164C319.153 246.22 318.667 245.349 318.016 244.607Z" fill="white"/>
<path d="M330.952 97.7216L379.884 72.7993L354.343 49.7793L330.952 97.7216Z" fill="#7C3AED"/>
<path d="M384.725 93.7754C409.719 93.7754 429.981 73.469 429.981 48.4199C429.981 23.3708 409.719 3.06445 384.725 3.06445C359.731 3.06445 339.469 23.3708 339.469 48.4199C339.469 73.469 359.731 93.7754 384.725 93.7754Z" fill="#7C3AED"/>
<path d="M384.725 86.4772C405.697 86.4772 422.699 69.4381 422.699 48.4192C422.699 27.4004 405.697 10.3613 384.725 10.3613C363.752 10.3613 346.75 27.4004 346.75 48.4192C346.75 69.4381 363.752 86.4772 384.725 86.4772Z" fill="#D0CFEC"/>
<path d="M384.725 95.9894C410.939 95.9894 432.19 74.6916 432.19 48.4195C432.19 22.1474 410.939 0.849609 384.725 0.849609C358.51 0.849609 337.259 22.1474 337.259 48.4195C337.259 74.6916 358.51 95.9894 384.725 95.9894Z" stroke="#7C3AED" stroke-miterlimit="10"/>
<path d="M384.725 50.8762C391.941 50.8762 397.791 45.0132 397.791 37.7809C397.791 30.5485 391.941 24.6855 384.725 24.6855C377.508 24.6855 371.658 30.5485 371.658 37.7809C371.658 45.0132 377.508 50.8762 384.725 50.8762Z" fill="white"/>
<path d="M409.352 72.1435H360.139C360.139 63.5576 371.126 56.5117 384.725 56.5117C398.324 56.5117 409.352 63.5576 409.352 72.1435Z" fill="white"/>
<path d="M173.059 307.044C203.605 307.044 228.368 282.226 228.368 251.613C228.368 220.999 203.605 196.182 173.059 196.182C142.512 196.182 117.75 220.999 117.75 251.613C117.75 282.226 142.512 307.044 173.059 307.044Z" fill="#F6AE2D"/>
<path d="M173.059 294.935C196.933 294.935 216.286 275.539 216.286 251.613C216.286 227.687 196.933 208.291 173.059 208.291C149.185 208.291 129.832 227.687 129.832 251.613C129.832 275.539 149.185 294.935 173.059 294.935Z" fill="#FEFDFF"/>
<path d="M173.059 221.275C174.446 221.275 175.57 220.148 175.57 218.759C175.57 217.369 174.446 216.242 173.059 216.242C171.672 216.242 170.548 217.369 170.548 218.759C170.548 220.148 171.672 221.275 173.059 221.275Z" fill="#F6AE2D"/>
<path d="M140.287 254.13C141.674 254.13 142.798 253.004 142.798 251.614C142.798 250.224 141.674 249.098 140.287 249.098C138.901 249.098 137.776 250.224 137.776 251.614C137.776 253.004 138.901 254.13 140.287 254.13Z" fill="#F6AE2D"/>
<path d="M173.059 286.984C174.446 286.984 175.57 285.857 175.57 284.468C175.57 283.078 174.446 281.951 173.059 281.951C171.672 281.951 170.548 283.078 170.548 284.468C170.548 285.857 171.672 286.984 173.059 286.984Z" fill="#F6AE2D"/>
<path d="M205.841 254.13C207.228 254.13 208.352 253.004 208.352 251.614C208.352 250.224 207.228 249.098 205.841 249.098C204.454 249.098 203.33 250.224 203.33 251.614C203.33 253.004 204.454 254.13 205.841 254.13Z" fill="#F6AE2D"/>
<path d="M147.057 225.553L152.711 231.21" stroke="#7C3AED" stroke-width="2" stroke-miterlimit="10" stroke-linecap="round"/>
<path d="M193.487 272.086L199.142 277.753" stroke="#7C3AED" stroke-width="2" stroke-miterlimit="10" stroke-linecap="round"/>
<path d="M199.142 225.553L193.487 231.21" stroke="#7C3AED" stroke-width="2" stroke-miterlimit="10" stroke-linecap="round"/>
<path d="M152.711 272.086L147.057 277.753" stroke="#7C3AED" stroke-width="2" stroke-miterlimit="10" stroke-linecap="round"/>
<path d="M173.059 218.76V251.614" stroke="#7BE0AD" stroke-width="3" stroke-miterlimit="10" stroke-linecap="round"/>
<path d="M158.546 264.88L173.059 251.613" stroke="#7BE0AD" stroke-width="3" stroke-miterlimit="10" stroke-linecap="round"/>
<path d="M173.059 257.663C176.393 257.663 179.095 254.955 179.095 251.614C179.095 248.273 176.393 245.564 173.059 245.564C169.725 245.564 167.023 248.273 167.023 251.614C167.023 254.955 169.725 257.663 173.059 257.663Z" fill="#7BE0AD"/>
<path d="M173.059 254.845C174.839 254.845 176.283 253.398 176.283 251.614C176.283 249.829 174.839 248.383 173.059 248.383C171.278 248.383 169.835 249.829 169.835 251.614C169.835 253.398 171.278 254.845 173.059 254.845Z" fill="#FEFDFF"/>
</svg>
