<svg width="416" height="270" viewBox="0 0 416 270" fill="none" xmlns="http://www.w3.org/2000/svg">
<path d="M173.09 227.283C154.335 220.192 138.186 207.565 126.789 191.08C115.392 174.594 109.288 155.033 109.289 134.997C109.289 132.734 109.364 130.476 109.515 128.223" stroke="#7C3AED" stroke-miterlimit="10" stroke-dasharray="12 12"/>
<path d="M180.149 229.646L171.606 222.209L172.577 227.064L168.833 230.316L180.149 229.646Z" fill="#7C3AED"/>
<path d="M215.458 36.6426C238.119 38.3567 259.495 47.8296 275.978 63.4627C292.461 79.0958 303.042 99.9319 305.935 122.455" stroke="#7C3AED" stroke-miterlimit="10" stroke-dasharray="12 12"/>
<path d="M208 36.3727L218.298 41.1075L215.993 36.719L218.667 32.5488L208 36.3727Z" fill="#7C3AED"/>
<path d="M327.707 141.643L330.675 147.823C331.036 148.569 331.101 149.423 330.858 150.214C330.615 151.006 330.082 151.676 329.365 152.091L324.799 154.591C325.356 157.286 325.495 160.05 325.214 162.788L330.065 164.896C330.817 165.224 331.418 165.822 331.749 166.572C332.079 167.322 332.116 168.17 331.851 168.945L329.523 175.441C329.233 176.214 328.667 176.853 327.934 177.234C327.201 177.614 326.353 177.711 325.553 177.504L320.43 176.156C318.904 178.469 317.037 180.537 314.893 182.291L316.723 187.116C317.013 187.892 317 188.748 316.685 189.514C316.371 190.28 315.779 190.9 315.028 191.249L308.783 194.26C308.04 194.626 307.185 194.698 306.39 194.463C305.596 194.227 304.919 193.7 304.497 192.988L301.822 188.411C299.099 188.982 296.306 189.141 293.535 188.885L291.546 193.771C291.205 194.522 290.598 195.122 289.842 195.454C289.086 195.786 288.233 195.827 287.448 195.57L280.924 193.311C280.151 193.034 279.512 192.475 279.133 191.746C278.755 191.018 278.665 190.174 278.883 189.382L280.276 184.279C277.966 182.782 275.896 180.944 274.137 178.829L269.142 180.748C268.369 181.047 267.512 181.043 266.743 180.738C265.973 180.432 265.347 179.847 264.991 179.1L262.083 173.078C261.722 172.332 261.657 171.478 261.9 170.687C262.143 169.895 262.677 169.225 263.394 168.81L267.914 166.175C267.363 163.482 267.226 160.72 267.507 157.985L262.655 155.878C261.903 155.548 261.302 154.948 260.971 154.197C260.641 153.445 260.604 152.597 260.87 151.82L263.19 145.324C263.482 144.551 264.05 143.913 264.784 143.534C265.519 143.154 266.368 143.06 267.168 143.269L272.291 144.609C273.821 142.301 275.687 140.233 277.828 138.474L275.997 133.657C275.707 132.88 275.721 132.023 276.035 131.256C276.349 130.488 276.941 129.868 277.692 129.517L283.938 126.506C284.681 126.14 285.536 126.067 286.33 126.303C287.125 126.539 287.801 127.066 288.224 127.778L290.838 132.219C293.562 131.651 296.355 131.494 299.125 131.752L301.28 126.92C301.62 126.167 302.226 125.566 302.983 125.232C303.739 124.899 304.592 124.856 305.378 125.113L311.902 127.371C312.676 127.648 313.317 128.206 313.695 128.935C314.074 129.664 314.163 130.509 313.944 131.301L312.55 136.397C314.86 137.894 316.93 139.731 318.69 141.847L323.692 139.927C324.455 139.668 325.287 139.7 326.028 140.017C326.77 140.334 327.367 140.913 327.707 141.643ZM311.088 153.236C306.704 143.932 297.686 139.092 288.315 143.578C278.943 148.064 274.807 159.385 279.365 168.607C283.794 177.564 294.281 180.522 303.931 175.923C313.288 171.459 315.36 162.336 311.066 153.236H311.088Z" fill="#7BE0AD"/>
<path d="M288.232 143.45C291.578 141.888 295.312 141.351 298.963 141.906C302.614 142.46 306.02 144.082 308.75 146.567C311.481 149.052 313.415 152.288 314.308 155.869C315.201 159.45 315.014 163.214 313.77 166.689C312.526 170.164 310.281 173.193 307.318 175.395C304.354 177.597 300.805 178.874 297.117 179.065C293.428 179.255 289.766 178.351 286.591 176.466C283.416 174.581 280.87 171.799 279.274 168.471C277.159 163.964 276.914 158.803 278.592 154.116C280.27 149.429 283.735 145.594 288.232 143.45ZM305.491 156.073C304.299 153.716 302.231 151.92 299.729 151.069C297.227 150.218 294.491 150.381 292.107 151.522C289.724 152.664 287.883 154.693 286.98 157.175C286.077 159.656 286.182 162.393 287.275 164.798C287.831 166.021 288.625 167.121 289.612 168.033C290.598 168.946 291.757 169.652 293.021 170.111C294.284 170.57 295.627 170.773 296.969 170.707C298.312 170.641 299.628 170.308 300.84 169.728C302.053 169.147 303.137 168.33 304.029 167.326C304.922 166.321 305.605 165.149 306.038 163.877C306.471 162.605 306.646 161.26 306.552 159.92C306.458 158.58 306.097 157.272 305.491 156.073Z" fill="#7C3AED"/>
<path d="M231.648 110.216L225.854 123.449C225.158 125.054 223.882 126.338 222.28 127.043C220.678 127.747 218.868 127.822 217.213 127.251L206.923 123.449C203.365 128.049 199.131 132.085 194.364 135.418L197.687 146.077C198.839 149.539 196.993 153.009 193.671 154.522L180.073 159.792C178.435 160.394 176.631 160.37 175.01 159.724C173.388 159.078 172.063 157.855 171.289 156.291L166.37 146.25C160.566 147.002 154.682 146.878 148.915 145.881L143.732 155.471C142.892 157.007 141.503 158.17 139.843 158.728C138.182 159.286 136.373 159.198 134.774 158.482L121.365 152.641C119.757 151.95 118.469 150.679 117.757 149.082C117.045 147.484 116.962 145.678 117.523 144.022L121.146 133.431C116.491 129.884 112.395 125.659 108.995 120.898L98.4478 124.526C94.9748 125.64 91.4642 123.773 89.9123 120.476L84.5183 106.927C83.8937 105.31 83.9028 103.517 84.5439 101.907C85.185 100.296 86.4108 98.9867 87.9762 98.2402L98.056 93.4226C97.2603 87.6724 97.3441 81.8347 98.3046 76.1096L88.2926 70.7577C86.7462 69.9368 85.5681 68.5614 84.9951 66.9081C84.4221 65.2547 84.4967 63.4459 85.2039 61.8452L90.8691 48.8605C91.5688 47.2617 92.8469 45.9858 94.4476 45.288C96.0482 44.5902 97.8536 44.5219 99.5025 45.0968L109.921 48.6497C113.469 44.046 117.699 40.01 122.465 36.6812L119.135 26.0224C117.982 22.5598 119.835 19.0897 123.15 17.5766L136.748 12.3075C138.385 11.7054 140.188 11.7299 141.808 12.3761C143.428 13.0223 144.752 14.2446 145.525 15.8077L150.452 25.8417C156.259 25.0961 162.145 25.223 167.914 26.2181L173.09 16.6282C173.93 15.0922 175.318 13.9292 176.979 13.3711C178.639 12.813 180.449 12.9009 182.047 13.6172L195.457 19.4585C197.07 20.1398 198.367 21.4044 199.087 22.9995C199.808 24.5945 199.9 26.4026 199.344 28.0623L195.871 38.3899C200.526 41.9369 204.622 46.1616 208.023 50.923L218.735 47.6937C222.216 46.5797 225.726 48.4465 227.278 51.7435L232.672 65.2928C233.297 66.9097 233.288 68.7026 232.647 70.313C232.006 71.9235 230.78 73.2329 229.214 73.9794L219.134 78.7969C219.93 84.5472 219.846 90.3849 218.886 96.1099L228.86 101.439C230.322 102.305 231.414 103.679 231.928 105.297C232.442 106.916 232.342 108.666 231.648 110.216ZM194.952 102.124C203.766 82.2821 194.274 58.7364 174.159 49.9745C154.045 41.2127 130.209 50.238 121.771 70.2383C117.718 79.8938 117.64 90.7574 121.556 100.47C125.472 110.182 133.064 117.958 142.684 122.11C162.776 130.917 186.319 121.553 194.952 102.124Z" fill="#FEDAC9"/>
<path d="M174.28 49.6809C194.395 58.4427 203.759 81.9207 195.073 101.823C186.386 121.726 162.799 130.849 142.685 122.087C122.57 113.325 113.206 89.8395 121.892 69.9371C130.45 50.3433 154.166 40.9416 174.28 49.6809ZM177.911 94.6796C180.173 89.499 180.282 83.6328 178.215 78.3715C177.192 75.7664 175.665 73.3882 173.722 71.3728C171.779 69.3573 169.457 67.744 166.89 66.625C164.322 65.506 161.56 64.9032 158.759 64.8511C155.959 64.7989 153.176 65.2984 150.568 66.321C145.303 68.3863 141.074 72.457 138.812 77.6376C136.58 82.8302 136.481 88.6919 138.538 93.9566C140.594 99.2213 144.641 103.466 149.804 105.775C160.81 110.269 173.21 105.474 177.911 94.7022V94.6796Z" fill="#7C3AED"/>
<path d="M266.769 231.843L260.584 240.161C259.84 241.169 258.743 241.858 257.511 242.09C256.28 242.322 255.006 242.079 253.947 241.411L247.378 237.112C244.161 239.75 240.562 241.882 236.703 243.435L237.305 251.414C237.402 252.655 237.027 253.887 236.254 254.864C235.482 255.841 234.37 256.49 233.139 256.684L222.803 258.152C221.564 258.309 220.31 258.003 219.283 257.291C218.256 256.579 217.53 255.513 217.244 254.297L215.458 246.446C211.287 246.033 207.201 244.998 203.337 243.375L198.131 249.224C197.294 250.157 196.138 250.741 194.89 250.861C193.642 250.981 192.395 250.628 191.396 249.871L182.989 243.631C181.974 242.896 181.274 241.806 181.028 240.578C180.783 239.351 181.009 238.075 181.663 237.007L185.904 230.232C183.232 227.006 181.058 223.398 179.456 219.528L171.508 220.356C170.266 220.424 169.043 220.034 168.071 219.259C167.098 218.485 166.445 217.381 166.234 216.156L164.66 205.844C164.486 204.614 164.783 203.365 165.491 202.345C166.199 201.325 167.266 200.609 168.479 200.341L176.284 198.572C176.655 194.43 177.656 190.369 179.252 186.528L173.158 181.199C172.208 180.381 171.602 179.235 171.463 177.989C171.323 176.744 171.659 175.492 172.404 174.485L178.431 166.34C179.172 165.329 180.27 164.637 181.501 164.404C182.733 164.171 184.008 164.413 185.068 165.083L191.758 169.238C194.978 166.603 198.58 164.471 202.44 162.915L201.898 154.951C201.798 153.709 202.171 152.476 202.944 151.498C203.717 150.521 204.832 149.872 206.064 149.682L216.4 148.176C217.638 148.02 218.89 148.328 219.916 149.039C220.941 149.751 221.666 150.816 221.952 152.03L223.745 159.889C227.914 160.305 231.998 161.342 235.859 162.968L241.027 157.119C241.859 156.183 243.015 155.595 244.262 155.474C245.509 155.352 246.757 155.706 247.754 156.464L256.162 162.704C257.178 163.439 257.88 164.531 258.125 165.76C258.371 166.99 258.143 168.267 257.488 169.336L253.374 175.96C256.062 179.188 258.249 182.801 259.861 186.679L267.854 186.16C269.096 186.088 270.321 186.478 271.294 187.253C272.267 188.028 272.92 189.134 273.127 190.36L274.709 200.672C274.881 201.901 274.583 203.15 273.875 204.169C273.168 205.189 272.102 205.905 270.89 206.175L263.077 207.906C262.702 212.047 261.701 216.108 260.109 219.95L266.204 225.279C267.086 226.115 267.63 227.244 267.734 228.454C267.838 229.664 267.495 230.87 266.769 231.843ZM242.481 220.274C251.837 207.861 249.02 189.901 236.409 180.544C223.798 171.188 205.71 173.634 196.587 186.22C192.185 192.304 190.367 199.88 191.53 207.298C192.692 214.715 196.741 221.373 202.794 225.821C215.383 235.17 233.313 232.445 242.481 220.281V220.274Z" fill="#F6AE2D"/>
<path d="M236.552 180.38C249.163 189.744 251.898 207.629 242.624 220.11C233.35 232.59 215.421 235.164 202.809 225.785C190.198 216.406 187.464 198.536 196.737 186.056C205.861 173.756 223.926 171.023 236.552 180.38ZM231.813 212.356C234.228 209.107 235.252 205.033 234.66 201.029C234.068 197.026 231.909 193.421 228.657 191.009C225.405 188.596 221.327 187.573 217.321 188.164C213.314 188.756 209.707 190.914 207.292 194.163C206.096 195.771 205.23 197.6 204.741 199.543C204.253 201.487 204.152 203.507 204.445 205.49C205.037 209.493 207.197 213.098 210.448 215.51C213.7 217.923 217.778 218.946 221.785 218.355C223.769 218.062 225.675 217.381 227.396 216.352C229.117 215.323 230.618 213.965 231.813 212.356Z" fill="#7C3AED"/>
</svg>
