<svg width="504" height="350" viewBox="0 0 504 350" fill="none" xmlns="http://www.w3.org/2000/svg">
<path d="M290.115 105.586C252.857 93.4423 212.725 93.4423 175.467 105.586V29.0222C212.724 16.8707 252.858 16.8707 290.115 29.0222V105.586Z" fill="url(#paint0_linear_7289_29798)"/>
<path d="M182.971 38.717C215.274 29.6803 249.413 29.5995 281.759 38.483" stroke="white" stroke-width="2" stroke-miterlimit="10" stroke-linecap="round"/>
<path d="M186.285 31.9175C186.259 32.4267 186.078 32.9154 185.765 33.3171C185.452 33.7188 185.023 34.0138 184.537 34.162C184.334 34.2362 184.117 34.2586 183.903 34.2275C183.69 34.1963 183.487 34.1125 183.314 33.9835C183.141 33.8546 183.002 33.6845 182.91 33.4885C182.819 33.2925 182.777 33.0768 182.789 32.8606C182.813 32.3492 182.994 31.8577 183.307 31.4533C183.62 31.049 184.049 30.7515 184.537 30.6014C184.741 30.5287 184.96 30.5077 185.174 30.5404C185.387 30.573 185.59 30.6583 185.763 30.7886C185.936 30.9189 186.075 31.0902 186.166 31.2871C186.257 31.4841 186.298 31.7007 186.285 31.9175Z" fill="white"/>
<path d="M190.78 30.8061C190.756 31.311 190.574 31.7953 190.258 32.1894C189.943 32.5835 189.511 32.8671 189.025 32.9995C188.818 33.0673 188.598 33.0837 188.384 33.0473C188.169 33.0108 187.967 32.9226 187.794 32.7902C187.622 32.6578 187.483 32.4852 187.392 32.2873C187.3 32.0894 187.258 31.8721 187.269 31.6542C187.297 31.1506 187.482 30.6684 187.797 30.2751C188.111 29.8819 188.541 29.5972 189.025 29.4608C189.231 29.3948 189.451 29.3797 189.664 29.4169C189.878 29.4541 190.079 29.5425 190.252 29.6745C190.424 29.8065 190.562 29.9783 190.654 30.1753C190.746 30.3723 190.79 30.5887 190.78 30.8061Z" fill="white"/>
<path d="M195.298 29.8117C195.285 30.321 195.105 30.8118 194.786 31.2082C194.468 31.6047 194.028 31.8848 193.534 32.0051C193.324 32.0671 193.102 32.0777 192.887 32.0361C192.671 31.9945 192.469 31.9019 192.297 31.766C192.124 31.6302 191.987 31.4549 191.895 31.2549C191.804 31.0548 191.761 30.8358 191.771 30.616C191.787 30.1074 191.967 29.6179 192.286 29.2219C192.604 28.8259 193.042 28.5452 193.534 28.4226C193.745 28.364 193.966 28.3559 194.18 28.3988C194.394 28.4418 194.594 28.5346 194.766 28.6698C194.938 28.805 195.075 28.9788 195.167 29.1772C195.26 29.3755 195.304 29.5929 195.298 29.8117Z" fill="white"/>
<path d="M182.971 53.6393C194.237 50.4878 205.775 48.4119 217.43 47.4393" stroke="white" stroke-width="2" stroke-miterlimit="10" stroke-linecap="round"/>
<path d="M182.971 59.3715C201.176 54.2709 220.051 51.9903 238.943 52.6085" stroke="white" stroke-width="2" stroke-miterlimit="10" stroke-linecap="round"/>
<path d="M182.971 65.0962C199.191 60.5615 215.95 58.2617 232.787 58.2601" stroke="white" stroke-width="2" stroke-miterlimit="10" stroke-linecap="round"/>
<path d="M182.971 70.8282C193.931 67.7639 205.149 65.7179 216.483 64.7159" stroke="white" stroke-width="2" stroke-miterlimit="10" stroke-linecap="round"/>
<path d="M182.971 76.5603C200.747 71.5892 219.163 69.3049 237.61 69.7827" stroke="white" stroke-width="2" stroke-miterlimit="10" stroke-linecap="round"/>
<path d="M182.971 82.2924C189.496 80.4669 196.116 79.0024 202.801 77.9056" stroke="white" stroke-width="2" stroke-miterlimit="10" stroke-linecap="round"/>
<path d="M281.759 84.6321C270.736 81.6099 259.459 79.6128 248.072 78.666V44.8512C259.46 45.7969 270.737 47.7965 281.759 50.8245V84.6321Z" stroke="white" stroke-width="2" stroke-miterlimit="10" stroke-linecap="round"/>
<path d="M248.072 67.1287C249.857 65.5641 252.8 65.8931 254.49 67.8598C255.627 69.1978 256.224 71.1353 257.805 71.8591C259.612 72.6926 261.302 71.3473 263.036 70.8575C264.069 70.6207 265.143 70.6338 266.171 70.8957C267.198 71.1575 268.149 71.6607 268.944 72.3636C270.022 73.2702 270.911 74.4766 272.128 75.1273C274.313 76.3044 276.863 74.6447 276.433 72.2466C276.295 71.5155 275.938 70.7405 275.843 69.9947C275.792 69.2983 275.96 68.6032 276.323 68.0077C276.686 67.4121 277.227 66.9461 277.868 66.6754C279.063 66.0686 280.477 65.8492 281.635 65.2131" stroke="white" stroke-width="2" stroke-miterlimit="10" stroke-linecap="round"/>
<path d="M248.174 55.0505C248.595 56.1814 249.277 57.1965 250.163 58.0133C251.049 58.8302 252.115 59.4257 253.273 59.7516C253.815 59.9373 254.388 60.0116 254.959 59.9702C255.529 59.9287 256.086 59.7724 256.595 59.5104C257.07 59.1993 257.409 58.7191 257.544 58.1667C257.679 57.6143 257.601 57.031 257.324 56.5347C256.785 55.6281 255.554 54.8165 255.867 53.9245C255.96 53.7412 256.104 53.5883 256.28 53.4835C256.457 53.3787 256.66 53.3262 256.865 53.3323C257.761 53.2811 258.65 53.8222 259.546 54.1292C260.442 54.4363 261.593 54.3998 261.87 53.5736C261.934 53.241 261.968 52.9033 261.972 52.5646C262.009 52.2521 262.141 51.9586 262.349 51.7233C262.558 51.4881 262.833 51.3224 263.137 51.2486C263.596 51.1874 264.06 51.1703 264.522 51.1974C264.955 51.1705 265.376 51.0499 265.759 50.844C266.141 50.6382 266.474 50.3518 266.736 50.0046C266.997 49.6574 267.181 49.2575 267.274 48.8324C267.367 48.4074 267.368 47.9671 267.275 47.5417" stroke="white" stroke-width="2" stroke-miterlimit="10" stroke-linecap="round"/>
<g filter="url(#filter0_b_7289_29798)">
<path d="M457.114 185.674C433.736 160.085 406.067 146.405 382.688 144.731V80.6913C406.067 79.4118 433.736 90.079 457.114 112.7V185.674Z" fill="url(#paint1_linear_7289_29798)"/>
</g>
<path d="M386.841 90.6858C407.283 91.1903 430.501 100.483 451.104 118.549" stroke="white" stroke-width="2" stroke-miterlimit="10" stroke-linecap="round"/>
<path d="M388.72 85.7579C388.72 86.5841 388.276 87.2202 387.722 87.2202C387.169 87.2202 386.731 86.5329 386.731 85.6994C386.731 84.866 387.176 84.2372 387.722 84.2372C388.269 84.2372 388.72 84.9244 388.72 85.7579Z" fill="white"/>
<path d="M391.314 85.9042C391.314 86.745 390.855 87.3665 390.294 87.3665C389.733 87.3665 389.289 86.6354 389.289 85.8019C389.289 84.9684 389.733 84.3396 390.294 84.3396C390.855 84.3396 391.314 85.0707 391.314 85.9042Z" fill="white"/>
<path d="M393.959 86.1527C393.959 86.9935 393.492 87.615 392.924 87.5638C392.356 87.5126 391.89 86.7888 391.89 85.9553C391.89 85.1218 392.349 84.493 392.924 84.493C393.5 84.493 393.959 85.3119 393.959 86.1527Z" fill="white"/>
<path d="M386.841 103.261C393.843 103.648 400.769 104.913 407.458 107.027" stroke="white" stroke-width="2" stroke-miterlimit="10" stroke-linecap="round"/>
<path d="M386.841 108.087C397.842 108.737 409.651 111.925 421.424 117.664" stroke="white" stroke-width="2" stroke-miterlimit="10" stroke-linecap="round"/>
<path d="M386.841 112.92C397.398 113.772 407.725 116.466 417.359 120.882" stroke="white" stroke-width="2" stroke-miterlimit="10" stroke-linecap="round"/>
<path d="M386.841 117.752C393.65 118.318 400.366 119.703 406.846 121.876" stroke="white" stroke-width="2" stroke-miterlimit="10" stroke-linecap="round"/>
<path d="M386.841 122.578C397.565 123.514 409.061 126.862 420.542 132.631" stroke="white" stroke-width="2" stroke-miterlimit="10" stroke-linecap="round"/>
<path d="M386.841 127.411C390.749 127.788 394.625 128.445 398.439 129.377" stroke="white" stroke-width="2" stroke-miterlimit="10" stroke-linecap="round"/>
<path d="M451.104 162.088C443.935 155.219 436.043 149.154 427.565 144V113.358C436.02 118.052 443.917 123.693 451.104 130.174V162.088Z" stroke="white" stroke-width="2" stroke-miterlimit="10" stroke-linecap="round"/>
<path d="M427.565 133.552C428.789 132.704 430.8 133.969 431.937 136.352C432.716 137.961 433.139 139.942 434.224 141.141C435.477 142.53 436.65 141.872 437.867 142.048C439.083 142.223 440.781 143.598 442.012 145.586C442.684 146.884 443.43 148.142 444.249 149.352C445.815 151.297 447.607 150.741 447.301 148.321C447.206 147.59 446.951 146.72 446.886 145.989C446.755 144.468 447.476 143.759 448.343 143.656C449.21 143.554 450.201 143.89 451.024 143.759" stroke="white" stroke-width="2" stroke-miterlimit="10" stroke-linecap="round"/>
<path d="M427.638 122.629C428.175 124.903 429.389 126.959 431.121 128.522C431.907 129.173 432.774 129.618 433.408 129.385C434.042 129.151 434.341 128.068 433.904 126.899C433.532 125.89 432.68 124.705 432.905 124.04C433.007 123.74 433.306 123.696 433.59 123.813C434.289 124.253 434.915 124.798 435.448 125.429C436.075 126.007 436.905 126.35 437.065 125.685C437.113 125.388 437.137 125.087 437.138 124.786C437.196 124.223 437.524 123.894 437.954 123.96C438.291 124.068 438.615 124.21 438.923 124.384C440.183 124.925 441.109 123.784 440.846 121.92" stroke="white" stroke-width="2" stroke-miterlimit="10" stroke-linecap="round"/>
<path d="M349.191 303.145H196.361L211.055 159.171L257.12 149.44L293.226 150.799L341.119 164.004L349.191 303.145Z" fill="#7BC5DC"/>
<path d="M388.633 303.145H349.191L319.948 190.946C318.657 185.243 319.675 179.259 322.779 174.31C325.883 169.361 330.818 165.851 336.5 164.552C342.181 163.257 348.143 164.279 353.073 167.394C358.004 170.509 361.5 175.462 362.792 181.163L388.633 303.145Z" fill="#7BC5DC"/>
<path d="M342.554 303.145H339.683L333.039 241.182L342.554 303.145Z" fill="#1A224A"/>
<path d="M168.349 303.145H204.375L234.186 185.879C235.477 180.176 234.458 174.193 231.355 169.243C228.251 164.294 223.316 160.784 217.634 159.485H217.692C214.879 158.842 211.966 158.761 209.121 159.248C206.276 159.734 203.555 160.779 201.113 162.322C198.67 163.864 196.555 165.875 194.887 168.238C193.219 170.602 192.032 173.272 191.393 176.097L168.349 303.145Z" fill="#7BC5DC"/>
<path d="M299.848 154.572C296.934 182.845 241.231 182.962 236.153 144.972L256.319 141.872L257.302 125.956L297.13 124.135L293.196 150.799L299.848 154.572Z" fill="#FEA394"/>
<path d="M257.142 128.58L257.302 125.956L297.131 124.135L295.091 138.027C283.245 152.825 268.529 152.247 257.142 128.58Z" fill="#1A224A"/>
<path d="M262.598 183.481L256.326 177.23L251.146 185.389L247.044 175.936L245.682 180.915L242.659 173.603L240.429 191.151L237.195 177.8L231.694 182.648L231.6 177.34C229.414 140.461 231.221 106.851 234.681 80.7278H253.004L262.598 183.481Z" fill="#1A224A"/>
<path d="M303.534 70.8137C299.316 62.625 292.934 57.5729 285.321 54.312L286.05 43.6082C295.586 43.4035 307.446 54.5314 314.775 68.3424C334.234 104.994 321.441 183.861 321.441 183.861L317.529 179.094L314.447 187.51L311.198 179.094L307.104 188.365L305.377 173.742L302.128 179.825L299.025 168.975L293.546 190.178L292.73 173.362L289.306 177.749L297.254 107.743L303.534 70.8137Z" fill="#1A224A"/>
<path d="M274.459 139.321C269.789 137.295 258.373 132.952 252.647 122.081C247.547 112.378 244.903 77.6789 244.903 77.6789C239.737 50.4297 296.759 40.7495 305.771 66.5657C305.771 66.5657 309.457 111.399 304.561 120.801C299.557 130.408 289.911 136.681 284.971 138.728C282.538 139.737 276.878 140.344 274.459 139.321Z" fill="#FEA394"/>
<path d="M306.135 111.099V91.5047C306.135 86.9132 312.969 84.0106 313.209 91.0075V103.97C313.214 104.906 313.034 105.832 312.681 106.697C312.327 107.563 311.807 108.349 311.15 109.012C310.492 109.674 309.711 110.2 308.85 110.558C307.989 110.916 307.067 111.1 306.135 111.099Z" fill="#FEA394"/>
<path d="M309.676 113.117C311.253 113.117 312.531 111.834 312.531 110.251C312.531 108.668 311.253 107.385 309.676 107.385C308.098 107.385 306.82 108.668 306.82 110.251C306.82 111.834 308.098 113.117 309.676 113.117Z" fill="#FEDAC9"/>
<path d="M309.952 89.7353C310.255 89.759 310.542 89.8766 310.774 90.0719C311.007 90.2672 311.173 90.5303 311.249 90.8247C311.351 91.1988 311.402 91.5848 311.402 91.9726C311.462 93.3789 311.605 94.7803 311.832 96.1693C312.252 94.6786 312.451 93.134 312.422 91.5851C312.419 90.7344 312.1 89.9155 311.526 89.2893C311.224 88.9959 310.821 88.8318 310.4 88.8318C309.98 88.8318 309.577 88.9959 309.275 89.2893C309.006 89.6355 308.883 90.074 308.932 90.5103C309.013 90.2979 309.151 90.1125 309.331 89.9754C309.512 89.8383 309.727 89.7551 309.952 89.7353Z" fill="#1A224A"/>
<path d="M308.306 96.2936C308.29 96.1481 308.31 96.0009 308.363 95.8647C308.416 95.7284 308.502 95.6072 308.612 95.5112C308.729 95.449 308.862 95.4254 308.993 95.4438C309.124 95.4622 309.245 95.5216 309.341 95.6136C309.522 95.7956 309.646 96.0269 309.697 96.2789C309.834 96.7696 309.852 97.2862 309.748 97.7851C309.61 98.2183 309.532 98.6685 309.515 99.123C309.694 99.7969 310.025 100.42 310.484 100.944C310.851 101.557 311.034 102.264 311.012 102.98C310.99 103.695 310.764 104.389 310.36 104.979C310.248 105.19 310.075 105.362 309.865 105.474C309.655 105.585 309.417 105.632 309.18 105.608C309.005 105.529 308.85 105.413 308.724 105.268C308.598 105.123 308.505 104.952 308.452 104.767C308.324 104.548 308.246 104.304 308.22 104.052C308.195 103.8 308.224 103.545 308.306 103.305C308.525 102.859 309.035 102.632 309.29 102.194C309.393 101.879 309.417 101.543 309.36 101.217C309.303 100.89 309.166 100.583 308.962 100.322C308.38 99.0646 308.153 97.6713 308.306 96.2936Z" fill="#1A224A"/>
<path d="M297.495 62.4056C294.006 58.9343 289.873 56.1843 285.328 54.312L286.057 43.6082C300.059 41.0127 309.217 54.3266 314.783 68.3424L307.104 88.8799L306.834 99.0134L304.241 76.8382C303.653 71.4085 301.28 66.3301 297.495 62.4056Z" fill="#1A224A"/>
<path d="M246.782 95.6721L234.703 80.757C242.2 45.3556 269.716 35.6608 286.057 43.6082L285.328 54.312C268.776 54.97 248.96 72.7145 246.782 95.6721Z" fill="#1A224A"/>
<path d="M269.884 82.1023C270.379 76.0559 256.77 78.6149 256.005 78.9292C254.854 79.4853 253.854 80.3132 253.091 81.342C251.947 82.6726 250.869 84.0618 249.849 85.4875C251.75 84.224 253.734 83.0906 255.787 82.095C259.939 80.0698 265.469 80.7278 269.884 82.1023Z" fill="#1A224A"/>
<path d="M282.378 82.1096C281.234 76.1509 295.003 77.211 295.826 77.4304C297.046 77.8523 298.144 78.5678 299.025 79.5141C300.307 80.7131 301.521 81.9683 302.667 83.2794C300.639 82.2317 298.543 81.3207 296.395 80.5523C292.053 78.995 286.64 80.2598 282.378 82.1096Z" fill="#1A224A"/>
<path d="M259.866 91.0075C261.383 91.0075 262.613 89.7734 262.613 88.2511C262.613 86.7288 261.383 85.4948 259.866 85.4948C258.35 85.4948 257.12 86.7288 257.12 88.2511C257.12 89.7734 258.35 91.0075 259.866 91.0075Z" fill="#1A224A"/>
<path d="M268.594 89.3112C267.61 88.7709 266.572 88.3348 265.498 88.0098C264.507 87.6809 263.467 87.5275 262.424 87.5565C261.616 87.5691 260.822 87.7719 260.107 88.1487C259.839 88.3385 259.595 88.5594 259.378 88.8067C258.873 89.2453 258.335 89.6437 257.768 89.9985C257.429 89.7395 257.168 89.3914 257.014 88.9927C256.859 88.5939 256.818 88.1601 256.894 87.7393C257.105 86.9002 257.589 86.1562 258.271 85.6263C258.92 85.1103 259.695 84.7772 260.515 84.6612C261.241 84.5528 261.98 84.5702 262.7 84.7124C264.009 84.9737 265.26 85.469 266.394 86.1746C267.511 86.8411 268.414 87.8156 268.995 88.9822L268.594 89.3112Z" fill="#1A224A"/>
<path d="M288.075 90.0716C289.592 90.0716 290.821 88.8375 290.821 87.3152C290.821 85.7929 289.592 84.5588 288.075 84.5588C286.558 84.5588 285.328 85.7929 285.328 87.3152C285.328 88.8375 286.558 90.0716 288.075 90.0716Z" fill="#1A224A"/>
<path d="M297.087 87.4468C296.13 86.9646 295.102 86.6435 294.041 86.4964C293.034 86.3129 292.003 86.2931 290.989 86.4379C290.132 86.5602 289.298 86.8065 288.512 87.169C288.28 87.2914 288.061 87.4358 287.856 87.6004C287.351 87.9324 286.907 88.3505 286.545 88.836C286.11 88.6813 285.746 88.374 285.52 87.9708C285.294 87.5676 285.22 87.0958 285.314 86.6426C285.521 85.7534 286.067 84.9814 286.836 84.4931C288.062 83.713 289.521 83.3895 290.96 83.5792C292.242 83.6965 293.495 84.0276 294.668 84.5589C295.868 85.0541 296.856 85.9575 297.458 87.1105L297.087 87.4468Z" fill="#1A224A"/>
<path d="M272.725 107.187C272.026 107.727 271.205 108.086 270.335 108.233C270.003 108.311 269.653 108.264 269.352 108.101C269.222 108.024 269.111 107.918 269.028 107.791C268.944 107.665 268.891 107.521 268.871 107.37C268.833 107.091 268.904 106.809 269.068 106.581C269.265 106.313 269.532 106.105 269.84 105.981C270.072 105.873 270.317 105.795 270.569 105.747C271.088 105.657 271.622 105.699 272.12 105.871C272.555 106.049 272.959 106.296 273.315 106.603C274.003 107.101 274.633 107.675 275.195 108.313C274.357 108.16 273.539 107.915 272.754 107.582C272.166 107.248 271.486 107.114 270.816 107.202C270.588 107.247 270.365 107.318 270.153 107.414C270.172 107.345 270.172 107.271 270.153 107.202C270.143 107.16 270.125 107.121 270.098 107.087C270.072 107.053 270.038 107.025 270 107.005C269.927 107.005 270.073 107.07 270.226 107.078C271.049 107.158 271.843 107.166 272.725 107.187Z" fill="#1A224A"/>
<path d="M278.895 107.794C278.852 107.764 278.819 107.721 278.8 107.672C278.782 107.622 278.78 107.568 278.793 107.516C278.818 107.411 278.862 107.312 278.925 107.224C279.034 107.07 279.136 106.946 279.252 106.807C279.491 106.549 279.757 106.319 280.047 106.12C280.633 105.719 281.295 105.443 281.992 105.308C282.216 105.257 282.447 105.24 282.677 105.257C282.853 105.276 283.024 105.33 283.18 105.417C283.335 105.504 283.471 105.621 283.58 105.762C283.711 105.945 283.782 106.165 283.784 106.39C283.786 106.616 283.711 106.835 283.573 107.012C283.389 107.24 283.131 107.396 282.844 107.451C282.482 107.52 282.11 107.532 281.744 107.487C281.393 107.447 281.051 107.351 280.731 107.202L281.642 106.778C281.913 106.657 282.178 106.523 282.436 106.376C282.516 106.325 282.567 106.237 282.502 106.273C282.436 106.31 282.414 106.551 282.502 106.617C282.589 106.683 282.589 106.69 282.56 106.698C282.466 106.702 282.374 106.717 282.283 106.741C281.708 106.851 281.139 106.99 280.557 107.151C280.265 107.231 279.959 107.312 279.653 107.407L279.187 107.538C279.122 107.553 279.06 107.58 279.005 107.619C278.986 107.622 278.967 107.629 278.951 107.64C278.935 107.651 278.921 107.665 278.911 107.682C278.901 107.699 278.894 107.717 278.891 107.736C278.889 107.756 278.89 107.775 278.895 107.794Z" fill="#1A224A"/>
<path d="M270.816 83.9813C271.583 84.6932 272.282 85.4739 272.907 86.3136C273.588 87.2091 274.016 88.2725 274.146 89.3917C274.246 90.4936 274.104 91.6043 273.73 92.6452C273.391 93.6506 272.9 94.5976 272.273 95.4528C272.317 94.3853 272.499 93.3691 272.608 92.3893C272.737 91.4469 272.762 90.4931 272.681 89.5452C272.572 88.62 272.313 87.7188 271.916 86.8766C271.456 85.9498 271.088 84.9801 270.816 83.9813Z" fill="#1A224A"/>
<path d="M289.328 114.155C283.624 117.723 272.717 119.273 266.642 115.383C268.099 116.327 273.839 113.643 275.209 113.512C276.229 113.417 277.205 114.294 278.211 114.155C278.874 114.06 279.529 113.248 280.163 113.051C281.576 112.605 287.929 114.067 289.328 114.155Z" fill="#D35A4A"/>
<path d="M289.328 114.155C286.538 119.397 285.445 121.349 278.553 121.715C276.18 121.857 273.814 121.341 271.713 120.224C269.612 119.108 267.858 117.433 266.642 115.383C272.717 119.302 283.624 117.723 289.328 114.155Z" fill="#DD665E"/>
<path d="M170.914 177.361L138.247 185.879L137.001 170.723C137.001 163.835 163.17 159.39 166.353 165.992L170.914 177.361Z" fill="#1A224A"/>
<path d="M138.837 88.9238C138.108 84.8002 142.479 83.3891 144.148 87.3811L145.124 90.3934C145.341 91.0109 145.335 91.6851 145.109 92.2992C144.883 92.9134 144.45 93.4289 143.885 93.7566C143.551 93.9345 143.184 94.0438 142.807 94.0783C142.181 94.1246 141.557 93.958 141.036 93.6052C140.515 93.2524 140.128 92.734 139.937 92.1334L138.837 88.9238Z" fill="#7C3AED"/>
<path d="M171.322 118.096C174.178 114.521 180.064 115.683 176.88 120.655L175.205 123.345C174.871 123.908 174.352 124.335 173.737 124.554C173.123 124.773 172.451 124.77 171.839 124.544C171.489 124.403 171.17 124.194 170.899 123.93C170.464 123.477 170.192 122.89 170.127 122.263C170.062 121.636 170.208 121.006 170.542 120.472L171.322 118.096Z" fill="#7C3AED"/>
<path d="M163.337 160.465L163.519 169.443C164.357 180.673 142.734 186.91 141.736 179.679L140.024 170.072L136.236 162.885L130.007 157.036L125.235 140.344C125.085 139.822 125.053 139.273 125.141 138.736C125.23 138.2 125.436 137.69 125.745 137.244C127.511 134.559 129.771 132.236 132.404 130.401C133.861 127.279 135.835 125.056 138.378 123.879C138.043 117.431 140.177 114.564 145.415 116.195L139.267 91.4827C137.955 87.2275 142.443 84.844 144.949 88.8506L153.691 117.014C156.795 124.552 159.847 133.757 163.162 134.254C165.792 133.208 163.774 122.198 171.263 117.73C175.831 115.859 177.682 118.198 176.931 120.794C174.666 126.27 172.363 132.492 172.56 138.1C171.766 146.325 168.211 153.622 163.337 160.465Z" fill="#FEA394"/>
<path d="M154.048 143.313C154.538 144.147 154.709 145.132 154.529 146.084C156.562 149.359 152.905 152.21 149.816 149.461C148.599 149.425 148.074 149.337 147.076 147.999C147.696 148.73 145.954 152.452 141.904 148.73C140.104 148.635 133.213 139.328 133.213 139.328L130.51 142.252L135.886 133.523L145.78 129.48C145.78 129.48 152.752 132.521 156.088 133.018C156.088 133.018 158.521 137.515 158.077 138.56C160.998 144.058 156.096 145.93 154.048 143.313Z" fill="#1A224A"/>
<path d="M128.834 138.429C134.539 130.028 134.575 135.789 143.033 145.009" stroke="#FEA394" stroke-width="9" stroke-linecap="round" stroke-linejoin="round"/>
<path d="M146.61 146.42C147.557 148.789 146.45 150.602 143.914 149.732C143.464 149.574 143.057 149.311 142.727 148.964L140.665 146.866C140.443 146.637 140.273 146.361 140.168 146.059C140.063 145.757 140.025 145.435 140.057 145.117C140.089 144.799 140.19 144.491 140.353 144.216C140.516 143.941 140.737 143.705 141 143.525H141.051C141.54 143.213 142.121 143.079 142.697 143.145C143.272 143.212 143.808 143.475 144.213 143.89L146.61 146.42Z" fill="#7C3AED"/>
<path d="M136.017 130.372C136.957 127.242 139.398 124.632 150.187 144.797" stroke="#FEA394" stroke-width="11" stroke-linecap="round" stroke-linejoin="round"/>
<path d="M153.823 145.17C156.161 148.628 152.781 151.75 149.626 148.782L147.302 146.223C146.92 145.822 146.675 145.31 146.603 144.76C146.531 144.211 146.635 143.652 146.902 143.166C147.136 142.766 147.452 142.42 147.828 142.15C148.205 141.881 148.634 141.694 149.087 141.602C149.527 141.531 149.978 141.575 150.396 141.732C150.814 141.888 151.184 142.151 151.47 142.494L153.823 145.17Z" fill="#7C3AED"/>
<path d="M142.917 119.375C142.917 119.375 148.016 122.534 153.619 138.136" stroke="#FEA394" stroke-width="11" stroke-linecap="round" stroke-linejoin="round"/>
<path d="M158.288 139.24C159.672 143.188 155.615 145.309 153.312 141.653L151.855 138.838C151.541 138.266 151.435 137.602 151.556 136.96C151.677 136.318 152.017 135.739 152.518 135.321C152.82 135.093 153.161 134.922 153.524 134.817C154.137 134.669 154.781 134.733 155.354 134.999C155.926 135.264 156.393 135.715 156.678 136.279L158.288 139.24Z" fill="#7C3AED"/>
<path d="M166.353 165.992C163.905 171.681 143.492 176.228 137.001 169.977L146.945 303.145H221.386L166.353 165.992Z" fill="#7BC5DC"/>
<path d="M202.204 266.969L181.623 204.048L200.448 251.315L202.983 238.996L202.204 266.969Z" fill="#1A224A"/>
<g filter="url(#filter1_b_7289_29798)">
<path d="M348.936 318.601C383.577 316.978 420.899 304.059 455.541 279.851V194.58C420.899 218.495 383.577 231.136 348.936 232.43V318.601Z" fill="url(#paint2_linear_7289_29798)"/>
</g>
<path d="M448.634 212.521C418.597 231.809 386.848 242.768 356.782 245.422" stroke="white" stroke-width="2" stroke-miterlimit="10" stroke-linecap="round"/>
<path d="M445.582 207.857C445.582 208.954 446.31 209.392 447.192 208.829C447.668 208.482 448.06 208.031 448.338 207.511C448.617 206.991 448.776 206.414 448.802 205.824C448.802 204.728 448.073 204.304 447.192 204.867C446.717 205.211 446.325 205.659 446.046 206.177C445.768 206.695 445.609 207.269 445.582 207.857Z" fill="white"/>
<path d="M441.437 210.372C441.437 211.469 442.165 211.929 443.054 211.388C443.533 211.052 443.928 210.609 444.209 210.094C444.489 209.579 444.648 209.006 444.671 208.42C444.671 207.323 443.943 206.877 443.054 207.418C442.575 207.752 442.18 208.192 441.9 208.705C441.619 209.217 441.461 209.788 441.437 210.372Z" fill="white"/>
<path d="M437.269 212.785C437.269 213.881 437.998 214.357 438.894 213.838C439.377 213.515 439.777 213.082 440.059 212.573C440.342 212.064 440.499 211.495 440.518 210.913C440.518 209.816 439.79 209.356 438.894 209.875C438.412 210.196 438.014 210.627 437.732 211.133C437.449 211.639 437.291 212.205 437.269 212.785Z" fill="white"/>
<path d="M448.634 229.14C438.49 235.692 427.847 241.432 416.805 246.307" stroke="white" stroke-width="2" stroke-miterlimit="10" stroke-linecap="round"/>
<path d="M448.634 235.53C432.499 246.016 415.075 254.355 396.8 260.338" stroke="white" stroke-width="2" stroke-miterlimit="10" stroke-linecap="round"/>
<path d="M448.634 241.913C434.19 251.294 418.719 258.978 402.526 264.812" stroke="white" stroke-width="2" stroke-miterlimit="10" stroke-linecap="round"/>
<path d="M448.634 248.296C438.764 254.687 428.421 260.309 417.694 265.112" stroke="white" stroke-width="2" stroke-miterlimit="10" stroke-linecap="round"/>
<path d="M448.634 254.686C432.867 264.959 415.869 273.191 398.045 279.186" stroke="white" stroke-width="2" stroke-miterlimit="10" stroke-linecap="round"/>
<path d="M448.634 261.069C442.597 264.968 436.497 268.541 430.334 271.787" stroke="white" stroke-width="2" stroke-miterlimit="10" stroke-linecap="round"/>
<path d="M356.782 297.304C367.439 296.293 377.986 294.335 388.298 291.455V253.553C377.981 256.39 367.435 258.306 356.782 259.278V297.304Z" stroke="white" stroke-width="2" stroke-miterlimit="10" stroke-linecap="round"/>
<path d="M388.298 278.528C386.629 277.066 383.883 277.797 382.302 280.21C381.246 281.818 380.685 284.048 379.213 284.947C377.523 285.978 375.942 284.509 374.325 283.953C373.355 283.684 372.332 283.678 371.36 283.934C370.387 284.191 369.5 284.702 368.788 285.415C367.783 286.351 366.952 287.609 365.816 288.238C363.739 289.334 361.372 287.053 361.772 284.421C361.903 283.602 362.238 282.813 362.326 281.986C362.373 281.203 362.224 280.421 361.892 279.71C361.56 279 361.055 278.385 360.424 277.921C359.303 277.022 357.984 276.496 356.891 275.531" stroke="white" stroke-width="2" stroke-miterlimit="10" stroke-linecap="round"/>
<path d="M388.203 265.002C387.3 267.773 385.704 269.966 383.438 270.953C382.964 271.215 382.432 271.351 381.89 271.351C381.349 271.351 380.817 271.215 380.342 270.953C379.878 270.561 379.559 270.023 379.437 269.425C379.315 268.828 379.398 268.207 379.672 267.663C380.175 266.625 381.326 265.616 381.02 264.644C380.951 264.456 380.822 264.295 380.654 264.187C380.485 264.079 380.287 264.029 380.087 264.044C379.249 264.044 378.419 264.695 377.581 265.075C376.743 265.455 375.672 265.419 375.396 264.498C375.338 264.12 375.306 263.739 375.301 263.357C375.282 263.032 375.169 262.721 374.974 262.46C374.78 262.2 374.513 262.004 374.208 261.895C373.78 261.82 373.345 261.793 372.911 261.814C371.228 261.697 369.997 259.679 370.34 257.596" stroke="white" stroke-width="2" stroke-miterlimit="10" stroke-linecap="round"/>
<g filter="url(#filter2_b_7289_29798)">
<path d="M137.292 319.025C179.022 332.632 223.972 332.632 265.702 319.025V233.271C223.972 246.877 179.022 246.877 137.292 233.271V319.025Z" fill="url(#paint3_linear_7289_29798)"/>
</g>
<path d="M257.324 249.224C221.146 259.349 182.909 259.44 146.683 249.488" stroke="white" stroke-width="2" stroke-miterlimit="10" stroke-linecap="round"/>
<path d="M253.616 243.609C253.601 243.852 253.646 244.095 253.748 244.316C253.85 244.537 254.006 244.728 254.2 244.874C254.395 245.019 254.623 245.113 254.863 245.148C255.103 245.182 255.348 245.156 255.575 245.072C256.12 244.902 256.6 244.569 256.95 244.116C257.299 243.663 257.501 243.114 257.528 242.542C257.542 242.3 257.497 242.058 257.395 241.838C257.293 241.618 257.138 241.427 256.945 241.282C256.751 241.137 256.525 241.042 256.286 241.007C256.046 240.972 255.802 240.997 255.575 241.08C255.027 241.244 254.543 241.576 254.192 242.029C253.84 242.483 253.639 243.035 253.616 243.609Z" fill="white"/>
<path d="M248.574 244.852C248.561 245.097 248.608 245.341 248.71 245.564C248.812 245.787 248.966 245.981 249.16 246.131C249.353 246.28 249.58 246.381 249.821 246.423C250.062 246.465 250.309 246.448 250.541 246.373C251.088 246.221 251.572 245.899 251.926 245.454C252.279 245.009 252.483 244.463 252.508 243.894C252.522 243.65 252.476 243.405 252.374 243.183C252.272 242.96 252.117 242.766 251.923 242.617C251.729 242.469 251.502 242.37 251.261 242.33C251.02 242.29 250.773 242.31 250.541 242.388C249.996 242.537 249.511 242.855 249.157 243.298C248.804 243.741 248.6 244.285 248.574 244.852Z" fill="white"/>
<path d="M243.518 245.963C243.507 246.21 243.554 246.456 243.655 246.681C243.757 246.906 243.911 247.104 244.104 247.257C244.297 247.411 244.523 247.516 244.765 247.565C245.006 247.613 245.256 247.603 245.493 247.535C246.039 247.4 246.527 247.09 246.883 246.652C247.239 246.214 247.444 245.673 247.467 245.108C247.478 244.862 247.43 244.617 247.328 244.393C247.225 244.169 247.071 243.973 246.878 243.82C246.685 243.668 246.459 243.564 246.218 243.517C245.977 243.47 245.728 243.482 245.493 243.551C244.948 243.685 244.461 243.992 244.105 244.427C243.749 244.862 243.543 245.401 243.518 245.963Z" fill="white"/>
<path d="M257.324 265.938C244.712 269.464 231.796 271.787 218.749 272.876" stroke="white" stroke-width="2" stroke-miterlimit="10" stroke-linecap="round"/>
<path d="M257.324 272.35C236.944 278.052 215.816 280.597 194.671 279.895" stroke="white" stroke-width="2" stroke-miterlimit="10" stroke-linecap="round"/>
<path d="M257.324 278.769C239.158 283.855 220.386 286.433 201.526 286.432" stroke="white" stroke-width="2" stroke-miterlimit="10" stroke-linecap="round"/>
<path d="M257.324 285.189C245.058 288.62 232.504 290.914 219.819 292.039" stroke="white" stroke-width="2" stroke-miterlimit="10" stroke-linecap="round"/>
<path d="M257.324 291.608C237.414 297.175 216.789 299.733 196.128 299.197" stroke="white" stroke-width="2" stroke-miterlimit="10" stroke-linecap="round"/>
<path d="M257.324 298.027C250.014 300.068 242.599 301.708 235.111 302.941" stroke="white" stroke-width="2" stroke-miterlimit="10" stroke-linecap="round"/>
<path d="M146.683 301.193C159.025 304.586 171.653 306.826 184.406 307.883V270.01C171.653 268.953 159.025 266.714 146.683 263.321V301.193Z" stroke="white" stroke-width="2" stroke-miterlimit="10" stroke-linecap="round"/>
<path d="M184.406 294.949C182.41 292.88 179.117 292.58 177.215 294.357C175.94 295.549 175.27 297.567 173.507 297.896C171.482 298.276 169.588 296.192 167.679 294.971C166.709 294.34 165.604 293.944 164.454 293.817C163.304 293.691 162.141 293.835 161.057 294.24C159.855 294.767 158.871 295.702 157.502 295.849C155.025 296.105 152.191 292.851 152.671 290.402C152.824 289.671 153.225 288.991 153.327 288.208C153.538 286.578 152.402 284.728 151.061 283.376C149.721 282.023 148.147 280.948 146.843 279.53" stroke="white" stroke-width="2" stroke-miterlimit="10" stroke-linecap="round"/>
<path d="M184.297 281.402C183.211 283.829 181.295 285.416 178.578 285.547C177.236 285.661 175.902 285.243 174.862 284.385C173.835 283.456 173.354 281.826 174.061 280.839C174.665 279.991 176.05 279.428 175.671 278.338C175.569 278.106 175.417 277.899 175.225 277.734C175.034 277.568 174.808 277.447 174.563 277.38C173.558 277.066 172.56 277.38 171.555 277.446C170.549 277.512 169.267 277.051 168.954 276.028C168.883 275.642 168.844 275.25 168.837 274.858C168.775 274.464 168.626 274.088 168.4 273.759C168.174 273.43 167.878 273.156 167.533 272.957C167.032 272.725 166.513 272.532 165.981 272.379C163.963 271.597 162.506 269.104 162.9 267.145" stroke="white" stroke-width="2" stroke-miterlimit="10" stroke-linecap="round"/>
<g filter="url(#filter3_b_7289_29798)">
<path d="M52.5359 177.924C92.8742 207.17 140.607 215.797 180.945 203.792V113.453C140.607 126.986 92.8524 119.872 52.5359 92.1699V177.924Z" fill="url(#paint4_linear_7289_29798)"/>
</g>
<path d="M172.349 130.108C136.877 139.036 96.7064 132.748 61.22 111.245" stroke="white" stroke-width="2" stroke-miterlimit="10" stroke-linecap="round"/>
<path d="M168.546 124.025C168.529 124.279 168.574 124.533 168.675 124.766C168.777 124.999 168.933 125.204 169.13 125.364C169.327 125.524 169.559 125.634 169.808 125.685C170.056 125.735 170.313 125.726 170.557 125.656C171.122 125.495 171.622 125.157 171.984 124.692C172.345 124.226 172.55 123.657 172.567 123.068C172.583 122.815 172.538 122.563 172.435 122.332C172.332 122.102 172.175 121.899 171.978 121.743C171.78 121.586 171.548 121.48 171.3 121.433C171.053 121.386 170.798 121.4 170.557 121.474C169.995 121.63 169.498 121.961 169.136 122.42C168.775 122.879 168.568 123.441 168.546 124.025Z" fill="white"/>
<path d="M163.366 125.071C163.351 125.328 163.396 125.585 163.498 125.822C163.6 126.058 163.755 126.268 163.952 126.433C164.149 126.599 164.382 126.716 164.631 126.775C164.881 126.834 165.142 126.834 165.391 126.774C165.955 126.639 166.459 126.321 166.824 125.868C167.189 125.416 167.395 124.856 167.409 124.274C167.422 124.019 167.376 123.765 167.273 123.531C167.171 123.297 167.015 123.091 166.819 122.928C166.623 122.765 166.392 122.651 166.144 122.594C165.896 122.537 165.638 122.539 165.391 122.6C164.828 122.728 164.324 123.04 163.957 123.487C163.59 123.935 163.383 124.492 163.366 125.071Z" fill="white"/>
<path d="M158.15 125.897C158.139 126.158 158.187 126.417 158.29 126.656C158.392 126.896 158.547 127.109 158.743 127.28C158.939 127.452 159.171 127.577 159.421 127.646C159.671 127.715 159.934 127.727 160.19 127.681C160.752 127.573 161.261 127.274 161.631 126.835C162 126.396 162.209 125.843 162.222 125.268C162.234 125.009 162.187 124.751 162.084 124.513C161.982 124.276 161.827 124.064 161.631 123.895C161.435 123.726 161.204 123.604 160.954 123.538C160.704 123.472 160.443 123.463 160.19 123.514C159.629 123.616 159.12 123.908 158.749 124.342C158.377 124.776 158.166 125.325 158.15 125.897Z" fill="white"/>
<path d="M172.349 147.612C159.353 150.749 145.962 151.912 132.623 151.063" stroke="white" stroke-width="2" stroke-miterlimit="10" stroke-linecap="round"/>
<path d="M172.349 154.345C151.877 159.295 129.839 159.178 108.049 153.995" stroke="white" stroke-width="2" stroke-miterlimit="10" stroke-linecap="round"/>
<path d="M172.349 161.086C153.522 165.462 133.986 165.796 115.021 162.066" stroke="white" stroke-width="2" stroke-miterlimit="10" stroke-linecap="round"/>
<path d="M172.349 167.82C159.703 170.771 146.694 171.85 133.737 171.023" stroke="white" stroke-width="2" stroke-miterlimit="10" stroke-linecap="round"/>
<path d="M172.349 174.554C152.351 179.226 130.823 179.058 109.557 174.057" stroke="white" stroke-width="2" stroke-miterlimit="10" stroke-linecap="round"/>
<path d="M172.349 181.288C164.831 183.013 157.176 184.065 149.473 184.431" stroke="white" stroke-width="2" stroke-miterlimit="10" stroke-linecap="round"/>
<path d="M61.22 163.097C72.6598 170.312 84.9433 176.083 97.7919 180.279V141.682C84.9605 137.696 72.675 132.118 61.22 125.078V163.097Z" stroke="white" stroke-width="2" stroke-miterlimit="10" stroke-linecap="round"/>
<path d="M97.7916 167.111C95.7955 164.545 92.5244 163.455 90.6521 164.779C89.399 165.678 88.7361 167.55 87.0095 167.433C85.0206 167.294 83.1629 164.691 81.276 162.958C79.2216 161.086 76.73 160.092 74.8577 160.406C73.6994 160.597 72.745 161.269 71.4409 161.013C69.0732 160.553 66.385 156.429 66.844 154.111C66.9897 153.38 67.3758 152.854 67.4705 152.086C67.6745 150.507 66.589 148.321 65.2849 146.559C63.9809 144.797 62.5384 143.247 61.3145 141.441" stroke="white" stroke-width="2" stroke-miterlimit="10" stroke-linecap="round"/>
<path d="M97.6825 153.278C97.2405 154.365 96.422 155.255 95.3779 155.784C94.3337 156.314 93.1341 156.447 92 156.159C90.5863 155.887 89.3039 155.149 88.3574 154.06C87.3448 152.869 86.9004 151.092 87.5633 150.266C88.1534 149.535 89.5231 149.323 89.1515 148.124C88.9466 147.592 88.559 147.151 88.0587 146.881C87.0679 146.31 86.0917 146.398 85.1446 146.193C84.5775 146.091 84.0461 145.844 83.601 145.477C83.1559 145.109 82.812 144.634 82.6021 144.095C82.5311 143.692 82.4922 143.283 82.4855 142.874C82.3385 141.994 81.887 141.194 81.2106 140.615C80.7091 140.249 80.1861 139.915 79.6443 139.613C77.6845 138.297 76.2785 135.38 76.6573 133.516" stroke="white" stroke-width="2" stroke-miterlimit="10" stroke-linecap="round"/>
<path d="M62.9828 104.899C73.3273 104.899 81.7131 96.4831 81.7131 86.1016C81.7131 75.7201 73.3273 67.3042 62.9828 67.3042C52.6383 67.3042 44.2524 75.7201 44.2524 86.1016C44.2524 96.4831 52.6383 104.899 62.9828 104.899Z" fill="#7BC5DC"/>
<path d="M55.5156 87.5053L62.2035 92.265L72.8691 78.3369" stroke="white" stroke-width="3" stroke-linecap="round" stroke-linejoin="round"/>
<path d="M350.466 108.226C351.705 108.226 352.709 107.217 352.709 105.974C352.709 104.73 351.705 103.722 350.466 103.722C349.226 103.722 348.222 104.73 348.222 105.974C348.222 107.217 349.226 108.226 350.466 108.226Z" fill="#D0CFEC"/>
<path d="M377.326 73.4018C378.566 73.4018 379.57 72.3936 379.57 71.15C379.57 69.9063 378.566 68.8981 377.326 68.8981C376.087 68.8981 375.083 69.9063 375.083 71.15C375.083 72.3936 376.087 73.4018 377.326 73.4018Z" fill="#D0CFEC"/>
<path d="M351.974 52.4768L344.747 42.5992L356.789 44.6172L364.009 54.4948L351.974 52.4768Z" fill="#FEDAC9"/>
<path opacity="0.6" d="M351.974 52.4768L344.747 42.5992L356.789 44.6172L364.009 54.4948L351.974 52.4768Z" fill="#FFFEFD"/>
<path d="M343.814 65.7834L336.595 55.9131L344.747 42.5992L351.974 52.4768L343.814 65.7834Z" fill="#FEDAC9"/>
<path d="M343.814 65.7834L355.849 67.8013L364.009 54.4947L351.974 52.4768L343.814 65.7834Z" fill="#FEDAC9"/>
<path opacity="0.1" d="M343.814 65.7834L355.849 67.8013L364.009 54.4947L351.974 52.4768L343.814 65.7834Z" fill="#1A224A"/>
<path d="M395.7 179.394C396.939 179.394 397.944 178.386 397.944 177.142C397.944 175.898 396.939 174.89 395.7 174.89C394.46 174.89 393.456 175.898 393.456 177.142C393.456 178.386 394.46 179.394 395.7 179.394Z" fill="#D0CFEC"/>
<path d="M407.174 187.327C408.079 187.327 408.813 186.59 408.813 185.682C408.813 184.773 408.079 184.037 407.174 184.037C406.269 184.037 405.535 184.773 405.535 185.682C405.535 186.59 406.269 187.327 407.174 187.327Z" fill="#D0CFEC"/>
<path d="M403.786 174.898C405.661 174.898 407.181 173.372 407.181 171.49C407.181 169.609 405.661 168.083 403.786 168.083C401.911 168.083 400.391 169.609 400.391 171.49C400.391 173.372 401.911 174.898 403.786 174.898Z" fill="#D0CFEC"/>
<path d="M133.628 63.6046C134.867 63.6046 135.872 62.5964 135.872 61.3527C135.872 60.109 134.867 59.1008 133.628 59.1008C132.389 59.1008 131.384 60.109 131.384 61.3527C131.384 62.5964 132.389 63.6046 133.628 63.6046Z" fill="#D0CFEC"/>
<path d="M126.35 50.6636C127.255 50.6636 127.989 49.9271 127.989 49.0186C127.989 48.11 127.255 47.3735 126.35 47.3735C125.445 47.3735 124.711 48.11 124.711 49.0186C124.711 49.9271 125.445 50.6636 126.35 50.6636Z" fill="#D0CFEC"/>
<path d="M123.989 66.8289C125.864 66.8289 127.384 65.3035 127.384 63.4218C127.384 61.5402 125.864 60.0148 123.989 60.0148C122.114 60.0148 120.594 61.5402 120.594 63.4218C120.594 65.3035 122.114 66.8289 123.989 66.8289Z" fill="#D0CFEC"/>
<path d="M116.741 228.548C117.98 228.548 118.985 227.54 118.985 226.296C118.985 225.052 117.98 224.044 116.741 224.044C115.501 224.044 114.497 225.052 114.497 226.296C114.497 227.54 115.501 228.548 116.741 228.548Z" fill="#7C3AED"/>
<path d="M54.7797 230.793C56.019 230.793 57.0236 229.784 57.0236 228.541C57.0236 227.297 56.019 226.289 54.7797 226.289C53.5405 226.289 52.5359 227.297 52.5359 228.541C52.5359 229.784 53.5405 230.793 54.7797 230.793Z" fill="#7C3AED"/>
<path d="M113.397 282.842C115.272 282.842 116.792 281.316 116.792 279.435C116.792 277.553 115.272 276.028 113.397 276.028C111.522 276.028 110.002 277.553 110.002 279.435C110.002 281.316 111.522 282.842 113.397 282.842Z" fill="#7C3AED"/>
<path d="M92.2258 249.29L80.0886 250.577L87.8911 241.153L100.028 239.873L92.2258 249.29Z" fill="#FEDAC9"/>
<path opacity="0.6" d="M92.2258 249.29L80.0886 250.577L87.8911 241.153L100.028 239.873L92.2258 249.29Z" fill="#FFFEFD"/>
<path d="M99.5693 263.072L87.4321 264.351L80.0886 250.577L92.2258 249.29L99.5693 263.072Z" fill="#FEDAC9"/>
<path d="M99.5694 263.072L107.372 253.648L100.028 239.873L92.2258 249.29L99.5694 263.072Z" fill="#FEDAC9"/>
<path opacity="0.1" d="M99.5694 263.072L107.372 253.648L100.028 239.873L92.2258 249.29L99.5694 263.072Z" fill="#1A224A"/>
<path d="M297.517 311.568C298.756 311.568 299.76 310.56 299.76 309.316C299.76 308.072 298.756 307.064 297.517 307.064C296.277 307.064 295.273 308.072 295.273 309.316C295.273 310.56 296.277 311.568 297.517 311.568Z" fill="#7C3AED"/>
<path d="M295.273 292.354C296.178 292.354 296.912 291.617 296.912 290.709C296.912 289.8 296.178 289.064 295.273 289.064C294.367 289.064 293.634 289.8 293.634 290.709C293.634 291.617 294.367 292.354 295.273 292.354Z" fill="#7C3AED"/>
<path d="M312.597 313.878C314.472 313.878 315.992 312.353 315.992 310.471C315.992 308.59 314.472 307.064 312.597 307.064C310.722 307.064 309.202 308.59 309.202 310.471C309.202 312.353 310.722 313.878 312.597 313.878Z" fill="#7C3AED"/>
<path d="M308.262 305.521C310.137 305.521 311.657 303.996 311.657 302.114C311.657 300.233 310.137 298.707 308.262 298.707C306.387 298.707 304.867 300.233 304.867 302.114C304.867 303.996 306.387 305.521 308.262 305.521Z" fill="#7C3AED"/>
<defs>
<filter id="filter0_b_7289_29798" x="378.688" y="76.5885" width="82.426" height="113.086" filterUnits="userSpaceOnUse" color-interpolation-filters="sRGB">
<feFlood flood-opacity="0" result="BackgroundImageFix"/>
<feGaussianBlur in="BackgroundImageFix" stdDeviation="2"/>
<feComposite in2="SourceAlpha" operator="in" result="effect1_backgroundBlur_7289_29798"/>
<feBlend mode="normal" in="SourceGraphic" in2="effect1_backgroundBlur_7289_29798" result="shape"/>
</filter>
<filter id="filter1_b_7289_29798" x="324.936" y="170.58" width="154.605" height="172.022" filterUnits="userSpaceOnUse" color-interpolation-filters="sRGB">
<feFlood flood-opacity="0" result="BackgroundImageFix"/>
<feGaussianBlur in="BackgroundImageFix" stdDeviation="12"/>
<feComposite in2="SourceAlpha" operator="in" result="effect1_backgroundBlur_7289_29798"/>
<feBlend mode="normal" in="SourceGraphic" in2="effect1_backgroundBlur_7289_29798" result="shape"/>
</filter>
<filter id="filter2_b_7289_29798" x="113.292" y="209.271" width="176.41" height="143.959" filterUnits="userSpaceOnUse" color-interpolation-filters="sRGB">
<feFlood flood-opacity="0" result="BackgroundImageFix"/>
<feGaussianBlur in="BackgroundImageFix" stdDeviation="12"/>
<feComposite in2="SourceAlpha" operator="in" result="effect1_backgroundBlur_7289_29798"/>
<feBlend mode="normal" in="SourceGraphic" in2="effect1_backgroundBlur_7289_29798" result="shape"/>
</filter>
<filter id="filter3_b_7289_29798" x="48.5359" y="88.1699" width="136.41" height="124.861" filterUnits="userSpaceOnUse" color-interpolation-filters="sRGB">
<feFlood flood-opacity="0" result="BackgroundImageFix"/>
<feGaussianBlur in="BackgroundImageFix" stdDeviation="2"/>
<feComposite in2="SourceAlpha" operator="in" result="effect1_backgroundBlur_7289_29798"/>
<feBlend mode="normal" in="SourceGraphic" in2="effect1_backgroundBlur_7289_29798" result="shape"/>
</filter>
<linearGradient id="paint0_linear_7289_29798" x1="240.888" y1="118.308" x2="230.889" y2="55.7634" gradientUnits="userSpaceOnUse">
<stop stop-color="#ABC9DA"/>
<stop offset="1" stop-color="#DEE1F0" stop-opacity="0.8"/>
</linearGradient>
<linearGradient id="paint1_linear_7289_29798" x1="430.02" y1="183.152" x2="413.86" y2="97.1334" gradientUnits="userSpaceOnUse">
<stop stop-color="#ABC9DA"/>
<stop offset="1" stop-color="#E7DCD1" stop-opacity="0.7"/>
</linearGradient>
<linearGradient id="paint2_linear_7289_29798" x1="448.5" y1="297" x2="374.213" y2="228.769" gradientUnits="userSpaceOnUse">
<stop stop-color="#E7DCD1"/>
<stop offset="1" stop-color="#ABC9DA" stop-opacity="0.7"/>
</linearGradient>
<linearGradient id="paint3_linear_7289_29798" x1="176.822" y1="334.24" x2="213.117" y2="249.493" gradientUnits="userSpaceOnUse">
<stop stop-color="#F2E5D9"/>
<stop offset="1" stop-color="#BFDCED" stop-opacity="0.72"/>
</linearGradient>
<linearGradient id="paint4_linear_7289_29798" x1="112" y1="209" x2="149.623" y2="115.049" gradientUnits="userSpaceOnUse">
<stop stop-color="#BFDCED"/>
<stop offset="1" stop-color="#E8DDD3" stop-opacity="0.72"/>
</linearGradient>
</defs>
</svg>
