<svg width="488" height="298" viewBox="0 0 488 298" fill="none" xmlns="http://www.w3.org/2000/svg">
<path d="M295.925 146.853C296.003 146.712 295.721 146.614 295.637 146.748C295.552 146.881 295.637 147.05 295.686 147.191C296.132 148.071 296.752 148.851 297.509 149.485C298.265 150.118 299.142 150.592 300.087 150.878C301.039 151.147 302.043 151.167 303.005 150.936C303.967 150.706 304.853 150.233 305.579 149.562C306.282 148.869 306.755 147.977 306.934 147.007C307.113 146.036 306.989 145.035 306.579 144.137C306.439 143.78 306.199 143.472 305.888 143.247C305.577 143.023 305.209 142.892 304.826 142.87C303.777 142.94 303.256 144.214 303.298 145.27C303.35 146.227 303.657 147.153 304.187 147.952C304.717 148.751 305.45 149.394 306.312 149.816C307.929 150.493 309.74 150.548 311.396 149.97C313.034 149.389 314.595 148.609 316.043 147.648" stroke="#F6AE2D" stroke-width="3" stroke-miterlimit="10"/>
<path d="M391.713 55.8283C394.039 54.6825 395.992 52.9013 397.346 50.6912C397.989 49.7316 398.356 48.6146 398.409 47.4612C398.426 46.8841 398.279 46.314 397.987 45.8162C397.694 45.3185 397.267 44.913 396.755 44.6464C395.262 43.999 393.396 45.2023 393.065 46.7927C392.953 47.6014 393.085 48.4249 393.442 49.159C393.799 49.8931 394.366 50.5048 395.072 50.9164C396.505 51.7186 398.162 52.03 399.79 51.8031C403.31 51.4723 407.036 49.2205 407.697 45.702" stroke="#F6AE2D" stroke-width="3" stroke-miterlimit="10"/>
<path d="M271.899 95.6299C273.519 95.7636 275.279 96.1084 276.293 97.3751C277.188 98.501 277.265 100.07 277.075 101.492C276.77 102.88 276.591 104.293 276.54 105.714C276.623 106.967 277.066 108.17 277.815 109.178C278.564 110.187 279.588 110.958 280.765 111.4C283.194 112.28 285.962 111.625 288.433 112.385" stroke="#7BE0AD" stroke-width="3" stroke-miterlimit="10"/>
<path d="M56.84 63.3585C58.516 59.2419 59.572 54.8998 59.9736 50.4736C60.1355 48.7073 60.1848 46.8425 59.4313 45.231C58.6779 43.6195 56.9245 42.3458 55.2064 42.7118C53.0939 43.1551 52.0587 45.9629 53.0375 47.8981C54.0163 49.8333 56.4175 50.7129 58.5652 50.4455C60.7081 50.0337 62.6612 48.9431 64.1352 47.3351C65.6703 45.8081 66.9518 44.0277 68.3602 42.4092" stroke="#7BE0AD" stroke-width="3" stroke-miterlimit="10"/>
<path d="M17.3006 175.557C19.9204 171.554 21.3691 166.899 21.4834 162.116C21.4834 160.709 21.3918 159.154 20.5468 158C19.7018 156.846 17.871 156.29 16.7866 157.205C16.3506 157.641 16.0832 158.217 16.0316 158.831C15.98 159.446 16.1477 160.059 16.5049 160.561C17.2641 161.548 18.3731 162.205 19.6033 162.398C23.4058 163.2 27.2294 161.427 30.708 159.696" stroke="#7BE0AD" stroke-width="3" stroke-miterlimit="10"/>
<path d="M18.9766 226.878C19.7649 225.482 21.0137 224.402 22.5097 223.823C24.0058 223.245 25.6565 223.203 27.1801 223.704C29.694 224.612 31.4473 226.92 33.8415 228.103C35.2394 228.761 36.7912 229.024 38.3283 228.863C39.8653 228.702 41.3287 228.122 42.5591 227.188" stroke="#F6AE2D" stroke-width="3" stroke-miterlimit="10"/>
<path d="M69.3242 180.236C71.0424 178.92 73.5492 179.251 75.5068 180.109C77.4644 180.968 79.2882 182.284 81.3795 182.84C82.943 183.231 84.5842 183.187 86.1239 182.71C87.6636 182.234 89.0429 181.344 90.1112 180.137" fill="white"/>
<path d="M69.3242 180.236C71.0424 178.92 73.5492 179.251 75.5068 180.109C77.4644 180.968 79.2882 182.284 81.3795 182.84C82.943 183.231 84.5842 183.187 86.1239 182.71C87.6636 182.234 89.0429 181.344 90.1112 180.137" stroke="#7C3AED" stroke-width="3" stroke-miterlimit="10"/>
<path d="M110.602 148.5C109.337 148.626 108.067 148.31 107.009 147.606C105.951 146.901 105.17 145.852 104.8 144.636C103.934 141.484 106.046 138.38 107.842 135.65C109.638 132.92 111.25 129.317 109.504 126.544" stroke="#7BE0AD" stroke-width="3" stroke-miterlimit="10"/>
<path d="M134.136 10.1371C136.178 12.2482 138.276 14.3593 140.889 15.6893C143.501 17.0193 146.74 17.4486 149.339 16.0905C151.937 14.7323 153.444 11.256 152.057 8.68043C150.712 8.3708 149.388 9.56007 149.057 10.8971C148.837 12.2682 149.028 13.6736 149.606 14.9364C150.916 18.5535 152.748 21.9601 155.042 25.0486" stroke="#FEDAC9" stroke-width="3" stroke-miterlimit="10"/>
<path d="M286.701 20.3968C286.032 5.95677 302.897 12.2831 303.918 3.19824" stroke="#7BE0AD" stroke-width="3" stroke-miterlimit="10"/>
<path d="M94.5609 65.0539C97.6877 65.0539 100.222 62.5208 100.222 59.3961C100.222 56.2714 97.6877 53.7383 94.5609 53.7383C91.4342 53.7383 88.8994 56.2714 88.8994 59.3961C88.8994 62.5208 91.4342 65.0539 94.5609 65.0539Z" fill="#F6AE2D"/>
<path d="M316.472 107.037C319.599 107.037 322.134 104.504 322.134 101.379C322.134 98.2548 319.599 95.7217 316.472 95.7217C313.345 95.7217 310.811 98.2548 310.811 101.379C310.811 104.504 313.345 107.037 316.472 107.037Z" fill="#FEDAC9"/>
<path d="M59.3597 202.656C62.4865 202.656 65.0212 200.123 65.0212 196.999C65.0212 193.874 62.4865 191.341 59.3597 191.341C56.233 191.341 53.6982 193.874 53.6982 196.999C53.6982 200.123 56.233 202.656 59.3597 202.656Z" fill="#7BE0AD"/>
<path d="M11.5961 127.782C14.7228 127.782 17.2576 125.249 17.2576 122.125C17.2576 119 14.7228 116.467 11.5961 116.467C8.46931 116.467 5.93457 119 5.93457 122.125C5.93457 125.249 8.46931 127.782 11.5961 127.782Z" fill="#FEDAC9"/>
<path d="M84.8229 166.493C86.3863 166.493 87.6537 165.226 87.6537 163.664C87.6537 162.101 86.3863 160.835 84.8229 160.835C83.2596 160.835 81.9922 162.101 81.9922 163.664C81.9922 165.226 83.2596 166.493 84.8229 166.493Z" fill="#F6AE2D"/>
<path d="M3.10419 213.177C4.66757 213.177 5.93493 211.911 5.93493 210.348C5.93493 208.786 4.66757 207.52 3.10419 207.52C1.54081 207.52 0.273438 208.786 0.273438 210.348C0.273438 211.911 1.54081 213.177 3.10419 213.177Z" fill="#F6AE2D"/>
<path d="M43.7136 138.007C45.2769 138.007 46.5443 136.741 46.5443 135.179C46.5443 133.616 45.2769 132.35 43.7136 132.35C42.1502 132.35 40.8828 133.616 40.8828 135.179C40.8828 136.741 42.1502 138.007 43.7136 138.007Z" fill="#F6AE2D"/>
<path d="M133.114 123.49C134.677 123.49 135.945 122.223 135.945 120.661C135.945 119.099 134.677 117.832 133.114 117.832C131.551 117.832 130.283 119.099 130.283 120.661C130.283 122.223 131.551 123.49 133.114 123.49Z" fill="#F6AE2D"/>
<path d="M46.5446 62.8658C48.108 62.8658 49.3754 61.5993 49.3754 60.0369C49.3754 58.4745 48.108 57.208 46.5446 57.208C44.9812 57.208 43.7139 58.4745 43.7139 60.0369C43.7139 61.5993 44.9812 62.8658 46.5446 62.8658Z" fill="#F6AE2D"/>
<path d="M135.945 50.7125C137.508 50.7125 138.776 49.4459 138.776 47.8836C138.776 46.3212 137.508 45.0547 135.945 45.0547C134.382 45.0547 133.114 46.3212 133.114 47.8836C133.114 49.4459 134.382 50.7125 135.945 50.7125Z" fill="#7C3AED"/>
<path d="M265.371 6.49178C266.934 6.49178 268.202 5.22524 268.202 3.66288C268.202 2.10052 266.934 0.833984 265.371 0.833984C263.807 0.833984 262.54 2.10052 262.54 3.66288C262.54 5.22524 263.807 6.49178 265.371 6.49178Z" fill="#F6AE2D"/>
<path d="M360.602 80.2545C362.166 80.2545 363.433 78.9879 363.433 77.4256C363.433 75.8632 362.166 74.5967 360.602 74.5967C359.039 74.5967 357.771 75.8632 357.771 77.4256C357.771 78.9879 359.039 80.2545 360.602 80.2545Z" fill="#F6AE2D"/>
<path d="M268.202 64.7584C269.765 64.7584 271.033 63.4918 271.033 61.9295C271.033 60.3671 269.765 59.1006 268.202 59.1006C266.638 59.1006 265.371 60.3671 265.371 61.9295C265.371 63.4918 266.638 64.7584 268.202 64.7584Z" fill="#7C3AED"/>
<path d="M357.771 20.397C359.335 20.397 360.602 19.1305 360.602 17.5682C360.602 16.0058 359.335 14.7393 357.771 14.7393C356.208 14.7393 354.94 16.0058 354.94 17.5682C354.94 19.1305 356.208 20.397 357.771 20.397Z" fill="#FEDAC9"/>
<path d="M262.54 98.5504C264.103 98.5504 265.37 97.2838 265.37 95.7215C265.37 94.1591 264.103 92.8926 262.54 92.8926C260.976 92.8926 259.709 94.1591 259.709 95.7215C259.709 97.2838 260.976 98.5504 262.54 98.5504Z" fill="#FEDAC9"/>
<path d="M87.653 208.314C89.2164 208.314 90.4838 207.047 90.4838 205.485C90.4838 203.923 89.2164 202.656 87.653 202.656C86.0896 202.656 84.8223 203.923 84.8223 205.485C84.8223 207.047 86.0896 208.314 87.653 208.314Z" fill="#FEDAC9"/>
<path d="M73.6472 97.9947C75.2105 97.9947 76.4779 96.7282 76.4779 95.1658C76.4779 93.6034 75.2105 92.3369 73.6472 92.3369C72.0838 92.3369 70.8164 93.6034 70.8164 95.1658C70.8164 96.7282 72.0838 97.9947 73.6472 97.9947Z" fill="#7C3AED"/>
<path d="M40.8825 248.883C42.4459 248.883 43.7133 247.617 43.7133 246.054C43.7133 244.492 42.4459 243.226 40.8825 243.226C39.3191 243.226 38.0518 244.492 38.0518 246.054C38.0518 247.617 39.3191 248.883 40.8825 248.883Z" fill="#7C3AED"/>
<path d="M304.945 166.493C306.508 166.493 307.776 165.226 307.776 163.664C307.776 162.101 306.508 160.835 304.945 160.835C303.382 160.835 302.114 162.101 302.114 163.664C302.114 165.226 303.382 166.493 304.945 166.493Z" fill="#7C3AED"/>
<path d="M425.794 55.0265C428.921 55.0265 431.456 52.4934 431.456 49.3687C431.456 46.244 428.921 43.7109 425.794 43.7109C422.668 43.7109 420.133 46.244 420.133 49.3687C420.133 52.4934 422.668 55.0265 425.794 55.0265Z" fill="#7C3AED"/>
<path d="M85.64 220.664C84.2317 220.882 82.8234 221.065 81.415 221.227" stroke="#7C3AED" stroke-miterlimit="10"/>
<path d="M72.9507 221.762C71.3311 221.762 69.7185 221.762 68.0989 221.657C54.079 220.848 39.7844 214.993 31.5457 203.621C23.3069 192.249 22.7999 175.001 32.4611 164.826C38.7352 158.239 47.8894 155.48 56.1352 151.624C66.1979 146.909 75.2587 140.303 82.8231 132.167C92.1181 122.153 99.1386 107.396 93.2518 95.0743C91.566 91.5419 88.9446 88.5381 85.6719 86.3887C82.3992 84.2393 78.6002 83.0264 74.6867 82.8814C70.7732 82.7363 66.8947 83.6648 63.4717 85.5661C60.0488 87.4674 57.212 90.2689 55.269 93.6669C54.156 95.4668 53.521 97.5207 53.4241 99.6343C53.3748 106.467 60.9376 110.725 67.6553 111.991C74.9941 113.318 82.5382 112.969 89.723 110.971C96.9078 108.972 103.547 105.376 109.145 100.451C115.856 94.448 120.764 86.7284 126.876 80.1206C131.037 75.6239 136.093 71.5283 141.741 69.375" stroke="#7C3AED" stroke-miterlimit="10" stroke-dasharray="12.1 12.1"/>
<path d="M145.825 68.1855C147.217 67.9132 148.632 67.7765 150.05 67.7773" stroke="#7C3AED" stroke-miterlimit="10"/>
<path d="M248.521 41.9095C249.858 41.4732 251.201 41.0486 252.548 40.6357" stroke="#7C3AED" stroke-miterlimit="10"/>
<path d="M260.498 38.299C273.806 34.5651 287.336 31.6741 301.009 29.6435C308.466 28.5316 316.127 27.6872 323.5 29.2353C330.872 30.7835 338.034 35.1113 341.217 41.9583C346.449 53.2176 339.358 66.4965 330.267 74.941C325.612 79.2758 320.049 83.118 313.719 83.7584C307.388 84.3988 300.298 80.8943 298.685 74.7439C296.509 66.405 304.67 59.0654 312.451 55.3428C322.975 50.3838 334.433 47.7176 346.065 47.5211C357.698 47.3245 369.24 49.6021 379.925 54.2028C392.388 59.6635 403.521 68.2769 416.668 71.7954C426.199 74.311 436.252 74.035 445.63 71.0002" stroke="#7C3AED" stroke-miterlimit="10" stroke-dasharray="11.77 11.77"/>
<path d="M449.524 69.5933C450.829 69.0491 452.104 68.4509 453.348 67.7988" stroke="#7C3AED" stroke-miterlimit="10"/>
<path d="M343.245 267.087H286.355L258.365 242.633L251.83 118.197C261.477 118.627 270.526 120.013 274.131 130.069L299.573 223.662L343.245 267.087Z" fill="#FEDAC9"/>
<path d="M299.847 267.087H286.355L258.365 242.633L251.83 118.197C261.477 118.627 267.103 166.605 270.709 176.668C270.709 176.668 279.159 216.033 274.131 232.127C269.469 247.095 287.376 255.272 299.847 267.087Z" fill="#332066"/>
<path d="M174.505 122.131C184.959 122.131 193.433 112.535 193.433 100.697C193.433 88.8584 184.959 79.2617 174.505 79.2617C164.052 79.2617 155.577 88.8584 155.577 100.697C155.577 112.535 164.052 122.131 174.505 122.131Z" fill="#332066"/>
<path d="M252.717 267.538H181.561C173.111 213.768 176.372 160.948 192.124 109.148L233.888 119.817C245.859 134.749 253.422 156.409 258.372 181.989C263.322 207.569 260.808 234.26 252.717 267.538Z" fill="#7BE0AD"/>
<path d="M257.619 267.538H247.57C247.57 267.538 248.788 244.562 251.795 237.743C261.562 215.773 227.811 149.076 234.325 115.565L257.795 119.084C260.092 119.429 262.21 120.53 263.811 122.212C265.413 123.894 266.408 126.062 266.639 128.373C269.04 152.299 275.385 221.515 269.399 228.841C262.477 237.37 257.689 246.785 257.619 267.538Z" fill="#FEDAC9"/>
<path d="M253.894 252.816L263.048 232.014C264.746 228.143 265.54 223.937 265.372 219.713L262.759 154.269L249.789 149.653L255.422 136.036L238.275 117.831L253.837 135.213L246.648 150.518L260.971 154.74L263.47 220.298C263.625 224.317 262.984 228.328 261.583 232.099L253.894 252.816Z" fill="#332066"/>
<path d="M234.311 142.496C235.966 159.385 231.867 176.197 224.924 192.931C208.616 170.736 196.997 146.838 192.687 120.28L191.385 95.165H240.036C233.642 109.549 232.424 125.544 234.311 142.496Z" fill="#FEA394"/>
<path d="M191.385 95.165H240.036C236.229 103.944 234.066 113.346 233.656 122.905C219.023 145.726 191.385 95.165 191.385 95.165Z" fill="#332066"/>
<path d="M140.227 216.041L137.255 135.178L180.322 116.615L191.913 105.355C191.511 120.527 194.18 126.959 200.468 148.985C205.679 167.282 207.172 267.475 207.172 267.475H125.981L140.227 216.041Z" fill="#FEDAC9"/>
<path d="M140.227 216.041L152.219 196.999L149.325 236.308L184.223 252.852L187.68 267.538H125.981L140.227 216.041Z" fill="#332066"/>
<path d="M195.166 260.593L182.47 196.943L179.653 167.62L189.73 157.36L178.815 148.62L180.322 125.918V147.831L192.455 157.296L181.407 168.112L184.364 197.175L195.166 260.593Z" fill="#332066"/>
<path d="M189.525 180.666C189.282 180.667 189.047 180.584 188.859 180.431C188.67 180.279 188.54 180.066 188.49 179.829L187.18 173.636C187.12 173.363 187.17 173.077 187.321 172.841C187.475 172.607 187.716 172.443 187.99 172.384L189.771 172.011C189.844 172 189.917 172 189.99 172.011C190.232 172.012 190.467 172.095 190.655 172.247C190.843 172.4 190.974 172.612 191.025 172.848L191.13 173.355L192.736 173.017C192.811 173.01 192.886 173.01 192.961 173.017C193.107 173.02 193.25 173.051 193.384 173.108L193.553 173.186C194.116 173.454 194.627 173.821 195.06 174.27C195.476 174.731 195.763 175.294 195.891 175.902C196.017 176.499 195.983 177.118 195.792 177.697C195.586 178.274 195.276 178.808 194.877 179.273L194.757 179.421C194.603 179.599 194.395 179.722 194.165 179.773L192.335 180.16C192.262 180.166 192.189 180.166 192.116 180.16C192.014 180.132 191.906 180.13 191.803 180.154C191.699 180.179 191.604 180.229 191.525 180.3L189.743 180.68C189.67 180.683 189.597 180.678 189.525 180.666ZM191.891 176.908C191.901 176.843 191.901 176.777 191.891 176.711C191.876 176.639 191.847 176.569 191.807 176.507L191.891 176.908Z" fill="#332066"/>
<path d="M189.99 173.038L190.229 174.178L190.511 175.494L190.736 176.556L191.067 178.105L191.307 179.238L189.525 179.611L188.208 173.418L189.99 173.038ZM192.961 174.016L193.13 174.094C193.562 174.302 193.953 174.586 194.285 174.931C194.573 175.251 194.77 175.642 194.856 176.064C194.947 176.477 194.926 176.908 194.792 177.309C194.631 177.76 194.393 178.179 194.088 178.548L193.975 178.682L192.145 179.069L192.039 178.555L192.173 178.428C192.303 178.307 192.423 178.175 192.532 178.034C192.642 177.891 192.735 177.735 192.806 177.57C192.882 177.399 192.936 177.219 192.968 177.035C193.013 176.648 192.929 176.257 192.729 175.923C192.626 175.767 192.503 175.625 192.363 175.501C192.23 175.379 192.084 175.272 191.926 175.184C191.773 175.1 191.613 175.029 191.447 174.973L191.271 174.917L191.166 174.403L192.99 174.016M189.99 170.927C189.843 170.925 189.696 170.942 189.553 170.976L187.772 171.349C187.5 171.407 187.243 171.517 187.014 171.674C186.786 171.832 186.59 172.032 186.439 172.265C186.288 172.498 186.184 172.758 186.134 173.03C186.083 173.303 186.087 173.583 186.145 173.854L187.462 180.047C187.562 180.52 187.821 180.944 188.197 181.249C188.572 181.554 189.041 181.721 189.525 181.722C189.672 181.721 189.818 181.707 189.962 181.679L191.743 181.299C191.872 181.273 191.997 181.233 192.116 181.18C192.263 181.18 192.409 181.166 192.553 181.138L194.384 180.751C194.843 180.653 195.257 180.406 195.56 180.047L195.679 179.913C196.161 179.343 196.537 178.693 196.792 177.992C197.043 177.229 197.089 176.414 196.926 175.628C196.761 174.841 196.389 174.112 195.848 173.516C195.342 172.975 194.741 172.532 194.074 172.208L193.982 172.165L193.813 172.088C193.543 171.967 193.25 171.905 192.954 171.905C192.808 171.908 192.661 171.924 192.518 171.954L191.877 172.088C191.701 171.739 191.431 171.445 191.098 171.24C190.765 171.035 190.381 170.927 189.99 170.927Z" fill="#D0CFEC"/>
<path d="M242.591 58.4809C242.521 56.8342 242.492 55.0538 243.45 53.7168C243.521 53.5402 243.635 53.3849 243.784 53.2657C243.932 53.1465 244.108 53.0675 244.296 53.0364C244.483 53.0053 244.676 53.023 244.855 53.088C245.033 53.1529 245.192 53.2629 245.316 53.4071C246.724 54.5471 247.048 56.5949 246.978 58.4246C246.893 60.5357 246.478 62.5694 246.358 64.6453C246.048 69.8387 247.598 75.0813 246.682 80.1972C246.676 80.342 246.637 80.4834 246.569 80.6113C246.501 80.7392 246.405 80.8501 246.288 80.9361C246.027 81.0698 245.626 80.7813 245.788 80.542" fill="#FEA394"/>
<path d="M245.992 82.2381C247.322 82.2381 248.4 81.1606 248.4 79.8315C248.4 78.5023 247.322 77.4248 245.992 77.4248C244.662 77.4248 243.584 78.5023 243.584 79.8315C243.584 81.1606 244.662 82.2381 245.992 82.2381Z" fill="white"/>
<path d="M219.143 112.766L210.63 109.74C206.39 108.225 202.52 105.826 199.279 102.703L193.913 97.5655C192.258 95.9796 190.887 94.1233 189.857 92.0766L177.048 66.7432L175.935 43.6899C168.042 19.3628 228.579 0.953845 237.458 28.5672L246.676 73.0555L244.768 94.4903C244.506 97.4005 243.51 100.197 241.874 102.618L239.486 106.137C237.749 108.709 235.201 110.626 232.248 111.583L228.156 112.913C225.219 113.864 222.048 113.812 219.143 112.766Z" fill="#FEA394"/>
<path d="M171.872 72.7454C167.964 63.7169 164.337 53.9776 165.922 44.2594C166.356 41.7874 167.004 39.3575 167.858 36.9972C170.583 29.172 174.689 21.4031 181.575 16.7938C185.631 14.0846 188.793 11.4597 193.187 9.34862C196.264 7.87788 199.525 6.36491 202.919 6.61121C204.954 6.75195 206.932 7.53306 208.975 7.49084C211.017 7.44862 213.002 6.59713 215.066 6.49862C218.227 6.35788 221.178 8.01158 223.79 9.79899C227.243 12.0699 230.344 14.8344 232.994 18.0042C234.845 20.4263 236.493 22.9965 237.923 25.6887C239.928 29.0177 241.56 32.5577 242.789 36.2442C244.95 43.4783 244.591 52.0213 243.831 59.5369C238.366 21.4735 220.593 27.5957 217.072 22.2968C204.961 44.9772 178.533 39.7276 185.526 80.9084C183.831 78.7313 181.878 76.7677 179.709 75.0606C177.424 73.4453 174.669 72.6312 171.872 72.7454Z" fill="#332066"/>
<path d="M183.392 77.1433C176.315 67.3337 172.618 69.4448 171.527 70.4441C171.06 70.9351 170.727 71.5384 170.562 72.1955C170.397 72.8527 170.404 73.5413 170.583 74.1948C170.957 75.4978 171.557 76.7247 172.358 77.8189L178.639 87.5582C179.477 88.86 180.308 90.1548 181.223 91.4004C182.428 93.0541 184.16 94.7782 186.153 94.4334C187.008 94.2384 187.791 93.8067 188.413 93.1878C189.504 92.2026 190.427 90.7671 190.082 89.3456L183.392 77.1433Z" fill="#FEA394"/>
<path d="M174.647 72.8089C174.329 72.6128 173.958 72.5208 173.586 72.5461C173.213 72.5713 172.858 72.7124 172.57 72.9497C172.378 73.1591 172.234 73.4084 172.15 73.6798C172.066 73.9511 172.044 74.2377 172.084 74.5189C172.215 75.2802 172.493 76.009 172.901 76.6652C173.91 78.5089 175.006 80.301 176.189 82.0415C176.351 82.2878 176.583 82.5552 176.893 82.506C176.985 81.5419 176.4 80.6623 175.907 79.8248C175.424 79.0024 175.005 78.1436 174.654 77.2563C174.348 76.6572 174.261 75.9705 174.407 75.3141C174.508 75.0131 174.72 74.7616 174.999 74.6104C175.21 74.4978 175.703 74.5471 175.83 74.3571C176.105 73.9278 174.971 72.9989 174.647 72.8089Z" fill="#332066"/>
<path d="M180.104 77.58C179.628 77.4118 179.106 77.4268 178.64 77.6219C178.174 77.817 177.797 78.1783 177.583 78.6355C177.463 79.025 177.423 79.435 177.466 79.8404C177.51 80.2458 177.636 80.638 177.837 80.9929C178.265 81.8448 178.792 82.6432 179.407 83.3715C180.139 84.3097 180.898 85.2245 181.682 86.1159C181.972 86.5117 182.367 86.8188 182.822 87.0026C183.125 87.0743 183.441 87.0666 183.739 86.9803C184.038 86.8939 184.309 86.7319 184.526 86.51C184.72 86.3565 184.872 86.1568 184.968 85.9293C185.064 85.7018 185.101 85.4538 185.076 85.2081C184.942 84.4692 184.111 84.1244 183.414 83.85C182.717 83.5755 181.914 83.0618 182.006 82.3159C182.086 82.0162 182.188 81.7223 182.308 81.4363C182.345 81.2462 182.338 81.0501 182.286 80.8634C182.235 80.6767 182.141 80.5043 182.013 80.3596C181.689 79.9163 181.653 80.0359 181.484 79.5363C181.238 78.6989 181.055 77.9389 180.104 77.58Z" fill="#332066"/>
<path d="M186.632 95.7216C187.962 95.7216 189.04 94.6441 189.04 93.3149C189.04 91.9857 187.962 90.9082 186.632 90.9082C185.302 90.9082 184.224 91.9857 184.224 93.3149C184.224 94.6441 185.302 95.7216 186.632 95.7216Z" fill="white"/>
<path d="M230.29 62.6897C231.757 62.6897 232.945 61.5019 232.945 60.0368C232.945 58.5716 231.757 57.3838 230.29 57.3838C228.824 57.3838 227.636 58.5716 227.636 60.0368C227.636 61.5019 228.824 62.6897 230.29 62.6897Z" fill="#332066"/>
<path d="M237.1 59.931C236.063 59.6151 234.997 59.4076 233.917 59.3118C232.915 59.1923 231.9 59.2494 230.917 59.4807C230.156 59.6498 229.445 59.9944 228.84 60.487C228.613 60.7165 228.417 60.9743 228.256 61.254C227.858 61.7532 227.425 62.2235 226.96 62.6614C226.587 62.4864 226.27 62.2103 226.046 61.8645C225.822 61.5187 225.699 61.117 225.692 60.7051C225.728 59.8745 226.041 59.0796 226.58 58.4462C227.101 57.8365 227.77 57.3711 228.523 57.0951C229.201 56.8517 229.915 56.7256 230.636 56.7222C231.926 56.71 233.208 56.9342 234.417 57.3836C235.601 57.7847 236.645 58.5175 237.424 59.4948L237.1 59.931Z" fill="#332066"/>
<path d="M201.976 70.3675C203.442 70.3675 204.631 69.1797 204.631 67.7145C204.631 66.2493 203.442 65.0615 201.976 65.0615C200.51 65.0615 199.321 66.2493 199.321 67.7145C199.321 69.1797 200.51 70.3675 201.976 70.3675Z" fill="#332066"/>
<path d="M208.067 66.5668C207.002 66.3613 205.919 66.2669 204.835 66.2853C203.826 66.2701 202.823 66.432 201.87 66.7638C201.13 67.0092 200.46 67.4265 199.912 67.9812C199.711 68.234 199.54 68.5105 199.405 68.8046C199.068 69.3534 198.689 69.8756 198.272 70.3668C197.882 70.2322 197.537 69.9905 197.278 69.6694C197.019 69.3483 196.856 68.9608 196.807 68.5512C196.755 67.7219 196.983 66.8992 197.455 66.2149C197.908 65.5537 198.524 65.0205 199.244 64.6668C199.882 64.3602 200.568 64.1627 201.272 64.0827C202.551 63.9403 203.846 64.0285 205.095 64.3431C206.321 64.6278 207.439 65.2608 208.313 66.1657L208.067 66.5668Z" fill="#332066"/>
<path d="M222.22 59.0723C221.554 60.2357 221.289 61.5858 221.466 62.9145C221.64 64.1715 222.038 65.3872 222.642 66.5034C223.234 67.6786 223.959 68.8608 224.614 70.1486C225.336 71.4482 225.769 72.8885 225.882 74.3708C225.008 73.1745 224.114 72.1541 223.22 71.0634C222.266 69.9554 221.44 68.7446 220.755 67.4534C220.003 66.0553 219.675 64.468 219.812 62.8863C219.902 62.0932 220.154 61.327 220.551 60.6345C220.939 59.9588 221.52 59.4147 222.22 59.0723Z" fill="#332066"/>
<path d="M229.874 79.2689C229.503 79.4323 229.145 79.6253 228.804 79.8459C228.48 80.057 228.17 80.2611 227.874 80.4722C227.601 80.6562 227.347 80.866 227.114 81.0985C227.051 81.1608 226.994 81.2291 226.945 81.3026C226.945 81.3026 226.882 81.2181 226.882 81.3026L226.649 81.1407L226.945 81.2956C227.008 81.2956 227.051 81.3589 227.149 81.2956C227.273 81.2008 227.372 81.0777 227.438 80.9367C227.527 80.7591 227.605 80.5757 227.67 80.3878C227.78 80.5766 227.854 80.7842 227.888 81C227.923 81.2379 227.894 81.4807 227.804 81.7037C227.733 81.8554 227.627 81.9882 227.495 82.091C227.363 82.1937 227.208 82.2636 227.043 82.2948C226.763 82.3387 226.477 82.3195 226.206 82.2385H226.107L225.98 82.1048C225.831 81.9637 225.719 81.7869 225.656 81.5911C225.6 81.3861 225.6 81.1698 225.656 80.9648C225.727 80.6574 225.88 80.3751 226.1 80.1485C226.425 79.7919 226.824 79.5108 227.269 79.3252C227.681 79.1434 228.122 79.0361 228.572 79.0085C229.022 78.9607 229.477 79.0516 229.874 79.2689Z" fill="#332066"/>
<path d="M215.354 83.1321C215.382 82.9436 215.455 82.7648 215.568 82.6114C215.681 82.458 215.83 82.3347 216.002 82.2524C216.328 82.0714 216.693 81.9724 217.066 81.9639C217.829 81.905 218.585 82.1419 219.178 82.6254C219.401 82.807 219.564 83.0526 219.643 83.3291C219.698 83.5316 219.685 83.7464 219.608 83.9413C219.536 84.0967 219.43 84.2338 219.298 84.3425C219.09 84.5195 218.831 84.6255 218.558 84.645C218.307 84.6477 218.06 84.5714 217.854 84.4269C217.561 84.1993 217.332 83.8983 217.192 83.5543C217.126 83.4005 217.077 83.2401 217.044 83.0758C216.992 82.9134 216.992 82.7385 217.044 82.5761C217.172 82.8534 217.365 83.095 217.608 83.2799C217.796 83.4527 218.016 83.5867 218.256 83.6739C218.481 83.6739 218.418 83.6387 218.495 83.5473C218.573 83.4558 218.495 83.5473 218.446 83.5473C218.419 83.5992 218.406 83.6577 218.411 83.7162C218.411 83.7936 218.411 83.7162 218.319 83.7162C217.898 83.4819 217.448 83.3022 216.981 83.1813C216.465 82.9574 215.883 82.9398 215.354 83.1321Z" fill="#332066"/>
<path d="M228.072 55.3004C229.272 54.3836 230.543 53.5646 231.875 52.8516C233.452 52.25 235.117 51.91 236.804 51.8453C237.698 51.7608 238.726 51.7327 239.339 52.3801C238.534 51.4979 237.44 50.9336 236.254 50.7897C235.08 50.6523 233.89 50.7094 232.734 50.9586C230.945 51.2879 229.193 51.7899 227.502 52.4575C226.375 52.9008 224.974 53.1612 223.946 53.7804C223.178 54.259 222.418 55.7367 223.298 56.4616C224.488 57.4186 227.093 55.9408 228.072 55.3004Z" fill="#332066"/>
<path d="M196.729 61.1478C199.968 60.5074 203.391 61.1478 206.552 60.2119C207.116 60.05 207.764 59.6911 207.735 59.1071C207.708 58.8616 207.593 58.6343 207.411 58.4667C206.707 57.763 205.623 57.763 204.644 57.8404C202.164 57.9044 199.696 58.2179 197.279 58.7763C194.857 59.3525 192.656 60.6188 190.941 62.4215C190.455 62.9704 188.385 65.4686 189.012 66.0104C191.293 63.7374 193.399 61.8515 196.729 61.1478Z" fill="#332066"/>
<path d="M222.91 97.7754C230.656 98.071 232.62 94.5595 233.691 93.1591C235.803 90.4076 235.507 88.7399 237.754 86.1221C234.416 86.3543 233.627 86.5513 230.902 89.0917C228.259 91.4085 224.807 92.5872 221.297 92.371C217.002 91.9839 210.51 91.1254 207.376 93.0184C211.453 92.6243 213.84 97.4236 222.91 97.7754Z" fill="#ED704F"/>
<path d="M225.009 87.8888C230.107 82.0691 236.979 85.9465 237.754 86.1295C231.881 86.7065 230.346 91.1821 226.487 92.1673C218.939 94.1025 213.728 90.9358 207.433 92.9414C214.411 86.0451 222.861 87.9732 225.009 87.8888Z" fill="#DB663E"/>
<path d="M237.648 86.207C234.021 87.8255 233.071 97.1989 228.071 97.8745C214.917 99.6619 213.699 92.5615 207.481 92.7585C207.481 92.7585 209.488 90.4222 225.269 88.5996C226.184 87.7341 233.775 84.4689 237.648 86.207Z" fill="#332066"/>
<path d="M226.846 97.5086C221.55 99.0427 215.945 94.4546 215.945 94.4546C222.924 96.4179 230.902 94.1449 234.021 89.6201C234.049 89.6201 231.845 96.059 226.846 97.5086Z" fill="white"/>
<path d="M211.439 90.8862C211.545 91.2623 211.706 91.6205 211.918 91.9488C225.804 95.9318 234.846 87.804 235.529 86.1081V85.5732C231.731 85.9054 228.053 87.0682 224.755 88.9792C218.798 88.9792 211.439 90.8862 211.439 90.8862Z" fill="white"/>
<path d="M223.156 100.422C230.902 100.717 232.867 97.2059 233.937 95.8056C236.05 93.047 235.402 88.8459 237.648 86.207C234.31 86.9107 234.31 90.5489 231.585 93.0963C229.149 95.3693 224.882 96.4952 221.685 96.2067C217.389 95.8126 210.341 91.0204 207.207 92.9204C211.284 92.5404 214.087 100.07 223.156 100.422Z" fill="#ED704F"/>
<path d="M224.776 87.8888C229.874 82.0691 236.747 85.9465 237.521 86.1295C230.522 85.7284 229.459 89.4721 225.614 90.4643C218.058 92.3995 213.446 89.6269 207.207 92.9414C214.178 86.0451 222.628 87.9732 224.776 87.8888Z" fill="#DB663E"/>
<path d="M49.0225 267.088H452.939" stroke="#332066" stroke-miterlimit="10"/>
<path d="M246.719 283.724L214.334 289.762V287.827L280.568 275.843L313.593 269.559V270.706L246.719 283.724Z" fill="white"/>
<path d="M246.141 286.187L213.341 291.156V290.002L246.141 283.626V286.187Z" fill="#D0CFEC"/>
<path d="M313.594 278.362C315.698 278.362 317.403 276.658 317.403 274.555C317.403 272.453 315.698 270.748 313.594 270.748C311.49 270.748 309.784 272.453 309.784 274.555C309.784 276.658 311.49 278.362 313.594 278.362Z" fill="#D0CFEC"/>
<path d="M314.586 278.207L246.719 291.19V283.583L312.537 270.896L314.586 278.207Z" fill="#D0CFEC"/>
<path d="M246.719 291.198C248.823 291.198 250.528 289.494 250.528 287.391C250.528 285.288 248.823 283.584 246.719 283.584C244.615 283.584 242.909 285.288 242.909 287.391C242.909 289.494 244.615 291.198 246.719 291.198Z" fill="#D0CFEC"/>
<path d="M246.718 290.318C248.336 290.318 249.648 289.007 249.648 287.39C249.648 285.774 248.336 284.463 246.718 284.463C245.101 284.463 243.789 285.774 243.789 287.39C243.789 289.007 245.101 290.318 246.718 290.318Z" fill="#332066"/>
<path d="M203.806 276.891C200.989 283.654 198.173 286.989 190.87 285.526C187.209 284.787 180.794 275.329 182.322 270.931C186.99 257.504 200.151 260.734 203.806 261.508C210.01 262.831 205.602 272.599 203.806 276.891Z" fill="#332066"/>
<path d="M204.475 285.525L178.851 277.967L189.526 260.494L211.651 266.384L223.037 262.556L239.662 261.303L256.175 269.305L264.442 276.201L259.928 277.686L262.041 278.798L256.886 280.641L254.112 279.515L249.14 281.774L245.458 280.705L241.514 282.717L226.79 281.085L225.424 282.415C224.533 283.285 223.474 283.967 222.313 284.42C221.151 284.872 219.91 285.085 218.664 285.046L214.186 284.913L204.475 285.525Z" fill="#FEA394"/>
<path d="M238.296 266.243L251.76 272.386L258.365 277.066" stroke="#332066" stroke-miterlimit="10"/>
<path d="M232.648 269.438L246.774 275.117L251.76 278.798" stroke="#332066" stroke-miterlimit="10"/>
<path d="M226.79 274.118L242.204 278.903L244.732 280.374" stroke="#332066" stroke-miterlimit="10"/>
<path d="M141.29 240.214L203.806 261.508C191.504 260.973 185.948 277.693 190.871 285.525L96.3081 276.194C86.0906 274.083 82.0205 265.934 86.6962 254.471C111.687 216.59 107.237 147.508 137.255 135.179L152.219 196.999L141.29 240.214Z" fill="#FEDAC9"/>
<path d="M369.778 228.328H302.692C302.134 228.328 301.585 228.191 301.094 227.928C300.602 227.665 300.183 227.284 299.874 226.82C299.565 226.356 299.376 225.823 299.324 225.269C299.271 224.714 299.357 224.155 299.573 223.641L353.434 95.4117C353.692 94.7991 354.125 94.2761 354.678 93.9081C355.232 93.5401 355.882 93.3435 356.547 93.3428H369.778V228.328Z" fill="#332066"/>
<path d="M483.868 228.327H305.911C305.283 228.331 304.664 228.179 304.109 227.885C303.555 227.591 303.082 227.164 302.733 226.642C302.384 226.121 302.17 225.521 302.11 224.896C302.05 224.272 302.146 223.642 302.39 223.064L355.906 95.6931C356.195 95.0071 356.679 94.4215 357.299 94.0097C357.92 93.5978 358.647 93.378 359.392 93.3779H483.868V228.327Z" fill="url(#paint0_linear_6992_37124)"/>
<path d="M439.779 285.37L367.066 284.089L400.099 278.741C401.51 278.514 402.937 278.399 404.366 278.396H438.3L439.779 285.37Z" fill="#D0CFEC"/>
<path d="M440.195 287.939H364.243C364.243 285.371 366.574 282.795 374.644 283.013L439.357 282.823L440.195 287.939Z" fill="#332066"/>
<path d="M465.051 287.938H437.378L423.161 201.087C422.841 199.134 422.95 197.136 423.48 195.229C424.011 193.323 424.949 191.555 426.231 190.048C427.514 188.54 429.108 187.329 430.905 186.499C432.702 185.669 434.659 185.239 436.638 185.239C439.877 185.241 443.01 186.393 445.478 188.489C447.947 190.584 449.59 193.488 450.116 196.682L465.051 287.938Z" fill="#332066"/>
<path d="M467.868 287.938H440.194L425.977 201.087C425.657 199.134 425.766 197.136 426.297 195.229C426.827 193.323 427.766 191.555 429.048 190.048C430.33 188.54 431.925 187.329 433.722 186.499C435.519 185.669 437.475 185.239 439.455 185.239C442.694 185.241 445.826 186.393 448.295 188.489C450.763 190.584 452.407 193.488 452.932 196.682L467.868 287.938Z" fill="#D0CFEC"/>
<path opacity="0.5" d="M327.831 222.001C329.55 222.001 330.944 220.608 330.944 218.891C330.944 217.173 329.55 215.78 327.831 215.78C326.112 215.78 324.719 217.173 324.719 218.891C324.719 220.608 326.112 222.001 327.831 222.001Z" fill="white"/>
<path opacity="0.5" d="M337.457 222.001C339.176 222.001 340.57 220.608 340.57 218.891C340.57 217.173 339.176 215.78 337.457 215.78C335.738 215.78 334.345 217.173 334.345 218.891C334.345 220.608 335.738 222.001 337.457 222.001Z" fill="white"/>
<path d="M17.2578 296.587H487.761" stroke="#332066" stroke-miterlimit="10"/>
<g opacity="0.5">
<path d="M432.673 154.622L430.737 162.56L429.322 168.366L420.653 167.746L428.399 135.995L437.06 136.621L435.638 142.469L433.997 149.183L432.673 154.622Z" fill="white"/>
<path d="M451.869 151.666C452.412 153.726 452.412 155.891 451.869 157.95C451.34 160.13 450.321 162.162 448.89 163.89C447.182 165.835 445.19 167.512 442.982 168.865L442.187 169.358L433.258 168.717L433.899 166.085L434.793 165.642C435.634 165.23 436.446 164.759 437.222 164.235C438.022 163.685 438.767 163.061 439.447 162.37C440.156 161.651 440.787 160.858 441.328 160.005C441.863 159.135 442.256 158.185 442.489 157.19C442.727 156.248 442.808 155.274 442.729 154.305C442.605 153.429 442.369 152.573 442.025 151.758C441.716 150.993 441.291 150.281 440.764 149.647C440.294 149.023 439.751 148.458 439.145 147.965L438.483 147.451L439.131 144.819L447.996 145.46L448.58 146.051C450.053 147.676 451.172 149.588 451.869 151.666Z" fill="white"/>
</g>
<defs>
<linearGradient id="paint0_linear_6992_37124" x1="326.993" y1="160.835" x2="480.664" y2="160.835" gradientUnits="userSpaceOnUse">
<stop stop-color="#D0CFEC"/>
<stop offset="0.38" stop-color="#D0CFEC" stop-opacity="0.99"/>
<stop offset="0.51" stop-color="#D0CFEC" stop-opacity="0.96"/>
<stop offset="0.61" stop-color="#D0CFEC" stop-opacity="0.91"/>
<stop offset="0.69" stop-color="#D0CFEC" stop-opacity="0.84"/>
<stop offset="0.76" stop-color="#D0CFEC" stop-opacity="0.75"/>
<stop offset="0.82" stop-color="#D0CFEC" stop-opacity="0.63"/>
<stop offset="0.87" stop-color="#D0CFEC" stop-opacity="0.5"/>
<stop offset="0.92" stop-color="#D0CFEC" stop-opacity="0.34"/>
<stop offset="0.97" stop-color="#D0CFEC" stop-opacity="0.16"/>
<stop offset="1" stop-color="#D0CFEC" stop-opacity="0"/>
</linearGradient>
</defs>
</svg>
