<svg width="416" height="270" viewBox="0 0 416 270" fill="none" xmlns="http://www.w3.org/2000/svg">
<path d="M168.954 45.0755C180.653 33.5586 229.975 24.3827 256.177 59.0237" stroke="#7C3AED" stroke-miterlimit="10" stroke-dasharray="12 12"/>
<path d="M230.005 235.27C227.075 232.041 222.035 232.319 217.665 232.349C196.677 232.515 177.421 221.307 160.094 209.466C142.767 197.626 125.056 179.56 104.61 174.953C86.5298 170.881 73.5797 167.764 62.4226 181.547C46.9261 200.727 80.842 202.278 82.3788 188.969C83.441 179.793 80.4126 170.361 73.2783 164.49C66.1441 158.619 -11.1722 129.473 40.0179 75.2754" stroke="#7C3AED" stroke-miterlimit="10" stroke-dasharray="12 12"/>
<path d="M358 142.734C405.988 172.317 414.312 230.963 364.637 230.963" stroke="#7C3AED" stroke-miterlimit="10" stroke-dasharray="12 12"/>
<path d="M371.725 222.541H44.3119C42.2316 222.541 40.5452 224.226 40.5452 226.305V244.807C40.5452 246.886 42.2316 248.571 44.3119 248.571H371.725C373.806 248.571 375.492 246.886 375.492 244.807V226.305C375.492 224.226 373.806 222.541 371.725 222.541Z" fill="#FEDAC9"/>
<path d="M63.5375 241.698C66.5539 241.698 68.9993 239.255 68.9993 236.241C68.9993 233.227 66.5539 230.783 63.5375 230.783C60.521 230.783 58.0757 233.227 58.0757 236.241C58.0757 239.255 60.521 241.698 63.5375 241.698Z" fill="#FEFDFF"/>
<path d="M85.3922 241.698C88.4087 241.698 90.854 239.255 90.854 236.241C90.854 233.227 88.4087 230.783 85.3922 230.783C82.3757 230.783 79.9304 233.227 79.9304 236.241C79.9304 239.255 82.3757 241.698 85.3922 241.698Z" fill="#FEFDFF"/>
<path d="M351.272 241.698C354.289 241.698 356.734 239.255 356.734 236.241C356.734 233.227 354.289 230.783 351.272 230.783C348.256 230.783 345.81 233.227 345.81 236.241C345.81 239.255 348.256 241.698 351.272 241.698Z" fill="#F6AE2D"/>
<path d="M164.321 241.698C167.337 241.698 169.782 239.255 169.782 236.241C169.782 233.227 167.337 230.783 164.321 230.783C161.304 230.783 158.859 233.227 158.859 236.241C158.859 239.255 161.304 241.698 164.321 241.698Z" fill="#FEFDFF"/>
<path d="M186.168 241.698C189.184 241.698 191.63 239.255 191.63 236.241C191.63 233.227 189.184 230.783 186.168 230.783C183.151 230.783 180.706 233.227 180.706 236.241C180.706 239.255 183.151 241.698 186.168 241.698Z" fill="#FEFDFF"/>
<path d="M208.015 241.698C211.031 241.698 213.477 239.255 213.477 236.241C213.477 233.227 211.031 230.783 208.015 230.783C204.999 230.783 202.553 233.227 202.553 236.241C202.553 239.255 204.999 241.698 208.015 241.698Z" fill="#7C3AED"/>
<path d="M229.862 241.698C232.879 241.698 235.324 239.255 235.324 236.241C235.324 233.227 232.879 230.783 229.862 230.783C226.846 230.783 224.4 233.227 224.4 236.241C224.4 239.255 226.846 241.698 229.862 241.698Z" fill="#FEFDFF"/>
<path d="M251.717 241.698C254.733 241.698 257.179 239.255 257.179 236.241C257.179 233.227 254.733 230.783 251.717 230.783C248.7 230.783 246.255 233.227 246.255 236.241C246.255 239.255 248.7 241.698 251.717 241.698Z" fill="#FEFDFF"/>
<path d="M168.698 21.4238H43.7846C41.7043 21.4238 40.0178 23.1089 40.0178 25.1875V118.941C40.0178 121.02 41.7043 122.705 43.7846 122.705H168.698C170.778 122.705 172.464 121.02 172.464 118.941V25.1875C172.464 23.1089 170.778 21.4238 168.698 21.4238Z" fill="#D0CFEC"/>
<path d="M90.6279 98.5486L121.975 95.0559L118.781 85.9929L93.8899 83.7422L90.6279 98.5486Z" fill="#332066"/>
<path d="M110.328 122.697H119.459C123.926 107.273 125.915 98.1953 118.781 93.8445C117.606 92.339 119.24 83.1481 119.24 83.1481L92.9182 80.9727C95.0427 85.4138 94.5003 90.9991 94.0859 96.5318L110.328 122.697Z" fill="#FEA394"/>
<path d="M116.619 90.6598C117.613 89.2296 119.24 83.1324 119.24 83.1324L92.9182 80.957C96.685 89.0716 99.8942 90.7426 104.618 93.6557C107.887 95.7032 114.826 93.2643 116.619 90.6598Z" fill="#332066"/>
<path d="M113.666 89.4194C114.64 89.1945 115.549 88.7452 116.319 88.1075C117.09 87.4698 117.7 86.6612 118.103 85.746L121.666 77.639C122.819 75.0195 123.173 72.1214 123.03 67.7029C123.03 67.7029 121.583 53.2277 119.632 48.8844C114.509 37.2997 80.3976 40.6494 89.5884 68.9675L92.9182 81.0113C93.2607 82.2457 93.8551 83.3959 94.6641 84.3895C95.4731 85.3831 96.4793 86.1987 97.6191 86.7848L103.382 89.7506C105.162 90.6747 107.211 90.9412 109.168 90.5033L113.666 89.4194Z" fill="#FEA394"/>
<path d="M121.741 49.2747C118.856 38.8718 111.285 37.0352 109.725 36.5459C107.262 35.7931 104.716 36.1921 102.147 35.9211C98.1766 35.4996 81.9947 37.0201 81.4899 56.1623C81.4899 57.6677 81.0605 59.1732 81.4899 60.5733C83.6897 68.3115 90.0706 73.0688 91.0575 74.499C90.9989 72.1804 90.6703 69.8766 90.0781 67.634C89.7391 66.3393 89.3248 64.9618 89.7768 63.7047C90.0083 63.1796 90.2856 62.6758 90.6055 62.1992C91.2843 60.803 91.8073 59.3364 92.1649 57.8258C93.506 53.5635 96.0642 49.7855 99.5251 46.9563C99.9836 46.5372 100.525 46.2192 101.115 46.0229C102.365 45.6766 103.661 46.3465 104.957 46.3917C106.403 46.4444 107.744 45.7218 109.153 45.383C110.357 45.103 111.608 45.0969 112.814 45.3653C114.02 45.6337 115.151 46.1697 116.121 46.9337C117.032 47.6086 117.677 48.5807 117.945 49.6812C118.088 50.4339 117.945 51.1867 118.042 51.9846C118.201 53.7686 119.316 55.2891 120.167 56.8623C121.018 58.4355 121.9 62.681 122.427 64.2693C124.017 63.1627 123.678 58.4958 123.467 56.7419C123.086 54.212 122.509 51.7155 121.741 49.2747Z" fill="#332066"/>
<path d="M92.2552 76.2612C92.3758 77.5935 90.8766 78.6398 89.5356 78.5194C88.1994 78.2862 86.9795 77.6132 86.0702 76.6074C85.2036 75.7961 84.386 74.9339 83.6218 74.0255C82.8399 73.1689 82.2083 72.1866 81.7535 71.12C81.2992 70.0395 81.283 68.8248 81.7083 67.7326C81.9279 67.205 82.2977 66.7532 82.7717 66.4334C83.2457 66.1137 83.8033 65.9399 84.3752 65.9336C85.5504 66.0089 86.4996 66.9197 87.2153 67.8606" fill="#FEA394"/>
<path d="M82.2582 68.3204C82.128 68.4934 82.041 68.695 82.0043 68.9084C81.9676 69.1217 81.9824 69.3408 82.0473 69.5473C82.1857 69.9582 82.3544 70.3583 82.552 70.7442C82.7803 71.4174 83.0495 72.076 83.3581 72.7164C83.4109 72.7916 83.4787 72.882 83.5691 72.8744C83.6595 72.8669 83.7273 72.7615 83.7499 72.6637C84.0889 71.4217 82.8609 70.4055 83.4335 69.2011C83.6369 68.7795 84.0587 68.8548 83.667 68.3128C83.5775 68.2149 83.4684 68.1368 83.3468 68.0836C83.2251 68.0303 83.0937 68.0032 82.9609 68.0039C82.8282 68.0046 82.697 68.0332 82.576 68.0877C82.4549 68.1422 82.3467 68.2215 82.2582 68.3204Z" fill="#332066"/>
<path d="M85.1286 73.9731C85.2308 74.2413 85.4056 74.4758 85.6333 74.6506C86.1487 74.9687 86.7573 75.1015 87.3585 75.027C87.9568 74.9509 88.5638 74.9815 89.1514 75.1173C89.1973 75.0241 89.2218 74.9219 89.2232 74.8181C89.2246 74.7143 89.2029 74.6115 89.1596 74.5171C89.1163 74.4227 89.0526 74.3391 88.973 74.2724C88.8934 74.2056 88.8 74.1574 88.6994 74.1312C88.4207 74.0785 88.1043 74.2065 87.8632 74.0559C87.7293 73.9567 87.6273 73.8207 87.5694 73.6645C87.5262 73.5829 87.5005 73.4932 87.4941 73.4011C87.4941 72.8215 87.9536 72.6483 87.4941 72.001C87.3713 71.8099 87.1927 71.6612 86.9825 71.575C86.7722 71.4888 86.5405 71.4693 86.3189 71.5192C85.8502 71.7066 85.4685 72.0621 85.2483 72.516C85.0282 72.9698 84.9855 73.4895 85.1286 73.9731Z" fill="#332066"/>
<path d="M122.095 59.5959C122.193 58.7378 122.434 57.7066 123.263 57.4732C123.41 57.4126 123.576 57.4126 123.723 57.4732C123.82 57.5519 123.899 57.6517 123.953 57.7651C124.006 57.8786 124.033 58.0027 124.032 58.1281C124.498 61.9074 124.432 65.7334 123.836 69.4945C123.775 69.8407 123.534 70.2924 123.218 70.1493C122.902 70.0063 122.954 69.5998 122.683 69.502" fill="#FEA394"/>
<path d="M101.348 61.1995C99.9507 61.2843 98.5729 61.5708 97.2575 62.0501C95.938 62.5344 94.8205 63.4494 94.0859 64.6471C94.2715 63.6807 94.6397 62.7584 95.1708 61.9297C95.4589 61.4329 95.8619 61.0122 96.346 60.7027C97.0074 60.3786 97.7338 60.2087 98.4704 60.2059C99.9771 60.093 101.484 59.9349 102.991 59.8672C103.834 59.8672 104.919 59.8672 104.859 60.9963C103.693 61.1308 102.521 61.1987 101.348 61.1995Z" fill="#332066"/>
<path d="M111.556 57.9623C113.123 57.1117 114.773 56.2461 116.558 56.2009C116.994 56.1764 117.431 56.2326 117.846 56.3665C118.273 56.5199 118.67 56.7438 119.022 57.0289C119.586 57.4643 120.093 57.9702 120.528 58.5344C119.193 58.0154 117.762 57.7899 116.332 57.873C114.902 57.9561 113.507 58.346 112.242 59.0161C111.82 59.2495 110.855 60.2356 110.433 59.4979C110.012 58.7602 111.119 58.1806 111.556 57.9623Z" fill="#332066"/>
<path d="M111.963 72.6101C112.051 72.6033 112.137 72.5767 112.214 72.5324C112.291 72.4882 112.357 72.4272 112.407 72.3542C112.407 72.309 112.452 72.2488 112.407 72.2262C112.362 72.2036 112.249 72.2789 112.241 72.4445C112.234 72.6101 112.241 72.6251 112.241 72.6553C112.243 72.6778 112.243 72.7004 112.241 72.723C112.241 72.723 112.204 72.723 112.174 72.7757C111.967 72.8797 111.77 73.0032 111.586 73.1445C111.412 73.296 111.203 73.4009 110.978 73.4496C110.753 73.4984 110.519 73.4892 110.298 73.4231C110.457 73.0957 110.58 72.7526 110.667 72.3993C110.746 72.1682 110.874 71.9567 111.041 71.7788C111.209 71.601 111.413 71.461 111.639 71.3681C111.957 71.2471 112.308 71.2471 112.626 71.3681C112.809 71.4335 112.975 71.5419 113.108 71.6842C113.276 71.8622 113.375 72.0945 113.387 72.3391C113.389 72.4778 113.353 72.6145 113.283 72.7341C113.212 72.8536 113.11 72.9514 112.987 73.0166C112.838 73.0899 112.67 73.1162 112.505 73.0918C112.378 73.0729 112.258 73.0173 112.162 72.9317C112.066 72.8462 111.997 72.7344 111.963 72.6101Z" fill="#332066"/>
<path d="M108.716 73.4537C108.219 73.4537 107.865 73.5139 107.533 73.559C107.279 73.5834 107.027 73.6287 106.78 73.6945H106.697C106.659 73.6945 106.697 73.6945 106.697 73.6117C106.736 73.5109 106.742 73.4002 106.714 73.2958C106.685 73.1915 106.624 73.099 106.539 73.0321C106.328 72.8966 106.305 72.987 106.335 73.0321H106.388C106.438 73.0291 106.488 73.0291 106.539 73.0321L106.848 73.0773C107.071 73.1253 107.288 73.1985 107.495 73.2956C107.363 73.4819 107.206 73.6491 107.028 73.7924L106.78 73.9881L106.652 74.0784C106.578 74.1106 106.503 74.1382 106.426 74.1612C106.296 74.1947 106.161 74.1978 106.03 74.1704C105.9 74.143 105.777 74.0857 105.672 74.0032C105.498 73.8624 105.385 73.6603 105.356 73.4386C105.339 73.2524 105.373 73.0651 105.454 72.8966C105.557 72.7023 105.707 72.5367 105.891 72.4149C106.029 72.3296 106.175 72.2589 106.328 72.2041C106.831 72.0586 107.372 72.1153 107.834 72.3622C108.051 72.4711 108.241 72.6247 108.393 72.8129C108.545 73.0012 108.655 73.2196 108.716 73.4537Z" fill="#332066"/>
<path d="M110.577 60.793C110.308 61.3159 110.133 61.8813 110.057 62.4641C109.991 63.0231 110.009 63.5888 110.11 64.1427C110.375 65.2871 110.804 66.3874 111.383 67.4095C110.336 66.6617 109.616 65.5408 109.371 64.2781C109.253 63.6306 109.294 62.964 109.492 62.3361C109.667 61.7135 110.05 61.1692 110.577 60.793Z" fill="#332066"/>
<path d="M101.808 66.4675C102.415 66.4675 102.908 65.9755 102.908 65.3685C102.908 64.7616 102.415 64.2695 101.808 64.2695C101.2 64.2695 100.708 64.7616 100.708 65.3685C100.708 65.9755 101.2 66.4675 101.808 66.4675Z" fill="#332066"/>
<path d="M98.2068 66.6481C98.1731 66.3609 98.1985 66.0699 98.2815 65.7929C98.3644 65.5159 98.503 65.2587 98.689 65.0372C99.0512 64.5948 99.487 64.2179 99.9772 63.9232C100.263 63.7324 100.585 63.6031 100.924 63.5435C101.262 63.4838 101.61 63.4952 101.943 63.5769C102.049 63.5769 102.154 63.6371 102.252 63.6672C102.362 63.7201 102.468 63.7804 102.569 63.8479C102.788 63.9743 102.968 64.1594 103.089 64.3823C103.191 64.6199 103.21 64.8855 103.141 65.1351C103.02 65.3897 102.819 65.5983 102.569 65.7297C102.322 65.6691 102.069 65.6437 101.815 65.6545C101.696 65.6671 101.584 65.7202 101.499 65.805C101.424 65.933 101.499 65.948 101.454 65.9857C101.409 66.0233 101.085 65.9857 100.746 65.9857C100.375 66.017 100.012 66.1059 99.6683 66.2491C99.2711 66.392 98.8878 66.5709 98.5232 66.7836L98.2068 66.6481Z" fill="#332066"/>
<path d="M115.149 63.5691C115.757 63.5691 116.249 63.0771 116.249 62.4701C116.249 61.8631 115.757 61.3711 115.149 61.3711C114.542 61.3711 114.05 61.8631 114.05 62.4701C114.05 63.0771 114.542 63.5691 115.149 63.5691Z" fill="#332066"/>
<path d="M111.549 63.7581C111.517 63.4681 111.546 63.1749 111.633 62.8965C111.72 62.6182 111.863 62.3606 112.053 62.1397C112.414 61.6955 112.85 61.3184 113.342 61.0256C113.629 60.8385 113.951 60.7114 114.289 60.6519C114.627 60.5924 114.974 60.6017 115.308 60.6794C115.413 60.7051 115.516 60.7378 115.617 60.7772C115.728 60.8245 115.834 60.8825 115.933 60.9503C116.152 61.0752 116.33 61.2609 116.445 61.4848C116.554 61.7205 116.576 61.9874 116.506 62.2375C116.384 62.4922 116.183 62.7008 115.933 62.8322C115.686 62.7771 115.433 62.7543 115.18 62.7644C115.061 62.7756 114.95 62.826 114.863 62.9075C114.788 63.043 114.863 63.0505 114.818 63.0881C114.773 63.1258 114.449 63.0881 114.11 63.0881C113.739 63.1195 113.376 63.2084 113.033 63.3516C112.635 63.4973 112.252 63.6787 111.888 63.8935L111.549 63.7581Z" fill="#332066"/>
<path d="M107.368 82.0492C109.66 82.4055 112.007 82.0288 114.072 80.9728C115.485 79.6597 116.388 77.889 116.619 75.9746C113.967 75.9746 111.413 76.1477 109.718 77.2618C105.198 76.9532 103.932 78.5339 101.476 78.7673C103.571 80.3254 105.612 81.6427 107.368 82.0492Z" fill="#332066"/>
<path d="M103.676 79.3246C106.154 81.2666 114.976 79.3246 115.79 77.104V75.9824L103.344 78.2406L103.676 79.3246Z" fill="#FEFDFF"/>
<path d="M101.476 78.8052C104.301 83.2539 115.948 86.8821 116.619 75.9824C113.003 85.61 102.832 79.3697 101.476 78.8052Z" fill="#DD665E"/>
<path d="M113.432 75.7571C112.73 75.7601 112.032 75.8511 111.353 76.0281C110.89 76.2212 110.414 76.3821 109.929 76.5099C109.373 76.6018 108.812 76.6596 108.249 76.683C107.166 76.7083 106.093 76.8909 105.062 77.225C103.751 77.6917 102.546 78.4595 101.205 78.8584C103.622 78.2832 106.105 78.0301 108.588 78.1057C109.262 78.213 109.95 78.1874 110.614 78.0304C111.117 77.8062 111.592 77.5259 112.031 77.1948C112.784 76.7357 114.178 76.3443 116.619 75.998C115.568 75.805 114.5 75.7243 113.432 75.7571Z" fill="#D35A4A"/>
<path d="M119.459 122.697H154.655C154.655 122.697 150.889 102.651 146.029 99.1434C139.762 96.3733 132.801 95.5904 128.024 93.1214C128.024 93.1214 125.38 90.0653 118.781 85.9629C119.24 87.7619 123.549 106.513 119.459 122.697Z" fill="#7BE0AD"/>
<path d="M66.5659 92.724C60.0645 100.056 55.4992 113.259 55.2656 122.706H110.343C108.684 118.058 106.237 113.729 103.111 109.909C103.525 107.508 102.584 105.34 100.331 103.398C93.2872 100.063 93.4454 85.987 93.905 83.7363L91.2532 86.1978L90.8765 87.1839C90.8765 87.1839 70.6942 88.0721 66.5659 92.724Z" fill="#7BE0AD"/>
<path d="M131.979 96.9395C133.554 98.7385 135.121 100.553 136.65 102.389L138.955 105.137C139.709 106.048 140.462 106.981 141.215 107.907L141.675 108.471H140.922C139.54 108.433 138.166 108.69 136.891 109.224L136.71 109.307L136.545 109.194C136.01 108.833 135.467 108.502 134.91 108.185C134.362 107.862 133.796 107.57 133.215 107.312C132.653 107.063 132.056 106.906 131.444 106.846C130.872 106.789 130.297 106.938 129.825 107.267L129.862 106.763C130.758 107.702 131.34 108.896 131.527 110.18C131.571 110.499 131.589 110.822 131.58 111.144C131.609 111.502 131.53 111.861 131.354 112.175C131.126 112.439 130.836 112.643 130.51 112.77C130.243 112.903 129.99 113.064 129.757 113.251C128.848 114.027 128.153 115.022 127.738 116.142C127.327 117.287 127.007 118.462 126.781 119.657C126.902 118.436 127.136 117.229 127.482 116.051C127.838 114.839 128.521 113.748 129.456 112.898C129.689 112.687 129.942 112.498 130.209 112.333C130.451 112.228 130.669 112.074 130.849 111.881C130.953 111.645 130.989 111.384 130.955 111.129C130.944 110.838 130.914 110.549 130.864 110.263C130.672 109.121 130.148 108.061 129.358 107.214L129.094 106.943L129.395 106.71C129.994 106.276 130.729 106.07 131.467 106.13C132.158 106.186 132.835 106.354 133.471 106.627C134.083 106.888 134.679 107.185 135.256 107.515C135.829 107.847 136.386 108.2 136.936 108.577H136.582C137.953 108.006 139.43 107.734 140.914 107.779L140.65 108.328C139.897 107.387 139.144 106.462 138.428 105.506L136.228 102.66C134.85 100.778 133.396 98.8589 131.979 96.9395Z" fill="#FEFDFF"/>
<path d="M89.5431 90.8184C89.0681 92.3895 88.6783 93.9851 88.3754 95.5983C87.4659 100.416 87.4098 105.356 88.2097 110.194L87.5543 110.073C88.6141 108.338 90.1135 106.912 91.9011 105.941C93.6494 104.951 95.6323 104.449 97.6416 104.488C95.6877 104.667 93.8036 105.304 92.1422 106.347C90.5048 107.371 89.1401 108.776 88.1645 110.442L87.6823 111.27L87.5091 110.322C86.8972 107.052 86.7577 103.711 87.0947 100.401C87.269 98.7516 87.5585 97.1167 87.9611 95.5079C88.3611 93.9047 88.8902 92.3364 89.5431 90.8184Z" fill="#FEFDFF"/>
<path d="M372.215 62.4785H182.695C180.615 62.4785 178.928 64.1636 178.928 66.2422V209.391C178.928 211.469 180.615 213.154 182.695 213.154H372.215C374.296 213.154 375.982 211.469 375.982 209.391V66.2422C375.982 64.1636 374.296 62.4785 372.215 62.4785Z" fill="#F6AE2D"/>
<path d="M261.058 166.229C261.058 169.24 258.798 173.455 256.011 173.455C253.224 173.455 250.956 169.277 250.956 166.229C250.956 163.18 253.216 160.719 256.011 160.719C258.806 160.719 261.058 163.188 261.058 166.229Z" fill="#332066"/>
<path d="M294.741 156.932C297.533 156.932 299.796 154.465 299.796 151.422C299.796 148.379 297.533 145.912 294.741 145.912C291.949 145.912 289.686 148.379 289.686 151.422C289.686 154.465 291.949 156.932 294.741 156.932Z" fill="#332066"/>
<path d="M297.031 176.977L265.654 191.196L255.657 177V157.015L297.905 138.113C295.313 151.565 294.786 164.572 297.031 176.977Z" fill="#F8895D"/>
<path d="M255.657 166.356V157.015L292.993 147.613C285.919 163.729 273.76 169.857 267.093 169.857C263.439 169.857 255.657 166.356 255.657 166.356Z" fill="#332066"/>
<path d="M255.657 155.254C253.48 157.64 247.37 160.478 244.281 161.449C241.788 162.239 239.159 162.487 236.62 163.12C228.152 165.235 221.191 171.535 216.581 178.927C211.97 186.319 209.431 204.829 207.171 213.26H348.146C348.553 206.485 347.392 208.578 346.3 201.863C345.735 198.506 345.155 195.089 343.701 192.032C342.337 189.149 340.251 186.673 338.164 184.272C332.664 177.934 327.24 171.979 321.447 165.905C316.348 160.555 310.286 156.214 303.578 153.108C303.283 152.994 303.015 152.822 302.787 152.604C302.628 152.398 302.501 152.17 302.41 151.926C301.267 149.35 299.18 147.309 296.579 146.221V146.431C298.138 147.056 298.199 148.727 297.98 150.391C297.569 152.674 296.664 154.84 295.328 156.736C292.053 161.814 287.64 166.061 282.439 169.142C278.717 171.332 274.641 172.905 271.04 175.276C270.179 175.791 269.432 176.478 268.848 177.294C267.959 178.716 268.042 180.5 267.952 182.172C267.839 184.377 267.296 186.688 265.692 188.239C265.961 187.23 266.013 186.176 265.844 185.146C265.674 184.116 265.288 183.134 264.711 182.264C264.133 181.394 263.377 180.657 262.493 180.102C261.609 179.546 260.617 179.184 259.582 179.04C259.841 177.972 259.792 176.853 259.442 175.811C259.091 174.77 258.453 173.848 257.601 173.154C256.004 171.882 253.713 171.136 253.141 169.179C252.033 165.416 254.015 162.962 255.672 162.066L255.657 155.254Z" fill="#7C3AED"/>
<path d="M249.125 160.281C248.673 161.215 247.882 161.982 247.483 162.893C247.322 163.355 247.27 163.848 247.33 164.334C247.39 164.819 247.561 165.284 247.83 165.693C248.395 166.593 248.829 167.569 249.118 168.591C249.317 169.635 249.39 170.699 249.336 171.761C249.277 172.765 249.307 173.772 249.427 174.771C249.556 175.742 249.943 176.66 250.549 177.429C251.144 178.227 251.89 178.934 252.508 179.852C253.195 180.735 253.535 181.838 253.465 182.954L252.982 182.773C253.331 182.214 253.509 181.565 253.495 180.906C253.495 180.221 253.457 179.521 253.434 178.814C253.394 178.099 253.43 177.383 253.54 176.676C253.588 176.32 253.705 175.977 253.886 175.667C254.067 175.357 254.308 175.086 254.595 174.869C254.079 175.348 253.764 176.004 253.713 176.706C253.659 177.401 253.677 178.1 253.766 178.791C253.841 179.491 253.924 180.191 253.932 180.914C253.98 181.671 253.802 182.426 253.419 183.082L252.869 183.91L252.937 182.909C252.932 181.933 252.588 180.988 251.965 180.236C251.385 179.431 250.617 178.731 249.961 177.873C249.275 177.001 248.832 175.961 248.681 174.862C248.566 173.812 248.541 172.754 248.605 171.7C248.68 170.695 248.637 169.685 248.477 168.689C248.236 167.706 247.864 166.759 247.37 165.874C247.138 165.383 246.98 164.861 246.903 164.323C246.82 163.769 246.923 163.202 247.197 162.713C247.739 161.839 248.545 161.147 249.125 160.281Z" fill="#332066"/>
<path d="M271.146 176.586C271.64 176.692 272.105 176.902 272.512 177.202C272.918 177.502 273.257 177.884 273.504 178.325C273.773 178.761 273.973 179.236 274.099 179.732C274.212 180.229 274.28 180.718 274.347 181.238C274.476 182.224 274.573 183.21 274.641 184.204C274.737 185.205 274.737 186.213 274.641 187.214L274.242 186.891C275.899 186.138 277.564 185.453 279.169 184.633C280.775 183.82 282.316 182.887 283.779 181.84C286.688 179.708 289.3 177.2 291.546 174.38C293.775 171.546 295.79 168.549 297.573 165.415C299.366 162.269 301.016 159.039 302.56 155.75C301.229 159.133 299.702 162.435 297.988 165.641C297.114 167.237 296.202 168.818 295.223 170.361C294.243 171.904 293.174 173.372 292.036 174.809C289.787 177.71 287.13 180.27 284.149 182.412C281.121 184.463 277.862 186.148 274.438 187.433L273.948 187.628L274.031 187.102C274.158 186.144 274.193 185.176 274.137 184.211C274.099 183.225 274.031 182.239 273.933 181.26C273.897 180.292 273.677 179.339 273.285 178.453C273.073 178.014 272.774 177.622 272.406 177.301C272.039 176.98 271.61 176.737 271.146 176.586Z" fill="#332066"/>
<path d="M262.866 180.41C263.789 181.251 264.524 182.277 265.021 183.421C265.511 184.565 265.856 185.767 266.046 186.997C266.274 188.239 266.302 189.509 266.128 190.76C265.959 191.99 265.707 193.207 265.375 194.404C264.735 196.782 264.012 199.108 263.484 201.479C262.951 203.86 262.72 206.298 262.799 208.736C262.606 207.519 262.523 206.287 262.55 205.055C262.59 203.821 262.714 202.591 262.919 201.374C263.318 198.935 264.027 196.564 264.652 194.208C265.277 191.852 265.82 189.488 265.481 187.094C265.362 185.892 265.093 184.708 264.682 183.572C264.287 182.41 263.671 181.337 262.866 180.41Z" fill="#332066"/>
<path d="M279.493 210.315H276.713C276.719 210.434 276.752 210.55 276.811 210.654C276.87 210.757 276.953 210.845 277.052 210.91C277.334 211.062 277.652 211.132 277.971 211.113C278.227 211.115 278.482 211.074 278.725 210.993C278.925 210.938 279.116 210.851 279.29 210.737H279.433V211.58C279.187 211.67 278.935 211.74 278.679 211.791C278.413 211.832 278.143 211.852 277.873 211.851C277.258 211.89 276.647 211.735 276.125 211.407C275.929 211.262 275.77 211.07 275.664 210.85C275.557 210.63 275.506 210.387 275.515 210.142C275.503 209.897 275.549 209.652 275.648 209.427C275.748 209.203 275.898 209.004 276.088 208.848C276.541 208.51 277.098 208.342 277.662 208.373C278.161 208.334 278.657 208.479 279.056 208.78C279.213 208.929 279.337 209.111 279.417 209.312C279.498 209.514 279.534 209.73 279.523 209.947L279.493 210.315ZM278.288 209.698C278.293 209.514 278.225 209.336 278.099 209.201C277.939 209.081 277.741 209.023 277.542 209.036C277.339 209.027 277.138 209.082 276.969 209.194C276.888 209.25 276.822 209.326 276.777 209.414C276.733 209.502 276.711 209.6 276.713 209.698H278.288Z" fill="white"/>
<path d="M282.506 211.739C282.367 211.771 282.226 211.794 282.084 211.807C281.934 211.807 281.76 211.807 281.55 211.807C281.178 211.833 280.808 211.746 280.487 211.558C280.364 211.456 280.267 211.325 280.207 211.177C280.147 211.028 280.124 210.867 280.141 210.708V209.202H279.644V208.45H280.141V207.531H281.361V208.51H282.506V209.263H281.369V210.73C281.369 210.812 281.39 210.892 281.429 210.964C281.462 211.036 281.521 211.092 281.595 211.122C281.701 211.17 281.817 211.191 281.934 211.182C282.016 211.191 282.1 211.191 282.182 211.182C282.256 211.164 282.329 211.141 282.401 211.114H282.499V211.867L282.506 211.739Z" fill="white"/>
<path d="M285.211 211.423L284.97 211.574C284.882 211.632 284.788 211.683 284.691 211.724C284.571 211.768 284.448 211.801 284.322 211.822C284.181 211.851 284.036 211.864 283.892 211.86C283.567 211.869 283.249 211.768 282.988 211.574C282.79 211.419 282.661 211.193 282.627 210.944C282.593 210.695 282.658 210.443 282.808 210.241C282.949 210.075 283.13 209.948 283.335 209.873C283.604 209.773 283.885 209.709 284.171 209.684L285.203 209.602C285.207 209.519 285.185 209.438 285.139 209.37C285.092 209.302 285.025 209.251 284.947 209.225C284.704 209.145 284.449 209.11 284.194 209.12C283.975 209.122 283.757 209.153 283.546 209.21C283.32 209.27 283.162 209.323 283.056 209.361H282.943V208.51C283.071 208.51 283.282 208.45 283.568 208.412C283.858 208.37 284.15 208.35 284.442 208.352C284.96 208.314 285.479 208.41 285.949 208.631C286.1 208.719 286.222 208.847 286.304 209.002C286.385 209.156 286.421 209.33 286.409 209.504V211.762H285.196V211.416L285.211 211.423ZM285.211 210.911V210.226L284.683 210.279C284.533 210.287 284.385 210.31 284.239 210.347C284.136 210.371 284.04 210.42 283.96 210.49C283.929 210.523 283.905 210.562 283.889 210.605C283.874 210.647 283.867 210.693 283.87 210.738C283.861 210.796 283.861 210.854 283.87 210.911C283.892 210.961 283.928 211.004 283.975 211.032C284.031 211.074 284.095 211.102 284.164 211.115C284.276 211.13 284.39 211.13 284.503 211.115C284.625 211.113 284.747 211.093 284.864 211.054C284.987 211.026 285.104 210.978 285.211 210.911Z" fill="white"/>
<path d="M290.552 210.768C290.539 210.928 290.486 211.081 290.396 211.213C290.306 211.345 290.183 211.451 290.04 211.521C289.597 211.753 289.1 211.862 288.601 211.837C288.29 211.838 287.98 211.811 287.674 211.755C287.448 211.715 287.226 211.655 287.011 211.574V210.768H287.132L287.343 210.889C287.449 210.946 287.56 210.994 287.674 211.032C287.817 211.083 287.963 211.123 288.111 211.152C288.28 211.183 288.452 211.198 288.623 211.197C288.804 211.205 288.985 211.182 289.158 211.13C289.271 211.085 289.324 211.017 289.324 210.926C289.327 210.89 289.319 210.854 289.302 210.822C289.284 210.79 289.258 210.763 289.226 210.746C289.102 210.698 288.973 210.665 288.842 210.648C288.723 210.621 288.602 210.604 288.48 210.595L288.058 210.52C287.78 210.467 287.52 210.343 287.305 210.159C287.222 210.079 287.157 209.983 287.113 209.877C287.069 209.77 287.047 209.656 287.049 209.541C287.055 209.374 287.107 209.211 287.198 209.071C287.29 208.93 287.418 208.817 287.569 208.744C288.006 208.511 288.498 208.402 288.993 208.427C289.265 208.429 289.538 208.455 289.806 208.503C290.014 208.539 290.218 208.592 290.416 208.661V209.496H290.311C290.116 209.38 289.905 209.292 289.686 209.233C289.461 209.167 289.227 209.134 288.993 209.135C288.824 209.131 288.656 209.154 288.495 209.203C288.352 209.255 288.292 209.323 288.292 209.406C288.291 209.441 288.299 209.476 288.315 209.507C288.331 209.539 288.354 209.566 288.382 209.587C288.519 209.654 288.667 209.695 288.819 209.707L289.219 209.767L289.655 209.85C289.918 209.896 290.163 210.013 290.364 210.189C290.434 210.267 290.487 210.359 290.519 210.459C290.552 210.559 290.563 210.664 290.552 210.768Z" fill="white"/>
<path d="M294.816 210.315H292.029C292.034 210.434 292.068 210.55 292.126 210.653C292.185 210.757 292.268 210.845 292.368 210.91C292.649 211.062 292.967 211.132 293.287 211.113C293.543 211.115 293.797 211.074 294.04 210.993C294.241 210.937 294.431 210.851 294.605 210.737H294.741V211.58C294.496 211.67 294.244 211.741 293.987 211.791C293.72 211.831 293.451 211.851 293.181 211.851C292.566 211.89 291.955 211.735 291.433 211.407C291.235 211.261 291.076 211.068 290.97 210.846C290.864 210.625 290.813 210.38 290.823 210.135C290.813 209.89 290.86 209.646 290.961 209.422C291.061 209.199 291.213 209.002 291.403 208.847C291.853 208.503 292.412 208.332 292.978 208.366C293.476 208.327 293.972 208.471 294.371 208.772C294.529 208.921 294.652 209.103 294.733 209.304C294.813 209.506 294.849 209.722 294.839 209.939V210.315H294.816ZM293.603 209.698C293.61 209.515 293.545 209.337 293.422 209.201C293.262 209.082 293.064 209.024 292.865 209.036C292.66 209.026 292.457 209.081 292.285 209.194C292.206 209.252 292.142 209.328 292.099 209.415C292.055 209.503 292.034 209.6 292.036 209.698H293.603Z" fill="white"/>
<path d="M296.609 211.769H295.396V207.207H296.609V211.769Z" fill="white"/>
<path d="M301.212 210.315H298.425C298.43 210.434 298.464 210.55 298.523 210.653C298.581 210.757 298.664 210.845 298.764 210.91C299.045 211.062 299.363 211.132 299.683 211.113C299.939 211.115 300.193 211.074 300.436 210.993C300.637 210.937 300.827 210.851 301.001 210.737H301.144V211.58C300.899 211.669 300.647 211.74 300.391 211.791C300.124 211.831 299.855 211.851 299.585 211.851C298.97 211.89 298.358 211.735 297.837 211.407C297.64 211.26 297.483 211.067 297.378 210.845C297.273 210.624 297.223 210.38 297.234 210.135C297.222 209.89 297.268 209.647 297.367 209.423C297.467 209.199 297.617 209.002 297.807 208.847C298.257 208.504 298.816 208.333 299.381 208.366C299.88 208.327 300.376 208.471 300.775 208.772C300.932 208.921 301.056 209.103 301.136 209.304C301.217 209.506 301.253 209.722 301.242 209.939V210.315H301.212ZM300.007 209.698C300.012 209.514 299.944 209.336 299.818 209.201C299.658 209.081 299.46 209.022 299.261 209.036C299.058 209.027 298.858 209.083 298.688 209.194C298.607 209.25 298.541 209.325 298.496 209.413C298.452 209.501 298.43 209.599 298.432 209.698H300.007Z" fill="white"/>
<path d="M303.766 211.859C303.459 211.859 303.154 211.826 302.854 211.761C302.601 211.699 302.361 211.592 302.146 211.445C301.95 211.302 301.787 211.117 301.672 210.903C301.561 210.668 301.504 210.411 301.506 210.15C301.498 209.874 301.56 209.599 301.687 209.353C301.81 209.133 301.98 208.943 302.184 208.796C302.402 208.652 302.644 208.55 302.9 208.494C303.173 208.427 303.454 208.394 303.736 208.397C303.976 208.397 304.216 208.423 304.451 208.472C304.661 208.517 304.865 208.582 305.062 208.668V209.571H304.888C304.833 209.525 304.775 209.483 304.715 209.443C304.637 209.39 304.553 209.345 304.466 209.307C304.37 209.262 304.269 209.227 304.165 209.202C304.043 209.166 303.916 209.151 303.788 209.157C303.652 209.149 303.515 209.168 303.385 209.213C303.256 209.258 303.137 209.329 303.035 209.42C302.944 209.522 302.874 209.641 302.83 209.771C302.786 209.9 302.769 210.037 302.779 210.173C302.764 210.31 302.78 210.449 302.826 210.579C302.871 210.709 302.945 210.828 303.043 210.926C303.255 211.098 303.523 211.186 303.796 211.174C303.936 211.174 304.075 211.156 304.21 211.122C304.314 211.097 304.415 211.062 304.512 211.016C304.582 210.981 304.65 210.941 304.715 210.896L304.873 210.768H305.047V211.663C304.854 211.744 304.655 211.807 304.451 211.852C304.224 211.878 303.994 211.88 303.766 211.859Z" fill="white"/>
<path d="M308.12 211.739C307.984 211.771 307.845 211.793 307.706 211.807C307.555 211.807 307.382 211.807 307.163 211.807C306.795 211.834 306.426 211.747 306.109 211.558C305.984 211.457 305.887 211.326 305.826 211.177C305.766 211.029 305.744 210.867 305.762 210.708V209.202H305.265V208.45H305.762V207.531H306.975V208.51H308.12V209.263H306.983V210.73C306.983 210.812 307.004 210.892 307.043 210.964C307.08 211.032 307.138 211.088 307.209 211.122C307.318 211.169 307.436 211.19 307.555 211.182C307.635 211.191 307.716 211.191 307.796 211.182C307.871 211.165 307.944 211.142 308.015 211.114H308.12V211.867V211.739Z" fill="white"/>
<path d="M272.208 210.994V207.531H270.995V211.769H272.208V210.994Z" fill="white"/>
<path d="M274.762 209.367C274.593 209.094 274.376 208.854 274.121 208.659L274.016 208.584H272.773V208.938L272.878 208.998C272.98 209.057 273.076 209.125 273.165 209.201C273.254 209.283 273.335 209.374 273.406 209.472C273.481 209.571 273.542 209.68 273.587 209.796C273.632 209.919 273.655 210.049 273.654 210.18C273.656 210.308 273.633 210.436 273.587 210.556C273.541 210.674 273.481 210.786 273.406 210.887C273.335 210.984 273.254 211.072 273.165 211.151C273.072 211.228 272.974 211.298 272.871 211.362L272.765 211.422V211.776H274.016L274.114 211.7C274.371 211.506 274.591 211.266 274.762 210.993C274.902 210.748 274.975 210.47 274.973 210.187C274.975 209.9 274.902 209.617 274.762 209.367Z" fill="white"/>
<path d="M241.562 106.356C238.548 109.059 236.921 120.455 238.91 125.28C239.769 127.35 246.443 128.788 246.692 128.562C247.784 127.41 250.655 117.105 251.024 111.031C251.118 110.238 251.051 109.434 250.828 108.667C249.954 106.206 243.264 104.836 241.562 106.356Z" fill="#7BE0AD"/>
<path d="M244.756 110.955C245.336 106.98 247.581 63.2537 291.162 76.8105C309.68 82.569 319.089 93.3256 308.384 130.383" stroke="#7BE0AD" stroke-width="3" stroke-miterlimit="10"/>
<path d="M245.637 107.771C244.874 109.085 244.292 110.495 243.905 111.964C243.495 113.417 243.183 114.896 242.971 116.39C242.743 117.886 242.617 119.395 242.594 120.907C242.538 122.427 242.695 123.947 243.061 125.423C242.406 124.005 242.047 122.468 242.006 120.907C241.921 119.358 241.994 117.804 242.225 116.27C242.446 114.731 242.822 113.217 243.347 111.753C243.84 110.288 244.618 108.934 245.637 107.771Z" fill="#7C3AED"/>
<path d="M253.736 90.1332C250.881 94.7551 251.724 104.051 250.579 109.358C249.389 114.868 248.108 120.649 246.918 126.152C245.62 132.823 246.282 139.728 248.824 146.032C250.037 148.922 251.34 151.301 252.063 154.357C252.561 156.442 252.259 158.971 253.404 160.793C254.549 162.615 263.122 165.467 266.558 165.377C271.62 165.249 282.928 161.734 288.48 154.598C299.426 140.522 299.027 133.672 300.052 130.759C300.986 128.124 305.423 98.2402 303.299 94.0851C300.572 88.7557 293.43 85.6996 287.478 84.849C280.804 83.8855 274.347 82.3725 267.891 83.05C262.294 83.6597 257.088 84.706 253.736 90.1332Z" fill="#F8895D"/>
<path d="M251.024 111.03C249.268 105.55 248.251 99.6412 249.412 94.0031C249.622 92.6932 250.082 91.4359 250.768 90.2997C251.116 89.7332 251.588 89.2531 252.15 88.8958C252.711 88.5385 253.346 88.3133 254.007 88.2372C254.399 83.3745 255.702 76.5622 264.162 73.476C275.123 69.4789 292.3 75.9826 296.067 78.9559C293.483 78.2032 292.194 77.9623 291.042 78.9032C298.861 79.3473 308.866 87.3414 308.783 94.3042C310.245 96.1334 309.988 98.8884 309.921 101.237C309.732 107.259 309.167 113.409 306.455 118.776C304.707 122.238 302.101 125.31 301.039 129.043C301.709 118.098 297.679 119.258 300.632 97.684C300.87 96.0746 300.537 94.4324 299.689 93.0434C298.841 91.6543 297.533 90.6062 295.991 90.0814C289.377 87.9436 278.664 89.2835 276.487 89.2835C272.916 89.2835 266.776 81.4776 255.476 90.0362C251.242 97.1044 251.024 111.03 251.024 111.03Z" fill="#FEDAC9"/>
<path d="M279.734 143.277C279.734 143.277 270.799 150.15 265.488 148.546C260.388 147.794 256.621 141.418 256.621 139.822C260.23 139.115 265.111 142.336 266.272 142.397C268.373 142.525 278.061 141.681 279.734 143.277Z" fill="#332066"/>
<path d="M271.635 148.802L260.463 147.432L258.738 143.277C263.077 145.912 268.178 146.243 273.278 146.243L271.635 148.802Z" fill="#FEFDFF"/>
<path d="M277.014 143.97C272.14 146.597 258.256 143.609 258.316 141.336C258.316 140.937 258.316 139.732 258.316 139.732L265.571 141.923L278.197 142.472C277.877 143.026 277.478 143.53 277.014 143.97Z" fill="#FEFDFF"/>
<path d="M263.243 149.797C266.272 150.791 269.549 150.73 272.539 149.623C275.618 148.433 278.169 146.182 279.734 143.278C267.756 150.497 259.213 146.447 256.621 139.838C257.058 148.095 262.437 149.533 263.243 149.797Z" fill="#ED704F"/>
<path d="M260.719 139.138C261.932 139.476 262.799 140.229 263.982 140.643C265.986 141.358 268.131 141.587 270.242 141.313C272.022 141.219 273.807 141.249 275.583 141.403C277.154 141.468 278.641 142.133 279.734 143.263C277.225 142.51 274.536 142.833 271.914 142.788C269.451 142.736 267.146 143.18 264.773 142.495C262.814 141.93 260.735 140.334 258.746 140.041C258.475 140.003 256.659 139.823 256.659 139.823C256.892 139.454 260.32 139.025 260.719 139.138Z" fill="#DB663E"/>
<path d="M270.31 120.439C270.543 122.577 270.084 124.7 269.963 126.747C269.881 127.769 269.917 128.797 270.069 129.811C270.219 130.836 270.572 131.822 271.108 132.709C270.312 131.959 269.749 130.994 269.488 129.931C269.219 128.878 269.125 127.787 269.21 126.702C269.368 124.557 269.948 122.547 270.31 120.439Z" fill="#332066"/>
<path d="M267.093 137.82C267.206 137.293 267.748 136.977 268.147 136.721C268.575 136.453 269.021 136.214 269.481 136.006C269.963 135.792 270.469 135.638 270.988 135.547C271.116 135.515 271.247 135.495 271.379 135.487C271.532 135.468 271.686 135.468 271.839 135.487C272.007 135.512 272.169 135.571 272.313 135.66C272.399 135.719 272.471 135.795 272.525 135.883C272.58 135.971 272.615 136.069 272.63 136.172V136.247C272.606 136.366 272.547 136.475 272.461 136.56C272.376 136.646 272.267 136.705 272.148 136.729C271.979 136.762 271.805 136.762 271.635 136.729C271.543 136.722 271.452 136.696 271.371 136.652C271.289 136.608 271.217 136.547 271.161 136.473C271.104 136.409 271.067 136.33 271.055 136.246C271.042 136.161 271.056 136.075 271.093 135.999C271.093 136.067 271.112 136.135 271.148 136.193C271.184 136.252 271.235 136.299 271.296 136.33C271.396 136.39 271.515 136.409 271.628 136.382C271.753 136.368 271.876 136.332 271.99 136.277C272.095 136.217 272.095 136.172 272.087 136.142V136.232C272.087 136.164 271.959 136.126 271.756 136.111C271.547 136.116 271.339 136.149 271.138 136.209C270.675 136.318 270.22 136.457 269.775 136.623L268.396 137.12C267.904 137.226 267.452 137.469 267.093 137.82Z" fill="#332066"/>
<path d="M262.535 136.631C261.919 135.798 261.209 135.041 260.418 134.372C260.245 134.219 260.055 134.085 259.853 133.973C259.793 133.937 259.724 133.918 259.653 133.918C259.583 133.918 259.514 133.937 259.454 133.973C259.371 133.973 259.326 134.101 259.454 134.267C259.534 134.345 259.63 134.405 259.735 134.444C259.84 134.482 259.952 134.499 260.064 134.493L260.011 134.591C260.004 134.493 260.004 134.395 260.011 134.297C260.066 134.377 260.116 134.46 260.162 134.546V134.598L260.072 134.636C259.931 134.713 259.773 134.753 259.612 134.753C259.451 134.753 259.293 134.713 259.152 134.636C259.061 134.58 258.985 134.504 258.927 134.414C258.87 134.324 258.835 134.222 258.823 134.116C258.811 134.01 258.824 133.903 258.86 133.802C258.897 133.702 258.955 133.611 259.032 133.537C259.179 133.403 259.362 133.315 259.559 133.283C259.755 133.251 259.957 133.276 260.139 133.356C260.415 133.482 260.669 133.649 260.893 133.853C261.757 134.551 262.34 135.537 262.535 136.631Z" fill="#332066"/>
<path d="M281.015 124.91C282.225 124.91 283.207 123.93 283.207 122.72C283.207 121.51 282.225 120.529 281.015 120.529C279.804 120.529 278.822 121.51 278.822 122.72C278.822 123.93 279.804 124.91 281.015 124.91Z" fill="#332066"/>
<path d="M285.143 124.263C284.481 123.645 283.742 123.116 282.943 122.689C282.183 122.269 281.358 121.979 280.502 121.831C279.765 121.689 279.003 121.757 278.303 122.027C278.182 122.132 278.016 122.177 277.896 122.298C277.775 122.418 277.64 122.509 277.527 122.659C277.414 122.81 277.218 122.915 277.067 123.088C276.874 123.279 276.662 123.451 276.434 123.6C276.296 123.341 276.212 123.057 276.186 122.765C276.177 122.479 276.226 122.195 276.329 121.929C276.446 121.649 276.614 121.394 276.826 121.176C277.331 120.647 277.989 120.289 278.708 120.154C279.428 120.019 280.171 120.113 280.834 120.424C281.805 120.729 282.713 121.206 283.516 121.831C284.316 122.432 284.949 123.227 285.354 124.142L285.143 124.263Z" fill="#332066"/>
<path d="M259.273 121.117C260.484 121.117 261.465 120.137 261.465 118.927C261.465 117.717 260.484 116.736 259.273 116.736C258.062 116.736 257.081 117.717 257.081 118.927C257.081 120.137 258.062 121.117 259.273 121.117Z" fill="#332066"/>
<path d="M263.394 120.439C262.733 119.821 261.993 119.292 261.194 118.866C260.434 118.446 259.609 118.156 258.753 118.008C258.018 117.872 257.259 117.943 256.561 118.211C256.44 118.317 256.275 118.362 256.154 118.475C256.034 118.588 255.898 118.685 255.777 118.836C255.657 118.987 255.469 119.092 255.325 119.265C255.132 119.459 254.92 119.633 254.693 119.784C254.553 119.526 254.469 119.241 254.444 118.949C254.436 118.661 254.484 118.375 254.587 118.106C254.708 117.83 254.873 117.575 255.077 117.353C255.307 117.134 255.559 116.939 255.83 116.773C256.338 116.519 256.892 116.369 257.459 116.334C258.026 116.299 258.595 116.38 259.13 116.57C260.102 116.877 261.01 117.356 261.812 117.985C262.612 118.583 263.245 119.376 263.65 120.289L263.394 120.439Z" fill="#332066"/>
<path d="M272.042 116.901C272.042 118.406 275.809 118.03 277.384 117.887C280.566 117.586 283.777 117.818 286.883 118.572C288.174 118.789 289.379 119.359 290.364 120.22C290.286 118.99 289.861 117.808 289.136 116.81C288.239 115.809 286.838 115.471 285.52 115.215C282.215 114.496 278.836 114.18 275.455 114.274C275.455 114.274 272.042 114.236 272.042 116.901Z" fill="#FEDAC9"/>
<path d="M264.667 113.069C262.776 111.564 259.898 109.9 257.48 109.848C254.863 109.877 252.328 110.768 250.271 112.384C250.436 112.249 257.57 113.273 261.616 115.358C265.985 117.616 266.302 114.372 264.667 113.069Z" fill="#FEDAC9"/>
<path d="M306.44 117.813C305.377 118.299 304.492 119.104 303.909 120.116C300.542 124.835 298.678 130.46 298.56 136.255C298.56 140.086 304.707 140.372 304.707 140.372C308.278 140.244 311.073 137.196 312.64 133.996C314.358 130.519 314.9 124.813 314.644 121.817C314.486 120.071 310.674 116.284 306.44 117.813Z" fill="#7BE0AD"/>
<path d="M304.685 138.113C293.166 156.932 271.907 156.269 269.556 155.291" stroke="#7BE0AD" stroke-width="3" stroke-miterlimit="10"/>
<path d="M274.255 155.452C274.338 154.275 272.785 153.208 270.788 153.069C268.791 152.929 267.105 153.769 267.023 154.946C266.941 156.122 268.493 157.189 270.49 157.329C272.487 157.469 274.173 156.628 274.255 155.452Z" fill="#7BE0AD"/>
<path d="M310.237 121.816C309.526 122.93 308.964 124.132 308.565 125.392C308.128 126.641 307.736 127.899 307.374 129.156C307.013 130.413 306.681 131.7 306.373 132.987C306.034 134.271 305.782 135.576 305.619 136.894C305.485 135.553 305.535 134.201 305.77 132.874C305.974 131.548 306.26 130.235 306.629 128.945C306.997 127.66 307.455 126.402 308 125.181C308.51 123.92 309.271 122.775 310.237 121.816Z" fill="#7C3AED"/>
</svg>
