<svg width="330" height="240" viewBox="0 0 330 240" fill="none" xmlns="http://www.w3.org/2000/svg">
<path d="M41.6343 107.112C33.5378 95.5298 27.6647 81.9414 27.5775 67.8172C27.4903 53.6929 33.9551 39.0765 46.0126 31.7246C58.0701 24.3728 75.6457 26.1173 84.3401 37.251C85.8971 39.2447 87.1987 41.6932 86.8313 44.1916C86.0839 49.0949 78.6539 50.6027 75.1537 47.0887C71.6535 43.5748 72.1144 37.4379 75.0104 33.3819C77.9065 29.326 82.6024 27.0456 87.2735 25.3759C103.828 19.4571 122.151 19.7 139.234 23.9055C156.318 28.111 172.218 36.1357 187.134 45.4813C196.987 51.6369 207.575 60.5214 206.802 72.1161C208.247 59.0324 218.605 48.6712 229.522 41.2758C239.487 34.5408 250.636 29.1951 262.531 27.7372C274.427 26.2793 287.225 29.0581 296.293 36.9457C311.988 50.5902 312.636 74.9946 307.099 95.0439C305.941 99.2307 304.433 103.573 301.158 106.414C297.882 109.255 292.307 109.891 289.424 106.645C288.331 105.317 287.678 103.682 287.555 101.966C286.802 94.3959 294.45 87.7419 302.048 87.9288C309.646 88.1157 316.342 93.7168 319.723 100.533C323.105 107.349 323.697 115.193 323.579 122.8C323.448 131.573 320.465 193.858 247.54 195.97" stroke="#7C3AED" stroke-miterlimit="10" stroke-dasharray="12 12"/>
<path d="M63.6445 227.065C60.424 228.75 57.6492 231.176 55.548 234.143C54.838 235.133 54.2339 236.566 55.0373 237.482C55.3059 237.723 55.6202 237.907 55.9616 238.024C56.3029 238.141 56.6643 238.188 57.0241 238.161C60.4433 238.261 63.769 237.071 66.9142 235.725C72.6861 233.27 78.2035 230.254 83.3874 226.722C84.1403 226.274 84.7797 225.658 85.2559 224.922C85.4897 224.548 85.5944 224.108 85.5539 223.669C85.5134 223.23 85.3299 222.816 85.0316 222.492C84.2594 221.8 83.0262 222.081 82.0733 221.676" fill="#332066"/>
<path d="M67.3311 177.26C68.8277 176.427 70.5579 176.114 72.2513 176.369C72.925 176.511 73.5615 176.792 74.1194 177.196C74.6773 177.6 75.1442 178.116 75.4899 178.712C76.1701 179.908 76.6676 181.2 76.9659 182.543C79.1796 190.782 80.6758 199.198 81.4377 207.695C82.0605 214.549 82.21 221.577 84.4209 228.106C82.7082 235.234 75.4961 238.168 61.9127 239.103C62.1245 237.352 61.7819 224.193 60.4553 222.218C57.7025 219.209 58.2506 218.25 57.9641 215.577C57.6278 214.268 55.3982 213.782 54.2896 213.377C44.8914 209.963 35.1943 206.985 26.6806 201.714L32.7841 194.269L30.5171 191.945C25.7401 192.269 21.7978 191.322 20.0602 188.954L24.4198 181.833C21.586 183.116 19.2007 182.307 18.2852 179.017C20.9944 178.774 23.5977 173.154 32.2983 172.406C32.8401 172.357 38.9748 180.3 39.5291 180.244C48.3293 179.434 58.4437 178.107 67.3311 177.26Z" fill="#B25E4F"/>
<path d="M67.5245 197.228C69.2248 196.057 70.0781 193.203 69.4428 187.976C72.5568 189.614 74.6557 187.004 76.9663 182.543C76.9663 182.543 68.7702 176.431 67.3315 177.26C58.444 178.107 48.3297 179.434 39.5232 180.244C38.9689 180.3 32.0121 170.898 31.4641 170.973C31.4641 170.973 27.1916 179.552 24.4824 179.802L25.1613 190.069C30.3306 188.854 30.6793 187.147 33.2578 184.948L32.7907 194.293L31.4641 196.237C30.7416 201.066 37.1316 200.736 49.9863 199.508C57.6655 198.748 65.7994 198.412 67.5245 197.228Z" fill="#332066"/>
<path d="M28.3497 160.12C27.9075 159.787 27.3772 159.592 26.8251 159.56C26.2729 159.527 25.7233 159.658 25.245 159.935C24.7666 160.213 24.3806 160.626 24.1353 161.122C23.89 161.618 23.7961 162.175 23.8655 162.724C24.0107 163.486 24.321 164.207 24.7748 164.836C26.1861 167.1 27.7751 169.248 29.5268 171.26" fill="#B25E4F"/>
<path d="M56.5787 120.84L30.8941 123.174C27.7254 123.462 25.3901 126.265 25.6779 129.435L31.5128 193.698C31.8006 196.868 34.6026 199.204 37.7713 198.916L63.4559 196.582C66.6246 196.295 68.96 193.491 68.6722 190.322L62.8372 126.058C62.5494 122.888 59.7474 120.552 56.5787 120.84Z" fill="#7BE0AD"/>
<path d="M56.2547 122.089L31.4384 124.344C28.6021 124.602 26.5116 127.111 26.7692 129.948L32.4943 193.002C32.7519 195.839 35.2601 197.93 38.0965 197.673L62.9128 195.418C65.7492 195.16 67.8396 192.651 67.582 189.813L61.8569 126.76C61.5993 123.922 59.0911 121.831 56.2547 122.089Z" fill="#7C3AED"/>
<path d="M18.0611 178.239C18.3725 179.603 19.0763 181.017 20.4403 181.354C22.5017 181.871 24.9805 180.357 26.6683 179.049C27.5955 178.396 28.399 177.584 29.0412 176.65C29.4547 175.927 29.7432 175.139 29.8945 174.32C30.1778 173.324 30.1778 172.269 29.8945 171.273C29.7373 170.781 29.4469 170.343 29.0555 170.006C28.664 169.67 28.1869 169.448 27.6773 169.367C26.7119 169.279 25.8088 169.828 25.0054 170.357C21.935 172.332 17.6625 173.965 18.0611 178.239Z" fill="#B25E4F"/>
<path d="M19.1387 186.643C19.217 187.319 19.4491 187.968 19.8173 188.541C20.1854 189.113 20.6798 189.593 21.2624 189.945C23.0686 190.911 25.3979 190.331 26.986 189.029C28.5742 187.727 30.6481 185.802 31.4827 183.926C33.0397 180.413 30.7291 179.316 29.6143 179.403C24.4824 179.802 18.3726 181.74 19.1387 186.643Z" fill="#B25E4F"/>
<path d="M25.6781 192.518C24.7309 193.089 23.9527 193.902 23.4235 194.873C22.9435 196.131 22.9435 197.521 23.4235 198.779C23.8085 200.277 24.7657 201.563 26.0891 202.362C27.4468 203.066 29.3651 202.798 30.1685 201.496C30.4802 200.82 30.7002 200.105 30.8224 199.371C31.2273 197.982 32.068 196.779 32.5787 195.415C33.0286 194.143 33.1191 192.772 32.8403 191.452C32.7968 191.109 32.6851 190.778 32.5118 190.478C32.3386 190.179 32.1072 189.917 31.8314 189.708C31.5061 189.54 31.1425 189.459 30.7766 189.474C30.4107 189.49 30.0551 189.6 29.745 189.795C29.1035 190.138 27.4032 191.309 25.6781 192.518Z" fill="#B25E4F"/>
<path d="M67.4933 177.235C65.5564 179.041 65.5626 181.16 65.8678 182.892C66.0231 183.762 66.3596 184.59 66.8552 185.322C67.3509 186.054 67.9948 186.674 68.7452 187.141C69.4588 187.612 70.301 187.849 71.1554 187.82C72.7872 187.702 74.0079 186.337 75.048 185.066C75.4216 184.611 76.5925 182.998 76.9662 182.543C75.9822 175.453 70.2523 175.116 67.4933 177.235Z" fill="#B25E4F"/>
<path d="M56.6002 239.719C56.6002 239.557 55.0059 237.482 55.0059 237.482C55.0059 237.482 69.1747 240.492 85.5234 223.526C86.6631 229.601 87.672 236.317 89.1855 238.168C92.9223 224.573 100.396 177.11 105.908 171.403C113.139 163.927 127.264 158.693 137.247 155.827L157.57 149.952C157.439 146.475 159.27 143.223 161.387 140.457C165.635 134.899 172.255 129.984 178.652 127.143L224.914 131.653C230.916 136.29 235.952 142.057 239.736 148.631C240.481 150.13 241.433 151.516 242.564 152.749C243.619 153.67 244.795 154.444 246.058 155.048L273.1 169.534C277.46 171.858 281.819 174.194 285.656 177.241C287.631 178.684 289.305 180.5 290.582 182.587C292.096 185.259 292.538 188.381 292.905 191.428C293.528 196.262 299.395 234.866 299.756 239.719H56.6002Z" fill="#FEDAC9"/>
<path d="M232.886 152.643L173.196 143.453C171.215 135.777 173.345 131.036 178.284 128.301L226.502 134.002C230.893 138.001 236.903 144.898 232.886 152.643Z" fill="#332066"/>
<path d="M125.358 239.72H122.244C122.244 239.72 123.122 217.235 120.375 204.568C124.162 216.419 125.358 239.72 125.358 239.72Z" fill="#332066"/>
<path d="M262.612 239.72H267.595C267.595 239.72 270.123 233.633 273.574 218.842C269.768 231.901 265.315 236.343 262.612 239.72Z" fill="#332066"/>
<path d="M157.775 149.859C157.21 152.653 156.81 155.479 156.58 158.32C156.363 161.156 156.305 164.001 156.405 166.843C156.516 169.681 156.805 172.509 157.271 175.31C157.734 178.104 158.358 180.869 159.139 183.591L158.074 183.622C158.949 179.787 160.257 176.064 161.973 172.525C162.785 170.696 163.831 168.981 165.087 167.423C165.756 166.624 166.556 165.945 167.454 165.417C168.394 164.863 169.479 164.607 170.568 164.681L171.147 164.731L171.11 165.304C170.924 168.822 172.082 172.278 174.348 174.974C175.507 176.298 176.87 177.43 178.384 178.326C179.919 179.251 181.508 180.083 183.142 180.818C186.418 182.332 189.8 183.84 192.696 186.151C195.563 188.48 197.845 191.448 199.36 194.818C200.86 198.149 201.953 201.649 202.617 205.241C203.312 208.809 203.803 212.414 204.087 216.038C204.639 223.274 204.806 230.535 204.585 237.789C204.585 234.162 204.585 230.536 204.424 226.91C204.262 223.284 204.1 219.671 203.738 216.069C203.399 212.466 202.858 208.884 202.119 205.341C201.407 201.806 200.284 198.366 198.775 195.092C197.279 191.832 195.039 188.968 192.235 186.731C189.42 184.519 186.094 183.067 182.793 181.578C181.109 180.861 179.466 180.05 177.873 179.148C177.072 178.682 176.3 178.166 175.563 177.603C174.825 177.02 174.145 176.367 173.532 175.653C171.051 172.756 169.766 169.022 169.939 165.211L170.481 165.834C168.762 165.691 167.174 166.806 166.003 168.208C164.835 169.696 163.846 171.317 163.057 173.036C161.351 176.482 160.041 180.111 159.152 183.852L158.654 185.921L158.081 183.877C157.301 181.113 156.714 178.299 156.324 175.454C155.936 172.606 155.728 169.736 155.701 166.862C155.64 161.125 156.35 155.407 157.813 149.859H157.775Z" fill="#332066"/>
<path d="M204.592 192.954C207.087 192.642 209.527 191.984 211.841 190.998C214.134 190.005 216.293 188.728 218.269 187.198C222.179 184.09 225.39 180.192 227.692 175.759C228.25 174.581 228.93 173.466 229.722 172.432C230.164 171.896 230.69 171.435 231.279 171.067C231.877 170.711 232.529 170.457 233.21 170.313C234.547 170.046 235.93 170.106 237.239 170.488C238.499 170.864 239.705 171.402 240.827 172.089C241.934 172.746 243.003 173.466 244.028 174.245C245.061 175.044 246.005 175.952 246.843 176.955C248.509 178.979 249.679 181.364 250.262 183.92L249.197 183.864C250.158 181.04 250.514 178.045 250.243 175.073C249.987 172.067 249.36 169.103 248.375 166.251C247.395 163.377 246.223 160.571 244.869 157.853C243.523 155.124 242.004 152.476 240.422 149.865C242.176 152.362 243.792 154.954 245.261 157.628C246.768 160.31 248.06 163.108 249.122 165.996C250.204 168.891 250.924 171.908 251.265 174.98C251.618 178.101 251.282 181.261 250.281 184.238L249.658 185.989L249.21 184.182C248.638 181.803 247.526 179.588 245.959 177.709C245.167 176.786 244.28 175.951 243.312 175.217C242.346 174.488 241.269 173.815 240.198 173.173C239.172 172.528 238.066 172.019 236.909 171.659C235.788 171.324 234.603 171.26 233.453 171.472C232.897 171.594 232.365 171.804 231.877 172.095C231.391 172.394 230.957 172.771 230.594 173.21C229.844 174.178 229.199 175.222 228.669 176.326C226.257 180.865 222.851 184.801 218.705 187.839C214.593 190.873 209.691 192.65 204.592 192.954Z" fill="#332066"/>
<path d="M243.28 95.543C243.28 95.543 248.175 99.1379 248.68 101.044C249.022 102.328 249.06 103.748 249.851 104.783C250.947 106.259 253.145 106.583 254.21 108.078C255.275 109.574 254.833 111.418 255.032 113.138C255.163 114.477 255.655 115.754 255.867 117.075C256.079 118.396 256.035 119.873 255.244 120.938C253.812 122.807 251.015 122.838 249.309 124.402C247.247 126.271 246.774 129.262 245.354 131.586C243.349 134.869 238.665 136.663 235.458 134.551C234.818 134.034 234.144 133.561 233.44 133.137C231.646 132.265 229.516 133.025 227.536 132.838C225.405 132.534 223.475 131.418 222.148 129.723C220.722 128.041 220.118 125.735 218.679 124.147C221.513 119.598 242.19 95.8669 243.062 95.5679C243.134 95.5551 243.207 95.5468 243.28 95.543Z" fill="#332066"/>
<path d="M232.886 152.644C222.298 171.074 213.765 186.288 200.4 194.768C187.987 172.338 178.272 177.323 173.196 143.454C176.453 135.866 179.735 131.673 178.633 111.648H228.214C224.895 134.14 226.19 145.866 232.886 152.644Z" fill="#B25E4F"/>
<path d="M201.01 146.146C193.275 146.146 184.263 141.049 178.658 124.72L227.978 117.424C224.01 134.607 210.097 146.146 201.01 146.146Z" fill="#332066"/>
<path d="M169.528 114.869C168.282 111.685 168.506 110.021 167.827 108.252C166.924 105.934 164.713 105.928 162.49 104.838C158.188 102.705 154.784 99.1125 152.886 94.7009C150.956 90.1838 150.738 85.1061 149.025 80.5018C148.253 78.4334 147.156 76.4396 146.926 74.2715C146.415 69.9102 149.262 65.8542 150.214 61.5366C150.981 58.0787 150.538 54.3654 151.852 51.0758C153.982 45.7488 160.005 43.1259 163.387 38.4905C165.479 35.612 166.501 31.9984 168.992 29.4253C173.632 24.5843 181.479 25.1076 187.969 26.8023C193.001 21.033 205.731 20.1109 212.495 23.6871C214.276 24.6279 215.908 25.8927 217.82 26.5219C221.557 27.768 225.836 26.4285 229.392 28.0546C233.751 30.0545 235.24 35.5622 238.84 38.7521C241.717 41.3066 246.002 42.4405 247.771 45.8548C249.87 49.892 247.329 55.0134 248.842 59.3061C250.088 62.7764 253.7 65.0007 254.802 68.5146C256.341 73.4241 252.392 78.3897 252.311 83.5298C252.243 87.5609 254.373 92.2523 251.638 95.2117C250.225 96.7382 247.902 97.1743 246.569 98.7568C244.887 100.732 245.062 104.109 242.832 105.423C241.767 106.046 240.428 105.997 239.319 106.532C236.828 107.747 236.573 111.149 235.209 113.573C234.527 114.753 233.545 115.732 232.363 116.41C231.18 117.087 229.839 117.439 228.476 117.429C207.276 117.224 174.386 123.361 169.528 114.869Z" fill="#332066"/>
<path d="M165.94 95.3246C166.526 102.035 169.565 108.265 172.648 114.259C175.438 119.66 178.347 125.081 182.426 129.585C186.505 134.09 191.911 137.685 197.946 138.383C204.374 139.155 210.882 136.595 215.933 132.545C220.984 128.495 224.746 123.062 227.978 117.449C231.21 111.835 234.069 105.785 235.414 99.3806C236.741 92.8752 236.937 86.1898 235.994 79.6178C235.458 75.512 234.48 71.2006 231.584 68.2474C229.498 66.1166 226.602 64.9142 224.465 62.8457C221.812 60.2975 220.374 56.5281 217.272 54.5531C214.893 53.0453 211.947 52.8522 209.175 52.4098C204.193 51.6061 199.267 49.7806 195.331 46.5782C190.143 42.3665 183.211 44.8898 179.138 49.5127C177.307 51.5999 176.061 54.1419 174.199 56.1979C172.847 57.6869 171.203 58.8832 169.839 60.366C168.225 62.1739 167.073 64.3453 166.48 66.6951C165.887 69.045 165.87 71.5035 166.432 73.861C168.157 80.7954 165.305 88.1036 165.94 95.3246Z" fill="#B25E4F"/>
<path d="M218.331 112.221C218.331 112.221 207.033 122.19 202.318 122.233C197.454 122.277 185.627 112.221 185.627 112.221L199.864 111.523L218.331 112.221Z" fill="#332066"/>
<path d="M215.709 112.147C214.768 113.343 211.754 115.019 202.256 115.019C191.525 115.019 188.779 112.888 188.081 111.798L199.865 111.568C199.865 111.568 216.226 111.468 215.709 112.147Z" fill="white"/>
<path d="M208.359 120.868H195.436L193.032 116.395C198.55 117.435 206.161 117.379 210.564 116.538L208.359 120.868Z" fill="white"/>
<path d="M202.804 124.239C212.395 124.021 216.431 117.716 218.331 112.221C207.12 120.563 195.318 119.454 185.627 112.221C187.67 117.828 193.63 124.445 202.804 124.239Z" fill="#FEA394"/>
<path d="M197.523 108.857C198.98 109.044 200.774 110.184 202.244 110.159C204.349 110.115 205.09 109.536 207.158 109.15C211.081 108.377 214.563 110.863 218.331 112.221C214.015 114.215 212.726 111.436 207.824 113.305C204.666 114.508 199.659 114.751 195.991 113.237C193.35 112.146 187.483 113.748 185.621 112.221C188.567 110.57 194.185 108.408 197.523 108.857Z" fill="#E58A7F"/>
<path d="M205.326 82.1035C205.688 83.5926 205.868 85.0629 206.105 86.5084C206.342 87.9538 206.553 89.3744 206.846 90.77C207.129 92.1655 207.495 93.5428 207.942 94.8945C208.391 96.2589 208.964 97.6109 209.437 99.075C208.309 98.0378 207.353 96.8287 206.603 95.4926C205.852 94.1294 205.317 92.6583 205.015 91.1313C204.713 89.633 204.59 88.1042 204.648 86.5769C204.694 85.064 204.922 83.5621 205.326 82.1035Z" fill="#332066"/>
<path d="M198.382 103.467C197.591 103.099 196.943 102.719 196.321 102.451C196.159 102.389 196.009 102.327 195.86 102.277C195.729 102.227 195.593 102.191 195.455 102.171C195.14 102.107 194.822 102.059 194.502 102.028C194.203 102.007 193.904 102.007 193.605 102.028C193.481 102.028 193.387 102.028 193.368 102.028C193.35 102.028 193.418 101.841 193.368 101.847C193.331 101.953 193.319 101.99 193.263 101.99C193.207 101.99 193.219 102.096 193.35 102.152C193.707 102.272 194.081 102.337 194.458 102.345C194.166 102.697 193.769 102.946 193.325 103.056C193.156 103.091 192.981 103.087 192.813 103.044C192.646 103 192.491 102.919 192.36 102.806C192.105 102.557 191.946 102.226 191.911 101.872C191.894 101.659 191.928 101.445 192.011 101.249C192.106 101.05 192.244 100.876 192.416 100.738C192.66 100.542 192.945 100.401 193.25 100.327C193.712 100.21 194.19 100.174 194.664 100.221C195.115 100.256 195.559 100.352 195.984 100.507C196.219 100.593 196.442 100.706 196.651 100.844C196.838 100.971 197.015 101.113 197.18 101.268C197.804 101.854 198.225 102.625 198.382 103.467Z" fill="#332066"/>
<path d="M205.065 103.579C205.5 102.814 206.121 102.171 206.871 101.71C207.614 101.23 208.454 100.921 209.331 100.807C209.777 100.741 210.23 100.741 210.676 100.807H210.845C210.932 100.812 211.02 100.823 211.106 100.838C211.286 100.875 211.457 100.945 211.611 101.044C211.779 101.148 211.92 101.292 212.022 101.462C212.124 101.632 212.183 101.824 212.196 102.022C212.199 102.251 212.117 102.473 211.966 102.645C211.839 102.78 211.677 102.877 211.499 102.925C211.244 102.981 210.981 102.981 210.726 102.925C210.299 102.829 209.893 102.654 209.53 102.408C209.934 102.406 210.336 102.366 210.732 102.29C210.887 102.263 211.032 102.199 211.156 102.103C211.193 102.065 211.2 102.034 211.156 102.034C211.112 102.034 211.094 102.084 211.081 102.109C211.069 102.134 211.025 102.109 210.975 102.146C210.953 102.14 210.929 102.14 210.907 102.146C210.907 102.146 210.907 102.146 210.863 102.146L210.726 102.184L209.661 102.483C208.957 102.676 208.26 102.894 207.513 103.106C206.716 103.35 205.895 103.509 205.065 103.579Z" fill="#332066"/>
<path d="M182.943 86.3889C184.529 86.3889 185.814 85.103 185.814 83.5167C185.814 81.9305 184.529 80.6445 182.943 80.6445C181.357 80.6445 180.072 81.9305 180.072 83.5167C180.072 85.103 181.357 86.3889 182.943 86.3889Z" fill="#332066"/>
<path d="M190.728 85.0324C189.258 84.5963 187.994 84.1353 186.761 83.83C185.582 83.5262 184.376 83.3384 183.161 83.2693C181.915 83.2214 180.668 83.2401 179.424 83.3253C178.015 83.4372 176.602 83.4746 175.189 83.4375C176.217 82.3476 177.471 81.4969 178.864 80.9453C180.289 80.358 181.826 80.0921 183.366 80.1665C184.95 80.2545 186.483 80.7549 187.813 81.6182C189.093 82.4522 190.105 83.6377 190.728 85.0324Z" fill="#332066"/>
<path d="M218.667 86.3889C220.253 86.3889 221.538 85.103 221.538 83.5167C221.538 81.9305 220.253 80.6445 218.667 80.6445C217.081 80.6445 215.796 81.9305 215.796 83.5167C215.796 85.103 217.081 86.3889 218.667 86.3889Z" fill="#332066"/>
<path d="M210.882 85.0309C211.512 83.6297 212.536 82.4415 213.828 81.6104C215.158 80.7471 216.691 80.2467 218.275 80.1587C219.814 80.0843 221.352 80.3502 222.777 80.9375C224.17 81.489 225.424 82.3398 226.452 83.4297C225.039 83.4668 223.626 83.4294 222.217 83.3175C220.961 83.2312 219.701 83.2124 218.443 83.2614C217.229 83.331 216.026 83.5188 214.849 83.8222C213.622 84.1088 212.377 84.5947 210.882 85.0309Z" fill="#332066"/>
<path d="M219.969 74.0664C224.546 73.8359 228.893 75.8607 233.047 77.842C230.338 74.6333 226.197 71.5057 222.018 71.1319C216.194 70.6148 208.316 72.5026 208.833 75.5617C209.113 77.2314 210.296 77.2688 211.386 76.9884C214.114 76.2968 217.11 74.2034 219.969 74.0664Z" fill="#332066"/>
<path d="M182.177 74.4396C177.599 74.2153 174.591 76.9941 170.462 78.9691C173.171 75.7604 175.968 71.8851 180.147 71.4926C185.97 70.9755 193.761 72.4833 193.257 75.5424C192.976 77.2121 191.793 77.2495 190.703 76.9691C187.957 76.2962 185.036 74.5829 182.177 74.4396Z" fill="#332066"/>
<path d="M234.654 97.3296C235.096 98.4075 235.688 99.6162 236.822 99.8716C237.955 100.127 238.895 99.3794 239.736 98.6941C240.555 98.1235 241.201 97.339 241.605 96.4262C241.808 95.6723 241.838 94.8819 241.692 94.1148C241.392 91.6346 240.902 89.181 240.228 86.7754C238.03 95.7347 234.175 93.7285 234.654 97.3296Z" fill="#B25E4F"/>
<path d="M167.235 98.153C167.427 98.7716 167.445 99.4313 167.285 100.059C167.126 100.687 166.796 101.258 166.332 101.711C165.855 102.149 165.256 102.433 164.614 102.523C163.972 102.613 163.318 102.506 162.739 102.215C161.387 101.492 160.802 99.8539 160.628 98.3337C160.453 96.8135 160.571 95.2185 160.098 93.7793C162.371 97.6982 165.847 96.2714 167.235 98.153Z" fill="#B25E4F"/>
</svg>
