<svg width="416" height="270" viewBox="0 0 416 270" fill="none" xmlns="http://www.w3.org/2000/svg">
<path d="M258.572 219.243C271.44 234.102 286.801 247.275 305.107 254.494C323.413 261.712 344.876 262.345 362.188 253.071C389.648 238.362 399.856 201.41 390.371 171.775C380.886 142.14 355.717 119.678 327.903 105.662L156.328 23.8017C134.684 13.4816 108.935 5.7811 79.6895 27.9342C71.0033 34.5131 59.7257 46.3312 60.4112 57.8029C60.8783 65.7067 67.1914 73.3846 75.1242 73.7384C80.9852 74.0018 87.0271 69.5983 87.5318 63.7571C87.9914 58.4427 84.1041 53.6327 79.5765 50.8024C67.1989 43.0718 50.0602 46.6699 39.1216 56.3275C28.1829 65.9852 19.8961 80.1066 19.7981 94.7172C19.1879 185.972 66.084 208.787 114.185 213.65" stroke="#7C3AED" stroke-miterlimit="10" stroke-dasharray="12 12"/>
<path d="M352.719 18.1191H122.969V222.443H352.719V18.1191Z" fill="#FEDAC9"/>
<path d="M285.264 48.4844H209.198" stroke="#FEFDFF" stroke-width="3" stroke-miterlimit="10" stroke-linecap="round"/>
<path d="M266.98 57.2539H209.198" stroke="#FEFDFF" stroke-width="3" stroke-miterlimit="10" stroke-linecap="round"/>
<path d="M275.357 66.0156H209.198" stroke="#FEFDFF" stroke-width="3" stroke-miterlimit="10" stroke-linecap="round"/>
<path d="M333.38 58.0735V76.6586H294.522V37.8398H333.38" stroke="#FEFDFF" stroke-width="3" stroke-miterlimit="10" stroke-linecap="round"/>
<path d="M303.02 58.1261L314.17 66.0148L338.232 41.8594" stroke="#7BE0AD" stroke-width="11" stroke-linecap="round" stroke-linejoin="round"/>
<path d="M260.546 105.857H209.198" stroke="#FEFDFF" stroke-width="3" stroke-miterlimit="10" stroke-linecap="round"/>
<path d="M276.947 114.627H209.198" stroke="#FEFDFF" stroke-width="3" stroke-miterlimit="10" stroke-linecap="round"/>
<path d="M271.312 123.389H209.198" stroke="#FEFDFF" stroke-width="3" stroke-miterlimit="10" stroke-linecap="round"/>
<path d="M333.38 115.448V134.041H294.522V95.2148H333.38" stroke="#FEFDFF" stroke-width="3" stroke-miterlimit="10" stroke-linecap="round"/>
<path d="M303.02 115.499L314.17 123.388L338.232 99.2402" stroke="#7BE0AD" stroke-width="11" stroke-linecap="round" stroke-linejoin="round"/>
<path d="M237.848 163.238H209.198" stroke="#FEFDFF" stroke-width="3" stroke-miterlimit="10" stroke-linecap="round"/>
<path d="M275.357 172H209.198" stroke="#FEFDFF" stroke-width="3" stroke-miterlimit="10" stroke-linecap="round"/>
<path d="M264.388 180.77H209.198" stroke="#FEFDFF" stroke-width="3" stroke-miterlimit="10" stroke-linecap="round"/>
<path d="M333.38 172.822V191.414H294.522V152.596H333.38" stroke="#FEFDFF" stroke-width="3" stroke-miterlimit="10" stroke-linecap="round"/>
<path d="M303.02 172.874L314.17 180.771L338.232 156.615" stroke="#7BE0AD" stroke-width="11" stroke-linecap="round" stroke-linejoin="round"/>
<path d="M63.2815 130.743C63.2804 120.311 65.7512 110.027 70.4918 100.733C75.2324 91.4385 82.108 83.3977 90.5561 77.2684C99.0042 71.1392 108.785 67.0956 119.097 65.4687C129.41 63.8418 139.961 64.6776 149.888 67.908C159.815 71.1383 168.836 76.6712 176.212 84.054C183.588 91.4368 189.109 100.46 192.325 110.384C195.541 120.309 196.359 130.853 194.712 141.155C193.066 151.456 189.002 161.221 182.853 169.652C173.414 183.864 148.885 199.904 148.885 209.547V220.53C148.885 221.582 148.467 222.592 147.722 223.337C146.978 224.082 145.968 224.502 144.915 224.504H113.892C112.837 224.502 111.827 224.083 111.081 223.338C110.336 222.593 109.916 221.583 109.914 220.53V209.517C109.914 199.904 85.3924 183.864 75.9529 169.622C67.7025 158.336 63.2642 144.718 63.2815 130.743Z" fill="#F6AE2D"/>
<path d="M138.18 223.375C138.104 221.719 136.922 195.2 139.046 171.955C133.482 172.587 127.863 172.587 122.299 171.955C124.423 195.2 123.241 221.719 123.165 223.375L121.998 223.322C121.998 222.916 123.241 195.471 121.071 171.797C101.484 169.072 92.6773 157.969 91.1028 147.491C90.1837 141.371 92.278 135.274 96.0824 133.001C97.2966 132.311 98.6417 131.884 100.031 131.745C101.421 131.606 102.824 131.76 104.151 132.195C108.814 133.535 113.259 137.555 116.024 142.952C119.21 149.185 121.101 159.512 122.186 170.803C127.824 171.466 133.521 171.466 139.159 170.803C140.244 159.565 142.135 149.222 145.329 142.952C148.094 137.555 152.531 133.535 157.202 132.195C158.527 131.76 159.929 131.606 161.318 131.745C162.706 131.884 164.05 132.312 165.263 133.001C169.029 135.259 171.161 141.371 170.242 147.491C168.668 157.969 159.884 169.072 140.274 171.797C138.104 195.478 139.332 222.916 139.347 223.322L138.18 223.375ZM160.464 132.88C159.464 132.886 158.47 133.033 157.511 133.317C153.149 134.567 148.975 138.368 146.361 143.479C143.287 149.501 141.449 159.573 140.379 170.578C159.168 167.875 167.575 157.292 169.082 147.295C169.918 141.71 168.02 136.004 164.66 133.979C163.388 133.238 161.937 132.858 160.464 132.88ZM100.866 132.88C99.3914 132.866 97.9406 133.254 96.6701 134.002C93.3101 136.012 91.3966 141.733 92.2479 147.318C93.7546 157.314 102.162 167.898 120.951 170.6C119.881 159.573 118.043 149.478 114.976 143.502C112.355 138.391 108.196 134.589 103.819 133.34C102.864 133.049 101.872 132.895 100.874 132.88H100.866Z" fill="white" stroke="white" stroke-width="2" stroke-miterlimit="10"/>
<path d="M151.717 214.207H109.628V234.252C109.628 237.526 110.561 240.732 112.317 243.496C113.949 246.066 116.205 248.182 118.875 249.648C121.544 251.114 124.541 251.882 127.588 251.882H133.757C136.804 251.882 139.801 251.114 142.47 249.648C145.14 248.182 147.396 246.066 149.028 243.496C150.784 240.732 151.717 237.526 151.717 234.252V214.207Z" fill="#7C3AED"/>
<path d="M109.628 227.727C109.748 227.734 109.869 227.734 109.989 227.727L152.079 223.369C152.421 223.338 152.753 223.237 153.054 223.073C153.356 222.909 153.621 222.685 153.832 222.415C154.044 222.145 154.198 221.834 154.285 221.503C154.373 221.171 154.391 220.825 154.339 220.486C154.241 219.79 153.879 219.159 153.328 218.723C152.777 218.287 152.078 218.08 151.378 218.144L109.236 222.488C108.894 222.52 108.563 222.621 108.262 222.785C107.961 222.95 107.697 223.174 107.485 223.443C107.274 223.713 107.119 224.023 107.032 224.355C106.944 224.686 106.925 225.032 106.976 225.371C107.067 226.014 107.383 226.604 107.869 227.035C108.355 227.467 108.978 227.712 109.628 227.727Z" fill="#D0CFEC"/>
<path d="M109.628 236.895C109.748 236.903 109.869 236.903 109.989 236.895L152.079 232.537C152.42 232.505 152.752 232.404 153.053 232.239C153.354 232.075 153.618 231.851 153.83 231.581C154.041 231.312 154.196 231.002 154.283 230.67C154.371 230.339 154.39 229.993 154.339 229.654C154.243 228.958 153.881 228.325 153.33 227.889C152.778 227.453 152.079 227.246 151.378 227.313L109.236 231.664C108.894 231.696 108.563 231.797 108.262 231.962C107.961 232.126 107.697 232.35 107.485 232.62C107.274 232.889 107.119 233.199 107.032 233.531C106.944 233.862 106.925 234.208 106.976 234.547C107.067 235.189 107.384 235.778 107.87 236.208C108.355 236.639 108.979 236.882 109.628 236.895Z" fill="#D0CFEC"/>
<path d="M111.308 245.98C111.428 245.987 111.549 245.987 111.669 245.98L151.597 241.847C151.938 241.815 152.27 241.714 152.571 241.549C152.872 241.385 153.136 241.161 153.348 240.891C153.559 240.622 153.713 240.311 153.801 239.98C153.888 239.649 153.907 239.303 153.857 238.964C153.759 238.268 153.397 237.637 152.846 237.201C152.294 236.765 151.596 236.558 150.896 236.623L110.969 240.756C110.627 240.788 110.296 240.889 109.995 241.053C109.694 241.217 109.429 241.441 109.218 241.711C109.006 241.981 108.852 242.291 108.765 242.622C108.677 242.954 108.658 243.3 108.709 243.639C108.802 244.27 109.113 244.848 109.587 245.275C110.062 245.703 110.67 245.952 111.308 245.98Z" fill="#D0CFEC"/>
<path d="M184.865 116.154C187.08 124.088 187.576 132.403 186.319 140.543" stroke="white" stroke-width="7" stroke-miterlimit="10" stroke-linecap="round"/>
<path d="M129.396 74.1602C139.838 74.1573 150.084 76.9912 159.038 82.3584C167.993 87.7257 175.319 95.4244 180.232 104.631" stroke="white" stroke-width="7" stroke-miterlimit="10" stroke-linecap="round"/>
</svg>
