<svg width="480" height="326" viewBox="0 0 480 326" fill="none" xmlns="http://www.w3.org/2000/svg">
<g clip-path="url(#clip0_8345_44781)">
<path opacity="0.4" d="M0 87.5425L85.3858 65.9906C88.6815 65.1593 92.139 65.5685 95.1927 67.1528L206.101 124.685C209.859 126.635 214.082 127.259 218.182 126.472L243.61 121.587C246.97 120.941 250.429 121.481 253.488 123.127L311.287 154.232H330.278L341.16 163H0V87.5425Z" fill="#E0E0E0"/>
<path opacity="0.4" d="M0 113.971L56.4568 100.928C61.4903 99.7657 66.7722 100.338 71.4379 102.553L146.888 138.374C149.186 139.464 151.767 139.815 154.273 139.373L172.751 136.125C175.262 135.683 177.85 136.053 180.137 137.179L220.993 157.303H234.475L242.201 163H0V113.971Z" fill="#E0E0E0"/>
<path d="M480 163H0V326H480V163Z" fill="url(#paint0_linear_8345_44781)"/>
<path opacity="0.4" d="M0 287.064L341.159 163H350.322L166.593 326H0V287.064Z" fill="#E0E0E0"/>
<path d="M257.064 326L329.36 264.892L374.545 273.77L430.275 211.617L480 218.314V326H257.064Z" fill="url(#paint1_linear_8345_44781)"/>
<path opacity="0.4" d="M359.085 162.92L387.893 153.087L411.053 158.004L446.641 137.232L458.502 146.051L480 128.884V163L359.085 162.92Z" fill="#E0E0E0"/>
<rect width="479" height="148" transform="matrix(1 0 0 -1 1 326)" fill="url(#paint2_linear_8345_44781)"/>
<rect width="344" height="133" transform="matrix(-4.37114e-08 1 1 4.37114e-08 -0.000244141 18)" fill="url(#paint3_linear_8345_44781)"/>
<rect x="480" y="18" width="344" height="133" transform="rotate(90 480 18)" fill="url(#paint4_linear_8345_44781)"/>
<path d="M71.9998 288.457L151.335 257.289L172.022 256.735L143.202 274.329L186.005 256.067L206.347 257.28L175.553 288.457H71.9998Z" fill="url(#paint5_linear_8345_44781)"/>
<path d="M186.058 252.895C186.032 253.997 185.999 255.07 186.004 256.067C186.007 256.66 186.429 257.174 187.014 257.29C188.494 257.583 190.038 257.562 191.557 257.536C196.486 257.451 201.416 257.366 206.347 257.281C206.854 257.273 207.421 257.242 207.702 256.735C207.88 256.414 207.856 256.023 207.686 255.696C207.342 255.039 206.649 254.763 205.99 254.519C202.79 253.334 199.316 252.144 196.914 249.854C196.839 249.782 196.764 249.707 196.689 249.634C196.182 249.122 195.729 248.556 195.34 247.925C195.041 247.438 194.786 246.911 194.64 246.362C194.59 246.173 194.55 245.981 194.529 245.783C194.519 245.708 194.511 245.632 194.508 245.555L192.767 245.479L192.265 245.456L185.538 245.159C185.997 246.858 186.097 248.85 186.09 250.851C186.089 251.536 186.074 252.22 186.058 252.895Z" fill="#2A2D49"/>
<path d="M151.335 257.29C152.814 257.583 154.359 257.562 155.878 257.536C160.807 257.451 165.737 257.366 170.668 257.282C171.175 257.273 171.742 257.243 172.023 256.736C172.201 256.414 172.177 256.023 172.007 255.696C171.663 255.039 170.97 254.763 170.311 254.519C167.111 253.334 163.637 252.144 161.235 249.854C161.16 249.782 161.085 249.707 161.01 249.634C160.503 249.122 160.05 248.556 159.661 247.925C159.362 247.438 159.107 246.912 158.961 246.362C158.911 246.173 158.871 245.981 158.85 245.784C158.84 245.709 158.832 245.632 158.829 245.555L157.088 245.479L156.586 245.456L152.723 237.327C153.182 239.026 151.597 246.286 151.26 248.636C150.318 255.202 150.75 257.174 151.335 257.29Z" fill="#2A2D49"/>
<path d="M155.247 248.636C150.709 247.673 150.709 246.238 150.709 246.238C150.709 246.238 156.442 218.846 158.016 209.654C160.055 197.764 167.498 157.626 167.498 157.626L203.483 161.886C203.483 161.886 202.343 195.707 201.513 206.945C200.751 217.252 197.112 248.064 197.112 248.064C197.112 248.064 196.955 249.105 192.708 249.006C186.056 248.848 185.535 247.303 185.535 247.303C185.535 247.303 186.177 223.213 186 215.467C185.827 207.871 184.135 185.936 184.135 185.936C184.135 185.936 178.162 205.281 175.891 211.637C172.55 220.988 161.309 248.585 161.309 248.585C161.309 248.585 160.227 249.694 155.247 248.636Z" fill="#515B60"/>
<path d="M176.915 80.9888C176.915 80.9888 171.696 83.2691 173.156 89.5577C174.461 95.1747 182.679 99.5072 185.53 97.9815C188.381 96.4558 177.989 81.0328 176.915 80.9888Z" fill="#282F35"/>
<path d="M189.471 108.228C194.727 107.113 191.954 104.541 191.359 103.502C191.328 103.447 191.296 103.387 191.265 103.323C191.072 102.932 190.879 102.392 190.696 101.779C190.521 101.204 190.356 100.563 190.207 99.9326C190.199 99.8951 190.189 99.8576 190.181 99.8185C190.065 99.3213 189.957 98.8323 189.864 98.3841C189.757 97.8771 189.671 97.424 189.604 97.0687C189.514 96.5927 189.465 96.2977 189.465 96.2977L184.814 95.1175L184.278 94.9822L181.678 94.3237C181.68 94.3384 182.206 97.9016 181.912 104.893C181.837 106.669 183.985 109.393 189.471 108.228Z" fill="#E4897B"/>
<path d="M181.353 93.2316C181.353 93.2316 184.564 102.715 192.574 100.123C200.45 97.5756 197.156 92.1982 193.437 84.2308C191.193 79.4223 175.896 78.4264 181.353 93.2316Z" fill="#E4897B"/>
<path d="M179.718 93.1845C180.03 93.1633 180.341 93.2399 180.652 93.2089C181.583 93.1144 182.483 92.671 183.104 91.9701C183.88 91.0932 184.199 89.781 183.743 88.7036C183.514 88.1657 183.164 87.6848 182.788 87.235C182.782 87.2268 182.775 87.2203 182.769 87.2121C182.169 86.4819 182.566 85.3605 183.493 85.1681C183.916 85.0801 184.351 85.0491 184.707 85.0605C186.081 85.1062 187.451 85.2284 188.809 85.4273C189.705 85.5593 190.617 85.5789 191.516 85.4632C195.976 84.8943 195.515 81.7924 193.527 80.0075C192.381 78.979 189.463 78.3335 187.282 79.0556C187.282 79.0556 189.88 78.0287 189.298 76.7606C188.373 74.7475 179.309 76.9268 176.913 80.9888C176.913 80.9888 174.067 82.8046 174.26 85.5675C174.454 88.3287 177.099 93.3605 179.718 93.1845Z" fill="#263238"/>
<path d="M192.334 85.3199C192.334 85.3199 188.683 85.8399 189.988 87.8986C191.292 89.9572 189.762 93.0363 188.734 93.7992C187.704 94.562 188.263 99.5188 183.586 98.6451C178.909 97.7715 174.5 94.1398 173.763 91.509C173.024 88.8782 172.469 87.3085 173.107 85.6606C173.745 84.0126 188.693 82.3892 188.693 82.3892L192.334 85.3199Z" fill="#263238"/>
<path d="M190.893 93.4897C192.384 93.3256 193.486 92.2351 193.355 91.054C193.225 89.8728 191.91 89.0482 190.42 89.2123C188.929 89.3763 187.826 90.4668 187.957 91.648C188.088 92.8291 189.402 93.6537 190.893 93.4897Z" fill="#E4897B"/>
<path d="M188.408 92.7607C189.023 93.31 189.754 93.7207 190.607 93.6181C191.55 93.504 192.539 93.0736 193.211 92.4005C193.287 92.3238 193.174 92.2016 193.097 92.2782C192.49 92.8862 191.671 93.2366 190.836 93.4078C189.943 93.592 189.191 93.2366 188.533 92.6482C188.451 92.5765 188.328 92.689 188.408 92.7607Z" fill="#EF9778"/>
<path d="M190.725 90.743C190.973 90.7561 191.233 90.805 191.328 91.0658C191.358 91.1473 191.349 91.2451 191.379 91.3298C191.461 91.558 191.629 91.7276 191.843 91.8368C191.949 91.8906 192.047 91.7341 191.941 91.6803C191.702 91.5597 191.56 91.3722 191.518 91.1065C191.501 90.9973 191.511 90.8865 191.443 90.7919C191.3 90.5963 190.947 90.5703 190.728 90.5589C190.61 90.5507 190.604 90.7365 190.725 90.743Z" fill="#EF9778"/>
<path d="M190.061 89.3723C190.295 89.3022 190.539 89.2827 190.78 89.3218C190.897 89.3413 190.95 89.1637 190.833 89.1441C190.558 89.1001 190.287 89.1115 190.019 89.1914C189.906 89.2256 189.947 89.4065 190.061 89.3723Z" fill="#EF9778"/>
<path d="M190.329 98.0223C190.094 99.0687 190.22 100.316 190.462 101.354C190.499 101.515 190.748 101.447 190.71 101.286C190.485 100.314 190.355 99.0785 190.578 98.0907C190.614 97.9294 190.365 97.8609 190.329 98.0223Z" fill="#EF9778"/>
<path d="M186.023 103.406C182.023 103.406 174.055 104.158 170.455 107.85C165.356 113.079 171.999 137.005 163.717 165.845C163.717 165.845 181.667 174.341 204.501 166.733C204.501 166.733 203.532 127.335 202.268 119.949C201.003 112.568 198.26 103.406 186.023 103.406Z" fill="#CBB0F8"/>
<path d="M180.807 178.595C183.261 180.905 183.704 184.282 184.017 187.462C184.034 187.625 184.29 187.627 184.274 187.462C183.952 184.21 183.493 180.771 180.988 178.412C180.867 178.3 180.686 178.482 180.807 178.595Z" fill="white"/>
<path d="M198.214 174.88C200.499 173.721 202.204 171.783 203.072 169.379C203.128 169.224 202.879 169.157 202.824 169.31C201.977 171.651 200.306 173.529 198.083 174.658C197.936 174.733 198.067 174.955 198.214 174.88Z" fill="white"/>
<path d="M198.323 174.513C198.395 183.612 197.66 192.759 197.096 201.834C196.376 213.418 195.582 225.009 194.423 236.559C194.063 240.143 193.862 243.902 192.958 247.403C192.917 247.563 193.164 247.632 193.206 247.472C193.96 244.556 194.168 241.446 194.485 238.463C195.044 233.19 195.487 227.904 195.902 222.618C196.831 210.794 197.604 198.953 198.176 187.107C198.379 182.916 198.614 178.71 198.582 174.513C198.58 174.348 198.322 174.348 198.323 174.513Z" fill="white"/>
<path d="M189.932 103.765C189.932 103.765 201.81 104.542 205.94 114.105C210.007 123.528 215.6 142.924 215.6 142.924L224.475 165.894L212.324 167.889L200.548 147.23L189.932 103.765Z" fill="#CBB0F8"/>
<path d="M170.454 107.85C163.087 113.266 154.842 129.633 152.043 138.308C150.207 143.998 144.78 163.995 144.78 163.995L156.753 166.614C156.753 166.614 162.29 147.979 165.003 142.062C167.276 137.11 175.552 122.986 175.552 122.986C175.552 122.986 174.362 104.976 170.454 107.85Z" fill="#CBB0F8"/>
<path d="M156.91 166.243C156.883 166.376 156.829 166.498 156.751 166.616C156.708 166.674 156.658 166.735 156.606 166.789C156.329 167.064 155.891 167.281 155.332 167.431C155.102 167.496 154.851 167.548 154.582 167.587C154.469 167.604 154.356 167.618 154.237 167.633C153.336 167.734 152.264 167.71 151.121 167.548C150.889 167.517 150.652 167.476 150.413 167.431C150.411 167.431 150.411 167.431 150.408 167.431C149.517 167.261 148.685 167.031 147.946 166.758C147.946 166.758 147.946 166.758 147.946 166.756C147.776 166.692 147.611 166.627 147.451 166.559C147.109 166.415 146.795 166.262 146.509 166.106V166.104C145.919 165.776 145.451 165.421 145.151 165.061C144.917 164.777 144.778 164.495 144.766 164.218C144.766 164.216 144.766 164.216 144.766 164.216C144.762 164.145 144.766 164.071 144.781 164C144.866 163.553 145.281 163.201 145.929 162.958C146.097 162.893 146.282 162.839 146.48 162.792C146.955 162.678 147.51 162.608 148.123 162.585C148.249 162.58 148.376 162.577 148.507 162.577C148.731 162.577 148.963 162.583 149.202 162.595C149.857 162.627 150.555 162.709 151.273 162.846C151.991 162.979 152.669 163.155 153.293 163.359C153.307 163.366 153.315 163.367 153.325 163.369C153.499 163.426 153.673 163.488 153.839 163.551C154.016 163.62 154.189 163.687 154.354 163.76C155.257 164.146 155.973 164.596 156.417 165.059C156.802 165.452 156.981 165.858 156.91 166.243Z" fill="#A28DC6"/>
<path d="M154.919 173.421C154.547 173.4 154.018 172.467 153.692 171.398C153.583 171.088 153.475 170.911 153.361 170.832C152.996 173.406 152.277 177.092 151.567 176.995C150.923 176.907 151.033 174.599 151.278 172.365L151.168 172.371C150.593 175.072 149.594 178.691 148.801 178.531C147.938 178.356 148.404 175.116 148.906 172.48L148.791 172.487C148.79 172.502 148.785 172.518 148.783 172.534C148.276 175.036 147.268 178.811 146.421 178.64C146.352 178.627 146.295 178.593 146.244 178.542C145.654 177.944 146.102 174.924 146.54 172.596C146.534 171.74 146.308 171.819 146.123 172.024C146.045 172.143 145.967 172.255 145.89 172.366C145.89 172.368 145.89 172.368 145.89 172.368C145.108 173.476 144.319 174.215 143.897 174.084C142.936 173.796 144.845 170.64 145.654 167.97C145.867 167.269 146.169 166.705 146.509 166.105V166.104C146.851 165.506 147.229 164.873 147.593 164.032C147.776 163.61 154.593 164.389 154.762 164.72C154.94 165.069 155.128 165.489 155.231 166.167C155.277 166.454 155.311 166.899 155.334 167.431C155.433 169.669 155.33 173.444 154.919 173.421Z" fill="#E4897B"/>
<path d="M204.406 154.204L200.735 145.728C200.547 145.297 200.398 144.846 200.292 144.381L195.668 124.282L195.87 124.238L200.493 144.337C200.597 144.787 200.741 145.227 200.923 145.648L204.594 154.124L204.406 154.204Z" fill="white"/>
<path d="M167.943 138.471L167.232 124.264L167.438 124.254L168.149 138.463L167.943 138.471Z" fill="white"/>
<path d="M234.887 179.682L231.408 178.719C231.212 178.642 231.006 178.583 230.793 178.547H230.792C230.582 178.513 230.365 178.499 230.144 178.508L199.093 179.85C197.437 179.922 196.133 181.281 196.133 182.932V202.491C196.133 204.05 197.289 205.317 198.763 205.539L198.76 205.576L202.217 206.536L203.909 205.144L230.571 202.61C232.16 202.458 233.371 201.128 233.371 199.537V181.589C233.371 181.379 233.348 181.173 233.309 180.976L234.887 179.682Z" fill="#784EC1"/>
<path d="M234.287 203.656L203.236 206.608C201.418 206.781 199.847 205.356 199.847 203.535V183.977C199.847 182.324 201.151 180.965 202.807 180.895L233.858 179.553C235.619 179.477 237.087 180.88 237.087 182.636V200.584C237.089 202.176 235.876 203.506 234.287 203.656Z" fill="#9661F1"/>
<path d="M210.496 181.49C210.388 181.49 210.278 181.465 210.175 181.415C209.819 181.239 209.674 180.807 209.852 180.452L211.761 176.619C212.438 175.257 213.806 174.373 215.331 174.31L221.47 174.057C221.534 174.052 221.598 174.052 221.661 174.052C223.703 174.052 225.552 175.371 226.198 177.312L227.087 179.977C227.213 180.354 227.009 180.76 226.631 180.885C226.247 181.006 225.845 180.805 225.72 180.43L224.831 177.765C224.365 176.365 223.031 175.47 221.527 175.488L215.39 175.741C214.39 175.783 213.492 176.365 213.049 177.257L211.138 181.089C211.016 181.342 210.761 181.49 210.496 181.49Z" fill="#515B60"/>
<path d="M224.475 165.894C224.493 166.028 224.481 166.163 224.445 166.298C224.424 166.368 224.398 166.44 224.364 166.508C224.12 166.999 223.537 167.488 222.706 167.915C222.606 167.969 222.502 168.019 222.395 168.07C221.575 168.456 220.551 168.779 219.419 168.996C219.188 169.041 218.951 169.079 218.711 169.113C218.709 169.113 218.709 169.113 218.707 169.115C217.81 169.24 216.945 169.291 216.159 169.271C216.159 169.271 216.159 169.271 216.159 169.27C215.977 169.265 215.801 169.257 215.626 169.244C214.495 169.164 213.56 168.927 212.963 168.565C212.649 168.373 212.428 168.15 212.327 167.892C212.327 167.891 212.327 167.891 212.327 167.891C212.299 167.824 212.279 167.752 212.27 167.68C212.204 167.23 212.482 166.763 213.017 166.323C213.156 166.207 213.313 166.098 213.484 165.988C213.981 165.674 214.611 165.382 215.333 165.131C215.546 165.059 215.768 164.989 215.997 164.922C216.628 164.743 217.315 164.596 218.037 164.492C218.76 164.388 219.461 164.336 220.117 164.327C220.13 164.327 220.138 164.327 220.149 164.327C220.334 164.324 220.517 164.327 220.695 164.334C221.92 164.373 222.948 164.583 223.623 164.929C224.115 165.18 224.418 165.506 224.475 165.894Z" fill="#A28DC6"/>
<path d="M224.89 174.523C224.91 174.916 224.893 175.305 224.844 175.69C224.553 178.045 223.075 180.2 221.393 181.943C221.264 182.076 221.078 182.218 220.913 182.132C220.842 182.096 220.797 182.024 220.762 181.952C220.427 181.296 220.546 180.497 220.815 179.811C221.083 179.124 221.482 178.494 221.719 177.798C221.805 177.543 221.867 177.284 221.913 177.022C221.921 176.983 221.929 176.942 221.936 176.903C221.913 176.937 221.89 176.971 221.867 177.002C220.986 178.309 219.808 179.467 218.573 180.451C218.416 180.575 218.194 180.704 218.029 180.59C217.957 180.539 217.918 180.455 217.89 180.373C217.624 179.62 217.867 178.779 218.25 178.078C218.408 177.789 218.59 177.512 218.773 177.24C218.147 177.768 217.481 178.251 216.804 178.688C216.636 178.797 216.402 178.899 216.25 178.769C216.183 178.714 216.154 178.626 216.133 178.539C215.945 177.765 216.27 176.952 216.721 176.293C217.163 175.651 217.728 175.095 218.148 174.438C218.158 174.422 218.168 174.407 218.178 174.391C218.199 174.358 218.217 174.322 218.237 174.29C218.188 174.337 218.138 174.383 218.088 174.427C217.311 175.155 216.448 175.804 215.565 176.371C215.397 176.481 215.163 176.585 215.013 176.454C214.946 176.396 214.916 176.311 214.897 176.225C214.705 175.452 215.031 174.635 215.484 173.979C215.856 173.434 216.316 172.955 216.703 172.422C216.716 172.406 216.726 172.389 216.739 172.373C216.695 171.534 216.466 170.707 216.061 169.97C215.925 169.721 215.77 169.48 215.621 169.238C215.488 169.022 215.359 168.805 215.251 168.577C214.856 167.732 214.8 166.749 215.047 165.855C215.117 165.604 215.212 165.359 215.328 165.128C215.541 165.056 215.763 164.986 215.992 164.919C216.623 164.74 217.31 164.593 218.032 164.489C218.755 164.384 219.456 164.332 220.112 164.324C220.125 164.324 220.133 164.324 220.144 164.324C220.329 164.321 220.512 164.324 220.69 164.331C221.066 164.743 221.383 165.25 221.674 165.796C221.699 165.843 221.725 165.89 221.748 165.938C222.015 166.45 222.265 166.991 222.525 167.522C222.585 167.652 222.644 167.783 222.703 167.913C223.162 168.922 223.592 169.946 223.988 170.983C224.427 172.124 224.83 173.302 224.89 174.523Z" fill="#E4897B"/>
<path d="M218.998 177.292C219.36 176.75 219.74 176.217 220.081 175.661C220.326 175.262 220.506 174.851 220.489 174.375C220.486 174.266 220.314 174.259 220.319 174.368C220.337 174.914 220.074 175.369 219.783 175.812C219.477 176.279 219.163 176.742 218.854 177.204C218.791 177.294 218.936 177.384 218.998 177.292Z" fill="#EF9778"/>
<path d="M218.189 174.419C218.804 173.896 219.123 173.118 219.051 172.316C219.041 172.209 218.871 172.2 218.881 172.31C218.949 173.072 218.657 173.798 218.073 174.295C217.988 174.367 218.106 174.491 218.189 174.419Z" fill="#EF9778"/>
<path d="M222.011 176.967C222.255 176.373 222.554 175.813 222.907 175.276C222.968 175.185 222.822 175.095 222.762 175.187C222.4 175.733 222.096 176.31 221.848 176.916C221.805 177.019 221.969 177.068 222.011 176.967Z" fill="#EF9778"/>
<path d="M199.853 192.621L199.84 192.419L237.082 189.917L237.095 190.119L199.853 192.621Z" fill="white"/>
<path d="M206.808 190.908H205.505V193.087H206.808V190.908Z" fill="white"/>
<path d="M231.802 189.438H230.499V191.617H231.802V189.438Z" fill="white"/>
</g>
<defs>
<linearGradient id="paint0_linear_8345_44781" x1="240" y1="163" x2="240" y2="326" gradientUnits="userSpaceOnUse">
<stop stop-color="#F5F5F5"/>
<stop offset="0.932292" stop-color="#F5F5F5" stop-opacity="0.0677083"/>
<stop offset="1" stop-color="#F5F5F5" stop-opacity="0"/>
</linearGradient>
<linearGradient id="paint1_linear_8345_44781" x1="368.532" y1="211.617" x2="368.532" y2="326" gradientUnits="userSpaceOnUse">
<stop stop-color="#E0E0E0"/>
<stop offset="1" stop-color="#E0E0E0" stop-opacity="0"/>
</linearGradient>
<linearGradient id="paint2_linear_8345_44781" x1="239.5" y1="0" x2="239.5" y2="148" gradientUnits="userSpaceOnUse">
<stop stop-color="white"/>
<stop offset="1" stop-color="white" stop-opacity="0"/>
</linearGradient>
<linearGradient id="paint3_linear_8345_44781" x1="172" y1="0" x2="172" y2="133" gradientUnits="userSpaceOnUse">
<stop stop-color="white"/>
<stop offset="1" stop-color="white" stop-opacity="0"/>
</linearGradient>
<linearGradient id="paint4_linear_8345_44781" x1="652" y1="18" x2="652" y2="151" gradientUnits="userSpaceOnUse">
<stop stop-color="white"/>
<stop offset="1" stop-color="white" stop-opacity="0"/>
</linearGradient>
<linearGradient id="paint5_linear_8345_44781" x1="175.561" y1="247.457" x2="173.061" y2="288.457" gradientUnits="userSpaceOnUse">
<stop stop-color="#E0E0E0"/>
<stop offset="1" stop-color="#E0E0E0" stop-opacity="0"/>
</linearGradient>
<clipPath id="clip0_8345_44781">
<rect width="480" height="326" fill="white"/>
</clipPath>
</defs>
</svg>
