<svg width="325" height="220" viewBox="0 0 325 220" fill="none" xmlns="http://www.w3.org/2000/svg">
<path d="M87.4716 206.602C11.3832 204.991 2.28273 142.619 1.06231 122.875C-0.158121 103.131 8.52801 82.0689 25.7345 72.3134C42.941 62.5579 68.231 67.797 77.1431 85.4111C80.0661 91.1921 80.9551 98.7271 76.9096 103.793C71.4328 110.658 59.5223 108.776 54.0304 101.919C48.5384 95.0612 48.1618 85.3584 49.7212 76.7546C55.748 43.4685 90.1987 10.9953 123.911 14.0891C142.18 15.7601 158.339 31.3343 174.476 40.051C190.613 48.7678 207.284 57.6952 225.546 59.5244C243.807 61.3536 264.238 54.2552 272.63 37.9659C276.472 30.4988 275.832 18.8915 267.786 16.4752C261.059 14.4504 254.226 21.1498 253.472 28.1201C252.719 35.0905 256.094 41.7974 259.559 47.8946C267.248 61.4425 275.835 74.4614 285.264 86.8639C297.958 103.582 312.422 119.593 319.624 139.3C326.826 159.006 324.664 184.088 308.12 197.012C289.754 211.359 262.919 205.217 240.741 212.353" stroke="#7C3AED" stroke-miterlimit="10" stroke-dasharray="12 12"/>
<path d="M248.44 219.316H48.9531L53.2623 214.506C53.9462 213.74 54.7843 213.128 55.7217 212.709C56.6591 212.29 57.6746 212.074 58.7015 212.074H248.44V219.316Z" fill="#7BE0AD"/>
<path d="M247.558 219.316H103.555L141.84 120.428C142.419 118.93 143.439 117.642 144.765 116.734C146.091 115.826 147.661 115.34 149.268 115.34H285.948C286.444 115.34 286.933 115.458 287.373 115.687C287.813 115.915 288.192 116.246 288.477 116.651C288.762 117.056 288.946 117.524 289.012 118.015C289.078 118.506 289.024 119.006 288.856 119.472L255.061 214.031C254.509 215.578 253.491 216.917 252.148 217.863C250.805 218.809 249.201 219.316 247.558 219.316Z" fill="#7BE0AD"/>
<path d="M110.787 212.074L145.162 123.251C145.705 121.843 146.662 120.632 147.908 119.779C149.153 118.925 150.628 118.469 152.139 118.471H280.479C280.945 118.47 281.404 118.582 281.817 118.796C282.231 119.009 282.586 119.319 282.855 119.7C283.123 120.08 283.295 120.519 283.358 120.98C283.421 121.441 283.371 121.91 283.214 122.348L251.174 212.074H110.787Z" fill="#FEFDFF"/>
<path d="M110.787 212.074L145.162 123.251C145.705 121.843 146.662 120.632 147.908 119.779C149.153 118.925 150.628 118.469 152.139 118.471H280.479C280.945 118.47 281.404 118.582 281.817 118.796C282.231 119.009 282.586 119.319 282.855 119.7C283.123 120.08 283.295 120.519 283.358 120.98C283.421 121.441 283.371 121.91 283.214 122.348L251.174 212.074H110.787Z" fill="url(#paint0_linear_8330_34825)"/>
<path d="M223.315 173.564C220.513 173.563 217.724 173.95 215.029 174.716C214.412 170.241 212.8 165.96 210.312 162.188C207.824 158.416 204.522 155.249 200.649 152.918C196.776 150.587 192.43 149.152 187.93 148.718C183.429 148.284 178.889 148.862 174.641 150.41C171.31 147.083 167.247 144.578 162.777 143.096C158.306 141.613 153.551 141.193 148.89 141.869C144.228 142.545 139.789 144.299 135.925 146.99C132.06 149.681 128.878 153.237 126.63 157.373C125.922 157.32 125.207 157.29 124.483 157.29C117.206 157.29 110.172 159.909 104.669 164.667C99.166 169.425 95.5615 176.003 94.5151 183.199C88.3762 185.138 83.0152 188.981 79.21 194.171C75.4049 199.36 73.3535 205.626 73.3535 212.059H252.455C253.73 207.558 253.943 202.823 253.079 198.226C252.214 193.629 250.294 189.294 247.471 185.563C244.647 181.831 240.997 178.805 236.806 176.72C232.615 174.636 227.997 173.55 223.315 173.549V173.564Z" fill="#D0CFEC"/>
<path d="M171.953 96.6343H148.697V195.469H171.953V96.6343Z" fill="#D0CFEC"/>
<path d="M153.367 115.987V147.256" stroke="white" stroke-miterlimit="10"/>
<path d="M157.428 125.193V154.994" stroke="white" stroke-miterlimit="10"/>
<path d="M153.367 151.802V165.502" stroke="white" stroke-miterlimit="10"/>
<path d="M167.59 119.119V160.376" stroke="white" stroke-miterlimit="10"/>
<path d="M163.477 120.948V162.205" stroke="white" stroke-miterlimit="10"/>
<path d="M192.18 57.7028C185.14 51.6021 176.494 47.6517 167.271 46.3221C158.047 44.9924 148.636 46.3396 140.157 50.2031C131.678 54.0666 124.49 60.2837 119.447 68.1139C114.405 75.9441 111.721 85.0575 111.715 94.3687H208.935C208.94 87.4136 207.446 80.5389 204.555 74.2121C201.664 67.8852 197.443 62.2545 192.18 57.7028Z" fill="#F6AE2D"/>
<path d="M141.668 92.7126H178.936V99.9766C178.936 100.464 178.84 100.946 178.653 101.397C178.467 101.847 178.193 102.256 177.848 102.601C177.504 102.945 177.094 103.219 176.643 103.405C176.193 103.592 175.71 103.688 175.222 103.688H145.382C144.397 103.688 143.452 103.297 142.756 102.601C142.059 101.905 141.668 100.961 141.668 99.9766V92.7277V92.7126Z" fill="#7C3AED"/>
<path d="M193.213 55.2036C193.213 71.4477 187.585 85.7874 178.982 94.346H141.616C133.02 85.7648 127.385 71.4251 127.385 55.2036C127.385 18.6731 160.299 0.200928 160.299 0.200928C160.299 0.200928 193.213 18.6807 193.213 55.2036Z" fill="#7C3AED"/>
<path d="M184.646 24.6574H135.949C142.03 14.7075 150.372 6.32898 160.297 0.200928C170.223 6.32898 178.565 14.7075 184.646 24.6574Z" fill="#FEDAC9"/>
<path d="M186.439 84.1013C184.478 87.8756 181.964 91.3362 178.981 94.3687H141.614C138.631 91.3362 136.117 87.8756 134.156 84.1013H186.439Z" fill="#FEDAC9"/>
<path d="M160.297 66.6453C168.739 66.6453 175.583 59.8073 175.583 51.3722C175.583 42.9371 168.739 36.0991 160.297 36.0991C151.855 36.0991 145.012 42.9371 145.012 51.3722C145.012 59.8073 151.855 66.6453 160.297 66.6453Z" fill="#7BE0AD"/>
<path d="M160.297 63.3257C166.904 63.3257 172.26 57.9739 172.26 51.3722C172.26 44.7705 166.904 39.4187 160.297 39.4187C153.69 39.4187 148.334 44.7705 148.334 51.3722C148.334 57.9739 153.69 63.3257 160.297 63.3257Z" fill="#332066"/>
<path d="M169.233 52.554C169.079 53.6916 168.711 54.7899 168.148 55.7907" stroke="#FEFDFF" stroke-width="2" stroke-miterlimit="10" stroke-linecap="round"/>
<path d="M163.74 43.0393C165.017 43.5656 166.157 44.3773 167.071 45.412C167.985 46.4468 168.65 47.6771 169.014 49.0085" stroke="#FEFDFF" stroke-width="2" stroke-miterlimit="10" stroke-linecap="round"/>
<path d="M165.201 111.636C165.201 114.324 160.327 120.887 160.327 120.887C160.327 120.887 155.453 114.324 155.453 111.636C155.453 110.345 155.967 109.106 156.881 108.193C157.795 107.279 159.035 106.766 160.327 106.766C161.62 106.766 162.86 107.279 163.774 108.193C164.688 109.106 165.201 110.345 165.201 111.636Z" fill="#F6AE2D"/>
<path d="M37.4418 204.991C50.9513 204.991 61.903 194.048 61.903 180.55C61.903 167.051 50.9513 156.108 37.4418 156.108C23.9322 156.108 12.9805 167.051 12.9805 180.55C12.9805 194.048 23.9322 204.991 37.4418 204.991Z" fill="#D0CFEC"/>
<path d="M37.4406 206.602C51.8406 206.602 63.5141 194.938 63.5141 180.55C63.5141 166.161 51.8406 154.497 37.4406 154.497C23.0407 154.497 11.3672 166.161 11.3672 180.55C11.3672 194.938 23.0407 206.602 37.4406 206.602Z" stroke="#D0CFEC" stroke-miterlimit="10"/>
<path d="M37.4409 201.905C49.2446 201.905 58.8134 192.344 58.8134 180.55C58.8134 168.756 49.2446 159.195 37.4409 159.195C25.6372 159.195 16.0684 168.756 16.0684 180.55C16.0684 192.344 25.6372 201.905 37.4409 201.905Z" fill="#7C3AED"/>
<path d="M40.1694 174.219C41.4072 174.77 42.4546 175.673 43.1798 176.817C43.905 177.96 44.2757 179.292 44.2452 180.646C44.2148 181.999 43.7845 183.313 43.0085 184.423C42.2326 185.533 41.1456 186.389 39.8842 186.883C38.6229 187.377 37.2434 187.487 35.9194 187.2C34.5954 186.913 33.3859 186.241 32.4429 185.269C31.5 184.297 30.8657 183.068 30.6199 181.737C30.3741 180.406 30.5277 179.032 31.0614 177.787C31.7984 176.11 33.1707 174.792 34.8778 174.124C36.5849 173.455 38.4876 173.489 40.1694 174.219ZM40.8549 182.025C41.1277 181.15 41.0669 180.206 40.6843 179.373C40.3017 178.54 39.6243 177.879 38.7825 177.515C37.9408 177.151 36.9942 177.112 36.125 177.404C35.2559 177.696 34.5256 178.299 34.0748 179.097C33.8187 179.55 33.6609 180.052 33.6116 180.57C33.5623 181.088 33.6227 181.611 33.7887 182.104C33.9548 182.598 34.2228 183.051 34.5754 183.434C34.928 183.817 35.3573 184.121 35.8355 184.328C36.3136 184.534 36.8298 184.638 37.3506 184.632C37.8715 184.626 38.3853 184.511 38.8586 184.294C39.332 184.077 39.7543 183.763 40.0983 183.372C40.4422 182.981 40.7 182.522 40.8549 182.025Z" fill="#FEFDFF"/>
<path d="M50.1963 184.69L49.1943 187.001C49.0754 187.283 48.8534 187.509 48.5736 187.633C48.2937 187.758 47.9769 187.771 47.6876 187.671L45.8946 187.016C45.2812 187.819 44.5497 188.524 43.725 189.108L44.3126 190.953C44.4123 191.244 44.3968 191.562 44.2694 191.842C44.1419 192.122 43.9121 192.342 43.6271 192.458L41.2615 193.384C40.9799 193.482 40.6723 193.475 40.3954 193.365C40.1184 193.254 39.8909 193.047 39.7548 192.782L38.896 191.043C37.8944 191.174 36.879 191.156 35.8826 190.99L34.9861 192.661C34.8429 192.93 34.6028 193.134 34.3145 193.232C34.0262 193.329 33.7115 193.314 33.4342 193.188L31.0612 192.157C30.7761 192.041 30.5463 191.82 30.4189 191.54C30.2914 191.261 30.2759 190.943 30.3756 190.652L30.9934 188.807C30.1828 188.195 29.4691 187.464 28.8765 186.639L27.0383 187.279C26.745 187.372 26.4275 187.352 26.1484 187.223C25.8694 187.093 25.6493 186.863 25.5316 186.579L24.605 184.283C24.4957 184.004 24.4963 183.693 24.6067 183.414C24.7171 183.135 24.9291 182.907 25.2001 182.778L26.9479 181.935C26.7936 180.937 26.7936 179.922 26.9479 178.924L25.2152 178.006C24.9451 177.864 24.7385 177.625 24.6365 177.338C24.5346 177.05 24.5449 176.735 24.6652 176.455L25.6446 174.197C25.7649 173.916 25.9874 173.691 26.2671 173.568C26.5469 173.445 26.8629 173.433 27.1513 173.534L28.9593 174.144C29.5726 173.341 30.3041 172.635 31.129 172.051L30.5414 170.2C30.444 169.908 30.4614 169.59 30.5901 169.31C30.7189 169.03 30.9492 168.81 31.2344 168.694L33.6075 167.723C33.889 167.623 34.1972 167.629 34.4746 167.74C34.7519 167.851 34.9793 168.059 35.1142 168.325L35.9805 170.064C36.9821 169.934 37.9975 169.951 38.9939 170.117L39.8904 168.446C40.0337 168.177 40.2738 167.973 40.5621 167.876C40.8503 167.778 41.1651 167.793 41.4423 167.919L43.7777 168.92C44.0616 169.037 44.2902 169.258 44.4175 169.538C44.5447 169.817 44.5611 170.134 44.4633 170.425L43.8606 172.225C44.6717 172.839 45.3876 173.569 45.985 174.392L47.8458 173.82C48.1391 173.727 48.4566 173.747 48.7357 173.877C49.0147 174.007 49.2348 174.236 49.3525 174.52L50.3093 176.869C50.415 177.149 50.4126 177.458 50.3025 177.736C50.1925 178.015 49.9828 178.242 49.7141 178.374L47.9664 179.217C48.1168 180.215 48.1168 181.23 47.9664 182.228L49.7066 183.147C49.9655 183.297 50.1591 183.539 50.2496 183.824C50.3401 184.109 50.3211 184.418 50.1963 184.69ZM43.8079 183.312C44.3629 182.056 44.5318 180.662 44.2931 179.309C44.0543 177.956 43.4186 176.705 42.4668 175.714C41.5149 174.722 40.2898 174.036 38.9468 173.742C37.6039 173.447 36.2037 173.558 34.9239 174.06C33.6442 174.563 32.5426 175.433 31.759 176.562C30.9754 177.691 30.5451 179.027 30.5227 180.4C30.5003 181.774 30.8868 183.123 31.6332 184.277C32.3796 185.431 33.4522 186.337 34.7149 186.88C36.395 187.606 38.2939 187.638 39.9975 186.969C41.701 186.301 43.0707 184.986 43.8079 183.312Z" fill="#FEDAC9"/>
<path d="M289.045 136.364C305.409 136.364 318.675 123.109 318.675 106.759C318.675 90.408 305.409 77.1533 289.045 77.1533C272.682 77.1533 259.416 90.408 259.416 106.759C259.416 123.109 272.682 136.364 289.045 136.364Z" fill="#D0CFEC"/>
<path d="M289.045 138.321C306.491 138.321 320.633 124.19 320.633 106.759C320.633 89.3272 306.491 75.1963 289.045 75.1963C271.599 75.1963 257.457 89.3272 257.457 106.759C257.457 124.19 271.599 138.321 289.045 138.321Z" stroke="#D0CFEC" stroke-miterlimit="10"/>
<path d="M289.045 132.63C303.345 132.63 314.938 121.047 314.938 106.759C314.938 92.4701 303.345 80.887 289.045 80.887C274.745 80.887 263.152 92.4701 263.152 106.759C263.152 121.047 274.745 132.63 289.045 132.63Z" fill="#7C3AED"/>
<path d="M273.33 110.063L284.849 118.215L303.215 94.3384" stroke="#FEFDFF" stroke-width="5" stroke-linecap="round" stroke-linejoin="round"/>
<defs>
<linearGradient id="paint0_linear_8330_34825" x1="249.72" y1="106.601" x2="163.611" y2="208.252" gradientUnits="userSpaceOnUse">
<stop stop-color="#FEDAC9" stop-opacity="0.7"/>
<stop offset="0.26" stop-color="#E3B8D1" stop-opacity="0.76"/>
<stop offset="0.78" stop-color="#9D62E4" stop-opacity="0.92"/>
<stop offset="1" stop-color="#7C3AED"/>
</linearGradient>
</defs>
</svg>
