<svg width="416" height="270" viewBox="0 0 416 270" fill="none" xmlns="http://www.w3.org/2000/svg">
<path d="M35.8368 155.268C29.577 137.49 26.3752 118.781 26.3672 99.9341C26.3672 87.273 27.8739 74.1979 34.2849 63.2305C41.5472 50.7576 54.7459 42.199 68.939 39.4891C83.1321 36.7793 98.1087 39.6848 110.87 46.4444C114.818 48.5446 118.751 51.1792 120.769 55.1687C122.788 59.1582 122.171 64.7661 118.374 67.1372C115.805 68.7481 112.43 68.5148 109.59 67.4233C106.415 66.1308 103.707 63.9063 101.824 61.0437C99.9405 58.181 98.9709 54.8149 99.0429 51.3899C99.4045 42.2216 107.156 35.1082 115.052 30.4262C150.06 9.66561 215.541 14.8219 252.011 74.8378" stroke="#7C3AED" stroke-miterlimit="10" stroke-dasharray="12 12"/>
<path d="M267.944 78.3379C413.77 94.2357 397.106 143.073 388.231 155.268C334.744 228.72 220.37 235.495 170.513 235.495C108.821 235.495 58.8065 193.131 54.4973 183.872" stroke="#7C3AED" stroke-miterlimit="10" stroke-dasharray="12 12"/>
<path d="M103.262 221.141L385.414 221.141V183.888L103.262 183.888V221.141Z" fill="#F6AE2D"/>
<path d="M35.4075 221.141H162.867V87.2207H74.2427L35.4075 162.773V221.141Z" fill="#7BE0AD"/>
<path d="M35.4074 179.416C33.6295 179.416 30.5859 175.69 30.5859 171.091C30.5859 166.492 33.5993 162.766 35.4074 162.766V179.416Z" fill="#F6AE2D"/>
<path d="M150.293 161.214H49.0732L81.9871 98.0137H150.293V161.214Z" fill="white"/>
<path d="M83.5767 94.2363V166.454" stroke="#7BE0AD" stroke-width="6" stroke-miterlimit="10"/>
<path d="M334.713 252.047C350.416 252.047 363.145 239.328 363.145 223.639C363.145 207.949 350.416 195.23 334.713 195.23C319.011 195.23 306.282 207.949 306.282 223.639C306.282 239.328 319.011 252.047 334.713 252.047Z" fill="#7C3AED"/>
<path d="M334.713 239.122C343.272 239.122 350.21 232.19 350.21 223.638C350.21 215.087 343.272 208.154 334.713 208.154C326.155 208.154 319.217 215.087 319.217 223.638C319.217 232.19 326.155 239.122 334.713 239.122Z" fill="#FEDAC9"/>
<path d="M247.98 252.047C263.683 252.047 276.412 239.328 276.412 223.639C276.412 207.949 263.683 195.23 247.98 195.23C232.278 195.23 219.549 207.949 219.549 223.639C219.549 239.328 232.278 252.047 247.98 252.047Z" fill="#7C3AED"/>
<path d="M247.98 239.122C256.539 239.122 263.477 232.19 263.477 223.638C263.477 215.087 256.539 208.154 247.98 208.154C239.422 208.154 232.484 215.087 232.484 223.638C232.484 232.19 239.422 239.122 247.98 239.122Z" fill="#FEDAC9"/>
<path d="M97.4759 252.047C113.178 252.047 125.907 239.328 125.907 223.639C125.907 207.949 113.178 195.23 97.4759 195.23C81.7736 195.23 69.0444 207.949 69.0444 223.639C69.0444 239.328 81.7736 252.047 97.4759 252.047Z" fill="#7C3AED"/>
<path d="M97.4759 239.122C106.034 239.122 112.972 232.19 112.972 223.638C112.972 215.087 106.034 208.154 97.4759 208.154C88.9175 208.154 81.9795 215.087 81.9795 223.638C81.9795 232.19 88.9175 239.122 97.4759 239.122Z" fill="#FEDAC9"/>
<path d="M215.533 183.865H366.844V81.1987L291.192 35.0859L215.533 81.1987V183.865Z" fill="#D0CFEC"/>
<path d="M328.461 61.1149L364.087 83.2304V17.9453H328.461V61.1149Z" fill="#F6AE2D"/>
<path d="M335.158 55.8073L357.389 70.9524V26.2246H335.158V55.8073Z" stroke="#FEFDFF" stroke-miterlimit="10"/>
<path d="M374.505 85.8732L291.192 35.0859L207.879 85.8732" stroke="#7BE0AD" stroke-width="16" stroke-linecap="round" stroke-linejoin="round"/>
<path d="M296.413 183.871H341.268V119.542H296.413V183.871Z" fill="#FEFDFF"/>
<path d="M278.928 102.162H239.038V142.02H278.928V102.162Z" fill="#FEFDFF"/>
<path d="M258.987 91.0293V151.7" stroke="#D0CFEC" stroke-width="3" stroke-miterlimit="10"/>
</svg>
